<?xml version="1.0" encoding="UTF-8"?>
<svg width="111.21" height="128" version="1.1" viewBox="0 0 29.423 33.867" xmlns="http://www.w3.org/2000/svg" xmlns:cc="http://creativecommons.org/ns#" xmlns:dc="http://purl.org/dc/elements/1.1/" xmlns:rdf="http://www.w3.org/1999/02/22-rdf-syntax-ns#">
 <title>Sermon 09 Initial</title>
 <defs>
  <clipPath id="clip_path_1">
   <path d="m0 0h15849v23495h-15849z"/>
  </clipPath>
 </defs>
 <metadata>
  <rdf:RDF>
   <cc:Work rdf:about="">
    <dc:format>image/svg+xml</dc:format>
    <dc:type rdf:resource="http://purl.org/dc/dcmitype/StillImage"/>
    <dc:title>Sermon 09 Initial</dc:title>
    <dc:date>2021-09-28</dc:date>
    <dc:creator>
     <cc:Agent>
      <dc:title>Indrele the Lesser</dc:title>
     </cc:Agent>
    </dc:creator>
    <cc:license rdf:resource="http://artlibre.org/licence/lal"/>
   </cc:Work>
   <cc:License rdf:about="http://artlibre.org/licence/lal">
    <cc:permits rdf:resource="http://creativecommons.org/ns#Reproduction"/>
    <cc:permits rdf:resource="http://creativecommons.org/ns#Distribution"/>
    <cc:permits rdf:resource="http://creativecommons.org/ns#DerivativeWorks"/>
    <cc:requires rdf:resource="http://creativecommons.org/ns#ShareAlike"/>
    <cc:requires rdf:resource="http://creativecommons.org/ns#Notice"/>
    <cc:requires rdf:resource="http://creativecommons.org/ns#Attribution"/>
   </cc:License>
  </rdf:RDF>
 </metadata>
 <g transform="translate(-16.282 -20.108)">
  <g transform="matrix(.012916 0 0 .012799 .018656 -191.15)" clip-path="url(#clip_path_1)">
   <g class="TextShape" aria-label="T">
    <path d="m1882.3 17142h720.68q20.461 0 34.102-9.093 13.641-9.094 11.367-25.008-29.555-131.86-186.42-222.8-156.87-93.211-413.77-138.68-52.289-9.094-52.289-38.648 0-34.102 56.836-34.102 165.96 0 370.57 63.656 206.88 63.657 361.48 175.06 154.59 111.4 154.59 229.62 0 43.196-159.14 140.95-156.87 95.485-320.55 165.96-29.555 13.641-50.016-15.914-36.375-54.562-122.77-113.67-86.391-59.109-127.31-59.109-9.0937 0-11.367 4.547-2.2734 4.547 0 11.367 4.5469 6.82 11.367 15.914 113.67 104.58 193.24 254.62 79.57 147.77 79.57 297.82 0 450.14-90.938 836.62h31.828q38.648 0 75.023-6.82 36.375-4.547 61.383-11.367 25.008-4.547 59.109-25.008 34.102-18.187 47.742-25.008 15.914-6.82 52.289-38.648 36.375-29.555 45.469-38.649 11.367-9.093 54.562-50.015 45.469-43.195 56.836-54.563 47.742-47.742 70.477-47.742 31.828 0 31.828 38.649 0 25.007-109.12 161.41-109.12 138.68-265.99 275.09-156.87 138.68-256.9 138.68-90.938 0-188.7-127.31-97.758-125.04-152.32-259.17-52.289-134.13-52.289-188.7 0-75.024 36.375-75.024 18.188 0 31.828 15.914 15.914 15.914 18.188 38.649 13.641 90.937 84.117 163.69t172.78 100.03q0-536.53-47.742-741.14-77.297-354.66-318.28-654.75-6.8203-6.821-18.188-18.188t-18.188-18.187q-4.5469-6.821-11.367-15.914-6.8203-11.367-11.367-20.461-2.2734-11.367-2.2734-25.008 0-29.555 63.656-29.555z" fill="#f00"/>
   </g>
  </g>
  <g class="TextShape" stroke-width=".012916" aria-label="T">
   <path d="m18.639 28.617v-6.6043h24.7v6.6043h-2.0447q-0.67474 0-0.79742-0.40893-0.20447-0.69519-0.40893-2.7603h-7.0337v23.534q0.16357 0 0.49072 0.08179 1.9833 0.36804 2.106 0.40893 0.40893 0.12268 0.40893 0.75653v1.7584h-10.142v-1.7584q0-0.71563 0.71563-0.83831 0.20447-0.04089 0.96099-0.20447 0.75653-0.16357 1.3495-0.26581v-23.514h-7.0746q-0.22491 2.2491-0.38849 2.8012-0.12268 0.40893-0.83831 0.40893z"/>
  </g>
  <g fill="none" stroke="#000" stroke-linejoin="round" stroke-width=".91706">
   <path d="m16.289 20.567h29.411"/>
   <path d="m45.247 20.115v33.854"/>
   <path d="m45.699 53.516h-29.411"/>
   <path d="m16.741 53.969v-33.854"/>
  </g>
  <g class="TextShape" stroke-width=".012916" aria-label="1">
   <path d="m19.166 23.824 0.97067-0.83709h0.32949v2.9632q0.56993 0.0423 0.58329 0.04453 0.06234 0.01336 0.06234 0.08237v0.18256h-1.7499v-0.18256q0-0.06902 0.06456-0.08237l0.63672-0.04453v-2.2263q0-0.1358 0.0045-0.20482l-0.58329 0.49647q-0.04453 0.03785-0.08237 0.03785-0.07792 0-0.10909-0.05121z" fill="#fff"/>
  </g>
  <g class="TextShape" fill="#cc0" stroke-width=".012909" aria-label="1'1">
   <path d="m18.97 46.765q0.048 0.12265 0.15998 0.43195 0.11732 0.3093 0.15998 0.39995 0.02133 0.04266 0.05866 0.11199 0.03733 0.06399 0.05333 0.10132 0.02133 0.03733 0.03733 0.09066t0.016 0.10132q0 0.0053-0.07999 0.34662-0.07999 0.33596-0.17598 0.79457-0.09599 0.45328-0.12798 0.70925-0.04266 0.37862-0.07466 1.0772-0.02666 0.69858-0.03733 0.90123-0.0053 0.06932-0.03733 0.10665-0.02666 0.03733-0.05333 0.04266-0.02666 0.0053-0.06932 0.0053-0.10132 0-0.10132-0.8639v-0.61326q0-0.40529 0.016-0.79991 0.0053-0.5386 0.016-1.2425 0-0.14932 0.02133-0.40529t0.02133-0.38396q0-0.15465-0.02133-0.29863 0-0.016-0.07999-0.01067-0.032-0.0053-0.032-0.016 0.11199-0.44795 0.16531-0.54394 0.05866-0.10666 0.10132-0.10666 0.032 0 0.06399 0.06399z"/>
   <path d="m20.02 46.802q-0.06399-0.04799-0.02133-0.11732 0.05866-0.05866 0.12798-0.032 1.0825 0.38396 1.2798 0.68259 0.15465 0.22931 0.15465 0.39462 0 0.11732-0.15465 0.26664-0.15465 0.14398-0.25064 0.14398-0.09599 0-0.21864-0.06933-0.12265-0.06932-0.18131-0.19198-0.02666-0.05333-0.09599-0.20264-0.06399-0.14932-0.11199-0.22931-0.04266-0.08532-0.12265-0.21331-0.07999-0.12798-0.18131-0.22931-0.09599-0.10665-0.22397-0.20264z"/>
   <path d="m22.383 46.765q0.04799 0.12265 0.15998 0.43195 0.11732 0.3093 0.15998 0.39995 0.02133 0.04266 0.05866 0.11199 0.03733 0.06399 0.05333 0.10132 0.02133 0.03733 0.03733 0.09066t0.016 0.10132q0 0.0053-0.07999 0.34662-0.07999 0.33596-0.17598 0.79457-0.09599 0.45328-0.12798 0.70925-0.04266 0.37862-0.07466 1.0772-0.02666 0.69858-0.03733 0.90123-0.0053 0.06932-0.03733 0.10665-0.02666 0.03733-0.05333 0.04266-0.02666 0.0053-0.06932 0.0053-0.10132 0-0.10132-0.8639v-0.61326q0-0.40529 0.016-0.79991 0.0053-0.5386 0.016-1.2425 0-0.14932 0.02133-0.40529t0.02133-0.38396q0-0.15465-0.02133-0.29863 0-0.016-0.07999-0.01067-0.032-0.0053-0.032-0.016 0.11199-0.44795 0.16531-0.54394 0.05866-0.10666 0.10132-0.10666 0.032 0 0.06399 0.06399z"/>
  </g>
 </g>
</svg>
