<?xml version="1.0" encoding="UTF-8"?>
<svg width="136.99" height="128" version="1.1" viewBox="0 0 36.246 33.867" xmlns="http://www.w3.org/2000/svg" xmlns:cc="http://creativecommons.org/ns#" xmlns:dc="http://purl.org/dc/elements/1.1/" xmlns:rdf="http://www.w3.org/1999/02/22-rdf-syntax-ns#">
 <title>Sermon 01 Initial</title>
 <defs>
  <clipPath id="clip_path_1">
   <path d="m0 0h15875v23495h-15875z"/>
  </clipPath>
 </defs>
 <metadata>
  <rdf:RDF>
   <cc:Work rdf:about="">
    <dc:format>image/svg+xml</dc:format>
    <dc:type rdf:resource="http://purl.org/dc/dcmitype/StillImage"/>
    <dc:title>Sermon 01 Initial</dc:title>
    <dc:creator>
     <cc:Agent>
      <dc:title>Indrele the Lesser</dc:title>
     </cc:Agent>
    </dc:creator>
    <dc:date>2021-09-28</dc:date>
    <cc:license rdf:resource="http://artlibre.org/licence/lal"/>
   </cc:Work>
   <cc:License rdf:about="http://artlibre.org/licence/lal">
    <cc:permits rdf:resource="http://creativecommons.org/ns#Reproduction"/>
    <cc:permits rdf:resource="http://creativecommons.org/ns#Distribution"/>
    <cc:permits rdf:resource="http://creativecommons.org/ns#DerivativeWorks"/>
    <cc:requires rdf:resource="http://creativecommons.org/ns#ShareAlike"/>
    <cc:requires rdf:resource="http://creativecommons.org/ns#Notice"/>
    <cc:requires rdf:resource="http://creativecommons.org/ns#Attribution"/>
   </cc:License>
  </rdf:RDF>
 </metadata>
 <g transform="translate(-8.3356 -17.84)">
  <g transform="matrix(.0129 0 0 .0129 -7.5628 -19.643)" clip-path="url(#clip_path_1)">
   <g class="TextShape" aria-label="H">
    <path d="m2889.5 4261.3q-13.641 129.59-56.836 256.9-40.922 127.31-120.49 256.9-77.297 127.31-129.59 202.34-52.289 75.024-156.87 204.61-104.58 131.86-127.31 161.41-31.828 38.648-88.664 38.648h-200.06q-90.938 0-90.938-38.648 0-34.102 134.13-56.836 97.758-15.914 231.89-200.06 136.41-184.15 234.16-438.77 100.03-256.9 100.03-454.69 0-181.88-72.75-366.02-72.75-184.15-206.88-313.73t-293.27-136.41q-38.648-2.2735-70.476-18.188-29.555-15.914-29.555-43.195 0-52.289 140.95-52.289h729.77q95.484 0 168.23-34.102 75.024-34.102 109.12-72.75 34.102-40.922 68.203-75.023 36.375-34.102 63.656-34.102 54.562 0 54.562 95.484 0 165.96-34.102 265.99-34.102 100.03-125.04 231.89-22.734 34.102-56.836 65.93-31.828 29.555-45.469 29.555-31.828 0-31.828-70.477 0-6.8203 20.461-75.023 22.734-70.477 22.734-115.95 0-59.109-18.188-77.297-18.188-20.461-97.758-20.461h-327.38q-54.562 0-54.562 68.203 0 70.476 47.742 156.87 50.016 86.391 134.13 195.52 86.391 109.12 113.67 154.59 45.469 84.117 118.22 84.117h97.758q34.102 0 54.562-18.188 22.734-20.461 22.734-50.016v-15.914q-15.914-75.023-15.914-97.758 0-13.641 4.5469-25.008 6.8203-11.367 11.367-18.188 6.8203-6.8203 20.461-18.188 13.641-13.641 15.914-15.914 18.188-18.188 31.828-38.648 15.914-20.461 22.734-34.102 9.0937-13.641 15.914-22.734 9.0937-9.0938 18.188-9.0938 11.367 0 40.922 72.75 31.828 70.477 59.109 179.6 27.281 106.85 27.281 188.7 0 363.75-181.88 747.96-36.375 75.024-72.75 75.024-31.828 0-31.828-50.016 0-9.0937 18.188-93.211 18.188-86.391 34.102-227.34 18.188-143.23 18.188-293.27 0-79.57-113.67-79.57h-72.75q-36.375 0-59.109 20.461-20.461 18.188-22.734 47.742z" fill="#f00"/>
   </g>
  </g>
  <g class="TextShape" stroke-width=".01279" aria-label="H">
   <path d="m11.292 49.787v-1.808q0-0.67801 0.61637-0.80128l2.4038-0.47255v-24.018q-2.034-0.36982-2.5271-0.4931-0.4931-0.12328-0.4931-0.76019v-1.7669h10.129v1.7669q0 0.63692-0.41091 0.76019-0.47255 0.12327-2.5682 0.4931v10.396h16.231v-10.396q-2.034-0.36982-2.5271-0.4931-0.4931-0.12328-0.4931-0.76019v-1.7669h10.17v1.7669q0 0.67801-0.61637 0.80128l-2.4449 0.45201v24.018q1.7258 0.30818 2.5271 0.51364 0.4931 0.12327 0.4931 0.76019v1.808h-10.17v-1.808q0-0.65746 0.67801-0.80128l2.3422-0.47255v-10.643h-16.231v10.643q3.0202 0.61637 3.0202 1.2738v1.808z"/>
  </g>
  <g fill="none" stroke="#000" stroke-linejoin="round" stroke-width=".90806">
   <path d="m8.342 18.295h36.233"/>
   <path d="m44.127 17.847v33.854"/>
   <path d="m44.575 51.253h-36.233"/>
   <path d="m8.7896 51.701v-33.854"/>
  </g>
  <g class="TextShape" stroke-width=".01279" aria-label="1">
   <path d="m15.302 21.768 0.96114-0.82887h0.32626v2.9341q0.56434 0.04189 0.57756 0.04409 0.06172 0.01323 0.06172 0.08157v0.18076h-1.7327v-0.18076q0-0.06834 0.06393-0.08157l0.63047-0.04409v-2.2044q0-0.13447 0.0044-0.20281l-0.57756 0.49159q-0.04409 0.03748-0.08156 0.03748-0.07715 0-0.10802-0.0507z" fill="#fff"/>
   <path d="m11.62 44.615q0.04755 0.12151 0.1585 0.42794 0.11623 0.30642 0.1585 0.39624 0.02113 0.04227 0.05812 0.11095 0.03698 0.0634 0.05283 0.10038 0.02113 0.03698 0.03698 0.08981t0.01585 0.10038q0 0.0053-0.07925 0.34341-0.07925 0.33284-0.17434 0.78719-0.0951 0.44907-0.1268 0.70266-0.04227 0.3751-0.07396 1.0672-0.02642 0.6921-0.03698 0.89286-0.0053 0.06868-0.03698 0.10566-0.02642 0.03698-0.05283 0.04227-0.02642 0.0053-0.06868 0.0053-0.10038 0-0.10038-0.85587v-0.60756q0-0.40152 0.01585-0.79248 0.0053-0.5336 0.01585-1.231 0-0.14793 0.02113-0.40152 0.02113-0.25359 0.02113-0.38039 0-0.15321-0.02113-0.29586 0-0.01585-0.07925-0.01057-0.0317-0.0053-0.0317-0.01585 0.11095-0.44379 0.16378-0.53888 0.05811-0.10566 0.10038-0.10566 0.0317 0 0.0634 0.0634z" fill="#cc0"/>
  </g>
 </g>
</svg>
