<?xml version="1.0" encoding="UTF-8"?>
<svg width="133.17" height="128" version="1.1" viewBox="0 0 35.236 33.867" xmlns="http://www.w3.org/2000/svg" xmlns:cc="http://creativecommons.org/ns#" xmlns:dc="http://purl.org/dc/elements/1.1/" xmlns:rdf="http://www.w3.org/1999/02/22-rdf-syntax-ns#">
 <title>Sermon 12 Initial</title>
 <metadata>
  <rdf:RDF>
   <cc:Work rdf:about="">
    <dc:format>image/svg+xml</dc:format>
    <dc:type rdf:resource="http://purl.org/dc/dcmitype/StillImage"/>
    <dc:title>Sermon 12 Initial</dc:title>
    <dc:date>2021-11-13</dc:date>
    <dc:creator>
     <cc:Agent>
      <dc:title>Indrele the Lesser</dc:title>
     </cc:Agent>
    </dc:creator>
    <cc:license rdf:resource="http://artlibre.org/licence/lal"/>
   </cc:Work>
   <cc:License rdf:about="http://artlibre.org/licence/lal">
    <cc:permits rdf:resource="http://creativecommons.org/ns#Reproduction"/>
    <cc:permits rdf:resource="http://creativecommons.org/ns#Distribution"/>
    <cc:permits rdf:resource="http://creativecommons.org/ns#DerivativeWorks"/>
    <cc:requires rdf:resource="http://creativecommons.org/ns#ShareAlike"/>
    <cc:requires rdf:resource="http://creativecommons.org/ns#Notice"/>
    <cc:requires rdf:resource="http://creativecommons.org/ns#Attribution"/>
   </cc:License>
  </rdf:RDF>
 </metadata>
 <path transform="matrix(.26459 0 0 .26459 0 -.00052441)" d="m95.381 8.2188c-0.29594 0-2.5899 0.36954-6.8809 1.1094s-6.5849 1.1113-6.8809 1.1113c-0.8139 0-3.0329-0.11203-6.6582-0.33398-3.5514-0.29594-5.6603-0.44336-6.3262-0.44336h-1.084v5.9922h2.3047c2.3675 0 3.5508 0.66632 3.5508 1.998 0 0.29594-0.59164 1.2945-1.7754 2.9961-1.1838 1.6277-2.4044 3.7741-3.6621 6.4375-1.1838 2.5895-1.7754 5.1408-1.7754 7.6562-1.28e-4 3.6253 1.2205 7.2872 3.6621 10.986 2.4416 3.6992 4.7707 5.5488 6.9902 5.5488 0.44392 0 0.66602-0.73906 0.66602-2.2188 0-0.81383-0.11008-2.404-0.33203-4.7715s-0.33398-3.9596-0.33398-4.7734c0-5.475 1.37-10.173 4.1074-14.094 2.7375-3.9951 6.5841-6.918 11.541-8.7676 4.2172-1.5536 6.3262-3.4013 6.3262-5.5469 0-1.9236-1.1459-2.8867-3.4395-2.8867zm-59.707 1.4434c-4.735 0-7.1016 0.92383-7.1016 2.7734 0 1.8496 1.665 2.9228 4.9941 3.2188 7.6944 0.59186 11.541 1.8872 11.541 3.8848 0 0.44389-0.18477 0.96084-0.55469 1.5527-0.29594 0.51789-1.1097 1.9606-2.4414 4.3281-1.3317 2.2935-2.1828 3.7362-2.5527 4.3281-0.29594 0.51789-0.96227 1.7759-1.998 3.7734-0.96178 1.9236-1.5908 3.2916-1.8867 4.1055-0.29594 0.81383-0.77555 2.1091-1.4414 3.8848-0.66585 1.7016-1.1101 3.1444-1.332 4.3281-0.14796 1.1837-0.33274 2.5891-0.55469 4.2168-0.22195 1.6276-0.33398 3.2551-0.33398 4.8828 0 4.6608 0.99851 9.7656 2.9961 15.314 2.0717 5.5486 4.1806 10.099 6.3262 13.65 2.1456 3.5514 5.0684 8.139 8.7676 13.762 3.7731 5.5487 6.1771 9.136 7.2129 10.764 1.1097 1.8496 2.9594 4.3282 5.5488 7.4355 2.6634 3.1073 4.2536 4.6621 4.7715 4.6621 0.51789 0 1.0368-0.18477 1.5547-0.55468 0.51792-0.36995 0.8147-0.92619 0.88867-1.666 0.51789-3.773 1.7385-8.5436 3.6621-14.314 1.9236-5.7708 3.846-10.506 5.7695-14.205 0.073975-0.07399 0.11133-0.22336 0.11133-0.44531 0-0.51789-0.25946-1.1095-0.77734-1.7754-0.44388-0.66586-0.88811-0.99805-1.332-0.99805-0.22195 0-0.47945 0.037354-0.77539 0.11133-0.9618 0.44395-2.4419 2.2562-4.4395 5.4375-0.9618 1.3316-2.1451 3.1066-3.5508 5.3262-1.4057 2.1455-2.5162 3.773-3.3301 4.8828-0.73986 1.1098-1.2941 1.666-1.6641 1.666-0.8878 0-1.9984-0.92578-3.3301-2.7754-1.2577-1.7756-2.1088-3.181-2.5527-4.2168-6.3628-15.167-9.543-30.815-9.543-46.943 0-11.172 1.0359-19.679 3.1074-25.523 2.1456-5.9189 4.8089-8.8789 7.9902-8.8789h6.6035v-4.6191c0-0.34216 0.00624-0.59954 0.017578-0.77344l-2.2051 1.875c-0.1122 0.095366-0.21521 0.14453-0.31055 0.14453-0.19633 0-0.33357-0.064357-0.41211-0.19336l-0.48047-0.67383 2.0312-1.752h-28.994z" fill="#f00" stroke-width=".048814"/>
 <path transform="matrix(.26459 0 0 .26459 0 -.00052441)" d="m59.08 7.2266-41.113 102.55-6.3359 1.8535c-1.391 0.36061-2.0859 1.2113-2.0859 2.5508v6.3359h32.457v-6.3359c0-1.391-0.69693-2.2417-2.0879-2.5508l-6.4902-1.8535 8.8867-22.797h48.916l8.8867 22.797-6.4902 1.8535c-1.494 0.30911-2.2422 1.1598-2.2422 2.5508v6.3359h32.611v-6.3359c0-1.3395-0.69498-2.1902-2.0859-2.5508l-6.3379-1.8535-40.957-102.55h-15.531zm7.2246 1.0234h1.2461v11.199c1.436 0.10658 2.1714 0.1643 2.2051 0.16992 0.15707 0.033661 0.23438 0.13667 0.23438 0.31055v0.68945h-6.6133v-0.68945c0-0.1739 0.081477-0.27691 0.24414-0.31055l2.4062-0.16992v-8.4141c0-0.34216 0.00624-0.59954 0.017578-0.77344l-2.2051 1.877c-0.1122 0.095366-0.21521 0.14258-0.31055 0.14258-0.19633 0-0.33357-0.064357-0.41211-0.19336l-0.48047-0.67383 3.668-3.1641zm0.42578 13.354c1.0303 4.1213 2.1886 7.6494 3.4766 10.586l16.77 43.66h-40.418l17.004-43.506c0.82426-2.3183 1.88-5.8976 3.168-10.74z" stroke-width=".048814"/>
 <g transform="translate(-76.12,-89.656)" fill="none" stroke="#000" stroke-linejoin="round" stroke-width=".91706">
  <path d="m76.127 90.115h35.223"/>
  <path d="m110.9 89.662v33.854"/>
  <path d="m111.35 123.06h-35.223"/>
  <path d="m76.579 123.52v-33.854"/>
 </g>
 <g class="TextShape" transform="translate(-76.556 -89.031)" fill="#cc0" stroke-width=".012912" aria-label="3'7'9">
  <path d="m81.546 115.7q0.048 0.12268 0.16001 0.43203 0.11734 0.30935 0.16001 0.40003 0.02133 0.0427 0.05867 0.11201 0.03734 0.064 0.05334 0.10134 0.02134 0.0373 0.03734 0.0907 0.016 0.0533 0.016 0.10134 0 5e-3 -0.08 0.34669-0.08001 0.33602-0.17601 0.79472-0.09601 0.45336-0.12801 0.70938-0.04267 0.37869-0.07467 1.0774-0.02667 0.69872-0.03734 0.9014-0.0053 0.0693-0.03734 0.10667-0.02667 0.0373-0.05334 0.0427-0.02667 5e-3 -0.06934 5e-3 -0.10134 0-0.10134-0.86406v-0.61338q0-0.40536 0.016-0.80005 0.0053-0.5387 0.016-1.2428 0-0.14934 0.02134-0.40536 0.02133-0.25602 0.02133-0.38403 0-0.15467-0.02133-0.29868 0-0.016-0.08001-0.0107-0.032-5e-3 -0.032-0.016 0.11201-0.44803 0.16534-0.54404 0.05867-0.10667 0.10134-0.10667 0.032 0 0.064 0.064zm-1.0667 0q0.048 0.12268 0.16001 0.43203 0.11734 0.30935 0.16001 0.40003 0.02133 0.0427 0.05867 0.11201 0.03734 0.064 0.05334 0.10134 0.02134 0.0373 0.03734 0.0907 0.016 0.0533 0.016 0.10134 0 5e-3 -0.08001 0.34669-0.08 0.33602-0.17601 0.79472-0.09601 0.45336-0.12801 0.70938-0.04267 0.37869-0.07467 1.0774-0.02667 0.69872-0.03734 0.9014-0.0053 0.0693-0.03733 0.10667-0.02667 0.0373-0.05334 0.0427-0.02667 5e-3 -0.06934 5e-3 -0.10134 0-0.10134-0.86406v-0.61338q0-0.40536 0.016-0.80005 0.0053-0.5387 0.016-1.2428 0-0.14934 0.02133-0.40536 0.02134-0.25602 0.02134-0.38403 0-0.15467-0.02134-0.29868 0-0.016-0.08-0.0107-0.032-5e-3 -0.032-0.016 0.11201-0.44803 0.16534-0.54404 0.05867-0.10667 0.10134-0.10667 0.032 0 0.064 0.064zm-1.0667 0q0.048 0.12268 0.16001 0.43203 0.11734 0.30935 0.16001 0.40003 0.02133 0.0427 0.05867 0.11201 0.03733 0.064 0.05334 0.10134 0.02133 0.0373 0.03734 0.0907 0.016 0.0533 0.016 0.10134 0 5e-3 -0.08 0.34669-0.08 0.33602-0.17601 0.79472-0.09601 0.45336-0.12801 0.70938-0.04267 0.37869-0.07467 1.0774-0.02667 0.69872-0.03734 0.9014-0.0053 0.0693-0.03734 0.10667-0.02667 0.0373-0.05334 0.0427-0.02667 5e-3 -0.06934 5e-3 -0.10134 0-0.10134-0.86406v-0.61338q0-0.40536 0.016-0.80005 0.0053-0.5387 0.016-1.2428 0-0.14934 0.02134-0.40536 0.02133-0.25602 0.02133-0.38403 0-0.15467-0.02133-0.29868 0-0.016-0.08-0.0107-0.032-5e-3 -0.032-0.016 0.11201-0.44803 0.16534-0.54404 0.05867-0.10667 0.10134-0.10667 0.032 0 0.064 0.064z"/>
  <path d="m82.597 115.73q-0.064-0.048-0.02133-0.11734 0.05867-0.0587 0.12801-0.032 1.0827 0.38403 1.2801 0.68272 0.15468 0.22935 0.15468 0.39469 0 0.11734-0.15468 0.26668-0.15468 0.14401-0.25068 0.14401-0.09601 0-0.21868-0.0693-0.12268-0.0693-0.18134-0.19202-0.02667-0.0533-0.09601-0.20268-0.064-0.14934-0.11201-0.22935-0.04267-0.0853-0.12268-0.21334-0.08001-0.12801-0.18135-0.22935-0.09601-0.10668-0.22402-0.20268z"/>
  <path d="m88.427 115.7q0.048 0.12268 0.16001 0.43203 0.11734 0.30935 0.16001 0.40003 0.02133 0.0427 0.05867 0.11201 0.03734 0.064 0.05334 0.10134 0.02133 0.0373 0.03734 0.0907 0.016 0.0533 0.016 0.10134 0 5e-3 -0.08 0.34669-0.08001 0.33602-0.17601 0.79472-0.09601 0.45336-0.12801 0.70938-0.04267 0.37869-0.07467 1.0774-0.02667 0.69872-0.03733 0.9014-0.0053 0.0693-0.03734 0.10667-0.02667 0.0373-0.05334 0.0427-0.02667 5e-3 -0.06934 5e-3 -0.10134 0-0.10134-0.86406v-0.61338q0-0.40536 0.016-0.80005 0.0053-0.5387 0.016-1.2428 0-0.14934 0.02133-0.40536t0.02133-0.38403q0-0.15467-0.02133-0.29868 0-0.016-0.08001-0.0107-0.032-5e-3 -0.032-0.016 0.11201-0.44803 0.16534-0.54404 0.05867-0.10667 0.10134-0.10667 0.032 0 0.064 0.064zm-1.0667 0q0.048 0.12268 0.16001 0.43203 0.11734 0.30935 0.16001 0.40003 0.02133 0.0427 0.05867 0.11201 0.03734 0.064 0.05334 0.10134 0.02133 0.0373 0.03734 0.0907 0.016 0.0533 0.016 0.10134 0 5e-3 -0.08001 0.34669-0.08 0.33602-0.17601 0.79472-0.09601 0.45336-0.12801 0.70938-0.04267 0.37869-0.07467 1.0774-0.02667 0.69872-0.03734 0.9014-0.0053 0.0693-0.03734 0.10667-0.02667 0.0373-0.05334 0.0427-0.02667 5e-3 -0.06934 5e-3 -0.10134 0-0.10134-0.86406v-0.61338q0-0.40536 0.016-0.80005 0.0053-0.5387 0.016-1.2428 0-0.14934 0.02133-0.40536t0.02133-0.38403q0-0.15467-0.02133-0.29868 0-0.016-0.08-0.0107-0.032-5e-3 -0.032-0.016 0.11201-0.44803 0.16534-0.54404 0.05867-0.10667 0.10134-0.10667 0.032 0 0.06401 0.064zm-0.39469 1.5734q0.048 0 0.048 0.0373 0 0.0267-0.07467 0.112-0.06934 0.0853-0.09067 0.16535-0.03734 0.16001-0.20801 0.28802-0.08534 0.0587-0.24002 0.10667-0.15468 0.0427-0.28268 0.0427-0.048 0-0.16534-0.0213-0.11201-0.0213-0.16534-0.0213-0.38403-0.032-0.38403-0.032-0.19735 0-0.22935 0.0853-0.05334 0.13867-0.07467 0.26668t-0.02667 0.27736q-0.0053 0.14934-0.01067 0.20801-0.04267 0.37869-0.07467 1.0774-0.02667 0.69872-0.03734 0.9014-0.0053 0.0693-0.03734 0.10667-0.02667 0.0373-0.05334 0.0427-0.02667 5e-3 -0.06934 5e-3 -0.10134 0-0.10134-0.86406v-0.61338q0-0.40536 0.016-0.80005 0.0053-0.5387 0.016-1.2428 0-0.14401 0.02134-0.40003 0.02133-0.25601 0.02133-0.38402 0-0.16001-0.02133-0.30402 0-0.016-0.08-0.0107-0.032-5e-3 -0.032-0.016 0.11201-0.44803 0.16534-0.54404 0.064-0.10667 0.10134-0.10667 0.032 0 0.06401 0.064 0.048 0.12268 0.16001 0.43203 0.11734 0.30935 0.16001 0.40003 0.02133 0.0427 0.05867 0.11201 0.03734 0.064 0.05334 0.10134 0.02133 0.0373 0.03733 0.0907 0.016 0.0533 0.016 0.10134-0.10134 0.15468-0.10134 0.25068 0 0.0373 0.016 0.0533 0.02667 0.032 0.12801 0.0533 0.10134 0.016 0.18668 0.016l0.08534 5e-3q0.44803 5e-3 0.60804 5e-3h0.20268q0.09067 0 0.22935-0.0213 0.14401-0.0267 0.16534-0.0267z"/>
  <path d="m89.531 115.73q-0.064-0.048-0.02133-0.11734 0.05867-0.0587 0.12801-0.032 1.0827 0.38403 1.2801 0.68272 0.15468 0.22935 0.15468 0.39469 0 0.11734-0.15468 0.26668-0.15468 0.14401-0.25068 0.14401-0.09601 0-0.21868-0.0693t-0.18134-0.19202q-0.02667-0.0533-0.09601-0.20268-0.06401-0.14934-0.11201-0.22935-0.04267-0.0853-0.12268-0.21334-0.08-0.12801-0.18134-0.22935-0.09601-0.10668-0.22402-0.20268z"/>
  <path d="m97.441 115.7q0.048 0.12268 0.16001 0.43203 0.11734 0.30935 0.16001 0.40003 0.02134 0.0427 0.05867 0.11201 0.03734 0.064 0.05334 0.10134 0.02133 0.0373 0.03734 0.0907 0.016 0.0533 0.016 0.10134 0 5e-3 -0.08 0.34669-0.08 0.33602-0.17601 0.79472-0.09601 0.45336-0.12801 0.70938-0.04267 0.37869-0.07467 1.0774-0.02667 0.69872-0.03734 0.9014-0.0053 0.0693-0.03734 0.10667-0.02667 0.0373-0.05334 0.0427-0.02667 5e-3 -0.06934 5e-3 -0.10134 0-0.10134-0.86406v-0.61338q0-0.40536 0.016-0.80005 0.0053-0.5387 0.016-1.2428 0-0.14934 0.02133-0.40536 0.02134-0.25602 0.02134-0.38403 0-0.15467-0.02134-0.29868 0-0.016-0.08-0.0107-0.032-5e-3 -0.032-0.016 0.11201-0.44803 0.16534-0.54404 0.05867-0.10667 0.10134-0.10667 0.032 0 0.064 0.064zm-1.0667 0q0.048 0.12268 0.16001 0.43203 0.11734 0.30935 0.16001 0.40003 0.02133 0.0427 0.05867 0.11201 0.03734 0.064 0.05334 0.10134 0.02134 0.0373 0.03734 0.0907 0.016 0.0533 0.016 0.10134 0 5e-3 -0.08 0.34669-0.08001 0.33602-0.17601 0.79472-0.09601 0.45336-0.12801 0.70938-0.04267 0.37869-0.07467 1.0774-0.02667 0.69872-0.03734 0.9014-0.0053 0.0693-0.03734 0.10667-0.02667 0.0373-0.05334 0.0427-0.02667 5e-3 -0.06934 5e-3 -0.10134 0-0.10134-0.86406v-0.61338q0-0.40536 0.016-0.80005 0.0053-0.5387 0.016-1.2428 0-0.14934 0.02133-0.40536 0.02134-0.25602 0.02134-0.38403 0-0.15467-0.02134-0.29868 0-0.016-0.08001-0.0107-0.032-5e-3 -0.032-0.016 0.11201-0.44803 0.16534-0.54404 0.05867-0.10667 0.10134-0.10667 0.032 0 0.064 0.064zm-1.0667 0q0.048 0.12268 0.16001 0.43203 0.11734 0.30935 0.16001 0.40003 0.02134 0.0427 0.05867 0.11201 0.03734 0.064 0.05334 0.10134 0.02134 0.0373 0.03734 0.0907 0.016 0.0533 0.016 0.10134 0 5e-3 -0.08001 0.34669-0.08 0.33602-0.17601 0.79472-0.09601 0.45336-0.12801 0.70938-0.04267 0.37869-0.07467 1.0774-0.02667 0.69872-0.03734 0.9014-0.0053 0.0693-0.03733 0.10667-0.02667 0.0373-0.05334 0.0427-0.02667 5e-3 -0.06934 5e-3 -0.10134 0-0.10134-0.86406v-0.61338q0-0.40536 0.016-0.80005 0.0053-0.5387 0.016-1.2428 0-0.14934 0.02133-0.40536t0.02133-0.38403q0-0.15467-0.02133-0.29868 0-0.016-0.08001-0.0107-0.032-5e-3 -0.032-0.016 0.11201-0.44803 0.16534-0.54404 0.05867-0.10667 0.10134-0.10667 0.032 0 0.064 0.064zm-1.0667 0q0.048 0.12268 0.16001 0.43203 0.11734 0.30935 0.16001 0.40003 0.02134 0.0427 0.05867 0.11201 0.03734 0.064 0.05334 0.10134 0.02133 0.0373 0.03733 0.0907 0.016 0.0533 0.016 0.10134 0 5e-3 -0.08 0.34669-0.08 0.33602-0.17601 0.79472-0.09601 0.45336-0.12801 0.70938-0.04267 0.37869-0.07467 1.0774-0.02667 0.69872-0.03734 0.9014-0.0053 0.0693-0.03734 0.10667-0.02667 0.0373-0.05334 0.0427-0.02667 5e-3 -0.06934 5e-3 -0.10134 0-0.10134-0.86406v-0.61338q0-0.40536 0.016-0.80005 0.0053-0.5387 0.016-1.2428 0-0.14934 0.02133-0.40536 0.02134-0.25602 0.02134-0.38403 0-0.15467-0.02134-0.29868 0-0.016-0.08-0.0107-0.032-5e-3 -0.032-0.016 0.11201-0.44803 0.16534-0.54404 0.05867-0.10667 0.10134-0.10667 0.032 0 0.064 0.064zm-0.39469 1.5734q0.048 0 0.048 0.0373 0 0.0267-0.07467 0.112-0.06934 0.0853-0.09067 0.16535-0.03734 0.16001-0.20801 0.28802-0.08534 0.0587-0.24002 0.10667-0.15468 0.0427-0.28269 0.0427-0.048 0-0.16534-0.0213-0.11201-0.0213-0.16534-0.0213-0.38403-0.032-0.38403-0.032-0.19735 0-0.22935 0.0853-0.05334 0.13867-0.07467 0.26668t-0.02667 0.27736q-0.0053 0.14934-0.01067 0.20801-0.04267 0.37869-0.07467 1.0774-0.02667 0.69872-0.03734 0.9014-0.0053 0.0693-0.03734 0.10667-0.02667 0.0373-0.05334 0.0427-0.02667 5e-3 -0.06934 5e-3 -0.10134 0-0.10134-0.86406v-0.61338q0-0.40536 0.016-0.80005 0.0053-0.5387 0.016-1.2428 0-0.14401 0.02133-0.40003 0.02134-0.25601 0.02134-0.38402 0-0.16001-0.02134-0.30402 0-0.016-0.08-0.0107-0.032-5e-3 -0.032-0.016 0.11201-0.44803 0.16534-0.54404 0.064-0.10667 0.10134-0.10667 0.032 0 0.064 0.064 0.048 0.12268 0.16001 0.43203 0.11734 0.30935 0.16001 0.40003 0.02134 0.0427 0.05867 0.11201 0.03733 0.064 0.05334 0.10134 0.02133 0.0373 0.03734 0.0907 0.016 0.0533 0.016 0.10134-0.10134 0.15468-0.10134 0.25068 0 0.0373 0.016 0.0533 0.02667 0.032 0.12801 0.0533 0.10134 0.016 0.18668 0.016l0.08534 5e-3q0.44803 5e-3 0.60804 5e-3h0.20268q0.09067 0 0.22935-0.0213 0.14401-0.0267 0.16534-0.0267z"/>
 </g>
</svg>
