<?xml version="1.0" encoding="UTF-8"?>
<svg width="111.21" height="128" version="1.1" viewBox="0 0 29.423 33.867" xmlns="http://www.w3.org/2000/svg" xmlns:cc="http://creativecommons.org/ns#" xmlns:dc="http://purl.org/dc/elements/1.1/" xmlns:rdf="http://www.w3.org/1999/02/22-rdf-syntax-ns#">
 <title>Sermon 11 Initial</title>
 <defs>
  <clipPath id="clip_path_1">
   <path d="m0 0h15849v23495h-15849z"/>
  </clipPath>
 </defs>
 <metadata>
  <rdf:RDF>
   <cc:Work rdf:about="">
    <dc:format>image/svg+xml</dc:format>
    <dc:type rdf:resource="http://purl.org/dc/dcmitype/StillImage"/>
    <dc:title>Sermon 11 Initial</dc:title>
    <dc:date>2021-09-28</dc:date>
    <dc:creator>
     <cc:Agent>
      <dc:title>Indrele the Lesser</dc:title>
     </cc:Agent>
    </dc:creator>
    <cc:license rdf:resource="http://artlibre.org/licence/lal"/>
   </cc:Work>
   <cc:License rdf:about="http://artlibre.org/licence/lal">
    <cc:permits rdf:resource="http://creativecommons.org/ns#Reproduction"/>
    <cc:permits rdf:resource="http://creativecommons.org/ns#Distribution"/>
    <cc:permits rdf:resource="http://creativecommons.org/ns#DerivativeWorks"/>
    <cc:requires rdf:resource="http://creativecommons.org/ns#ShareAlike"/>
    <cc:requires rdf:resource="http://creativecommons.org/ns#Notice"/>
    <cc:requires rdf:resource="http://creativecommons.org/ns#Attribution"/>
   </cc:License>
  </rdf:RDF>
 </metadata>
 <g transform="matrix(.012916 0 0 .012799 -16.263 -211.26)" clip-path="url(#clip_path_1)">
  <g class="TextShape" aria-label="T">
   <path d="m1882.3 17142h720.68q20.461 0 34.102-9.093 13.641-9.094 11.367-25.008-29.555-131.86-186.42-222.8-156.87-93.211-413.77-138.68-52.289-9.094-52.289-38.648 0-34.102 56.836-34.102 165.96 0 370.57 63.656 206.88 63.657 361.48 175.06 154.59 111.4 154.59 229.62 0 43.196-159.14 140.95-156.87 95.485-320.55 165.96-29.555 13.641-50.016-15.914-36.375-54.562-122.77-113.67-86.391-59.109-127.31-59.109-9.0937 0-11.367 4.547-2.2734 4.547 0 11.367 4.5469 6.82 11.367 15.914 113.67 104.58 193.24 254.62 79.57 147.77 79.57 297.82 0 450.14-90.938 836.62h31.828q38.648 0 75.023-6.82 36.375-4.547 61.383-11.367 25.008-4.547 59.109-25.008 34.102-18.187 47.742-25.008 15.914-6.82 52.289-38.648 36.375-29.555 45.469-38.649 11.367-9.093 54.562-50.015 45.469-43.195 56.836-54.563 47.742-47.742 70.477-47.742 31.828 0 31.828 38.649 0 25.007-109.12 161.41-109.12 138.68-265.99 275.09-156.87 138.68-256.9 138.68-90.938 0-188.7-127.31-97.758-125.04-152.32-259.17-52.289-134.13-52.289-188.7 0-75.024 36.375-75.024 18.188 0 31.828 15.914 15.914 15.914 18.188 38.649 13.641 90.937 84.117 163.69t172.78 100.03q0-536.53-47.742-741.14-77.297-354.66-318.28-654.75-6.8203-6.821-18.188-18.188t-18.188-18.187q-4.5469-6.821-11.367-15.914-6.8203-11.367-11.367-20.461-2.2734-11.367-2.2734-25.008 0-29.555 63.656-29.555z" fill="#f00"/>
  </g>
 </g>
 <path transform="matrix(.26459 0 0 .26459 -.00080093 0)" d="m8.9121 7.1992v24.961l7.5723-0.001953c1.8031 0 2.8589-0.51456 3.168-1.5449 0.41217-1.3911 0.90205-4.9209 1.4688-10.588h26.738v88.871c-1.4941 0.25761-3.1954 0.59177-5.1016 1.0039-1.9062 0.41217-3.1157 0.67041-3.6309 0.77344-1.8031 0.30911-2.7051 1.3648-2.7051 3.168v6.6465h38.332v-6.6465c0-1.5971-0.51651-2.5503-1.5469-2.8594-0.30916-0.10303-2.9617-0.61758-7.959-1.5449-0.82431-0.20608-1.4414-0.30859-1.8535-0.30859v-88.947h26.582c0.51517 5.2034 1.0317 8.68 1.5469 10.432 0.30911 1.0304 1.3136 1.5469 3.0137 1.5469h7.7285v-24.961h-93.354zm5.6602 3.6816h1.2441v11.199c1.436 0.10658 2.1714 0.16235 2.2051 0.16797 0.15708 0.033663 0.23633 0.13862 0.23633 0.3125v0.68945h-6.6152v-0.68945c0-0.17391 0.081471-0.27886 0.24414-0.3125l2.4062-0.16797v-8.4141c0-0.34217 0.006239-0.59953 0.017578-0.77344l-2.2051 1.875c-0.1122 0.095369-0.2152 0.14453-0.31055 0.14453-0.19633 0-0.33357-0.06628-0.41211-0.19531l-0.48047-0.67188 3.6699-3.1641z" stroke-width=".048816"/>
 <g transform="translate(-16.282,-20.108)" fill="none" stroke="#000" stroke-linejoin="round" stroke-width=".91706">
  <path d="m16.289 20.567h29.411"/>
  <path d="m45.247 20.115v33.854"/>
  <path d="m45.699 53.516h-29.411"/>
  <path d="m16.741 53.969v-33.854"/>
 </g>
 <g class="TextShape" transform="translate(-16.282,-20.108)" fill="#cc0" stroke-width=".012917" aria-label="1'0'2">
  <path d="m18.97 46.765q0.04802 0.12272 0.16007 0.43219 0.11739 0.30947 0.16007 0.40018 0.02134 0.04269 0.05869 0.11205 0.03735 0.06403 0.05336 0.10138 0.02134 0.03735 0.03735 0.09071t0.01601 0.10138q0 0.0053-0.08004 0.34682-0.08004 0.33615-0.17608 0.79502-0.09604 0.45354-0.12806 0.70965-0.04269 0.37884-0.0747 1.0778-0.02668 0.69898-0.03735 0.90174-0.0053 0.06936-0.03735 0.10671-0.02668 0.03735-0.05336 0.04269-0.02668 0.0053-0.06936 0.0053-0.10138 0-0.10138-0.86438v-0.61361q0-0.40551 0.01601-0.80036 0.0053-0.53891 0.01601-1.2432 0-0.1494 0.02134-0.40551t0.02134-0.38417q0-0.15474-0.02134-0.2988 0-0.01601-0.08004-0.01067-0.03201-0.0053-0.03201-0.01601 0.11205-0.4482 0.16541-0.54424 0.05869-0.10671 0.10138-0.10671 0.03202 0 0.06403 0.06403z"/>
  <path d="m20.021 46.802q-0.06403-0.04802-0.02134-0.11739 0.05869-0.05869 0.12806-0.03201 1.0831 0.38417 1.2806 0.68297 0.15474 0.22944 0.15474 0.39484 0 0.11738-0.15474 0.26678-0.15474 0.14406-0.25078 0.14406t-0.21876-0.06936-0.18141-0.19208q-0.02668-0.05336-0.09604-0.20276-0.06403-0.1494-0.11205-0.22944-0.04269-0.08537-0.12272-0.21343-0.08004-0.12806-0.18142-0.22944-0.09604-0.10672-0.2241-0.20276z"/>
  <path d="m23.948 48.419q0.17608 0 0.26145 0.08537 0.09071 0.08004 0.09071 0.20809 0 0.16007-0.12806 0.29346-0.12806 0.12806-0.30947 0.12806-0.1494 0-0.24011-0.08004-0.09071-0.08537-0.09071-0.19742 0-0.15474 0.12272-0.29346 0.12806-0.14406 0.29346-0.14406zm1.6221-1.4406q0.08003 0 0.13339 0.11739 0.05336 0.11738 0.05336 0.18675 0 0.03735-0.09071 0.08537t-0.14406 0.05336q-0.26145 0.02134-0.26145 0.1494 0 0.01601 0.09071 0.18675t0.18142 0.40018q0.09071 0.2241 0.09071 0.38417 0 0.61894-0.3735 1.1952-0.36816 0.57626-0.85905 0.99778-0.10671 0.08004-0.23477 0.08004-0.03735 0-0.06936-0.02134-0.03202-0.02134-0.03202-0.04269 0-0.04269 0.09071-0.10671 0.90174-0.80569 0.90174-1.6381 0-0.1494-0.04269-0.33615t-0.15474-0.40551-0.27212-0.39484q-0.15474-0.18141-0.41085-0.2988-0.25611-0.12272-0.56558-0.12272h-0.23477q-0.10671 0-0.10138 0.03735 0 0.02134 0.04268 0.02668 0.33615 0.04269 0.33615 0.12272 0 0.01601-0.03735 0.03735-0.03735 0.01601-0.09604 0.04269-0.05336 0.02668-0.08004 0.04268-0.40018 0.25611-0.56559 0.53357-0.16007 0.27746-0.16007 0.65096 0 0.02668 0 0.0747 0.0053 0.04802 0.0053 0.06936 0.02668 0.38417 0.22944 0.65096 0.20276 0.26678 0.65629 0.61361 0.05869 0.04802 0.05869 0.06403 0 0.04269-0.12806 0.04269-0.12272 0-0.18675-0.04269-0.69364-0.41085-1.0031-0.84838-0.30414-0.44286-0.30414-1.0351 0-0.26145 0.08537-0.43219 0.09071-0.17608 0.35216-0.46954 0.04802-0.08537 0.04802-0.09071 0-0.0747-0.25611-0.09071-0.12272-0.0053-0.18675-0.05336-0.06403-0.05336-0.06403-0.10672 0-0.08537 0.0747-0.20276 0.08004-0.11738 0.23477-0.11738z"/>
  <path d="m26.104 46.802q-0.06403-0.04802-0.02134-0.11739 0.05869-0.05869 0.12806-0.03201 1.0831 0.38417 1.2806 0.68297 0.15474 0.22944 0.15474 0.39484 0 0.11738-0.15474 0.26678-0.15474 0.14406-0.25078 0.14406t-0.21876-0.06936-0.18141-0.19208q-0.02668-0.05336-0.09604-0.20276-0.06403-0.1494-0.11205-0.22944-0.04269-0.08537-0.12272-0.21343-0.08004-0.12806-0.18142-0.22944-0.09604-0.10672-0.2241-0.20276z"/>
  <path d="m29.534 46.765q0.04802 0.12272 0.16007 0.43219 0.11739 0.30947 0.16007 0.40018 0.02134 0.04269 0.05869 0.11205 0.03735 0.06403 0.05336 0.10138 0.02134 0.03735 0.03735 0.09071t0.01601 0.10138q0 0.0053-0.08004 0.34682-0.08004 0.33615-0.17608 0.79502-0.09604 0.45354-0.12806 0.70965-0.04269 0.37884-0.0747 1.0778-0.02668 0.69898-0.03735 0.90174-0.0053 0.06936-0.03735 0.10671-0.02668 0.03735-0.05336 0.04269-0.02668 0.0053-0.06936 0.0053-0.10138 0-0.10138-0.86438v-0.61361q0-0.40551 0.01601-0.80036 0.0053-0.53891 0.01601-1.2432 0-0.1494 0.02134-0.40551t0.02134-0.38417q0-0.15474-0.02134-0.2988 0-0.01601-0.08004-0.01067-0.03201-0.0053-0.03201-0.01601 0.11205-0.4482 0.16541-0.54424 0.05869-0.10671 0.10138-0.10671 0.03201 0 0.06403 0.06403zm-1.0671 0q0.04802 0.12272 0.16007 0.43219 0.11739 0.30947 0.16007 0.40018 0.02134 0.04269 0.05869 0.11205 0.03735 0.06403 0.05336 0.10138 0.02134 0.03735 0.03735 0.09071t0.01601 0.10138q0 0.0053-0.08004 0.34682-0.08003 0.33615-0.17608 0.79502-0.09604 0.45354-0.12806 0.70965-0.04269 0.37884-0.0747 1.0778-0.02668 0.69898-0.03735 0.90174-0.0053 0.06936-0.03735 0.10671-0.02668 0.03735-0.05336 0.04269-0.02668 0.0053-0.06937 0.0053-0.10138 0-0.10138-0.86438v-0.61361q0-0.40551 0.01601-0.80036 0.0053-0.53891 0.01601-1.2432 0-0.1494 0.02134-0.40551t0.02134-0.38417q0-0.15474-0.02134-0.2988 0-0.01601-0.08004-0.01067-0.03201-0.0053-0.03201-0.01601 0.11205-0.4482 0.16541-0.54424 0.05869-0.10671 0.10138-0.10671 0.03201 0 0.06403 0.06403z"/>
 </g>
</svg>
