<?xml version="1.0" encoding="UTF-8"?>
<svg width="103.45" height="128" version="1.1" viewBox="0 0 27.37 33.867" xmlns="http://www.w3.org/2000/svg" xmlns:cc="http://creativecommons.org/ns#" xmlns:dc="http://purl.org/dc/elements/1.1/" xmlns:rdf="http://www.w3.org/1999/02/22-rdf-syntax-ns#">
 <title>Sermon 36 Initial</title>
 <defs>
  <clipPath id="clip_path_1-9">
   <path d="m0 0h15875v23495h-15875z"/>
  </clipPath>
 </defs>
 <metadata>
  <rdf:RDF>
   <cc:Work rdf:about="">
    <dc:format>image/svg+xml</dc:format>
    <dc:type rdf:resource="http://purl.org/dc/dcmitype/StillImage"/>
    <dc:title>Sermon 36 Initial</dc:title>
    <dc:date>2021-09-28</dc:date>
    <dc:creator>
     <cc:Agent>
      <dc:title>Indrele the Lesser</dc:title>
     </cc:Agent>
    </dc:creator>
    <cc:license rdf:resource="http://artlibre.org/licence/lal"/>
   </cc:Work>
   <cc:License rdf:about="http://artlibre.org/licence/lal">
    <cc:permits rdf:resource="http://creativecommons.org/ns#Reproduction"/>
    <cc:permits rdf:resource="http://creativecommons.org/ns#Distribution"/>
    <cc:permits rdf:resource="http://creativecommons.org/ns#DerivativeWorks"/>
    <cc:requires rdf:resource="http://creativecommons.org/ns#ShareAlike"/>
    <cc:requires rdf:resource="http://creativecommons.org/ns#Notice"/>
    <cc:requires rdf:resource="http://creativecommons.org/ns#Attribution"/>
   </cc:License>
  </rdf:RDF>
 </metadata>
 <g transform="translate(-117.28 -98.16)">
  <g transform="matrix(.013061 0 0 .013027 96.657 -117.31)" clip-path="url(#clip_path_1-9)">
   <g class="TextShape" aria-label="F">
    <path d="m1771.3 17376v-579.73q0-36.375 20.461-75.023 20.461-38.649 65.93-38.649 6.8203 0 118.22 22.735 111.4 20.46 165.96 20.46h586.55q122.77 0 263.72-20.46 140.95-22.735 161.41-22.735 118.22 0 118.22 59.11 0 29.554-38.648 59.109-38.648 29.555-79.57 45.469-306.91 147.77-632.02 620.65h666.12q25.008 0 45.469 15.914 22.734 13.641 22.734 34.102 18.188 395.58 50.016 570.63 2.2735 9.093 2.2735 34.101 0 79.57-47.742 79.57-25.008 0-45.469-22.734-18.188-25.008-22.734-56.836-29.555-172.78-118.22-284.18-88.664-113.67-190.97-113.67h-518.34q-377.39 691.12-422.86 1182.2-2.2734 36.375-20.461 61.383-18.188 27.281-47.742 27.281-40.922 0-40.922-88.664 0-309.19 77.297-627.47 77.297-318.28 202.34-577.45 125.04-261.44 272.81-468.33 150.05-209.16 300.09-336.47 4.5469-4.547 4.5469-9.093 0-13.641-29.555-27.282-27.281-13.64-54.562-13.64h-261.45q-366.02 0-456.96 522.89-2.2734 9.094-6.8203 27.282-2.2734 15.914-4.5469 27.281-2.2734 11.367-6.8203 27.281t-9.0937 25.008q-4.5469 9.094-9.0938 20.461-4.5469 9.094-11.367 13.64-6.8203 4.547-15.914 4.547-25.008 0-38.648-45.468-13.641-45.469-13.641-93.211z" fill="#f00"/>
   </g>
  </g>
  <g class="TextShape" transform="scale(1.0013 .99867)" stroke-width=".012806" aria-label="F">
   <path d="m119.63 130.29v-1.7693q0-0.6789 0.61719-0.80234l2.407-0.45261v-24.07q-2.0367-0.37031-2.407-0.49375-0.61719-0.12344-0.61719-0.80234v-1.7693h22.363v7.2828h-2.0573q-0.72005 0-0.84349-0.72006 0-0.0411-0.0617-0.41146-0.0412-0.37031-0.12344-1.1521-0.0823-0.80235-0.16459-1.687h-11.953v10.574h11.459v3.2917h-11.459v9.9573q0.14401 0.0412 0.43203 0.10287 0.3086 0.0411 0.86407 0.14401 0.55547 0.10286 1.0492 0.20573 0.6789 0.14401 0.6789 0.80234v1.7693z"/>
  </g>
  <g fill="none" stroke="#000" stroke-linejoin="round" stroke-width=".85488">
   <path d="m117.32 98.608h27.307"/>
   <path d="m144.23 98.16v33.867"/>
   <path d="m144.62 131.57h-27.307"/>
   <path d="m117.71 132.03v-33.867"/>
  </g>
  <g class="TextShape" transform="scale(1.0013 .99867)" fill="#cc0" stroke-width=".012792" aria-label="3'6'4">
   <path d="m122.08 125.12q0.0476 0.12154 0.15853 0.42802 0.11625 0.30648 0.15853 0.39632 0.0211 0.0423 0.0581 0.11096 0.037 0.0634 0.0528 0.1004 0.0211 0.037 0.037 0.0898t0.0159 0.1004q0 5e-3 -0.0793 0.34347-0.0793 0.3329-0.17438 0.78735-0.0951 0.44915-0.12682 0.7028-0.0423 0.37518-0.074 1.0674-0.0264 0.69223-0.037 0.89303-5e-3 0.0687-0.037 0.10568-0.0264 0.037-0.0528 0.0423-0.0264 5e-3 -0.0687 5e-3 -0.1004 0-0.1004-0.85604v-0.60769q0-0.4016 0.0159-0.79263 5e-3 -0.5337 0.0159-1.2312 0-0.14796 0.0211-0.4016t0.0211-0.38046q0-0.15324-0.0211-0.29592 0-0.0159-0.0793-0.0106-0.0317-5e-3 -0.0317-0.0159 0.11097-0.44387 0.16381-0.53899 0.0581-0.10568 0.1004-0.10568 0.0317 0 0.0634 0.0634zm-1.0568 0q0.0476 0.12154 0.15853 0.42802 0.11625 0.30648 0.15852 0.39632 0.0211 0.0423 0.0581 0.11096 0.037 0.0634 0.0528 0.1004 0.0211 0.037 0.037 0.0898t0.0159 0.1004q0 5e-3 -0.0793 0.34347-0.0793 0.3329-0.17438 0.78735-0.0951 0.44915-0.12682 0.7028-0.0423 0.37518-0.074 1.0674-0.0264 0.69223-0.037 0.89303-5e-3 0.0687-0.037 0.10568-0.0264 0.037-0.0528 0.0423-0.0264 5e-3 -0.0687 5e-3 -0.1004 0-0.1004-0.85604v-0.60769q0-0.4016 0.0159-0.79263 5e-3 -0.5337 0.0159-1.2312 0-0.14796 0.0211-0.4016t0.0211-0.38046q0-0.15324-0.0211-0.29592 0-0.0159-0.0793-0.0106-0.0317-5e-3 -0.0317-0.0159 0.11097-0.44387 0.16381-0.53899 0.0581-0.10568 0.1004-0.10568 0.0317 0 0.0634 0.0634zm-1.0568 0q0.0476 0.12154 0.15853 0.42802 0.11625 0.30648 0.15852 0.39632 0.0211 0.0423 0.0581 0.11096 0.037 0.0634 0.0528 0.1004 0.0211 0.037 0.037 0.0898t0.0159 0.1004q0 5e-3 -0.0793 0.34347-0.0793 0.3329-0.17438 0.78735-0.0951 0.44915-0.12682 0.7028-0.0423 0.37518-0.074 1.0674-0.0264 0.69223-0.037 0.89303-5e-3 0.0687-0.037 0.10568-0.0264 0.037-0.0528 0.0423-0.0264 5e-3 -0.0687 5e-3 -0.1004 0-0.1004-0.85604v-0.60769q0-0.4016 0.0159-0.79263 5e-3 -0.5337 0.0159-1.2312 0-0.14796 0.0211-0.4016t0.0211-0.38046q0-0.15324-0.0211-0.29592 0-0.0159-0.0793-0.0106-0.0317-5e-3 -0.0317-0.0159 0.11097-0.44387 0.16381-0.53899 0.0581-0.10568 0.1004-0.10568 0.0317 0 0.0634 0.0634z"/>
   <path d="m123.12 125.16q-0.0634-0.0476-0.0211-0.11625 0.0581-0.0581 0.12682-0.0317 1.0727 0.38046 1.2682 0.67638 0.15324 0.22722 0.15324 0.39103 0 0.11625-0.15324 0.26421-0.15325 0.14268-0.24836 0.14268-0.0951 0-0.21665-0.0687-0.12154-0.0687-0.17967-0.19023-0.0264-0.0528-0.0951-0.2008-0.0634-0.14796-0.11097-0.22722-0.0423-0.0845-0.12154-0.21137-0.0793-0.12682-0.17966-0.22722-0.0951-0.10569-0.22194-0.2008z"/>
   <path d="m127.89 125.12q0.0476 0.12154 0.15853 0.42802 0.11625 0.30648 0.15853 0.39632 0.0211 0.0423 0.0581 0.11096 0.037 0.0634 0.0528 0.1004 0.0211 0.037 0.037 0.0898t0.0159 0.1004q0 5e-3 -0.0793 0.34347-0.0793 0.3329-0.17438 0.78735-0.0951 0.44915-0.12682 0.7028-0.0423 0.37518-0.074 1.0674-0.0264 0.69223-0.037 0.89303-5e-3 0.0687-0.037 0.10568-0.0264 0.037-0.0528 0.0423-0.0264 5e-3 -0.0687 5e-3 -0.1004 0-0.1004-0.85604v-0.60769q0-0.4016 0.0159-0.79263 5e-3 -0.5337 0.0159-1.2312 0-0.14796 0.0211-0.4016t0.0211-0.38046q0-0.15324-0.0211-0.29592 0-0.0159-0.0793-0.0106-0.0317-5e-3 -0.0317-0.0159 0.11097-0.44387 0.16381-0.53899 0.0581-0.10568 0.1004-0.10568 0.0317 0 0.0634 0.0634zm-0.39103 1.5588q0.0476 0 0.0476 0.037 0 0.0264-0.074 0.11097-0.0687 0.0845-0.0898 0.16381-0.037 0.15853-0.20609 0.28535-0.0845 0.0581-0.23779 0.10568-0.15324 0.0423-0.28006 0.0423-0.0476 0-0.16381-0.0211-0.11097-0.0211-0.16381-0.0211-0.38046-0.0317-0.38046-0.0317-0.19552 0-0.22722 0.0845-0.0528 0.13739-0.074 0.26421-0.0211 0.12682-0.0264 0.27478-5e-3 0.14796-0.0106 0.20609-0.0423 0.37518-0.074 1.0674-0.0264 0.69223-0.037 0.89303-5e-3 0.0687-0.037 0.10568-0.0264 0.037-0.0528 0.0423-0.0264 5e-3 -0.0687 5e-3 -0.1004 0-0.1004-0.85604v-0.60769q0-0.4016 0.0159-0.79263 5e-3 -0.5337 0.0158-1.2312 0-0.14267 0.0211-0.39631 0.0211-0.25365 0.0211-0.38047 0-0.15852-0.0211-0.3012 0-0.0159-0.0793-0.0106-0.0317-5e-3 -0.0317-0.0159 0.11097-0.44387 0.16381-0.53899 0.0634-0.10568 0.1004-0.10568 0.0317 0 0.0634 0.0634 0.0476 0.12154 0.15852 0.42802 0.11626 0.30648 0.15853 0.39632 0.0211 0.0423 0.0581 0.11096 0.037 0.0634 0.0528 0.1004 0.0211 0.037 0.037 0.0898t0.0159 0.1004q-0.1004 0.15324-0.1004 0.24835 0 0.037 0.0159 0.0529 0.0264 0.0317 0.12683 0.0528 0.1004 0.0159 0.18494 0.0159l0.0845 5e-3q0.44387 5e-3 0.6024 5e-3h0.2008q0.0898 0 0.22722-0.0211 0.14267-0.0264 0.16381-0.0264z"/>
   <path d="m128.98 125.16q-0.0634-0.0476-0.0211-0.11625 0.0581-0.0581 0.12682-0.0317 1.0727 0.38046 1.2682 0.67638 0.15324 0.22722 0.15324 0.39103 0 0.11625-0.15324 0.26421-0.15324 0.14268-0.24836 0.14268-0.0951 0-0.21665-0.0687-0.12154-0.0687-0.17967-0.19023-0.0264-0.0528-0.0951-0.2008-0.0634-0.14796-0.11097-0.22722-0.0423-0.0845-0.12154-0.21137-0.0793-0.12682-0.17966-0.22722-0.0951-0.10569-0.22194-0.2008z"/>
   <path d="m134.44 125.12q0.0476 0.12154 0.15853 0.42802 0.11625 0.30648 0.15852 0.39632 0.0211 0.0423 0.0581 0.11096 0.037 0.0634 0.0528 0.1004 0.0211 0.037 0.037 0.0898t0.0159 0.1004q0 5e-3 -0.0793 0.34347-0.0793 0.3329-0.17438 0.78735-0.0951 0.44915-0.12682 0.7028-0.0423 0.37518-0.074 1.0674-0.0264 0.69223-0.037 0.89303-5e-3 0.0687-0.037 0.10568-0.0264 0.037-0.0528 0.0423-0.0264 5e-3 -0.0687 5e-3 -0.1004 0-0.1004-0.85604v-0.60769q0-0.4016 0.0159-0.79263 5e-3 -0.5337 0.0159-1.2312 0-0.14796 0.0211-0.4016t0.0211-0.38046q0-0.15324-0.0211-0.29592 0-0.0159-0.0793-0.0106-0.0317-5e-3 -0.0317-0.0159 0.11097-0.44387 0.16381-0.53899 0.0581-0.10568 0.1004-0.10568 0.0317 0 0.0634 0.0634zm-1.0568 0q0.0476 0.12154 0.15853 0.42802 0.11625 0.30648 0.15852 0.39632 0.0211 0.0423 0.0581 0.11096 0.037 0.0634 0.0528 0.1004 0.0211 0.037 0.037 0.0898t0.0159 0.1004q0 5e-3 -0.0793 0.34347-0.0793 0.3329-0.17438 0.78735-0.0951 0.44915-0.12682 0.7028-0.0423 0.37518-0.074 1.0674-0.0264 0.69223-0.037 0.89303-5e-3 0.0687-0.037 0.10568-0.0264 0.037-0.0528 0.0423-0.0264 5e-3 -0.0687 5e-3 -0.1004 0-0.1004-0.85604v-0.60769q0-0.4016 0.0159-0.79263 5e-3 -0.5337 0.0159-1.2312 0-0.14796 0.0211-0.4016t0.0211-0.38046q0-0.15324-0.0211-0.29592 0-0.0159-0.0793-0.0106-0.0317-5e-3 -0.0317-0.0159 0.11097-0.44387 0.16381-0.53899 0.0581-0.10568 0.1004-0.10568 0.0317 0 0.0634 0.0634zm-1.0568 0q0.0476 0.12154 0.15852 0.42802 0.11626 0.30648 0.15853 0.39632 0.0211 0.0423 0.0581 0.11096 0.037 0.0634 0.0528 0.1004 0.0211 0.037 0.037 0.0898t0.0159 0.1004q0 5e-3 -0.0793 0.34347-0.0793 0.3329-0.17438 0.78735-0.0951 0.44915-0.12682 0.7028-0.0423 0.37518-0.074 1.0674-0.0264 0.69223-0.037 0.89303-5e-3 0.0687-0.037 0.10568-0.0264 0.037-0.0528 0.0423-0.0264 5e-3 -0.0687 5e-3 -0.1004 0-0.1004-0.85604v-0.60769q0-0.4016 0.0159-0.79263 5e-3 -0.5337 0.0159-1.2312 0-0.14796 0.0211-0.4016t0.0211-0.38046q0-0.15324-0.0211-0.29592 0-0.0159-0.0793-0.0106-0.0317-5e-3 -0.0317-0.0159 0.11097-0.44387 0.16381-0.53899 0.0581-0.10568 0.1004-0.10568 0.0317 0 0.0634 0.0634zm-1.0568 0q0.0476 0.12154 0.15852 0.42802 0.11626 0.30648 0.15853 0.39632 0.0211 0.0423 0.0581 0.11096 0.037 0.0634 0.0528 0.1004 0.0211 0.037 0.037 0.0898t0.0159 0.1004q0 5e-3 -0.0793 0.34347-0.0793 0.3329-0.17438 0.78735-0.0951 0.44915-0.12682 0.7028-0.0423 0.37518-0.074 1.0674-0.0264 0.69223-0.037 0.89303-5e-3 0.0687-0.037 0.10568-0.0264 0.037-0.0528 0.0423-0.0264 5e-3 -0.0687 5e-3 -0.1004 0-0.1004-0.85604v-0.60769q0-0.4016 0.0159-0.79263 5e-3 -0.5337 0.0159-1.2312 0-0.14796 0.0211-0.4016t0.0211-0.38046q0-0.15324-0.0211-0.29592 0-0.0159-0.0793-0.0106-0.0317-5e-3 -0.0317-0.0159 0.11096-0.44387 0.16381-0.53899 0.0581-0.10568 0.1004-0.10568 0.0317 0 0.0634 0.0634z"/>
  </g>
  <g class="TextShape" transform="scale(1.0013 .99867)" stroke-width=".012806" aria-label="1">
   <path d="m123.65 102.07 0.96241-0.82998h0.32669v2.938q0.56509 0.0419 0.57834 0.0441 0.0618 0.0133 0.0618 0.0817v0.181h-1.735v-0.18105q0-0.0684 0.064-0.0817l0.63131-0.0441v-2.2074q0-0.13465 4e-3 -0.20307l-0.57833 0.49224q-0.0441 0.0375-0.0817 0.0375-0.0773 0-0.10816-0.0508z" fill="#fff"/>
  </g>
 </g>
</svg>
