<?xml version="1.0" encoding="UTF-8"?>
<svg width="111.21" height="128" version="1.1" viewBox="0 0 29.423 33.867" xmlns="http://www.w3.org/2000/svg" xmlns:cc="http://creativecommons.org/ns#" xmlns:dc="http://purl.org/dc/elements/1.1/" xmlns:rdf="http://www.w3.org/1999/02/22-rdf-syntax-ns#">
 <title>Sermon 32 Initial</title>
 <defs>
  <clipPath id="clip_path_1">
   <path d="m0 0h15849v23495h-15849z"/>
  </clipPath>
 </defs>
 <metadata>
  <rdf:RDF>
   <cc:Work rdf:about="">
    <dc:format>image/svg+xml</dc:format>
    <dc:type rdf:resource="http://purl.org/dc/dcmitype/StillImage"/>
    <dc:title>Sermon 32 Initial</dc:title>
    <dc:date>2021-09-28</dc:date>
    <dc:creator>
     <cc:Agent>
      <dc:title>Indrele the Lesser</dc:title>
     </cc:Agent>
    </dc:creator>
    <cc:license rdf:resource="http://artlibre.org/licence/lal"/>
   </cc:Work>
   <cc:License rdf:about="http://artlibre.org/licence/lal">
    <cc:permits rdf:resource="http://creativecommons.org/ns#Reproduction"/>
    <cc:permits rdf:resource="http://creativecommons.org/ns#Distribution"/>
    <cc:permits rdf:resource="http://creativecommons.org/ns#DerivativeWorks"/>
    <cc:requires rdf:resource="http://creativecommons.org/ns#ShareAlike"/>
    <cc:requires rdf:resource="http://creativecommons.org/ns#Notice"/>
    <cc:requires rdf:resource="http://creativecommons.org/ns#Attribution"/>
   </cc:License>
  </rdf:RDF>
 </metadata>
 <g transform="translate(-16.282 -20.108)">
  <g transform="matrix(.012916 0 0 .012799 .018656 -191.15)" clip-path="url(#clip_path_1)">
   <g class="TextShape" aria-label="T">
    <path d="m1882.3 17142h720.68q20.461 0 34.102-9.093 13.641-9.094 11.367-25.008-29.555-131.86-186.42-222.8-156.87-93.211-413.77-138.68-52.289-9.094-52.289-38.648 0-34.102 56.836-34.102 165.96 0 370.57 63.656 206.88 63.657 361.48 175.06 154.59 111.4 154.59 229.62 0 43.196-159.14 140.95-156.87 95.485-320.55 165.96-29.555 13.641-50.016-15.914-36.375-54.562-122.77-113.67-86.391-59.109-127.31-59.109-9.0937 0-11.367 4.547-2.2734 4.547 0 11.367 4.5469 6.82 11.367 15.914 113.67 104.58 193.24 254.62 79.57 147.77 79.57 297.82 0 450.14-90.938 836.62h31.828q38.648 0 75.023-6.82 36.375-4.547 61.383-11.367 25.008-4.547 59.109-25.008 34.102-18.187 47.742-25.008 15.914-6.82 52.289-38.648 36.375-29.555 45.469-38.649 11.367-9.093 54.562-50.015 45.469-43.195 56.836-54.563 47.742-47.742 70.477-47.742 31.828 0 31.828 38.649 0 25.007-109.12 161.41-109.12 138.68-265.99 275.09-156.87 138.68-256.9 138.68-90.938 0-188.7-127.31-97.758-125.04-152.32-259.17-52.289-134.13-52.289-188.7 0-75.024 36.375-75.024 18.188 0 31.828 15.914 15.914 15.914 18.188 38.649 13.641 90.937 84.117 163.69t172.78 100.03q0-536.53-47.742-741.14-77.297-354.66-318.28-654.75-6.8203-6.821-18.188-18.188t-18.188-18.187q-4.5469-6.821-11.367-15.914-6.8203-11.367-11.367-20.461-2.2734-11.367-2.2734-25.008 0-29.555 63.656-29.555z" fill="#f00"/>
   </g>
  </g>
  <g class="TextShape" stroke-width=".012916" aria-label="T">
   <path d="m18.639 28.617v-6.6043h24.7v6.6043h-2.0447q-0.67474 0-0.79742-0.40893-0.20447-0.69519-0.40893-2.7603h-7.0337v23.534q0.16357 0 0.49072 0.08179 1.9833 0.36804 2.106 0.40893 0.40893 0.12268 0.40893 0.75653v1.7584h-10.142v-1.7584q0-0.71563 0.71563-0.83831 0.20447-0.04089 0.96099-0.20447 0.75653-0.16357 1.3495-0.26581v-23.514h-7.0746q-0.22491 2.2491-0.38849 2.8012-0.12268 0.40893-0.83831 0.40893z"/>
  </g>
  <g fill="none" stroke="#000" stroke-linejoin="round" stroke-width=".91706">
   <path d="m16.289 20.567h29.411"/>
   <path d="m45.247 20.115v33.854"/>
   <path d="m45.699 53.516h-29.411"/>
   <path d="m16.741 53.969v-33.854"/>
  </g>
  <g class="TextShape" stroke-width=".012916" aria-label="1">
   <path d="m19.166 23.824 0.97067-0.83709h0.32949v2.9632q0.56993 0.0423 0.58329 0.04453 0.06234 0.01336 0.06234 0.08237v0.18256h-1.7499v-0.18256q0-0.06902 0.06456-0.08237l0.63672-0.04453v-2.2263q0-0.1358 0.0045-0.20482l-0.58329 0.49647q-0.04453 0.03785-0.08237 0.03785-0.07792 0-0.10909-0.05121z" fill="#fff"/>
  </g>
  <g class="TextShape" stroke-width=".01305" aria-label="7">
   <path d="m22.477 46.709q0.04852 0.12399 0.16172 0.43666 0.1186 0.31267 0.16172 0.40431 0.02156 0.04313 0.0593 0.11321 0.03774 0.06469 0.05391 0.10243 0.02156 0.03774 0.03774 0.09164 0.01617 0.05391 0.01617 0.10243 0 0.0054-0.08086 0.3504-0.08086 0.33962-0.1779 0.80324-0.09704 0.45822-0.12938 0.71698-0.04313 0.38275-0.07547 1.089-0.02695 0.7062-0.03774 0.91105-0.0054 0.07008-0.03774 0.10782-0.02695 0.03774-0.05391 0.04313-0.02695 0.0054-0.07008 0.0054-0.10243 0-0.10243-0.87332v-0.61995q0-0.4097 0.01617-0.80863 0.0054-0.54447 0.01617-1.2561 0-0.15094 0.02156-0.4097t0.02156-0.38814q0-0.15633-0.02156-0.30189 0-0.01617-0.08086-0.01078-0.03234-0.0054-0.03234-0.01617 0.11321-0.45283 0.16712-0.54986 0.0593-0.10782 0.10243-0.10782 0.03234 0 0.06469 0.06469zm-1.0782 0q0.04852 0.12399 0.16172 0.43666 0.1186 0.31267 0.16172 0.40431 0.02156 0.04313 0.0593 0.11321 0.03774 0.06469 0.05391 0.10243 0.02156 0.03774 0.03774 0.09164 0.01617 0.05391 0.01617 0.10243 0 0.0054-0.08086 0.3504-0.08086 0.33962-0.1779 0.80324-0.09703 0.45822-0.12938 0.71698-0.04313 0.38275-0.07547 1.089-0.02695 0.7062-0.03774 0.91105-0.0054 0.07008-0.03774 0.10782-0.02695 0.03774-0.05391 0.04313-0.02695 0.0054-0.07008 0.0054-0.10243 0-0.10243-0.87332v-0.61995q0-0.4097 0.01617-0.80863 0.0054-0.54447 0.01617-1.2561 0-0.15094 0.02156-0.4097t0.02156-0.38814q0-0.15633-0.02156-0.30189 0-0.01617-0.08086-0.01078-0.03234-0.0054-0.03234-0.01617 0.11321-0.45283 0.16712-0.54986 0.0593-0.10782 0.10243-0.10782 0.03234 0 0.06469 0.06469zm-0.39892 1.5903q0.04852 0 0.04852 0.03773 0 0.02696-0.07547 0.11321-0.07008 0.08625-0.09164 0.16712-0.03774 0.16172-0.21024 0.2911-0.08625 0.0593-0.24259 0.10782-0.15634 0.04313-0.28572 0.04313-0.04852 0-0.16712-0.02156-0.11321-0.02156-0.16712-0.02156-0.38814-0.03234-0.38814-0.03234-0.19946 0-0.23181 0.08625-0.05391 0.14016-0.07547 0.26954-0.02156 0.12938-0.02695 0.28032-0.0054 0.15094-0.01078 0.21024-0.04313 0.38275-0.07547 1.089-0.02695 0.7062-0.03774 0.91105-0.0054 0.07008-0.03774 0.10782-0.02695 0.03774-0.05391 0.04313-0.02695 0.0054-0.07008 0.0054-0.10243 0-0.10243-0.87332v-0.61995q0-0.4097 0.01617-0.80863 0.0054-0.54447 0.01617-1.2561 0-0.14555 0.02156-0.40431 0.02156-0.25876 0.02156-0.38814 0-0.16172-0.02156-0.30728 0-0.01617-0.08086-0.01078-0.03234-0.0054-0.03234-0.01617 0.11321-0.45283 0.16712-0.54986 0.06469-0.10782 0.10243-0.10782 0.03234 0 0.06469 0.06469 0.04852 0.12399 0.16172 0.43666 0.1186 0.31267 0.16172 0.40431 0.02156 0.04313 0.0593 0.11321 0.03773 0.06469 0.05391 0.10243 0.02156 0.03774 0.03774 0.09164 0.01617 0.05391 0.01617 0.10243-0.10243 0.15633-0.10243 0.25337 0 0.03774 0.01617 0.05391 0.02695 0.03234 0.12938 0.05391 0.10243 0.01617 0.18868 0.01617l0.08625 0.0054q0.45283 0.0054 0.61456 0.0054h0.20485q0.09164 0 0.23181-0.02156 0.14555-0.02695 0.16712-0.02695z" fill="#cc0"/>
  </g>
 </g>
</svg>
