<?xml version="1.0" encoding="UTF-8"?>
<svg width="133.07" height="128" version="1.1" viewBox="0 0 35.208 33.867" xmlns="http://www.w3.org/2000/svg" xmlns:cc="http://creativecommons.org/ns#" xmlns:dc="http://purl.org/dc/elements/1.1/" xmlns:rdf="http://www.w3.org/1999/02/22-rdf-syntax-ns#">
 <title>Sermon 19 Initial</title>
 <defs>
  <clipPath id="clip_path_1">
   <path d="m0 0h15849v23495h-15849z"/>
  </clipPath>
 </defs>
 <metadata>
  <rdf:RDF>
   <cc:Work rdf:about="">
    <dc:format>image/svg+xml</dc:format>
    <dc:type rdf:resource="http://purl.org/dc/dcmitype/StillImage"/>
    <dc:title>Sermon 19 Initial</dc:title>
    <dc:date>2021-09-28</dc:date>
    <dc:creator>
     <cc:Agent>
      <dc:title>Indrele the Lesser</dc:title>
     </cc:Agent>
    </dc:creator>
    <cc:license rdf:resource="http://artlibre.org/licence/lal"/>
   </cc:Work>
   <cc:License rdf:about="http://artlibre.org/licence/lal">
    <cc:permits rdf:resource="http://creativecommons.org/ns#Reproduction"/>
    <cc:permits rdf:resource="http://creativecommons.org/ns#Distribution"/>
    <cc:permits rdf:resource="http://creativecommons.org/ns#DerivativeWorks"/>
    <cc:requires rdf:resource="http://creativecommons.org/ns#ShareAlike"/>
    <cc:requires rdf:resource="http://creativecommons.org/ns#Notice"/>
    <cc:requires rdf:resource="http://creativecommons.org/ns#Attribution"/>
   </cc:License>
  </rdf:RDF>
 </metadata>
 <g transform="translate(-67.062 -100.24)">
  <g transform="matrix(.013579 0 0 .013314 48.543 60.191)" clip-path="url(#clip_path_1)">
   <g class="TextShape" aria-label="V">
    <path d="m2611.1 5343.7q25.008 29.555 25.008 43.195 0 25.008-54.562 25.008-47.742 0-72.75-25.008-288.73-270.54-406.95-511.52-115.95-243.26-115.95-611.55 0-165.96 86.391-429.68 88.664-265.99 197.79-454.69 20.461-45.469 20.461-59.109 0-47.742-109.12-56.836-104.58-6.8204-104.58-63.656t150.05-56.836h834.35q118.22 0 118.22 50.016 0 22.734-20.461 43.195-20.461 18.188-40.922 22.734-38.648 4.5469-70.477 22.734-31.828 15.914-31.828 38.648 0 4.5469 9.0937 22.734 161.41 254.62 231.89 456.96 72.75 200.06 72.75 475.15 0 170.51-22.734 309.19-20.461 136.41-52.289 229.62-29.555 93.211-90.938 188.7-61.383 95.484-111.4 150.05-47.742 56.836-136.41 150.05-56.836 56.836-97.758 56.836-15.914 0-27.281-15.914-11.367-13.641-11.367-29.555 0-34.102 34.102-68.203 177.33-172.78 250.08-334.2 75.023-163.69 75.023-456.96 0-161.41-38.648-345.56-36.375-186.42-138.68-404.67-102.3-220.52-254.62-363.75-40.922-36.375-79.57-36.375-50.016 0-68.203 38.648-25.008 52.289-95.484 186.42-68.203 131.86-93.211 186.42-22.734 52.289-61.383 156.87-38.648 102.3-52.289 195.52-13.641 90.938-13.641 200.06 0 636.56 368.3 1075.3z" fill="#f00"/>
   </g>
  </g>
  <g class="TextShape" transform="scale(.9906 1.0095)" stroke-width=".012541" aria-label="V">
   <path d="m70.05 102.9v-1.8336h9.922v1.8336q0 0.67234-0.83532 0.79458-0.26486 0.0408-0.97794 0.20374-0.71308 0.16299-1.1817 0.24448l7.6401 18.988q0.48897 1.1409 0.99831 3.2598 0.52972-2.3022 0.95757-3.3005l7.5587-18.988q-2.017-0.36672-2.3837-0.48897-0.63159-0.12224-0.63159-0.79457v-1.7521l9.8813 0.0407v1.7929q0 0.63159-0.57046 0.75383l-2.0985 0.48897-10.961 26.873h-3.6265l-10.941-26.873q-1.7725-0.36673-2.1189-0.48897-0.63158-0.12224-0.63158-0.75383z"/>
  </g>
  <g fill="none" stroke="#000" stroke-linejoin="round" stroke-width=".89044">
   <path d="m67.069 100.69h35.196"/>
   <path d="m101.83 100.25v33.854"/>
   <path d="m102.26 133.66h-35.196"/>
   <path d="m67.503 134.1v-33.854"/>
  </g>
  <g class="TextShape" transform="scale(.9906 1.0095)" stroke-width=".012541" aria-label="1">
   <path d="m74.079 102.63 0.9425-0.81279h0.31993v2.8772q0.55339 0.0411 0.56636 0.0432 0.06053 0.013 0.06053 0.08v0.17726h-1.6991v-0.17726q0-0.067 0.06269-0.08l0.61824-0.0432v-2.1617q0-0.13186 0.0043-0.19887l-0.56636 0.48206q-0.04323 0.0367-0.07998 0.0367-0.07566 0-0.10592-0.0497z" fill="#fff"/>
  </g>
  <g class="TextShape" transform="scale(.9906 1.0095)" fill="#cc0" stroke-width=".012541" aria-label="2'5'8">
   <path d="m71.409 125.94q0.04663 0.11916 0.15542 0.41964 0.11398 0.30048 0.15542 0.38855 0.02072 0.0414 0.05699 0.10879 0.03627 0.0622 0.05181 0.0984 0.02072 0.0363 0.03627 0.0881 0.01554 0.0518 0.01554 0.0984 0 5e-3 -0.07771 0.33675-0.07771 0.32638-0.17096 0.77192-0.09325 0.44036-0.12434 0.68904-0.04144 0.36783-0.07253 1.0465-0.0259 0.67867-0.03627 0.87554-0.0052 0.0674-0.03627 0.10361-0.0259 0.0363-0.05181 0.0414-0.0259 5e-3 -0.06735 5e-3 -0.09843 0-0.09843-0.83928v-0.59578q0-0.39373 0.01554-0.7771 0.0052-0.52325 0.01554-1.2071 0-0.14506 0.02072-0.39373t0.02072-0.37301q0-0.15024-0.02072-0.29012 0-0.0155-0.07771-0.0104-0.03109-5e-3 -0.03109-0.0155 0.1088-0.43518 0.1606-0.52843 0.05699-0.10362 0.09843-0.10362 0.03108 0 0.06217 0.0622zm-1.0361 0q0.04663 0.11916 0.15542 0.41964 0.11398 0.30048 0.15542 0.38855 0.02072 0.0414 0.05699 0.10879 0.03627 0.0622 0.05181 0.0984 0.02072 0.0363 0.03627 0.0881 0.01554 0.0518 0.01554 0.0984 0 5e-3 -0.07771 0.33675-0.07771 0.32638-0.17096 0.77192-0.09325 0.44036-0.12434 0.68904-0.04145 0.36783-0.07253 1.0465-0.0259 0.67867-0.03627 0.87554-0.0052 0.0674-0.03627 0.10361-0.0259 0.0363-0.05181 0.0414-0.0259 5e-3 -0.06735 5e-3 -0.09843 0-0.09843-0.83928v-0.59578q0-0.39373 0.01554-0.7771 0.0052-0.52325 0.01554-1.2071 0-0.14506 0.02072-0.39373t0.02072-0.37301q0-0.15024-0.02072-0.29012 0-0.0155-0.07771-0.0104-0.03108-5e-3 -0.03108-0.0155 0.1088-0.43518 0.1606-0.52843 0.05699-0.10362 0.09843-0.10362 0.03108 0 0.06217 0.0622z"/>
   <path d="m72.429 125.98q-0.06217-0.0466-0.02072-0.11397 0.05699-0.057 0.12434-0.0311 1.0517 0.37301 1.2434 0.66313 0.15024 0.22277 0.15024 0.38337 0 0.11397-0.15024 0.25903-0.15024 0.13988-0.24349 0.13988-0.09325 0-0.21241-0.0674-0.11916-0.0673-0.17614-0.1865-0.0259-0.0518-0.09325-0.19687-0.06217-0.14506-0.1088-0.22277-0.04144-0.0829-0.11916-0.20723-0.07771-0.12434-0.17614-0.22277-0.09325-0.10361-0.21759-0.19687z"/>
   <path d="m76.724 127.47q0.04663 0 0.04663 0.0363 0 0.0259-0.07253 0.1088-0.06735 0.0829-0.08807 0.1606-0.03627 0.15542-0.20205 0.27976-0.08289 0.057-0.23313 0.10361-0.15024 0.0414-0.27458 0.0414-0.04663 0-0.1606-0.0207-0.1088-0.0207-0.1606-0.0207-0.37301-0.0311-0.37301-0.0311-0.19169 0-0.22277 0.0829-0.05181 0.1347-0.07253 0.25903-0.02072 0.12434-0.0259 0.2694-0.0052 0.14506-0.01036 0.20205-0.04144 0.36783-0.07253 1.0465-0.0259 0.67867-0.03626 0.87554-0.0052 0.0674-0.03627 0.10361-0.0259 0.0363-0.05181 0.0414-0.0259 5e-3 -0.06735 5e-3 -0.09843 0-0.09843-0.83928v-0.59578q0-0.39373 0.01554-0.7771 0.0052-0.52325 0.01554-1.2071 0-0.13987 0.02072-0.38855 0.02072-0.24867 0.02072-0.37301 0-0.15542-0.02072-0.2953 0-0.0155-0.07771-0.0104-0.03109-5e-3 -0.03109-0.0155 0.1088-0.43518 0.1606-0.52843 0.06217-0.10362 0.09843-0.10362 0.03109 0 0.06217 0.0622 0.04663 0.11916 0.15542 0.41964 0.11398 0.30048 0.15542 0.38855 0.02072 0.0414 0.05699 0.10879 0.03626 0.0622 0.05181 0.0984 0.02072 0.0363 0.03627 0.0881 0.01554 0.0518 0.01554 0.0984-0.09843 0.15024-0.09843 0.2435 0 0.0363 0.01554 0.0518 0.0259 0.0311 0.12434 0.0518 0.09843 0.0155 0.18132 0.0155l0.08289 5e-3q0.43518 5e-3 0.5906 5e-3h0.19687q0.08807 0 0.22277-0.0207 0.13988-0.0259 0.1606-0.0259z"/>
   <path d="m77.299 125.98q-0.06217-0.0466-0.02072-0.11397 0.05699-0.057 0.12434-0.0311 1.0517 0.37301 1.2434 0.66313 0.15024 0.22277 0.15024 0.38337 0 0.11397-0.15024 0.25903-0.15024 0.13988-0.24349 0.13988-0.09325 0-0.21241-0.0674-0.11916-0.0673-0.17614-0.1865-0.0259-0.0518-0.09325-0.19687-0.06217-0.14506-0.1088-0.22277-0.04145-0.0829-0.11916-0.20723-0.07771-0.12434-0.17614-0.22277-0.09325-0.10361-0.21759-0.19687z"/>
   <path d="m83.946 125.94q0.04663 0.11916 0.15542 0.41964 0.11398 0.30048 0.15542 0.38855 0.02072 0.0414 0.05699 0.10879 0.03627 0.0622 0.05181 0.0984 0.02072 0.0363 0.03627 0.0881 0.01554 0.0518 0.01554 0.0984 0 5e-3 -0.07771 0.33675-0.07771 0.32638-0.17096 0.77192-0.09325 0.44036-0.12434 0.68904-0.04145 0.36783-0.07253 1.0465-0.0259 0.67867-0.03627 0.87554-0.0052 0.0674-0.03627 0.10361-0.0259 0.0363-0.05181 0.0414-0.0259 5e-3 -0.06735 5e-3 -0.09843 0-0.09843-0.83928v-0.59578q0-0.39373 0.01554-0.7771 0.0052-0.52325 0.01554-1.2071 0-0.14506 0.02072-0.39373t0.02072-0.37301q0-0.15024-0.02072-0.29012 0-0.0155-0.07771-0.0104-0.03109-5e-3 -0.03109-0.0155 0.1088-0.43518 0.1606-0.52843 0.05699-0.10362 0.09843-0.10362 0.03108 0 0.06217 0.0622zm-1.0361 0q0.04663 0.11916 0.15542 0.41964 0.11398 0.30048 0.15542 0.38855 0.02072 0.0414 0.05699 0.10879 0.03627 0.0622 0.05181 0.0984 0.02072 0.0363 0.03627 0.0881 0.01554 0.0518 0.01554 0.0984 0 5e-3 -0.07771 0.33675-0.07771 0.32638-0.17096 0.77192-0.09325 0.44036-0.12434 0.68904-0.04145 0.36783-0.07253 1.0465-0.0259 0.67867-0.03627 0.87554-0.0052 0.0674-0.03627 0.10361-0.0259 0.0363-0.05181 0.0414-0.0259 5e-3 -0.06735 5e-3 -0.09843 0-0.09843-0.83928v-0.59578q0-0.39373 0.01554-0.7771 0.0052-0.52325 0.01554-1.2071 0-0.14506 0.02072-0.39373t0.02072-0.37301q0-0.15024-0.02072-0.29012 0-0.0155-0.07771-0.0104-0.03108-5e-3 -0.03108-0.0155 0.1088-0.43518 0.1606-0.52843 0.05699-0.10362 0.09843-0.10362 0.03108 0 0.06217 0.0622zm-1.0361 0q0.04663 0.11916 0.15542 0.41964 0.11398 0.30048 0.15542 0.38855 0.02072 0.0414 0.05699 0.10879 0.03627 0.0622 0.05181 0.0984 0.02072 0.0363 0.03627 0.0881 0.01554 0.0518 0.01554 0.0984 0 5e-3 -0.07771 0.33675-0.07771 0.32638-0.17096 0.77192-0.09325 0.44036-0.12434 0.68904-0.04144 0.36783-0.07253 1.0465-0.0259 0.67867-0.03627 0.87554-0.0052 0.0674-0.03626 0.10361-0.0259 0.0363-0.05181 0.0414-0.0259 5e-3 -0.06735 5e-3 -0.09843 0-0.09843-0.83928v-0.59578q0-0.39373 0.01554-0.7771 0.0052-0.52325 0.01554-1.2071 0-0.14506 0.02072-0.39373t0.02072-0.37301q0-0.15024-0.02072-0.29012 0-0.0155-0.07771-0.0104-0.03108-5e-3 -0.03108-0.0155 0.1088-0.43518 0.1606-0.52843 0.05699-0.10362 0.09843-0.10362 0.03108 0 0.06217 0.0622zm-0.38337 1.5283q0.04663 0 0.04663 0.0363 0 0.0259-0.07253 0.1088-0.06735 0.0829-0.08807 0.1606-0.03627 0.15542-0.20205 0.27976-0.08289 0.057-0.23313 0.10361-0.15024 0.0414-0.27458 0.0414-0.04663 0-0.1606-0.0207-0.1088-0.0207-0.1606-0.0207-0.37301-0.0311-0.37301-0.0311-0.19169 0-0.22277 0.0829-0.05181 0.1347-0.07253 0.25903-0.02072 0.12434-0.0259 0.2694-0.0052 0.14506-0.01036 0.20205-0.04145 0.36783-0.07253 1.0465-0.0259 0.67867-0.03627 0.87554-0.0052 0.0674-0.03627 0.10361-0.0259 0.0363-0.05181 0.0414-0.0259 5e-3 -0.06735 5e-3 -0.09843 0-0.09843-0.83928v-0.59578q0-0.39373 0.01554-0.7771 0.0052-0.52325 0.01554-1.2071 0-0.13987 0.02072-0.38855 0.02072-0.24867 0.02072-0.37301 0-0.15542-0.02072-0.2953 0-0.0155-0.07771-0.0104-0.03108-5e-3 -0.03108-0.0155 0.1088-0.43518 0.1606-0.52843 0.06217-0.10362 0.09843-0.10362 0.03108 0 0.06217 0.0622 0.04663 0.11916 0.15542 0.41964 0.11398 0.30048 0.15542 0.38855 0.02072 0.0414 0.05699 0.10879 0.03627 0.0622 0.05181 0.0984 0.02072 0.0363 0.03627 0.0881 0.01554 0.0518 0.01554 0.0984-0.09843 0.15024-0.09843 0.2435 0 0.0363 0.01554 0.0518 0.0259 0.0311 0.12434 0.0518 0.09843 0.0155 0.18132 0.0155l0.08289 5e-3q0.43518 5e-3 0.5906 5e-3h0.19687q0.08807 0 0.22277-0.0207 0.13988-0.0259 0.1606-0.0259z"/>
  </g>
 </g>
</svg>
