<?xml version="1.0" encoding="UTF-8"?>
<svg width="111.21" height="128" version="1.1" viewBox="0 0 29.423 33.867" xmlns="http://www.w3.org/2000/svg" xmlns:cc="http://creativecommons.org/ns#" xmlns:dc="http://purl.org/dc/elements/1.1/" xmlns:rdf="http://www.w3.org/1999/02/22-rdf-syntax-ns#">
 <title>Sermon 29 Initial</title>
 <defs>
  <clipPath id="clip_path_1">
   <path d="m0 0h15849v23495h-15849z"/>
  </clipPath>
 </defs>
 <metadata>
  <rdf:RDF>
   <cc:Work rdf:about="">
    <dc:format>image/svg+xml</dc:format>
    <dc:type rdf:resource="http://purl.org/dc/dcmitype/StillImage"/>
    <dc:title>Sermon 29 Initial</dc:title>
    <dc:date>2021-09-28</dc:date>
    <dc:creator>
     <cc:Agent>
      <dc:title>Indrele the Lesser</dc:title>
     </cc:Agent>
    </dc:creator>
    <cc:license rdf:resource="http://artlibre.org/licence/lal"/>
   </cc:Work>
   <cc:License rdf:about="http://artlibre.org/licence/lal">
    <cc:permits rdf:resource="http://creativecommons.org/ns#Reproduction"/>
    <cc:permits rdf:resource="http://creativecommons.org/ns#Distribution"/>
    <cc:permits rdf:resource="http://creativecommons.org/ns#DerivativeWorks"/>
    <cc:requires rdf:resource="http://creativecommons.org/ns#ShareAlike"/>
    <cc:requires rdf:resource="http://creativecommons.org/ns#Notice"/>
    <cc:requires rdf:resource="http://creativecommons.org/ns#Attribution"/>
   </cc:License>
  </rdf:RDF>
 </metadata>
 <g transform="translate(-16.282 -20.108)">
  <g transform="matrix(.012916 0 0 .012799 .018656 -191.15)" clip-path="url(#clip_path_1)">
   <g class="TextShape" aria-label="T">
    <path d="m1882.3 17142h720.68q20.461 0 34.102-9.093 13.641-9.094 11.367-25.008-29.555-131.86-186.42-222.8-156.87-93.211-413.77-138.68-52.289-9.094-52.289-38.648 0-34.102 56.836-34.102 165.96 0 370.57 63.656 206.88 63.657 361.48 175.06 154.59 111.4 154.59 229.62 0 43.196-159.14 140.95-156.87 95.485-320.55 165.96-29.555 13.641-50.016-15.914-36.375-54.562-122.77-113.67-86.391-59.109-127.31-59.109-9.0937 0-11.367 4.547-2.2734 4.547 0 11.367 4.5469 6.82 11.367 15.914 113.67 104.58 193.24 254.62 79.57 147.77 79.57 297.82 0 450.14-90.938 836.62h31.828q38.648 0 75.023-6.82 36.375-4.547 61.383-11.367 25.008-4.547 59.109-25.008 34.102-18.187 47.742-25.008 15.914-6.82 52.289-38.648 36.375-29.555 45.469-38.649 11.367-9.093 54.562-50.015 45.469-43.195 56.836-54.563 47.742-47.742 70.477-47.742 31.828 0 31.828 38.649 0 25.007-109.12 161.41-109.12 138.68-265.99 275.09-156.87 138.68-256.9 138.68-90.938 0-188.7-127.31-97.758-125.04-152.32-259.17-52.289-134.13-52.289-188.7 0-75.024 36.375-75.024 18.188 0 31.828 15.914 15.914 15.914 18.188 38.649 13.641 90.937 84.117 163.69t172.78 100.03q0-536.53-47.742-741.14-77.297-354.66-318.28-654.75-6.8203-6.821-18.188-18.188t-18.188-18.187q-4.5469-6.821-11.367-15.914-6.8203-11.367-11.367-20.461-2.2734-11.367-2.2734-25.008 0-29.555 63.656-29.555z" fill="#f00"/>
   </g>
  </g>
  <g class="TextShape" stroke-width=".012916" aria-label="T">
   <path d="m18.639 28.617v-6.6043h24.7v6.6043h-2.0447q-0.67474 0-0.79742-0.40893-0.20447-0.69519-0.40893-2.7603h-7.0337v23.534q0.16357 0 0.49072 0.08179 1.9833 0.36804 2.106 0.40893 0.40893 0.12268 0.40893 0.75653v1.7584h-10.142v-1.7584q0-0.71563 0.71563-0.83831 0.20447-0.04089 0.96099-0.20447 0.75653-0.16357 1.3495-0.26581v-23.514h-7.0746q-0.22491 2.2491-0.38849 2.8012-0.12268 0.40893-0.83831 0.40893z"/>
  </g>
  <g fill="none" stroke="#000" stroke-linejoin="round" stroke-width=".91706">
   <path d="m16.289 20.567h29.411"/>
   <path d="m45.247 20.115v33.854"/>
   <path d="m45.699 53.516h-29.411"/>
   <path d="m16.741 53.969v-33.854"/>
  </g>
  <g class="TextShape" stroke-width=".012916" aria-label="1">
   <path d="m19.166 23.824 0.97067-0.83709h0.32949v2.9632q0.56993 0.0423 0.58329 0.04453 0.06234 0.01336 0.06234 0.08237v0.18256h-1.7499v-0.18256q0-0.06902 0.06456-0.08237l0.63672-0.04453v-2.2263q0-0.1358 0.0045-0.20482l-0.58329 0.49647q-0.04453 0.03785-0.08237 0.03785-0.07792 0-0.10909-0.05121z" fill="#fff"/>
  </g>
  <g class="TextShape" fill="#cc0" stroke-width=".012913" aria-label="2'1'7">
   <path d="m20.037 46.765q0.04801 0.12269 0.16003 0.43207 0.11735 0.30939 0.16003 0.40007 0.02134 0.04267 0.05868 0.11202 0.03734 0.06401 0.05334 0.10135 0.02134 0.03734 0.03734 0.09068t0.016 0.10135q0 0.0053-0.08001 0.34673-0.08001 0.33606-0.17603 0.7948-0.09602 0.45341-0.12802 0.70946-0.04267 0.37873-0.07468 1.0775-0.02667 0.69879-0.03734 0.90149-0.0053 0.06934-0.03734 0.10668-0.02667 0.03734-0.05334 0.04267-0.02667 0.0053-0.06935 0.0053-0.10135 0-0.10135-0.86415v-0.61344q0-0.4054 0.016-0.80014 0.0053-0.53876 0.016-1.2429 0-0.14936 0.02134-0.4054t0.02134-0.38407q0-0.15469-0.02134-0.29872 0-0.016-0.08001-0.01067-0.03201-0.0053-0.03201-0.016 0.11202-0.44808 0.16536-0.54409 0.05868-0.10668 0.10135-0.10668 0.03201 0 0.06401 0.06401zm-1.0668 0q0.04801 0.12269 0.16003 0.43207 0.11735 0.30939 0.16003 0.40007 0.02134 0.04267 0.05868 0.11202 0.03734 0.06401 0.05334 0.10135 0.02134 0.03734 0.03734 0.09068t0.016 0.10135q0 0.0053-0.08001 0.34673-0.08001 0.33606-0.17603 0.7948-0.09602 0.45341-0.12802 0.70946-0.04267 0.37873-0.07468 1.0775-0.02667 0.69879-0.03734 0.90149-0.0053 0.06934-0.03734 0.10668-0.02667 0.03734-0.05334 0.04267-0.02667 0.0053-0.06934 0.0053-0.10135 0-0.10135-0.86415v-0.61344q0-0.4054 0.016-0.80014 0.0053-0.53876 0.016-1.2429 0-0.14936 0.02134-0.4054t0.02134-0.38407q0-0.15469-0.02134-0.29872 0-0.016-0.08001-0.01067-0.032-0.0053-0.032-0.016 0.11202-0.44808 0.16536-0.54409 0.05868-0.10668 0.10135-0.10668 0.03201 0 0.06401 0.06401z"/>
   <path d="m21.087 46.802q-0.06401-0.04801-0.02134-0.11735 0.05868-0.05868 0.12802-0.03201 1.0829 0.38406 1.2802 0.68278 0.15469 0.22937 0.15469 0.39474 0 0.11735-0.15469 0.26671-0.15469 0.14402-0.25071 0.14402-0.09602 0-0.2187-0.06934-0.12269-0.06935-0.18136-0.19203-0.02667-0.05334-0.09602-0.2027-0.06401-0.14936-0.11202-0.22937-0.04267-0.08535-0.12269-0.21337-0.08001-0.12802-0.18136-0.22937-0.09602-0.10668-0.22404-0.2027z"/>
   <path d="m23.45 46.765q0.04801 0.12269 0.16003 0.43207 0.11735 0.30939 0.16003 0.40007 0.02134 0.04267 0.05868 0.11202 0.03734 0.06401 0.05334 0.10135 0.02134 0.03734 0.03734 0.09068t0.016 0.10135q0 0.0053-0.08001 0.34673-0.08001 0.33606-0.17603 0.7948-0.09602 0.45341-0.12802 0.70946-0.04267 0.37873-0.07468 1.0775-0.02667 0.69879-0.03734 0.90149-0.0053 0.06934-0.03734 0.10668-0.02667 0.03734-0.05334 0.04267-0.02667 0.0053-0.06935 0.0053-0.10135 0-0.10135-0.86415v-0.61344q0-0.4054 0.016-0.80014 0.0053-0.53876 0.016-1.2429 0-0.14936 0.02134-0.4054t0.02134-0.38407q0-0.15469-0.02134-0.29872 0-0.016-0.08001-0.01067-0.03201-0.0053-0.03201-0.016 0.11202-0.44808 0.16536-0.54409 0.05868-0.10668 0.10135-0.10668 0.03201 0 0.06401 0.06401z"/>
   <path d="m24.501 46.802q-0.06401-0.04801-0.02134-0.11735 0.05868-0.05868 0.12802-0.03201 1.0829 0.38406 1.2802 0.68278 0.15469 0.22937 0.15469 0.39474 0 0.11735-0.15469 0.26671-0.15469 0.14402-0.25071 0.14402-0.09602 0-0.2187-0.06934-0.12269-0.06935-0.18136-0.19203-0.02667-0.05334-0.09602-0.2027-0.06401-0.14936-0.11202-0.22937-0.04267-0.08535-0.12269-0.21337-0.08001-0.12802-0.18136-0.22937-0.09602-0.10668-0.22404-0.2027z"/>
   <path d="m30.332 46.765q0.04801 0.12269 0.16003 0.43207 0.11735 0.30939 0.16003 0.40007 0.02134 0.04267 0.05868 0.11202 0.03734 0.06401 0.05334 0.10135 0.02134 0.03734 0.03734 0.09068t0.016 0.10135q0 0.0053-0.08001 0.34673-0.08001 0.33606-0.17603 0.7948-0.09602 0.45341-0.12802 0.70946-0.04267 0.37873-0.07468 1.0775-0.02667 0.69879-0.03734 0.90149-0.0053 0.06934-0.03734 0.10668-0.02667 0.03734-0.05334 0.04267-0.02667 0.0053-0.06935 0.0053-0.10135 0-0.10135-0.86415v-0.61344q0-0.4054 0.016-0.80014 0.0053-0.53876 0.016-1.2429 0-0.14936 0.02134-0.4054t0.02134-0.38407q0-0.15469-0.02134-0.29872 0-0.016-0.08001-0.01067-0.03201-0.0053-0.03201-0.016 0.11202-0.44808 0.16536-0.54409 0.05868-0.10668 0.10135-0.10668 0.032 0 0.06401 0.06401zm-1.0668 0q0.04801 0.12269 0.16003 0.43207 0.11735 0.30939 0.16003 0.40007 0.02134 0.04267 0.05868 0.11202 0.03734 0.06401 0.05334 0.10135 0.02134 0.03734 0.03734 0.09068t0.016 0.10135q0 0.0053-0.08001 0.34673-0.08001 0.33606-0.17603 0.7948-0.09602 0.45341-0.12802 0.70946-0.04267 0.37873-0.07468 1.0775-0.02667 0.69879-0.03734 0.90149-0.0053 0.06934-0.03734 0.10668-0.02667 0.03734-0.05334 0.04267-0.02667 0.0053-0.06935 0.0053-0.10135 0-0.10135-0.86415v-0.61344q0-0.4054 0.016-0.80014 0.0053-0.53876 0.016-1.2429 0-0.14936 0.02134-0.4054t0.02134-0.38407q0-0.15469-0.02134-0.29872 0-0.016-0.08001-0.01067-0.032-0.0053-0.032-0.016 0.11202-0.44808 0.16536-0.54409 0.05868-0.10668 0.10135-0.10668 0.03201 0 0.06401 0.06401zm-0.39473 1.5736q0.04801 0 0.04801 0.03734 0 0.02667-0.07468 0.11202-0.06935 0.08535-0.09068 0.16536-0.03734 0.16003-0.20804 0.28805-0.08535 0.05868-0.24004 0.10668-0.15469 0.04267-0.28272 0.04267-0.04801 0-0.16536-0.02134-0.11202-0.02134-0.16536-0.02134-0.38407-0.03201-0.38407-0.03201-0.19737 0-0.22937 0.08535-0.05334 0.13869-0.07468 0.26671t-0.02667 0.27738q-0.0053 0.14936-0.01067 0.20804-0.04267 0.37873-0.07468 1.0775-0.02667 0.69879-0.03734 0.90149-0.0053 0.06934-0.03734 0.10668-0.02667 0.03734-0.05334 0.04267-0.02667 0.0053-0.06935 0.0053-0.10135 0-0.10135-0.86415v-0.61344q0-0.4054 0.016-0.80014 0.0053-0.53876 0.016-1.2429 0-0.14402 0.02134-0.40007t0.02134-0.38407q0-0.16003-0.02134-0.30405 0-0.016-0.08001-0.01067-0.03201-0.0053-0.03201-0.016 0.11202-0.44808 0.16536-0.54409 0.06401-0.10668 0.10135-0.10668 0.032 0 0.06401 0.06401 0.04801 0.12269 0.16003 0.43207 0.11735 0.30939 0.16003 0.40007 0.02134 0.04267 0.05868 0.11202 0.03734 0.06401 0.05334 0.10135 0.02134 0.03734 0.03734 0.09068t0.016 0.10135q-0.10135 0.15469-0.10135 0.25071 0 0.03734 0.016 0.05334 0.02667 0.03201 0.12802 0.05334 0.10135 0.016 0.1867 0.016l0.08535 0.0053q0.44808 0.0053 0.6081 0.0053h0.2027q0.09068 0 0.22937-0.02134 0.14402-0.02667 0.16536-0.02667z"/>
  </g>
 </g>
</svg>
