<?xml version="1.0" encoding="UTF-8"?>
<svg width="103.45" height="128" version="1.1" viewBox="0 0 27.37 33.867" xmlns="http://www.w3.org/2000/svg" xmlns:cc="http://creativecommons.org/ns#" xmlns:dc="http://purl.org/dc/elements/1.1/" xmlns:rdf="http://www.w3.org/1999/02/22-rdf-syntax-ns#">
 <title>Sermon 36 Initial</title>
 <metadata>
  <rdf:RDF>
   <cc:Work rdf:about="">
    <dc:format>image/svg+xml</dc:format>
    <dc:type rdf:resource="http://purl.org/dc/dcmitype/StillImage"/>
    <dc:title>Sermon 36 Initial</dc:title>
    <dc:date>2021-09-28</dc:date>
    <dc:creator>
     <cc:Agent>
      <dc:title>Indrele the Lesser</dc:title>
     </cc:Agent>
    </dc:creator>
    <cc:license rdf:resource="http://artlibre.org/licence/lal"/>
   </cc:Work>
   <cc:License rdf:about="http://artlibre.org/licence/lal">
    <cc:permits rdf:resource="http://creativecommons.org/ns#Reproduction"/>
    <cc:permits rdf:resource="http://creativecommons.org/ns#Distribution"/>
    <cc:permits rdf:resource="http://creativecommons.org/ns#DerivativeWorks"/>
    <cc:requires rdf:resource="http://creativecommons.org/ns#ShareAlike"/>
    <cc:requires rdf:resource="http://creativecommons.org/ns#Notice"/>
    <cc:requires rdf:resource="http://creativecommons.org/ns#Attribution"/>
   </cc:License>
  </rdf:RDF>
 </metadata>
 <path transform="matrix(.26459 0 0 .26459 -.00070721 0)" d="m13.762 7.0078c-1.4964 0-2.5825 0.63374-3.2559 1.9023-0.67336 1.2686-1.0098 2.5014-1.0098 3.6953v28.543c0 1.5671 0.22491 3.0974 0.67383 4.5898 0.44888 1.4924 1.0852 2.2383 1.9082 2.2383 0.29927 1e-6 0.5607-0.075369 0.78516-0.22461 0.22444-0.14922 0.41091-0.37338 0.56055-0.67188 0.14964-0.37311 0.29958-0.70736 0.44922-1.0059 0.14963-0.2985 0.29958-0.71007 0.44922-1.2324s0.26112-0.97064 0.33594-1.3438c0.074819-0.37311 0.14979-0.81944 0.22461-1.3418 0.14964-0.597 0.26308-1.0453 0.33789-1.3438 2.0831-11.947 6.361-19.73 12.83-23.361v-3.5625c0-0.33882 0.005521-0.59346 0.015625-0.76562l-2.1895 1.8574c-0.11126 0.094361-0.21373 0.14258-0.30859 0.14258-0.19502 0-0.33034-0.063576-0.4082-0.19141l-0.47461-0.66602 3.6406-3.1328h1.2363v5.5586c2.4532-1.0814 5.1913-1.623 8.2148-1.623h12.906c0.8978 0 1.7956 0.22416 2.6934 0.67188 0.97263 0.44775 1.459 0.89405 1.459 1.3418 0 0.14922-0.074967 0.29997-0.22461 0.44922-4.9377 4.1788-9.8764 9.6991-14.814 16.564-4.863 6.7909-9.3518 14.477-13.467 23.059-4.1151 8.5069-7.4445 17.985-9.9883 28.432s-3.8145 20.746-3.8145 30.895c0 2.9103 0.67282 4.3652 2.0195 4.3652 0.9726 0 1.7589-0.44828 2.3574-1.3438 0.59854-0.82085 0.93495-1.8275 1.0098-3.0215 1.4964-16.119 8.4534-35.522 20.873-58.207h25.588c3.3668-1e-6 6.5099 1.8666 9.4277 5.5977 2.9179 3.6565 4.8633 8.319 5.8359 13.99 0.1496 1.0447 0.52254 1.978 1.1211 2.7988 0.67336 0.74621 1.4211 1.1191 2.2441 1.1191 1.5712 0 2.3574-1.3062 2.3574-3.918 0-0.82085-0.036519-1.3793-0.11133-1.6777-1.0474-5.7458-1.8721-15.111-2.4707-28.096 0-0.67161-0.37293-1.2319-1.1211-1.6797-0.67336-0.52236-1.4211-0.7832-2.2441-0.7832h-32.883c10.699-15.522 21.099-25.708 31.199-30.559 1.3467-0.52236 2.6559-1.2682 3.9277-2.2383 1.2719-0.9701 1.9082-1.9401 1.9082-2.9102 0-1.9402-1.9454-2.9102-5.8359-2.9102-0.67332 0-3.3302 0.3729-7.9688 1.1191-4.6386 0.67157-8.9773 1.0078-13.018 1.0078h-28.955c-1.7955 0-4.5253-0.33624-8.1914-1.0078-3.6661-0.74624-5.6115-1.1191-5.8359-1.1191z" fill="#f00" stroke-width=".0493"/>
 <path transform="matrix(.26459 0 0 .26459 -.00070721 0)" d="m9.4727 6.9434v6.6777c0 1.7083 0.77881 2.7187 2.3359 3.0293 0.93424 0.31061 3.9709 0.93147 9.1094 1.8633v90.852l-9.1094 1.709c-1.5571 0.31061-2.3359 1.319-2.3359 3.0273v6.6777h38.539v-6.6777c0-1.6566-0.85749-2.6669-2.5703-3.0293-1.2456-0.25886-2.5693-0.51657-3.9707-0.77539-1.4014-0.25895-2.491-0.44149-3.2695-0.54493-0.72666-0.15517-1.2714-0.28303-1.6348-0.38672v-37.584h43.365v-12.424h-43.365v-39.912h45.234c0.20761 2.2261 0.41541 4.3482 0.62305 6.3672 0.20749 1.9672 0.3648 3.4178 0.46875 4.3496 0.15566 0.93194 0.23242 1.4493 0.23242 1.5527 0.31143 1.8119 1.3748 2.7168 3.1914 2.7168h7.7871v-27.488h-84.631zm18.855 4.1895h1.2363v11.088c1.4257 0.10543 2.1541 0.16243 2.1875 0.16797 0.15592 0.033466 0.23438 0.13452 0.23438 0.30664v0.68359h-6.5664v-0.68359c0-0.17212 0.08072-0.27513 0.24219-0.30859l2.3906-0.16602v-8.332c0-0.33882 0.003568-0.59346 0.013672-0.76562l-2.1875 1.8574c-0.11126 0.094361-0.21568 0.14258-0.31055 0.14258-0.19502 0-0.33034-0.063579-0.4082-0.19141l-0.47461-0.66602 3.6426-3.1328z" stroke-width=".048399"/>
 <g transform="translate(-117.28,-98.16)" fill="none" stroke="#000" stroke-linejoin="round" stroke-width=".85488">
  <path d="m117.32 98.608h27.307"/>
  <path d="m144.23 98.16v33.867"/>
  <path d="m144.62 131.57h-27.307"/>
  <path d="m117.71 132.03v-33.867"/>
 </g>
 <g class="TextShape" transform="matrix(1.0013 0 0 .99867 -117.28 -98.16)" fill="#cc0" stroke-width=".012792" aria-label="3'6'4">
  <path d="m122.08 125.12q0.0476 0.12154 0.15853 0.42802 0.11625 0.30648 0.15853 0.39632 0.0211 0.0423 0.0581 0.11096 0.037 0.0634 0.0528 0.1004 0.0211 0.037 0.037 0.0898t0.0159 0.1004q0 5e-3 -0.0793 0.34347-0.0793 0.3329-0.17438 0.78735-0.0951 0.44915-0.12682 0.7028-0.0423 0.37518-0.074 1.0674-0.0264 0.69223-0.037 0.89303-5e-3 0.0687-0.037 0.10568-0.0264 0.037-0.0528 0.0423-0.0264 5e-3 -0.0687 5e-3 -0.1004 0-0.1004-0.85604v-0.60769q0-0.4016 0.0159-0.79263 5e-3 -0.5337 0.0159-1.2312 0-0.14796 0.0211-0.4016t0.0211-0.38046q0-0.15324-0.0211-0.29592 0-0.0159-0.0793-0.0106-0.0317-5e-3 -0.0317-0.0159 0.11097-0.44387 0.16381-0.53899 0.0581-0.10568 0.1004-0.10568 0.0317 0 0.0634 0.0634zm-1.0568 0q0.0476 0.12154 0.15853 0.42802 0.11625 0.30648 0.15852 0.39632 0.0211 0.0423 0.0581 0.11096 0.037 0.0634 0.0528 0.1004 0.0211 0.037 0.037 0.0898t0.0159 0.1004q0 5e-3 -0.0793 0.34347-0.0793 0.3329-0.17438 0.78735-0.0951 0.44915-0.12682 0.7028-0.0423 0.37518-0.074 1.0674-0.0264 0.69223-0.037 0.89303-5e-3 0.0687-0.037 0.10568-0.0264 0.037-0.0528 0.0423-0.0264 5e-3 -0.0687 5e-3 -0.1004 0-0.1004-0.85604v-0.60769q0-0.4016 0.0159-0.79263 5e-3 -0.5337 0.0159-1.2312 0-0.14796 0.0211-0.4016t0.0211-0.38046q0-0.15324-0.0211-0.29592 0-0.0159-0.0793-0.0106-0.0317-5e-3 -0.0317-0.0159 0.11097-0.44387 0.16381-0.53899 0.0581-0.10568 0.1004-0.10568 0.0317 0 0.0634 0.0634zm-1.0568 0q0.0476 0.12154 0.15853 0.42802 0.11625 0.30648 0.15852 0.39632 0.0211 0.0423 0.0581 0.11096 0.037 0.0634 0.0528 0.1004 0.0211 0.037 0.037 0.0898t0.0159 0.1004q0 5e-3 -0.0793 0.34347-0.0793 0.3329-0.17438 0.78735-0.0951 0.44915-0.12682 0.7028-0.0423 0.37518-0.074 1.0674-0.0264 0.69223-0.037 0.89303-5e-3 0.0687-0.037 0.10568-0.0264 0.037-0.0528 0.0423-0.0264 5e-3 -0.0687 5e-3 -0.1004 0-0.1004-0.85604v-0.60769q0-0.4016 0.0159-0.79263 5e-3 -0.5337 0.0159-1.2312 0-0.14796 0.0211-0.4016t0.0211-0.38046q0-0.15324-0.0211-0.29592 0-0.0159-0.0793-0.0106-0.0317-5e-3 -0.0317-0.0159 0.11097-0.44387 0.16381-0.53899 0.0581-0.10568 0.1004-0.10568 0.0317 0 0.0634 0.0634z"/>
  <path d="m123.12 125.16q-0.0634-0.0476-0.0211-0.11625 0.0581-0.0581 0.12682-0.0317 1.0727 0.38046 1.2682 0.67638 0.15324 0.22722 0.15324 0.39103 0 0.11625-0.15324 0.26421-0.15325 0.14268-0.24836 0.14268-0.0951 0-0.21665-0.0687-0.12154-0.0687-0.17967-0.19023-0.0264-0.0528-0.0951-0.2008-0.0634-0.14796-0.11097-0.22722-0.0423-0.0845-0.12154-0.21137-0.0793-0.12682-0.17966-0.22722-0.0951-0.10569-0.22194-0.2008z"/>
  <path d="m127.89 125.12q0.0476 0.12154 0.15853 0.42802 0.11625 0.30648 0.15853 0.39632 0.0211 0.0423 0.0581 0.11096 0.037 0.0634 0.0528 0.1004 0.0211 0.037 0.037 0.0898t0.0159 0.1004q0 5e-3 -0.0793 0.34347-0.0793 0.3329-0.17438 0.78735-0.0951 0.44915-0.12682 0.7028-0.0423 0.37518-0.074 1.0674-0.0264 0.69223-0.037 0.89303-5e-3 0.0687-0.037 0.10568-0.0264 0.037-0.0528 0.0423-0.0264 5e-3 -0.0687 5e-3 -0.1004 0-0.1004-0.85604v-0.60769q0-0.4016 0.0159-0.79263 5e-3 -0.5337 0.0159-1.2312 0-0.14796 0.0211-0.4016t0.0211-0.38046q0-0.15324-0.0211-0.29592 0-0.0159-0.0793-0.0106-0.0317-5e-3 -0.0317-0.0159 0.11097-0.44387 0.16381-0.53899 0.0581-0.10568 0.1004-0.10568 0.0317 0 0.0634 0.0634zm-0.39103 1.5588q0.0476 0 0.0476 0.037 0 0.0264-0.074 0.11097-0.0687 0.0845-0.0898 0.16381-0.037 0.15853-0.20609 0.28535-0.0845 0.0581-0.23779 0.10568-0.15324 0.0423-0.28006 0.0423-0.0476 0-0.16381-0.0211-0.11097-0.0211-0.16381-0.0211-0.38046-0.0317-0.38046-0.0317-0.19552 0-0.22722 0.0845-0.0528 0.13739-0.074 0.26421-0.0211 0.12682-0.0264 0.27478-5e-3 0.14796-0.0106 0.20609-0.0423 0.37518-0.074 1.0674-0.0264 0.69223-0.037 0.89303-5e-3 0.0687-0.037 0.10568-0.0264 0.037-0.0528 0.0423-0.0264 5e-3 -0.0687 5e-3 -0.1004 0-0.1004-0.85604v-0.60769q0-0.4016 0.0159-0.79263 5e-3 -0.5337 0.0158-1.2312 0-0.14267 0.0211-0.39631 0.0211-0.25365 0.0211-0.38047 0-0.15852-0.0211-0.3012 0-0.0159-0.0793-0.0106-0.0317-5e-3 -0.0317-0.0159 0.11097-0.44387 0.16381-0.53899 0.0634-0.10568 0.1004-0.10568 0.0317 0 0.0634 0.0634 0.0476 0.12154 0.15852 0.42802 0.11626 0.30648 0.15853 0.39632 0.0211 0.0423 0.0581 0.11096 0.037 0.0634 0.0528 0.1004 0.0211 0.037 0.037 0.0898t0.0159 0.1004q-0.1004 0.15324-0.1004 0.24835 0 0.037 0.0159 0.0529 0.0264 0.0317 0.12683 0.0528 0.1004 0.0159 0.18494 0.0159l0.0845 5e-3q0.44387 5e-3 0.6024 5e-3h0.2008q0.0898 0 0.22722-0.0211 0.14267-0.0264 0.16381-0.0264z"/>
  <path d="m128.98 125.16q-0.0634-0.0476-0.0211-0.11625 0.0581-0.0581 0.12682-0.0317 1.0727 0.38046 1.2682 0.67638 0.15324 0.22722 0.15324 0.39103 0 0.11625-0.15324 0.26421-0.15324 0.14268-0.24836 0.14268-0.0951 0-0.21665-0.0687-0.12154-0.0687-0.17967-0.19023-0.0264-0.0528-0.0951-0.2008-0.0634-0.14796-0.11097-0.22722-0.0423-0.0845-0.12154-0.21137-0.0793-0.12682-0.17966-0.22722-0.0951-0.10569-0.22194-0.2008z"/>
  <path d="m134.44 125.12q0.0476 0.12154 0.15853 0.42802 0.11625 0.30648 0.15852 0.39632 0.0211 0.0423 0.0581 0.11096 0.037 0.0634 0.0528 0.1004 0.0211 0.037 0.037 0.0898t0.0159 0.1004q0 5e-3 -0.0793 0.34347-0.0793 0.3329-0.17438 0.78735-0.0951 0.44915-0.12682 0.7028-0.0423 0.37518-0.074 1.0674-0.0264 0.69223-0.037 0.89303-5e-3 0.0687-0.037 0.10568-0.0264 0.037-0.0528 0.0423-0.0264 5e-3 -0.0687 5e-3 -0.1004 0-0.1004-0.85604v-0.60769q0-0.4016 0.0159-0.79263 5e-3 -0.5337 0.0159-1.2312 0-0.14796 0.0211-0.4016t0.0211-0.38046q0-0.15324-0.0211-0.29592 0-0.0159-0.0793-0.0106-0.0317-5e-3 -0.0317-0.0159 0.11097-0.44387 0.16381-0.53899 0.0581-0.10568 0.1004-0.10568 0.0317 0 0.0634 0.0634zm-1.0568 0q0.0476 0.12154 0.15853 0.42802 0.11625 0.30648 0.15852 0.39632 0.0211 0.0423 0.0581 0.11096 0.037 0.0634 0.0528 0.1004 0.0211 0.037 0.037 0.0898t0.0159 0.1004q0 5e-3 -0.0793 0.34347-0.0793 0.3329-0.17438 0.78735-0.0951 0.44915-0.12682 0.7028-0.0423 0.37518-0.074 1.0674-0.0264 0.69223-0.037 0.89303-5e-3 0.0687-0.037 0.10568-0.0264 0.037-0.0528 0.0423-0.0264 5e-3 -0.0687 5e-3 -0.1004 0-0.1004-0.85604v-0.60769q0-0.4016 0.0159-0.79263 5e-3 -0.5337 0.0159-1.2312 0-0.14796 0.0211-0.4016t0.0211-0.38046q0-0.15324-0.0211-0.29592 0-0.0159-0.0793-0.0106-0.0317-5e-3 -0.0317-0.0159 0.11097-0.44387 0.16381-0.53899 0.0581-0.10568 0.1004-0.10568 0.0317 0 0.0634 0.0634zm-1.0568 0q0.0476 0.12154 0.15852 0.42802 0.11626 0.30648 0.15853 0.39632 0.0211 0.0423 0.0581 0.11096 0.037 0.0634 0.0528 0.1004 0.0211 0.037 0.037 0.0898t0.0159 0.1004q0 5e-3 -0.0793 0.34347-0.0793 0.3329-0.17438 0.78735-0.0951 0.44915-0.12682 0.7028-0.0423 0.37518-0.074 1.0674-0.0264 0.69223-0.037 0.89303-5e-3 0.0687-0.037 0.10568-0.0264 0.037-0.0528 0.0423-0.0264 5e-3 -0.0687 5e-3 -0.1004 0-0.1004-0.85604v-0.60769q0-0.4016 0.0159-0.79263 5e-3 -0.5337 0.0159-1.2312 0-0.14796 0.0211-0.4016t0.0211-0.38046q0-0.15324-0.0211-0.29592 0-0.0159-0.0793-0.0106-0.0317-5e-3 -0.0317-0.0159 0.11097-0.44387 0.16381-0.53899 0.0581-0.10568 0.1004-0.10568 0.0317 0 0.0634 0.0634zm-1.0568 0q0.0476 0.12154 0.15852 0.42802 0.11626 0.30648 0.15853 0.39632 0.0211 0.0423 0.0581 0.11096 0.037 0.0634 0.0528 0.1004 0.0211 0.037 0.037 0.0898t0.0159 0.1004q0 5e-3 -0.0793 0.34347-0.0793 0.3329-0.17438 0.78735-0.0951 0.44915-0.12682 0.7028-0.0423 0.37518-0.074 1.0674-0.0264 0.69223-0.037 0.89303-5e-3 0.0687-0.037 0.10568-0.0264 0.037-0.0528 0.0423-0.0264 5e-3 -0.0687 5e-3 -0.1004 0-0.1004-0.85604v-0.60769q0-0.4016 0.0159-0.79263 5e-3 -0.5337 0.0159-1.2312 0-0.14796 0.0211-0.4016t0.0211-0.38046q0-0.15324-0.0211-0.29592 0-0.0159-0.0793-0.0106-0.0317-5e-3 -0.0317-0.0159 0.11096-0.44387 0.16381-0.53899 0.0581-0.10568 0.1004-0.10568 0.0317 0 0.0634 0.0634z"/>
 </g>
</svg>
