<?xml version="1.0" encoding="UTF-8"?>
<svg width="111.21" height="128" version="1.1" viewBox="0 0 29.423 33.867" xmlns="http://www.w3.org/2000/svg" xmlns:cc="http://creativecommons.org/ns#" xmlns:dc="http://purl.org/dc/elements/1.1/" xmlns:rdf="http://www.w3.org/1999/02/22-rdf-syntax-ns#">
 <title>Sermon 20 Initial</title>
 <defs>
  <clipPath id="clip_path_1">
   <path d="m0 0h15849v23495h-15849z"/>
  </clipPath>
 </defs>
 <metadata>
  <rdf:RDF>
   <cc:Work rdf:about="">
    <dc:format>image/svg+xml</dc:format>
    <dc:type rdf:resource="http://purl.org/dc/dcmitype/StillImage"/>
    <dc:title>Sermon 20 Initial</dc:title>
    <dc:date>2021-09-28</dc:date>
    <dc:creator>
     <cc:Agent>
      <dc:title>Indrele the Lesser</dc:title>
     </cc:Agent>
    </dc:creator>
    <cc:license rdf:resource="http://artlibre.org/licence/lal"/>
   </cc:Work>
   <cc:License rdf:about="http://artlibre.org/licence/lal">
    <cc:permits rdf:resource="http://creativecommons.org/ns#Reproduction"/>
    <cc:permits rdf:resource="http://creativecommons.org/ns#Distribution"/>
    <cc:permits rdf:resource="http://creativecommons.org/ns#DerivativeWorks"/>
    <cc:requires rdf:resource="http://creativecommons.org/ns#ShareAlike"/>
    <cc:requires rdf:resource="http://creativecommons.org/ns#Notice"/>
    <cc:requires rdf:resource="http://creativecommons.org/ns#Attribution"/>
   </cc:License>
  </rdf:RDF>
 </metadata>
 <g transform="matrix(.012916 0 0 .012799 -16.263 -211.26)" clip-path="url(#clip_path_1)">
  <g class="TextShape" aria-label="T">
   <path d="m1882.3 17142h720.68q20.461 0 34.102-9.093 13.641-9.094 11.367-25.008-29.555-131.86-186.42-222.8-156.87-93.211-413.77-138.68-52.289-9.094-52.289-38.648 0-34.102 56.836-34.102 165.96 0 370.57 63.656 206.88 63.657 361.48 175.06 154.59 111.4 154.59 229.62 0 43.196-159.14 140.95-156.87 95.485-320.55 165.96-29.555 13.641-50.016-15.914-36.375-54.562-122.77-113.67-86.391-59.109-127.31-59.109-9.0937 0-11.367 4.547-2.2734 4.547 0 11.367 4.5469 6.82 11.367 15.914 113.67 104.58 193.24 254.62 79.57 147.77 79.57 297.82 0 450.14-90.938 836.62h31.828q38.648 0 75.023-6.82 36.375-4.547 61.383-11.367 25.008-4.547 59.109-25.008 34.102-18.187 47.742-25.008 15.914-6.82 52.289-38.648 36.375-29.555 45.469-38.649 11.367-9.093 54.562-50.015 45.469-43.195 56.836-54.563 47.742-47.742 70.477-47.742 31.828 0 31.828 38.649 0 25.007-109.12 161.41-109.12 138.68-265.99 275.09-156.87 138.68-256.9 138.68-90.938 0-188.7-127.31-97.758-125.04-152.32-259.17-52.289-134.13-52.289-188.7 0-75.024 36.375-75.024 18.188 0 31.828 15.914 15.914 15.914 18.188 38.649 13.641 90.937 84.117 163.69t172.78 100.03q0-536.53-47.742-741.14-77.297-354.66-318.28-654.75-6.8203-6.821-18.188-18.188t-18.188-18.187q-4.5469-6.821-11.367-15.914-6.8203-11.367-11.367-20.461-2.2734-11.367-2.2734-25.008 0-29.555 63.656-29.555z" fill="#f00"/>
  </g>
 </g>
 <path transform="matrix(.26459 0 0 .26459 -.00080093 0)" d="m8.9121 7.1992v24.961l7.5723-0.001953c1.8031 0 2.8589-0.51456 3.168-1.5449 0.41217-1.3911 0.90205-4.9209 1.4688-10.588h26.738v88.871c-1.4941 0.25761-3.1954 0.59177-5.1016 1.0039-1.9062 0.41217-3.1157 0.67041-3.6309 0.77344-1.8031 0.30911-2.7051 1.3648-2.7051 3.168v6.6465h38.332v-6.6465c0-1.5971-0.51651-2.5503-1.5469-2.8594-0.30916-0.10303-2.9617-0.61758-7.959-1.5449-0.82431-0.20608-1.4414-0.30859-1.8535-0.30859v-88.947h26.582c0.51517 5.2034 1.0317 8.68 1.5469 10.432 0.30911 1.0304 1.3136 1.5469 3.0137 1.5469h7.7285v-24.961h-93.354zm5.6602 3.6816h1.2441v11.199c1.436 0.10658 2.1714 0.16235 2.2051 0.16797 0.15708 0.033663 0.23633 0.13862 0.23633 0.3125v0.68945h-6.6152v-0.68945c0-0.17391 0.081471-0.27886 0.24414-0.3125l2.4062-0.16797v-8.4141c0-0.34217 0.006239-0.59953 0.017578-0.77344l-2.2051 1.875c-0.1122 0.095369-0.2152 0.14453-0.31055 0.14453-0.19633 0-0.33357-0.06628-0.41211-0.19531l-0.48047-0.67188 3.6699-3.1641z" stroke-width=".048816"/>
 <g transform="translate(-16.282,-20.108)" fill="none" stroke="#000" stroke-linejoin="round" stroke-width=".91706">
  <path d="m16.289 20.567h29.411"/>
  <path d="m45.247 20.115v33.854"/>
  <path d="m45.699 53.516h-29.411"/>
  <path d="m16.741 53.969v-33.854"/>
 </g>
 <g class="TextShape" transform="translate(-16.282,-20.108)" fill="#cc0" stroke-width=".012907" aria-label="4'2'5">
  <path d="m22.169 46.765q0.04798 0.12263 0.15995 0.43186 0.1173 0.30924 0.15995 0.39987 0.02133 0.04265 0.05865 0.11196 0.03732 0.06398 0.05332 0.1013 0.02133 0.03732 0.03732 0.09064 0.016 0.05332 0.016 0.1013 0 0.0053-0.07997 0.34656-0.07998 0.33589-0.17594 0.79442-0.09597 0.45319-0.12796 0.70911-0.04265 0.37855-0.07464 1.077-0.02666 0.69845-0.03732 0.90105-0.0053 0.06931-0.03732 0.10663-0.02666 0.03732-0.05332 0.04265-0.02666 0.0053-0.06931 0.0053-0.1013 0-0.1013-0.86373v-0.61314q0-0.4052 0.016-0.79975 0.0053-0.5385 0.016-1.2423 0-0.14929 0.02133-0.4052 0.02133-0.25592 0.02133-0.38388 0-0.15462-0.02133-0.29857 0-0.01599-0.07997-0.01066-0.03199-0.0053-0.03199-0.01599 0.11196-0.44786 0.16528-0.54383 0.05865-0.10663 0.1013-0.10663 0.03199 0 0.06398 0.06398zm-1.0663 0q0.04799 0.12263 0.15995 0.43186 0.1173 0.30924 0.15995 0.39987 0.02133 0.04265 0.05865 0.11196 0.03732 0.06398 0.05332 0.1013 0.02133 0.03732 0.03732 0.09064 0.016 0.05332 0.016 0.1013 0 0.0053-0.07998 0.34656-0.07998 0.33589-0.17594 0.79442-0.09597 0.45319-0.12796 0.70911-0.04265 0.37855-0.07464 1.077-0.02666 0.69845-0.03732 0.90105-0.0053 0.06931-0.03732 0.10663-0.02666 0.03732-0.05332 0.04265-0.02666 0.0053-0.06931 0.0053-0.1013 0-0.1013-0.86373v-0.61314q0-0.4052 0.016-0.79975 0.0053-0.5385 0.016-1.2423 0-0.14929 0.02133-0.4052 0.02133-0.25592 0.02133-0.38388 0-0.15462-0.02133-0.29857 0-0.01599-0.07998-0.01066-0.03199-0.0053-0.03199-0.01599 0.11196-0.44786 0.16528-0.54383 0.05865-0.10663 0.1013-0.10663 0.03199 0 0.06398 0.06398zm-1.0663 0q0.04799 0.12263 0.15995 0.43186 0.1173 0.30924 0.15995 0.39987 0.02133 0.04265 0.05865 0.11196 0.03732 0.06398 0.05332 0.1013 0.02133 0.03732 0.03732 0.09064 0.016 0.05332 0.016 0.1013 0 0.0053-0.07998 0.34656-0.07998 0.33589-0.17594 0.79442-0.09597 0.45319-0.12796 0.70911-0.04265 0.37855-0.07464 1.077-0.02666 0.69845-0.03732 0.90105-0.0053 0.06931-0.03732 0.10663-0.02666 0.03732-0.05332 0.04265-0.02666 0.0053-0.06931 0.0053-0.1013 0-0.1013-0.86373v-0.61314q0-0.4052 0.016-0.79975 0.0053-0.5385 0.016-1.2423 0-0.14929 0.02133-0.4052 0.02133-0.25592 0.02133-0.38388 0-0.15462-0.02133-0.29857 0-0.01599-0.07998-0.01066-0.03199-0.0053-0.03199-0.01599 0.11196-0.44786 0.16528-0.54383 0.05865-0.10663 0.1013-0.10663 0.03199 0 0.06398 0.06398zm-1.0663 0q0.04799 0.12263 0.15995 0.43186 0.1173 0.30924 0.15995 0.39987 0.02133 0.04265 0.05865 0.11196 0.03732 0.06398 0.05332 0.1013 0.02133 0.03732 0.03732 0.09064t0.01599 0.1013q0 0.0053-0.07997 0.34656-0.07997 0.33589-0.17594 0.79442-0.09597 0.45319-0.12796 0.70911-0.04265 0.37855-0.07464 1.077-0.02666 0.69845-0.03732 0.90105-0.0053 0.06931-0.03732 0.10663-0.02666 0.03732-0.05332 0.04265-0.02666 0.0053-0.06931 0.0053-0.1013 0-0.1013-0.86373v-0.61314q0-0.4052 0.016-0.79975 0.0053-0.5385 0.016-1.2423 0-0.14929 0.02133-0.4052 0.02133-0.25592 0.02133-0.38388 0-0.15462-0.02133-0.29857 0-0.01599-0.07998-0.01066-0.03199-0.0053-0.03199-0.01599 0.11196-0.44786 0.16528-0.54383 0.05865-0.10663 0.1013-0.10663 0.03199 0 0.06398 0.06398z"/>
  <path d="m23.166 46.802q-0.06398-0.04799-0.02133-0.1173 0.05865-0.05865 0.12796-0.03199 1.0823 0.38388 1.2796 0.68245 0.15462 0.22926 0.15462 0.39454 0 0.1173-0.15462 0.26658-0.15462 0.14395-0.25059 0.14395t-0.2186-0.06931-0.18128-0.19194q-0.02666-0.05332-0.09597-0.2026-0.06398-0.14929-0.11196-0.22926-0.04265-0.08531-0.12263-0.21327t-0.18128-0.22926q-0.09597-0.10663-0.22393-0.2026z"/>
  <path d="m26.594 46.765q0.04799 0.12263 0.15995 0.43186 0.1173 0.30924 0.15995 0.39987 0.02133 0.04265 0.05865 0.11196 0.03732 0.06398 0.05332 0.1013 0.02133 0.03732 0.03732 0.09064 0.016 0.05332 0.016 0.1013 0 0.0053-0.07998 0.34656-0.07997 0.33589-0.17594 0.79442-0.09597 0.45319-0.12796 0.70911-0.04265 0.37855-0.07464 1.077-0.02666 0.69845-0.03732 0.90105-0.0053 0.06931-0.03732 0.10663-0.02666 0.03732-0.05332 0.04265-0.02666 0.0053-0.06931 0.0053-0.1013 0-0.1013-0.86373v-0.61314q0-0.4052 0.016-0.79975 0.0053-0.5385 0.01599-1.2423 0-0.14929 0.02133-0.4052 0.02133-0.25592 0.02133-0.38388 0-0.15462-0.02133-0.29857 0-0.01599-0.07998-0.01066-0.03199-0.0053-0.03199-0.01599 0.11196-0.44786 0.16528-0.54383 0.05865-0.10663 0.1013-0.10663 0.03199 0 0.06398 0.06398zm-1.0663 0q0.04799 0.12263 0.15995 0.43186 0.1173 0.30924 0.15995 0.39987 0.02133 0.04265 0.05865 0.11196 0.03732 0.06398 0.05332 0.1013 0.02133 0.03732 0.03732 0.09064 0.016 0.05332 0.016 0.1013 0 0.0053-0.07997 0.34656-0.07998 0.33589-0.17594 0.79442-0.09597 0.45319-0.12796 0.70911-0.04265 0.37855-0.07464 1.077-0.02666 0.69845-0.03732 0.90105-0.0053 0.06931-0.03732 0.10663-0.02666 0.03732-0.05332 0.04265-0.02666 0.0053-0.06931 0.0053-0.1013 0-0.1013-0.86373v-0.61314q0-0.4052 0.01599-0.79975 0.0053-0.5385 0.016-1.2423 0-0.14929 0.02133-0.4052 0.02133-0.25592 0.02133-0.38388 0-0.15462-0.02133-0.29857 0-0.01599-0.07998-0.01066-0.03199-0.0053-0.03199-0.01599 0.11196-0.44786 0.16528-0.54383 0.05865-0.10663 0.1013-0.10663 0.03199 0 0.06398 0.06398z"/>
  <path d="m27.644 46.802q-0.06398-0.04799-0.02133-0.1173 0.05865-0.05865 0.12796-0.03199 1.0823 0.38388 1.2796 0.68245 0.15462 0.22926 0.15462 0.39454 0 0.1173-0.15462 0.26658-0.15462 0.14395-0.25059 0.14395t-0.2186-0.06931-0.18128-0.19194q-0.02666-0.05332-0.09597-0.2026-0.06398-0.14929-0.11196-0.22926-0.04265-0.08531-0.12263-0.21327-0.07997-0.12796-0.18128-0.22926-0.09597-0.10663-0.22393-0.2026z"/>
  <path d="m32.064 48.338q0.04799 0 0.04799 0.03732 0 0.02666-0.07464 0.11196-0.06931 0.08531-0.09064 0.16528-0.03732 0.15995-0.20794 0.28791-0.08531 0.05865-0.23992 0.10663-0.15462 0.04265-0.28258 0.04265-0.04798 0-0.16528-0.02133-0.11196-0.02133-0.16528-0.02133-0.38388-0.03199-0.38388-0.03199-0.19727 0-0.22926 0.08531-0.05332 0.13862-0.07464 0.26658-0.02133 0.12796-0.02666 0.27725-0.0053 0.14929-0.01066 0.20793-0.04265 0.37855-0.07464 1.077-0.02666 0.69845-0.03732 0.90105-0.0053 0.06931-0.03732 0.10663-0.02666 0.03732-0.05332 0.04265-0.02666 0.0053-0.06931 0.0053-0.1013 0-0.1013-0.86373v-0.61314q0-0.4052 0.016-0.79975 0.0053-0.5385 0.016-1.2423 0-0.14396 0.02133-0.39987t0.02133-0.38388q0-0.15995-0.02133-0.3039 0-0.01599-0.07997-0.01066-0.03199-0.0053-0.03199-0.01599 0.11196-0.44786 0.16528-0.54383 0.06398-0.10663 0.1013-0.10663 0.03199 0 0.06398 0.06398 0.04798 0.12263 0.15995 0.43186 0.1173 0.30924 0.15995 0.39987 0.02133 0.04265 0.05865 0.11196 0.03732 0.06398 0.05332 0.1013 0.02133 0.03732 0.03732 0.09064 0.016 0.05332 0.016 0.1013-0.1013 0.15462-0.1013 0.25059 0 0.03732 0.016 0.05332 0.02666 0.03199 0.12796 0.05332 0.1013 0.016 0.18661 0.016l0.08531 0.0053q0.44786 0.0053 0.60781 0.0053h0.2026q0.09064 0 0.22926-0.02133 0.14395-0.02666 0.16528-0.02666z"/>
 </g>
</svg>
