<?xml version="1.0" encoding="UTF-8"?>
<svg width="103.17" height="128" version="1.1" viewBox="0 0 27.297 33.867" xmlns="http://www.w3.org/2000/svg" xmlns:cc="http://creativecommons.org/ns#" xmlns:dc="http://purl.org/dc/elements/1.1/" xmlns:rdf="http://www.w3.org/1999/02/22-rdf-syntax-ns#">
 <title>Sermon 05 Initial</title>
 <metadata>
  <rdf:RDF>
   <cc:Work rdf:about="">
    <dc:format>image/svg+xml</dc:format>
    <dc:type rdf:resource="http://purl.org/dc/dcmitype/StillImage"/>
    <dc:title>Sermon 05 Initial</dc:title>
    <dc:date>2021-09-28</dc:date>
    <dc:creator>
     <cc:Agent>
      <dc:title>Indrele the Lesser</dc:title>
     </cc:Agent>
    </dc:creator>
    <cc:license rdf:resource="http://artlibre.org/licence/lal"/>
   </cc:Work>
   <cc:License rdf:about="http://artlibre.org/licence/lal">
    <cc:permits rdf:resource="http://creativecommons.org/ns#Reproduction"/>
    <cc:permits rdf:resource="http://creativecommons.org/ns#Distribution"/>
    <cc:permits rdf:resource="http://creativecommons.org/ns#DerivativeWorks"/>
    <cc:requires rdf:resource="http://creativecommons.org/ns#ShareAlike"/>
    <cc:requires rdf:resource="http://creativecommons.org/ns#Notice"/>
    <cc:requires rdf:resource="http://creativecommons.org/ns#Attribution"/>
   </cc:License>
  </rdf:RDF>
 </metadata>
 <path transform="matrix(.26459 0 0 .26459 -.00016534 0)" d="m13.713 6.9746c-1.4925 0-2.5745 0.63374-3.2461 1.9023-0.6716 1.2686-1.0078 2.4994-1.0078 3.6934v28.545c0 1.5671 0.22413 3.0954 0.67187 4.5879 0.44772 1.4924 1.0815 2.2383 1.9023 2.2383 0.29849 0 0.56129-0.073417 0.78516-0.22266 0.22386-0.14922 0.40935-0.37338 0.55859-0.67188 0.14925-0.37311 0.29802-0.70931 0.44727-1.0078 0.14924-0.2985 0.29997-0.70811 0.44922-1.2305 0.14924-0.52236 0.26132-0.97064 0.33594-1.3438 0.074625-0.37311 0.14803-0.8214 0.22266-1.3438 0.14925-0.597 0.26132-1.0433 0.33594-1.3418 2.0782-11.949 6.3481-19.733 12.803-23.363v-3.5156c0-0.33882 0.004539-0.59343 0.015625-0.76562l-2.1816 1.8574c-0.11109 0.094436-0.21418 0.14062-0.30859 0.14062-0.19442 0-0.33045-0.063659-0.4082-0.19141l-0.47461-0.66602 3.6328-3.1328h1.2324v5.5117c2.4454-1.0798 5.1741-1.6211 8.1875-1.6211h12.873c0.89546 0 1.792 0.22416 2.6875 0.67188 0.9701 0.44775 1.4551 0.896 1.4551 1.3438 0 0.14922-0.07537 0.29802-0.22461 0.44727-4.9249 4.1788-9.8502 9.701-14.775 16.566-4.8503 6.7909-9.3274 14.477-13.432 23.059-4.1044 8.5069-7.4257 17.985-9.9629 28.432s-3.8047 20.744-3.8047 30.893c0 2.9103 0.67046 4.3652 2.0137 4.3652 0.97007 0 1.7546-0.44634 2.3516-1.3418 0.59698-0.82085 0.93319-1.8295 1.0078-3.0234 1.4925-16.119 8.4311-35.52 20.818-58.205h25.521c3.3581 0 6.4921 1.8646 9.4023 5.5957 2.9103 3.6565 4.8502 8.3209 5.8203 13.992 0.14922 1.0447 0.52214 1.978 1.1191 2.7988 0.6716 0.74621 1.4174 1.1191 2.2383 1.1191 1.5671 0 2.3516-1.3062 2.3516-3.918 0-0.82085-0.036696-1.3812-0.11133-1.6797-1.0447-5.7458-1.8659-15.111-2.4629-28.096 0-0.6716-0.37293-1.23-1.1191-1.6777-0.6716-0.52236-1.4174-0.7832-2.2383-0.7832h-32.797c10.671-15.522 21.043-25.708 31.117-30.559 1.3432-0.52236 2.6494-1.2682 3.918-2.2383s1.9023-1.9401 1.9023-2.9102c0-1.9402-1.9399-2.9102-5.8203-2.9102-0.67157 0-3.3208 0.3729-7.9473 1.1191-4.6265 0.67157-8.9546 1.0078-12.984 1.0078h-28.879c-1.7909 0-4.5153-0.33624-8.1719-1.0078-3.6565-0.74624-5.5964-1.1191-5.8203-1.1191z" fill="#f00" stroke-width=".049235"/>
 <path transform="matrix(.26459 0 0 .26459 -.00016534 0)" d="m9.457 6.957v6.6777c1e-7 1.7084 0.77703 2.7167 2.3301 3.0273 0.93177 0.31062 3.959 0.93341 9.084 1.8652v90.85l-9.084 1.709c-1.553 0.3106-2.3301 1.3209-2.3301 3.0293v6.6777h38.437v-6.6777c0-1.6566-0.85414-2.6669-2.5625-3.0293-1.2424-0.25885-2.5632-0.51655-3.9609-0.77539-1.3978-0.25885-2.4852-0.44139-3.2617-0.54493-0.72476-0.15531-1.2685-0.28513-1.6309-0.38867v-37.582h43.254v-12.426h-43.254v-39.91h45.117c0.20709 2.2259 0.41403 4.3482 0.62109 6.3672 0.20707 1.9673 0.36131 3.4158 0.46484 4.3477 0.15531 0.93182 0.23438 1.4492 0.23438 1.5527 0.3106 1.8119 1.3717 2.7188 3.1836 2.7188h7.7656v-27.488h-84.408zm18.789 4.1855h1.2324v11.09c1.4219 0.10552 2.1503 0.16045 2.1836 0.16602 0.15551 0.033335 0.23242 0.13642 0.23242 0.30859v0.68359h-6.5488v-0.68359c0-0.17219 0.081106-0.27528 0.24219-0.30859l2.3828-0.16602v-8.332c0-0.33882 0.004539-0.59343 0.015625-0.76562l-2.1816 1.8574c-0.11109 0.094436-0.21418 0.14062-0.30859 0.14062-0.19442 0-0.33045-0.063659-0.4082-0.19141l-0.47461-0.66602 3.6328-3.1328z" stroke-width=".04834"/>
 <g transform="translate(-62.639,-65.469)" fill="none" stroke="#000" stroke-linejoin="round" stroke-width=".85375">
  <path d="m62.671 65.916h27.235"/>
  <path d="m89.51 65.469v33.867"/>
  <path d="m89.906 98.875h-27.235"/>
  <path d="m63.066 99.335v-33.867"/>
 </g>
 <g fill="#cc0" stroke-width=".01279">
  <path d="m2.831 26.787q0.04755 0.12151 0.1585 0.42794 0.11623 0.30642 0.1585 0.39624 0.02113 0.04227 0.05812 0.11095 0.03698 0.0634 0.05283 0.10038 0.02113 0.03698 0.03698 0.08981t0.01585 0.10038q0 0.0053-0.07925 0.34341-0.07925 0.33284-0.17434 0.78719-0.0951 0.44907-0.1268 0.70266-0.04227 0.3751-0.07397 1.0672-0.02642 0.6921-0.03698 0.89286-0.0053 0.06868-0.03698 0.10566-0.02642 0.03698-0.05283 0.04227-0.02642 0.0053-0.06868 0.0053-0.10038 0-0.10038-0.85587v-0.60756q0-0.40152 0.01585-0.79248 0.0053-0.5336 0.01585-1.231 0-0.14793 0.02113-0.40152t0.02113-0.38039q0-0.15321-0.02113-0.29586 0-0.01585-0.07925-0.01057-0.0317-0.0053-0.0317-0.01585 0.11095-0.44379 0.16378-0.53888 0.05812-0.10566 0.10038-0.10566 0.0317 0 0.0634 0.0634z"/>
  <path d="m3.872 26.824q-0.0634-0.04755-0.02113-0.11623 0.05811-0.05812 0.1268-0.0317 1.0725 0.38039 1.268 0.67625 0.15321 0.22718 0.15321 0.39096 0 0.11623-0.15321 0.26416-0.15321 0.14265-0.24831 0.14265t-0.21661-0.06868-0.17963-0.19019q-0.02642-0.05283-0.0951-0.20076-0.0634-0.14793-0.11095-0.22718-0.04227-0.08453-0.12151-0.21133-0.07925-0.1268-0.17963-0.22718-0.0951-0.10566-0.22189-0.20076z"/>
  <path d="m7.76 28.425q0.17434 0 0.25888 0.08453 0.08981 0.07925 0.08981 0.20604 0 0.1585-0.1268 0.29057-0.1268 0.1268-0.30642 0.1268-0.14793 0-0.23774-0.07925-0.08981-0.08453-0.08981-0.19548 0-0.15321 0.12151-0.29057 0.1268-0.14265 0.29058-0.14265zm1.6061-1.4265q0.07925 0 0.13208 0.11623t0.05283 0.18491q0 0.03698-0.08981 0.08453t-0.14265 0.05283q-0.25888 0.02113-0.25888 0.14793 0 0.01585 0.08981 0.18491t0.17963 0.39624q0.08981 0.22189 0.08981 0.38039 0 0.61285-0.36982 1.1834-0.36454 0.57058-0.85059 0.98795-0.10566 0.07925-0.23246 0.07925-0.03698 0-0.06868-0.02113t-0.0317-0.04227q0-0.04227 0.08981-0.10566 0.89286-0.79776 0.89286-1.6219 0-0.14793-0.04227-0.33284t-0.15321-0.40152q-0.11095-0.21661-0.26944-0.39096-0.15321-0.17963-0.4068-0.29586-0.25359-0.12151-0.56002-0.12151h-0.23244q-0.10566 0-0.10038 0.03698 0 0.02113 0.04227 0.02642 0.33284 0.04227 0.33284 0.12151 0 0.01585-0.03698 0.03698-0.03698 0.01585-0.0951 0.04227-0.05283 0.02642-0.07925 0.04227-0.39624 0.25359-0.56002 0.52832-0.1585 0.27472-0.1585 0.64455 0 0.02642 0 0.07396 0.0053 0.04755 0.0053 0.06868 0.02642 0.38039 0.22718 0.64455t0.64983 0.60756q0.05812 0.04755 0.05812 0.0634 0 0.04227-0.1268 0.04227-0.12151 0-0.18491-0.04227-0.68681-0.4068-0.99324-0.84002-0.30114-0.4385-0.30114-1.0249 0-0.25888 0.08453-0.42794 0.08981-0.17434 0.34869-0.46492 0.04755-0.08453 0.04755-0.08981 0-0.07396-0.25359-0.08981-0.12151-0.0053-0.18491-0.05283-0.0634-0.05283-0.0634-0.10566 0-0.08453 0.07396-0.20076 0.07925-0.11623 0.23246-0.11623z"/>
  <path d="m9.895 26.824q-0.0634-0.04755-0.02113-0.11623 0.05812-0.05812 0.1268-0.0317 1.0725 0.38039 1.268 0.67625 0.15321 0.22718 0.15321 0.39096 0 0.11623-0.15321 0.26416-0.15321 0.14265-0.24831 0.14265t-0.21661-0.06868-0.17963-0.19019q-0.02642-0.05283-0.0951-0.20076-0.0634-0.14793-0.11095-0.22718-0.04227-0.08453-0.12151-0.21133-0.07925-0.1268-0.17963-0.22718-0.0951-0.10566-0.22189-0.20076z"/>
  <path d="m13.783 28.425q0.17434 0 0.25888 0.08453 0.08981 0.07925 0.08981 0.20604 0 0.1585-0.1268 0.29057-0.1268 0.1268-0.30642 0.1268-0.14793 0-0.23774-0.07925-0.08981-0.08453-0.08981-0.19548 0-0.15321 0.12151-0.29057 0.1268-0.14265 0.29057-0.14265zm1.6061-1.4265q0.07925 0 0.13208 0.11623t0.05283 0.18491q0 0.03698-0.08981 0.08453t-0.14264 0.05283q-0.25888 0.02113-0.25888 0.14793 0 0.01585 0.08981 0.18491t0.17963 0.39624q0.08981 0.22189 0.08981 0.38039 0 0.61285-0.36982 1.1834-0.36454 0.57058-0.85059 0.98795-0.10566 0.07925-0.23246 0.07925-0.03698 0-0.06868-0.02113t-0.0317-0.04227q0-0.04227 0.08981-0.10566 0.89286-0.79776 0.89286-1.6219 0-0.14793-0.04227-0.33284t-0.15321-0.40152q-0.11095-0.21661-0.26944-0.39096-0.15321-0.17963-0.4068-0.29586-0.25359-0.12151-0.56002-0.12151h-0.23246q-0.10566 0-0.10038 0.03698 0 0.02113 0.04227 0.02642 0.33284 0.04227 0.33284 0.12151 0 0.01585-0.03698 0.03698-0.03698 0.01585-0.0951 0.04227-0.05283 0.02642-0.07925 0.04227-0.39624 0.25359-0.56002 0.52832-0.1585 0.27472-0.1585 0.64455 0 0.02642 0 0.07396 0.0053 0.04755 0.0053 0.06868 0.02642 0.38039 0.22718 0.64455t0.64983 0.60756q0.05812 0.04755 0.05812 0.0634 0 0.04227-0.1268 0.04227-0.12151 0-0.18491-0.04227-0.68681-0.4068-0.99324-0.84002-0.30114-0.4385-0.30114-1.0249 0-0.25888 0.08453-0.42794 0.08981-0.17434 0.34869-0.46492 0.04755-0.08453 0.04755-0.08981 0-0.07396-0.25359-0.08981-0.12151-0.0053-0.18491-0.05283-0.0634-0.05283-0.0634-0.10566 0-0.08453 0.07397-0.20076 0.07925-0.11623 0.23246-0.11623z"/>
 </g>
</svg>
