<?xml version="1.0" encoding="UTF-8"?>
<svg width="111.54" height="128" version="1.1" viewBox="0 0 29.511 33.867" xmlns="http://www.w3.org/2000/svg" xmlns:cc="http://creativecommons.org/ns#" xmlns:dc="http://purl.org/dc/elements/1.1/" xmlns:rdf="http://www.w3.org/1999/02/22-rdf-syntax-ns#">
 <title>Sermon 03 Initial</title>
 <defs>
  <clipPath id="clip_path_1">
   <path d="m0 0h15849v23495h-15849z"/>
  </clipPath>
 </defs>
 <metadata>
  <rdf:RDF>
   <cc:Work rdf:about="">
    <dc:format>image/svg+xml</dc:format>
    <dc:type rdf:resource="http://purl.org/dc/dcmitype/StillImage"/>
    <dc:title>Sermon 03 Initial</dc:title>
    <dc:date>2021-09-28</dc:date>
    <dc:creator>
     <cc:Agent>
      <dc:title>Indrele the Lesser</dc:title>
     </cc:Agent>
    </dc:creator>
    <cc:license rdf:resource="http://artlibre.org/licence/lal"/>
   </cc:Work>
   <cc:License rdf:about="http://artlibre.org/licence/lal">
    <cc:permits rdf:resource="http://creativecommons.org/ns#Reproduction"/>
    <cc:permits rdf:resource="http://creativecommons.org/ns#Distribution"/>
    <cc:permits rdf:resource="http://creativecommons.org/ns#DerivativeWorks"/>
    <cc:requires rdf:resource="http://creativecommons.org/ns#ShareAlike"/>
    <cc:requires rdf:resource="http://creativecommons.org/ns#Notice"/>
    <cc:requires rdf:resource="http://creativecommons.org/ns#Attribution"/>
   </cc:License>
  </rdf:RDF>
 </metadata>
 <g transform="matrix(.013076 0 0 .013076 -17.323 -124.01)" clip-path="url(#clip_path_1)">
  <g class="TextShape" aria-label="B">
   <path d="m2053.5 9784.8q-102.3-6.8203-102.3-63.656 0-56.836 145.5-56.836h938.93q63.656 0 163.69-20.461 100.03-22.734 125.04-22.734 65.93 0 65.93 79.57 0 284.18-38.648 436.5-36.375 152.32-175.05 247.8-65.93 50.016-118.22 50.016-45.469 0-45.469-45.469 0-9.093 27.281-29.554 27.281-22.735 59.109-47.743 31.828-27.281 59.109-70.476 27.281-45.469 27.281-93.211 0-163.69-63.656-263.72t-206.88-100.03h-409.22q-111.4 0-111.4 95.484 0 154.59 36.375 195.52 27.281 31.828 109.12 125.04 81.844 90.938 111.4 127.31 29.555 34.101 86.391 111.4 56.836 77.297 79.57 129.59 22.734 50.016 43.195 122.77 20.461 72.75 20.461 143.23 0 452.41-768.42 966.21-22.734 15.914-52.289 72.75-29.555 59.109-70.477 59.109-38.648 0-38.648-75.023v-1307.2q0-36.375 13.641-68.203 13.641-34.101 34.102-34.101 34.102 0 50.016 109.12 6.8203 61.383 15.914 175.05 11.367 113.67 18.188 190.97 9.0938 77.297 20.461 179.6 13.641 102.3 25.008 170.51 13.641 68.203 29.555 131.86 18.188 63.656 38.648 95.484 22.734 31.828 47.742 31.828 115.95 0 211.43-184.15 95.484-186.42 95.484-363.75 0-181.88-202.34-336.47-36.375-27.281-59.109-97.758-22.734-70.476-22.734-147.77v-436.5q0-161.41-213.7-181.88z" fill="#f00"/>
  </g>
 </g>
 <path transform="matrix(.26459 0 0 .26459 -.00045786 0)" d="m10.391 6.7891v6.9961c0 1.6065 0.77738 2.564 2.332 2.875 0.93278 0.31093 3.9654 0.93441 9.0957 1.8672v90.715l-9.0957 1.9434c-1.5547 0.31092-2.332 1.2685-2.332 2.875v6.9961h51.691c12.593 0 22.466-3.0326 29.617-9.0957 6.9961-5.7524 10.494-13.55 10.494-23.396 0-14.095-8.3708-22.803-25.109-26.119 7.1513-2.28 12.567-5.7257 16.246-10.338 1.5029-1.8656 2.7741-4.2502 3.8105-7.1523 0.82914-2.2803 1.2422-5.4666 1.2422-9.5605 1e-6 -3.8347-0.75108-7.592-2.2539-11.271-4.9746-11.556-17.593-17.334-37.855-17.334h-47.883zm18.84 3.3379h1.2207v10.979c1.4076 0.10457 2.1271 0.15877 2.1602 0.16406 0.15395 0.033008 0.23047 0.13436 0.23047 0.30469v0.67578h-6.4824v-0.67578c0-0.17058 0.08079-0.27193 0.24023-0.30469l2.3594-0.16406v-8.248c0-0.33539 0.004539-0.58931 0.015625-0.75977l-2.1602 1.8398c-0.10996 0.093479-0.21316 0.14062-0.30664 0.14062-0.19245 0-0.32537-0.062966-0.40234-0.18945l-0.4707-0.66016 3.5957-3.1016zm8.0566 9.0234h20.988c8.395 0 14.665 1.6053 18.811 4.8184 4.042 3.1093 6.0645 7.982 6.0645 14.615 0 2.3319-0.54457 5.0002-1.6328 8.0059-3.1612 7.6179-11.115 11.428-23.863 11.428h-20.367v-38.867zm0 49.98h24.643c8.6026 0 14.925 1.7107 18.967 5.1309 4.042 3.4204 6.0625 8.0846 6.0625 13.992 0 3.1094-0.44129 5.8808-1.3223 8.3164-3.2131 8.2398-11.116 12.359-23.709 12.359l0.15625-0.1543h-24.797v-39.645z" stroke-width=".047848"/>
 <g transform="translate(-91.078,-131.23)" fill="none" stroke="#000" stroke-linejoin="round" stroke-width=".89889">
  <path d="m91.084 131.68h29.499"/>
  <path d="m120.14 131.24v33.854"/>
  <path d="m120.58 164.65h-29.499"/>
  <path d="m91.527 165.09v-33.854"/>
 </g>
 <g class="TextShape" transform="translate(-91.078,-131.23)" fill="#cc0" stroke-width=".01266" aria-label="1'1'2">
  <path d="m94.152 158.14q0.04707 0.12029 0.1569 0.42362 0.11506 0.30333 0.1569 0.39224 0.02092 0.0418 0.05753 0.10982 0.03661 0.0628 0.0523 0.0994 0.02092 0.0366 0.03661 0.0889t0.01569 0.0994q0 5e-3 -0.07845 0.33995-0.07845 0.32948-0.17258 0.77924-0.09414 0.44454-0.12552 0.69557-0.04184 0.37132-0.07322 1.0564-0.02615 0.68512-0.03661 0.88385-0.0052 0.068-0.03661 0.1046-0.02615 0.0366-0.0523 0.0418-0.02615 5e-3 -0.06799 5e-3 -0.09937 0-0.09937-0.84724v-0.60143q0-0.39747 0.01569-0.78448 0.0052-0.52822 0.01569-1.2186 0-0.14643 0.02092-0.39747 0.02092-0.25103 0.02092-0.37655 0-0.15166-0.02092-0.29287 0-0.0157-0.07845-0.0105-0.03138-5e-3 -0.03138-0.0157 0.10983-0.43931 0.16213-0.53344 0.05753-0.1046 0.09937-0.1046 0.03138 0 0.06276 0.0628z"/>
  <path d="m95.182 158.17q-0.06276-0.0471-0.02092-0.11506 0.05753-0.0575 0.12552-0.0314 1.0617 0.37655 1.2552 0.66942 0.15167 0.22489 0.15167 0.38701 0 0.11506-0.15167 0.26149-0.15167 0.14121-0.2458 0.14121-0.09414 0-0.21442-0.068-0.12029-0.068-0.17782-0.18827-0.02615-0.0523-0.09414-0.19874-0.06276-0.14643-0.10983-0.22488-0.04184-0.0837-0.12029-0.20919-0.07845-0.12552-0.17782-0.22489-0.09414-0.10459-0.21965-0.19873z"/>
  <path d="m97.499 158.14q0.04707 0.12029 0.1569 0.42362 0.11506 0.30333 0.1569 0.39224 0.02092 0.0418 0.05753 0.10982 0.03661 0.0628 0.0523 0.0994 0.02092 0.0366 0.03661 0.0889t0.01569 0.0994q0 5e-3 -0.07845 0.33995-0.07845 0.32948-0.17258 0.77924-0.09414 0.44454-0.12552 0.69557-0.04184 0.37132-0.07322 1.0564-0.02615 0.68512-0.03661 0.88385-0.0052 0.068-0.03661 0.1046-0.02615 0.0366-0.0523 0.0418-0.02615 5e-3 -0.06799 5e-3 -0.09937 0-0.09937-0.84724v-0.60143q0-0.39747 0.01569-0.78448 0.0052-0.52822 0.01569-1.2186 0-0.14643 0.02092-0.39747 0.02092-0.25103 0.02092-0.37655 0-0.15166-0.02092-0.29287 0-0.0157-0.07845-0.0105-0.03138-5e-3 -0.03138-0.0157 0.10983-0.43931 0.16213-0.53344 0.05753-0.1046 0.09937-0.1046 0.03138 0 0.06276 0.0628z"/>
  <path d="m98.53 158.17q-0.06276-0.0471-0.02092-0.11506 0.05753-0.0575 0.12552-0.0314 1.0617 0.37655 1.2552 0.66942 0.15167 0.22489 0.15167 0.38701 0 0.11506-0.15167 0.26149-0.15166 0.14121-0.2458 0.14121t-0.21442-0.068q-0.12029-0.068-0.17782-0.18827-0.02615-0.0523-0.09414-0.19874-0.06276-0.14643-0.10983-0.22488-0.04184-0.0837-0.12029-0.20919-0.07845-0.12552-0.17782-0.22489-0.09414-0.10459-0.21965-0.19873z"/>
  <path d="m101.89 158.14q0.0471 0.12029 0.15689 0.42362 0.11506 0.30333 0.1569 0.39224 0.0209 0.0418 0.0575 0.10982 0.0366 0.0628 0.0523 0.0994 0.0209 0.0366 0.0366 0.0889t0.0157 0.0994q0 5e-3 -0.0784 0.33995-0.0784 0.32948-0.17259 0.77924-0.0941 0.44454-0.12551 0.69557-0.0418 0.37132-0.0732 1.0564-0.0262 0.68512-0.0366 0.88385-5e-3 0.068-0.0366 0.1046-0.0262 0.0366-0.0523 0.0418-0.0262 5e-3 -0.068 5e-3 -0.0994 0-0.0994-0.84724v-0.60143q0-0.39747 0.0157-0.78448 5e-3 -0.52822 0.0157-1.2186 0-0.14643 0.0209-0.39747 0.0209-0.25103 0.0209-0.37655 0-0.15166-0.0209-0.29287 0-0.0157-0.0784-0.0105-0.0314-5e-3 -0.0314-0.0157 0.10982-0.43931 0.16212-0.53344 0.0575-0.1046 0.0994-0.1046 0.0314 0 0.0628 0.0628zm-1.046 0q0.0471 0.12029 0.15689 0.42362 0.11506 0.30333 0.1569 0.39224 0.0209 0.0418 0.0575 0.10982 0.0366 0.0628 0.0523 0.0994 0.0209 0.0366 0.0366 0.0889t0.0157 0.0994q0 5e-3 -0.0784 0.33995-0.0784 0.32948-0.17259 0.77924-0.0941 0.44454-0.12552 0.69557-0.0418 0.37132-0.0732 1.0564-0.0262 0.68512-0.0366 0.88385-5e-3 0.068-0.0366 0.1046-0.0261 0.0366-0.0523 0.0418-0.0262 5e-3 -0.068 5e-3 -0.0994 0-0.0994-0.84724v-0.60143q0-0.39747 0.0157-0.78448 5e-3 -0.52822 0.0157-1.2186 0-0.14643 0.0209-0.39747 0.0209-0.25103 0.0209-0.37655 0-0.15166-0.0209-0.29287 0-0.0157-0.0784-0.0105-0.0314-5e-3 -0.0314-0.0157 0.10982-0.43931 0.16212-0.53344 0.0575-0.1046 0.0994-0.1046 0.0314 0 0.0628 0.0628z"/>
 </g>
</svg>
