<?xml version="1.0" encoding="UTF-8"?>
<svg width="162.56" height="128" version="1.1" viewBox="0 0 43.011 33.867" xmlns="http://www.w3.org/2000/svg" xmlns:cc="http://creativecommons.org/ns#" xmlns:dc="http://purl.org/dc/elements/1.1/" xmlns:rdf="http://www.w3.org/1999/02/22-rdf-syntax-ns#">
 <title>Sermon 31 Initial</title>
 <defs>
  <clipPath id="clip_path_1">
   <path d="m0 0h15849v23495h-15849z"/>
  </clipPath>
 </defs>
 <metadata>
  <rdf:RDF>
   <cc:Work rdf:about="">
    <dc:format>image/svg+xml</dc:format>
    <dc:type rdf:resource="http://purl.org/dc/dcmitype/StillImage"/>
    <dc:title>Sermon 31 Initial</dc:title>
    <dc:date>2021-09-28</dc:date>
    <dc:creator>
     <cc:Agent>
      <dc:title>Indrele the Lesser</dc:title>
     </cc:Agent>
    </dc:creator>
    <cc:license rdf:resource="http://artlibre.org/licence/lal"/>
   </cc:Work>
   <cc:License rdf:about="http://artlibre.org/licence/lal">
    <cc:permits rdf:resource="http://creativecommons.org/ns#Reproduction"/>
    <cc:permits rdf:resource="http://creativecommons.org/ns#Distribution"/>
    <cc:permits rdf:resource="http://creativecommons.org/ns#DerivativeWorks"/>
    <cc:requires rdf:resource="http://creativecommons.org/ns#ShareAlike"/>
    <cc:requires rdf:resource="http://creativecommons.org/ns#Notice"/>
    <cc:requires rdf:resource="http://creativecommons.org/ns#Attribution"/>
   </cc:License>
  </rdf:RDF>
 </metadata>
 <g transform="matrix(.013274 0 0 .013274 -18.099 -39.768)" clip-path="url(#clip_path_1)">
  <g class="TextShape" aria-label="m">
   <path d="m2250.3 3995.6q0-211.43 18.188-368.3 20.461-156.87 38.648-231.89 20.461-75.024 20.461-84.117 0-27.281-15.914-40.922-13.641-15.914-31.828-18.188-18.188-2.2734-36.375-18.188-15.914-18.188-15.914-38.648 0-27.281 27.281-43.195 27.281-18.188 61.383-18.188h445.59q47.742 0 88.664 13.641 43.195 13.641 43.195 36.375 0 45.469-118.22 59.109-138.68 15.914-138.68 97.758 0 165.96 72.75 309.19 75.024 143.23 184.15 243.26 22.734 20.461 38.648 20.461 13.641 0 43.195-22.734 136.41-118.22 186.42-231.89 52.289-113.67 52.289-297.82 0-104.58-68.203-115.95-36.375-4.5469-68.203-25.008-29.555-20.461-29.555-45.469t34.102-31.828q34.102-9.0937 111.4-9.0937h438.77q118.22 0 118.22 50.016 0 22.734-22.734 43.195-20.461 18.188-40.922 22.734-34.102 2.2734-43.195 18.188-6.8203 13.641-6.8203 52.289v13.641q0 11.367 13.641 120.49 13.641 106.85 27.281 252.35t13.641 245.53q0 393.3-152.32 763.88-152.32 370.57-352.38 634.29-45.469 52.289-97.758 52.289-15.914 0-27.281-13.641-11.367-11.367-11.367-27.281 0-29.555 34.102-70.477 186.42-259.17 293.27-509.25t106.85-534.26q0-179.6-2.2734-281.91-2.2735-102.3-18.188-225.07-15.914-125.04-47.742-204.61-2.2735-11.367-11.367-13.641-6.8203-4.5469-15.914 2.2734-9.0937 4.5469-13.641 20.461-90.938 293.27-393.3 504.7-43.195 29.555-63.656 29.555-15.914 0-36.375-15.914-6.8203-6.8203-52.289-43.195-43.195-38.648-68.203-61.383-22.734-22.734-65.93-65.93-43.195-45.469-72.75-81.844-27.281-38.648-59.109-88.664-29.555-52.289-47.742-102.3-6.8203-15.914-25.008-18.188t-27.281 9.0937q-45.469 61.383-77.297 181.88-29.555 118.22-29.555 245.53 0 59.109 13.641 131.86 13.641 70.476 25.008 120.49 13.641 50.016 13.641 56.836 0 45.469-31.828 45.469-18.188 0-47.742-54.562-29.555-54.562-54.562-150.05-25.008-97.758-25.008-193.24z" fill="#f00"/>
  </g>
 </g>
 <path transform="matrix(.26459 0 0 .26459 -4.4677e-5 0)" d="m128.71 6.918c-1.4972 0-2.5563 0.15508-3.1758 0.46484-1.0325 0.51625-1.755 1.1877-2.168 2.0137l-38.41 69.928c-1.7037 3.5107-2.9179 6.3247-3.6406 8.4414-1.3423-3.6655-2.5545-6.4021-3.6387-8.209l-39.186-70.158c-0.46463-0.87765-1.136-1.549-2.0137-2.0137-0.61953-0.30977-1.6786-0.46484-3.1758-0.46484h-22.844v6.9688c0 1.6004 0.82452 2.5555 2.4766 2.8652 1.0326 0.3614 4.0017 0.98173 8.9062 1.8594v90.371l-8.9062 1.9355c-1.652 0.30977-2.4766 1.2648-2.4766 2.8652v6.9688l37.867-0.00196v-6.9688c0-1.6004-0.69592-2.5555-2.0898-2.8652-2.1165-0.46463-5.7042-1.1095-10.764-1.9356v-71.943c0-2.1275-0.14823-4.5269-0.41992-7.1523l39.451 70.885c1.2389 2.4264 3.1491 3.6387 5.7305 3.6387h2.168c2.3749 0 4.1809-1.2122 5.4199-3.6387l39.031-71.088c-0.20652 1.7038-0.31055 4.2077-0.31055 7.5117v71.787c-3.7173 0.61951-7.2537 1.2644-10.609 1.9356-1.6004 0.30977-2.4004 1.2648-2.4004 2.8652v6.9688h38.021v-6.9688c0-1.6004-0.82452-2.5555-2.4766-2.8652-1.2908-0.413-4.311-1.0579-9.0605-1.9356v-90.371l9.0605-1.8594c1.652-0.30977 2.4766-1.2648 2.4766-2.8652v-6.9688h-22.844zm-100.53 2.5352h1.2324v11.09c1.4219 0.10557 2.1503 0.16047 2.1836 0.16602 0.15551 0.03326 0.23242 0.13625 0.23242 0.30859v0.68359h-6.5488v-0.68359c0-0.17209 0.081105-0.27508 0.24219-0.30859l2.3828-0.16602v-8.332c0-0.33882 0.004538-0.59538 0.015625-0.76758l-2.1816 1.8594c-0.11109 0.094488-0.21418 0.14062-0.30859 0.14062-0.19442 0-0.33045-0.063659-0.4082-0.19141l-0.47461-0.66602 3.6328-3.1328z" stroke-width=".04834"/>
 <g transform="translate(-60.137,-112.33)" fill="none" stroke="#000" stroke-linejoin="round" stroke-width=".90806">
  <path d="m60.144 112.79h42.998"/>
  <path d="m102.69 112.34v33.854"/>
  <path d="m103.14 145.75h-42.998"/>
  <path d="m60.591 146.19v-33.854"/>
 </g>
 <g class="TextShape" transform="translate(-60.137,-112.33)" fill="#cc0" stroke-width=".01279" aria-label="4'7'3">
  <path d="m66.402 139.11q0.04755 0.12151 0.1585 0.42793 0.11623 0.30643 0.1585 0.39624 0.02113 0.0423 0.05812 0.11095 0.03698 0.0634 0.05283 0.10038 0.02113 0.037 0.03698 0.0898t0.01585 0.10038q0 5e-3 -0.07925 0.34341-0.07925 0.33284-0.17434 0.78719-0.0951 0.44907-0.1268 0.70266-0.04227 0.37511-0.07396 1.0672-0.02642 0.6921-0.03698 0.89286-0.0053 0.0687-0.03698 0.10566-0.02642 0.037-0.05283 0.0423-0.02642 5e-3 -0.06868 5e-3 -0.10038 0-0.10038-0.85587v-0.60757q0-0.40152 0.01585-0.79247 0.0053-0.5336 0.01585-1.231 0-0.14793 0.02113-0.40152 0.02113-0.2536 0.02113-0.38039 0-0.15321-0.02113-0.29586 0-0.0159-0.07925-0.0106-0.0317-5e-3 -0.0317-0.0159 0.11095-0.44378 0.16378-0.53888 0.05812-0.10566 0.10038-0.10566 0.0317 0 0.0634 0.0634zm-1.0566 0q0.04755 0.12151 0.1585 0.42793 0.11623 0.30643 0.1585 0.39624 0.02113 0.0423 0.05812 0.11095 0.03698 0.0634 0.05283 0.10038 0.02113 0.037 0.03698 0.0898t0.01585 0.10038q0 5e-3 -0.07925 0.34341-0.07925 0.33284-0.17434 0.78719-0.0951 0.44907-0.1268 0.70266-0.04227 0.37511-0.07396 1.0672-0.02642 0.6921-0.03698 0.89286-0.0053 0.0687-0.03698 0.10566-0.02642 0.037-0.05283 0.0423-0.02642 5e-3 -0.06868 5e-3 -0.10038 0-0.10038-0.85587v-0.60757q0-0.40152 0.01585-0.79247 0.0053-0.5336 0.01585-1.231 0-0.14793 0.02113-0.40152 0.02113-0.2536 0.02113-0.38039 0-0.15321-0.02113-0.29586 0-0.0159-0.07925-0.0106-0.0317-5e-3 -0.0317-0.0159 0.11095-0.44378 0.16378-0.53888 0.05812-0.10566 0.10038-0.10566 0.0317 0 0.0634 0.0634zm-1.0566 0q0.04755 0.12151 0.1585 0.42793 0.11623 0.30643 0.1585 0.39624 0.02113 0.0423 0.05812 0.11095 0.03698 0.0634 0.05283 0.10038 0.02113 0.037 0.03698 0.0898t0.01585 0.10038q0 5e-3 -0.07925 0.34341-0.07925 0.33284-0.17434 0.78719-0.0951 0.44907-0.1268 0.70266-0.04227 0.37511-0.07396 1.0672-0.02642 0.6921-0.03698 0.89286-0.0053 0.0687-0.03698 0.10566-0.02642 0.037-0.05283 0.0423-0.02642 5e-3 -0.06868 5e-3 -0.10038 0-0.10038-0.85587v-0.60757q0-0.40152 0.01585-0.79247 0.0053-0.5336 0.01585-1.231 0-0.14793 0.02113-0.40152 0.02113-0.2536 0.02113-0.38039 0-0.15321-0.02113-0.29586 0-0.0159-0.07925-0.0106-0.0317-5e-3 -0.0317-0.0159 0.11095-0.44378 0.16378-0.53888 0.05812-0.10566 0.10038-0.10566 0.0317 0 0.0634 0.0634zm-1.0566 0q0.04755 0.12151 0.1585 0.42793 0.11623 0.30643 0.1585 0.39624 0.02113 0.0423 0.05811 0.11095 0.03698 0.0634 0.05283 0.10038 0.02113 0.037 0.03698 0.0898t0.01585 0.10038q0 5e-3 -0.07925 0.34341-0.07925 0.33284-0.17434 0.78719-0.0951 0.44907-0.1268 0.70266-0.04227 0.37511-0.07396 1.0672-0.02642 0.6921-0.03698 0.89286-0.0053 0.0687-0.03698 0.10566-0.02642 0.037-0.05283 0.0423-0.02642 5e-3 -0.06868 5e-3 -0.10038 0-0.10038-0.85587v-0.60757q0-0.40152 0.01585-0.79247 0.0053-0.5336 0.01585-1.231 0-0.14793 0.02113-0.40152 0.02113-0.2536 0.02113-0.38039 0-0.15321-0.02113-0.29586 0-0.0159-0.07925-0.0106-0.0317-5e-3 -0.0317-0.0159 0.11095-0.44378 0.16378-0.53888 0.05812-0.10566 0.10038-0.10566 0.0317 0 0.0634 0.0634z"/>
  <path d="m67.39 139.15q-0.0634-0.0476-0.02113-0.11623 0.05812-0.0581 0.1268-0.0317 1.0725 0.38039 1.268 0.67625 0.15321 0.22717 0.15321 0.39095 0 0.11623-0.15321 0.26416-0.15321 0.14264-0.24831 0.14264t-0.21661-0.0687-0.17963-0.19019q-0.02642-0.0528-0.0951-0.20076-0.0634-0.14793-0.11095-0.22718-0.04227-0.0845-0.12151-0.21133-0.07925-0.12679-0.17963-0.22717-0.0951-0.10566-0.22189-0.20076z"/>
  <path d="m73.164 139.11q0.04755 0.12151 0.1585 0.42793 0.11623 0.30643 0.1585 0.39624 0.02113 0.0423 0.05812 0.11095 0.03698 0.0634 0.05283 0.10038 0.02113 0.037 0.03698 0.0898t0.01585 0.10038q0 5e-3 -0.07925 0.34341-0.07925 0.33284-0.17434 0.78719-0.0951 0.44907-0.1268 0.70266-0.04227 0.37511-0.07396 1.0672-0.02642 0.6921-0.03698 0.89286-0.0053 0.0687-0.03698 0.10566-0.02642 0.037-0.05283 0.0423-0.02642 5e-3 -0.06868 5e-3 -0.10038 0-0.10038-0.85587v-0.60757q0-0.40152 0.01585-0.79247 0.0053-0.5336 0.01585-1.231 0-0.14793 0.02113-0.40152 0.02113-0.2536 0.02113-0.38039 0-0.15321-0.02113-0.29586 0-0.0159-0.07925-0.0106-0.0317-5e-3 -0.0317-0.0159 0.11095-0.44378 0.16378-0.53888 0.05812-0.10566 0.10038-0.10566 0.0317 0 0.0634 0.0634zm-1.0566 0q0.04755 0.12151 0.1585 0.42793 0.11623 0.30643 0.1585 0.39624 0.02113 0.0423 0.05812 0.11095 0.03698 0.0634 0.05283 0.10038 0.02113 0.037 0.03698 0.0898t0.01585 0.10038q0 5e-3 -0.07925 0.34341-0.07925 0.33284-0.17434 0.78719-0.0951 0.44907-0.1268 0.70266-0.04226 0.37511-0.07396 1.0672-0.02642 0.6921-0.03698 0.89286-0.0053 0.0687-0.03698 0.10566-0.02642 0.037-0.05283 0.0423-0.02642 5e-3 -0.06868 5e-3 -0.10038 0-0.10038-0.85587v-0.60757q0-0.40152 0.01585-0.79247 0.0053-0.5336 0.01585-1.231 0-0.14793 0.02113-0.40152 0.02113-0.2536 0.02113-0.38039 0-0.15321-0.02113-0.29586 0-0.0159-0.07925-0.0106-0.0317-5e-3 -0.0317-0.0159 0.11095-0.44378 0.16378-0.53888 0.05812-0.10566 0.10038-0.10566 0.0317 0 0.0634 0.0634zm-0.39096 1.5585q0.04755 0 0.04755 0.037 0 0.0264-0.07396 0.11095-0.06868 0.0845-0.08981 0.16378-0.03698 0.15849-0.20604 0.28529-0.08453 0.0581-0.23774 0.10566-0.15321 0.0423-0.28001 0.0423-0.04755 0-0.16378-0.0211-0.11095-0.0211-0.16378-0.0211-0.38039-0.0317-0.38039-0.0317-0.19548 0-0.22718 0.0845-0.05283 0.13736-0.07397 0.26415-0.02113 0.1268-0.02642 0.27473-0.0053 0.14793-0.01057 0.20604-0.04227 0.37511-0.07397 1.0672-0.02642 0.6921-0.03698 0.89286-0.0053 0.0687-0.03698 0.10566-0.02642 0.037-0.05283 0.0423-0.02642 5e-3 -0.06868 5e-3 -0.10038 0-0.10038-0.85587v-0.60757q0-0.40152 0.01585-0.79247 0.0053-0.5336 0.01585-1.231 0-0.14265 0.02113-0.39624t0.02113-0.38039q0-0.15849-0.02113-0.30114 0-0.0159-0.07925-0.0106-0.0317-5e-3 -0.0317-0.0159 0.11095-0.44378 0.16378-0.53888 0.0634-0.10566 0.10038-0.10566 0.0317 0 0.0634 0.0634 0.04755 0.12151 0.1585 0.42793 0.11623 0.30643 0.1585 0.39624 0.02113 0.0423 0.05812 0.11095 0.03698 0.0634 0.05283 0.10038 0.02113 0.037 0.03698 0.0898t0.01585 0.10038q-0.10038 0.15321-0.10038 0.24831 0 0.037 0.01585 0.0528 0.02642 0.0317 0.1268 0.0528 0.10038 0.0159 0.18491 0.0159l0.08453 5e-3q0.44379 5e-3 0.60228 5e-3h0.20076q0.08981 0 0.22718-0.0211 0.14264-0.0264 0.16378-0.0264z"/>
  <path d="m74.258 139.15q-0.0634-0.0476-0.02113-0.11623 0.05812-0.0581 0.1268-0.0317 1.0725 0.38039 1.268 0.67625 0.15321 0.22717 0.15321 0.39095 0 0.11623-0.15321 0.26416-0.15321 0.14264-0.24831 0.14264t-0.21661-0.0687-0.17963-0.19019q-0.02642-0.0528-0.0951-0.20076-0.0634-0.14793-0.11095-0.22718-0.04227-0.0845-0.12151-0.21133-0.07925-0.12679-0.17963-0.22717-0.0951-0.10566-0.22189-0.20076z"/>
  <path d="m78.711 139.11q0.04755 0.12151 0.1585 0.42793 0.11623 0.30643 0.1585 0.39624 0.02113 0.0423 0.05812 0.11095 0.03698 0.0634 0.05283 0.10038 0.02113 0.037 0.03698 0.0898t0.01585 0.10038q0 5e-3 -0.07925 0.34341-0.07925 0.33284-0.17434 0.78719-0.0951 0.44907-0.1268 0.70266-0.04227 0.37511-0.07396 1.0672-0.02642 0.6921-0.03698 0.89286-0.0053 0.0687-0.03698 0.10566-0.02642 0.037-0.05283 0.0423-0.02642 5e-3 -0.06868 5e-3 -0.10038 0-0.10038-0.85587v-0.60757q0-0.40152 0.01585-0.79247 0.0053-0.5336 0.01585-1.231 0-0.14793 0.02113-0.40152 0.02113-0.2536 0.02113-0.38039 0-0.15321-0.02113-0.29586 0-0.0159-0.07925-0.0106-0.0317-5e-3 -0.0317-0.0159 0.11095-0.44378 0.16378-0.53888 0.05812-0.10566 0.10038-0.10566 0.0317 0 0.0634 0.0634zm-1.0566 0q0.04755 0.12151 0.1585 0.42793 0.11623 0.30643 0.1585 0.39624 0.02113 0.0423 0.05812 0.11095 0.03698 0.0634 0.05283 0.10038 0.02113 0.037 0.03698 0.0898t0.01585 0.10038q0 5e-3 -0.07925 0.34341-0.07925 0.33284-0.17434 0.78719-0.0951 0.44907-0.1268 0.70266-0.04227 0.37511-0.07397 1.0672-0.02642 0.6921-0.03698 0.89286-0.0053 0.0687-0.03698 0.10566-0.02642 0.037-0.05283 0.0423-0.02642 5e-3 -0.06868 5e-3 -0.10038 0-0.10038-0.85587v-0.60757q0-0.40152 0.01585-0.79247 0.0053-0.5336 0.01585-1.231 0-0.14793 0.02113-0.40152 0.02113-0.2536 0.02113-0.38039 0-0.15321-0.02113-0.29586 0-0.0159-0.07925-0.0106-0.0317-5e-3 -0.0317-0.0159 0.11095-0.44378 0.16378-0.53888 0.05812-0.10566 0.10038-0.10566 0.0317 0 0.0634 0.0634zm-1.0566 0q0.04755 0.12151 0.1585 0.42793 0.11623 0.30643 0.1585 0.39624 0.02113 0.0423 0.05812 0.11095 0.03698 0.0634 0.05283 0.10038 0.02113 0.037 0.03698 0.0898t0.01585 0.10038q0 5e-3 -0.07925 0.34341-0.07925 0.33284-0.17434 0.78719-0.0951 0.44907-0.1268 0.70266-0.04227 0.37511-0.07397 1.0672-0.02642 0.6921-0.03698 0.89286-0.0053 0.0687-0.03698 0.10566-0.02642 0.037-0.05283 0.0423-0.02642 5e-3 -0.06868 5e-3 -0.10038 0-0.10038-0.85587v-0.60757q0-0.40152 0.01585-0.79247 0.0053-0.5336 0.01585-1.231 0-0.14793 0.02113-0.40152 0.02113-0.2536 0.02113-0.38039 0-0.15321-0.02113-0.29586 0-0.0159-0.07925-0.0106-0.0317-5e-3 -0.0317-0.0159 0.11095-0.44378 0.16378-0.53888 0.05812-0.10566 0.10038-0.10566 0.0317 0 0.0634 0.0634z"/>
 </g>
</svg>
