<?xml version="1.0" encoding="UTF-8"?>
<svg width="111.21" height="128" version="1.1" viewBox="0 0 29.423 33.867" xmlns="http://www.w3.org/2000/svg" xmlns:cc="http://creativecommons.org/ns#" xmlns:dc="http://purl.org/dc/elements/1.1/" xmlns:rdf="http://www.w3.org/1999/02/22-rdf-syntax-ns#">
 <title>Sermon 15 Initial</title>
 <defs>
  <clipPath id="clip_path_1">
   <path d="m0 0h15849v23495h-15849z"/>
  </clipPath>
 </defs>
 <metadata>
  <rdf:RDF>
   <cc:Work rdf:about="">
    <dc:format>image/svg+xml</dc:format>
    <dc:type rdf:resource="http://purl.org/dc/dcmitype/StillImage"/>
    <dc:title>Sermon 15 Initial</dc:title>
    <dc:date>2021-09-28</dc:date>
    <dc:creator>
     <cc:Agent>
      <dc:title>Indrele the Lesser</dc:title>
     </cc:Agent>
    </dc:creator>
    <cc:license rdf:resource="http://artlibre.org/licence/lal"/>
   </cc:Work>
   <cc:License rdf:about="http://artlibre.org/licence/lal">
    <cc:permits rdf:resource="http://creativecommons.org/ns#Reproduction"/>
    <cc:permits rdf:resource="http://creativecommons.org/ns#Distribution"/>
    <cc:permits rdf:resource="http://creativecommons.org/ns#DerivativeWorks"/>
    <cc:requires rdf:resource="http://creativecommons.org/ns#ShareAlike"/>
    <cc:requires rdf:resource="http://creativecommons.org/ns#Notice"/>
    <cc:requires rdf:resource="http://creativecommons.org/ns#Attribution"/>
   </cc:License>
  </rdf:RDF>
 </metadata>
 <g transform="matrix(.012916 0 0 .012799 -16.263 -211.26)" clip-path="url(#clip_path_1)">
  <g class="TextShape" aria-label="T">
   <path d="m1882.3 17142h720.68q20.461 0 34.102-9.093 13.641-9.094 11.367-25.008-29.555-131.86-186.42-222.8-156.87-93.211-413.77-138.68-52.289-9.094-52.289-38.648 0-34.102 56.836-34.102 165.96 0 370.57 63.656 206.88 63.657 361.48 175.06 154.59 111.4 154.59 229.62 0 43.196-159.14 140.95-156.87 95.485-320.55 165.96-29.555 13.641-50.016-15.914-36.375-54.562-122.77-113.67-86.391-59.109-127.31-59.109-9.0937 0-11.367 4.547-2.2734 4.547 0 11.367 4.5469 6.82 11.367 15.914 113.67 104.58 193.24 254.62 79.57 147.77 79.57 297.82 0 450.14-90.938 836.62h31.828q38.648 0 75.023-6.82 36.375-4.547 61.383-11.367 25.008-4.547 59.109-25.008 34.102-18.187 47.742-25.008 15.914-6.82 52.289-38.648 36.375-29.555 45.469-38.649 11.367-9.093 54.562-50.015 45.469-43.195 56.836-54.563 47.742-47.742 70.477-47.742 31.828 0 31.828 38.649 0 25.007-109.12 161.41-109.12 138.68-265.99 275.09-156.87 138.68-256.9 138.68-90.938 0-188.7-127.31-97.758-125.04-152.32-259.17-52.289-134.13-52.289-188.7 0-75.024 36.375-75.024 18.188 0 31.828 15.914 15.914 15.914 18.188 38.649 13.641 90.937 84.117 163.69t172.78 100.03q0-536.53-47.742-741.14-77.297-354.66-318.28-654.75-6.8203-6.821-18.188-18.188t-18.188-18.187q-4.5469-6.821-11.367-15.914-6.8203-11.367-11.367-20.461-2.2734-11.367-2.2734-25.008 0-29.555 63.656-29.555z" fill="#f00"/>
  </g>
 </g>
 <path transform="matrix(.26459 0 0 .26459 -.00080093 0)" d="m8.9121 7.1992v24.961l7.5723-0.001953c1.8031 0 2.8589-0.51456 3.168-1.5449 0.41217-1.3911 0.90205-4.9209 1.4688-10.588h26.738v88.871c-1.4941 0.25761-3.1954 0.59177-5.1016 1.0039-1.9062 0.41217-3.1157 0.67041-3.6309 0.77344-1.8031 0.30911-2.7051 1.3648-2.7051 3.168v6.6465h38.332v-6.6465c0-1.5971-0.51651-2.5503-1.5469-2.8594-0.30916-0.10303-2.9617-0.61758-7.959-1.5449-0.82431-0.20608-1.4414-0.30859-1.8535-0.30859v-88.947h26.582c0.51517 5.2034 1.0317 8.68 1.5469 10.432 0.30911 1.0304 1.3136 1.5469 3.0137 1.5469h7.7285v-24.961h-93.354zm5.6602 3.6816h1.2441v11.199c1.436 0.10658 2.1714 0.16235 2.2051 0.16797 0.15708 0.033663 0.23633 0.13862 0.23633 0.3125v0.68945h-6.6152v-0.68945c0-0.17391 0.081471-0.27886 0.24414-0.3125l2.4062-0.16797v-8.4141c0-0.34217 0.006239-0.59953 0.017578-0.77344l-2.2051 1.875c-0.1122 0.095369-0.2152 0.14453-0.31055 0.14453-0.19633 0-0.33357-0.06628-0.41211-0.19531l-0.48047-0.67188 3.6699-3.1641z" stroke-width=".048816"/>
 <g transform="translate(-16.282,-20.108)" fill="none" stroke="#000" stroke-linejoin="round" stroke-width=".91706">
  <path d="m16.289 20.567h29.411"/>
  <path d="m45.247 20.115v33.854"/>
  <path d="m45.699 53.516h-29.411"/>
  <path d="m16.741 53.969v-33.854"/>
 </g>
 <g class="TextShape" transform="translate(-16.282,-20.108)" fill="#cc0" stroke-width=".01292" aria-label="1'1'0">
  <path d="m18.97 46.765q0.04804 0.12276 0.16012 0.43231 0.11742 0.30956 0.16012 0.40029 0.02135 0.0427 0.05871 0.11208 0.03736 0.06405 0.05337 0.10141 0.02135 0.03736 0.03736 0.09073t0.01601 0.10141q0 0.0053-0.08006 0.34692-0.08006 0.33624-0.17613 0.79524-0.09607 0.45366-0.12809 0.70984-0.0427 0.37894-0.07472 1.0781-0.02669 0.69917-0.03736 0.90198-0.0053 0.06938-0.03736 0.10674-0.02669 0.03736-0.05337 0.0427-0.02669 0.0053-0.06938 0.0053-0.10141 0-0.10141-0.86462v-0.61378q0-0.40562 0.01601-0.80058 0.0053-0.53905 0.01601-1.2436 0-0.14944 0.02135-0.40562t0.02135-0.38428q0-0.15478-0.02135-0.29888 0-0.01601-0.08006-0.01067-0.03202-0.0053-0.03202-0.01601 0.11208-0.44832 0.16545-0.54439 0.05871-0.10674 0.10141-0.10674 0.03202 0 0.06405 0.06405z"/>
  <path d="m20.021 46.802q-0.06405-0.04803-0.02135-0.11742 0.05871-0.05871 0.12809-0.03202 1.0834 0.38428 1.2809 0.68316 0.15478 0.2295 0.15478 0.39495 0 0.11742-0.15478 0.26686-0.15478 0.1441-0.25085 0.1441t-0.21882-0.06938q-0.12276-0.06938-0.18146-0.19214-0.02669-0.05337-0.09607-0.20281-0.06405-0.14944-0.11208-0.2295-0.0427-0.0854-0.12276-0.21349t-0.18146-0.2295q-0.09607-0.10674-0.22416-0.20281z"/>
  <path d="m22.386 46.765q0.04803 0.12276 0.16012 0.43231 0.11742 0.30956 0.16012 0.40029 0.02135 0.0427 0.05871 0.11208 0.03736 0.06405 0.05337 0.10141 0.02135 0.03736 0.03736 0.09073t0.01601 0.10141q0 0.0053-0.08006 0.34692-0.08006 0.33624-0.17613 0.79524-0.09607 0.45366-0.12809 0.70984-0.0427 0.37894-0.07472 1.0781-0.02669 0.69917-0.03736 0.90198-0.0053 0.06938-0.03736 0.10674-0.02669 0.03736-0.05337 0.0427-0.02669 0.0053-0.06938 0.0053-0.10141 0-0.10141-0.86462v-0.61378q0-0.40562 0.01601-0.80058 0.0053-0.53905 0.01601-1.2436 0-0.14944 0.02135-0.40562t0.02135-0.38428q0-0.15478-0.02135-0.29888 0-0.01601-0.08006-0.01067-0.03202-0.0053-0.03202-0.01601 0.11208-0.44832 0.16545-0.54439 0.05871-0.10674 0.10141-0.10674 0.03202 0 0.06405 0.06405z"/>
  <path d="m23.437 46.802q-0.06405-0.04803-0.02135-0.11742 0.05871-0.05871 0.12809-0.03202 1.0834 0.38428 1.2809 0.68316 0.15478 0.2295 0.15478 0.39495 0 0.11742-0.15478 0.26686-0.15478 0.1441-0.25085 0.1441t-0.21882-0.06938q-0.12276-0.06938-0.18146-0.19214-0.02669-0.05337-0.09607-0.20281-0.06405-0.14944-0.11208-0.2295-0.0427-0.0854-0.12275-0.21349-0.08006-0.12809-0.18146-0.2295-0.09607-0.10674-0.22416-0.20281z"/>
  <path d="m27.365 48.419q0.17613 0 0.26152 0.0854 0.09073 0.08006 0.09073 0.20815 0 0.16012-0.12809 0.29354-0.12809 0.12809-0.30956 0.12809-0.14944 0-0.24017-0.08006-0.09073-0.08539-0.09073-0.19748 0-0.15478 0.12276-0.29354 0.12809-0.1441 0.29354-0.1441zm1.6225-1.441q0.08006 0 0.13343 0.11742t0.05337 0.1868q0 0.03736-0.09073 0.08539t-0.1441 0.05337q-0.26152 0.02135-0.26152 0.14944 0 0.01601 0.09073 0.1868t0.18146 0.40029q0.09073 0.22416 0.09073 0.38428 0 0.61911-0.3736 1.1955-0.36826 0.57641-0.85928 0.99805-0.10674 0.08006-0.23484 0.08006-0.03736 0-0.06938-0.02135t-0.03202-0.0427q0-0.0427 0.09073-0.10674 0.90198-0.80591 0.90198-1.6385 0-0.14944-0.0427-0.33624t-0.15478-0.40562-0.2722-0.39495q-0.15478-0.18146-0.41096-0.29888-0.25618-0.12276-0.56574-0.12276h-0.23483q-0.10674 0-0.10141 0.03736 0 0.02135 0.0427 0.02669 0.33624 0.0427 0.33624 0.12276 0 0.01601-0.03736 0.03736-0.03736 0.01601-0.09607 0.0427-0.05337 0.02669-0.08006 0.0427-0.40029 0.25618-0.56574 0.53372-0.16012 0.27753-0.16012 0.65114 0 0.02669 0 0.07472 0.0053 0.04803 0.0053 0.06938 0.02669 0.38428 0.2295 0.65114t0.65647 0.61377q0.05871 0.04803 0.05871 0.06405 0 0.0427-0.12809 0.0427-0.12276 0-0.1868-0.0427-0.69383-0.41096-1.0034-0.84861-0.30422-0.44298-0.30422-1.0354 0-0.26152 0.0854-0.43231 0.09073-0.17613 0.35225-0.46967 0.04803-0.08539 0.04803-0.09073 0-0.07472-0.25618-0.09073-0.12275-0.0053-0.1868-0.05337-0.06405-0.05337-0.06405-0.10674 0-0.08539 0.07472-0.20281 0.08006-0.11742 0.23484-0.11742z"/>
 </g>
</svg>
