<?xml version="1.0" encoding="UTF-8"?>
<svg width="111.21" height="128" version="1.1" viewBox="0 0 29.423 33.867" xmlns="http://www.w3.org/2000/svg" xmlns:cc="http://creativecommons.org/ns#" xmlns:dc="http://purl.org/dc/elements/1.1/" xmlns:rdf="http://www.w3.org/1999/02/22-rdf-syntax-ns#">
 <title>Sermon 16 Initial</title>
 <defs>
  <clipPath id="clip_path_1">
   <path d="m0 0h15849v23495h-15849z"/>
  </clipPath>
 </defs>
 <metadata>
  <rdf:RDF>
   <cc:Work rdf:about="">
    <dc:format>image/svg+xml</dc:format>
    <dc:type rdf:resource="http://purl.org/dc/dcmitype/StillImage"/>
    <dc:title>Sermon 16 Initial</dc:title>
    <dc:date>2021-09-28</dc:date>
    <dc:creator>
     <cc:Agent>
      <dc:title>Indrele the Lesser</dc:title>
     </cc:Agent>
    </dc:creator>
    <cc:license rdf:resource="http://artlibre.org/licence/lal"/>
   </cc:Work>
   <cc:License rdf:about="http://artlibre.org/licence/lal">
    <cc:permits rdf:resource="http://creativecommons.org/ns#Reproduction"/>
    <cc:permits rdf:resource="http://creativecommons.org/ns#Distribution"/>
    <cc:permits rdf:resource="http://creativecommons.org/ns#DerivativeWorks"/>
    <cc:requires rdf:resource="http://creativecommons.org/ns#ShareAlike"/>
    <cc:requires rdf:resource="http://creativecommons.org/ns#Notice"/>
    <cc:requires rdf:resource="http://creativecommons.org/ns#Attribution"/>
   </cc:License>
  </rdf:RDF>
 </metadata>
 <g transform="matrix(.012916 0 0 .012799 -16.263 -211.26)" clip-path="url(#clip_path_1)">
  <g class="TextShape" aria-label="T">
   <path d="m1882.3 17142h720.68q20.461 0 34.102-9.093 13.641-9.094 11.367-25.008-29.555-131.86-186.42-222.8-156.87-93.211-413.77-138.68-52.289-9.094-52.289-38.648 0-34.102 56.836-34.102 165.96 0 370.57 63.656 206.88 63.657 361.48 175.06 154.59 111.4 154.59 229.62 0 43.196-159.14 140.95-156.87 95.485-320.55 165.96-29.555 13.641-50.016-15.914-36.375-54.562-122.77-113.67-86.391-59.109-127.31-59.109-9.0937 0-11.367 4.547-2.2734 4.547 0 11.367 4.5469 6.82 11.367 15.914 113.67 104.58 193.24 254.62 79.57 147.77 79.57 297.82 0 450.14-90.938 836.62h31.828q38.648 0 75.023-6.82 36.375-4.547 61.383-11.367 25.008-4.547 59.109-25.008 34.102-18.187 47.742-25.008 15.914-6.82 52.289-38.648 36.375-29.555 45.469-38.649 11.367-9.093 54.562-50.015 45.469-43.195 56.836-54.563 47.742-47.742 70.477-47.742 31.828 0 31.828 38.649 0 25.007-109.12 161.41-109.12 138.68-265.99 275.09-156.87 138.68-256.9 138.68-90.938 0-188.7-127.31-97.758-125.04-152.32-259.17-52.289-134.13-52.289-188.7 0-75.024 36.375-75.024 18.188 0 31.828 15.914 15.914 15.914 18.188 38.649 13.641 90.937 84.117 163.69t172.78 100.03q0-536.53-47.742-741.14-77.297-354.66-318.28-654.75-6.8203-6.821-18.188-18.188t-18.188-18.187q-4.5469-6.821-11.367-15.914-6.8203-11.367-11.367-20.461-2.2734-11.367-2.2734-25.008 0-29.555 63.656-29.555z" fill="#f00"/>
  </g>
 </g>
 <path transform="matrix(.26459 0 0 .26459 -.00080093 0)" d="m8.9121 7.1992v24.961l7.5723-0.001953c1.8031 0 2.8589-0.51456 3.168-1.5449 0.41217-1.3911 0.90205-4.9209 1.4688-10.588h26.738v88.871c-1.4941 0.25761-3.1954 0.59177-5.1016 1.0039-1.9062 0.41217-3.1157 0.67041-3.6309 0.77344-1.8031 0.30911-2.7051 1.3648-2.7051 3.168v6.6465h38.332v-6.6465c0-1.5971-0.51651-2.5503-1.5469-2.8594-0.30916-0.10303-2.9617-0.61758-7.959-1.5449-0.82431-0.20608-1.4414-0.30859-1.8535-0.30859v-88.947h26.582c0.51517 5.2034 1.0317 8.68 1.5469 10.432 0.30911 1.0304 1.3136 1.5469 3.0137 1.5469h7.7285v-24.961h-93.354zm5.6602 3.6816h1.2441v11.199c1.436 0.10658 2.1714 0.16235 2.2051 0.16797 0.15708 0.033663 0.23633 0.13862 0.23633 0.3125v0.68945h-6.6152v-0.68945c0-0.17391 0.081471-0.27886 0.24414-0.3125l2.4062-0.16797v-8.4141c0-0.34217 0.006239-0.59953 0.017578-0.77344l-2.2051 1.875c-0.1122 0.095369-0.2152 0.14453-0.31055 0.14453-0.19633 0-0.33357-0.06628-0.41211-0.19531l-0.48047-0.67188 3.6699-3.1641z" stroke-width=".048816"/>
 <g transform="translate(-16.282,-20.108)" fill="none" stroke="#000" stroke-linejoin="round" stroke-width=".91706">
  <path d="m16.289 20.567h29.411"/>
  <path d="m45.247 20.115v33.854"/>
  <path d="m45.699 53.516h-29.411"/>
  <path d="m16.741 53.969v-33.854"/>
 </g>
 <g class="TextShape" transform="translate(-16.282,-20.108)" fill="#cc0" stroke-width=".012914" aria-label="1'2">
  <path d="m18.97 46.765q0.04801 0.1227 0.16004 0.43211 0.11736 0.30941 0.16004 0.4001 0.02134 0.04268 0.05868 0.11203 0.03734 0.06402 0.05335 0.10136 0.02134 0.03734 0.03734 0.09069t0.016 0.10136q0 0.0053-0.08002 0.34676-0.08002 0.33608-0.17604 0.79487-0.09602 0.45345-0.12803 0.70951-0.04268 0.37876-0.07469 1.0776-0.02667 0.69884-0.03734 0.90156-0.0053 0.06935-0.03734 0.10669-0.02667 0.03734-0.05335 0.04268-0.02667 0.0053-0.06935 0.0053-0.10136 0-0.10136-0.86422v-0.61349q0-0.40544 0.016-0.8002 0.0053-0.5388 0.016-1.243 0-0.14937 0.02134-0.40544t0.02134-0.3841q0-0.15471-0.02134-0.29874 0-0.016-0.08002-0.01067-0.03201-0.0053-0.03201-0.016 0.11203-0.44811 0.16538-0.54414 0.05868-0.10669 0.10136-0.10669 0.03201 0 0.06402 0.06402z"/>
  <path d="m20.021 46.802q-0.06402-0.04801-0.02134-0.11736 0.05868-0.05868 0.12803-0.03201 1.0829 0.3841 1.2803 0.68284 0.15471 0.22939 0.15471 0.39477 0 0.11736-0.15471 0.26673-0.15471 0.14404-0.25073 0.14404-0.09603 0-0.21872-0.06935-0.1227-0.06935-0.18138-0.19205-0.02667-0.05335-0.09602-0.20272-0.06402-0.14937-0.11203-0.22939-0.04268-0.08535-0.1227-0.21339-0.08002-0.12803-0.18138-0.22939-0.09602-0.10669-0.22406-0.20272z"/>
  <path d="m23.451 46.765q0.04801 0.1227 0.16004 0.43211 0.11736 0.30941 0.16004 0.4001 0.02134 0.04268 0.05868 0.11203 0.03734 0.06402 0.05335 0.10136 0.02134 0.03734 0.03734 0.09069t0.016 0.10136q0 0.0053-0.08002 0.34676-0.08002 0.33608-0.17604 0.79487-0.09603 0.45345-0.12803 0.70951-0.04268 0.37876-0.07469 1.0776-0.02667 0.69884-0.03734 0.90156-0.0053 0.06935-0.03734 0.10669-0.02667 0.03734-0.05335 0.04268-0.02667 0.0053-0.06935 0.0053-0.10136 0-0.10136-0.86422v-0.61349q0-0.40544 0.016-0.8002 0.0053-0.5388 0.016-1.243 0-0.14937 0.02134-0.40544t0.02134-0.3841q0-0.15471-0.02134-0.29874 0-0.016-0.08002-0.01067-0.03201-0.0053-0.03201-0.016 0.11203-0.44811 0.16538-0.54414 0.05868-0.10669 0.10136-0.10669 0.03201 0 0.06402 0.06402zm-1.0669 0q0.04801 0.1227 0.16004 0.43211 0.11736 0.30941 0.16004 0.4001 0.02134 0.04268 0.05868 0.11203 0.03734 0.06402 0.05335 0.10136 0.02134 0.03734 0.03734 0.09069t0.016 0.10136q0 0.0053-0.08002 0.34676-0.08002 0.33608-0.17604 0.79487-0.09602 0.45345-0.12803 0.70951-0.04268 0.37876-0.07469 1.0776-0.02667 0.69884-0.03734 0.90156-0.0053 0.06935-0.03734 0.10669-0.02667 0.03734-0.05335 0.04268-0.02667 0.0053-0.06935 0.0053-0.10136 0-0.10136-0.86422v-0.61349q0-0.40544 0.016-0.8002 0.0053-0.5388 0.016-1.243 0-0.14937 0.02134-0.40544t0.02134-0.3841q0-0.15471-0.02134-0.29874 0-0.016-0.08002-0.01067-0.03201-0.0053-0.03201-0.016 0.11203-0.44811 0.16538-0.54414 0.05868-0.10669 0.10136-0.10669 0.03201 0 0.06402 0.06402z"/>
 </g>
</svg>
