<?xml version="1.0" encoding="UTF-8"?>
<svg width="111.21" height="128" version="1.1" viewBox="0 0 29.423 33.867" xmlns="http://www.w3.org/2000/svg" xmlns:cc="http://creativecommons.org/ns#" xmlns:dc="http://purl.org/dc/elements/1.1/" xmlns:rdf="http://www.w3.org/1999/02/22-rdf-syntax-ns#">
 <title>Sermon 22 Initial</title>
 <defs>
  <clipPath id="clip_path_1">
   <path d="m0 0h15849v23495h-15849z"/>
  </clipPath>
 </defs>
 <metadata>
  <rdf:RDF>
   <cc:Work rdf:about="">
    <dc:format>image/svg+xml</dc:format>
    <dc:type rdf:resource="http://purl.org/dc/dcmitype/StillImage"/>
    <dc:title>Sermon 22 Initial</dc:title>
    <dc:date>2021-09-28</dc:date>
    <dc:creator>
     <cc:Agent>
      <dc:title>Indrele the Lesser</dc:title>
     </cc:Agent>
    </dc:creator>
    <cc:license rdf:resource="http://artlibre.org/licence/lal"/>
   </cc:Work>
   <cc:License rdf:about="http://artlibre.org/licence/lal">
    <cc:permits rdf:resource="http://creativecommons.org/ns#Reproduction"/>
    <cc:permits rdf:resource="http://creativecommons.org/ns#Distribution"/>
    <cc:permits rdf:resource="http://creativecommons.org/ns#DerivativeWorks"/>
    <cc:requires rdf:resource="http://creativecommons.org/ns#ShareAlike"/>
    <cc:requires rdf:resource="http://creativecommons.org/ns#Notice"/>
    <cc:requires rdf:resource="http://creativecommons.org/ns#Attribution"/>
   </cc:License>
  </rdf:RDF>
 </metadata>
 <g transform="matrix(.012916 0 0 .012799 -16.263 -211.26)" clip-path="url(#clip_path_1)">
  <g class="TextShape" aria-label="T">
   <path d="m1882.3 17142h720.68q20.461 0 34.102-9.093 13.641-9.094 11.367-25.008-29.555-131.86-186.42-222.8-156.87-93.211-413.77-138.68-52.289-9.094-52.289-38.648 0-34.102 56.836-34.102 165.96 0 370.57 63.656 206.88 63.657 361.48 175.06 154.59 111.4 154.59 229.62 0 43.196-159.14 140.95-156.87 95.485-320.55 165.96-29.555 13.641-50.016-15.914-36.375-54.562-122.77-113.67-86.391-59.109-127.31-59.109-9.0937 0-11.367 4.547-2.2734 4.547 0 11.367 4.5469 6.82 11.367 15.914 113.67 104.58 193.24 254.62 79.57 147.77 79.57 297.82 0 450.14-90.938 836.62h31.828q38.648 0 75.023-6.82 36.375-4.547 61.383-11.367 25.008-4.547 59.109-25.008 34.102-18.187 47.742-25.008 15.914-6.82 52.289-38.648 36.375-29.555 45.469-38.649 11.367-9.093 54.562-50.015 45.469-43.195 56.836-54.563 47.742-47.742 70.477-47.742 31.828 0 31.828 38.649 0 25.007-109.12 161.41-109.12 138.68-265.99 275.09-156.87 138.68-256.9 138.68-90.938 0-188.7-127.31-97.758-125.04-152.32-259.17-52.289-134.13-52.289-188.7 0-75.024 36.375-75.024 18.188 0 31.828 15.914 15.914 15.914 18.188 38.649 13.641 90.937 84.117 163.69t172.78 100.03q0-536.53-47.742-741.14-77.297-354.66-318.28-654.75-6.8203-6.821-18.188-18.188t-18.188-18.187q-4.5469-6.821-11.367-15.914-6.8203-11.367-11.367-20.461-2.2734-11.367-2.2734-25.008 0-29.555 63.656-29.555z" fill="#f00"/>
  </g>
 </g>
 <path transform="matrix(.26459 0 0 .26459 -.00080093 0)" d="m8.9121 7.1992v24.961l7.5723-0.001953c1.8031 0 2.8589-0.51456 3.168-1.5449 0.41217-1.3911 0.90205-4.9209 1.4688-10.588h26.738v88.871c-1.4941 0.25761-3.1954 0.59177-5.1016 1.0039-1.9062 0.41217-3.1157 0.67041-3.6309 0.77344-1.8031 0.30911-2.7051 1.3648-2.7051 3.168v6.6465h38.332v-6.6465c0-1.5971-0.51651-2.5503-1.5469-2.8594-0.30916-0.10303-2.9617-0.61758-7.959-1.5449-0.82431-0.20608-1.4414-0.30859-1.8535-0.30859v-88.947h26.582c0.51517 5.2034 1.0317 8.68 1.5469 10.432 0.30911 1.0304 1.3136 1.5469 3.0137 1.5469h7.7285v-24.961h-93.354zm5.6602 3.6816h1.2441v11.199c1.436 0.10658 2.1714 0.16235 2.2051 0.16797 0.15708 0.033663 0.23633 0.13862 0.23633 0.3125v0.68945h-6.6152v-0.68945c0-0.17391 0.081471-0.27886 0.24414-0.3125l2.4062-0.16797v-8.4141c0-0.34217 0.006239-0.59953 0.017578-0.77344l-2.2051 1.875c-0.1122 0.095369-0.2152 0.14453-0.31055 0.14453-0.19633 0-0.33357-0.06628-0.41211-0.19531l-0.48047-0.67188 3.6699-3.1641z" stroke-width=".048816"/>
 <g transform="translate(-16.282,-20.108)" fill="none" stroke="#000" stroke-linejoin="round" stroke-width=".91706">
  <path d="m16.289 20.567h29.411"/>
  <path d="m45.247 20.115v33.854"/>
  <path d="m45.699 53.516h-29.411"/>
  <path d="m16.741 53.969v-33.854"/>
 </g>
 <g class="TextShape" transform="translate(-16.282,-20.108)" fill="#cc0" stroke-width=".012913" aria-label="4'5'3">
  <path d="m22.17 46.765q0.04801 0.12269 0.16003 0.43207 0.11735 0.30938 0.16002 0.40006 0.02134 0.04267 0.05868 0.11202 0.03734 0.06401 0.05334 0.10135 0.02134 0.03734 0.03734 0.09068t0.016 0.10135q0 0.0053-0.08001 0.34672-0.08001 0.33605-0.17603 0.79479-0.09601 0.4534-0.12802 0.70944-0.04267 0.37873-0.07468 1.0775-0.02667 0.69878-0.03734 0.90148-0.0053 0.06934-0.03734 0.10668-0.02667 0.03734-0.05334 0.04267-0.02667 0.0053-0.06934 0.0053-0.10135 0-0.10135-0.86414v-0.61343q0-0.4054 0.016-0.80012 0.0053-0.53875 0.016-1.2429 0-0.14936 0.02134-0.4054t0.02134-0.38406q0-0.15469-0.02134-0.29871 0-0.016-0.08001-0.01067-0.032-0.0053-0.032-0.016 0.11202-0.44807 0.16536-0.54409 0.05868-0.10668 0.10135-0.10668 0.03201 0 0.06401 0.06401zm-1.0668 0q0.04801 0.12269 0.16003 0.43207 0.11735 0.30938 0.16002 0.40006 0.02134 0.04267 0.05868 0.11202 0.03734 0.06401 0.05334 0.10135 0.02134 0.03734 0.03734 0.09068t0.016 0.10135q0 0.0053-0.08001 0.34672-0.08001 0.33605-0.17603 0.79479-0.09601 0.4534-0.12802 0.70944-0.04267 0.37873-0.07468 1.0775-0.02667 0.69878-0.03734 0.90148-0.0053 0.06934-0.03734 0.10668-0.02667 0.03734-0.05334 0.04267-0.02667 0.0053-0.06934 0.0053-0.10135 0-0.10135-0.86414v-0.61343q0-0.4054 0.016-0.80012 0.0053-0.53875 0.016-1.2429 0-0.14936 0.02134-0.4054t0.02134-0.38406q0-0.15469-0.02134-0.29871 0-0.016-0.08001-0.01067-0.032-0.0053-0.032-0.016 0.11202-0.44807 0.16536-0.54409 0.05868-0.10668 0.10135-0.10668 0.03201 0 0.06401 0.06401zm-1.0668 0q0.04801 0.12269 0.16002 0.43207 0.11735 0.30938 0.16003 0.40006 0.02134 0.04267 0.05868 0.11202 0.03734 0.06401 0.05334 0.10135 0.02134 0.03734 0.03734 0.09068t0.016 0.10135q0 0.0053-0.08001 0.34672-0.08001 0.33605-0.17603 0.79479-0.09601 0.4534-0.12802 0.70944-0.04267 0.37873-0.07468 1.0775-0.02667 0.69878-0.03734 0.90148-0.0053 0.06934-0.03734 0.10668-0.02667 0.03734-0.05334 0.04267-0.02667 0.0053-0.06934 0.0053-0.10135 0-0.10135-0.86414v-0.61343q0-0.4054 0.016-0.80012 0.0053-0.53875 0.016-1.2429 0-0.14936 0.02134-0.4054t0.02134-0.38406q0-0.15469-0.02134-0.29871 0-0.016-0.08001-0.01067-0.032-0.0053-0.032-0.016 0.11202-0.44807 0.16536-0.54409 0.05868-0.10668 0.10135-0.10668 0.03201 0 0.06401 0.06401zm-1.0668 0q0.04801 0.12269 0.16002 0.43207 0.11735 0.30938 0.16003 0.40006 0.02134 0.04267 0.05868 0.11202 0.03734 0.06401 0.05334 0.10135 0.02134 0.03734 0.03734 0.09068t0.016 0.10135q0 0.0053-0.08001 0.34672-0.08001 0.33605-0.17603 0.79479-0.09601 0.4534-0.12802 0.70944-0.04267 0.37873-0.07468 1.0775-0.02667 0.69878-0.03734 0.90148-0.0053 0.06934-0.03734 0.10668-0.02667 0.03734-0.05334 0.04267-0.02667 0.0053-0.06934 0.0053-0.10135 0-0.10135-0.86414v-0.61343q0-0.4054 0.016-0.80012 0.0053-0.53875 0.016-1.2429 0-0.14936 0.02134-0.4054t0.02134-0.38406q0-0.15469-0.02134-0.29871 0-0.016-0.08001-0.01067-0.032-0.0053-0.032-0.016 0.11202-0.44807 0.16536-0.54409 0.05868-0.10668 0.10135-0.10668 0.03201 0 0.06401 0.06401z"/>
  <path d="m23.168 46.802q-0.06401-0.04801-0.02134-0.11735 0.05868-0.05868 0.12802-0.032 1.0828 0.38406 1.2802 0.68277 0.15469 0.22937 0.15469 0.39473 0 0.11735-0.15469 0.26671-0.15469 0.14402-0.25071 0.14402t-0.2187-0.06934q-0.12269-0.06934-0.18136-0.19203-0.02667-0.05334-0.09602-0.2027-0.06401-0.14936-0.11202-0.22937-0.04267-0.08535-0.12269-0.21337-0.08001-0.12802-0.18136-0.22937-0.09602-0.10668-0.22404-0.2027z"/>
  <path d="m27.59 48.338q0.04801 0 0.04801 0.03734 0 0.02667-0.07468 0.11202-0.06934 0.08535-0.09068 0.16536-0.03734 0.16002-0.20803 0.28804-0.08535 0.05868-0.24004 0.10668-0.15469 0.04267-0.28271 0.04267-0.04801 0-0.16536-0.02134-0.11202-0.02134-0.16536-0.02134-0.38406-0.032-0.38406-0.032-0.19736 0-0.22937 0.08535-0.05334 0.13869-0.07468 0.26671t-0.02667 0.27738q-0.0053 0.14936-0.01067 0.20803-0.04267 0.37873-0.07468 1.0775-0.02667 0.69878-0.03734 0.90148-0.0053 0.06934-0.03734 0.10668-0.02667 0.03734-0.05334 0.04267-0.02667 0.0053-0.06934 0.0053-0.10135 0-0.10135-0.86414v-0.61343q0-0.4054 0.016-0.80012 0.0053-0.53875 0.016-1.2429 0-0.14402 0.02134-0.40006t0.02134-0.38406q0-0.16002-0.02134-0.30405 0-0.016-0.08001-0.01067-0.03201-0.0053-0.03201-0.016 0.11202-0.44807 0.16536-0.54409 0.06401-0.10668 0.10135-0.10668 0.032 0 0.06401 0.06401 0.04801 0.12269 0.16002 0.43207 0.11735 0.30938 0.16003 0.40006 0.02134 0.04267 0.05868 0.11202 0.03734 0.06401 0.05334 0.10135 0.02134 0.03734 0.03734 0.09068t0.016 0.10135q-0.10135 0.15469-0.10135 0.25071 0 0.03734 0.016 0.05334 0.02667 0.03201 0.12802 0.05334 0.10135 0.016 0.1867 0.016l0.08535 0.0053q0.44807 0.0053 0.6081 0.0053h0.2027q0.09068 0 0.22937-0.02134 0.14402-0.02667 0.16536-0.02667z"/>
  <path d="m28.182 46.802q-0.06401-0.04801-0.02134-0.11735 0.05868-0.05868 0.12802-0.032 1.0828 0.38406 1.2802 0.68277 0.15469 0.22937 0.15469 0.39473 0 0.11735-0.15469 0.26671-0.15469 0.14402-0.25071 0.14402-0.09601 0-0.2187-0.06934t-0.18136-0.19203q-0.02667-0.05334-0.09601-0.2027-0.06401-0.14936-0.11202-0.22937-0.04267-0.08535-0.12269-0.21337-0.08001-0.12802-0.18136-0.22937-0.09601-0.10668-0.22404-0.2027z"/>
  <path d="m32.679 46.765q0.04801 0.12269 0.16002 0.43207 0.11735 0.30938 0.16002 0.40006 0.02134 0.04267 0.05868 0.11202 0.03734 0.06401 0.05334 0.10135 0.02134 0.03734 0.03734 0.09068t0.016 0.10135q0 0.0053-0.08001 0.34672-0.08001 0.33605-0.17603 0.79479-0.09602 0.4534-0.12802 0.70944-0.04267 0.37873-0.07468 1.0775-0.02667 0.69878-0.03734 0.90148-0.0053 0.06934-0.03734 0.10668-0.02667 0.03734-0.05334 0.04267-0.02667 0.0053-0.06934 0.0053-0.10135 0-0.10135-0.86414v-0.61343q0-0.4054 0.016-0.80012 0.0053-0.53875 0.016-1.2429 0-0.14936 0.02134-0.4054t0.02134-0.38406q0-0.15469-0.02134-0.29871 0-0.016-0.08001-0.01067-0.032-0.0053-0.032-0.016 0.11202-0.44807 0.16536-0.54409 0.05868-0.10668 0.10135-0.10668 0.032 0 0.06401 0.06401zm-1.0668 0q0.04801 0.12269 0.16002 0.43207 0.11735 0.30938 0.16002 0.40006 0.02134 0.04267 0.05868 0.11202 0.03734 0.06401 0.05334 0.10135 0.02134 0.03734 0.03734 0.09068t0.016 0.10135q0 0.0053-0.08001 0.34672-0.08001 0.33605-0.17603 0.79479-0.09602 0.4534-0.12802 0.70944-0.04267 0.37873-0.07468 1.0775-0.02667 0.69878-0.03734 0.90148-0.0053 0.06934-0.03734 0.10668-0.02667 0.03734-0.05334 0.04267-0.02667 0.0053-0.06935 0.0053-0.10135 0-0.10135-0.86414v-0.61343q0-0.4054 0.016-0.80012 0.0053-0.53875 0.016-1.2429 0-0.14936 0.02134-0.4054t0.02134-0.38406q0-0.15469-0.02134-0.29871 0-0.016-0.08001-0.01067-0.032-0.0053-0.032-0.016 0.11202-0.44807 0.16536-0.54409 0.05868-0.10668 0.10135-0.10668 0.03201 0 0.06401 0.06401zm-1.0668 0q0.04801 0.12269 0.16002 0.43207 0.11735 0.30938 0.16002 0.40006 0.02134 0.04267 0.05868 0.11202 0.03734 0.06401 0.05334 0.10135 0.02134 0.03734 0.03734 0.09068t0.016 0.10135q0 0.0053-0.08001 0.34672-0.08001 0.33605-0.17603 0.79479-0.09602 0.4534-0.12802 0.70944-0.04267 0.37873-0.07468 1.0775-0.02667 0.69878-0.03734 0.90148-0.0053 0.06934-0.03734 0.10668-0.02667 0.03734-0.05334 0.04267-0.02667 0.0053-0.06935 0.0053-0.10135 0-0.10135-0.86414v-0.61343q0-0.4054 0.016-0.80012 0.0053-0.53875 0.016-1.2429 0-0.14936 0.02134-0.4054t0.02134-0.38406q0-0.15469-0.02134-0.29871 0-0.016-0.08001-0.01067-0.032-0.0053-0.032-0.016 0.11202-0.44807 0.16536-0.54409 0.05868-0.10668 0.10135-0.10668 0.03201 0 0.06401 0.06401z"/>
 </g>
</svg>
