<?xml version="1.0" encoding="UTF-8"?>
<svg width="5922" height="347.03" version="1.0" viewBox="0 0 5922 347.03" xmlns="http://www.w3.org/2000/svg" xmlns:cc="http://creativecommons.org/ns#" xmlns:dc="http://purl.org/dc/elements/1.1/" xmlns:rdf="http://www.w3.org/1999/02/22-rdf-syntax-ns#">
 <title>Velothi Pattern</title>
 <metadata>
  <rdf:RDF>
   <cc:Work rdf:about="">
    <dc:format>image/svg+xml</dc:format>
    <dc:type rdf:resource="http://purl.org/dc/dcmitype/StillImage"/>
    <cc:license rdf:resource=""/>
    <dc:title>Velothi Pattern</dc:title>
    <dc:creator>
     <cc:Agent>
      <dc:title>Lukkar</dc:title>
     </cc:Agent>
    </dc:creator>
    <dc:date>2015-06-10</dc:date>
   </cc:Work>
  </rdf:RDF>
 </metadata>
 <g transform="translate(1974 -1.0004)">
  <path transform="translate(-1974 .025756)" d="m1974 0.97461v0.025391h-1974v24h3948v-0.02539h1974v-24h-1974zm129.25 51.43c-1.2791 0.03516-3.0836 0.23281-5.7461 0.57031-15.3 1.9-24.4 8.5-33 24-2.4 4.3-4.6996 7.3988-5.5996 7.2988-0.8 0-7.2004-1.7988-14.4-3.7988-13.2-3.8-22.7-4.6-37.9-3.5-2.3673 0.1503-3.7296 0.32837-3.625 0.89062 0.098 0.92286 4.305 2.9088 14.828 7.6348 18.7 8.4 31.299 16.5 39.699 25.5 1.7 1.8 4.8004 4.4996 6.9004 6.0996s4.2992 2.9004 4.6992 2.9004c1.7 0 3.9004-4.7 3.9004-8.5 0-5.6 3.3992-17.401 7.1992-24.801 3.7-7.5 14.202-18.598 22.102-23.398 4.1364-2.5508 5.8944-4.4845 5.7695-6.5859-0.05-0.95458-0.4881-1.9443-1.2715-3.041-0.75-0.9375-1.4228-1.3281-3.5547-1.2695zm658 0c-1.2791 0.03516-3.0836 0.23281-5.7461 0.57031-15.3 1.9-24.4 8.5-33 24-2.4 4.3-4.6996 7.3988-5.5996 7.2988-0.8 0-7.2004-1.7988-14.4-3.7988-13.2-3.8-22.7-4.6-37.9-3.5-2.3673 0.1503-3.7296 0.32837-3.625 0.89062 0.098 0.92286 4.305 2.9088 14.828 7.6348 18.7 8.4 31.299 16.5 39.699 25.5 1.7 1.8 4.8004 4.4996 6.9004 6.0996s4.2992 2.9004 4.6992 2.9004c1.7 0 3.9004-4.7 3.9004-8.5 0-5.6 3.3992-17.401 7.1992-24.801 3.7-7.5 14.202-18.598 22.102-23.398 4.1364-2.5508 5.8944-4.4845 5.7695-6.5859-0.05-0.95458-0.4881-1.9443-1.2715-3.041-0.75-0.9375-1.4228-1.3281-3.5547-1.2695zm658 0c-1.2791 0.03516-3.0836 0.23281-5.7461 0.57031-15.3 1.9-24.4 8.5-33 24-2.4 4.3-4.6996 7.3988-5.5996 7.2988-0.8 0-7.2004-1.7988-14.4-3.7988-13.2-3.8-22.7-4.6-37.9-3.5-2.3673 0.1503-3.7296 0.32837-3.625 0.89062 0.098 0.92286 4.305 2.9088 14.828 7.6348 18.7 8.4 31.299 16.5 39.699 25.5 1.7 1.8 4.8004 4.4996 6.9004 6.0996s4.2992 2.9004 4.6992 2.9004c1.7 0 3.9004-4.7 3.9004-8.5 0-5.6 3.3992-17.401 7.1992-24.801 3.7-7.5 14.202-18.598 22.102-23.398 4.1364-2.5508 5.8944-4.4845 5.7695-6.5859-0.05-0.95458-0.4881-1.9443-1.2715-3.041-0.75-0.9375-1.4228-1.3281-3.5547-1.2695zm658 0c-1.2791 0.03516-3.0836 0.23281-5.7461 0.57031-15.3 1.9-24.4 8.5-33 24-2.4 4.3-4.6996 7.3988-5.5996 7.2988-0.8 0-7.2004-1.7988-14.4-3.7988-13.2-3.8-22.7-4.6-37.9-3.5-6.3 0.4-5.4989 1 11.201 8.5 18.7 8.4 31.299 16.5 39.699 25.5 1.7 1.8 4.8004 4.4996 6.9004 6.0996s4.2993 2.9004 4.6993 2.9004c1.7 0 3.9003-4.7 3.9003-8.5 0-5.6 3.4012-17.401 7.2012-24.801 3.7-7.5 14.2-18.6 22.1-23.4 6-3.7 7-6.0996 4.5-9.5996-0.75-0.9375-1.4228-1.3281-3.5547-1.2695zm658 0c-1.2791 0.03516-3.0836 0.23281-5.7461 0.57031-15.3 1.9-24.4 8.5-33 24-2.4 4.3-4.6996 7.3988-5.5996 7.2988-0.8 0-7.2004-1.7988-14.4-3.7988-13.2-3.8-22.7-4.6-37.9-3.5-6.3 0.4-5.4989 1 11.201 8.5 18.7 8.4 31.299 16.5 39.699 25.5 1.7 1.8 4.8004 4.4996 6.9004 6.0996s4.2993 2.9004 4.6993 2.9004c1.7 0 3.9003-4.7 3.9003-8.5 0-5.6 3.4012-17.401 7.2012-24.801 3.7-7.5 14.2-18.6 22.1-23.4 6-3.7 7-6.0996 4.5-9.5996-0.75-0.9375-1.4228-1.3281-3.5547-1.2695zm658 0c-1.2791 0.03516-3.0836 0.23281-5.7461 0.57031-15.3 1.9-24.4 8.5-33 24-2.4 4.3-4.6996 7.3988-5.5996 7.2988-0.8 0-7.2004-1.7988-14.4-3.7988-13.2-3.8-22.7-4.6-37.9-3.5-6.3 0.4-5.4989 1 11.201 8.5 18.7 8.4 31.299 16.5 39.699 25.5 1.7 1.8 4.8004 4.4996 6.9004 6.0996s4.2993 2.9004 4.6993 2.9004c1.7 0 3.9003-4.7 3.9003-8.5 0-5.6 3.4012-17.401 7.2012-24.801 3.7-7.5 14.2-18.6 22.1-23.4 6-3.7 7-6.0996 4.5-9.5996-0.75-0.9375-1.4228-1.3281-3.5547-1.2695zm-5264 0.025391c-1.2791 0.035156-3.0836 0.23281-5.7461 0.57031-15.3 1.9-24.4 8.5-33 24-2.4 4.3-4.6996 7.4008-5.5996 7.3008-0.8 0-7.2004-1.8008-14.4-3.8008-13.2-3.8-22.7-4.6-37.9-3.5-6.3 0.4-5.4988 1 11.201 8.5 18.7 8.4 31.299 16.5 39.699 25.5 1.7 1.8 4.8004 4.4996 6.9004 6.0996s4.2992 2.9004 4.6992 2.9004c1.7 0 3.9004-4.7 3.9004-8.5 0-5.6 3.3992-17.401 7.1992-24.801 3.7-7.5 14.202-18.598 22.102-23.398 6-3.7 7-6.1016 4.5-9.6016-0.75-0.9375-1.4228-1.3281-3.5547-1.2695zm658 0c-1.2791 0.035156-3.0836 0.23281-5.7461 0.57031-15.3 1.9-24.4 8.5-33 24-2.4 4.3-4.6996 7.4008-5.5996 7.3008-0.8 0-7.2004-1.8008-14.4-3.8008-13.2-3.8-22.7-4.6-37.9-3.5-6.3 0.4-5.4988 1 11.201 8.5 18.7 8.4 31.299 16.5 39.699 25.5 1.7 1.8 4.8004 4.4996 6.9004 6.0996s4.2992 2.9004 4.6992 2.9004c1.7 0 3.9004-4.7 3.9004-8.5 0-5.6 3.3992-17.401 7.1992-24.801 3.7-7.5 14.202-18.598 22.102-23.398 6-3.7 7-6.1016 4.5-9.6016-0.75-0.9375-1.4228-1.3281-3.5547-1.2695zm658 0c-1.2791 0.035156-3.0836 0.23281-5.7461 0.57031-15.3 1.9-24.4 8.5-33 24-2.4 4.3-4.6996 7.4008-5.5996 7.3008-0.8 0-7.2004-1.8008-14.4-3.8008-13.2-3.8-22.7-4.6-37.9-3.5-6.3 0.4-5.4988 1 11.201 8.5 18.7 8.4 31.299 16.5 39.699 25.5 1.7 1.8 4.8004 4.4996 6.9004 6.0996s4.2992 2.9004 4.6992 2.9004c1.7 0 3.9004-4.7 3.9004-8.5 0-5.6 3.3992-17.401 7.1992-24.801 3.7-7.5 14.202-18.598 22.102-23.398 6-3.7 7-6.1016 4.5-9.6016-0.75-0.9375-1.4229-1.3281-3.5547-1.2695zm867.68 0.68945c-1.7008 0.0098-3.5891 0.02969-5.7266 0.05469l-17.701 0.30078-0.2988 3.6992c-0.062 0.64445-0.078 1.1785-0.055 1.666 0 0.09877 0 0.21072 0.01 0.30469 0.1536 1.688 1.0118 2.6467 3.3477 4.4551l3.5996 2.7012 10.6-1.2012c11.7-1.3 9.7012-1.8004 43.701 9.0996 23.4 7.5 49.599 22.202 70.699 39.602 16.1 13.3 23.2 24.099 30.5 45.699 2.1213 6.3638 2.9187 8.8375 3.2188 14.119 0 1e-3 -1e-4 2e-3 0 4e-3 0.1791 3.18 0.1796 7.3782 0.1796 14.051 0 17-0.2 18.601-3 28.801-8.2 29-22.1 46.699-46.5 59.299-9.5 4.9-14.399 5.1004-24.299 0.90039l-8.2012-3.5-2 2.5c-1.273 1.6242-1.9088 2.9031-1.8085 4.248 0.1169 1.7263 1.4484 3.56 4.2109 6.3789 7.3 7.6 14.3 10.2 31.6 12 13 1.4 19.3 0.1 32.5-6.5 10.3-5.2 17.8-10.4 25.6-17.5 20.8-19.2 34.9-52.1 34.9-81.4 0-0.91547-0.016-1.8261-0.045-2.7344-0.028-0.89067-0.07-1.7774-0.127-2.6641-5e-4 -8e-3 0-0.0169 0-0.0254-0.057-0.88665-0.1298-1.7726-0.2168-2.6582-9e-4 -8e-3 0-0.017 0-0.0254-0.087-0.88567-0.1908-1.7706-0.3086-2.6582-1.4272-10.761-5.1205-21.774-11.801-35.66-4.9-10.1-6.2996-12.001-17.6-23.801-7.5-7.9-15.101-14.8-19.801-17.9-4.2-2.9-11-7.6988-15.1-10.799-9.7-7.4-16.6-11.6-22.1-13.5-2.4-0.9-9.8004-4.2-16.4-7.5-13.4-6.6-27.2-10.9-52.9-16.5-14.088-2.975-16.766-3.4238-28.672-3.3555zm658 0c-1.7008 0.0098-3.5891 0.02969-5.7266 0.05469l-17.701 0.30078-0.2988 3.6992c-0.062 0.64445-0.078 1.1785-0.055 1.666 0 0.09877 0 0.21072 0.01 0.30469 0.1536 1.688 1.0118 2.6467 3.3477 4.4551l3.5996 2.7012 10.6-1.2012c11.7-1.3 9.7012-1.8004 43.701 9.0996 23.4 7.5 49.599 22.202 70.699 39.602 16.1 13.3 23.2 24.099 30.5 45.699 2.1213 6.3638 2.9187 8.8375 3.2188 14.119 0 1e-3 -1e-4 2e-3 0 4e-3 0.1791 3.18 0.1796 7.3782 0.1796 14.051 0 17-0.2 18.601-3 28.801-8.2 29-22.1 46.699-46.5 59.299-9.5 4.9-14.399 5.1004-24.299 0.90039l-8.2012-3.5-2 2.5c-1.273 1.6242-1.9088 2.9031-1.8085 4.248 0.1169 1.7263 1.4484 3.56 4.2109 6.3789 7.3 7.6 14.3 10.2 31.6 12 13 1.4 19.3 0.1 32.5-6.5 10.3-5.2 17.8-10.4 25.6-17.5 20.8-19.2 34.9-52.1 34.9-81.4 0-0.91547-0.016-1.8261-0.045-2.7344-0.028-0.89067-0.07-1.7774-0.127-2.6641-5e-4 -8e-3 0-0.0169 0-0.0254-0.057-0.88665-0.1298-1.7726-0.2168-2.6582-9e-4 -8e-3 0-0.017 0-0.0254-0.087-0.88567-0.1908-1.7706-0.3086-2.6582-1.4272-10.761-5.1205-21.774-11.801-35.66-4.9-10.1-6.2996-12.001-17.6-23.801-7.5-7.9-15.101-14.8-19.801-17.9-4.2-2.9-11-7.6988-15.1-10.799-9.7-7.4-16.6-11.6-22.1-13.5-2.4-0.9-9.8004-4.2-16.4-7.5-13.4-6.6-27.2-10.9-52.9-16.5-14.088-2.975-16.766-3.4238-28.672-3.3555zm658 0c-1.7008 0.0098-3.5891 0.02969-5.7266 0.05469l-17.701 0.30078-0.2988 3.6992c-0.062 0.64445-0.078 1.1785-0.055 1.666 0 0.09877 0 0.21072 0.01 0.30469 0.1536 1.688 1.0118 2.6467 3.3477 4.4551l3.5996 2.7012 10.6-1.2012c11.7-1.3 9.7012-1.8004 43.701 9.0996 23.4 7.5 49.599 22.202 70.699 39.602 16.1 13.3 23.2 24.099 30.5 45.699 2.1213 6.3638 2.9187 8.8375 3.2188 14.119 0 1e-3 -1e-4 2e-3 0 4e-3 0.1791 3.18 0.1796 7.3782 0.1796 14.051 0 17-0.2 18.601-3 28.801-8.2 29-22.1 46.699-46.5 59.299-9.5 4.9-14.399 5.1004-24.299 0.90039l-8.2012-3.5-2 2.5c-1.273 1.6242-1.9088 2.9031-1.8085 4.248 0.1169 1.7263 1.4484 3.56 4.2109 6.3789 7.3 7.6 14.3 10.2 31.6 12 13 1.4 19.3 0.1 32.5-6.5 10.3-5.2 17.8-10.4 25.6-17.5 20.8-19.2 34.9-52.1 34.9-81.4 0-0.91547-0.016-1.8261-0.045-2.7344-0.028-0.89067-0.07-1.7774-0.127-2.6641-5e-4 -8e-3 0-0.0169 0-0.0254-0.057-0.88665-0.1298-1.7726-0.2168-2.6582-9e-4 -8e-3 0-0.017 0-0.0254-0.087-0.88567-0.1908-1.7706-0.3086-2.6582-1.4272-10.761-5.1205-21.774-11.801-35.66-4.9-10.1-6.2996-12.001-17.6-23.801-7.5-7.9-15.101-14.8-19.801-17.9-4.2-2.9-11-7.6988-15.1-10.799-9.7-7.4-16.6-11.6-22.1-13.5-2.4-0.9-9.8004-4.2-16.4-7.5-13.4-6.6-27.2-10.9-52.9-16.5-14.088-2.975-16.766-3.4238-28.672-3.3555zm658 0c-1.7008 0.0098-3.5891 0.02969-5.7266 0.05469l-17.701 0.30078-0.2988 3.6992c-0.3 3.1 0.1988 4.0004 3.2988 6.4004l3.5997 2.6992 10.602-1.1992c11.7-1.3 9.6992-1.8004 43.699 9.0996 23.4 7.5 49.599 22.2 70.699 39.6 16.1 13.3 23.2 24.101 30.5 45.701 3.4 10.2 3.4003 10.399 3.4003 28.199 0 17-0.2 18.601-3 28.801-8.2 29-22.1 46.699-46.5 59.299-9.5 4.9-14.399 5.1004-24.299 0.90039l-8.2012-3.5-2 2.5c-2.9 3.7-2.4996 5.5996 2.4004 10.6 7.3 7.6 14.3 10.2 31.6 12 13 1.4 19.3 0.1 32.5-6.5 10.3-5.2 17.8-10.4 25.6-17.5 20.8-19.2 34.9-52.098 34.9-81.398 0-14.5-3.6-27.9-12.5-46.4-4.9-10.1-6.2996-12.001-17.6-23.801-7.5-7.9-15.101-14.8-19.801-17.9-4.2-2.9-11-7.6988-15.1-10.799-9.7-7.4-16.6-11.6-22.1-13.5-2.4-0.9-9.8004-4.2-16.4-7.5-13.4-6.6-27.2-10.9-52.9-16.5-14.088-2.975-16.766-3.4238-28.672-3.3555zm658 0c-1.7008 0.0098-3.5891 0.02969-5.7266 0.05469l-17.701 0.30078-0.2988 3.6992c-0.3 3.1 0.1988 4.0004 3.2988 6.4004l3.5997 2.6992 10.602-1.1992c11.7-1.3 9.6992-1.8004 43.699 9.0996 23.4 7.5 49.599 22.2 70.699 39.6 16.1 13.3 23.2 24.101 30.5 45.701 3.4 10.2 3.4003 10.399 3.4003 28.199 0 17-0.2 18.601-3 28.801-8.2 29-22.1 46.699-46.5 59.299-9.5 4.9-14.399 5.1004-24.299 0.90039l-8.2012-3.5-2 2.5c-2.9 3.7-2.4996 5.5996 2.4004 10.6 7.3 7.6 14.3 10.2 31.6 12 13 1.4 19.3 0.1 32.5-6.5 10.3-5.2 17.8-10.4 25.6-17.5 20.8-19.2 34.9-52.098 34.9-81.398 0-14.5-3.6-27.9-12.5-46.4-4.9-10.1-6.2996-12.001-17.6-23.801-7.5-7.9-15.101-14.8-19.801-17.9-4.2-2.9-11-7.6988-15.1-10.799-9.7-7.4-16.6-11.6-22.1-13.5-2.4-0.9-9.8004-4.2-16.4-7.5-13.4-6.6-27.2-10.9-52.9-16.5-14.088-2.975-16.766-3.4238-28.672-3.3555zm658 0c-1.7008 0.0098-3.5891 0.02969-5.7266 0.05469l-17.701 0.30078-0.2988 3.6992c-0.3 3.1 0.1988 4.0004 3.2988 6.4004l3.5997 2.6992 10.602-1.1992c11.7-1.3 9.6992-1.8004 43.699 9.0996 23.4 7.5 49.599 22.2 70.699 39.6 16.1 13.3 23.2 24.101 30.5 45.701 3.4 10.2 3.4003 10.399 3.4003 28.199 0 17-0.2 18.601-3 28.801-8.2 29-22.1 46.699-46.5 59.299-9.5 4.9-14.399 5.1004-24.299 0.90039l-8.2012-3.5-2 2.5c-2.9 3.7-2.4996 5.5996 2.4004 10.6 7.3 7.6 14.3 10.2 31.6 12 13 1.4 19.3 0.1 32.5-6.5 10.3-5.2 17.8-10.4 25.6-17.5 20.8-19.2 34.9-52.098 34.9-81.398 0-14.5-3.6-27.9-12.5-46.4-4.9-10.1-6.2996-12.001-17.6-23.801-7.5-7.9-15.101-14.8-19.801-17.9-4.2-2.9-11-7.6988-15.1-10.799-9.7-7.4-16.6-11.6-22.1-13.5-2.4-0.9-9.8004-4.2-16.4-7.5-13.4-6.6-27.2-10.9-52.9-16.5-14.088-2.975-16.766-3.4238-28.672-3.3555zm-5264 0.02539c-1.7008 0.0098-3.591 0.02969-5.7285 0.05469l-17.699 0.30078-0.30078 3.6992c-0.3 3.1 0.20078 4.0004 3.3008 6.4004l3.5996 2.7012 10.6-1.2012c11.7-1.3 9.7012-1.8004 43.701 9.0996 23.4 7.5 49.599 22.202 70.699 39.602 16.1 13.3 23.2 24.099 30.5 45.699 3.4 10.2 3.4004 10.399 3.4004 28.199 0 17-0.2 18.601-3 28.801-8.2 29-22.1 46.701-46.5 59.301-9.5 4.9-14.401 5.0984-24.301 0.89844l-8.1992-3.5-2 2.5c-2.9 3.7-2.4996 5.6016 2.4004 10.602 7.3 7.6 14.3 10.2 31.6 12 13 1.4 19.3 0.1 32.5-6.5 10.3-5.2 17.8-10.4 25.6-17.5 20.8-19.2 34.9-52.1 34.9-81.4 0-14.5-3.6-27.9-12.5-46.4-4.9-10.1-6.2996-12.001-17.6-23.801-7.5-7.9-15.101-14.798-19.801-17.898-4.2-2.9-11-7.7008-15.1-10.801-9.7-7.4-16.6-11.6-22.1-13.5-2.4-0.9-9.8004-4.2-16.4-7.5-13.4-6.6-27.2-10.9-52.9-16.5-14.088-2.975-16.766-3.4238-28.672-3.3555zm658 0c-1.7008 0.0098-3.591 0.02969-5.7285 0.05469l-17.699 0.30078-0.30078 3.6992c-0.3 3.1 0.20078 4.0004 3.3008 6.4004l3.5996 2.7012 10.6-1.2012c11.7-1.3 9.7012-1.8004 43.701 9.0996 23.4 7.5 49.599 22.202 70.699 39.602 16.1 13.3 23.2 24.099 30.5 45.699 3.4 10.2 3.4004 10.399 3.4004 28.199 0 17-0.2 18.601-3 28.801-8.2 29-22.1 46.701-46.5 59.301-9.5 4.9-14.401 5.0984-24.301 0.89844l-8.1992-3.5-2 2.5c-2.9 3.7-2.4996 5.6016 2.4004 10.602 7.3 7.6 14.3 10.2 31.6 12 13 1.4 19.3 0.1 32.5-6.5 10.3-5.2 17.8-10.4 25.6-17.5 20.8-19.2 34.9-52.1 34.9-81.4 0-14.5-3.6-27.9-12.5-46.4-4.9-10.1-6.2996-12.001-17.6-23.801-7.5-7.9-15.101-14.798-19.801-17.898-4.2-2.9-11-7.7008-15.1-10.801-9.7-7.4-16.6-11.6-22.1-13.5-2.4-0.9-9.8004-4.2-16.4-7.5-13.4-6.6-27.2-10.9-52.9-16.5-14.088-2.975-16.766-3.4238-28.672-3.3555zm658 0c-1.7007 0.0098-3.591 0.02969-5.7285 0.05469l-17.699 0.30078-0.3008 3.6992c-0.3 3.1 0.2008 4.0004 3.3008 6.4004l3.5996 2.7012 10.6-1.2012c11.7-1.3 9.7012-1.8004 43.701 9.0996 23.4 7.5 49.599 22.202 70.699 39.602 16.1 13.3 23.2 24.099 30.5 45.699 3.4 10.2 3.4004 10.399 3.4004 28.199 0 17-0.2 18.601-3 28.801-8.2 29-22.1 46.701-46.5 59.301-9.5 4.9-14.401 5.0984-24.301 0.89844l-8.1992-3.5-2 2.5c-2.9 3.7-2.4996 5.6016 2.4004 10.602 7.3 7.6 14.3 10.2 31.6 12 13 1.4 19.3 0.1 32.5-6.5 10.3-5.2 17.8-10.4 25.6-17.5 20.8-19.2 34.9-52.1 34.9-81.4 0-14.5-3.6-27.9-12.5-46.4-4.9-10.1-6.2996-12.001-17.6-23.801-7.5-7.9-15.101-14.798-19.801-17.898-4.2-2.9-11-7.7008-15.1-10.801-9.7-7.4-16.6-11.6-22.1-13.5-2.4-0.9-9.8004-4.2-16.4-7.5-13.4-6.6-27.2-10.9-52.9-16.5-14.088-2.975-16.766-3.4238-28.672-3.3555zm546.93 2.4961c-6.8344-0.0094-16.284 0.90898-22.359 2.334-7.5 1.9-20.199 8.1004-27.199 13.4-20.5 15.5-40.7 48.799-44.9 74.199-0.8767 5.0098-1.2422 8.2178-1.1484 12.346 0.019 0.8159 0.053 1.6652 0.1074 2.5742 6e-4 9e-3 0 0.0164 0 0.0254 0 0.0334 0.01 0.0738 0.01 0.10742 0.1095 1.8041 0.2872 3.8302 0.5312 6.248v0.0254c0.087 0.91623 0.1814 1.8211 0.2832 2.7148 1.5398 13.543 4.8379 24.658 11.217 37.885 4 8.2 6.7992 12.6 11.199 17.1 3.3 3.4 8.4004 8.7996 11.4 12.1s9.6 8.7 14.5 12c5 3.3 13.001 9.3012 17.801 13.201 9.5 7.7 16.1 11.399 24.1 13.799 2.8 0.8 12.8 4.8008 22.1 8.8008 24 10.3 35.5 13.5 55 15.4 5 0.5 16.2 0.79922 25 0.69922l16-0.0996 0.3008-2.9004c0.051-0.45523 0.061-0.91588 0.039-1.375-1e-4 -3e-3 2e-4 -7e-3 0-0.01-0.1449-3.1773-1.9168-6.2402-3.8418-6.2402-0.9 0-2.0992-0.49961-2.6992-1.0996-0.8-0.8-2.4-0.70117-6 0.29883-5.1 1.5-19.4 0.8-23.1-1-0.9-0.5-5.3012-1.6992-9.7012-2.6992-11.7-2.6-26.4-7.9008-39.5-14.301-11.3-5.5-40.799-24.599-52.199-33.699-15.969-12.595-25.926-34.298-28.223-59.838-8e-4 -9e-3 0-0.0183 0-0.0273-0.095-1.0562-0.1757-2.1185-0.2441-3.1875-6e-4 -8e-3 0-0.017 0-0.0254-0.068-1.0685-0.1224-2.1441-0.164-3.2246-0.083-2.1712-0.1131-4.367-0.088-6.582 1e-4 -8e-3 -1e-4 -0.0169 0-0.0254 1e-4 -8e-3 -1e-4 -0.0169 0-0.0254 0.052-4.4394 0.3251-8.9602 0.8242-13.539 1.6-15 3.5988-22.1 9.2988-33.9 4.4-9.1 6.2012-11.6 13.701-19.1 8.4-8.4 22.2-18.5 29.4-21.5 4-1.7 10.2-1.1 22 2 7.1 1.8 6.1992 1.9008 8.6992-0.69922 1.3152-1.4467 1.9567-2.6256 1.8086-3.8965-0.1771-1.635-1.6624-3.4211-4.7109-6.1309-6.1-5.5-16.3-10.599-23.5-11.799-1.475-0.225-3.4622-0.33086-5.7403-0.33398zm658 0c-6.8344-0.0094-16.284 0.90898-22.359 2.334-7.5 1.9-20.199 8.1004-27.199 13.4-20.5 15.5-40.7 48.799-44.9 74.199-0.8767 5.0098-1.2422 8.2178-1.1484 12.346 0.019 0.8159 0.053 1.6652 0.1074 2.5742 6e-4 9e-3 0 0.0164 0 0.0254 0 0.0334 0.01 0.0738 0.01 0.10742 0.1095 1.8041 0.2872 3.8302 0.5312 6.248v0.0254c0.087 0.91623 0.1814 1.8211 0.2832 2.7148 1.5398 13.543 4.8379 24.658 11.217 37.885 4 8.2 6.7992 12.6 11.199 17.1 3.3 3.4 8.4004 8.7996 11.4 12.1s9.6 8.7 14.5 12c5 3.3 13.001 9.3012 17.801 13.201 9.5 7.7 16.1 11.399 24.1 13.799 2.8 0.8 12.8 4.8008 22.1 8.8008 24 10.3 35.5 13.5 55 15.4 5 0.5 16.2 0.79922 25 0.69922l16-0.0996 0.3008-2.9004c0.051-0.45523 0.061-0.91588 0.039-1.375-1e-4 -3e-3 2e-4 -7e-3 0-0.01-0.1449-3.1773-1.9168-6.2402-3.8418-6.2402-0.9 0-2.0992-0.49961-2.6992-1.0996-0.8-0.8-2.4-0.70117-6 0.29883-5.1 1.5-19.4 0.8-23.1-1-0.9-0.5-5.3012-1.6992-9.7012-2.6992-11.7-2.6-26.4-7.9008-39.5-14.301-11.3-5.5-40.799-24.599-52.199-33.699-15.969-12.595-25.926-34.298-28.223-59.838-8e-4 -9e-3 0-0.0183 0-0.0273-0.095-1.0562-0.1757-2.1185-0.2441-3.1875-6e-4 -8e-3 0-0.017 0-0.0254-0.068-1.0685-0.1224-2.1441-0.164-3.2246-0.083-2.1712-0.1131-4.367-0.088-6.582 1e-4 -8e-3 -1e-4 -0.0169 0-0.0254 1e-4 -8e-3 -1e-4 -0.0169 0-0.0254 0.052-4.4394 0.3251-8.9602 0.8242-13.539 1.6-15 3.5988-22.1 9.2988-33.9 4.4-9.1 6.2012-11.6 13.701-19.1 8.4-8.4 22.2-18.5 29.4-21.5 4-1.7 10.2-1.1 22 2 7.1 1.8 6.1992 1.9008 8.6992-0.69922 1.3152-1.4467 1.9567-2.6256 1.8086-3.8965-0.1771-1.635-1.6624-3.4211-4.7109-6.1309-6.1-5.5-16.3-10.599-23.5-11.799-1.475-0.225-3.4622-0.33086-5.7403-0.33398zm658 0c-6.8344-0.0094-16.284 0.90898-22.359 2.334-7.5 1.9-20.199 8.1004-27.199 13.4-20.5 15.5-40.7 48.799-44.9 74.199-0.8767 5.0098-1.2422 8.2178-1.1484 12.346 0.019 0.8159 0.053 1.6652 0.1074 2.5742 6e-4 9e-3 0 0.0164 0 0.0254 0 0.0334 0.01 0.0738 0.01 0.10742 0.1095 1.8041 0.2872 3.8302 0.5312 6.248v0.0254c0.087 0.91623 0.1814 1.8211 0.2832 2.7148 1.5398 13.543 4.8379 24.658 11.217 37.885 4 8.2 6.7992 12.6 11.199 17.1 3.3 3.4 8.4004 8.7996 11.4 12.1s9.6 8.7 14.5 12c5 3.3 13.001 9.3012 17.801 13.201 9.5 7.7 16.1 11.399 24.1 13.799 2.8 0.8 12.8 4.8008 22.1 8.8008 24 10.3 35.5 13.5 55 15.4 5 0.5 16.2 0.79922 25 0.69922l16-0.0996 0.3008-2.9004c0.051-0.45523 0.061-0.91588 0.039-1.375-1e-4 -3e-3 2e-4 -7e-3 0-0.01-0.1449-3.1773-1.9168-6.2402-3.8418-6.2402-0.9 0-2.0992-0.49961-2.6992-1.0996-0.8-0.8-2.4-0.70117-6 0.29883-5.1 1.5-19.4 0.8-23.1-1-0.9-0.5-5.3012-1.6992-9.7012-2.6992-11.7-2.6-26.4-7.9008-39.5-14.301-11.3-5.5-40.799-24.599-52.199-33.699-15.969-12.595-25.926-34.298-28.223-59.838-8e-4 -9e-3 0-0.0183 0-0.0273-0.095-1.0562-0.1757-2.1185-0.2441-3.1875-6e-4 -8e-3 0-0.017 0-0.0254-0.068-1.0685-0.1224-2.1441-0.164-3.2246-0.083-2.1712-0.1131-4.367-0.088-6.582 1e-4 -8e-3 -1e-4 -0.0169 0-0.0254 1e-4 -8e-3 -1e-4 -0.0169 0-0.0254 0.052-4.4394 0.3251-8.9602 0.8242-13.539 1.6-15 3.5988-22.1 9.2988-33.9 4.4-9.1 6.2012-11.6 13.701-19.1 8.4-8.4 22.2-18.5 29.4-21.5 4-1.7 10.2-1.1 22 2 7.1 1.8 6.1992 1.9008 8.6992-0.69922 1.3152-1.4467 1.9567-2.6256 1.8086-3.8965-0.1771-1.635-1.6624-3.4211-4.7109-6.1309-6.1-5.5-16.3-10.599-23.5-11.799-1.475-0.225-3.4622-0.33086-5.7403-0.33398zm658 0c-6.8344-0.0094-16.284 0.90898-22.359 2.334-7.5 1.9-20.199 8.1004-27.199 13.4-20.5 15.5-40.7 48.799-44.9 74.199-1.4 8-1.5 11.401-0.5 21.301 1.4 14.8 4.7 26.5 11.5 40.6 4 8.2 6.7993 12.6 11.199 17.1 3.3 3.4 8.4003 8.7996 11.4 12.1s9.6 8.7 14.5 12c5 3.3 13.001 9.3012 17.801 13.201 9.5 7.7 16.1 11.399 24.1 13.799 2.8 0.8 12.8 4.8008 22.1 8.8008 24 10.3 35.5 13.5 55 15.4 5 0.5 16.2 0.79922 25 0.69922l16-0.0996 0.3008-2.9004c0.4-3.6-1.6008-7.5996-3.8008-7.5996-0.9 0-2.0992-0.49961-2.6992-1.0996-0.8-0.8-2.4-0.70117-6 0.29883-5.1 1.5-19.4 0.8-23.1-1-0.9-0.5-5.3012-1.6992-9.7012-2.6992-11.7-2.6-26.4-7.9008-39.5-14.301-11.3-5.5-40.799-24.599-52.199-33.699-21.3-16.8-31.9-49.8-27.9-86.5 1.6-15 3.6008-22.1 9.3008-33.9 4.4-9.1 6.1992-11.6 13.699-19.1 8.4-8.4 22.2-18.5 29.4-21.5 4-1.7 10.2-1.1 22 2 7.1 1.8 6.1992 1.8988 8.6992-0.70117 3-3.3 2.4997-5.2-2.9003-10-6.1-5.5-16.3-10.599-23.5-11.799-1.475-0.225-3.4622-0.33086-5.7403-0.33398zm658 0c-6.8344-0.0094-16.284 0.90898-22.359 2.334-7.5 1.9-20.199 8.1004-27.199 13.4-20.5 15.5-40.7 48.799-44.9 74.199-1.4 8-1.5 11.401-0.5 21.301 1.4 14.8 4.7 26.5 11.5 40.6 4 8.2 6.7993 12.6 11.199 17.1 3.3 3.4 8.4003 8.7996 11.4 12.1s9.6 8.7 14.5 12c5 3.3 13.001 9.3012 17.801 13.201 9.5 7.7 16.1 11.399 24.1 13.799 2.8 0.8 12.8 4.8008 22.1 8.8008 24 10.3 35.5 13.5 55 15.4 5 0.5 16.2 0.79922 25 0.69922l16-0.0996 0.3008-2.9004c0.4-3.6-1.6008-7.5996-3.8008-7.5996-0.9 0-2.0992-0.49961-2.6992-1.0996-0.8-0.8-2.4-0.70117-6 0.29883-5.1 1.5-19.4 0.8-23.1-1-0.9-0.5-5.3012-1.6992-9.7012-2.6992-11.7-2.6-26.4-7.9008-39.5-14.301-11.3-5.5-40.799-24.599-52.199-33.699-21.3-16.8-31.9-49.8-27.9-86.5 1.6-15 3.6008-22.1 9.3008-33.9 4.4-9.1 6.1992-11.6 13.699-19.1 8.4-8.4 22.2-18.5 29.4-21.5 4-1.7 10.2-1.1 22 2 7.1 1.8 6.1992 1.8988 8.6992-0.70117 3-3.3 2.4997-5.2-2.9003-10-6.1-5.5-16.3-10.599-23.5-11.799-1.475-0.225-3.4622-0.33086-5.7403-0.33398zm658 0c-6.8344-0.0094-16.284 0.90898-22.359 2.334-7.5 1.9-20.199 8.1004-27.199 13.4-20.5 15.5-40.7 48.799-44.9 74.199-1.4 8-1.5 11.401-0.5 21.301 1.4 14.8 4.7 26.5 11.5 40.6 4 8.2 6.7993 12.6 11.199 17.1 3.3 3.4 8.4003 8.7996 11.4 12.1s9.6 8.7 14.5 12c5 3.3 13.001 9.3012 17.801 13.201 9.5 7.7 16.1 11.399 24.1 13.799 2.8 0.8 12.8 4.8008 22.1 8.8008 24 10.3 35.5 13.5 55 15.4 5 0.5 16.2 0.79922 25 0.69922l16-0.0996 0.3008-2.9004c0.4-3.6-1.6008-7.5996-3.8008-7.5996-0.9 0-2.0992-0.49961-2.6992-1.0996-0.8-0.8-2.4-0.70117-6 0.29883-5.1 1.5-19.4 0.8-23.1-1-0.9-0.5-5.3012-1.6992-9.7012-2.6992-11.7-2.6-26.4-7.9008-39.5-14.301-11.3-5.5-40.799-24.599-52.199-33.699-21.3-16.8-31.9-49.8-27.9-86.5 1.6-15 3.6008-22.1 9.3008-33.9 4.4-9.1 6.1992-11.6 13.699-19.1 8.4-8.4 22.2-18.5 29.4-21.5 4-1.7 10.2-1.1 22 2 7.1 1.8 6.1992 1.8988 8.6992-0.70117 3-3.3 2.4997-5.2-2.9003-10-6.1-5.5-16.3-10.599-23.5-11.799-1.475-0.225-3.4622-0.33086-5.7403-0.33398zm-5264 0.025391c-6.8344-0.009375-16.284 0.90898-22.359 2.334-7.5 1.9-20.199 8.1004-27.199 13.4-20.5 15.5-40.7 48.799-44.9 74.199-1.4 8-1.5 11.401-0.5 21.301 1.4 14.8 4.7 26.5 11.5 40.6 4 8.2 6.7992 12.6 11.199 17.1 3.3 3.4 8.4004 8.7996 11.4 12.1s9.6 8.7 14.5 12c5 3.3 13.001 9.3012 17.801 13.201 9.5 7.7 16.1 11.399 24.1 13.799 2.8 0.8 12.8 4.8008 22.1 8.8008 24 10.3 35.5 13.5 55 15.4 5 0.5 16.2 0.79922 25 0.69922l16-0.0996 0.30078-2.9004c0.4-3.6-1.6008-7.5996-3.8008-7.5996-0.9 0-2.0992-0.49961-2.6992-1.0996-0.8-0.8-2.4-0.70117-6 0.29883-5.1 1.5-19.402 0.8-23.102-1-0.9-0.5-5.2992-1.6992-9.6992-2.6992-11.7-2.6-26.4-7.9008-39.5-14.301-11.3-5.5-40.799-24.599-52.199-33.699-21.3-16.8-31.9-49.8-27.9-86.5 1.6-15 3.5988-22.1 9.2988-33.9 4.4-9.1 6.2012-11.6 13.701-19.1 8.4-8.4 22.2-18.5 29.4-21.5 4-1.7 10.2-1.1 22 2 7.1 1.8 6.1992 1.9008 8.6992-0.69922 3-3.3 2.4996-5.2-2.9004-10-6.1-5.5-16.3-10.601-23.5-11.801-1.475-0.225-3.4621-0.33086-5.7402-0.33398zm658 0c-6.8344-0.009375-16.284 0.90898-22.359 2.334-7.5 1.9-20.199 8.1004-27.199 13.4-20.5 15.5-40.7 48.799-44.9 74.199-1.4 8-1.5 11.401-0.5 21.301 1.4 14.8 4.7 26.5 11.5 40.6 4 8.2 6.7992 12.6 11.199 17.1 3.3 3.4 8.4004 8.7996 11.4 12.1s9.6 8.7 14.5 12c5 3.3 13.001 9.3012 17.801 13.201 9.5 7.7 16.1 11.399 24.1 13.799 2.8 0.8 12.8 4.8008 22.1 8.8008 24 10.3 35.5 13.5 55 15.4 5 0.5 16.2 0.79922 25 0.69922l16-0.0996 0.30078-2.9004c0.40002-3.6-1.6008-7.5996-3.8008-7.5996-0.9 0-2.0992-0.49961-2.6992-1.0996-0.8-0.8-2.4-0.70117-6 0.29883-5.1 1.5-19.402 0.8-23.102-1-0.9-0.5-5.2992-1.6992-9.6992-2.6992-11.7-2.6-26.4-7.9008-39.5-14.301-11.3-5.5-40.799-24.599-52.199-33.699-21.3-16.8-31.9-49.8-27.9-86.5 1.6-15 3.5988-22.1 9.2988-33.9 4.4-9.1 6.2012-11.6 13.701-19.1 8.4-8.4 22.2-18.5 29.4-21.5 4-1.7 10.2-1.1 22 2 7.1 1.8 6.1992 1.9008 8.6992-0.69922 3-3.3 2.4996-5.2-2.9004-10-6.1-5.5-16.3-10.601-23.5-11.801-1.475-0.225-3.4621-0.33086-5.7402-0.33398zm658 0c-6.8344-0.009375-16.284 0.90898-22.359 2.334-7.5 1.9-20.199 8.1004-27.199 13.4-20.5 15.5-40.7 48.799-44.9 74.199-1.4 8-1.5 11.401-0.5 21.301 1.4 14.8 4.7 26.5 11.5 40.6 4 8.2 6.7992 12.6 11.199 17.1 3.3 3.4 8.4004 8.7996 11.4 12.1s9.6 8.7 14.5 12c5 3.3 13.001 9.3012 17.801 13.201 9.5 7.7 16.1 11.399 24.1 13.799 2.8 0.8 12.8 4.8008 22.1 8.8008 24 10.3 35.5 13.5 55 15.4 5 0.5 16.2 0.79922 25 0.69922l16-0.0996 0.3008-2.9004c0.4-3.6-1.6008-7.5996-3.8008-7.5996-0.9 0-2.0992-0.49961-2.6992-1.0996-0.8-0.8-2.4-0.70117-6 0.29883-5.1 1.5-19.402 0.8-23.102-1-0.9-0.5-5.2992-1.6992-9.6992-2.6992-11.7-2.6-26.4-7.9008-39.5-14.301-11.3-5.5-40.799-24.599-52.199-33.699-21.3-16.8-31.9-49.8-27.9-86.5 1.6-15 3.5988-22.1 9.2988-33.9 4.4-9.1 6.2012-11.6 13.701-19.1 8.4-8.4 22.2-18.5 29.4-21.5 4-1.7 10.2-1.1 22 2 7.1 1.8 6.1992 1.9008 8.6992-0.69922 3-3.3 2.4996-5.2-2.9004-10-6.1-5.5-16.3-10.601-23.5-11.801-1.475-0.225-3.4621-0.33086-5.7402-0.33398zm906.89 6.3711c-1.225 0.0875-1.6996 0.5375-2.3496 1.4375-0.706 0.97084-1.1769 2.0961-1.1406 2.7598 0 0.09869 0.017 0.18827 0.043 0.26562 0.2 0.5 10.898 5.2996 23.898 10.6 25 10.1 29.2 12.4 43 22.6 15.8 11.7 23.801 22.6 26.801 36.5 0.275 1.225 0.482 2.2453 0.6133 3.1641 0.064 0.44886 0.1099 0.87516 0.1367 1.2891 2e-4 3e-3 -2e-4 7e-3 0 0.01 0.135 2.1091-0.2163 3.9288-1.1523 7.1113-1.2393 4.4502-1.7478 10.266-1.5274 16.158 0.024 0.65179 0.057 1.3031 0.1 1.9551 2e-4 3e-3 -1e-4 5e-3 0 8e-3 0.042 0.64476 0.093 1.2901 0.1524 1.9316 7e-4 8e-3 0 0.017 0 0.0254 0.06 0.64204 0.128 1.2807 0.2051 1.916 0.3126 2.5838 0.7691 5.0991 1.3711 7.4316 3.6 13.9 11 25.8 24.1 38.9 12.6 12.5 22.7 19 36.5 23.5 8.1 2.7 8.8996 2.8004 11.6 1.4004 1.4-0.8 1.9004-2.1008 1.9004-5.3008v-0.0254c0-0.18864-0.015-0.37236-0.021-0.5586-0.01-0.19359-0.01-0.38883-0.021-0.58007-0.029-0.38448-0.075-0.76423-0.1348-1.1406-0.8432-5.2715-4.8194-9.847-14.022-16.42-18.2-13-26.6-22.5-30.9-34.6-0.8989-2.5469-1.3971-4.3719-1.5976-6.668-0.05-0.56949-0.081-1.1686-0.096-1.8144-0.042-1.9594 0.07-4.3559 0.2949-7.6934 0.4-6.3 1.5996-13.498 3.0996-18.398 2.0171-6.7528 3.0707-11.449 3.0723-15.293 9e-4 -0.53967-0.018-1.0609-0.059-1.5703-3e-4 -4e-3 0-8e-3 0-0.0117-0.3349-4.1438-2.059-7.3963-5.3125-11.551-8.2-10.5-38.2-30.202-61.6-40.602-12.9-5.6-40.702-14.5-50.102-16-3.65-0.55-5.6247-0.82383-6.8497-0.73633zm658 0c-1.225 0.0875-1.6996 0.5375-2.3496 1.4375-0.706 0.97084-1.1769 2.0961-1.1406 2.7598 0 0.09869 0.017 0.18827 0.043 0.26562 0.2 0.5 10.898 5.2996 23.898 10.6 25 10.1 29.2 12.4 43 22.6 15.8 11.7 23.801 22.6 26.801 36.5 0.275 1.225 0.482 2.2453 0.6133 3.1641 0.064 0.44886 0.1099 0.87516 0.1367 1.2891 2e-4 3e-3 -2e-4 7e-3 0 0.01 0.135 2.1091-0.2163 3.9288-1.1523 7.1113-1.2393 4.4502-1.7478 10.266-1.5274 16.158 0.024 0.65179 0.057 1.3031 0.1 1.9551 2e-4 3e-3 -1e-4 5e-3 0 8e-3 0.042 0.64476 0.093 1.2901 0.1524 1.9316 7e-4 8e-3 0 0.017 0 0.0254 0.06 0.64204 0.128 1.2807 0.2051 1.916 0.3126 2.5838 0.7691 5.0991 1.3711 7.4316 3.6 13.9 11 25.8 24.1 38.9 12.6 12.5 22.7 19 36.5 23.5 8.1 2.7 8.8996 2.8004 11.6 1.4004 1.4-0.8 1.9004-2.1008 1.9004-5.3008v-0.0254c0-0.18864-0.015-0.37236-0.021-0.5586-0.01-0.19359-0.01-0.38883-0.021-0.58007-0.029-0.38448-0.075-0.76423-0.1348-1.1406-0.8432-5.2715-4.8194-9.847-14.022-16.42-18.2-13-26.6-22.5-30.9-34.6-0.8989-2.5469-1.3971-4.3719-1.5976-6.668-0.05-0.56949-0.081-1.1686-0.096-1.8144-0.042-1.9594 0.07-4.3559 0.2949-7.6934 0.4-6.3 1.5996-13.498 3.0996-18.398 2.0171-6.7528 3.0707-11.449 3.0723-15.293 9e-4 -0.53967-0.018-1.0609-0.059-1.5703-3e-4 -4e-3 0-8e-3 0-0.0117-0.3349-4.1438-2.059-7.3963-5.3125-11.551-8.2-10.5-38.2-30.202-61.6-40.602-12.9-5.6-40.702-14.5-50.102-16-3.65-0.55-5.6247-0.82383-6.8497-0.73633zm658 0c-1.225 0.0875-1.6996 0.5375-2.3496 1.4375-0.706 0.97084-1.1769 2.0961-1.1406 2.7598 0 0.09869 0.017 0.18827 0.043 0.26562 0.2 0.5 10.898 5.2996 23.898 10.6 25 10.1 29.2 12.4 43 22.6 15.8 11.7 23.801 22.6 26.801 36.5 0.275 1.225 0.482 2.2453 0.6133 3.1641 0.064 0.44886 0.1099 0.87516 0.1367 1.2891 2e-4 3e-3 -2e-4 7e-3 0 0.01 0.135 2.1091-0.2163 3.9288-1.1523 7.1113-1.2393 4.4502-1.7478 10.266-1.5274 16.158 0.024 0.65179 0.057 1.3031 0.1 1.9551 2e-4 3e-3 -1e-4 5e-3 0 8e-3 0.042 0.64476 0.093 1.2901 0.1524 1.9316 7e-4 8e-3 0 0.017 0 0.0254 0.06 0.64204 0.128 1.2807 0.2051 1.916 0.3126 2.5838 0.7691 5.0991 1.3711 7.4316 3.6 13.9 11 25.8 24.1 38.9 12.6 12.5 22.7 19 36.5 23.5 8.1 2.7 8.8996 2.8004 11.6 1.4004 1.4-0.8 1.9004-2.1008 1.9004-5.3008v-0.0254c0-0.18864-0.015-0.37236-0.021-0.5586-0.01-0.19359-0.01-0.38883-0.021-0.58007-0.029-0.38448-0.075-0.76423-0.1348-1.1406-0.8432-5.2715-4.8194-9.847-14.022-16.42-18.2-13-26.6-22.5-30.9-34.6-0.8989-2.5469-1.3971-4.3719-1.5976-6.668-0.05-0.56949-0.081-1.1686-0.096-1.8144-0.042-1.9594 0.07-4.3559 0.2949-7.6934 0.4-6.3 1.5996-13.498 3.0996-18.398 2.0171-6.7528 3.0707-11.449 3.0723-15.293 9e-4 -0.53967-0.018-1.0609-0.059-1.5703-3e-4 -4e-3 0-8e-3 0-0.0117-0.3349-4.1438-2.059-7.3963-5.3125-11.551-8.2-10.5-38.2-30.202-61.6-40.602-12.9-5.6-40.702-14.5-50.102-16-3.65-0.55-5.6247-0.82383-6.8497-0.73633zm658 0c-1.225 0.0875-1.6996 0.5375-2.3496 1.4375-0.8 1.1-1.2996 2.4-1.0996 3 0.2 0.5 10.9 5.2996 23.9 10.6 25 10.1 29.2 12.4 43 22.6 15.8 11.7 23.799 22.6 26.799 36.5 1.1 4.9 1.0997 6.4996-0.4003 11.6-2.2 7.9-2.0993 20.1 0.3007 29.4 3.6 13.9 11 25.8 24.1 38.9 12.6 12.5 22.7 19 36.5 23.5 8.1 2.7 8.8997 2.8004 11.6 1.4004 1.4-0.8 1.9003-2.1008 1.9003-5.3008 0-6.3-3.6992-11.199-14.199-18.699-18.2-13-26.6-22.5-30.9-34.6-1.8-5.1-2.0004-7.3012-1.4004-16.201 0.4-6.3 1.5997-13.5 3.0997-18.4 4.6-15.4 4.2011-20.098-2.2989-28.398-8.2-10.5-38.2-30.202-61.6-40.602-12.9-5.6-40.702-14.5-50.102-16-3.65-0.55-5.6247-0.82383-6.8497-0.73633zm658 0c-1.225 0.0875-1.6996 0.5375-2.3496 1.4375-0.8 1.1-1.2996 2.4-1.0996 3 0.2 0.5 10.9 5.2996 23.9 10.6 25 10.1 29.2 12.4 43 22.6 15.8 11.7 23.799 22.6 26.799 36.5 1.1 4.9 1.0997 6.4996-0.4003 11.6-2.2 7.9-2.0993 20.1 0.3007 29.4 3.6 13.9 11 25.8 24.1 38.9 12.6 12.5 22.7 19 36.5 23.5 8.1 2.7 8.8997 2.8004 11.6 1.4004 1.4-0.8 1.9003-2.1008 1.9003-5.3008 0-6.3-3.6992-11.199-14.199-18.699-18.2-13-26.6-22.5-30.9-34.6-1.8-5.1-2.0004-7.3012-1.4004-16.201 0.4-6.3 1.5997-13.5 3.0997-18.4 4.6-15.4 4.2011-20.098-2.2989-28.398-8.2-10.5-38.2-30.202-61.6-40.602-12.9-5.6-40.702-14.5-50.102-16-3.65-0.55-5.6247-0.82383-6.8497-0.73633zm658 0c-1.225 0.0875-1.6996 0.5375-2.3496 1.4375-0.8 1.1-1.2996 2.4-1.0996 3 0.2 0.5 10.9 5.2996 23.9 10.6 25 10.1 29.2 12.4 43 22.6 15.8 11.7 23.799 22.6 26.799 36.5 1.1 4.9 1.0997 6.4996-0.4003 11.6-2.2 7.9-2.0993 20.1 0.3007 29.4 3.6 13.9 11 25.8 24.1 38.9 12.6 12.5 22.7 19 36.5 23.5 8.1 2.7 8.8997 2.8004 11.6 1.4004 1.4-0.8 1.9003-2.1008 1.9003-5.3008 0-6.3-3.6992-11.199-14.199-18.699-18.2-13-26.6-22.5-30.9-34.6-1.8-5.1-2.0004-7.3012-1.4004-16.201 0.4-6.3 1.5997-13.5 3.0997-18.4 4.6-15.4 4.2011-20.098-2.2989-28.398-8.2-10.5-38.2-30.202-61.6-40.602-12.9-5.6-40.702-14.5-50.102-16-3.65-0.55-5.6247-0.82383-6.8497-0.73633zm-5264 0.025391c-1.225 0.0875-1.6996 0.5375-2.3496 1.4375-0.8 1.1-1.2996 2.4-1.0996 3 0.2 0.5 10.898 5.2996 23.898 10.6 25 10.1 29.2 12.4 43 22.6 15.8 11.7 23.801 22.6 26.801 36.5 1.1 4.9 1.0996 6.5016-0.40039 11.602-2.2 7.9-2.0992 20.098 0.30078 29.398 3.6 13.9 11 25.8 24.1 38.9 12.6 12.5 22.7 19 36.5 23.5 8.1 2.7 8.8996 2.8004 11.6 1.4004 1.4-0.8 1.9004-2.1008 1.9004-5.3008 0-6.3-3.6992-11.199-14.199-18.699-18.2-13-26.6-22.5-30.9-34.6-1.8-5.1-2.0004-7.3012-1.4004-16.201 0.4-6.3 1.5996-13.498 3.0996-18.398 4.6-15.4 4.2012-20.1-2.2988-28.4-8.2-10.5-38.202-30.2-61.602-40.6-12.9-5.6-40.7-14.5-50.1-16-3.65-0.55-5.6246-0.82578-6.8496-0.73828zm658 0c-1.225 0.0875-1.6996 0.5375-2.3496 1.4375-0.8 1.1-1.2996 2.4-1.0996 3 0.2 0.5 10.898 5.2996 23.898 10.6 25 10.1 29.2 12.4 43 22.6 15.8 11.7 23.801 22.6 26.801 36.5 1.1 4.9 1.0996 6.5016-0.4004 11.602-2.2 7.9-2.0992 20.098 0.3008 29.398 3.6 13.9 11 25.8 24.1 38.9 12.6 12.5 22.7 19 36.5 23.5 8.1 2.7 8.8996 2.8004 11.6 1.4004 1.4-0.8 1.9004-2.1008 1.9004-5.3008 0-6.3-3.6992-11.199-14.199-18.699-18.2-13-26.6-22.5-30.9-34.6-1.8-5.1-2.0004-7.3012-1.4004-16.201 0.4-6.3 1.5996-13.498 3.0996-18.398 4.6-15.4 4.2012-20.1-2.2988-28.4-8.2-10.5-38.202-30.2-61.602-40.6-12.9-5.6-40.7-14.5-50.1-16-3.65-0.55-5.6246-0.82578-6.8496-0.73828zm658 0c-1.225 0.0875-1.6996 0.5375-2.3496 1.4375-0.8 1.1-1.2996 2.4-1.0996 3 0.2 0.5 10.898 5.2996 23.898 10.6 25 10.1 29.2 12.4 43 22.6 15.8 11.7 23.801 22.6 26.801 36.5 1.1 4.9 1.0996 6.5016-0.4004 11.602-2.2 7.9-2.0992 20.098 0.3008 29.398 3.6 13.9 11 25.8 24.1 38.9 12.6 12.5 22.7 19 36.5 23.5 8.1 2.7 8.8996 2.8004 11.6 1.4004 1.4-0.8 1.9004-2.1008 1.9004-5.3008 0-6.3-3.6992-11.199-14.199-18.699-18.2-13-26.6-22.5-30.9-34.6-1.8-5.1-2.0004-7.3012-1.4004-16.201 0.4-6.3 1.5996-13.498 3.0996-18.398 4.6-15.4 4.2012-20.1-2.2988-28.4-8.2-10.5-38.202-30.2-61.602-40.6-12.9-5.6-40.7-14.5-50.1-16-3.65-0.55-5.6246-0.82578-6.8496-0.73828zm791.59 24.961c-2.8875-0.075-5.2867 0.30039-6.1367 1.1504-0.7857 0.78574-1.1862 1.5234-1.1269 2.3066 0.1083 1.715 2.4226 3.6505 7.7285 6.8203 9.5 5.6 15.098 10 17.398 13.5 0.9057 1.3742 1.4713 3.187 1.6973 5.4238 1e-4 1e-3 -1e-4 3e-3 0 4e-3 0.044 0.44016 0.076 0.89442 0.094 1.3672 0.016 0.43188 0.017 0.88291 0.012 1.3418-7e-4 0.0528 0 0.10117 0 0.1543v4e-3c-0.081 4.6355-1.2565 10.625-3.5059 17.879-2.5478 8.0569-3.6725 14.169-3.5058 19.447 0.015 0.47459 0.04 0.94237 0.076 1.4043 3e-4 4e-3 -4e-4 9e-3 0 0.0137 0.036 0.45765 0.083 0.91063 0.1386 1.3574 0.1707 1.3743 0.4346 2.7003 0.793 4.002 1.3 4.6 7.8992 13.602 12.199 16.602 3.7 2.5 10.302 2.8988 13.102 0.79883 1-0.8 1.6992-2.6988 1.6992-4.7988v-0.0273c0-0.15661-0.01-0.29387-0.016-0.44141-0.01-0.14932-0.01-0.30843-0.018-0.44922-0.1611-2.0285-0.9463-3.2156-2.9668-4.709-4.3-3.2-5.7996-6.7996-7.0996-17.1-0.2485-1.939-0.4295-3.524-0.539-4.8906-4e-4 -5e-3 4e-4 -9e-3 0-0.0137-0.054-0.68099-0.091-1.3065-0.1094-1.8945-0.092-2.959 0.2754-4.9512 1.1504-8.0762 0.9-3.2 1.5996-9.5 1.5996-14 0-0.96134-0.01-1.8191-0.021-2.6035-0.015-0.76768-0.041-1.4605-0.082-2.1055-6e-4 -9e-3 0-0.0164 0-0.0254-0.042-0.64252-0.1005-1.2342-0.1797-1.8008-0.4023-2.8809-1.3609-5.0774-3.6171-9.5898-4.7-9.3-12.599-17-19.699-19.5-2.8-0.95-6.175-1.4758-9.0625-1.5508zm658 0c-2.8875-0.075-5.2867 0.30039-6.1367 1.1504-0.7857 0.78574-1.1862 1.5234-1.1269 2.3066 0.1083 1.715 2.4226 3.6505 7.7285 6.8203 9.5 5.6 15.098 10 17.398 13.5 0.9057 1.3742 1.4713 3.187 1.6973 5.4238 1e-4 1e-3 -1e-4 3e-3 0 4e-3 0.044 0.44016 0.076 0.89442 0.094 1.3672 0.016 0.43188 0.017 0.88291 0.012 1.3418-7e-4 0.0528 0 0.10117 0 0.1543v4e-3c-0.081 4.6355-1.2565 10.625-3.5059 17.879-2.5478 8.0569-3.6725 14.169-3.5058 19.447 0.015 0.47459 0.04 0.94237 0.076 1.4043 3e-4 4e-3 -4e-4 9e-3 0 0.0137 0.036 0.45765 0.083 0.91063 0.1386 1.3574 0.1707 1.3743 0.4346 2.7003 0.793 4.002 1.3 4.6 7.8992 13.602 12.199 16.602 3.7 2.5 10.302 2.8988 13.102 0.79883 1-0.8 1.6992-2.6988 1.6992-4.7988v-0.0273c0-0.15661-0.01-0.29387-0.016-0.44141-0.01-0.14932-0.01-0.30843-0.018-0.44922-0.1611-2.0285-0.9463-3.2156-2.9668-4.709-4.3-3.2-5.7996-6.7996-7.0996-17.1-0.2485-1.939-0.4295-3.524-0.539-4.8906-4e-4 -5e-3 4e-4 -9e-3 0-0.0137-0.054-0.68099-0.091-1.3065-0.1094-1.8945-0.092-2.959 0.2754-4.9512 1.1504-8.0762 0.9-3.2 1.5996-9.5 1.5996-14 0-0.96134-0.01-1.8191-0.021-2.6035-0.015-0.76768-0.041-1.4605-0.082-2.1055-6e-4 -9e-3 0-0.0164 0-0.0254-0.042-0.64252-0.1005-1.2342-0.1797-1.8008-0.4023-2.8809-1.3609-5.0774-3.6171-9.5898-4.7-9.3-12.599-17-19.699-19.5-2.8-0.95-6.175-1.4758-9.0625-1.5508zm658 0c-2.8875-0.075-5.2867 0.30039-6.1367 1.1504-0.7857 0.78574-1.1862 1.5234-1.1269 2.3066 0.1083 1.715 2.4226 3.6505 7.7285 6.8203 9.5 5.6 15.098 10 17.398 13.5 0.9057 1.3742 1.4713 3.187 1.6973 5.4238 1e-4 1e-3 -1e-4 3e-3 0 4e-3 0.044 0.44016 0.076 0.89442 0.094 1.3672 0.016 0.43188 0.017 0.88291 0.012 1.3418-7e-4 0.0528 0 0.10117 0 0.1543v4e-3c-0.081 4.6355-1.2565 10.625-3.5059 17.879-2.5478 8.0569-3.6725 14.169-3.5058 19.447 0.015 0.47459 0.04 0.94237 0.076 1.4043 3e-4 4e-3 -4e-4 9e-3 0 0.0137 0.036 0.45765 0.083 0.91063 0.1386 1.3574 0.1707 1.3743 0.4346 2.7003 0.793 4.002 1.3 4.6 7.8992 13.602 12.199 16.602 3.7 2.5 10.302 2.8988 13.102 0.79883 1-0.8 1.6992-2.6988 1.6992-4.7988v-0.0273c0-0.15661-0.01-0.29387-0.016-0.44141-0.01-0.14932-0.01-0.30843-0.018-0.44922-0.1611-2.0285-0.9463-3.2156-2.9668-4.709-4.3-3.2-5.7996-6.7996-7.0996-17.1-0.2485-1.939-0.4295-3.524-0.539-4.8906-4e-4 -5e-3 4e-4 -9e-3 0-0.0137-0.054-0.68099-0.091-1.3065-0.1094-1.8945-0.092-2.959 0.2754-4.9512 1.1504-8.0762 0.9-3.2 1.5996-9.5 1.5996-14 0-0.96134-0.01-1.8191-0.021-2.6035-0.015-0.76768-0.041-1.4605-0.082-2.1055-6e-4 -9e-3 0-0.0164 0-0.0254-0.042-0.64252-0.1005-1.2342-0.1797-1.8008-0.4023-2.8809-1.3609-5.0774-3.6171-9.5898-4.7-9.3-12.599-17-19.699-19.5-2.8-0.95-6.175-1.4758-9.0625-1.5508zm658 0c-2.8875-0.075-5.2867 0.30039-6.1367 1.1504-2.5 2.5-1.1004 4.4996 6.5996 9.0996 9.5 5.6 15.1 10 17.4 13.5 2.9 4.4 2.2988 13.301-1.7012 26.201-3.7 11.7-4.4 19.299-2.5 26.199 1.3 4.6 7.9012 13.6 12.201 16.6 3.7 2.5 10.3 2.9008 13.1 0.80078 1-0.8 1.6992-2.7008 1.6992-4.8008 0-2.6-0.7-3.8996-3-5.5996-4.3-3.2-5.7996-6.7996-7.0996-17.1-1-7.8-0.9-9.9004 0.5-14.9 0.9-3.2 1.5996-9.5 1.5996-14 0-7.6-0.3003-8.8996-3.9003-16.1-4.7-9.3-12.599-17-19.699-19.5-2.8-0.95-6.175-1.4758-9.0625-1.5508zm658 0c-2.8875-0.075-5.2867 0.30039-6.1367 1.1504-2.5 2.5-1.1004 4.4996 6.5996 9.0996 9.5 5.6 15.1 10 17.4 13.5 2.9 4.4 2.2988 13.301-1.7012 26.201-3.7 11.7-4.4 19.299-2.5 26.199 1.3 4.6 7.9012 13.6 12.201 16.6 3.7 2.5 10.3 2.9008 13.1 0.80078 1-0.8 1.6992-2.7008 1.6992-4.8008 0-2.6-0.7-3.8996-3-5.5996-4.3-3.2-5.7996-6.7996-7.0996-17.1-1-7.8-0.9-9.9004 0.5-14.9 0.9-3.2 1.5996-9.5 1.5996-14 0-7.6-0.3003-8.8996-3.9003-16.1-4.7-9.3-12.599-17-19.699-19.5-2.8-0.95-6.175-1.4758-9.0625-1.5508zm658 0c-2.8875-0.075-5.2867 0.30039-6.1367 1.1504-2.5 2.5-1.1004 4.4996 6.5996 9.0996 9.5 5.6 15.1 10 17.4 13.5 2.9 4.4 2.2988 13.301-1.7012 26.201-3.7 11.7-4.4 19.299-2.5 26.199 1.3 4.6 7.9012 13.6 12.201 16.6 3.7 2.5 10.3 2.9008 13.1 0.80078 1-0.8 1.6992-2.7008 1.6992-4.8008 0-2.6-0.7-3.8996-3-5.5996-4.3-3.2-5.7996-6.7996-7.0996-17.1-1-7.8-0.9-9.9004 0.5-14.9 0.9-3.2 1.5996-9.5 1.5996-14 0-7.6-0.3003-8.8996-3.9003-16.1-4.7-9.3-12.599-17-19.699-19.5-2.8-0.95-6.175-1.4758-9.0625-1.5508zm-5264 0.02734c-2.8875-0.075-5.2887 0.29844-6.1387 1.1484-2.5 2.5-1.0984 4.5016 6.6016 9.1016 9.5 5.6 15.098 10 17.398 13.5 2.9 4.4 2.3008 13.299-1.6992 26.199-3.7 11.7-4.4 19.299-2.5 26.199 1.3 4.6 7.8992 13.602 12.199 16.602 3.7 2.5 10.302 2.8988 13.102 0.79883 1-0.8 1.6992-2.6988 1.6992-4.7988 0-2.6-0.7-3.9016-3-5.6016-4.3-3.2-5.7996-6.7996-7.0996-17.1-1-7.8-0.9-9.9004 0.5-14.9 0.9-3.2 1.5996-9.5 1.5996-14 0-7.6-0.30039-8.8996-3.9004-16.1-4.7-9.3-12.599-17-19.699-19.5-2.8-0.95-6.175-1.4738-9.0625-1.5488zm658 0c-2.8875-0.075-5.2887 0.29844-6.1387 1.1484-2.5 2.5-1.0984 4.5016 6.6016 9.1016 9.5 5.6 15.098 10 17.398 13.5 2.9 4.4 2.3008 13.299-1.6992 26.199-3.7 11.7-4.4 19.299-2.5 26.199 1.3 4.6 7.8992 13.602 12.199 16.602 3.7 2.5 10.302 2.8988 13.102 0.79883 1-0.8 1.6992-2.6988 1.6992-4.7988 0-2.6-0.7-3.9016-3-5.6016-4.3-3.2-5.7996-6.7996-7.0996-17.1-1-7.8-0.9-9.9004 0.5-14.9 0.9-3.2 1.5996-9.5 1.5996-14 0-7.6-0.3004-8.8996-3.9004-16.1-4.7-9.3-12.599-17-19.699-19.5-2.8-0.95-6.175-1.4738-9.0625-1.5488zm658 0c-2.8875-0.075-5.2887 0.29844-6.1387 1.1484-2.5 2.5-1.0984 4.5016 6.6016 9.1016 9.5 5.6 15.098 10 17.398 13.5 2.9 4.4 2.3008 13.299-1.6992 26.199-3.7 11.7-4.4 19.299-2.5 26.199 1.3 4.6 7.8992 13.602 12.199 16.602 3.7 2.5 10.302 2.8988 13.102 0.79883 1-0.8 1.6992-2.6988 1.6992-4.7988 0-2.6-0.7-3.9016-3-5.6016-4.3-3.2-5.7996-6.7996-7.0996-17.1-1-7.8-0.9-9.9004 0.5-14.9 0.9-3.2 1.5996-9.5 1.5996-14 0-7.6-0.3004-8.8996-3.9004-16.1-4.7-9.3-12.599-17-19.699-19.5-2.8-0.95-6.175-1.4738-9.0625-1.5488zm69.66 25.523-2.6992 2.0996c-1.8819 1.4114-2.7988 3.2961-2.8574 5.4082-8e-4 0.0258 5e-4 0.0523 0 0.0781 0 0.1843 0 0.36908 0.01 0.55664 1e-4 1e-3 0 3e-3 0 4e-3 0.011 0.20636 0.028 0.41511 0.055 0.625 0.533 4.3739 4.4094 9.471 10.797 13.354 9.3 5.6 22.399 16.8 27.199 23.4 2.4 3.3 5.2996 8.8996 6.5996 12.6 0.9688 2.9375 1.5562 6.3645 1.7754 10.102 0.022 0.36665 0.028 0.74471 0.043 1.1172 0.014 0.37847 0.036 0.75064 0.043 1.1348 0.1446 7.709-1.1757 16.521-3.8632 25.021-1.8 5.4-3.0997 11.8-3.0997 14.6v0.0254c3e-4 0.20396 0.022 0.40316 0.029 0.60547 0.3139 9.4186 8.0281 17.161 33.971 34.195 21.2 14 26.6 16.499 57 26.699 21.3 7.1 27.4 8.8004 30.9 8.4004 4.3125-0.40684 6.7044-1.7398 6.4766-3.5156-0.047-0.41419-0.2357-0.85396-0.5782-1.3105-0.7-0.9-8.3008-4.3988-16.801-7.7988-28-11.1-51.6-24.6-63.1-36-7.2-7.125-12.768-18.976-14.006-28.295-0.102-0.7679-0.1752-1.5166-0.2168-2.2461-1e-4 -2e-3 1e-4 -4e-3 0-6e-3 -0.1236-2.2092 0.036-4.223 0.5234-5.9277 0.7-2.2 1.2012-9.8 1.2012-17 0-2.5653-0.016-4.6144-0.057-6.3984-0.01-0.21541-0.01-0.47917-0.012-0.68554-0.1632-5.7636-0.7063-8.1101-2.4336-12.541-4.9-12.7-20.2-31.601-34.1-42.201-8.9-6.7-16.7-10.9-25.9-13.9zm658 0-2.6992 2.0996c-1.8819 1.4114-2.7988 3.2961-2.8574 5.4082-8e-4 0.0258 5e-4 0.0523 0 0.0781 0 0.1843 0 0.36908 0.01 0.55664 1e-4 1e-3 0 3e-3 0 4e-3 0.011 0.20636 0.028 0.41511 0.055 0.625 0.533 4.3739 4.4094 9.471 10.797 13.354 9.3 5.6 22.399 16.8 27.199 23.4 2.4 3.3 5.2996 8.8996 6.5996 12.6 0.9688 2.9375 1.5562 6.3645 1.7754 10.102 0.021 0.36665 0.028 0.74471 0.043 1.1172 0.014 0.37847 0.036 0.75064 0.043 1.1348 0.1446 7.709-1.1757 16.521-3.8632 25.021-1.8 5.4-3.0997 11.8-3.0997 14.6v0.0254c3e-4 0.20396 0.022 0.40316 0.029 0.60547 0.3139 9.4186 8.0281 17.161 33.971 34.195 21.2 14 26.6 16.499 57 26.699 21.3 7.1 27.4 8.8004 30.9 8.4004 4.3125-0.40684 6.7044-1.7398 6.4766-3.5156-0.047-0.41419-0.2357-0.85396-0.5782-1.3105-0.7-0.9-8.3008-4.3988-16.801-7.7988-28-11.1-51.6-24.6-63.1-36-7.2-7.125-12.768-18.976-14.006-28.295-0.102-0.7679-0.1752-1.5166-0.2168-2.2461-1e-4 -2e-3 1e-4 -4e-3 0-6e-3 -0.1236-2.2092 0.036-4.223 0.5234-5.9277 0.7-2.2 1.2012-9.8 1.2012-17 0-2.5653-0.016-4.6144-0.057-6.3984-0.01-0.21541-0.01-0.47917-0.012-0.68554-0.1632-5.7636-0.7063-8.1101-2.4336-12.541-4.9-12.7-20.2-31.601-34.1-42.201-8.9-6.7-16.7-10.9-25.9-13.9zm658 0-2.6992 2.0996c-1.8819 1.4114-2.7988 3.2961-2.8574 5.4082-8e-4 0.0258 5e-4 0.0523 0 0.0781 0 0.1843 0 0.36908 0.01 0.55664 1e-4 1e-3 0 3e-3 0 4e-3 0.011 0.20636 0.028 0.41511 0.055 0.625 0.533 4.3739 4.4094 9.471 10.797 13.354 9.3 5.6 22.399 16.8 27.199 23.4 2.4 3.3 5.2996 8.8996 6.5996 12.6 0.9688 2.9375 1.5562 6.3645 1.7754 10.102 0.021 0.36665 0.028 0.74471 0.043 1.1172 0.014 0.37847 0.036 0.75064 0.043 1.1348 0.1446 7.709-1.1757 16.521-3.8632 25.021-1.8 5.4-3.0997 11.8-3.0997 14.6v0.0254c3e-4 0.20396 0.022 0.40316 0.029 0.60547 0.3139 9.4186 8.0281 17.161 33.971 34.195 21.2 14 26.6 16.499 57 26.699 21.3 7.1 27.4 8.8004 30.9 8.4004 4.3125-0.40684 6.7044-1.7398 6.4766-3.5156-0.047-0.41419-0.2357-0.85396-0.5782-1.3105-0.7-0.9-8.3008-4.3988-16.801-7.7988-28-11.1-51.6-24.6-63.1-36-7.2-7.125-12.768-18.976-14.006-28.295-0.102-0.7679-0.1752-1.5166-0.2168-2.2461-1e-4 -2e-3 1e-4 -4e-3 0-6e-3 -0.1236-2.2092 0.036-4.223 0.5234-5.9277 0.7-2.2 1.2012-9.8 1.2012-17 0-2.5653-0.016-4.6144-0.057-6.3984-0.01-0.21541-0.01-0.47917-0.012-0.68554-0.1632-5.7636-0.7063-8.1101-2.4336-12.541-4.9-12.7-20.2-31.601-34.1-42.201-8.9-6.7-16.7-10.9-25.9-13.9zm658 0-2.6992 2.0996c-6 4.5-2.2 13.8 8 20 9.3 5.6 22.399 16.8 27.199 23.4 2.4 3.3 5.2997 8.8996 6.5997 12.6 3.1 9.4 2.3 23.8-2 37.4-1.8 5.4-3.0997 11.8-3.0997 14.6 0 9.7 7.5 17.401 34 34.801 21.2 14 26.6 16.499 57 26.699 21.3 7.1 27.4 8.8004 30.9 8.4004 5.3-0.5 7.7004-2.4008 5.9004-4.8008-0.7-0.9-8.3008-4.3988-16.801-7.7988-28-11.1-51.6-24.6-63.1-36-9.6-9.5-16.299-27.4-13.699-36.5 0.7-2.2 1.1992-9.8 1.1992-17 0-11.5-0.2-13.7-2.5-19.6-4.9-12.7-20.2-31.601-34.1-42.201-8.9-6.7-16.7-10.9-25.9-13.9zm658 0-2.6992 2.0996c-6 4.5-2.2 13.8 8 20 9.3 5.6 22.399 16.8 27.199 23.4 2.4 3.3 5.2997 8.8996 6.5997 12.6 3.1 9.4 2.3 23.8-2 37.4-1.8 5.4-3.0997 11.8-3.0997 14.6 0 9.7 7.5 17.401 34 34.801 21.2 14 26.6 16.499 57 26.699 21.3 7.1 27.4 8.8004 30.9 8.4004 5.3-0.5 7.7004-2.4008 5.9004-4.8008-0.7-0.9-8.3008-4.3988-16.801-7.7988-28-11.1-51.6-24.6-63.1-36-9.6-9.5-16.299-27.4-13.699-36.5 0.7-2.2 1.1992-9.8 1.1992-17 0-11.5-0.2-13.7-2.5-19.6-4.9-12.7-20.2-31.601-34.1-42.201-8.9-6.7-16.7-10.9-25.9-13.9zm658 0-2.6992 2.0996c-6 4.5-2.2 13.8 8 20 9.3 5.6 22.399 16.8 27.199 23.4 2.4 3.3 5.2997 8.8996 6.5997 12.6 3.1 9.4 2.3 23.8-2 37.4-1.8 5.4-3.0997 11.8-3.0997 14.6 0 9.7 7.5 17.401 34 34.801 21.2 14 26.6 16.499 57 26.699 21.3 7.1 27.4 8.8004 30.9 8.4004 5.3-0.5 7.7004-2.4008 5.9004-4.8008-0.7-0.9-8.3008-4.3988-16.801-7.7988-28-11.1-51.6-24.6-63.1-36-9.6-9.5-16.299-27.4-13.699-36.5 0.7-2.2 1.1992-9.8 1.1992-17 0-11.5-0.2-13.7-2.5-19.6-4.9-12.7-20.2-31.601-34.1-42.201-8.9-6.7-16.7-10.9-25.9-13.9zm-5264 0.02539-2.6992 2.0996c-6 4.5-2.2 13.8 8 20 9.3 5.6 22.399 16.8 27.199 23.4 2.4 3.3 5.2996 8.8996 6.5996 12.6 3.1 9.4 2.3 23.8-2 37.4-1.8 5.4-3.0996 11.8-3.0996 14.6 0 9.7 7.5 17.401 34 34.801 21.2 14 26.6 16.499 57 26.699 21.3 7.1 27.4 8.8004 30.9 8.4004 5.3-0.5 7.7004-2.3988 5.9004-4.7988-0.7-0.9-8.3008-4.4008-16.801-7.8008-28-11.1-51.6-24.6-63.1-36-9.6-9.5-16.301-27.4-13.701-36.5 0.7-2.2 1.2012-9.8 1.2012-17 0-11.5-0.2-13.7-2.5-19.6-4.9-12.7-20.2-31.601-34.1-42.201-8.9-6.7-16.7-10.898-25.9-13.898zm658 0-2.6992 2.0996c-6 4.5-2.2 13.8 8 20 9.3 5.6 22.399 16.8 27.199 23.4 2.4 3.3 5.2996 8.8996 6.5996 12.6 3.1 9.4 2.3 23.8-2 37.4-1.8 5.4-3.0996 11.8-3.0996 14.6 0 9.7 7.5 17.401 34 34.801 21.2 14 26.6 16.499 57 26.699 21.3 7.1 27.4 8.8004 30.9 8.4004 5.3-0.5 7.7004-2.3988 5.9004-4.7988-0.7-0.9-8.3008-4.4008-16.801-7.8008-28-11.1-51.6-24.6-63.1-36-9.6-9.5-16.301-27.4-13.701-36.5 0.7-2.2 1.2012-9.8 1.2012-17 0-11.5-0.2-13.7-2.5-19.6-4.9-12.7-20.2-31.601-34.1-42.201-8.9-6.7-16.7-10.898-25.9-13.898zm658 0-2.6992 2.0996c-6 4.5-2.2 13.8 8 20 9.3 5.6 22.399 16.8 27.199 23.4 2.4 3.3 5.2996 8.8996 6.5996 12.6 3.1 9.4 2.3 23.8-2 37.4-1.8 5.4-3.0996 11.8-3.0996 14.6 0 9.7 7.5 17.401 34 34.801 21.2 14 26.6 16.499 57 26.699 21.3 7.1 27.4 8.8004 30.9 8.4004 5.3-0.5 7.7004-2.3988 5.9004-4.7988-0.7-0.9-8.3008-4.4008-16.801-7.8008-28-11.1-51.6-24.6-63.1-36-9.6-9.5-16.301-27.4-13.701-36.5 0.7-2.2 1.2012-9.8 1.2012-17 0-11.5-0.2-13.7-2.5-19.6-4.9-12.7-20.2-31.601-34.1-42.201-8.9-6.7-16.7-10.898-25.9-13.898zm999.35 41.48c-6.1453-0.225-12.5 2.6438-15.65 7.5938-3.0678 4.7583-4.4496 8.4588-4.3672 13.211 0.01 0.47035 0.03 0.95034 0.066 1.4434 4e-4 5e-3 -3e-4 9e-3 0 0.0137 0.1835 2.4851 0.7266 5.2832 1.6016 8.6582 1.6 6.3 3.5008 8.7996 8.3008 11.1 3.3 1.5 5.6 1.8004 10.5 1.4004 11.8-1 12.2-1.2004 15-7.4004 1.9164-4.1146 2.9412-8.5788 3.0605-12.766 0.013-0.46441 0.015-0.92412 0.01-1.3809-0.01-0.44818-0.027-0.89283-0.057-1.332-5e-4 -9e-3 0-0.0168 0-0.0254-0.03-0.43883-0.073-0.87257-0.125-1.3008-0.2134-1.7546-0.6078-3.4128-1.1856-4.9199-2.2-5.7-6.8992-11.3-11.199-13-1.875-0.8-3.9008-1.2199-5.9492-1.2949zm658 0c-6.1453-0.225-12.5 2.6438-15.65 7.5938-3.0678 4.7583-4.4496 8.4588-4.3672 13.211 0.01 0.47035 0.03 0.95034 0.066 1.4434 4e-4 5e-3 -3e-4 9e-3 0 0.0137 0.1835 2.4851 0.7266 5.2832 1.6016 8.6582 1.6 6.3 3.5008 8.7996 8.3008 11.1 3.3 1.5 5.6 1.8004 10.5 1.4004 11.8-1 12.2-1.2004 15-7.4004 1.9164-4.1146 2.9412-8.5788 3.0605-12.766 0.013-0.46441 0.015-0.92412 0.01-1.3809-0.01-0.44818-0.027-0.89283-0.057-1.332-5e-4 -9e-3 0-0.0168 0-0.0254-0.03-0.43883-0.073-0.87257-0.125-1.3008-0.2134-1.7546-0.6078-3.4128-1.1856-4.9199-2.2-5.7-6.8992-11.3-11.199-13-1.875-0.8-3.9008-1.2199-5.9492-1.2949zm658 0c-6.1453-0.225-12.5 2.6438-15.65 7.5938-3.0678 4.7583-4.4496 8.4588-4.3672 13.211 0.01 0.47035 0.03 0.95034 0.066 1.4434 4e-4 5e-3 -3e-4 9e-3 0 0.0137 0.1835 2.4851 0.7266 5.2832 1.6016 8.6582 1.6 6.3 3.5008 8.7996 8.3008 11.1 3.3 1.5 5.6 1.8004 10.5 1.4004 11.8-1 12.2-1.2004 15-7.4004 1.9164-4.1146 2.9412-8.5788 3.0605-12.766 0.013-0.46441 0.015-0.92412 0.01-1.3809-0.01-0.44818-0.027-0.89283-0.057-1.332-5e-4 -9e-3 0-0.0168 0-0.0254-0.03-0.43883-0.073-0.87257-0.125-1.3008-0.2134-1.7546-0.6078-3.4128-1.1856-4.9199-2.2-5.7-6.8992-11.3-11.199-13-1.875-0.8-3.9008-1.2199-5.9492-1.2949zm658 0c-6.1453-0.225-12.5 2.6438-15.65 7.5938-4.9 7.6-5.5012 12.501-2.7012 23.301 1.6 6.3 3.5008 8.7996 8.3008 11.1 3.3 1.5 5.6 1.8004 10.5 1.4004 11.8-1 12.2-1.2004 15-7.4004 3.4-7.3 3.9992-15.699 1.6992-21.699-2.2-5.7-6.8992-11.3-11.199-13-1.875-0.8-3.9008-1.2199-5.9492-1.2949zm658 0c-6.1453-0.225-12.5 2.6438-15.65 7.5938-4.9 7.6-5.5012 12.501-2.7012 23.301 1.6 6.3 3.5008 8.7996 8.3008 11.1 3.3 1.5 5.6 1.8004 10.5 1.4004 11.8-1 12.2-1.2004 15-7.4004 3.4-7.3 3.9992-15.699 1.6992-21.699-2.2-5.7-6.8992-11.3-11.199-13-1.875-0.8-3.9008-1.2199-5.9492-1.2949zm658 0c-6.1453-0.225-12.5 2.6438-15.65 7.5938-4.9 7.6-5.5012 12.501-2.7012 23.301 1.6 6.3 3.5008 8.7996 8.3008 11.1 3.3 1.5 5.6 1.8004 10.5 1.4004 11.8-1 12.2-1.2004 15-7.4004 3.4-7.3 3.9992-15.699 1.6992-21.699-2.2-5.7-6.8992-11.3-11.199-13-1.875-0.8-3.9008-1.2199-5.9492-1.2949zm-5264 0.0254c-6.1453-0.225-12.502 2.6438-15.652 7.5938-4.9 7.6-5.4992 12.501-2.6992 23.301 1.6 6.3 3.5008 8.7996 8.3008 11.1 3.3 1.5 5.6 1.8004 10.5 1.4004 11.8-1 12.2-1.2004 15-7.4004 3.4-7.3 3.9992-15.699 1.6992-21.699-2.2-5.7-6.8992-11.3-11.199-13-1.875-0.8-3.9008-1.2199-5.9492-1.2949zm658 0c-6.1453-0.225-12.502 2.6438-15.652 7.5938-4.9 7.6-5.4992 12.501-2.6992 23.301 1.6 6.3 3.5008 8.7996 8.3008 11.1 3.3 1.5 5.6 1.8004 10.5 1.4004 11.8-1 12.2-1.2004 15-7.4004 3.4-7.3 3.9992-15.699 1.6992-21.699-2.2-5.7-6.8992-11.3-11.199-13-1.875-0.8-3.9008-1.2199-5.9492-1.2949zm658 0c-6.1454-0.225-12.502 2.6438-15.652 7.5938-4.9 7.6-5.4992 12.501-2.6992 23.301 1.6 6.3 3.5008 8.7996 8.3008 11.1 3.3 1.5 5.6 1.8004 10.5 1.4004 11.8-1 12.2-1.2004 15-7.4004 3.4-7.3 3.9992-15.699 1.6992-21.699-2.2-5.7-6.8992-11.3-11.199-13-1.875-0.8-3.9008-1.2199-5.9492-1.2949zm591.14 2.5332c-1.4502 0.0568-3.2793 0.34844-6.0918 0.83594-11.54 2.064-14.804 5.2739-15.246 16.15-0.029 0.71648-0.049 1.4651-0.055 2.25-0.013 0.59713-0.012 1.1646 0 1.7109 0 0.2383 0.02 0.45773 0.029 0.6875 0.031 0.7987 0.083 1.5635 0.1719 2.2773 0.2908 2.3272 0.8988 4.2798 1.9023 6.3496 2.8 5.8 8.5008 11.399 12.801 12.699 1.9 0.6 5.5 1.0996 8 1.0996 3.8 0.1 5.1004-0.4 7.9004-3 6.1913-5.8161 9.1355-11.318 9.1035-17.609-0.014-3.7756-1.1025-7.8354-3.2051-12.416-2.9-6.4-3.6004-7.0992-8.4004-9.1992-3.125-1.375-4.4912-1.9307-6.9082-1.8359zm658 0c-1.4502 0.0568-3.2793 0.34844-6.0918 0.83594-11.54 2.064-14.804 5.2739-15.246 16.15-0.029 0.71648-0.049 1.4651-0.055 2.25-0.013 0.59713-0.012 1.1646 0 1.7109 0 0.2383 0.02 0.45773 0.029 0.6875 0.031 0.7987 0.083 1.5635 0.1719 2.2773 0.2908 2.3272 0.8988 4.2798 1.9023 6.3496 2.8 5.8 8.5008 11.399 12.801 12.699 1.9 0.6 5.5 1.0996 8 1.0996 3.8 0.1 5.1004-0.4 7.9004-3 6.1913-5.8161 9.1355-11.318 9.1035-17.609-0.014-3.7756-1.1025-7.8354-3.2051-12.416-2.9-6.4-3.6004-7.0992-8.4004-9.1992-3.125-1.375-4.4912-1.9307-6.9082-1.8359zm658 0c-1.4502 0.0568-3.2793 0.34844-6.0918 0.83594-11.54 2.064-14.804 5.2739-15.246 16.15-0.029 0.71648-0.049 1.4651-0.055 2.25-0.013 0.59713-0.012 1.1646 0 1.7109 0 0.2383 0.02 0.45773 0.029 0.6875 0.031 0.7987 0.083 1.5635 0.1719 2.2773 0.2908 2.3272 0.8988 4.2798 1.9023 6.3496 2.8 5.8 8.5008 11.399 12.801 12.699 1.9 0.6 5.5 1.0996 8 1.0996 3.8 0.1 5.1004-0.4 7.9004-3 6.1913-5.8161 9.1355-11.318 9.1035-17.609-0.014-3.7756-1.1025-7.8354-3.2051-12.416-2.9-6.4-3.6004-7.0992-8.4004-9.1992-3.125-1.375-4.4912-1.9307-6.9082-1.8359zm658 0c-1.4502 0.0568-3.2793 0.34844-6.0918 0.83594-12.3 2.2-15.201 5.7004-15.301 18.4-0.1 4.7 0.5015 7.7 2.1015 11 2.8 5.8 8.4988 11.399 12.799 12.699 1.9 0.6 5.5 1.0996 8 1.0996 3.8 0.1 5.1004-0.4 7.9004-3 9.9-9.3 11.5-17.8 5.9004-30-2.9-6.4-3.6004-7.0992-8.4004-9.1992-3.125-1.375-4.4912-1.9307-6.9082-1.8359zm658 0c-1.4502 0.0568-3.2793 0.34844-6.0918 0.83594-12.3 2.2-15.201 5.7004-15.301 18.4-0.1 4.7 0.5015 7.7 2.1015 11 2.8 5.8 8.4988 11.399 12.799 12.699 1.9 0.6 5.5 1.0996 8 1.0996 3.8 0.1 5.1004-0.4 7.9004-3 9.9-9.3 11.5-17.8 5.9004-30-2.9-6.4-3.6004-7.0992-8.4004-9.1992-3.125-1.375-4.4912-1.9307-6.9082-1.8359zm658 0c-1.4502 0.0568-3.2793 0.34844-6.0918 0.83594-12.3 2.2-15.201 5.7004-15.301 18.4-0.1 4.7 0.5015 7.7 2.1015 11 2.8 5.8 8.4988 11.399 12.799 12.699 1.9 0.6 5.5 1.0996 8 1.0996 3.8 0.1 5.1004-0.4 7.9004-3 9.9-9.3 11.5-17.8 5.9004-30-2.9-6.4-3.6004-7.0992-8.4004-9.1992-3.125-1.375-4.4912-1.9307-6.9082-1.8359zm-5264 0.0274c-1.4502 0.0568-3.2773 0.34648-6.0898 0.83398-12.3 2.2-15.201 5.7004-15.301 18.4-0.1 4.7 0.49961 7.7 2.0996 11 2.8 5.8 8.5008 11.399 12.801 12.699 1.9 0.6 5.5 1.0996 8 1.0996 3.8 0.1 5.1004-0.4 7.9004-3 9.9-9.3 11.5-17.8 5.9004-30-2.9-6.4-3.6004-7.0992-8.4004-9.1992-3.125-1.375-4.4932-1.9287-6.9102-1.834zm658 0c-1.4502 0.0568-3.2773 0.34648-6.0898 0.83398-12.3 2.2-15.201 5.7004-15.301 18.4-0.1 4.7 0.49961 7.7 2.0996 11 2.8 5.8 8.5008 11.399 12.801 12.699 1.9 0.6 5.5 1.0996 8 1.0996 3.8 0.1 5.1004-0.4 7.9004-3 9.9-9.3 11.5-17.8 5.9004-30-2.9-6.4-3.6004-7.0992-8.4004-9.1992-3.125-1.375-4.4932-1.9287-6.9102-1.834zm658 0c-1.4502 0.0568-3.2773 0.34648-6.0898 0.83398-12.3 2.2-15.201 5.7004-15.301 18.4-0.1 4.7 0.4996 7.7 2.0996 11 2.8 5.8 8.5008 11.399 12.801 12.699 1.9 0.6 5.5 1.0996 8 1.0996 3.8 0.1 5.1004-0.4 7.9004-3 9.9-9.3 11.5-17.8 5.9004-30-2.9-6.4-3.6004-7.0992-8.4004-9.1992-3.125-1.375-4.4932-1.9287-6.9102-1.834zm375.67 15.307c-1.3536 0.0565-2.8926 0.48242-4.8614 1.2012-2.9 1.1-3.3008 1.6008-3.3008 4.8008 0 0.31759 0.013 0.62256 0.035 0.91797 3e-4 4e-3 -3e-4 8e-3 0 0.0117 0.022 0.28166 0.053 0.55421 0.096 0.8164 0.2599 1.6337 0.9155 2.899 1.9707 3.8789 3 2.7 5.7004 8.3996 7.4004 15.6 0.475 2 0.8309 3.8449 1.0684 5.5684 0.1169 0.85238 0.2068 1.6748 0.2656 2.4726 6e-4 9e-3 0 0.0186 0 0.0274 0.058 0.79606 0.088 1.5678 0.088 2.3184 0 3.0375-0.4758 5.7387-1.4258 8.3887-0.8 2.3-1.5 6.4-1.5 9 0 0.3879 0.014 0.80262 0.039 1.2383v2e-3c0.024 0.42017 0.06 0.85962 0.1055 1.3184 0.6513 6.5451 3.454 16.748 6.2578 22.268 2.9 5.7 9.9988 12.398 14.799 13.898 4.4 1.4 14.4 1.6008 16.9 0.30078 1.0456-0.57033 1.6344-1.1404 1.7383-1.7871 0.02-0.12168 0.027-0.2474 0.012-0.375-0.1374-1.3385-2.221-3.0286-6.5508-5.6641-9-5.4-14.901-10.599-17.301-15.299-1.122-2.1318-1.7815-4.9774-1.996-8.2012-2e-4 -3e-3 1e-4 -5e-3 0-8e-3 -0.016-0.24605-0.022-0.50165-0.033-0.75196-0.014-0.30329-0.031-0.60305-0.037-0.91211 0-6.6e-4 1e-4 -1e-3 0-2e-3 -0.092-5.0214 0.8148-10.765 2.668-16.1 1.9-5.4 2.5996-9.4996 2.5996-15.1 1e-4 -9e-3 -1e-4 -0.018 0-0.0273 6e-4 -0.0553 0-0.10706 0-0.16211 0-0.52932 0-1.0522-0.012-1.5606-0.01-0.20605-0.019-0.4026-0.027-0.60547-0.037-0.89429-0.096-1.7652-0.1934-2.6055-0.7839-6.7631-3.6215-11.989-9.9668-19.066-3.7812-4.2625-5.8601-5.9251-8.8378-5.8008zm658 0c-1.3536 0.0565-2.8926 0.48242-4.8614 1.2012-2.9 1.1-3.3008 1.6008-3.3008 4.8008 0 0.31759 0.013 0.62256 0.035 0.91797 3e-4 4e-3 -3e-4 8e-3 0 0.0117 0.022 0.28166 0.053 0.55421 0.096 0.8164 0.2599 1.6337 0.9155 2.899 1.9707 3.8789 3 2.7 5.7004 8.3996 7.4004 15.6 0.475 2 0.8309 3.8449 1.0684 5.5684 0.1169 0.85238 0.2068 1.6748 0.2656 2.4726 6e-4 9e-3 0 0.0186 0 0.0274 0.058 0.79606 0.088 1.5678 0.088 2.3184 0 3.0375-0.4758 5.7387-1.4258 8.3887-0.8 2.3-1.5 6.4-1.5 9 0 0.3879 0.014 0.80262 0.039 1.2383v2e-3c0.024 0.42017 0.059 0.85962 0.1055 1.3184 0.6513 6.5451 3.454 16.748 6.2578 22.268 2.9 5.7 9.9988 12.398 14.799 13.898 4.4 1.4 14.4 1.6008 16.9 0.30078 1.0456-0.57033 1.6344-1.1404 1.7383-1.7871 0.019-0.12168 0.027-0.2474 0.012-0.375-0.1374-1.3385-2.221-3.0286-6.5508-5.6641-9-5.4-14.901-10.599-17.301-15.299-1.122-2.1318-1.7815-4.9774-1.996-8.2012-2e-4 -3e-3 1e-4 -5e-3 0-8e-3 -0.016-0.24605-0.022-0.50165-0.033-0.75196-0.014-0.30329-0.031-0.60305-0.037-0.91211 0-6.6e-4 1e-4 -1e-3 0-2e-3 -0.092-5.0214 0.8148-10.765 2.668-16.1 1.9-5.4 2.5996-9.4996 2.5996-15.1 1e-4 -9e-3 -1e-4 -0.018 0-0.0273 6e-4 -0.0553 0-0.10706 0-0.16211 0-0.52932 0-1.0522-0.012-1.5606-0.01-0.20605-0.019-0.4026-0.027-0.60547-0.037-0.89429-0.096-1.7652-0.1934-2.6055-0.7839-6.7631-3.6215-11.989-9.9668-19.066-3.7812-4.2625-5.8601-5.9251-8.8378-5.8008zm658 0c-1.3536 0.0565-2.8926 0.48242-4.8614 1.2012-2.9 1.1-3.3008 1.6008-3.3008 4.8008 0 0.31759 0.013 0.62256 0.035 0.91797 3e-4 4e-3 -3e-4 8e-3 0 0.0117 0.022 0.28166 0.053 0.55421 0.096 0.8164 0.2599 1.6337 0.9155 2.899 1.9707 3.8789 3 2.7 5.7004 8.3996 7.4004 15.6 0.475 2 0.8309 3.8449 1.0684 5.5684 0.1169 0.85238 0.2068 1.6748 0.2656 2.4726 6e-4 9e-3 0 0.0186 0 0.0274 0.058 0.79606 0.088 1.5678 0.088 2.3184 0 3.0375-0.4758 5.7387-1.4258 8.3887-0.8 2.3-1.5 6.4-1.5 9 0 0.3879 0.014 0.80262 0.039 1.2383v2e-3c0.024 0.42017 0.059 0.85962 0.1055 1.3184 0.6513 6.5451 3.454 16.748 6.2578 22.268 2.9 5.7 9.9988 12.398 14.799 13.898 4.4 1.4 14.4 1.6008 16.9 0.30078 1.0456-0.57033 1.6344-1.1404 1.7383-1.7871 0.019-0.12168 0.027-0.2474 0.012-0.375-0.1374-1.3385-2.221-3.0286-6.5508-5.6641-9-5.4-14.901-10.599-17.301-15.299-1.122-2.1318-1.7815-4.9774-1.996-8.2012-2e-4 -3e-3 1e-4 -5e-3 0-8e-3 -0.016-0.24605-0.022-0.50165-0.033-0.75196-0.014-0.30329-0.031-0.60305-0.037-0.91211 0-6.6e-4 1e-4 -1e-3 0-2e-3 -0.092-5.0214 0.8148-10.765 2.668-16.1 1.9-5.4 2.5996-9.4996 2.5996-15.1 1e-4 -9e-3 -1e-4 -0.018 0-0.0273 6e-4 -0.0553 0-0.10706 0-0.16211 0-0.52932 0-1.0522-0.012-1.5606-0.01-0.20605-0.019-0.4026-0.027-0.60547-0.037-0.89429-0.096-1.7652-0.1934-2.6055-0.7839-6.7631-3.6215-11.989-9.9668-19.066-3.7812-4.2625-5.8601-5.9251-8.8378-5.8008zm658 0c-1.3536 0.0565-2.8926 0.48242-4.8614 1.2012-2.9 1.1-3.3008 1.6008-3.3008 4.8008 0 2.5 0.6997 4.2996 2.0997 5.5996 3 2.7 5.7003 8.3996 7.4003 15.6 1.9 8 1.9 13.501 0 18.801-0.8 2.3-1.5 6.4-1.5 9 0 6.1 3.2004 18.499 6.4004 24.799 2.9 5.7 10.001 12.4 14.801 13.9 4.4 1.4 14.398 1.6008 16.898 0.30078 3.3-1.8 2.1011-3.6008-4.7989-7.8008-9-5.4-14.901-10.599-17.301-15.299-3-5.7-2.7003-16.5 0.5997-26 1.9-5.4 2.6015-9.5016 2.6015-15.102 0.1-9.4-2.4012-15.3-10.201-24-3.7812-4.2625-5.8601-5.9251-8.8378-5.8008zm658 0c-1.3536 0.0565-2.8926 0.48242-4.8614 1.2012-2.9 1.1-3.3008 1.6008-3.3008 4.8008 0 2.5 0.6997 4.2996 2.0997 5.5996 3 2.7 5.7003 8.3996 7.4003 15.6 1.9 8 1.9 13.501 0 18.801-0.8 2.3-1.5 6.4-1.5 9 0 6.1 3.2004 18.499 6.4004 24.799 2.9 5.7 10.001 12.4 14.801 13.9 4.4 1.4 14.398 1.6008 16.898 0.30078 3.3-1.8 2.1011-3.6008-4.7989-7.8008-9-5.4-14.901-10.599-17.301-15.299-3-5.7-2.7003-16.5 0.5997-26 1.9-5.4 2.6015-9.5016 2.6015-15.102 0.1-9.4-2.4012-15.3-10.201-24-3.7812-4.2625-5.8601-5.9251-8.8378-5.8008zm658 0c-1.3536 0.0565-2.8926 0.48242-4.8614 1.2012-2.9 1.1-3.3008 1.6008-3.3008 4.8008 0 2.5 0.6997 4.2996 2.0997 5.5996 3 2.7 5.7003 8.3996 7.4003 15.6 1.9 8 1.9 13.501 0 18.801-0.8 2.3-1.5 6.4-1.5 9 0 6.1 3.2004 18.499 6.4004 24.799 2.9 5.7 10.001 12.4 14.801 13.9 4.4 1.4 14.398 1.6008 16.898 0.30078 3.3-1.8 2.1011-3.6008-4.7989-7.8008-9-5.4-14.901-10.599-17.301-15.299-3-5.7-2.7003-16.5 0.5997-26 1.9-5.4 2.6015-9.5016 2.6015-15.102 0.1-9.4-2.4012-15.3-10.201-24-3.7812-4.2625-5.8601-5.9251-8.8378-5.8008zm-5264 0.0254c-1.3535 0.0565-2.8926 0.48242-4.8613 1.2012-2.9 1.0999-3.3008 1.6007-3.3008 4.8007 0 2.5 0.69961 4.2996 2.0996 5.5996 3 2.7 5.7004 8.3996 7.4004 15.6 1.9 8 1.9 13.501 0 18.801-0.8 2.3-1.5 6.4-1.5 9 0 6.1 3.2004 18.501 6.4004 24.801 2.9 5.7 9.9988 12.398 14.799 13.898 4.4 1.4 14.4 1.6008 16.9 0.30078 3.3-1.8 2.1012-3.6008-4.7988-7.8008-9-5.4-14.901-10.599-17.301-15.299-3-5.7-2.7004-16.5 0.59961-26 1.9-5.4 2.5996-9.4996 2.5996-15.1 0.1-9.4-2.3992-15.3-10.199-24-3.7812-4.2625-5.8602-5.9271-8.8379-5.8027zm658 0c-1.3535 0.0565-2.8926 0.48242-4.8613 1.2012-2.9 1.0999-3.3008 1.6007-3.3008 4.8007 0 2.5 0.69961 4.2996 2.0996 5.5996 3 2.7 5.7004 8.3996 7.4004 15.6 1.9 8 1.9 13.501 0 18.801-0.8 2.3-1.5 6.4-1.5 9 0 6.1 3.2004 18.501 6.4004 24.801 2.9 5.7 9.9988 12.398 14.799 13.898 4.4 1.4 14.4 1.6008 16.9 0.30078 3.3-1.8 2.1012-3.6008-4.7988-7.8008-9-5.4-14.901-10.599-17.301-15.299-3-5.7-2.7004-16.5 0.59961-26 1.9-5.4 2.5996-9.4996 2.5996-15.1 0.1-9.4-2.3992-15.3-10.199-24-3.7812-4.2625-5.8602-5.9271-8.8379-5.8027zm658 0c-1.3535 0.0565-2.8926 0.48242-4.8613 1.2012-2.9 1.1-3.3008 1.6008-3.3008 4.8008 0 2.5 0.6996 4.2996 2.0996 5.5996 3 2.7 5.7004 8.3996 7.4004 15.6 1.9 8 1.9 13.501 0 18.801-0.8 2.3-1.5 6.4-1.5 9 0 6.1 3.2004 18.501 6.4004 24.801 2.9 5.7 9.9988 12.398 14.799 13.898 4.4 1.4 14.4 1.6008 16.9 0.30078 3.3-1.8 2.1012-3.6008-4.7988-7.8008-9-5.4-14.901-10.599-17.301-15.299-3-5.7-2.7004-16.5 0.5996-26 1.9-5.4 2.5996-9.4996 2.5996-15.1 0.1-9.4-2.3992-15.3-10.199-24-3.7812-4.2625-5.8602-5.9271-8.8379-5.8027zm1206.1 62.494c-0.961-0.0437-1.7168 0.4375-2.5606 1.2812-1.204 1.2793-1.7275 2.4476-1.8281 4.9492-0.016 0.40918-0.023 0.85284-0.018 1.3398 0 0.18421 0.013 0.40492 0.018 0.60156 0.01 0.3291 0.012 0.64338 0.027 1.0098 0.019 0.59375 0.017 1.2001-0.01 1.8184-0.3666 9.2732-5.5293 21.15-13.592 31.182-5.1 6.4-14.3 14.8-18 16.6-1.7 0.7-2.3008 1.9012-2.3008 4.2012v0.0254c7e-4 0.42033 0.019 0.84453 0.053 1.252 0.1023 1.2448 0.3451 2.3228 0.6465 2.5488 1.5 1.5 12.5 0.6 18-1.5 7.4-2.7 19.302-14.3 24.102-23.5 1.8-3.5 3.8996-6.3008 4.5996-6.3008s3.9 0.9 7 2c12.2 4.2 25.4 6.2992 35.1 5.6992 7.8209-0.50134 11.719-0.82615 11.547-2.0215-0.1133-1.185-4.3094-3.235-12.748-7.2031-18.4-8.7-27-14.301-37.6-24.301-7.2187-6.9438-10.325-9.5855-12.439-9.6816zm658 0c-0.961-0.0437-1.7168 0.4375-2.5606 1.2812-1.204 1.2793-1.7275 2.4476-1.8281 4.9492-0.016 0.40918-0.023 0.85284-0.018 1.3398 0 0.18421 0.013 0.40492 0.018 0.60156 0.01 0.3291 0.012 0.64338 0.027 1.0098 0.019 0.59375 0.017 1.2001-0.01 1.8184-0.3666 9.2732-5.5293 21.15-13.592 31.182-5.1 6.4-14.3 14.8-18 16.6-1.7 0.7-2.3008 1.9012-2.3008 4.2012v0.0254c7e-4 0.42033 0.019 0.84453 0.053 1.252 0.1023 1.2448 0.3451 2.3228 0.6465 2.5488 1.5 1.5 12.5 0.6 18-1.5 7.4-2.7 19.302-14.3 24.102-23.5 1.8-3.5 3.8996-6.3008 4.5996-6.3008s3.9 0.9 7 2c12.2 4.2 25.4 6.2992 35.1 5.6992 7.8209-0.50134 11.719-0.82615 11.547-2.0215-0.1133-1.185-4.3094-3.235-12.748-7.2031-18.4-8.7-27-14.301-37.6-24.301-7.2187-6.9438-10.325-9.5855-12.439-9.6816zm658 0c-0.961-0.0437-1.7168 0.4375-2.5606 1.2812-1.204 1.2793-1.7275 2.4476-1.8281 4.9492-0.016 0.40918-0.023 0.85284-0.018 1.3398 0 0.18421 0.013 0.40492 0.018 0.60156 0.01 0.3291 0.012 0.64338 0.027 1.0098 0.019 0.59375 0.017 1.2001-0.01 1.8184-0.3666 9.2732-5.5293 21.15-13.592 31.182-5.1 6.4-14.3 14.8-18 16.6-1.7 0.7-2.3008 1.9012-2.3008 4.2012v0.0254c7e-4 0.42033 0.019 0.84453 0.053 1.252 0.1023 1.2448 0.3451 2.3228 0.6465 2.5488 1.5 1.5 12.5 0.6 18-1.5 7.4-2.7 19.302-14.3 24.102-23.5 1.8-3.5 3.8996-6.3008 4.5996-6.3008s3.9 0.9 7 2c12.2 4.2 25.4 6.2992 35.1 5.6992 7.8209-0.50134 11.719-0.82615 11.547-2.0215-0.1133-1.185-4.3094-3.235-12.748-7.2031-18.4-8.7-27-14.301-37.6-24.301-7.2187-6.9438-10.325-9.5855-12.439-9.6816zm658 0c-0.961-0.0437-1.7168 0.4375-2.5606 1.2812-1.6 1.7-2.0008 3.2004-1.8008 7.9004 0.3 9.5-4.9996 22.3-13.6 33-5.1 6.4-14.3 14.8-18 16.6-1.7 0.7-2.3008 1.9012-2.3008 4.2012 0 1.7 0.3012 3.4988 0.7012 3.7988 1.5 1.5 12.5 0.6 18-1.5 7.4-2.7 19.3-14.3 24.1-23.5 1.8-3.5 3.8996-6.2988 4.5996-6.2988s3.9 0.9 7 2c12.2 4.2 25.4 6.2992 35.1 5.6992 15.6-1 15.601-1.2992-1.1992-9.1992-18.4-8.7-27-14.301-37.6-24.301-7.2187-6.9438-10.325-9.5855-12.439-9.6816zm658 0c-0.961-0.0437-1.7168 0.4375-2.5606 1.2812-1.6 1.7-2.0008 3.2004-1.8008 7.9004 0.3 9.5-4.9996 22.3-13.6 33-5.1 6.4-14.3 14.8-18 16.6-1.7 0.7-2.3008 1.9012-2.3008 4.2012 0 1.7 0.3012 3.4988 0.7012 3.7988 1.5 1.5 12.5 0.6 18-1.5 7.4-2.7 19.3-14.3 24.1-23.5 1.8-3.5 3.8996-6.2988 4.5996-6.2988s3.9 0.9 7 2c12.2 4.2 25.4 6.2992 35.1 5.6992 15.6-1 15.601-1.2992-1.1992-9.1992-18.4-8.7-27-14.301-37.6-24.301-7.2187-6.9438-10.325-9.5855-12.439-9.6816zm658 0c-0.961-0.0437-1.7168 0.4375-2.5606 1.2812-1.6 1.7-2.0008 3.2004-1.8008 7.9004 0.3 9.5-4.9996 22.3-13.6 33-5.1 6.4-14.3 14.8-18 16.6-1.7 0.7-2.3008 1.9012-2.3008 4.2012 0 1.7 0.3012 3.4988 0.7012 3.7988 1.5 1.5 12.5 0.6 18-1.5 7.4-2.7 19.3-14.3 24.1-23.5 1.8-3.5 3.8996-6.2988 4.5996-6.2988s3.9 0.9 7 2c12.2 4.2 25.4 6.2992 35.1 5.6992 15.6-1 15.601-1.2992-1.1992-9.1992-18.4-8.7-27-14.301-37.6-24.301-7.2187-6.9438-10.325-9.5855-12.439-9.6816zm-5264 0.0254c-0.96094-0.0437-1.7168 0.43945-2.5606 1.2832-1.6 1.7-1.9988 3.1984-1.7988 7.8984 0.3 9.5-4.9996 22.3-13.6 33-5.1 6.4-14.3 14.802-18 16.602-1.7 0.7-2.3008 1.8992-2.3008 4.1992 0 1.7 0.29922 3.5008 0.69922 3.8008 1.5 1.5 12.5 0.6 18-1.5 7.4-2.7 19.302-14.3 24.102-23.5 1.8-3.5 3.8996-6.3008 4.5996-6.3008s3.9 0.9 7 2c12.2 4.2 25.4 6.2992 35.1 5.6992 15.6-1 15.601-1.2992-1.1992-9.1992-18.4-8.7-27.002-14.301-37.602-24.301-7.2188-6.9438-10.325-9.5855-12.439-9.6816zm658 0c-0.961-0.0437-1.7168 0.43945-2.5606 1.2832-1.6 1.7-1.9988 3.1984-1.7988 7.8984 0.3 9.5-4.9996 22.3-13.6 33-5.1 6.4-14.3 14.802-18 16.602-1.7 0.7-2.3008 1.8992-2.3008 4.1992 0 1.7 0.2992 3.5008 0.6992 3.8008 1.5 1.5 12.5 0.6 18-1.5 7.4-2.7 19.302-14.3 24.102-23.5 1.8-3.5 3.8996-6.3008 4.5996-6.3008s3.9 0.9 7 2c12.2 4.2 25.4 6.2992 35.1 5.6992 15.6-1 15.601-1.2992-1.1992-9.1992-18.4-8.7-27.002-14.301-37.602-24.301-7.2187-6.9438-10.325-9.5855-12.439-9.6816zm658 0c-0.961-0.0437-1.7168 0.43945-2.5606 1.2832-1.6 1.7-1.9988 3.1984-1.7988 7.8984 0.3 9.5-4.9996 22.3-13.6 33-5.1 6.4-14.3 14.802-18 16.602-1.7 0.7-2.3008 1.8992-2.3008 4.1992 0 1.7 0.2992 3.5008 0.6992 3.8008 1.5 1.5 12.5 0.6 18-1.5 7.4-2.7 19.302-14.3 24.102-23.5 1.8-3.5 3.8996-6.3008 4.5996-6.3008s3.9 0.9 7 2c12.2 4.2 25.4 6.2992 35.1 5.6992 15.6-1 15.601-1.2992-1.1992-9.1992-18.4-8.7-27.002-14.301-37.602-24.301-7.2187-6.9438-10.325-9.5855-12.439-9.6816zm95.738 88.457v0.02531h-1974v25h3948v-0.0254h1974v-25h-1974z"/>
 </g>
</svg>
