<?xml version="1.0" encoding="UTF-8"?>
<svg width="90.007" height="128" version="1.1" viewBox="0 0 23.814 33.867" xmlns="http://www.w3.org/2000/svg" xmlns:cc="http://creativecommons.org/ns#" xmlns:dc="http://purl.org/dc/elements/1.1/" xmlns:rdf="http://www.w3.org/1999/02/22-rdf-syntax-ns#">
 <title>Letter S Initial</title>
 <defs>
  <clipPath id="clip_path_1">
   <path d="m0 0h15875v23495h-15875z"/>
  </clipPath>
  <clipPath>
   <path d="m0 0h15875v23495h-15875z"/>
  </clipPath>
 </defs>
 <metadata>
  <rdf:RDF>
   <cc:Work rdf:about="">
    <dc:format>image/svg+xml</dc:format>
    <dc:type rdf:resource="http://purl.org/dc/dcmitype/StillImage"/>
    <dc:title>Letter S Initial</dc:title>
    <dc:date>2021-10-16</dc:date>
    <dc:creator>
     <cc:Agent>
      <dc:title>Indrele-the-Lesser</dc:title>
     </cc:Agent>
    </dc:creator>
    <cc:license rdf:resource="http://artlibre.org/licence/lal"/>
   </cc:Work>
   <cc:License rdf:about="http://artlibre.org/licence/lal">
    <cc:permits rdf:resource="http://creativecommons.org/ns#Reproduction"/>
    <cc:permits rdf:resource="http://creativecommons.org/ns#Distribution"/>
    <cc:permits rdf:resource="http://creativecommons.org/ns#DerivativeWorks"/>
    <cc:requires rdf:resource="http://creativecommons.org/ns#ShareAlike"/>
    <cc:requires rdf:resource="http://creativecommons.org/ns#Notice"/>
    <cc:requires rdf:resource="http://creativecommons.org/ns#Attribution"/>
   </cc:License>
  </rdf:RDF>
 </metadata>
 <g transform="translate(-75.027 -144.08)">
  <g transform="matrix(.013478 0 0 .013478 57.84 104.54)" clip-path="url(#clip_path_1)">
   <g class="TextShape" aria-label="s">
    <path d="m1758.7 3252.8q0-57.887 53.752-57.887 37.213 0 171.59 20.674 136.45 18.606 204.67 18.606h336.98q113.71 0 138.51 37.213 55.819 70.291 90.965 161.26 37.213 90.965 37.213 167.46 0 88.898-26.876 88.898-49.617 0-59.954-41.348-16.539-99.234-167.46-200.54-148.85-103.37-308.04-103.37-20.674 0-26.876 14.472-6.2021 14.472 10.337 24.809 113.71 64.089 221.21 289.43 107.5 223.28 107.5 392.8v37.213q0 70.291-26.876 70.291-24.809 0-45.482-51.684-33.078-74.426-146.78-146.78-113.71-74.426-217.08-103.37-4.1347 0-8.2695 6.2022-4.1348 6.2021-4.1348 12.404 0 6.2021 4.1348 10.337 190.2 190.2 277.03 376.26 88.897 186.06 88.897 452.76 0 157.12-109.57 305.97-107.5 150.92-233.61 233.61-47.55 28.943-78.56 28.943-16.539 0-26.876-14.472-10.337-12.404-8.2696-31.011 2.0674-35.146 43.415-57.887 103.37-59.954 179.86-177.79 78.56-115.77 78.56-243.95 0-223.28-86.83-413.48-86.83-190.2-231.55-328.71-142.65-140.58-357.66-274.96-4.1348-2.0674-22.741-12.404-18.606-12.404-24.808-18.606-6.2022-6.2022-14.472-16.539-8.2696-12.404-8.2696-26.876 0-43.415 33.078-43.415 155.05 0 277.03 20.674 121.98 18.606 181.93 39.28 59.954 20.674 175.73 68.224 18.606 8.2695 24.809-6.2021 6.2021-14.472-4.1348-35.146-97.167-196.4-440.35-394.87-20.674-12.404-37.213-35.146-14.472-24.809-14.472-41.348z" fill="#f00"/>
   </g>
  </g>
  <g class="TextShape" stroke-width=".01266" aria-label="S">
   <path d="m77.83 174.55v-7.4387h2.0159q0.70557 0 0.82652 0.70557 0.08064 0.3427 0.20159 2.0159l0.12095 1.8143q3.2254 1.1692 5.0398 1.1692 1.7538 0 3.0642-0.42334 1.1692-0.38302 1.8949-1.1088 1.5724-1.4514 1.5724-3.931 0-2.3788-2.2377-3.6286-1.0886-0.64509-2.2175-0.98779-4.3544-1.3708-5.201-1.7337-1.1692-0.50397-2.278-1.4918-2.1973-1.9554-2.1973-5.5236 0-3.2658 2.3586-5.6244 2.54-2.4796 6.6122-2.4796 4.2536 0 8.2854 1.653v6.8138h-1.9756q-0.74588 0-0.86684-0.70556 0-0.0202-0.04032-0.40319-0.02016-0.40318-0.1008-1.3103-0.06048-0.90716-0.14111-1.9554-2.8223-0.7862-4.8785-0.7862-2.6812 0-4.1326 1.3305-1.391 1.27-1.391 3.2859 0 2.1973 2.2175 3.427 1.0483 0.62493 2.3183 1.0483 3.5883 1.1894 5.201 1.8546h-0.08064q4.4551 1.9958 4.4551 6.6525 0 4.0721-2.5602 6.6323-2.6812 2.6812-7.3379 2.6812-1.9353 0-4.052-0.36286-1.4918-0.26207-3.3061-0.78621z"/>
  </g>
  <g fill="none" stroke="#000" stroke-linejoin="round" stroke-width=".89889">
   <path d="m75.034 144.53h23.802"/>
   <path d="m98.392 144.09v33.854"/>
   <path d="m98.835 177.5h-23.802"/>
   <path d="m75.477 177.94v-33.854"/>
  </g>
  <g stroke-width=".26458" aria-label="2">
   <path d="m79.431 155.47v-0.1324q0-0.0369 0.01736-0.089 0.01302-0.0391 0.05426-0.0803l1.0223-1.0223q0.11937-0.12588 0.23006-0.24959 0.09333-0.10418 0.17797-0.24092 0.06728-0.11069 0.11286-0.24742 0.03907-0.12155 0.03907-0.26262 0-0.12589-0.04341-0.24526-0.04124-0.11286-0.12154-0.17797-0.09333-0.076-0.18232-0.10201-0.09984-0.0304-0.22138-0.0304-0.12805 0-0.22355 0.0347-0.11069 0.0412-0.18231 0.0977-0.08031 0.0651-0.1324 0.15192-0.05209 0.0868-0.07597 0.18666-0.01519 0.0716-0.05209 0.0977-0.03907 0.026-0.09767 0.026h-0.01953q-0.0043 0-0.01519-2e-3 -0.01085-2e-3 -0.01519-2e-3l-0.20836-0.0347q0.02604-0.21487 0.12371-0.38634 0.09333-0.16495 0.22355-0.27564 0.13891-0.1172 0.31471-0.17797 0.17363-0.0586 0.37765-0.0586 0.21053 0 0.38199 0.0586 0.16712 0.0564 0.30169 0.17797 0.1324 0.11937 0.20619 0.27564 0.06945 0.14759 0.06945 0.37331 0 0.18015-0.05209 0.32774-0.05643 0.16061-0.14325 0.28866-0.0955 0.14108-0.2127 0.2713-0.11937 0.13457-0.25394 0.26696l-0.83995 0.85297q0.06945-0.0195 0.18232-0.0347 0.09333-0.013 0.17363-0.013h0.87034q0.0043-0.0543 0.01085-0.11286 0.0065-0.0608 0.01085-0.0977 0.0065-0.0369 0.0065-0.0434 0.0065-0.0326 0.03256-0.0564 0.02822-0.0239 0.06077-0.0239h0.21704v0.43623l-0.0043 0.27565z" fill="#fff" stroke-width=".26458"/>
  </g>
 </g>
</svg>
