<?xml version="1.0" encoding="UTF-8"?>
<svg width="90.007" height="128" version="1.1" viewBox="0 0 23.814 33.867" xmlns="http://www.w3.org/2000/svg" xmlns:cc="http://creativecommons.org/ns#" xmlns:dc="http://purl.org/dc/elements/1.1/" xmlns:rdf="http://www.w3.org/1999/02/22-rdf-syntax-ns#">
 <title>Letter S Initial</title>
 <metadata>
  <rdf:RDF>
   <cc:Work rdf:about="">
    <dc:format>image/svg+xml</dc:format>
    <dc:type rdf:resource="http://purl.org/dc/dcmitype/StillImage"/>
    <dc:title>Letter S Initial</dc:title>
    <dc:date>2021-10-16</dc:date>
    <dc:creator>
     <cc:Agent>
      <dc:title>Indrele-the-Lesser</dc:title>
     </cc:Agent>
    </dc:creator>
    <cc:license rdf:resource="http://artlibre.org/licence/lal"/>
   </cc:Work>
   <cc:License rdf:about="http://artlibre.org/licence/lal">
    <cc:permits rdf:resource="http://creativecommons.org/ns#Reproduction"/>
    <cc:permits rdf:resource="http://creativecommons.org/ns#Distribution"/>
    <cc:permits rdf:resource="http://creativecommons.org/ns#DerivativeWorks"/>
    <cc:requires rdf:resource="http://creativecommons.org/ns#ShareAlike"/>
    <cc:requires rdf:resource="http://creativecommons.org/ns#Notice"/>
    <cc:requires rdf:resource="http://creativecommons.org/ns#Attribution"/>
   </cc:License>
  </rdf:RDF>
 </metadata>
 <path transform="matrix(.26459 0 0 .26459 -.00029374 0)" d="m27.369 13.309c-1.8254 0-2.7383 0.98142-2.7383 2.9473 0 0.56166 0.24486 1.2649 0.73633 2.1074 0.56166 0.77232 1.1944 1.3678 1.8965 1.7891 11.654 6.74 19.132 13.445 22.432 20.115 0.35104 0.70209 0.42156 1.2995 0.21094 1.791-0.21065 0.49145-0.63377 0.59528-1.2656 0.31445-3.9318-1.6148-6.9151-2.7725-8.9512-3.4746-2.0359-0.70209-5.1251-1.3681-9.2676-2-2.0234-0.34293-4.1853-0.59996-6.4766-0.77539-0.076653 0.14566-0.15468 0.28993-0.24414 0.42188-0.24063 0.35547-0.50938 0.69728-0.80469 1.0254-0.30077 0.33907-0.61991 0.67424-0.95898 1.0078l-3.1758 3.2246c0.17499-0.049133 0.40506-0.09256 0.68945-0.13086 0.23516-0.032756 0.45392-0.050781 0.65625-0.050781h3.2891c0.010835-0.13682 0.024512-0.27823 0.041016-0.42578 0.016378-0.1532 0.030055-0.27616 0.041016-0.36914 0.016377-0.092976 0.02539-0.14768 0.02539-0.16406 0.016378-0.082141 0.057385-0.15292 0.12305-0.21289 0.071105-0.06022 0.14845-0.089844 0.23047-0.089844h0.82031v1.6484l-0.017578 1.041h-4.5781c6.467 4.1812 11.923 8.4481 16.344 12.805 4.9147 4.7038 8.8462 10.285 11.795 16.744 2.9487 6.4592 4.4219 13.48 4.4219 21.062 0 4.353-1.3321 8.4962-4 12.428-2.5976 4.0017-5.6517 7.0206-9.1621 9.0566-1.4042 0.77228-2.1427 1.7557-2.2129 2.9492-0.070209 0.63189 0.070831 1.1569 0.42188 1.5781 0.35104 0.49146 0.80748 0.73828 1.3691 0.73828 1.0531 0 2.3872-0.49171 4.002-1.4746 4.2827-2.8082 8.2497-6.7752 11.9-11.9 3.721-5.055 5.5801-10.25 5.5801-15.586 0-9.0571-1.5084-16.744-4.5273-23.062-2.9487-6.3186-7.6521-12.709-14.111-19.168-0.14042-0.14043-0.21094-0.31477-0.21094-0.52539 0-0.21062 0.070517-0.42219 0.21094-0.63281 0.14041-0.21062 0.2795-0.31641 0.41992-0.31641 3.5104 0.98294 7.197 2.7381 11.059 5.2656 3.8613 2.4571 6.3532 4.951 7.4766 7.4785 0.70205 1.7552 1.4739 2.6328 2.3164 2.6328 0.91271 0 1.3691-1.195 1.3691-3.582v-1.8945c0-5.7569-1.8239-12.427-5.4746-20.01-3.6507-7.6526-7.4079-12.568-11.27-14.744-0.56166-0.35104-0.73601-0.7722-0.52539-1.2637 0.21062-0.49147 0.66705-0.73633 1.3691-0.73633 5.4061 0 10.636 1.7552 15.691 5.2656 5.1253 3.4404 7.9676 6.8449 8.5293 10.215 0.35104 1.4042 1.3697 2.1074 3.0547 2.1074 0.91271 0 1.3691-1.5103 1.3691-4.5293 0-2.5978-0.63273-5.4421-1.8965-8.5312-1.1936-3.0893-2.7372-5.8258-4.6328-8.2129-0.84221-1.2638-3.1951-1.8965-7.0566-1.8965h-17.166c-2.3167 0-5.7919-0.31541-10.426-0.94727-4.5634-0.70209-7.4765-1.0527-8.7402-1.0527zm-11.059 22.535c-1.1233 0-1.6855 0.73852-1.6855 2.2129 0 0.49147 0.14104 0.9479 0.42188 1.3691 0.28084 0.35104 0.5257 0.63117 0.73633 0.8418 0.21062 0.21062 0.63181 0.52603 1.2637 0.94727 0.1981 0.11005 0.21349 0.11677 0.36328 0.19922l3.3711-3.3711c0.30077-0.31718 0.59024-0.6297 0.86914-0.94141 0.23516-0.2625 0.45861-0.56757 0.67188-0.91211 0.030085-0.049496 0.055621-0.10469 0.083984-0.15625-1.9482-0.11515-3.9633-0.18945-6.0957-0.18945z" fill="#f00" stroke-width=".05094"/>
 <path transform="matrix(.26459 0 0 .26459 -.00029374 0)" d="m46.785 6.8164c-10.261 0-18.59 3.1233-24.99 9.3711-5.9429 5.9429-8.9141 13.029-8.9141 21.258 0 8.9907 2.7682 15.95 8.3047 20.877 2.7938 2.489 5.6634 4.3688 8.6094 5.6387 2.1331 0.91438 8.6866 3.0988 19.658 6.5527 2.8444 0.86349 5.638 2.107 8.3809 3.7324 5.6382 3.1491 8.457 7.7211 8.457 13.715 0 6.2477-1.9814 11.2-5.9434 14.857-1.8285 1.8287-4.2161 3.2244-7.1621 4.1894-3.3018 1.0667-7.1611 1.6016-11.58 1.6016-4.5717 0-10.922-1.4739-19.049-4.4199l-0.45703-6.8574c-0.30475-4.2159-0.55853-6.7557-0.76172-7.6191-0.30475-1.7778-1.3453-2.666-3.123-2.666h-7.6191v28.113l4.4941 1.5234c4.5714 1.3207 8.7373 2.3123 12.496 2.9727 5.3334 0.91428 10.438 1.3711 15.314 1.3711 11.733 0 20.977-3.3771 27.732-10.133 6.4508-6.4508 9.6758-14.808 9.6758-25.068 0-11.733-5.6126-20.114-16.838-25.143h0.30469c-4.0635-1.6761-10.615-4.0129-19.656-7.0098-3.2-1.0667-6.1204-2.3863-8.7617-3.9609-5.5873-3.0984-8.3809-7.4167-8.3809-12.953 0-5.0794 1.751-9.218 5.2559-12.418 3.657-3.3524 8.8634-5.0293 15.619-5.0293 5.1809 0 11.328 0.98975 18.439 2.9707 0.20316 2.6412 0.38081 5.1049 0.5332 7.3906 0.20318 2.2856 0.33006 3.9372 0.38086 4.9531 0.10159 0.965 0.15234 1.4725 0.15234 1.5234 0.30478 1.7778 1.396 2.666 3.2754 2.666h7.4668v-25.752c-10.159-4.165-20.597-6.248-31.314-6.248zm-25.973 24.051c0.53046 0 1.0133 0.075004 1.4453 0.22266 0.42109 0.14211 0.7996 0.36556 1.1387 0.67188 0.3336 0.30077 0.59337 0.64922 0.7793 1.043 0.17499 0.37188 0.26367 0.84142 0.26367 1.4102 0 0.45392-0.066016 0.8664-0.19726 1.2383-0.14218 0.40468-0.32226 0.76915-0.54102 1.0918-0.24063 0.35547-0.50938 0.69728-0.80469 1.0254-0.30077 0.33907-0.61991 0.67424-0.95898 1.0078l-3.1758 3.2246c0.17499-0.049133 0.40506-0.09256 0.68945-0.13086 0.23516-0.032756 0.45392-0.048828 0.65625-0.048828h3.2891c0.010835-0.13682 0.024512-0.28018 0.041016-0.42774 0.016378-0.1532 0.030055-0.27616 0.041016-0.36914 0.016377-0.092976 0.02539-0.14768 0.02539-0.16406 0.016378-0.082141 0.057385-0.15292 0.12305-0.21289 0.071105-0.06022 0.14845-0.089844 0.23047-0.089844h0.82031v1.6484l-0.017578 1.041h-8.0137v-0.5c0-0.092975 0.020712-0.20662 0.064454-0.33789 0.032805-0.098519 0.10117-0.19892 0.20508-0.30274l3.8652-3.8633c0.30077-0.31718 0.59024-0.63165 0.86914-0.94336 0.23516-0.2625 0.45861-0.56562 0.67188-0.91016 0.16952-0.2789 0.31289-0.59103 0.42773-0.93555 0.098443-0.30626 0.14648-0.63674 0.14648-0.99219 0-0.3172-0.054684-0.62696-0.16406-0.92773-0.10391-0.28437-0.25666-0.50782-0.45898-0.67188-0.23516-0.19149-0.46523-0.32118-0.68945-0.38672-0.25156-0.076598-0.5297-0.11524-0.83594-0.11524-0.32264 0-0.60508 0.043428-0.8457 0.13086-0.2789 0.10381-0.509 0.22873-0.68945 0.37109-0.20235 0.16403-0.36875 0.35546-0.5 0.57422-0.13125 0.21871-0.22694 0.45346-0.28711 0.70508-0.038273 0.18041-0.10429 0.30338-0.19726 0.36914-0.098444 0.065511-0.22149 0.097656-0.36914 0.097656h-0.072266c-0.010834 0-0.031154-0.002773-0.058593-0.007812-0.027339-0.00504-0.045706-0.007813-0.056641-0.007813l-0.78711-0.13086c0.065612-0.5414 0.2207-1.0269 0.4668-1.459 0.23516-0.41562 0.51759-0.76407 0.8457-1.043 0.35001-0.2953 0.7465-0.51876 1.1895-0.67188 0.43749-0.14765 0.91172-0.22266 1.4258-0.22266z" stroke-width=".047848"/>
 <g transform="translate(-75.027,-144.08)" fill="none" stroke="#000" stroke-linejoin="round" stroke-width=".89889">
  <path d="m75.034 144.53h23.802"/>
  <path d="m98.392 144.09v33.854"/>
  <path d="m98.835 177.5h-23.802"/>
  <path d="m75.477 177.94v-33.854"/>
 </g>
</svg>
