<?xml version="1.0" encoding="UTF-8"?>
<svg width="111.54" height="128" version="1.1" viewBox="0 0 29.511 33.867" xmlns="http://www.w3.org/2000/svg" xmlns:cc="http://creativecommons.org/ns#" xmlns:dc="http://purl.org/dc/elements/1.1/" xmlns:rdf="http://www.w3.org/1999/02/22-rdf-syntax-ns#">
 <title>Letter B Initial</title>
 <metadata>
  <rdf:RDF>
   <cc:Work rdf:about="">
    <dc:format>image/svg+xml</dc:format>
    <dc:type rdf:resource="http://purl.org/dc/dcmitype/StillImage"/>
    <dc:title>Letter B Initial</dc:title>
    <dc:date>2021-09-28</dc:date>
    <dc:creator>
     <cc:Agent>
      <dc:title>Indrele-the-Lesser</dc:title>
     </cc:Agent>
    </dc:creator>
    <cc:license rdf:resource="http://artlibre.org/licence/lal"/>
   </cc:Work>
   <cc:License rdf:about="http://artlibre.org/licence/lal">
    <cc:permits rdf:resource="http://creativecommons.org/ns#Reproduction"/>
    <cc:permits rdf:resource="http://creativecommons.org/ns#Distribution"/>
    <cc:permits rdf:resource="http://creativecommons.org/ns#DerivativeWorks"/>
    <cc:requires rdf:resource="http://creativecommons.org/ns#ShareAlike"/>
    <cc:requires rdf:resource="http://creativecommons.org/ns#Notice"/>
    <cc:requires rdf:resource="http://creativecommons.org/ns#Attribution"/>
   </cc:License>
  </rdf:RDF>
 </metadata>
 <path transform="matrix(.26459 0 0 .26459 -.00045786 0)" d="m98.822 6.7871c-0.824 0-2.884 0.37403-6.1797 1.123-3.2958 0.67413-5.9926 1.0117-8.0898 1.0117h-46.402c-3.5792 0-5.8216 0.52255-6.7285 1.5664 0.30373 0.13704 0.59124 0.30553 0.84766 0.53711 0.33093 0.2984 0.58897 0.64258 0.77344 1.0332 0.1736 0.3689 0.25976 0.83614 0.25976 1.4004 0 0.3231-0.046236 0.61722-0.11328 0.89844 0.75437 0.26446 1.6863 0.44354 2.8262 0.51953 7.0408 0.67443 10.561 3.6703 10.561 8.9883v21.572c0 2.5466 0.37403 4.9808 1.123 7.3027 0.74902 2.322 1.7234 3.9332 2.9219 4.832 6.6665 5.0933 10 10.636 10 16.629 0 5.8425-1.5728 11.835-4.7188 17.977-3.1458 6.0672-6.629 9.1016-10.449 9.1016-0.82394 0-1.6104-0.52558-2.3594-1.5742-0.6741-1.0486-1.3109-2.6215-1.9102-4.7188-0.52432-2.0973-1.0115-4.2685-1.4609-6.5156-0.37451-2.2473-0.7869-5.0572-1.2363-8.4277-0.37452-3.3706-0.71015-6.3283-1.0098-8.875-0.22473-2.5468-0.52393-5.6924-0.89844-9.4375-0.29961-3.745-0.5624-6.63-0.78711-8.6523-0.52432-3.5952-1.3491-5.3926-2.4727-5.3926-0.67413 0-1.2361 0.56202-1.6855 1.6855-0.44943 1.0486-0.67383 2.1726-0.67383 3.3711v64.602c0 2.4718 0.63682 3.709 1.9102 3.709 1.3483 0 2.5087-0.9744 3.4824-2.9219 0.97375-1.8726 1.8369-3.0714 2.5859-3.5957 25.317-16.928 37.975-32.844 37.975-47.75 0-2.3221-0.33759-4.6812-1.0117-7.0781-0.67413-2.397-1.3857-4.4205-2.1348-6.0684-0.74902-1.7229-2.0591-3.8576-3.9316-6.4043-1.8726-2.5468-3.2958-4.3823-4.2695-5.5059-0.97378-1.1984-2.8093-3.2949-5.5059-6.291-2.6964-3.0711-4.4938-5.131-5.3926-6.1797-1.1985-1.3485-1.7969-4.5688-1.7969-9.6621 0-3.1459 1.8356-4.7188 5.5059-4.7188h20.223c4.7188 0 8.1273 1.6477 10.225 4.9434 2.0973 3.2957 3.1465 7.6401 3.1465 13.033 0 1.573-0.45078 3.1074-1.3496 4.6055-0.89883 1.4231-1.8713 2.5836-2.9199 3.4824-1.0486 0.82394-2.023 1.6123-2.9219 2.3613-0.89883 0.67413-1.3477 1.1594-1.3477 1.459 0 1.4981 0.74802 2.248 2.2461 2.248 1.7228 0 3.6715-0.82478 5.8438-2.4727 4.5689-3.1458 7.4519-7.2276 8.6504-12.246 1.2733-5.0185 1.9102-12.209 1.9102-21.572 0-2.6216-1.0856-3.9316-3.2578-3.9316zm-67.855 5.0039c0.014848 0.71584 0.28529 1.3072 0.80273 1.7773 3.44e-4 -0.020758 0.003907-0.039616 0.003907-0.060547-1e-6 -0.31466-0.055566-0.62152-0.16406-0.91992-0.10308-0.2821-0.25434-0.5052-0.45508-0.66797-0.063214-0.051478-0.12508-0.086604-0.1875-0.12891z" fill="#f00" stroke-width=".049421"/>
 <path transform="matrix(.26459 0 0 .26459 -.00045786 0)" d="m10.391 6.7891v6.9961c0 1.6065 0.77738 2.564 2.332 2.875 0.93278 0.31093 3.9654 0.93441 9.0957 1.8672v90.715l-9.0957 1.9434c-1.5547 0.31092-2.332 1.2685-2.332 2.875v6.9961h51.691c12.593 0 22.466-3.0326 29.617-9.0957 6.9961-5.7524 10.494-13.55 10.494-23.396 0-14.095-8.3708-22.803-25.109-26.119 7.1513-2.28 12.567-5.7257 16.246-10.338 1.5029-1.8656 2.7741-4.2502 3.8105-7.1523 0.82914-2.2803 1.2422-5.4666 1.2422-9.5605 1e-6 -3.8347-0.75108-7.592-2.2539-11.271-4.9746-11.556-17.593-17.334-37.855-17.334h-47.883zm19.316 3.3496c0.52626 0 1.003 0.074311 1.4316 0.2207 0.41776 0.1411 0.79451 0.36224 1.1309 0.66602 0.33093 0.2984 0.58897 0.64453 0.77344 1.0352 0.1736 0.3689 0.25976 0.83418 0.25976 1.3984 0 0.45029-0.065096 0.85959-0.19531 1.2285-0.14105 0.40146-0.32009 0.76389-0.53711 1.084-0.23871 0.35265-0.50391 0.69011-0.79687 1.0156-0.29838 0.33635-0.61675 0.671-0.95313 1.002l-3.1484 3.1973c0.1736-0.048881 0.40147-0.091111 0.68359-0.12891 0.2333-0.032504 0.44965-0.048828 0.65039-0.048828h3.2637c0.010835-0.13556 0.024714-0.27726 0.041016-0.42383 0.016378-0.15194 0.030257-0.27302 0.041015-0.36524 0.016378-0.092219 0.023438-0.14768 0.023438-0.16406 0.016378-0.081385 0.05804-0.15122 0.12305-0.21094 0.070525-0.059716 0.14518-0.089843 0.22656-0.089843h0.81445v1.6367l-0.015624 1.0332-7.9512-0.001953v-0.49609c0-0.092219 0.021039-0.20372 0.064453-0.33398 0.032554-0.097763 0.10004-0.19773 0.20312-0.30078l3.834-3.832c0.29838-0.31466 0.58657-0.62826 0.86328-0.9375 0.2333-0.26043 0.45444-0.56055 0.66602-0.90234 0.16819-0.27668 0.30989-0.58594 0.42383-0.92773 0.097662-0.30382 0.14648-0.63172 0.14648-0.98438 0-0.31466-0.053613-0.62152-0.16211-0.91992-0.10308-0.2821-0.25629-0.5052-0.45703-0.66797-0.2333-0.18998-0.46116-0.3178-0.68359-0.38281-0.24957-0.075841-0.52628-0.11328-0.83008-0.11328-0.3201 0-0.59918 0.044183-0.83789 0.13086-0.27668 0.10305-0.50455 0.22413-0.68359 0.36523-0.20074 0.16277-0.3659 0.35329-0.49609 0.57031-0.13022 0.21694-0.22549 0.4496-0.28516 0.69922-0.037972 0.17915-0.10307 0.30218-0.19531 0.36719-0.097662 0.065007-0.21877 0.097656-0.36523 0.097656h-0.074219c-0.010835 0-0.029504-0.002773-0.056641-0.007813-0.027136-0.005039-0.045806-0.007812-0.05664-0.007812l-0.78125-0.13086c0.065108-0.53709 0.21876-1.0187 0.46289-1.4473 0.2333-0.41232 0.51238-0.75845 0.83789-1.0352 0.34721-0.29296 0.74219-0.51411 1.1816-0.66602 0.43401-0.14639 0.90604-0.2207 1.416-0.2207zm7.5801 9.0117h20.988c8.395 0 14.665 1.6053 18.811 4.8184 4.042 3.1093 6.0645 7.982 6.0645 14.615 0 2.3319-0.54457 5.0002-1.6328 8.0059-3.1612 7.6179-11.115 11.428-23.863 11.428h-20.367v-38.867zm0 49.98h24.643c8.6026 0 14.925 1.7107 18.967 5.1309 4.042 3.4204 6.0625 8.0846 6.0625 13.992 0 3.1094-0.44129 5.8808-1.3223 8.3164-3.2131 8.2398-11.116 12.359-23.709 12.359l0.15625-0.1543h-24.797v-39.645z" stroke-width=".047848"/>
 <g transform="translate(-91.078,-131.23)" fill="none" stroke="#000" stroke-linejoin="round" stroke-width=".89889">
  <path d="m91.084 131.68h29.499"/>
  <path d="m120.14 131.24v33.854"/>
  <path d="m120.58 164.65h-29.499"/>
  <path d="m91.527 165.09v-33.854"/>
 </g>
</svg>
