<?xml version="1.0" encoding="UTF-8"?>
<svg width="133.07" height="128" version="1.1" viewBox="0 0 35.209 33.867" xmlns="http://www.w3.org/2000/svg" xmlns:cc="http://creativecommons.org/ns#" xmlns:dc="http://purl.org/dc/elements/1.1/" xmlns:rdf="http://www.w3.org/1999/02/22-rdf-syntax-ns#">
 <title>Letter N Initial</title>
 <defs>
  <clipPath id="clip_path_1">
   <path d="m0 0h15849v23495h-15849z"/>
  </clipPath>
 </defs>
 <metadata>
  <rdf:RDF>
   <cc:Work rdf:about="">
    <dc:format>image/svg+xml</dc:format>
    <dc:type rdf:resource="http://purl.org/dc/dcmitype/StillImage"/>
    <dc:title>Letter N Initial</dc:title>
    <cc:license rdf:resource="http://artlibre.org/licence/lal"/>
    <dc:date>2021-10-16</dc:date>
    <dc:creator>
     <cc:Agent>
      <dc:title>Indrele the Lesser</dc:title>
     </cc:Agent>
    </dc:creator>
   </cc:Work>
   <cc:License rdf:about="http://artlibre.org/licence/lal">
    <cc:permits rdf:resource="http://creativecommons.org/ns#Reproduction"/>
    <cc:permits rdf:resource="http://creativecommons.org/ns#Distribution"/>
    <cc:permits rdf:resource="http://creativecommons.org/ns#DerivativeWorks"/>
    <cc:requires rdf:resource="http://creativecommons.org/ns#ShareAlike"/>
    <cc:requires rdf:resource="http://creativecommons.org/ns#Notice"/>
    <cc:requires rdf:resource="http://creativecommons.org/ns#Attribution"/>
   </cc:License>
  </rdf:RDF>
 </metadata>
 <g transform="translate(-98.812 -88.9)">
  <g transform="matrix(.013073 0 0 .013073 81.08 -4.4946)" clip-path="url(#clip_path_1)">
   <g class="TextShape" aria-label="N">
    <path d="m2474.4 8478.1q0-304.64-59.109-572.91-59.109-268.27-177.33-422.86-11.367-13.641-38.648-36.375-27.281-25.008-45.469-45.469-18.188-20.461-18.188-38.648 0-56.836 143.23-56.836h495.61q125.04 0 125.04 50.016 0 40.922-152.32 70.476-45.469 9.0938-77.297 40.922-31.828 31.828-31.828 72.75 0 102.3 86.391 265.99 86.391 161.41 209.16 306.91 27.281 34.102 47.742 34.102 20.461 0 40.922-34.102l15.914-31.828q18.188-34.102 36.375-70.476 18.188-38.648 31.828-97.758 15.914-59.109 15.914-113.67 0-102.3-6.8203-184.15-6.8203-84.117-15.914-127.31-6.8203-45.469-6.8203-52.289 0-61.383 31.828-61.383 18.188 0 59.109 77.297 43.195 77.297 79.57 195.52 38.648 118.22 38.648 211.43 0 138.68-47.742 309.19t-109.12 284.18q-59.109 113.67-97.758 113.67-15.914 0-68.203-52.289-52.289-52.289-120.49-150.05-68.203-97.758-106.85-197.79-9.0938-25.008-20.461-9.0937-13.641 18.188 0 65.93 29.555 88.664 29.555 190.97 0 327.38-459.23 1104.9-38.648 56.836-84.117 56.836-15.914 0-25.008-22.734-6.8204-20.461 2.2734-36.375 136.41-254.62 206.88-493.34 72.75-240.98 72.75-543.35z" fill="#f00"/>
   </g>
  </g>
  <g class="TextShape" stroke-width=".012785" aria-label="N">
   <path d="m101.41 120.67v-1.7782q0-0.62641 0.60621-0.74766l2.3642-0.48497v-23.602q-2.0005-0.36373-2.3642-0.48497-0.60621-0.12124-0.60621-0.78808v-1.7782h5.0316q0.5456 0 0.78808 0.12124 0.20207 0.10104 0.62642 0.52538l17.136 22.349v0.0808q-0.0808-0.58601-0.0808-2.0611v-17.964q-0.70725-0.10104-1.3337-0.20207-0.60621-0.12124-0.99015-0.20207-0.36373-0.08083-0.40414-0.08083-0.66683-0.14145-0.66683-0.74766v-1.8186h9.9217v1.8186q0 0.62642-0.64662 0.74766l-2.3642 0.48497v26.613h-2.0207q-0.8487 0-1.4145-0.70725l-17.176-22.349q0.0808 0.70725 0.0808 1.9197v18.126q1.273 0.18187 2.7684 0.48497 0.58601 0.12125 0.58601 0.74766v1.7782z"/>
  </g>
  <g fill="none" stroke="#000" stroke-linejoin="round" stroke-width=".90771">
   <path d="m98.819 89.354h35.196"/>
   <path d="m133.57 88.906v33.854"/>
   <path d="m134.01 122.31h-35.196"/>
   <path d="m99.266 122.76v-33.854"/>
  </g>
  <g transform="translate(-.011693 .10822)" stroke-width=".26458" aria-label="2">
   <path d="m105.1 94.931v-0.13292q0-0.03704 0.0174-0.08934 0.0131-0.03922 0.0545-0.08062l1.0263-1.0263q0.11984-0.12638 0.23098-0.25059 0.0937-0.10459 0.17867-0.24187 0.0675-0.11113 0.11331-0.24841 0.0392-0.12203 0.0392-0.26366 0-0.12638-0.0436-0.24623-0.0414-0.11331-0.12203-0.17868-0.0937-0.07627-0.18304-0.10241-0.10023-0.03051-0.22226-0.03051-0.12856 0-0.22444 0.03486-0.11113 0.0414-0.18303 0.09806-0.0806 0.06537-0.13293 0.15253-0.0523 0.08716-0.0763 0.1874-0.0152 0.07191-0.0523 0.09806-0.0392 0.02615-0.0981 0.02615h-0.0196q-4e-3 0-0.0153-0.0022-0.0109-0.0022-0.0152-0.0022l-0.20919-0.03486q0.0262-0.21572 0.12421-0.38787 0.0937-0.16561 0.22444-0.27674 0.13945-0.11767 0.31595-0.17868 0.17433-0.05883 0.37915-0.05883 0.21137 0 0.38351 0.05883 0.16779 0.05665 0.30289 0.17868 0.13292 0.11985 0.207 0.27674 0.0697 0.14817 0.0697 0.37479 0 0.18086-0.0523 0.32903-0.0567 0.16125-0.14382 0.28981-0.0959 0.14164-0.21354 0.27238-0.11985 0.1351-0.25495 0.26802l-0.84328 0.85636q0.0697-0.01961 0.18304-0.03486 0.0937-0.01307 0.17432-0.01307h0.87379q4e-3 -0.05448 0.0109-0.11331 7e-3 -0.06101 0.0109-0.09806 7e-3 -0.03704 7e-3 -0.04358 7e-3 -0.03269 0.0327-0.05665 0.0283-0.02397 0.061-0.02397h0.2179v0.43799l-4e-3 0.27674z" fill="#fff" stroke-width=".26458"/>
  </g>
 </g>
</svg>
