<?xml version="1.0" encoding="UTF-8"?>
<svg width="133.07" height="128" version="1.1" viewBox="0 0 35.209 33.867" xmlns="http://www.w3.org/2000/svg" xmlns:cc="http://creativecommons.org/ns#" xmlns:dc="http://purl.org/dc/elements/1.1/" xmlns:rdf="http://www.w3.org/1999/02/22-rdf-syntax-ns#">
 <title>Letter N Initial</title>
 <defs>
  <clipPath id="clip_path_1">
   <path d="m0 0h15849v23495h-15849z"/>
  </clipPath>
 </defs>
 <metadata>
  <rdf:RDF>
   <cc:Work rdf:about="">
    <dc:format>image/svg+xml</dc:format>
    <dc:type rdf:resource="http://purl.org/dc/dcmitype/StillImage"/>
    <dc:title>Letter N Initial</dc:title>
    <cc:license rdf:resource="http://artlibre.org/licence/lal"/>
    <dc:date>2021-10-16</dc:date>
    <dc:creator>
     <cc:Agent>
      <dc:title>Indrele the Lesser</dc:title>
     </cc:Agent>
    </dc:creator>
   </cc:Work>
   <cc:License rdf:about="http://artlibre.org/licence/lal">
    <cc:permits rdf:resource="http://creativecommons.org/ns#Reproduction"/>
    <cc:permits rdf:resource="http://creativecommons.org/ns#Distribution"/>
    <cc:permits rdf:resource="http://creativecommons.org/ns#DerivativeWorks"/>
    <cc:requires rdf:resource="http://creativecommons.org/ns#ShareAlike"/>
    <cc:requires rdf:resource="http://creativecommons.org/ns#Notice"/>
    <cc:requires rdf:resource="http://creativecommons.org/ns#Attribution"/>
   </cc:License>
  </rdf:RDF>
 </metadata>
 <g transform="matrix(.013073 0 0 .013073 -17.732 -93.395)" clip-path="url(#clip_path_1)">
  <g class="TextShape" aria-label="N">
   <path d="m2474.4 8478.1q0-304.64-59.109-572.91t-177.33-422.86q-11.367-13.641-38.648-36.375-27.281-25.008-45.469-45.469t-18.188-38.648q0-56.836 143.23-56.836h495.61q125.04 0 125.04 50.016 0 40.922-152.32 70.476-45.469 9.0938-77.297 40.922-31.828 31.828-31.828 72.75 0 102.3 86.391 265.99 86.391 161.41 209.16 306.91 27.281 34.102 47.742 34.102t40.922-34.102l15.914-31.828q18.188-34.102 36.375-70.476 18.188-38.648 31.828-97.758 15.914-59.109 15.914-113.67 0-102.3-6.8203-184.15-6.8203-84.117-15.914-127.31-6.8203-45.469-6.8203-52.289 0-61.383 31.828-61.383 18.188 0 59.109 77.297 43.195 77.297 79.57 195.52 38.648 118.22 38.648 211.43 0 138.68-47.742 309.19t-109.12 284.18q-59.109 113.67-97.758 113.67-15.914 0-68.203-52.289t-120.49-150.05q-68.203-97.758-106.85-197.79-9.0938-25.008-20.461-9.0937-13.641 18.188 0 65.93 29.555 88.664 29.555 190.97 0 327.38-459.23 1104.9-38.648 56.836-84.117 56.836-15.914 0-25.008-22.734-6.8204-20.461 2.2734-36.375 136.41-254.62 206.88-493.34 72.75-240.98 72.75-543.35z" fill="#f00"/>
  </g>
 </g>
 <path transform="matrix(.26459 0 0 .26459 0 -.00026325)" d="m9.8184 7.9609v6.7207c0 1.6802 0.7636 2.673 2.291 2.9785 0.91639 0.30548 3.895 0.91557 8.9355 1.832v89.201l-8.9355 1.834c-1.5274 0.30551-2.291 1.2479-2.291 2.8262v6.7207l37.195 0.00195v-6.7207c0-1.5783-0.73832-2.5207-2.2148-2.8262-3.7678-0.7637-7.2554-1.3757-10.463-1.834v-68.506c0-3.0549-0.1011-5.4719-0.30469-7.2539l64.914 84.467c1.4256 1.782 3.2093 2.6719 5.3477 2.6719h7.6367v-100.58l8.9355-1.832c1.6292-0.30548 2.4434-1.2478 2.4434-2.8262v-6.873h-37.498v6.873c0 1.5274 0.83937 2.4698 2.5195 2.8262 0.10182 0 0.61088 0.10103 1.5273 0.30469 0.96738 0.20366 2.2148 0.45819 3.7422 0.76367 1.5784 0.25456 3.259 0.50909 5.041 0.76367v67.895c0 3.4685 0.092221 5.92 0.26953 7.4375l-64.729-84.42c-1.0692-1.0692-1.858-1.7317-2.3672-1.9863-0.61096-0.30548-1.6038-0.45703-2.9785-0.45703h-19.018zm18.086 3.0137c0.53257 0 1.0155 0.074427 1.4492 0.22266 0.42277 0.14274 0.80413 0.36636 1.1445 0.67383 0.33491 0.30198 0.59655 0.65157 0.7832 1.0469 0.17562 0.37333 0.26172 0.84502 0.26172 1.416 0 0.4557-0.06549 0.87081-0.19727 1.2441-0.14286 0.40629-0.32346 0.77178-0.54297 1.0957-0.24163 0.35688-0.51023 0.69988-0.80664 1.0293-0.30198 0.3404-0.62444 0.67681-0.96484 1.0117l-3.1855 3.2363c0.17562-0.04941 0.40583-0.092435 0.69141-0.13086 0.23609-0.032931 0.45507-0.048828 0.6582-0.048828h3.3027c0.010078-0.13727 0.02363-0.28146 0.041015-0.42969 0.017638-0.15372 0.03119-0.27579 0.041016-0.36914 0.017637-0.093327 0.027344-0.14954 0.027344-0.16602 0.017637-0.082367 0.058292-0.15252 0.12305-0.21289 0.071305-0.060395 0.14808-0.091797 0.23047-0.091797h0.82422v1.6562l-0.015625 1.0449h-8.0488v-0.50195c0-0.093327 0.022565-0.20612 0.066406-0.33789 0.033007-0.098819 0.10077-0.20038 0.20508-0.30469l3.8789-3.8789c0.30195-0.31843 0.59302-0.6343 0.87305-0.94727 0.23609-0.26353 0.46169-0.56817 0.67578-0.91406 0.17007-0.28 0.31231-0.59161 0.42773-0.9375 0.098769-0.30747 0.14844-0.64119 0.14844-0.99805 0-0.31843-0.054207-0.62771-0.16406-0.92969-0.10431-0.2855-0.25973-0.51107-0.46289-0.67578-0.23609-0.19217-0.4663-0.32086-0.69141-0.38672-0.25254-0.076874-0.53237-0.11523-0.83984-0.11523-0.32392 0-0.60608 0.043025-0.84766 0.13086-0.28 0.10431-0.51024 0.22833-0.69141 0.37109-0.20308 0.16471-0.37205 0.35656-0.50391 0.57617-0.13178 0.21961-0.22664 0.45642-0.28711 0.70898-0.038298 0.18119-0.10379 0.30521-0.19726 0.37109-0.098769 0.065888-0.22269 0.097656-0.37109 0.097656h-0.074219c-0.010078 0-0.030122-0.002269-0.058593-0.007812-0.027464-0.005544-0.045807-0.007813-0.056641-0.007813l-0.79102-0.13281c0.066014-0.54353 0.2218-1.0311 0.46875-1.4648 0.23609-0.41728 0.52019-0.76687 0.84961-1.0469 0.35136-0.29648 0.74865-0.52011 1.1934-0.67383 0.43925-0.14823 0.91752-0.22266 1.4336-0.22266z" stroke-width=".04832"/>
 <g transform="translate(-98.812,-88.9)" fill="none" stroke="#000" stroke-linejoin="round" stroke-width=".90771">
  <path d="m98.819 89.354h35.196"/>
  <path d="m133.57 88.906v33.854"/>
  <path d="m134.01 122.31h-35.196"/>
  <path d="m99.266 122.76v-33.854"/>
 </g>
</svg>
