<?xml version="1.0" encoding="UTF-8"?>
<svg width="128.76" height="128" version="1.1" viewBox="0 0 34.067 33.867" xmlns="http://www.w3.org/2000/svg" xmlns:cc="http://creativecommons.org/ns#" xmlns:dc="http://purl.org/dc/elements/1.1/" xmlns:rdf="http://www.w3.org/1999/02/22-rdf-syntax-ns#">
 <title>Letter I Initial</title>
 <defs>
  <clipPath id="clip_path_1">
   <path d="m0 0h15849v23495h-15849z"/>
  </clipPath>
 </defs>
 <metadata>
  <rdf:RDF>
   <cc:Work rdf:about="">
    <dc:format>image/svg+xml</dc:format>
    <dc:type rdf:resource="http://purl.org/dc/dcmitype/StillImage"/>
    <dc:title>Letter I Initial</dc:title>
    <cc:license rdf:resource="http://artlibre.org/licence/lal"/>
    <dc:date>2021-10-16</dc:date>
    <dc:creator>
     <cc:Agent>
      <dc:title>Indrele the Lesser</dc:title>
     </cc:Agent>
    </dc:creator>
   </cc:Work>
   <cc:License rdf:about="http://artlibre.org/licence/lal">
    <cc:permits rdf:resource="http://creativecommons.org/ns#Reproduction"/>
    <cc:permits rdf:resource="http://creativecommons.org/ns#Distribution"/>
    <cc:permits rdf:resource="http://creativecommons.org/ns#DerivativeWorks"/>
    <cc:requires rdf:resource="http://creativecommons.org/ns#ShareAlike"/>
    <cc:requires rdf:resource="http://creativecommons.org/ns#Notice"/>
    <cc:requires rdf:resource="http://creativecommons.org/ns#Attribution"/>
   </cc:License>
  </rdf:RDF>
 </metadata>
 <g transform="translate(-46.454 -125.94)">
  <g transform="matrix(.012921 0 0 .012921 28.68 -82.959)" clip-path="url(#clip_path_1)">
   <g class="TextShape" aria-label="I">
    <path d="m2908.3 16731q0 27.281 36.375 84.117 36.375 54.563 88.664 68.204 43.195 15.914 43.195 45.468 0 15.914-9.0937 31.828-9.0938 13.641-27.281 31.829-18.188 15.914-20.461 18.187-106.85 127.31-154.59 459.23-47.742 331.92-47.742 741.14v284.18q0 131.86-45.469 131.86-34.102 0-47.742-31.828-11.367-29.555-11.367-102.3v-1723.3q0-31.828-18.188-65.93-15.914-34.102-36.375-34.102-79.57 0-156.87 72.75-77.297 70.477-111.4 259.17-27.281 145.5-65.93 145.5-50.016 0-50.016-138.68v-579.73q0-36.375 20.461-75.023 20.461-38.649 65.93-38.649 6.8203 0 118.22 22.734 113.67 20.461 165.96 20.461h579.73q109.12 0 109.12 47.743 0 2.273-25.008 40.922-22.734 38.648-61.383 122.76-36.375 81.844-61.383 179.6-13.641 38.648-22.734 43.195-6.8204 2.273-13.641 2.273-59.109 0-136.41-61.382-77.297-63.657-81.844-63.657-22.734 0-22.734 61.383z" fill="#f00"/>
   </g>
  </g>
  <g class="TextShape" stroke-width=".012921" aria-label="I">
   <path d="m59.131 157.84v-1.8q0-0.675 0.57272-0.79773l2.4341-0.47045v-23.911q-2.025-0.36818-2.5159-0.49091-0.49091-0.12273-0.49091-0.75682v-1.7591h10.084v1.7591q0 0.675-0.63409 0.79773l-2.4136 0.45v23.911q1.8818 0.34773 2.5568 0.51136 0.49091 0.12273 0.49091 0.75682v1.8z"/>
  </g>
  <g fill="none" stroke="#000" stroke-linejoin="round" stroke-width=".89737">
   <path d="m46.47 126.4h34.035"/>
   <path d="m80.073 125.94v33.867"/>
   <path d="m80.505 159.35h-34.035"/>
   <path d="m46.903 159.81v-33.867"/>
  </g>
  <g transform="translate(-.023386)" stroke-width=".26458" aria-label="2">
   <path d="m63.089 131.73v-0.1345q0-0.0375 0.01764-0.0904 0.01323-0.0397 0.05512-0.0816l1.0385-1.0385q0.12127-0.12788 0.23372-0.25356 0.09481-0.10583 0.1808-0.24474 0.06835-0.11245 0.11465-0.25135 0.03969-0.12348 0.03969-0.26679 0-0.12789-0.0441-0.24915-0.04189-0.11466-0.12347-0.1808-0.09481-0.0772-0.18521-0.10363-0.10142-0.0309-0.2249-0.0309-0.13009 0-0.2271 0.0353-0.11245 0.0419-0.18521 0.0992-0.08158 0.0661-0.1345 0.15434-0.05292 0.0882-0.07717 0.18962-0.01543 0.0728-0.05292 0.0992-0.03969 0.0265-0.09922 0.0265h-0.01984q-0.0044 0-0.01543-2e-3 -0.01102-2e-3 -0.01543-2e-3l-0.21167-0.0353q0.02646-0.21828 0.12568-0.39247 0.09481-0.16757 0.2271-0.28002 0.14111-0.11906 0.3197-0.1808 0.17639-0.0595 0.38365-0.0595 0.21387 0 0.38806 0.0595 0.16977 0.0573 0.30648 0.1808 0.1345 0.12127 0.20946 0.28002 0.07056 0.14993 0.07056 0.37924 0 0.183-0.05292 0.33293-0.05733 0.16316-0.14552 0.29325-0.09701 0.14331-0.21608 0.27561-0.12127 0.1367-0.25797 0.27119l-0.85328 0.86652q0.07056-0.0198 0.18521-0.0353 0.09481-0.0132 0.17639-0.0132h0.88415q0.0044-0.0551 0.01102-0.11465 0.0066-0.0617 0.01102-0.0992 0.0066-0.0375 0.0066-0.0441 0.0066-0.0331 0.03307-0.0573 0.02866-0.0243 0.06174-0.0243h0.22049v0.44322l-0.0044 0.28002z" fill="#fff" stroke-width=".26458"/>
  </g>
 </g>
</svg>
