<?xml version="1.0" encoding="UTF-8"?>
<svg width="111.21" height="128" version="1.1" viewBox="0 0 29.423 33.867" xmlns="http://www.w3.org/2000/svg" xmlns:cc="http://creativecommons.org/ns#" xmlns:dc="http://purl.org/dc/elements/1.1/" xmlns:rdf="http://www.w3.org/1999/02/22-rdf-syntax-ns#">
 <title>Letter T Initial</title>
 <defs>
  <clipPath id="clip_path_1">
   <path d="m0 0h15849v23495h-15849z"/>
  </clipPath>
 </defs>
 <metadata>
  <rdf:RDF>
   <cc:Work rdf:about="">
    <dc:format>image/svg+xml</dc:format>
    <dc:type rdf:resource="http://purl.org/dc/dcmitype/StillImage"/>
    <dc:title>Letter T Initial</dc:title>
    <dc:date>2021-10-16</dc:date>
    <dc:creator>
     <cc:Agent>
      <dc:title>Indrele-the-Lesser</dc:title>
     </cc:Agent>
    </dc:creator>
    <cc:license rdf:resource="http://artlibre.org/licence/lal"/>
   </cc:Work>
   <cc:License rdf:about="http://artlibre.org/licence/lal">
    <cc:permits rdf:resource="http://creativecommons.org/ns#Reproduction"/>
    <cc:permits rdf:resource="http://creativecommons.org/ns#Distribution"/>
    <cc:permits rdf:resource="http://creativecommons.org/ns#DerivativeWorks"/>
    <cc:requires rdf:resource="http://creativecommons.org/ns#ShareAlike"/>
    <cc:requires rdf:resource="http://creativecommons.org/ns#Notice"/>
    <cc:requires rdf:resource="http://creativecommons.org/ns#Attribution"/>
   </cc:License>
  </rdf:RDF>
 </metadata>
 <g transform="translate(-16.282 -20.108)">
  <g transform="matrix(.012916 0 0 .012799 .018656 -191.15)" clip-path="url(#clip_path_1)">
   <g class="TextShape" aria-label="T">
    <path d="m1882.3 17142h720.68q20.461 0 34.102-9.093 13.641-9.094 11.367-25.008-29.555-131.86-186.42-222.8-156.87-93.211-413.77-138.68-52.289-9.094-52.289-38.648 0-34.102 56.836-34.102 165.96 0 370.57 63.656 206.88 63.657 361.48 175.06 154.59 111.4 154.59 229.62 0 43.196-159.14 140.95-156.87 95.485-320.55 165.96-29.555 13.641-50.016-15.914-36.375-54.562-122.77-113.67-86.391-59.109-127.31-59.109-9.0937 0-11.367 4.547-2.2734 4.547 0 11.367 4.5469 6.82 11.367 15.914 113.67 104.58 193.24 254.62 79.57 147.77 79.57 297.82 0 450.14-90.938 836.62h31.828q38.648 0 75.023-6.82 36.375-4.547 61.383-11.367 25.008-4.547 59.109-25.008 34.102-18.187 47.742-25.008 15.914-6.82 52.289-38.648 36.375-29.555 45.469-38.649 11.367-9.093 54.562-50.015 45.469-43.195 56.836-54.563 47.742-47.742 70.477-47.742 31.828 0 31.828 38.649 0 25.007-109.12 161.41-109.12 138.68-265.99 275.09-156.87 138.68-256.9 138.68-90.938 0-188.7-127.31-97.758-125.04-152.32-259.17-52.289-134.13-52.289-188.7 0-75.024 36.375-75.024 18.188 0 31.828 15.914 15.914 15.914 18.188 38.649 13.641 90.937 84.117 163.69t172.78 100.03q0-536.53-47.742-741.14-77.297-354.66-318.28-654.75-6.8203-6.821-18.188-18.188t-18.188-18.187q-4.5469-6.821-11.367-15.914-6.8203-11.367-11.367-20.461-2.2734-11.367-2.2734-25.008 0-29.555 63.656-29.555z" fill="#f00"/>
   </g>
  </g>
  <g class="TextShape" stroke-width=".012916" aria-label="T">
   <path d="m18.639 28.617v-6.6043h24.7v6.6043h-2.0447q-0.67474 0-0.79742-0.40893-0.20447-0.69519-0.40893-2.7603h-7.0337v23.534q0.16357 0 0.49072 0.08179 1.9833 0.36804 2.106 0.40893 0.40893 0.12268 0.40893 0.75653v1.7584h-10.142v-1.7584q0-0.71563 0.71563-0.83831 0.20447-0.04089 0.96099-0.20447 0.75653-0.16357 1.3495-0.26581v-23.514h-7.0746q-0.22491 2.2491-0.38849 2.8012-0.12268 0.40893-0.83831 0.40893z"/>
  </g>
  <g fill="none" stroke="#000" stroke-linejoin="round" stroke-width=".91706">
   <path d="m16.289 20.567h29.411"/>
   <path d="m45.247 20.115v33.854"/>
   <path d="m45.699 53.516h-29.411"/>
   <path d="m16.741 53.969v-33.854"/>
  </g>
  <g stroke-width=".26458" aria-label="2">
   <path d="m19.159 26.259v-0.1345q0-0.03748 0.01764-0.0904 0.01323-0.03969 0.05512-0.08158l1.0385-1.0385q0.12127-0.12788 0.23372-0.25356 0.09481-0.10583 0.1808-0.24474 0.06835-0.11245 0.11465-0.25135 0.03969-0.12347 0.03969-0.26679 0-0.12788-0.0441-0.24915-0.04189-0.11465-0.12347-0.1808-0.09481-0.07717-0.18521-0.10363-0.10142-0.03087-0.2249-0.03087-0.13009 0-0.2271 0.03528-0.11245 0.04189-0.18521 0.09922-0.08158 0.06615-0.1345 0.15434-0.05292 0.08819-0.07717 0.18962-0.01543 0.07276-0.05292 0.09922-0.03969 0.02646-0.09922 0.02646h-0.01984q-0.0044 0-0.01543-0.0022-0.01102-0.0022-0.01543-0.0022l-0.21167-0.03528q0.02646-0.21828 0.12568-0.39246 0.09481-0.16757 0.2271-0.28002 0.14111-0.11906 0.31971-0.1808 0.17639-0.05953 0.38365-0.05953 0.21387 0 0.38806 0.05953 0.16977 0.05733 0.30648 0.1808 0.1345 0.12127 0.20946 0.28002 0.07056 0.14993 0.07056 0.37924 0 0.183-0.05292 0.33293-0.05733 0.16316-0.14552 0.29325-0.09701 0.14332-0.21608 0.27561-0.12127 0.1367-0.25797 0.2712l-0.85328 0.86651q0.07056-0.01984 0.18521-0.03528 0.09481-0.01323 0.17639-0.01323h0.88415q0.0044-0.05512 0.01102-0.11465 0.0066-0.06174 0.01102-0.09922 0.0066-0.03748 0.0066-0.0441 0.0066-0.03307 0.03307-0.05733 0.02866-0.02425 0.06174-0.02425h0.22049v0.44318l-0.0044 0.28002z" fill="#fff" stroke-width=".26458"/>
  </g>
 </g>
</svg>
