<?xml version="1.0" encoding="UTF-8"?>
<svg width="128.76" height="128" version="1.1" viewBox="0 0 34.067 33.867" xmlns="http://www.w3.org/2000/svg" xmlns:cc="http://creativecommons.org/ns#" xmlns:dc="http://purl.org/dc/elements/1.1/" xmlns:rdf="http://www.w3.org/1999/02/22-rdf-syntax-ns#">
 <title>Letter I Initial</title>
 <metadata>
  <rdf:RDF>
   <cc:Work rdf:about="">
    <dc:format>image/svg+xml</dc:format>
    <dc:type rdf:resource="http://purl.org/dc/dcmitype/StillImage"/>
    <dc:title>Letter I Initial</dc:title>
    <cc:license rdf:resource="http://artlibre.org/licence/lal"/>
    <dc:date>2021-10-16</dc:date>
    <dc:creator>
     <cc:Agent>
      <dc:title>Indrele the Lesser</dc:title>
     </cc:Agent>
    </dc:creator>
   </cc:Work>
   <cc:License rdf:about="http://artlibre.org/licence/lal">
    <cc:permits rdf:resource="http://creativecommons.org/ns#Reproduction"/>
    <cc:permits rdf:resource="http://creativecommons.org/ns#Distribution"/>
    <cc:permits rdf:resource="http://creativecommons.org/ns#DerivativeWorks"/>
    <cc:requires rdf:resource="http://creativecommons.org/ns#ShareAlike"/>
    <cc:requires rdf:resource="http://creativecommons.org/ns#Notice"/>
    <cc:requires rdf:resource="http://creativecommons.org/ns#Attribution"/>
   </cc:License>
  </rdf:RDF>
 </metadata>
 <path transform="matrix(.26459 0 0 .26459 -.00054193 0)" d="m48.096 7.2031c-1.4803 0-2.5546 0.63039-3.2207 1.8887-0.66614 1.2582-0.99805 2.4798-0.99805 3.6641v28.311c0 4.5149 0.81306 6.7715 2.4414 6.7715 1.2583 0 2.3325-2.3685 3.2207-7.1055 1.1103-6.1432 2.9229-10.362 5.4395-12.656 2.5166-2.3685 5.0696-3.5527 7.6602-3.5527 0.66614-1e-6 1.2592 0.55577 1.7773 1.666 0.59214 1.1102 0.88867 2.1825 0.88867 3.2188v84.158c0 2.3683 0.18462 4.0339 0.55469 4.9961 0.44407 1.0362 1.2198 1.5527 2.3301 1.5527 1.4803 0 2.2207-2.1465 2.2207-6.4394v-13.877c0-13.323 0.77772-25.387 2.332-36.193 1.5542-10.806 4.0702-18.281 7.5488-22.426 0.074-0.074 0.40786-0.37057 1-0.88867 0.59211-0.59214 1.036-1.1106 1.332-1.5547 0.29606-0.5181 0.44336-1.0366 0.44336-1.5547 0-0.96218-0.70309-1.7026-2.1094-2.2207-1.7023-0.4441-3.1439-1.5537-4.3281-3.3301-1.1842-1.8504-1.7773-3.2192-1.7773-4.1074v-0.001954c0-1.9984 0.36924-2.998 1.1094-2.998 0.14804 0 1.4815 1.0369 3.998 3.1094 2.5167 1.9984 4.7358 2.9961 6.6602 2.9961 0.22204 0 0.44396-0.037328 0.66602-0.11133 0.29604-0.14803 0.66723-0.85113 1.1113-2.1094 0.81417-3.1826 1.8138-6.105 2.998-8.7695 1.2583-2.7384 2.256-4.7378 2.9961-5.9961 0.81417-1.2583 1.2227-1.924 1.2227-1.998 0-1.5543-1.7775-2.3301-5.3301-2.3301h-28.311c-1.7024 0-4.4028-0.33386-8.1035-1-3.6268-0.74014-5.5514-1.1113-5.7734-1.1113zm18.924 2.3066c0.53888 0 1.0279 0.07469 1.4668 0.22461 0.42776 0.14438 0.81374 0.37242 1.1582 0.68359 0.3389 0.30556 0.60214 0.6586 0.79102 1.0586 0.17779 0.37777 0.26562 0.85386 0.26562 1.4316 0 0.4611-0.065878 0.88199-0.19922 1.2598-0.14445 0.41111-0.32857 0.77964-0.55078 1.1074-0.24443 0.36109-0.51639 0.70766-0.81641 1.041-0.30556 0.34444-0.63017 0.68652-0.97461 1.0254l-3.2246 3.2754c0.17779-0.04989 0.41034-0.093758 0.69922-0.13281 0.23889-0.03326 0.46241-0.050781 0.66797-0.050781h3.3418c0.011087-0.13883 0.024336-0.28355 0.041016-0.43359 0.01663-0.15546 0.029879-0.28051 0.041015-0.375 0.01663-0.094487 0.025391-0.14939 0.025391-0.16602 0.01663-0.0834 0.058305-0.15582 0.125-0.2168 0.072214-0.061228 0.14907-0.091797 0.23242-0.091797h0.83398v1.6758l-0.015625 1.0586-8.1426-0.001954v-0.50781c0-0.094487 0.02196-0.20851 0.066406-0.3418 0.033336-0.10003 0.10344-0.20302 0.20898-0.30859l3.9258-3.9258c0.30556-0.32221 0.59948-0.64231 0.88281-0.95898 0.23889-0.26666 0.46693-0.57382 0.68359-0.92383 0.17222-0.28334 0.31693-0.59924 0.43359-0.94922 0.1-0.31113 0.14844-0.64867 0.14844-1.0098 0-0.32224-0.054899-0.63587-0.16602-0.94141-0.10555-0.2889-0.26124-0.51694-0.4668-0.68359-0.23889-0.19452-0.47144-0.32403-0.69922-0.39062-0.25554-0.077857-0.54043-0.11719-0.85156-0.11719-0.32778 0-0.61299 0.043868-0.85742 0.13281-0.28334 0.10557-0.51589 0.23062-0.69922 0.375-0.20555 0.16655-0.37642 0.36165-0.50976 0.58398-0.13334 0.22223-0.22991 0.46125-0.29102 0.7168-0.038878 0.18343-0.10476 0.30848-0.19922 0.375-0.1 0.066771-0.225 0.09961-0.375 0.09961h-0.076172c-0.011086 0-0.030802-0.002773-0.058593-0.007813-0.027767-0.005039-0.047482-0.007812-0.058594-0.007812l-0.79883-0.13281c0.06667-0.54999 0.22461-1.0435 0.47461-1.4824 0.23889-0.42222 0.52605-0.77526 0.85938-1.0586 0.35555-0.29999 0.75704-0.52803 1.207-0.68359 0.44444-0.14992 0.92895-0.22461 1.4512-0.22461z" fill="#f00" stroke-width=".048835"/>
 <path transform="matrix(.26459 0 0 .26459 -.00054193 0)" d="m47.914 7.2344v6.6484c1e-6 1.5977 0.61854 2.5501 1.8555 2.8594 1.2369 0.30924 4.4075 0.92778 9.5098 1.8555v90.371l-9.1992 1.7793c-1.4431 0.30923-2.166 1.3129-2.166 3.0137v6.8047h38.113v-6.8047c0-1.5977-0.61854-2.5501-1.8555-2.8594-1.7008-0.41229-4.9226-1.0574-9.6641-1.9336v-90.371l9.123-1.7012c1.5977-0.30924 2.3965-1.3129 2.3965-3.0137v-6.6484h-38.113zm19.105 2.2754c0.53888 0 1.0279 0.07469 1.4668 0.22461 0.42776 0.14438 0.81374 0.37242 1.1582 0.68359 0.3389 0.30556 0.60214 0.6586 0.79102 1.0586 0.17779 0.37777 0.26758 0.85581 0.26758 1.4336 0 0.4611-0.067831 0.88004-0.20117 1.2578-0.14445 0.41111-0.32662 0.77964-0.54883 1.1074-0.24443 0.36109-0.51834 0.70962-0.81836 1.043-0.30556 0.34444-0.63017 0.68652-0.97461 1.0254l-3.2246 3.2734c0.17779-0.04989 0.41034-0.093758 0.69922-0.13281 0.23889-0.03326 0.46241-0.048828 0.66797-0.048828h3.3418c0.011087-0.13883 0.024336-0.28355 0.041016-0.43359 0.01663-0.15546 0.029879-0.28051 0.041015-0.375 0.01663-0.094487 0.025391-0.15134 0.025391-0.16797 0.01663-0.0834 0.058305-0.15582 0.125-0.2168 0.072214-0.061228 0.15102-0.091797 0.23438-0.091797h0.83203v1.6758l-0.015625 1.0586-8.1426-0.001954v-0.50781c0-0.094487 0.02196-0.20851 0.066406-0.3418 0.033336-0.10003 0.10344-0.20302 0.20898-0.30859l3.9258-3.9238c0.30556-0.32221 0.59948-0.64231 0.88281-0.95898 0.23889-0.26666 0.46693-0.57578 0.68359-0.92578 0.17222-0.28334 0.31693-0.59924 0.43359-0.94922 0.1-0.31113 0.14844-0.64672 0.14844-1.0078 0-0.32224-0.054899-0.63782-0.16602-0.94336-0.10555-0.2889-0.26124-0.51499-0.4668-0.68164-0.23889-0.19452-0.47144-0.32598-0.69922-0.39258-0.25554-0.077857-0.54043-0.11719-0.85156-0.11719-0.32778 0-0.61299 0.045821-0.85742 0.13476-0.28334 0.10557-0.51589 0.23062-0.69922 0.375-0.20555 0.16655-0.37642 0.3597-0.50976 0.58203-0.13334 0.22223-0.22991 0.46125-0.29102 0.7168-0.038878 0.18343-0.10476 0.30848-0.19922 0.375-0.1 0.066771-0.225 0.09961-0.375 0.09961h-0.076172c-0.011086 0-0.030802-8.2e-4 -0.058593-0.00586-0.027767-0.005039-0.045529-0.007812-0.056641-0.007812l-0.80078-0.13477c0.06667-0.54999 0.22461-1.0435 0.47461-1.4824 0.23889-0.42222 0.52605-0.77526 0.85938-1.0586 0.35555-0.29999 0.75704-0.52803 1.207-0.68359 0.44444-0.14992 0.92895-0.22461 1.4512-0.22461z" stroke-width=".048835"/>
 <g transform="translate(-46.454,-125.94)" fill="none" stroke="#000" stroke-linejoin="round" stroke-width=".89737">
  <path d="m46.47 126.4h34.035"/>
  <path d="m80.073 125.94v33.867"/>
  <path d="m80.505 159.35h-34.035"/>
  <path d="m46.903 159.81v-33.867"/>
 </g>
</svg>
