<?xml version="1.0" encoding="UTF-8"?>
<svg width="136.99" height="128" version="1.1" viewBox="0 0 36.246 33.867" xmlns="http://www.w3.org/2000/svg" xmlns:cc="http://creativecommons.org/ns#" xmlns:dc="http://purl.org/dc/elements/1.1/" xmlns:rdf="http://www.w3.org/1999/02/22-rdf-syntax-ns#">
 <title>Letter H Initial</title>
 <defs>
  <clipPath id="clip_path_1">
   <path d="m0 0h15875v23495h-15875z"/>
  </clipPath>
 </defs>
 <metadata>
  <rdf:RDF>
   <cc:Work rdf:about="">
    <dc:format>image/svg+xml</dc:format>
    <dc:type rdf:resource="http://purl.org/dc/dcmitype/StillImage"/>
    <dc:title>Letter H Initial</dc:title>
    <dc:creator>
     <cc:Agent>
      <dc:title>Indrele the Lesser</dc:title>
     </cc:Agent>
    </dc:creator>
    <dc:date>2021-10-16</dc:date>
    <cc:license rdf:resource="http://artlibre.org/licence/lal"/>
   </cc:Work>
   <cc:License rdf:about="http://artlibre.org/licence/lal">
    <cc:permits rdf:resource="http://creativecommons.org/ns#Reproduction"/>
    <cc:permits rdf:resource="http://creativecommons.org/ns#Distribution"/>
    <cc:permits rdf:resource="http://creativecommons.org/ns#DerivativeWorks"/>
    <cc:requires rdf:resource="http://creativecommons.org/ns#ShareAlike"/>
    <cc:requires rdf:resource="http://creativecommons.org/ns#Notice"/>
    <cc:requires rdf:resource="http://creativecommons.org/ns#Attribution"/>
   </cc:License>
  </rdf:RDF>
 </metadata>
 <g transform="translate(-8.3356 -17.84)">
  <g transform="matrix(.0129 0 0 .0129 -7.5628 -19.643)" clip-path="url(#clip_path_1)">
   <g class="TextShape" aria-label="H">
    <path d="m2889.5 4261.3q-13.641 129.59-56.836 256.9-40.922 127.31-120.49 256.9-77.297 127.31-129.59 202.34-52.289 75.024-156.87 204.61-104.58 131.86-127.31 161.41-31.828 38.648-88.664 38.648h-200.06q-90.938 0-90.938-38.648 0-34.102 134.13-56.836 97.758-15.914 231.89-200.06 136.41-184.15 234.16-438.77 100.03-256.9 100.03-454.69 0-181.88-72.75-366.02-72.75-184.15-206.88-313.73t-293.27-136.41q-38.648-2.2735-70.476-18.188-29.555-15.914-29.555-43.195 0-52.289 140.95-52.289h729.77q95.484 0 168.23-34.102 75.024-34.102 109.12-72.75 34.102-40.922 68.203-75.023 36.375-34.102 63.656-34.102 54.562 0 54.562 95.484 0 165.96-34.102 265.99-34.102 100.03-125.04 231.89-22.734 34.102-56.836 65.93-31.828 29.555-45.469 29.555-31.828 0-31.828-70.477 0-6.8203 20.461-75.023 22.734-70.477 22.734-115.95 0-59.109-18.188-77.297-18.188-20.461-97.758-20.461h-327.38q-54.562 0-54.562 68.203 0 70.476 47.742 156.87 50.016 86.391 134.13 195.52 86.391 109.12 113.67 154.59 45.469 84.117 118.22 84.117h97.758q34.102 0 54.562-18.188 22.734-20.461 22.734-50.016v-15.914q-15.914-75.023-15.914-97.758 0-13.641 4.5469-25.008 6.8203-11.367 11.367-18.188 6.8203-6.8203 20.461-18.188 13.641-13.641 15.914-15.914 18.188-18.188 31.828-38.648 15.914-20.461 22.734-34.102 9.0937-13.641 15.914-22.734 9.0937-9.0938 18.188-9.0938 11.367 0 40.922 72.75 31.828 70.477 59.109 179.6 27.281 106.85 27.281 188.7 0 363.75-181.88 747.96-36.375 75.024-72.75 75.024-31.828 0-31.828-50.016 0-9.0937 18.188-93.211 18.188-86.391 34.102-227.34 18.188-143.23 18.188-293.27 0-79.57-113.67-79.57h-72.75q-36.375 0-59.109 20.461-20.461 18.188-22.734 47.742z" fill="#f00"/>
   </g>
  </g>
  <g class="TextShape" stroke-width=".01279" aria-label="H">
   <path d="m11.292 49.787v-1.808q0-0.67801 0.61637-0.80128l2.4038-0.47255v-24.018q-2.034-0.36982-2.5271-0.4931-0.4931-0.12328-0.4931-0.76019v-1.7669h10.129v1.7669q0 0.63692-0.41091 0.76019-0.47255 0.12327-2.5682 0.4931v10.396h16.231v-10.396q-2.034-0.36982-2.5271-0.4931-0.4931-0.12328-0.4931-0.76019v-1.7669h10.17v1.7669q0 0.67801-0.61637 0.80128l-2.4449 0.45201v24.018q1.7258 0.30818 2.5271 0.51364 0.4931 0.12327 0.4931 0.76019v1.808h-10.17v-1.808q0-0.65746 0.67801-0.80128l2.3422-0.47255v-10.643h-16.231v10.643q3.0202 0.61637 3.0202 1.2738v1.808z"/>
  </g>
  <g fill="none" stroke="#000" stroke-linejoin="round" stroke-width=".90806">
   <path d="m8.342 18.295h36.233"/>
   <path d="m44.127 17.847v33.854"/>
   <path d="m44.575 51.253h-36.233"/>
   <path d="m8.7896 51.701v-33.854"/>
  </g>
  <g stroke-width=".26458" aria-label="2">
   <path d="m15.272 24.178v-0.1345q0-0.03748 0.01764-0.0904 0.01323-0.03969 0.05512-0.08158l1.0385-1.0385q0.12127-0.12788 0.23372-0.25356 0.09481-0.10583 0.1808-0.24474 0.06835-0.11245 0.11465-0.25135 0.03969-0.12347 0.03969-0.26679 0-0.12788-0.0441-0.24915-0.04189-0.11465-0.12347-0.1808-0.09481-0.07717-0.18521-0.10363-0.10142-0.03087-0.2249-0.03087-0.13009 0-0.2271 0.03528-0.11245 0.04189-0.18521 0.09922-0.08158 0.06615-0.1345 0.15434-0.05292 0.08819-0.07717 0.18962-0.01543 0.07276-0.05292 0.09922-0.03969 0.02646-0.09922 0.02646h-0.01984q-0.0044 0-0.01543-0.0022-0.01102-0.0022-0.01543-0.0022l-0.21167-0.03528q0.02646-0.21828 0.12568-0.39246 0.09481-0.16757 0.2271-0.28002 0.14111-0.11906 0.3197-0.1808 0.17639-0.05953 0.38365-0.05953 0.21387 0 0.38806 0.05953 0.16977 0.05733 0.30648 0.1808 0.1345 0.12127 0.20946 0.28002 0.07055 0.14993 0.07055 0.37924 0 0.183-0.05292 0.33294-0.05733 0.16316-0.14552 0.29325-0.09701 0.14332-0.21608 0.27561-0.12127 0.1367-0.25797 0.2712l-0.85328 0.86651q0.07056-0.01984 0.18521-0.03528 0.09481-0.01323 0.17639-0.01323h0.88415q0.0044-0.05512 0.01102-0.11465 0.0066-0.06174 0.01102-0.09922 0.0066-0.03748 0.0066-0.0441 0.0066-0.03307 0.03307-0.05733 0.02866-0.02425 0.06174-0.02425h0.22049v0.44318l-0.0044 0.28002z" fill="#fff" stroke-width=".26458"/>
  </g>
 </g>
</svg>
