<?xml version="1.0" encoding="UTF-8"?>
<svg width="111.21" height="128" version="1.1" viewBox="0 0 29.423 33.867" xmlns="http://www.w3.org/2000/svg" xmlns:cc="http://creativecommons.org/ns#" xmlns:dc="http://purl.org/dc/elements/1.1/" xmlns:rdf="http://www.w3.org/1999/02/22-rdf-syntax-ns#">
 <title>Letter T Initial</title>
 <defs>
  <clipPath id="clip_path_1">
   <path d="m0 0h15849v23495h-15849z"/>
  </clipPath>
 </defs>
 <metadata>
  <rdf:RDF>
   <cc:Work rdf:about="">
    <dc:format>image/svg+xml</dc:format>
    <dc:type rdf:resource="http://purl.org/dc/dcmitype/StillImage"/>
    <dc:title>Letter T Initial</dc:title>
    <dc:date>2021-10-16</dc:date>
    <dc:creator>
     <cc:Agent>
      <dc:title>Indrele-the-Lesser</dc:title>
     </cc:Agent>
    </dc:creator>
    <cc:license rdf:resource="http://artlibre.org/licence/lal"/>
   </cc:Work>
   <cc:License rdf:about="http://artlibre.org/licence/lal">
    <cc:permits rdf:resource="http://creativecommons.org/ns#Reproduction"/>
    <cc:permits rdf:resource="http://creativecommons.org/ns#Distribution"/>
    <cc:permits rdf:resource="http://creativecommons.org/ns#DerivativeWorks"/>
    <cc:requires rdf:resource="http://creativecommons.org/ns#ShareAlike"/>
    <cc:requires rdf:resource="http://creativecommons.org/ns#Notice"/>
    <cc:requires rdf:resource="http://creativecommons.org/ns#Attribution"/>
   </cc:License>
  </rdf:RDF>
 </metadata>
 <g transform="matrix(.012916 0 0 .012799 -16.263 -211.26)" clip-path="url(#clip_path_1)">
  <g class="TextShape" aria-label="T">
   <path d="m1882.3 17142h720.68q20.461 0 34.102-9.093 13.641-9.094 11.367-25.008-29.555-131.86-186.42-222.8-156.87-93.211-413.77-138.68-52.289-9.094-52.289-38.648 0-34.102 56.836-34.102 165.96 0 370.57 63.656 206.88 63.657 361.48 175.06 154.59 111.4 154.59 229.62 0 43.196-159.14 140.95-156.87 95.485-320.55 165.96-29.555 13.641-50.016-15.914-36.375-54.562-122.77-113.67-86.391-59.109-127.31-59.109-9.0937 0-11.367 4.547-2.2734 4.547 0 11.367 4.5469 6.82 11.367 15.914 113.67 104.58 193.24 254.62 79.57 147.77 79.57 297.82 0 450.14-90.938 836.62h31.828q38.648 0 75.023-6.82 36.375-4.547 61.383-11.367 25.008-4.547 59.109-25.008 34.102-18.187 47.742-25.008 15.914-6.82 52.289-38.648 36.375-29.555 45.469-38.649 11.367-9.093 54.562-50.015 45.469-43.195 56.836-54.563 47.742-47.742 70.477-47.742 31.828 0 31.828 38.649 0 25.007-109.12 161.41-109.12 138.68-265.99 275.09-156.87 138.68-256.9 138.68-90.938 0-188.7-127.31-97.758-125.04-152.32-259.17-52.289-134.13-52.289-188.7 0-75.024 36.375-75.024 18.188 0 31.828 15.914 15.914 15.914 18.188 38.649 13.641 90.937 84.117 163.69t172.78 100.03q0-536.53-47.742-741.14-77.297-354.66-318.28-654.75-6.8203-6.821-18.188-18.188t-18.188-18.187q-4.5469-6.821-11.367-15.914-6.8203-11.367-11.367-20.461-2.2734-11.367-2.2734-25.008 0-29.555 63.656-29.555z" fill="#f00"/>
  </g>
 </g>
 <path transform="matrix(.26459 0 0 .26459 -.00080093 0)" d="m8.9121 7.1992v24.961l7.5723-0.001953c1.8031 0 2.8589-0.51456 3.168-1.5449 0.41217-1.3911 0.90205-4.9209 1.4688-10.588h26.738v88.871c-1.4941 0.25761-3.1954 0.59177-5.1016 1.0039-1.9062 0.41217-3.1157 0.67041-3.6309 0.77344-1.8031 0.30911-2.7051 1.3648-2.7051 3.168v6.6465h38.332v-6.6465c0-1.5971-0.51651-2.5503-1.5469-2.8594-0.30916-0.10303-2.9617-0.61758-7.959-1.5449-0.82431-0.20608-1.4414-0.30859-1.8535-0.30859v-88.947h26.582c0.51517 5.2034 1.0317 8.68 1.5469 10.432 0.30911 1.0304 1.3136 1.5469 3.0137 1.5469h7.7285v-24.961h-93.354zm6.1973 3.6738c0.53888 0 1.0279 0.074614 1.4668 0.22461 0.42776 0.14445 0.81374 0.37249 1.1582 0.68359 0.33889 0.30556 0.6041 0.6586 0.79297 1.0586 0.17779 0.37777 0.26562 0.85581 0.26562 1.4336 0 0.4611-0.065879 0.88004-0.19922 1.2578-0.14445 0.41111-0.32857 0.77964-0.55078 1.1074-0.24443 0.36112-0.51639 0.70964-0.81641 1.043-0.30556 0.34444-0.63017 0.6865-0.97461 1.0254l-3.2246 3.2734c0.17779-0.04999 0.41034-0.093909 0.69922-0.13281 0.23889-0.033335 0.46046-0.050781 0.66602-0.050781h3.3418c0.011087-0.13888 0.026289-0.28164 0.042969-0.43164 0.01663-0.15556 0.029878-0.28056 0.041015-0.375 0.01663-0.094436 0.025391-0.15129 0.025391-0.16797 0.01663-0.083326 0.058305-0.15567 0.125-0.2168 0.072213-0.061102 0.14907-0.091797 0.23242-0.091797h0.83398v1.6758l-0.017578 1.0586h-8.1406v-0.50781c0-0.094436 0.02196-0.20846 0.066406-0.3418 0.033335-0.10001 0.10344-0.20305 0.20898-0.30859l3.9238-3.9258c0.30556-0.32221 0.59948-0.64231 0.88281-0.95898 0.23889-0.26666 0.46693-0.57382 0.68359-0.92383 0.17222-0.28334 0.31693-0.60119 0.43359-0.95117 0.1-0.3111 0.15039-0.6467 0.15039-1.0078 0-0.32222-0.054898-0.63585-0.16602-0.94141-0.10555-0.28888-0.26124-0.51692-0.4668-0.68359-0.23889-0.19444-0.4734-0.32396-0.70117-0.39062-0.25554-0.077782-0.53848-0.11719-0.84961-0.11719-0.32778 0-0.61299 0.043919-0.85742 0.13281-0.28334 0.10555-0.51784 0.23055-0.70117 0.375-0.20555 0.16668-0.37447 0.36178-0.50781 0.58398-0.13334 0.22221-0.22991 0.46123-0.29102 0.7168-0.038878 0.18333-0.10671 0.30833-0.20117 0.375-0.1 0.06667-0.225 0.099609-0.375 0.099609h-0.074219c-0.011086 0-0.030802-0.002269-0.058594-0.007812-0.027766-0.005544-0.047482-0.007813-0.058593-0.007813l-0.79883-0.13476c0.06667-0.54999 0.22461-1.0435 0.47461-1.4824 0.23889-0.42222 0.5241-0.77526 0.85742-1.0586 0.35555-0.29999 0.75897-0.52803 1.209-0.68359 0.44444-0.15 0.92699-0.22461 1.4492-0.22461z" stroke-width=".048816"/>
 <g transform="translate(-16.282,-20.108)" fill="none" stroke="#000" stroke-linejoin="round" stroke-width=".91706">
  <path d="m16.289 20.567h29.411"/>
  <path d="m45.247 20.115v33.854"/>
  <path d="m45.699 53.516h-29.411"/>
  <path d="m16.741 53.969v-33.854"/>
 </g>
</svg>
