<?xml version="1.0" encoding="UTF-8"?>
<svg width="136.99" height="128" version="1.1" viewBox="0 0 36.246 33.867" xmlns="http://www.w3.org/2000/svg" xmlns:cc="http://creativecommons.org/ns#" xmlns:dc="http://purl.org/dc/elements/1.1/" xmlns:rdf="http://www.w3.org/1999/02/22-rdf-syntax-ns#">
 <title>Letter H Initial</title>
 <metadata>
  <rdf:RDF>
   <cc:Work rdf:about="">
    <dc:format>image/svg+xml</dc:format>
    <dc:type rdf:resource="http://purl.org/dc/dcmitype/StillImage"/>
    <dc:title>Letter H Initial</dc:title>
    <dc:creator>
     <cc:Agent>
      <dc:title>Indrele the Lesser</dc:title>
     </cc:Agent>
    </dc:creator>
    <dc:date>2021-10-16</dc:date>
    <cc:license rdf:resource="http://artlibre.org/licence/lal"/>
   </cc:Work>
   <cc:License rdf:about="http://artlibre.org/licence/lal">
    <cc:permits rdf:resource="http://creativecommons.org/ns#Reproduction"/>
    <cc:permits rdf:resource="http://creativecommons.org/ns#Distribution"/>
    <cc:permits rdf:resource="http://creativecommons.org/ns#DerivativeWorks"/>
    <cc:requires rdf:resource="http://creativecommons.org/ns#ShareAlike"/>
    <cc:requires rdf:resource="http://creativecommons.org/ns#Notice"/>
    <cc:requires rdf:resource="http://creativecommons.org/ns#Attribution"/>
   </cc:License>
  </rdf:RDF>
 </metadata>
 <g class="TextShape" transform="matrix(.0129 0 0 .0129 -15.898 -37.483)" aria-label="H">
  <path d="m2889.5 4261.3q-13.641 129.59-56.836 256.9-40.922 127.31-120.49 256.9-77.297 127.31-129.59 202.34-52.289 75.024-156.87 204.61-104.58 131.86-127.31 161.41-31.828 38.648-88.664 38.648h-200.06q-90.938 0-90.938-38.648 0-34.102 134.13-56.836 97.758-15.914 231.89-200.06 136.41-184.15 234.16-438.77 100.03-256.9 100.03-454.69 0-181.88-72.75-366.02-72.75-184.15-206.88-313.73t-293.27-136.41q-38.648-2.2735-70.476-18.188-29.555-15.914-29.555-43.195 0-52.289 140.95-52.289h729.77q95.484 0 168.23-34.102 75.024-34.102 109.12-72.75 34.102-40.922 68.203-75.023 36.375-34.102 63.656-34.102 54.562 0 54.562 95.484 0 165.96-34.102 265.99t-125.04 231.89q-22.734 34.102-56.836 65.93-31.828 29.555-45.469 29.555-31.828 0-31.828-70.477 0-6.8203 20.461-75.023 22.734-70.477 22.734-115.95 0-59.109-18.188-77.297-18.188-20.461-97.758-20.461h-327.38q-54.562 0-54.562 68.203 0 70.476 47.742 156.87 50.016 86.391 134.13 195.52 86.391 109.12 113.67 154.59 45.469 84.117 118.22 84.117h97.758q34.102 0 54.562-18.188 22.734-20.461 22.734-50.016v-15.914q-15.914-75.023-15.914-97.758 0-13.641 4.5469-25.008 6.8203-11.367 11.367-18.188 6.8203-6.8203 20.461-18.188 13.641-13.641 15.914-15.914 18.188-18.188 31.828-38.648 15.914-20.461 22.734-34.102 9.0937-13.641 15.914-22.734 9.0937-9.0938 18.188-9.0938 11.367 0 40.922 72.75 31.828 70.477 59.109 179.6 27.281 106.85 27.281 188.7 0 363.75-181.88 747.96-36.375 75.024-72.75 75.024-31.828 0-31.828-50.016 0-9.0937 18.188-93.211 18.188-86.391 34.102-227.34 18.188-143.23 18.188-293.27 0-79.57-113.67-79.57h-72.75q-36.375 0-59.109 20.461-20.461 18.188-22.734 47.742z" fill="#f00"/>
 </g>
 <path transform="matrix(.26459 0 0 .26459 0 -.00017331)" d="m11.174 6.9062v6.6777c0 1.6048 0.62085 2.5624 1.8633 2.873 1.2424 0.31062 4.4258 0.93147 9.5508 1.8633v90.775l-9.084 1.7852c-1.553 0.31059-2.3301 1.321-2.3301 3.0293v6.832h38.281v-6.832c0-1.6565-3.8043-3.2614-11.414-4.8145v-40.225h61.344v40.225l-8.8516 1.7852c-1.7083 0.36237-2.5625 1.3727-2.5625 3.0293v6.832h38.437v-6.832c0-1.6048-0.6228-2.5625-1.8652-2.873-2.019-0.51768-5.2024-1.1649-9.5508-1.9414v-90.775l9.2402-1.709c1.553-0.3106 2.3301-1.319 2.3301-3.0273v-6.6777h-38.438v6.6777c0 1.6048 0.6228 2.5624 1.8652 2.873 1.2424 0.31062 4.4258 0.93147 9.5508 1.8633v39.291h-61.346v-39.291c5.2803-0.93184 8.5164-1.5527 9.707-1.8633 1.0353-0.3106 1.5527-1.2682 1.5527-2.873v-6.6777h-38.281zm19.275 4.6738c0.53887 0 1.0279 0.074616 1.4668 0.22461 0.42776 0.14445 0.81374 0.37249 1.1582 0.68359 0.33889 0.30556 0.60214 0.6586 0.79102 1.0586 0.17776 0.37777 0.26758 0.85582 0.26758 1.4336 1e-6 0.46109-0.067832 0.88002-0.20117 1.2578-0.14445 0.4111-0.32662 0.77964-0.54883 1.1074-0.24443 0.36111-0.51639 0.70965-0.81641 1.043-0.30556 0.34443-0.63213 0.6865-0.97656 1.0254l-3.2246 3.2734c0.17779-0.04999 0.4123-0.093909 0.70117-0.13281 0.23889-0.033335 0.46046-0.048829 0.66602-0.048829h3.3418c0.011086-0.13888 0.024335-0.2836 0.041015-0.43359 0.01663-0.15556 0.031832-0.28056 0.042969-0.375 0.01663-0.094436 0.023438-0.15129 0.023438-0.16797 0.016629-0.083324 0.058305-0.15567 0.125-0.2168 0.072212-0.061101 0.15102-0.091797 0.23438-0.091797h0.83203v1.6758l-0.015625 1.0586h-8.1426v-0.50781c0-0.094436 0.023913-0.20846 0.068359-0.3418 0.033335-0.1 0.10148-0.20305 0.20703-0.30859l3.9258-3.9258c0.30556-0.32221 0.59948-0.64036 0.88281-0.95703 0.23889-0.26665 0.46693-0.57578 0.68359-0.92578 0.17222-0.28333 0.31694-0.59924 0.43359-0.94922 0.1-0.3111 0.15039-0.64865 0.15039-1.0098 0-0.32221-0.056853-0.63585-0.16797-0.94141-0.10555-0.28888-0.26125-0.51692-0.4668-0.68359-0.23889-0.19444-0.47144-0.32396-0.69922-0.39062-0.25554-0.077781-0.53848-0.11719-0.84961-0.11719-0.32778 0-0.61494 0.04392-0.85937 0.13281-0.28333 0.10555-0.51589 0.23055-0.69922 0.375-0.20555 0.16667-0.37447 0.36178-0.50781 0.58398-0.13334 0.22221-0.23187 0.46123-0.29297 0.7168-0.038878 0.18333-0.10476 0.30833-0.19922 0.375-0.1 0.06667-0.22501 0.09961-0.375 0.09961h-0.074219c-0.011086 0-0.030802-0.00227-0.058594-0.007813-0.027766-0.005543-0.047482-0.007813-0.058594-0.007813l-0.80078-0.13476c0.06667-0.54999 0.22461-1.0436 0.47461-1.4824 0.23889-0.42222 0.52605-0.77526 0.85938-1.0586 0.35554-0.29999 0.759-0.52803 1.209-0.68359 0.44444-0.14999 0.927-0.22461 1.4492-0.22461z" stroke-width=".048339"/>
 <g transform="translate(-8.3356,-17.84)" fill="none" stroke="#000" stroke-linejoin="round" stroke-width=".90806">
  <path d="m8.342 18.295h36.233"/>
  <path d="m44.127 17.847v33.854"/>
  <path d="m44.575 51.253h-36.233"/>
  <path d="m8.7896 51.701v-33.854"/>
 </g>
</svg>
