<?xml version="1.0" encoding="UTF-8"?>
<svg width="90.007" height="128" version="1.1" viewBox="0 0 23.814 33.867" xmlns="http://www.w3.org/2000/svg" xmlns:cc="http://creativecommons.org/ns#" xmlns:dc="http://purl.org/dc/elements/1.1/" xmlns:rdf="http://www.w3.org/1999/02/22-rdf-syntax-ns#">
 <title>Letter S Initial</title>
 <metadata>
  <rdf:RDF>
   <cc:Work rdf:about="">
    <dc:format>image/svg+xml</dc:format>
    <dc:type rdf:resource="http://purl.org/dc/dcmitype/StillImage"/>
    <dc:title>Letter S Initial</dc:title>
    <dc:date>2021-10-16</dc:date>
    <dc:creator>
     <cc:Agent>
      <dc:title>Indrele-the-Lesser</dc:title>
     </cc:Agent>
    </dc:creator>
    <cc:license rdf:resource="http://artlibre.org/licence/lal"/>
   </cc:Work>
   <cc:License rdf:about="http://artlibre.org/licence/lal">
    <cc:permits rdf:resource="http://creativecommons.org/ns#Reproduction"/>
    <cc:permits rdf:resource="http://creativecommons.org/ns#Distribution"/>
    <cc:permits rdf:resource="http://creativecommons.org/ns#DerivativeWorks"/>
    <cc:requires rdf:resource="http://creativecommons.org/ns#ShareAlike"/>
    <cc:requires rdf:resource="http://creativecommons.org/ns#Notice"/>
    <cc:requires rdf:resource="http://creativecommons.org/ns#Attribution"/>
   </cc:License>
  </rdf:RDF>
 </metadata>
 <path transform="matrix(.26459 0 0 .26459 -.00029374 0)" d="m27.369 13.309c-1.8254 0-2.7383 0.98142-2.7383 2.9473 0 0.56166 0.24486 1.2649 0.73633 2.1074 0.56166 0.77232 1.1944 1.3678 1.8965 1.7891 11.654 6.74 19.132 13.445 22.432 20.115 0.35104 0.70209 0.42156 1.2995 0.21094 1.791-0.21065 0.49145-0.63377 0.59528-1.2656 0.31445-3.9318-1.6148-6.9151-2.7725-8.9512-3.4746-2.0359-0.70209-5.1251-1.3681-9.2676-2-2.6035-0.44126-5.4548-0.72865-8.502-0.89258v5.8262c1.4075 0.10446 2.1272 0.15857 2.1602 0.16406 0.15395 0.032982 0.23047 0.13618 0.23047 0.30664v0.67578h-4.3379c6.5147 4.2036 12.008 8.4941 16.453 12.875 4.9147 4.7038 8.8462 10.285 11.795 16.744 2.9487 6.4592 4.4219 13.48 4.4219 21.062 0 4.353-1.3321 8.4962-4 12.428-2.5976 4.0017-5.6517 7.0206-9.1621 9.0566-1.4042 0.77228-2.1427 1.7557-2.2129 2.9492-0.070209 0.63189 0.070831 1.1569 0.42188 1.5781 0.35104 0.49146 0.80748 0.73828 1.3691 0.73828 1.0531 0 2.3872-0.49171 4.002-1.4746 4.2827-2.8082 8.2497-6.7752 11.9-11.9 3.721-5.055 5.5801-10.25 5.5801-15.586 0-9.0571-1.5084-16.744-4.5273-23.062-2.9487-6.3186-7.6521-12.709-14.111-19.168-0.14042-0.14043-0.21094-0.31477-0.21094-0.52539 0-0.21062 0.070517-0.42219 0.21094-0.63281 0.14041-0.21062 0.2795-0.31641 0.41992-0.31641 3.5104 0.98294 7.197 2.7381 11.059 5.2656 3.8613 2.4571 6.3532 4.951 7.4766 7.4785 0.70205 1.7552 1.4739 2.6328 2.3164 2.6328 0.91271 0 1.3691-1.195 1.3691-3.582v-1.8945c0-5.7569-1.8239-12.427-5.4746-20.01-3.6507-7.6526-7.4079-12.568-11.27-14.744-0.56166-0.35104-0.73601-0.7722-0.52539-1.2637 0.21062-0.49147 0.66705-0.73633 1.3691-0.73633 5.4061 0 10.636 1.7552 15.691 5.2656 5.1253 3.4404 7.9676 6.8449 8.5293 10.215 0.35104 1.4042 1.3697 2.1074 3.0547 2.1074 0.91271 0 1.3691-1.5103 1.3691-4.5293 0-2.5978-0.63273-5.4421-1.8965-8.5312-1.1936-3.0893-2.7372-5.8258-4.6328-8.2129-0.84221-1.2638-3.1951-1.8965-7.0566-1.8965h-17.166c-2.3167 0-5.7919-0.31541-10.426-0.94727-4.5634-0.70209-7.4765-1.0527-8.7402-1.0527zm-11.059 22.535c-1.1233 0-1.6855 0.73852-1.6855 2.2129 0 0.49147 0.14104 0.9479 0.42188 1.3691 0.28084 0.35104 0.5257 0.63117 0.73633 0.8418 0.21062 0.21062 0.63181 0.52603 1.2637 0.94727 0.63187 0.35103 1.0197 0.5626 1.1602 0.63281 0.066505 0.041565 0.12901 0.083418 0.19531 0.125l2.0254-0.14062v-5.9062c-1.3343-0.050736-2.7017-0.082031-4.1172-0.082031z" fill="#f00" stroke-width=".05094"/>
 <path transform="matrix(.26459 0 0 .26459 -.00029374 0)" d="m46.785 6.8164c-10.261 0-18.59 3.1233-24.99 9.3711-5.9429 5.9429-8.9141 13.029-8.9141 21.258 0 8.9907 2.7682 15.95 8.3047 20.877 2.7938 2.489 5.6634 4.3688 8.6094 5.6387 2.1331 0.91438 8.6866 3.0988 19.658 6.5527 2.8444 0.86349 5.638 2.107 8.3809 3.7324 5.6382 3.1491 8.457 7.7211 8.457 13.715 0 6.2477-1.9814 11.2-5.9434 14.857-1.8285 1.8287-4.2161 3.2244-7.1621 4.1894-3.3018 1.0667-7.1611 1.6016-11.58 1.6016-4.5717 0-10.922-1.4739-19.049-4.4199l-0.45703-6.8574c-0.30475-4.2159-0.55853-6.7557-0.76172-7.6191-0.30475-1.7778-1.3453-2.666-3.123-2.666h-7.6191v28.113l4.4941 1.5234c4.5714 1.3207 8.7373 2.3123 12.496 2.9727 5.3334 0.91428 10.438 1.3711 15.314 1.3711 11.733 0 20.977-3.3771 27.732-10.133 6.4508-6.4508 9.6758-14.808 9.6758-25.068 0-11.733-5.6126-20.114-16.838-25.143h0.30469c-4.0635-1.6761-10.615-4.0129-19.656-7.0098-3.2-1.0667-6.1204-2.3863-8.7617-3.9609-5.5873-3.0984-8.3809-7.4167-8.3809-12.953 0-5.0794 1.751-9.218 5.2559-12.418 3.657-3.3524 8.8634-5.0293 15.619-5.0293 5.1809 0 11.328 0.98975 18.439 2.9707 0.20316 2.6412 0.38081 5.1049 0.5332 7.3906 0.20318 2.2856 0.33006 3.9372 0.38086 4.9531 0.10159 0.965 0.15234 1.4725 0.15234 1.5234 0.30478 1.7778 1.396 2.666 3.2754 2.666h7.4668v-25.752c-10.159-4.165-20.597-6.248-31.314-6.248zm-26.086 24.039h1.2207v10.977c1.4075 0.10446 2.1272 0.16052 2.1602 0.16602 0.15395 0.032982 0.23047 0.13423 0.23047 0.30469v0.67578h-6.4824v-0.67578c0-0.17046 0.080785-0.2717 0.24023-0.30469l2.3594-0.16602v-8.2461c0-0.33539 0.00464-0.58933 0.015625-0.75977l-2.1602 1.8398c-0.10996 0.093469-0.21317 0.14062-0.30664 0.14062-0.19244 0-0.32732-0.062994-0.4043-0.18945l-0.46875-0.66016 3.5957-3.1016z" stroke-width=".047848"/>
 <g transform="translate(-75.027,-144.08)" fill="none" stroke="#000" stroke-linejoin="round" stroke-width=".89889">
  <path d="m75.034 144.53h23.802"/>
  <path d="m98.392 144.09v33.854"/>
  <path d="m98.835 177.5h-23.802"/>
  <path d="m75.477 177.94v-33.854"/>
 </g>
</svg>
