<?xml version="1.0" encoding="UTF-8"?>
<svg width="128.76" height="128" version="1.1" viewBox="0 0 34.067 33.867" xmlns="http://www.w3.org/2000/svg" xmlns:cc="http://creativecommons.org/ns#" xmlns:dc="http://purl.org/dc/elements/1.1/" xmlns:rdf="http://www.w3.org/1999/02/22-rdf-syntax-ns#">
 <title>Letter I Initial</title>
 <defs>
  <clipPath id="clip_path_1">
   <path d="m0 0h15849v23495h-15849z"/>
  </clipPath>
 </defs>
 <metadata>
  <rdf:RDF>
   <cc:Work rdf:about="">
    <dc:format>image/svg+xml</dc:format>
    <dc:type rdf:resource="http://purl.org/dc/dcmitype/StillImage"/>
    <dc:title>Letter I Initial</dc:title>
    <cc:license rdf:resource="http://artlibre.org/licence/lal"/>
    <dc:date>2021-10-16</dc:date>
    <dc:creator>
     <cc:Agent>
      <dc:title>Indrele the Lesser</dc:title>
     </cc:Agent>
    </dc:creator>
   </cc:Work>
   <cc:License rdf:about="http://artlibre.org/licence/lal">
    <cc:permits rdf:resource="http://creativecommons.org/ns#Reproduction"/>
    <cc:permits rdf:resource="http://creativecommons.org/ns#Distribution"/>
    <cc:permits rdf:resource="http://creativecommons.org/ns#DerivativeWorks"/>
    <cc:requires rdf:resource="http://creativecommons.org/ns#ShareAlike"/>
    <cc:requires rdf:resource="http://creativecommons.org/ns#Notice"/>
    <cc:requires rdf:resource="http://creativecommons.org/ns#Attribution"/>
   </cc:License>
  </rdf:RDF>
 </metadata>
 <g transform="translate(-46.454 -125.94)">
  <g transform="matrix(.012921 0 0 .012921 28.68 -82.959)" clip-path="url(#clip_path_1)">
   <g class="TextShape" aria-label="I">
    <path d="m2908.3 16731q0 27.281 36.375 84.117 36.375 54.563 88.664 68.204 43.195 15.914 43.195 45.468 0 15.914-9.0937 31.828-9.0938 13.641-27.281 31.829-18.188 15.914-20.461 18.187-106.85 127.31-154.59 459.23-47.742 331.92-47.742 741.14v284.18q0 131.86-45.469 131.86-34.102 0-47.742-31.828-11.367-29.555-11.367-102.3v-1723.3q0-31.828-18.188-65.93-15.914-34.102-36.375-34.102-79.57 0-156.87 72.75-77.297 70.477-111.4 259.17-27.281 145.5-65.93 145.5-50.016 0-50.016-138.68v-579.73q0-36.375 20.461-75.023 20.461-38.649 65.93-38.649 6.8203 0 118.22 22.734 113.67 20.461 165.96 20.461h579.73q109.12 0 109.12 47.743 0 2.273-25.008 40.922-22.734 38.648-61.383 122.76-36.375 81.844-61.383 179.6-13.641 38.648-22.734 43.195-6.8204 2.273-13.641 2.273-59.109 0-136.41-61.382-77.297-63.657-81.844-63.657-22.734 0-22.734 61.383z" fill="#f00"/>
   </g>
  </g>
  <g class="TextShape" stroke-width=".012921" aria-label="I">
   <path d="m59.131 157.84v-1.8q0-0.675 0.57272-0.79773l2.4341-0.47045v-23.911q-2.025-0.36818-2.5159-0.49091-0.49091-0.12273-0.49091-0.75682v-1.7591h10.084v1.7591q0 0.675-0.63409 0.79773l-2.4136 0.45v23.911q1.8818 0.34773 2.5568 0.51136 0.49091 0.12273 0.49091 0.75682v1.8z"/>
  </g>
  <g fill="none" stroke="#000" stroke-linejoin="round" stroke-width=".89737">
   <path d="m46.47 126.4h34.035"/>
   <path d="m80.073 125.94v33.867"/>
   <path d="m80.505 159.35h-34.035"/>
   <path d="m46.903 159.81v-33.867"/>
  </g>
  <g class="TextShape" transform="translate(-.13229)" stroke-width=".012921" aria-label="1">
   <path d="m63.264 129.3 0.97104-0.83741h0.32962v2.9643q0.57015 0.0423 0.58351 0.0445 0.06236 0.0134 0.06236 0.0824v0.18263h-1.7505v-0.18266q0-0.069 0.06459-0.0824l0.63697-0.0445v-2.2272q0-0.13586 0.0045-0.2049l-0.58351 0.49666q-0.04454 0.0379-0.0824 0.0379-0.07795 0-0.10913-0.0512z" fill="#fff"/>
  </g>
 </g>
</svg>
