<?xml version="1.0" encoding="UTF-8"?>
<svg width="189.05" height="128" version="1.1" viewBox="0 0 50.02 33.867" xmlns="http://www.w3.org/2000/svg" xmlns:cc="http://creativecommons.org/ns#" xmlns:dc="http://purl.org/dc/elements/1.1/" xmlns:rdf="http://www.w3.org/1999/02/22-rdf-syntax-ns#">
 <title>Letter W Initial</title>
 <defs>
  <clipPath id="clip_path_1">
   <path d="m0 0h15875v23495h-15875z"/>
  </clipPath>
  <clipPath id="clip_path_2">
   <path d="m0 0h15875v23495h-15875z"/>
  </clipPath>
 </defs>
 <metadata>
  <rdf:RDF>
   <cc:Work rdf:about="">
    <dc:format>image/svg+xml</dc:format>
    <dc:type rdf:resource="http://purl.org/dc/dcmitype/StillImage"/>
    <dc:title>Letter W Initial</dc:title>
    <dc:date>2021-10-16</dc:date>
    <dc:creator>
     <cc:Agent>
      <dc:title>Indrele the Lesser</dc:title>
     </cc:Agent>
    </dc:creator>
    <cc:license rdf:resource="http://artlibre.org/licence/lal"/>
   </cc:Work>
   <cc:License rdf:about="http://artlibre.org/licence/lal">
    <cc:permits rdf:resource="http://creativecommons.org/ns#Reproduction"/>
    <cc:permits rdf:resource="http://creativecommons.org/ns#Distribution"/>
    <cc:permits rdf:resource="http://creativecommons.org/ns#DerivativeWorks"/>
    <cc:requires rdf:resource="http://creativecommons.org/ns#ShareAlike"/>
    <cc:requires rdf:resource="http://creativecommons.org/ns#Notice"/>
    <cc:requires rdf:resource="http://creativecommons.org/ns#Attribution"/>
   </cc:License>
  </rdf:RDF>
 </metadata>
 <g transform="matrix(.014646 0 0 .014467 -21.635 -80.076)" clip-path="url(#clip_path_1)">
  <g class="TextShape" aria-label="w">
   <path d="m3702.1 6566.7q0 218.28-181.07 570.51-178.59 349.75-349.75 575.47-27.285 34.726-81.855 34.726h-176.11q-79.375 0-79.375-34.726 0-29.766 119.06-49.609 81.855-12.402 200.92-178.59-220.76-153.79-391.91-377.03-171.15-225.72-171.15-396.88 0-17.363 62.012-131.46 66.973-111.62 121.54-260.45 57.051-151.31 57.051-253.01v-17.363q0-44.648-17.363-62.012-14.883-17.363-79.375-17.363-111.62 0-111.62-54.57 0-47.129 126.5-47.129h880.57q84.336 0 148.83-29.766 66.973-29.766 96.738-64.492 32.246-37.207 62.012-66.973 29.766-29.766 54.57-29.766 47.129 0 47.129 84.336 0 146.35-29.766 235.64-29.766 89.297-109.14 205.88-19.844 29.766-49.609 57.051-29.766 27.285-42.168 27.285-27.285 0-27.285-62.012 0-7.4414 17.363-66.973 19.844-62.012 19.844-101.7 0-52.09-17.363-69.453-14.883-17.363-84.336-17.363h-250.53q-47.129 0-47.129 59.531 0 94.258 71.934 230.68 71.934 133.95 148.83 220.76 14.883 14.883 29.766 32.246 14.883 14.883 19.844 19.844 4.9609 4.961 7.4414 14.883 4.9609 7.4414 4.9609 19.844zm-498.57 843.36q99.219-163.71 166.19-362.15 66.973-198.44 66.973-354.71 0-416.72-290.21-664.77-12.402-9.9219-32.246-7.4414-17.363 2.4805-27.285 14.883-124.02 168.67-186.04 319.98-62.012 148.83-62.012 364.63 0 203.4 109.14 389.43 109.14 186.04 255.49 300.14z" fill="#f00"/>
  </g>
 </g>
 <g class="TextShape" stroke-width=".011735" aria-label="W">
  <path d="m2.1601 3.7677v-1.8011h10.234v1.8011q0 0.61402-0.67542 0.75729-0.59355 0.1228-1.1871 0.24561-0.57308 0.1228-0.83916 0.18421-0.26607 0.061402-0.32748 0.061402l5.5262 18.789q0.49122 1.883 0.59355 2.5993 0.30701-1.5964 0.63448-2.5993l7.0817-20.877q0.1228-0.34794 0.51168-0.67542 0.38888-0.32748 0.88009-0.32748h1.1666q1.0029 0 1.3713 1.0029l7.0612 20.877q0.47075 1.4327 0.65495 2.497 0.04093-0.20467 0.10234-0.65495 0.08187-0.47075 0.1228-0.67542 0.18421-0.92103 0.24561-1.1666l5.5671-18.789q-0.08187 0-2.3333-0.45028-0.67542-0.14327-0.67542-0.79822v-1.7602h9.9676v1.8011q0 0.65495-0.67542 0.79822l-2.0877 0.45028-8.3916 26.955h-3.6841l-7.5729-22.882q-0.24561-0.59355-0.42981-1.5146-0.04093 0.1228-0.10234 0.38888-0.0614 0.24561-0.10234 0.36841-0.04093 0.1228-0.08187 0.38888-0.04093 0.26607-0.08187 0.36841l-7.6343 22.882h-3.6841l-8.3916-26.996q-1.6579-0.34794-2.0877-0.49121-0.67542-0.14327-0.67542-0.75729z" stroke-width=".00013771"/>
 </g>
 <g transform="translate(-36.222,-108.55)" fill="none" stroke="#000" stroke-linejoin="round" stroke-width=".83317">
  <path d="m36.228 108.97h50.014"/>
  <path d="m85.819 108.56v33.855"/>
  <path d="m86.242 142h-50.014"/>
  <path d="m36.639 142.42v-33.855"/>
 </g>
 <g transform="matrix(.011735 0 0 .011735 -15.064 -62.704)" clip-path="url(#clip_path_2)">
  <g class="TextShape" aria-label="1">
   <path d="m1826.7 5655.4 75.15-64.809h25.51v229.42q44.125 3.2749 45.159 3.4473 4.8262 1.0341 4.8262 6.3774v14.134h-135.48v-14.134q0-5.3433 4.9986-6.3774l49.296-3.4473v-172.36q0-10.514 0.3447-15.857l-45.159 38.437q-3.4472 2.9302-6.3774 2.9302-6.0327 0-8.4458-3.9644z" fill="#fff"/>
  </g>
 </g>
</svg>
