<?xml version="1.0" encoding="UTF-8"?>
<svg width="162.56" height="128" version="1.1" viewBox="0 0 43.011 33.867" xmlns="http://www.w3.org/2000/svg" xmlns:cc="http://creativecommons.org/ns#" xmlns:dc="http://purl.org/dc/elements/1.1/" xmlns:rdf="http://www.w3.org/1999/02/22-rdf-syntax-ns#">
 <title>Letter M Initial</title>
 <defs>
  <clipPath id="clip_path_1">
   <path d="m0 0h15849v23495h-15849z"/>
  </clipPath>
 </defs>
 <metadata>
  <rdf:RDF>
   <cc:Work rdf:about="">
    <dc:format>image/svg+xml</dc:format>
    <dc:type rdf:resource="http://purl.org/dc/dcmitype/StillImage"/>
    <dc:title>Letter M Initial</dc:title>
    <dc:date>2021-10-16</dc:date>
    <dc:creator>
     <cc:Agent>
      <dc:title>Indrele the Lesser</dc:title>
     </cc:Agent>
    </dc:creator>
    <cc:license rdf:resource="http://artlibre.org/licence/lal"/>
   </cc:Work>
   <cc:License rdf:about="http://artlibre.org/licence/lal">
    <cc:permits rdf:resource="http://creativecommons.org/ns#Reproduction"/>
    <cc:permits rdf:resource="http://creativecommons.org/ns#Distribution"/>
    <cc:permits rdf:resource="http://creativecommons.org/ns#DerivativeWorks"/>
    <cc:requires rdf:resource="http://creativecommons.org/ns#ShareAlike"/>
    <cc:requires rdf:resource="http://creativecommons.org/ns#Notice"/>
    <cc:requires rdf:resource="http://creativecommons.org/ns#Attribution"/>
   </cc:License>
  </rdf:RDF>
 </metadata>
 <g transform="translate(-60.137 -112.33)">
  <g transform="matrix(.013274 0 0 .013274 42.038 72.562)" clip-path="url(#clip_path_1)">
   <g class="TextShape" aria-label="m">
    <path d="m2250.3 3995.6q0-211.43 18.188-368.3 20.461-156.87 38.648-231.89 20.461-75.024 20.461-84.117 0-27.281-15.914-40.922-13.641-15.914-31.828-18.188-18.188-2.2734-36.375-18.188-15.914-18.188-15.914-38.648 0-27.281 27.281-43.195 27.281-18.188 61.383-18.188h445.59q47.742 0 88.664 13.641 43.195 13.641 43.195 36.375 0 45.469-118.22 59.109-138.68 15.914-138.68 97.758 0 165.96 72.75 309.19 75.024 143.23 184.15 243.26 22.734 20.461 38.648 20.461 13.641 0 43.195-22.734 136.41-118.22 186.42-231.89 52.289-113.67 52.289-297.82 0-104.58-68.203-115.95-36.375-4.5469-68.203-25.008-29.555-20.461-29.555-45.469 0-25.008 34.102-31.828 34.102-9.0937 111.4-9.0937h438.77q118.22 0 118.22 50.016 0 22.734-22.734 43.195-20.461 18.188-40.922 22.734-34.102 2.2734-43.195 18.188-6.8203 13.641-6.8203 52.289v13.641q0 11.367 13.641 120.49 13.641 106.85 27.281 252.35t13.641 245.53q0 393.3-152.32 763.88-152.32 370.57-352.38 634.29-45.469 52.289-97.758 52.289-15.914 0-27.281-13.641-11.367-11.367-11.367-27.281 0-29.555 34.102-70.477 186.42-259.17 293.27-509.25 106.85-250.08 106.85-534.26 0-179.6-2.2734-281.91-2.2735-102.3-18.188-225.07-15.914-125.04-47.742-204.61-2.2735-11.367-11.367-13.641-6.8203-4.5469-15.914 2.2734-9.0937 4.5469-13.641 20.461-90.938 293.27-393.3 504.7-43.195 29.555-63.656 29.555-15.914 0-36.375-15.914-6.8203-6.8203-52.289-43.195-43.195-38.648-68.203-61.383-22.734-22.734-65.93-65.93-43.195-45.469-72.75-81.844-27.281-38.648-59.109-88.664-29.555-52.289-47.742-102.3-6.8203-15.914-25.008-18.188t-27.281 9.0937q-45.469 61.383-77.297 181.88-29.555 118.22-29.555 245.53 0 59.109 13.641 131.86 13.641 70.476 25.008 120.49 13.641 50.016 13.641 56.836 0 45.469-31.828 45.469-18.188 0-47.742-54.562-29.555-54.562-54.562-150.05-25.008-97.758-25.008-193.24z" fill="#f00"/>
   </g>
  </g>
  <g class="TextShape" stroke-width=".01279" aria-label="M">
   <path d="m62.904 144.28v-1.844q0-0.63517 0.65566-0.75811l2.3563-0.51223v-23.911q-1.9465-0.34832-2.3563-0.49175-0.65566-0.12294-0.65566-0.75811v-1.844h6.0444q0.59419 0 0.84007 0.12294 0.34832 0.1844 0.53272 0.53272l10.368 18.563q0.43028 0.71713 0.963 2.1719 0.28685-0.84007 0.963-2.2334l10.163-18.502q0.16392-0.32783 0.5737-0.53272 0.24587-0.12294 0.84007-0.12294h6.0444v1.844q0 0.63517-0.65566 0.75811l-2.3973 0.49175v23.911q1.885 0.34832 2.3973 0.51223 0.65566 0.12294 0.65566 0.75811v1.844h-10.06v-1.844q0-0.63517 0.63517-0.75811 1.3318-0.26636 2.8071-0.51223v-18.994q0-1.3113 0.08196-1.9875l-10.327 18.809q-0.49175 0.963-1.4343 0.963h-0.5737q-1.0245 0-1.5162-0.963l-10.491-18.85 0.04098-0.041q0.12294 1.1269 0.12294 2.0285v19.035q2.008 0.32783 2.848 0.51223 0.55322 0.12294 0.55322 0.75811v1.844z"/>
  </g>
  <g fill="none" stroke="#000" stroke-linejoin="round" stroke-width=".90806">
   <path d="m60.144 112.79h42.998"/>
   <path d="m102.69 112.34v33.854"/>
   <path d="m103.14 145.75h-42.998"/>
   <path d="m60.591 146.19v-33.854"/>
  </g>
  <g class="TextShape" transform="translate(.066146)" stroke-width=".01279" aria-label="1">
   <path d="m66.631 115.66 0.96114-0.82887h0.32626v2.9341q0.56434 0.0419 0.57756 0.0441 0.06172 0.0132 0.06172 0.0816v0.18076h-1.7327v-0.18077q0-0.0683 0.06393-0.0816l0.63047-0.0441v-2.2044q0-0.13447 0.0044-0.20281l-0.57756 0.49159q-0.04409 0.0375-0.08156 0.0375-0.07716 0-0.10802-0.0507z" fill="#fff"/>
  </g>
 </g>
</svg>
