<?xml version="1.0" encoding="UTF-8"?>
<svg width="33.873mm" height="33.867mm" version="1.1" viewBox="0 0 33.873 33.867" xmlns="http://www.w3.org/2000/svg" xmlns:cc="http://creativecommons.org/ns#" xmlns:dc="http://purl.org/dc/elements/1.1/" xmlns:rdf="http://www.w3.org/1999/02/22-rdf-syntax-ns#">
 <title>Letter O Initial</title>
 <metadata>
  <rdf:RDF>
   <cc:Work rdf:about="">
    <dc:format>image/svg+xml</dc:format>
    <dc:type rdf:resource="http://purl.org/dc/dcmitype/StillImage"/>
    <dc:title>Letter O Initial</dc:title>
    <dc:date>2021-10-16</dc:date>
    <dc:creator>
     <cc:Agent>
      <dc:title>Indrele the Lesser</dc:title>
     </cc:Agent>
    </dc:creator>
    <cc:license rdf:resource="http://artlibre.org/licence/lal"/>
   </cc:Work>
   <cc:License rdf:about="http://artlibre.org/licence/lal">
    <cc:permits rdf:resource="http://creativecommons.org/ns#Reproduction"/>
    <cc:permits rdf:resource="http://creativecommons.org/ns#Distribution"/>
    <cc:permits rdf:resource="http://creativecommons.org/ns#DerivativeWorks"/>
    <cc:requires rdf:resource="http://creativecommons.org/ns#ShareAlike"/>
    <cc:requires rdf:resource="http://creativecommons.org/ns#Notice"/>
    <cc:requires rdf:resource="http://creativecommons.org/ns#Attribution"/>
   </cc:License>
  </rdf:RDF>
 </metadata>
 <g class="TextShape" transform="matrix(1.258 0 0 1.2757 -60.518 -133.5)" stroke-width=".014759" aria-label="o">
  <path d="m61.922 113.8q0.73228 0 1.0984 0.57973 0.39665 0.54921 0.39665 1.373 0 1.0374-0.54921 1.8917t-1.312 0.85433q-0.64075 0-1.0069-0.54921-0.36614-0.54921-0.36614-1.251 0-1.0374 0.5187-1.9528 0.5187-0.94587 1.2205-0.94587zm6.4685-7.6279q1.2205 0 1.2205 0.51869 0 0.2441-0.48819 0.48819-0.45768 0.21358-0.76279 0.2441-0.91535 0.0915-0.91535 0.82381 0 0.12205 0.39665 1.251 0.39665 1.0984 0.76279 2.5935 0.39665 1.4951 0.39665 2.5325 0 4.0886-1.5866 7.9025-1.5561 3.814-3.6309 6.5295-0.45768 0.54921-0.97638 0.54921-0.15256 0-0.30512-0.15255-0.12205-0.12205-0.12205-0.27461 0-0.2746 0.36614-0.73228 3.814-5.2785 3.814-10.771 0-0.97637-0.18307-2.1968-0.18307-1.251-0.64075-2.685t-1.1289-2.5935q-0.67126-1.19-1.7697-1.9833-1.0679-0.7933-2.3799-0.7933h-0.97638q-0.48819 0-0.42716 0.24409 0 0.12205 0.15256 0.15256 0.67126 0.12204 1.0374 0.36614 0.39665 0.24409 0.39665 0.45767 0 0.12205-0.15256 0.2441-0.15256 0.12204-0.39665 0.30512-0.24409 0.15255-0.36614 0.2746-1.8002 1.8002-2.4104 3.7834-0.61023 1.9833-0.61023 4.9734 0 2.4409 0.85433 4.2106 0.88484 1.7392 2.8681 4.0886 0.24409 0.30512 0.24409 0.42717 0 0.2746-0.48819 0.2746-0.54921 0-0.82382-0.2746-2.8986-2.7156-4.2106-5.6142-1.2815-2.8986-1.2815-6.7736 0-1.7087 0.36614-2.8681t1.4646-3.0817q0.21358-0.33563 0.21358-0.67126 0-0.51869-1.0984-0.51869-1.0679 0-1.0679-0.67126 0-0.57972 1.4951-0.57972z" fill="#f00" stroke-width=".00018876"/>
 </g>
 <path transform="scale(.26458)" d="m64.174 7.0352c-8.0237 0-15.467 1.4125-22.33 4.2383-6.7117 2.7754-12.49 6.6862-17.334 11.732-4.8443 5.0462-8.5772 11.052-11.201 18.016-2.6744 7.0143-4.0117 14.658-4.0117 22.934s1.3373 15.921 4.0117 22.936c2.624 6.9639 6.3568 12.969 11.201 18.016 4.6428 4.895 10.421 8.7562 17.334 11.582 7.0143 2.8765 14.458 4.3144 22.33 4.3144s15.316-1.438 22.33-4.3144c6.7114-2.7754 12.44-6.6366 17.184-11.582 4.8444-5.0462 8.5772-11.052 11.201-18.016 2.5736-6.7618 3.8613-14.356 3.8613-22.783 0-8.5281-1.1354-16.476-3.709-23.239-2.624-6.9639-6.3588-12.969-11.203-18.016-4.6428-4.895-10.421-8.7543-17.334-11.58-6.8631-2.8258-14.307-4.2383-22.33-4.2383zm-0.30273 13.32c6.1563 0 11.632 0.9851 16.426 2.9531 4.8443 1.9681 8.9825 4.8186 12.414 8.5527 3.1287 3.4316 5.7022 8.0247 7.7207 13.777 1.8671 5.3997 2.9512 11.555 2.9512 18.469 0 6.8125-0.93367 12.919-2.8008 18.318-1.8671 5.3994-4.4902 9.9412-7.8711 13.625-3.482 3.7846-7.6201 6.6609-12.414 8.6289-5.0464 2.069-10.47 3.1035-16.273 3.1035-5.8033 0-11.229-1.0346-16.275-3.1035-4.794-1.9681-8.9321-4.8443-12.414-8.6289-3.5324-3.8352-6.2068-8.377-8.0234-13.625-1.8671-5.3994-2.8008-11.506-2.8008-18.318 0-6.9135 0.93367-13.069 2.8008-18.469 1.8671-5.3997 4.5415-9.9928 8.0234-13.777 3.4316-3.7342 7.5697-6.5847 12.414-8.5527 4.794-1.968 10.169-2.9531 16.123-2.9531zm-46.742 37.061h1.2344v11.088c1.422 0.10558 2.1483 0.16243 2.1816 0.16797 0.15554 0.03326 0.23438 0.13625 0.23438 0.30859v0.68164h-6.5488v-0.68164c0-0.1721 0.07915-0.27508 0.24023-0.30859l2.3828-0.16797v-8.3301c0-0.33882 0.0065-0.59538 0.01758-0.76758l-2.1836 1.8574c-0.11109 0.09449-0.21418 0.14258-0.30859 0.14258-0.19442 0-0.33044-0.06366-0.4082-0.19141l-0.47461-0.66602 3.6328-3.1328z"/>
 <g transform="translate(-44.674,-100.24)" fill="none" stroke="#000" stroke-linejoin="round" stroke-width=".90806">
  <path d="m44.68 100.69h33.867"/>
  <path d="m78.086 100.25v33.854"/>
  <path d="m78.547 133.65h-33.867"/>
  <path d="m45.128 134.1v-33.854"/>
 </g>
</svg>
