<?xml version="1.0" encoding="UTF-8"?>
<svg width="133.17" height="128" version="1.1" viewBox="0 0 35.236 33.867" xmlns="http://www.w3.org/2000/svg" xmlns:cc="http://creativecommons.org/ns#" xmlns:dc="http://purl.org/dc/elements/1.1/" xmlns:rdf="http://www.w3.org/1999/02/22-rdf-syntax-ns#">
 <title>Letter A Initial</title>
 <defs>
  <clipPath id="clip_path_1">
   <path d="m0 0h15875v23495h-15875z"/>
  </clipPath>
 </defs>
 <metadata>
  <rdf:RDF>
   <cc:Work rdf:about="">
    <dc:format>image/svg+xml</dc:format>
    <dc:type rdf:resource="http://purl.org/dc/dcmitype/StillImage"/>
    <dc:title>Letter A Initial</dc:title>
    <dc:date>2021-10-16</dc:date>
    <dc:creator>
     <cc:Agent>
      <dc:title>Indrele the Lesser</dc:title>
     </cc:Agent>
    </dc:creator>
    <cc:license rdf:resource="http://artlibre.org/licence/lal"/>
   </cc:Work>
   <cc:License rdf:about="http://artlibre.org/licence/lal">
    <cc:permits rdf:resource="http://creativecommons.org/ns#Reproduction"/>
    <cc:permits rdf:resource="http://creativecommons.org/ns#Distribution"/>
    <cc:permits rdf:resource="http://creativecommons.org/ns#DerivativeWorks"/>
    <cc:requires rdf:resource="http://creativecommons.org/ns#ShareAlike"/>
    <cc:requires rdf:resource="http://creativecommons.org/ns#Notice"/>
    <cc:requires rdf:resource="http://creativecommons.org/ns#Attribution"/>
   </cc:License>
  </rdf:RDF>
 </metadata>
 <g transform="translate(-76.12 -89.656)">
  <g transform="matrix(.012916 0 0 .012916 59.287 52.35)" clip-path="url(#clip_path_1)">
   <g class="TextShape" aria-label="A">
    <path d="m2734.3 3209h-213.7q-97.758 0-163.69 181.88-63.656 179.6-63.656 522.89 0 495.61 195.52 961.66 13.641 31.828 52.289 86.391 40.922 56.836 68.203 56.836 11.367 0 34.102-34.102 25.008-34.102 68.203-100.03 43.195-68.203 72.75-109.12 61.383-97.758 90.938-111.4 9.0938-2.2734 15.914-2.2734 13.641 0 27.281 20.461 15.914 20.461 15.914 36.375 0 6.8203-2.2734 9.0938-59.109 113.67-118.22 291-59.109 177.33-75.023 293.27-2.2735 22.734-18.188 34.102-15.914 11.367-31.828 11.367-15.914 0-97.758-95.484-79.57-95.484-113.67-152.32-31.828-50.016-147.77-220.52-113.67-172.78-179.6-281.91t-129.59-279.63q-61.383-170.51-61.383-313.73 0-50.016 6.8203-100.03 6.8203-50.016 11.367-86.391 6.8203-36.375 27.281-88.664 20.461-54.562 29.555-79.57 9.0938-25.008 38.648-84.117 31.828-61.383 40.922-77.297 11.367-18.188 52.289-88.664 40.922-72.75 50.016-88.664 11.367-18.188 11.367-31.828 0-61.383-236.44-79.57-102.3-9.0937-102.3-65.93 0-56.836 145.5-56.836h675.21q20.461 0 129.59 9.0938 111.4 6.8203 136.41 6.8203 9.0937 0 140.95-22.734t140.95-22.734q70.477 0 70.477 59.109 0 65.93-129.59 113.67-152.32 56.836-236.44 179.6-84.117 120.49-84.117 288.73 0 25.008 6.8203 97.758t6.8203 97.758q0 45.469-13.641 45.469-68.203 0-143.23-113.67t-75.023-225.07q0-77.297 36.375-156.87 38.648-81.844 75.023-131.86 36.375-52.289 36.375-61.383 0-40.922-72.75-40.922z" fill="#f00"/>
   </g>
  </g>
  <g class="TextShape" transform="translate(-.43562 .62271)" stroke-width=".012916" aria-label="A">
   <path d="m79.081 120.92v-1.6766q0-0.53162 0.55206-0.67474l1.6766-0.49073 10.878-27.133h4.1098l10.837 27.133 1.6766 0.49073q0.55206 0.14312 0.55206 0.67474v1.6766h-8.6285v-1.6766q0-0.55206 0.59296-0.67474l1.7175-0.49073-2.3514-6.0318h-12.943l-2.3514 6.0318 1.7175 0.49073q0.55206 0.12268 0.55206 0.67474v1.6766zm9.794-11.818h10.694l-4.4369-11.552q-0.51117-1.1655-0.9201-2.8012-0.51117 1.922-0.83831 2.8421z"/>
  </g>
  <g fill="none" stroke="#000" stroke-linejoin="round" stroke-width=".91706">
   <path d="m76.127 90.115h35.223"/>
   <path d="m110.9 89.662v33.854"/>
   <path d="m111.35 123.06h-35.223"/>
   <path d="m76.579 123.52v-33.854"/>
  </g>
  <g class="TextShape" transform="translate(-.43562 .62271)" stroke-width=".012916" aria-label="1">
   <path d="m93.129 92.053 0.97067-0.83709h0.32949v2.9632q0.56993 0.0423 0.58329 0.04453 0.06234 0.01336 0.06234 0.08237v0.18256h-1.7499v-0.18256q0-0.06902 0.06456-0.08237l0.63672-0.04453v-2.2263q0-0.1358 0.0045-0.20482l-0.58329 0.49646q-0.04453 0.03785-0.08237 0.03785-0.07792 0-0.10909-0.0512z" fill="#fff"/>
  </g>
 </g>
</svg>
