<?xml version="1.0" encoding="UTF-8"?>
<svg width="136.99" height="128" version="1.1" viewBox="0 0 36.246 33.867" xmlns="http://www.w3.org/2000/svg" xmlns:cc="http://creativecommons.org/ns#" xmlns:dc="http://purl.org/dc/elements/1.1/" xmlns:rdf="http://www.w3.org/1999/02/22-rdf-syntax-ns#">
 <title>Letter H Initial</title>
 <defs>
  <clipPath id="clip_path_1">
   <path d="m0 0h15875v23495h-15875z"/>
  </clipPath>
 </defs>
 <metadata>
  <rdf:RDF>
   <cc:Work rdf:about="">
    <dc:format>image/svg+xml</dc:format>
    <dc:type rdf:resource="http://purl.org/dc/dcmitype/StillImage"/>
    <dc:title>Letter H Initial</dc:title>
    <dc:creator>
     <cc:Agent>
      <dc:title>Indrele the Lesser</dc:title>
     </cc:Agent>
    </dc:creator>
    <dc:date>2021-10-16</dc:date>
    <cc:license rdf:resource="http://artlibre.org/licence/lal"/>
   </cc:Work>
   <cc:License rdf:about="http://artlibre.org/licence/lal">
    <cc:permits rdf:resource="http://creativecommons.org/ns#Reproduction"/>
    <cc:permits rdf:resource="http://creativecommons.org/ns#Distribution"/>
    <cc:permits rdf:resource="http://creativecommons.org/ns#DerivativeWorks"/>
    <cc:requires rdf:resource="http://creativecommons.org/ns#ShareAlike"/>
    <cc:requires rdf:resource="http://creativecommons.org/ns#Notice"/>
    <cc:requires rdf:resource="http://creativecommons.org/ns#Attribution"/>
   </cc:License>
  </rdf:RDF>
 </metadata>
 <g transform="matrix(.0129 0 0 .0129 -15.898 -37.483)" clip-path="url(#clip_path_1)">
  <g class="TextShape" aria-label="H">
   <path d="m2889.5 4261.3q-13.641 129.59-56.836 256.9-40.922 127.31-120.49 256.9-77.297 127.31-129.59 202.34-52.289 75.024-156.87 204.61-104.58 131.86-127.31 161.41-31.828 38.648-88.664 38.648h-200.06q-90.938 0-90.938-38.648 0-34.102 134.13-56.836 97.758-15.914 231.89-200.06 136.41-184.15 234.16-438.77 100.03-256.9 100.03-454.69 0-181.88-72.75-366.02-72.75-184.15-206.88-313.73t-293.27-136.41q-38.648-2.2735-70.476-18.188-29.555-15.914-29.555-43.195 0-52.289 140.95-52.289h729.77q95.484 0 168.23-34.102 75.024-34.102 109.12-72.75 34.102-40.922 68.203-75.023 36.375-34.102 63.656-34.102 54.562 0 54.562 95.484 0 165.96-34.102 265.99t-125.04 231.89q-22.734 34.102-56.836 65.93-31.828 29.555-45.469 29.555-31.828 0-31.828-70.477 0-6.8203 20.461-75.023 22.734-70.477 22.734-115.95 0-59.109-18.188-77.297-18.188-20.461-97.758-20.461h-327.38q-54.562 0-54.562 68.203 0 70.476 47.742 156.87 50.016 86.391 134.13 195.52 86.391 109.12 113.67 154.59 45.469 84.117 118.22 84.117h97.758q34.102 0 54.562-18.188 22.734-20.461 22.734-50.016v-15.914q-15.914-75.023-15.914-97.758 0-13.641 4.5469-25.008 6.8203-11.367 11.367-18.188 6.8203-6.8203 20.461-18.188 13.641-13.641 15.914-15.914 18.188-18.188 31.828-38.648 15.914-20.461 22.734-34.102 9.0937-13.641 15.914-22.734 9.0937-9.0938 18.188-9.0938 11.367 0 40.922 72.75 31.828 70.477 59.109 179.6 27.281 106.85 27.281 188.7 0 363.75-181.88 747.96-36.375 75.024-72.75 75.024-31.828 0-31.828-50.016 0-9.0937 18.188-93.211 18.188-86.391 34.102-227.34 18.188-143.23 18.188-293.27 0-79.57-113.67-79.57h-72.75q-36.375 0-59.109 20.461-20.461 18.188-22.734 47.742z" fill="#f00"/>
  </g>
 </g>
 <path transform="matrix(.26459 0 0 .26459 0 -.00017331)" d="m11.174 6.9062v6.6777c0 1.6048 0.62085 2.5624 1.8633 2.873 1.2424 0.31062 4.4258 0.93147 9.5508 1.8633v90.775l-9.084 1.7852c-1.553 0.31059-2.3301 1.321-2.3301 3.0293v6.832h38.281v-6.832c0-1.6565-3.8043-3.2614-11.414-4.8145v-40.225h61.344v40.225l-8.8516 1.7852c-1.7083 0.36237-2.5625 1.3727-2.5625 3.0293v6.832h38.437v-6.832c0-1.6048-0.6228-2.5625-1.8652-2.873-2.019-0.51768-5.2024-1.1649-9.5508-1.9414v-90.775l9.2402-1.709c1.553-0.3106 2.3301-1.319 2.3301-3.0273v-6.6777h-38.438v6.6777c0 1.6048 0.6228 2.5624 1.8652 2.873 1.2424 0.31062 4.4258 0.93147 9.5508 1.8633v39.291h-61.346v-39.291c5.2803-0.93184 8.5164-1.5527 9.707-1.8633 1.0353-0.3106 1.5527-1.2682 1.5527-2.873v-6.6777h-38.281zm18.912 4.8066h1.2344v11.09c1.4219 0.10555 2.1483 0.16047 2.1816 0.16602 0.15551 0.033335 0.23438 0.1364 0.23438 0.30859v0.68359h-6.5488v-0.68359c0-0.17219 0.081107-0.27526 0.24219-0.30859l2.3828-0.16602v-8.332c0-0.33882 0.004539-0.59343 0.015625-0.76562l-2.1816 1.8574c-0.11109 0.094436-0.21418 0.14258-0.30859 0.14258-0.19439 0-0.33042-0.063661-0.4082-0.19141l-0.47461-0.66797 3.6309-3.1328z" stroke-width=".048339"/>
 <g transform="translate(-8.3356,-17.84)" fill="none" stroke="#000" stroke-linejoin="round" stroke-width=".90806">
  <path d="m8.342 18.295h36.233"/>
  <path d="m44.127 17.847v33.854"/>
  <path d="m44.575 51.253h-36.233"/>
  <path d="m8.7896 51.701v-33.854"/>
 </g>
</svg>
