<?xml version="1.0" encoding="UTF-8"?>
<svg width="90.007" height="128" version="1.1" viewBox="0 0 23.814 33.867" xmlns="http://www.w3.org/2000/svg" xmlns:cc="http://creativecommons.org/ns#" xmlns:dc="http://purl.org/dc/elements/1.1/" xmlns:rdf="http://www.w3.org/1999/02/22-rdf-syntax-ns#">
 <title>Letter S Initial</title>
 <defs>
  <clipPath id="clip_path_1">
   <path d="m0 0h15875v23495h-15875z"/>
  </clipPath>
  <clipPath id="clip_path_2">
   <path d="m0 0h15875v23495h-15875z"/>
  </clipPath>
 </defs>
 <metadata>
  <rdf:RDF>
   <cc:Work rdf:about="">
    <dc:format>image/svg+xml</dc:format>
    <dc:type rdf:resource="http://purl.org/dc/dcmitype/StillImage"/>
    <dc:title>Letter S Initial</dc:title>
    <dc:date>2021-10-16</dc:date>
    <dc:creator>
     <cc:Agent>
      <dc:title>Indrele-the-Lesser</dc:title>
     </cc:Agent>
    </dc:creator>
    <cc:license rdf:resource="http://artlibre.org/licence/lal"/>
   </cc:Work>
   <cc:License rdf:about="http://artlibre.org/licence/lal">
    <cc:permits rdf:resource="http://creativecommons.org/ns#Reproduction"/>
    <cc:permits rdf:resource="http://creativecommons.org/ns#Distribution"/>
    <cc:permits rdf:resource="http://creativecommons.org/ns#DerivativeWorks"/>
    <cc:requires rdf:resource="http://creativecommons.org/ns#ShareAlike"/>
    <cc:requires rdf:resource="http://creativecommons.org/ns#Notice"/>
    <cc:requires rdf:resource="http://creativecommons.org/ns#Attribution"/>
   </cc:License>
  </rdf:RDF>
 </metadata>
 <g transform="translate(-75.027 -144.08)">
  <g transform="matrix(.013478 0 0 .013478 57.84 104.54)" clip-path="url(#clip_path_1)">
   <g class="TextShape" aria-label="s">
    <path d="m1758.7 3252.8q0-57.887 53.752-57.887 37.213 0 171.59 20.674 136.45 18.606 204.67 18.606h336.98q113.71 0 138.51 37.213 55.819 70.291 90.965 161.26 37.213 90.965 37.213 167.46 0 88.898-26.876 88.898-49.617 0-59.954-41.348-16.539-99.234-167.46-200.54-148.85-103.37-308.04-103.37-20.674 0-26.876 14.472-6.2021 14.472 10.337 24.809 113.71 64.089 221.21 289.43 107.5 223.28 107.5 392.8v37.213q0 70.291-26.876 70.291-24.809 0-45.482-51.684-33.078-74.426-146.78-146.78-113.71-74.426-217.08-103.37-4.1347 0-8.2695 6.2022-4.1348 6.2021-4.1348 12.404 0 6.2021 4.1348 10.337 190.2 190.2 277.03 376.26 88.897 186.06 88.897 452.76 0 157.12-109.57 305.97-107.5 150.92-233.61 233.61-47.55 28.943-78.56 28.943-16.539 0-26.876-14.472-10.337-12.404-8.2696-31.011 2.0674-35.146 43.415-57.887 103.37-59.954 179.86-177.79 78.56-115.77 78.56-243.95 0-223.28-86.83-413.48-86.83-190.2-231.55-328.71-142.65-140.58-357.66-274.96-4.1348-2.0674-22.741-12.404-18.606-12.404-24.808-18.606-6.2022-6.2022-14.472-16.539-8.2696-12.404-8.2696-26.876 0-43.415 33.078-43.415 155.05 0 277.03 20.674 121.98 18.606 181.93 39.28 59.954 20.674 175.73 68.224 18.606 8.2695 24.809-6.2021 6.2021-14.472-4.1348-35.146-97.167-196.4-440.35-394.87-20.674-12.404-37.213-35.146-14.472-24.809-14.472-41.348z" fill="#f00"/>
   </g>
  </g>
  <g class="TextShape" stroke-width=".01266" aria-label="S">
   <path d="m77.83 174.55v-7.4387h2.0159q0.70557 0 0.82652 0.70557 0.08064 0.3427 0.20159 2.0159l0.12095 1.8143q3.2254 1.1692 5.0398 1.1692 1.7538 0 3.0642-0.42334 1.1692-0.38302 1.8949-1.1088 1.5724-1.4514 1.5724-3.931 0-2.3788-2.2377-3.6286-1.0886-0.64509-2.2175-0.98779-4.3544-1.3708-5.201-1.7337-1.1692-0.50397-2.278-1.4918-2.1973-1.9554-2.1973-5.5236 0-3.2658 2.3586-5.6244 2.54-2.4796 6.6122-2.4796 4.2536 0 8.2854 1.653v6.8138h-1.9756q-0.74588 0-0.86684-0.70556 0-0.0202-0.04032-0.40319-0.02016-0.40318-0.1008-1.3103-0.06048-0.90716-0.14111-1.9554-2.8223-0.7862-4.8785-0.7862-2.6812 0-4.1326 1.3305-1.391 1.27-1.391 3.2859 0 2.1973 2.2175 3.427 1.0483 0.62493 2.3183 1.0483 3.5883 1.1894 5.201 1.8546h-0.08064q4.4551 1.9958 4.4551 6.6525 0 4.0721-2.5602 6.6323-2.6812 2.6812-7.3379 2.6812-1.9353 0-4.052-0.36286-1.4918-0.26207-3.3061-0.78621z"/>
  </g>
  <g fill="none" stroke="#000" stroke-linejoin="round" stroke-width=".89889">
   <path d="m75.034 144.53h23.802"/>
   <path d="m98.392 144.09v33.854"/>
   <path d="m98.835 177.5h-23.802"/>
   <path d="m75.477 177.94v-33.854"/>
  </g>
  <g transform="matrix(.01266 0 0 .01266 58.882 107.42)" clip-path="url(#clip_path_2)">
   <g class="TextShape" aria-label="1">
    <path d="m1632.7 3605.4 75.15-64.809h25.51v229.42q44.125 3.2749 45.159 3.4473 4.8262 1.0341 4.8262 6.3774v14.134h-135.48v-14.134q0-5.3433 4.9986-6.3774l49.296-3.4473v-172.36q0-10.514 0.3447-15.857l-45.159 38.437q-3.4472 2.9302-6.3774 2.9302-6.0327 0-8.4458-3.9644z" fill="#fff"/>
   </g>
  </g>
 </g>
</svg>
