<?xml version="1.0" encoding="UTF-8"?>
<svg width="135.61" height="128" version="1.1" viewBox="0 0 35.88 33.867" xmlns="http://www.w3.org/2000/svg" xmlns:cc="http://creativecommons.org/ns#" xmlns:dc="http://purl.org/dc/elements/1.1/" xmlns:rdf="http://www.w3.org/1999/02/22-rdf-syntax-ns#">
 <title>Letter V Initial</title>
 <defs>
  <clipPath id="clip_path_1">
   <path d="m0 0h15849v23495h-15849z"/>
  </clipPath>
 </defs>
 <metadata>
  <rdf:RDF>
   <cc:Work rdf:about="">
    <dc:format>image/svg+xml</dc:format>
    <dc:type rdf:resource="http://purl.org/dc/dcmitype/StillImage"/>
    <dc:title>Letter V Initial</dc:title>
    <dc:date>2021-10-16</dc:date>
    <dc:creator>
     <cc:Agent>
      <dc:title>Indrele the Lesser</dc:title>
     </cc:Agent>
    </dc:creator>
    <cc:license rdf:resource="http://artlibre.org/licence/lal"/>
   </cc:Work>
   <cc:License rdf:about="http://artlibre.org/licence/lal">
    <cc:permits rdf:resource="http://creativecommons.org/ns#Reproduction"/>
    <cc:permits rdf:resource="http://creativecommons.org/ns#Distribution"/>
    <cc:permits rdf:resource="http://creativecommons.org/ns#DerivativeWorks"/>
    <cc:requires rdf:resource="http://creativecommons.org/ns#ShareAlike"/>
    <cc:requires rdf:resource="http://creativecommons.org/ns#Notice"/>
    <cc:requires rdf:resource="http://creativecommons.org/ns#Attribution"/>
   </cc:License>
  </rdf:RDF>
 </metadata>
 <g transform="matrix(.013837 0 0 .013314 -18.873 -40.049)" clip-path="url(#clip_path_1)">
  <g class="TextShape" aria-label="V">
   <path d="m2611.1 5343.7q25.008 29.555 25.008 43.195 0 25.008-54.562 25.008-47.742 0-72.75-25.008-288.73-270.54-406.95-511.52-115.95-243.26-115.95-611.55 0-165.96 86.391-429.68 88.664-265.99 197.79-454.69 20.461-45.469 20.461-59.109 0-47.742-109.12-56.836-104.58-6.8204-104.58-63.656t150.05-56.836h834.35q118.22 0 118.22 50.016 0 22.734-20.461 43.195-20.461 18.188-40.922 22.734-38.648 4.5469-70.477 22.734-31.828 15.914-31.828 38.648 0 4.5469 9.0937 22.734 161.41 254.62 231.89 456.96 72.75 200.06 72.75 475.15 0 170.51-22.734 309.19-20.461 136.41-52.289 229.62-29.555 93.211-90.938 188.7-61.383 95.484-111.4 150.05-47.742 56.836-136.41 150.05-56.836 56.836-97.758 56.836-15.914 0-27.281-15.914-11.367-13.641-11.367-29.555 0-34.102 34.102-68.203 177.33-172.78 250.08-334.2 75.023-163.69 75.023-456.96 0-161.41-38.648-345.56-36.375-186.42-138.68-404.67-102.3-220.52-254.62-363.75-40.922-36.375-79.57-36.375-50.016 0-68.203 38.648-25.008 52.289-95.484 186.42-68.203 131.86-93.211 186.42-22.734 52.289-61.383 156.87-38.648 102.3-52.289 195.52-13.641 90.938-13.641 200.06 0 636.56 368.3 1075.3z" fill="#f00"/>
  </g>
 </g>
 <path transform="matrix(.26459 0 0 .26459 -.00024957 0)" d="m89.35 6.7227v6.6855c0 1.7101 0.80172 2.7203 2.4082 3.0312 0.93278 0.31093 3.9654 0.93243 9.0957 1.8652l-28.84 72.445c-1.0883 2.5393-2.305 6.7378-3.6523 12.594-1.2956-5.3893-2.5668-9.5354-3.8105-12.438l-29.148-72.445c1.1919-0.20729 2.694-0.51708 4.5078-0.93164 1.8138-0.41466 3.0587-0.67379 3.7324-0.77734 2.1247-0.31095 3.1855-1.3231 3.1855-3.0332v-6.9941h-37.855v6.9941h-0.0019531c0 1.6065 0.80367 2.566 2.4102 2.877 0.88113 0.31093 3.5756 0.93243 8.084 1.8652l41.744 102.53h13.838l41.82-102.53 8.0059-1.8652c1.451-0.31093 2.1758-1.2705 2.1758-2.877v-6.8398l-37.699-0.15625zm-61.408 2.875h1.2207v10.979c1.4076 0.10457 2.1271 0.15877 2.1602 0.16406 0.15395 0.033008 0.23047 0.13436 0.23047 0.30469v0.67578h-6.4824v-0.67578c0-0.17058 0.080791-0.27193 0.24024-0.30469l2.3574-0.16406v-8.248c0-0.33539 0.006491-0.58931 0.017578-0.75977l-2.1621 1.8398c-0.10996 0.09348-0.21121 0.14062-0.30469 0.14062-0.19245 0-0.32732-0.062966-0.4043-0.18945l-0.4707-0.66016 3.5977-3.1016z" stroke-width=".047848"/>
 <g transform="translate(-66.727,-100.24)" fill="none" stroke="#000" stroke-linejoin="round" stroke-width=".89889">
  <path d="m66.733 100.69h35.867"/>
  <path d="m102.16 100.25v33.854"/>
  <path d="m102.6 133.66h-35.867"/>
  <path d="m67.176 134.1v-33.854"/>
 </g>
</svg>
