<?xml version="1.0" encoding="UTF-8"?>
<svg width="133.17" height="128" version="1.1" viewBox="0 0 35.236 33.867" xmlns="http://www.w3.org/2000/svg" xmlns:cc="http://creativecommons.org/ns#" xmlns:dc="http://purl.org/dc/elements/1.1/" xmlns:rdf="http://www.w3.org/1999/02/22-rdf-syntax-ns#">
 <title>Letter A Initial</title>
 <metadata>
  <rdf:RDF>
   <cc:Work rdf:about="">
    <dc:format>image/svg+xml</dc:format>
    <dc:type rdf:resource="http://purl.org/dc/dcmitype/StillImage"/>
    <dc:title>Letter A Initial</dc:title>
    <dc:date>2021-10-16</dc:date>
    <dc:creator>
     <cc:Agent>
      <dc:title>Indrele the Lesser</dc:title>
     </cc:Agent>
    </dc:creator>
    <cc:license rdf:resource="http://artlibre.org/licence/lal"/>
   </cc:Work>
   <cc:License rdf:about="http://artlibre.org/licence/lal">
    <cc:permits rdf:resource="http://creativecommons.org/ns#Reproduction"/>
    <cc:permits rdf:resource="http://creativecommons.org/ns#Distribution"/>
    <cc:permits rdf:resource="http://creativecommons.org/ns#DerivativeWorks"/>
    <cc:requires rdf:resource="http://creativecommons.org/ns#ShareAlike"/>
    <cc:requires rdf:resource="http://creativecommons.org/ns#Notice"/>
    <cc:requires rdf:resource="http://creativecommons.org/ns#Attribution"/>
   </cc:License>
  </rdf:RDF>
 </metadata>
 <path transform="matrix(.26459 0 0 .26459 0 -.00052441)" d="m95.381 8.2188c-0.29594 0-2.5899 0.36954-6.8809 1.1094s-6.5849 1.1113-6.8809 1.1113c-0.8139 0-3.0329-0.11203-6.6582-0.33398-3.5514-0.29594-5.6603-0.44336-6.3262-0.44336h-1.084v5.9922h2.3047c2.3675 0 3.5508 0.66632 3.5508 1.998 0 0.29594-0.59164 1.2945-1.7754 2.9961-1.1838 1.6277-2.4044 3.7741-3.6621 6.4375-1.1838 2.5895-1.7754 5.1408-1.7754 7.6562-1.28e-4 3.6253 1.2205 7.2872 3.6621 10.986 2.4416 3.6992 4.7707 5.5488 6.9902 5.5488 0.44392 0 0.66602-0.73906 0.66602-2.2188 0-0.81383-0.11008-2.404-0.33203-4.7715-0.22195-2.3675-0.33398-3.9596-0.33398-4.7734 0-5.475 1.37-10.173 4.1074-14.094 2.7375-3.9951 6.5841-6.918 11.541-8.7676 4.2172-1.5536 6.3262-3.4013 6.3262-5.5469 0-1.9236-1.1459-2.8867-3.4395-2.8867zm-59.707 1.4434c-4.735 0-7.1016 0.92383-7.1016 2.7734 0 1.8496 1.665 2.9228 4.9941 3.2188 7.6944 0.59186 11.541 1.8872 11.541 3.8848 0 0.44389-0.18477 0.96084-0.55469 1.5527-0.29594 0.51789-1.1097 1.9606-2.4414 4.3281-1.3317 2.2935-2.1828 3.7362-2.5527 4.3281-0.29594 0.51789-0.96227 1.7759-1.998 3.7734-0.96178 1.9236-1.5908 3.2916-1.8867 4.1055-0.29594 0.81383-0.77555 2.1091-1.4414 3.8848-0.66585 1.7016-1.1101 3.1444-1.332 4.3281-0.14796 1.1837-0.33274 2.5891-0.55469 4.2168-0.22195 1.6276-0.33398 3.2551-0.33398 4.8828 0 4.6608 0.99851 9.7656 2.9961 15.314 2.0717 5.5486 4.1806 10.099 6.3262 13.65 2.1456 3.5514 5.0684 8.139 8.7676 13.762 3.7731 5.5487 6.1771 9.136 7.2129 10.764 1.1097 1.8496 2.9594 4.3282 5.5488 7.4355 2.6634 3.1073 4.2536 4.6621 4.7715 4.6621 0.51789 0 1.0368-0.18477 1.5547-0.55468 0.51792-0.36995 0.8147-0.92619 0.88867-1.666 0.51789-3.773 1.7385-8.5436 3.6621-14.314 1.9236-5.7708 3.846-10.506 5.7695-14.205 0.073975-0.07399 0.11133-0.22336 0.11133-0.44531 0-0.51789-0.25946-1.1095-0.77734-1.7754-0.44388-0.66586-0.88811-0.99805-1.332-0.99805-0.22195 0-0.47945 0.037354-0.77539 0.11133-0.9618 0.44395-2.4419 2.2562-4.4395 5.4375-0.9618 1.3316-2.1451 3.1066-3.5508 5.3262-1.4057 2.1455-2.5162 3.773-3.3301 4.8828-0.73986 1.1098-1.2941 1.666-1.6641 1.666-0.8878 0-1.9984-0.92578-3.3301-2.7754-1.2577-1.7756-2.1088-3.181-2.5527-4.2168-6.3628-15.167-9.543-30.815-9.543-46.943 0-11.172 1.0359-19.679 3.1074-25.523 2.1456-5.9189 4.8089-8.8789 7.9902-8.8789h6.6035v-4.6191c0-0.34216 0.00624-0.59954 0.017578-0.77344l-2.2051 1.877c-0.1122 0.095366-0.21521 0.14258-0.31055 0.14258-0.19633 0-0.33357-0.064357-0.41211-0.19336l-0.48047-0.67383 2.0312-1.752h-28.994z" fill="#f00" stroke-width=".048814"/>
 <path transform="matrix(.26459 0 0 .26459 0 -.00052441)" d="m59.08 7.2266-41.113 102.55-6.3359 1.8535c-1.391 0.36061-2.0859 1.2113-2.0859 2.5508v6.3359h32.457v-6.3359c0-1.391-0.69693-2.2417-2.0879-2.5508l-6.4902-1.8535 8.8867-22.797h48.916l8.8867 22.797-6.4902 1.8535c-1.494 0.30911-2.2422 1.1598-2.2422 2.5508v6.3359h32.611v-6.3359c0-1.3395-0.69498-2.1902-2.0859-2.5508l-6.3379-1.8535-40.957-102.55h-15.531zm7.2246 1.0234h1.2461v11.199c1.436 0.10658 2.1714 0.1643 2.2051 0.16992 0.15707 0.033661 0.23438 0.13667 0.23438 0.31055v0.68945h-6.6133v-0.68945c0-0.1739 0.081477-0.27691 0.24414-0.31055l2.4062-0.16992v-8.4141c0-0.34216 0.00624-0.59954 0.017578-0.77344l-2.2051 1.877c-0.1122 0.095366-0.21521 0.14258-0.31055 0.14258-0.19633 0-0.33357-0.064357-0.41211-0.19336l-0.48047-0.67383 3.668-3.1641zm0.42578 13.354c1.0303 4.1213 2.1886 7.6494 3.4766 10.586l16.77 43.66h-40.418l17.004-43.506c0.82426-2.3183 1.88-5.8976 3.168-10.74z" stroke-width=".048814"/>
 <g transform="translate(-76.12,-89.656)" fill="none" stroke="#000" stroke-linejoin="round" stroke-width=".91706">
  <path d="m76.127 90.115h35.223"/>
  <path d="m110.9 89.662v33.854"/>
  <path d="m111.35 123.06h-35.223"/>
  <path d="m76.579 123.52v-33.854"/>
 </g>
</svg>
