<?xml version="1.0" encoding="UTF-8"?>
<svg width="128.76" height="128" version="1.1" viewBox="0 0 34.067 33.867" xmlns="http://www.w3.org/2000/svg" xmlns:cc="http://creativecommons.org/ns#" xmlns:dc="http://purl.org/dc/elements/1.1/" xmlns:rdf="http://www.w3.org/1999/02/22-rdf-syntax-ns#">
 <title>Letter I Initial</title>
 <metadata>
  <rdf:RDF>
   <cc:Work rdf:about="">
    <dc:format>image/svg+xml</dc:format>
    <dc:type rdf:resource="http://purl.org/dc/dcmitype/StillImage"/>
    <dc:title>Letter I Initial</dc:title>
    <cc:license rdf:resource="http://artlibre.org/licence/lal"/>
    <dc:date>2021-10-16</dc:date>
    <dc:creator>
     <cc:Agent>
      <dc:title>Indrele the Lesser</dc:title>
     </cc:Agent>
    </dc:creator>
   </cc:Work>
   <cc:License rdf:about="http://artlibre.org/licence/lal">
    <cc:permits rdf:resource="http://creativecommons.org/ns#Reproduction"/>
    <cc:permits rdf:resource="http://creativecommons.org/ns#Distribution"/>
    <cc:permits rdf:resource="http://creativecommons.org/ns#DerivativeWorks"/>
    <cc:requires rdf:resource="http://creativecommons.org/ns#ShareAlike"/>
    <cc:requires rdf:resource="http://creativecommons.org/ns#Notice"/>
    <cc:requires rdf:resource="http://creativecommons.org/ns#Attribution"/>
   </cc:License>
  </rdf:RDF>
 </metadata>
 <path transform="matrix(.26459 0 0 .26459 -.00054193 0)" d="m48.096 7.2031c-1.4803 0-2.5546 0.63039-3.2207 1.8887-0.66614 1.2582-0.99805 2.4798-0.99805 3.6641v28.311c0 4.5149 0.81306 6.7715 2.4414 6.7715 1.2583 0 2.3325-2.3685 3.2207-7.1055 1.1103-6.1432 2.9229-10.362 5.4395-12.656 2.5166-2.3685 5.0696-3.5527 7.6602-3.5527 0.66614-1e-6 1.2592 0.55577 1.7773 1.666 0.59214 1.1102 0.88867 2.1825 0.88867 3.2188v84.158c0 2.3683 0.18462 4.0339 0.55469 4.9961 0.44407 1.0362 1.2198 1.5527 2.3301 1.5527 1.4803 0 2.2207-2.1465 2.2207-6.4394v-13.877c0-13.323 0.77772-25.387 2.332-36.193 1.5542-10.806 4.0702-18.281 7.5488-22.426 0.074-0.074 0.40786-0.37057 1-0.88867 0.59211-0.59214 1.036-1.1106 1.332-1.5547 0.29606-0.5181 0.44336-1.0366 0.44336-1.5547 0-0.96218-0.70309-1.7026-2.1094-2.2207-1.7023-0.4441-3.1439-1.5537-4.3281-3.3301-1.1842-1.8504-1.7773-3.2192-1.7773-4.1074v-0.001954c0-1.9984 0.36924-2.998 1.1094-2.998 0.14804 0 1.4815 1.0369 3.998 3.1094 2.5167 1.9984 4.7358 2.9961 6.6602 2.9961 0.22204 0 0.44396-0.037328 0.66602-0.11133 0.29604-0.14803 0.66723-0.85113 1.1113-2.1094 0.81417-3.1826 1.8138-6.105 2.998-8.7695 1.2583-2.7384 2.256-4.7378 2.9961-5.9961 0.81417-1.2583 1.2227-1.924 1.2227-1.998 0-1.5543-1.7775-2.3301-5.3301-2.3301h-28.311c-1.7024 0-4.4028-0.33386-8.1035-1-3.6268-0.74014-5.5514-1.1113-5.7734-1.1113zm18.609 2.3301h1.2461v11.203c1.4366 0.10658 2.1714 0.16438 2.2051 0.16992 0.15713 0.033763 0.23633 0.13669 0.23633 0.31055v0.68945h-6.6152v-0.68945c0-0.17386 0.081396-0.27874 0.24414-0.3125l2.4062-0.16797v-8.418c0-0.34232 0.00624-0.59948 0.017578-0.77344l-2.2051 1.877c-0.11222 0.095495-0.2171 0.14258-0.3125 0.14258-0.19641 0-0.33355-0.064353-0.41211-0.19336l-0.48047-0.67188 3.6699-3.166z" fill="#f00" stroke-width=".048835"/>
 <path transform="matrix(.26459 0 0 .26459 -.00054193 0)" d="m47.914 7.2344v6.6484c1e-6 1.5977 0.61854 2.5501 1.8555 2.8594 1.2369 0.30924 4.4075 0.92778 9.5098 1.8555v90.371l-9.1992 1.7793c-1.4431 0.30923-2.166 1.3129-2.166 3.0137v6.8047h38.113v-6.8047c0-1.5977-0.61854-2.5501-1.8555-2.8594-1.7008-0.41229-4.9226-1.0574-9.6641-1.9336v-90.371l9.123-1.7012c1.5977-0.30924 2.3965-1.3129 2.3965-3.0137v-6.6484h-38.113zm18.791 2.2988h1.2461v11.205c1.4366 0.10658 2.1714 0.16243 2.2051 0.16797 0.15713 0.033763 0.23633 0.13669 0.23633 0.31055v0.69141h-6.6172v-0.69141c0-0.17386 0.081395-0.27678 0.24414-0.31055l2.4082-0.16797v-8.418c0-0.34232 0.00624-0.60143 0.017578-0.77539l-2.2051 1.877c-0.11222 0.095495-0.2171 0.14453-0.3125 0.14453-0.19641 0-0.33355-0.064353-0.41211-0.19336l-0.48047-0.67383 3.6699-3.166z" stroke-width=".048835"/>
 <g transform="translate(-46.454,-125.94)" fill="none" stroke="#000" stroke-linejoin="round" stroke-width=".89737">
  <path d="m46.47 126.4h34.035"/>
  <path d="m80.073 125.94v33.867"/>
  <path d="m80.505 159.35h-34.035"/>
  <path d="m46.903 159.81v-33.867"/>
 </g>
</svg>
