<?xml version="1.0" encoding="UTF-8"?>
<svg width="133.07" height="128" version="1.1" viewBox="0 0 35.209 33.867" xmlns="http://www.w3.org/2000/svg" xmlns:cc="http://creativecommons.org/ns#" xmlns:dc="http://purl.org/dc/elements/1.1/" xmlns:rdf="http://www.w3.org/1999/02/22-rdf-syntax-ns#">
 <title>Letter N Initial</title>
 <defs>
  <clipPath id="clip_path_1">
   <path d="m0 0h15849v23495h-15849z"/>
  </clipPath>
 </defs>
 <metadata>
  <rdf:RDF>
   <cc:Work rdf:about="">
    <dc:format>image/svg+xml</dc:format>
    <dc:type rdf:resource="http://purl.org/dc/dcmitype/StillImage"/>
    <dc:title>Letter N Initial</dc:title>
    <cc:license rdf:resource="http://artlibre.org/licence/lal"/>
    <dc:date>2021-10-16</dc:date>
    <dc:creator>
     <cc:Agent>
      <dc:title>Indrele the Lesser</dc:title>
     </cc:Agent>
    </dc:creator>
   </cc:Work>
   <cc:License rdf:about="http://artlibre.org/licence/lal">
    <cc:permits rdf:resource="http://creativecommons.org/ns#Reproduction"/>
    <cc:permits rdf:resource="http://creativecommons.org/ns#Distribution"/>
    <cc:permits rdf:resource="http://creativecommons.org/ns#DerivativeWorks"/>
    <cc:requires rdf:resource="http://creativecommons.org/ns#ShareAlike"/>
    <cc:requires rdf:resource="http://creativecommons.org/ns#Notice"/>
    <cc:requires rdf:resource="http://creativecommons.org/ns#Attribution"/>
   </cc:License>
  </rdf:RDF>
 </metadata>
 <g transform="matrix(.013073 0 0 .013073 -17.732 -93.395)" clip-path="url(#clip_path_1)">
  <g class="TextShape" aria-label="N">
   <path d="m2474.4 8478.1q0-304.64-59.109-572.91t-177.33-422.86q-11.367-13.641-38.648-36.375-27.281-25.008-45.469-45.469t-18.188-38.648q0-56.836 143.23-56.836h495.61q125.04 0 125.04 50.016 0 40.922-152.32 70.476-45.469 9.0938-77.297 40.922-31.828 31.828-31.828 72.75 0 102.3 86.391 265.99 86.391 161.41 209.16 306.91 27.281 34.102 47.742 34.102t40.922-34.102l15.914-31.828q18.188-34.102 36.375-70.476 18.188-38.648 31.828-97.758 15.914-59.109 15.914-113.67 0-102.3-6.8203-184.15-6.8203-84.117-15.914-127.31-6.8203-45.469-6.8203-52.289 0-61.383 31.828-61.383 18.188 0 59.109 77.297 43.195 77.297 79.57 195.52 38.648 118.22 38.648 211.43 0 138.68-47.742 309.19t-109.12 284.18q-59.109 113.67-97.758 113.67-15.914 0-68.203-52.289t-120.49-150.05q-68.203-97.758-106.85-197.79-9.0938-25.008-20.461-9.0937-13.641 18.188 0 65.93 29.555 88.664 29.555 190.97 0 327.38-459.23 1104.9-38.648 56.836-84.117 56.836-15.914 0-25.008-22.734-6.8204-20.461 2.2734-36.375 136.41-254.62 206.88-493.34 72.75-240.98 72.75-543.35z" fill="#f00"/>
  </g>
 </g>
 <path transform="matrix(.26459 0 0 .26459 0 -.00026325)" d="m9.8184 7.9609v6.7207c0 1.6802 0.7636 2.673 2.291 2.9785 0.91639 0.30548 3.895 0.91557 8.9355 1.832v89.201l-8.9355 1.834c-1.5274 0.30551-2.291 1.2479-2.291 2.8262v6.7207l37.195 0.00195v-6.7207c0-1.5783-0.73832-2.5207-2.2148-2.8262-3.7678-0.7637-7.2554-1.3757-10.463-1.834v-68.506c0-3.0549-0.1011-5.4719-0.30469-7.2539l64.914 84.467c1.4256 1.782 3.2093 2.6719 5.3477 2.6719h7.6367v-100.58l8.9355-1.832c1.6292-0.30548 2.4434-1.2478 2.4434-2.8262v-6.873h-37.498v6.873c0 1.5274 0.83937 2.4698 2.5195 2.8262 0.10182 0 0.61088 0.10103 1.5273 0.30469 0.96738 0.20366 2.2148 0.45819 3.7422 0.76367 1.5784 0.25456 3.259 0.50909 5.041 0.76367v67.895c0 3.4685 0.092221 5.92 0.26953 7.4375l-64.729-84.42c-1.0692-1.0692-1.858-1.7317-2.3672-1.9863-0.61096-0.30548-1.6038-0.45703-2.9785-0.45703h-19.018zm17.578 2.5938h1.2324v11.086c1.4214 0.1055 2.1483 0.16047 2.1816 0.16602 0.15546 0.033309 0.23438 0.13648 0.23438 0.30859v0.68164h-6.5469v-0.68164c0-0.17212 0.081184-0.27528 0.24219-0.30859l2.3809-0.16602v-8.3281c0-0.33869 0.005546-0.59546 0.015625-0.76758l-2.1816 1.8574c-0.11112 0.094385-0.21436 0.14258-0.30859 0.14258-0.19426 0-0.3304-0.063712-0.4082-0.19141l-0.47266-0.66797 3.6309-3.1309z" stroke-width=".04832"/>
 <g transform="translate(-98.812,-88.9)" fill="none" stroke="#000" stroke-linejoin="round" stroke-width=".90771">
  <path d="m98.819 89.354h35.196"/>
  <path d="m133.57 88.906v33.854"/>
  <path d="m134.01 122.31h-35.196"/>
  <path d="m99.266 122.76v-33.854"/>
 </g>
</svg>
