<?xml version="1.0" encoding="UTF-8"?>
<svg width="101.91" height="128" version="1.1" viewBox="0 0 26.964 33.867" xmlns="http://www.w3.org/2000/svg" xmlns:cc="http://creativecommons.org/ns#" xmlns:dc="http://purl.org/dc/elements/1.1/" xmlns:rdf="http://www.w3.org/1999/02/22-rdf-syntax-ns#">
 <title>Letter L Initial</title>
 <metadata>
  <rdf:RDF>
   <cc:Work rdf:about="">
    <dc:format>image/svg+xml</dc:format>
    <dc:type rdf:resource="http://purl.org/dc/dcmitype/StillImage"/>
    <dc:title>Letter L Initial</dc:title>
    <cc:license rdf:resource="http://artlibre.org/licence/lal"/>
    <dc:date>2021-10-16</dc:date>
    <dc:creator>
     <cc:Agent>
      <dc:title>Indrele the Lesser</dc:title>
     </cc:Agent>
    </dc:creator>
   </cc:Work>
   <cc:License rdf:about="http://artlibre.org/licence/lal">
    <cc:permits rdf:resource="http://creativecommons.org/ns#Reproduction"/>
    <cc:permits rdf:resource="http://creativecommons.org/ns#Distribution"/>
    <cc:permits rdf:resource="http://creativecommons.org/ns#DerivativeWorks"/>
    <cc:requires rdf:resource="http://creativecommons.org/ns#ShareAlike"/>
    <cc:requires rdf:resource="http://creativecommons.org/ns#Notice"/>
    <cc:requires rdf:resource="http://creativecommons.org/ns#Attribution"/>
   </cc:License>
  </rdf:RDF>
 </metadata>
 <g class="TextShape" transform="scale(1.0534 .94927)" stroke-width=".017973" aria-label="l">
  <path d="m14.39 17.998v4.944q0 4.3311 1.6752 6.9052 1.7161 2.5741 5.1891 2.5741 1.1441 0 1.1441 0.65375 0 0.61289-0.98062 0.61289h-8.2944q-0.73547 0-0.73547-1.3892v-10.378q0-5.7611-2.0021-10.419-2.0021-4.6988-6.3332-6.9461-0.16344-0.081718-0.44945-0.2043-0.24516-0.16344-0.36773-0.2043-0.081718-0.040859-0.2043-0.12258-0.12258-0.12258-0.16344-0.24516t-0.040859-0.28601q0-0.77632 2.0021-0.77632h12.993q0.8989 0 2.2473-0.28601 1.3892-0.32687 1.7569-0.32687 0.8989 0 0.8989 1.1032 0 3.6365-0.69461 5.8837-0.65375 2.2064-2.615 3.5956-1.0215 0.69461-1.5935 0.69461-0.69461 0-0.69461-0.65375 0-0.12258 0.57203-0.81718 0.57203-0.69461 1.1441-1.6344 0.57203-0.98062 0.57203-1.8387 0-2.2064-0.65375-3.1053-0.61289-0.93976-2.615-0.93976h-6.0472q-1.1032 0-1.0215 0.40859 0 0.16344 0.2043 0.32687 2.6558 2.1655 3.8816 5.23 1.2258 3.0236 1.2258 7.6407z" fill="#f00" stroke-width=".00023646"/>
 </g>
 <g class="TextShape" stroke-width=".012414" aria-label="L">
  <path d="m2.9388 32.033v-1.8046q0-0.2871 0.16405-0.51267 0.18456-0.22558 0.45115-0.2871l2.3993-0.47166v-23.972q-2.0302-0.36912-2.3993-0.45115-0.26659-0.06152-0.45115-0.2871-0.16405-0.22558-0.16405-0.51267v-1.7636h10.069v1.7636q0 0.2871-0.18456 0.51267-0.18456 0.22558-0.45115 0.2871-0.24608 0.061521-1.2919 0.26659-1.0253 0.18456-1.0869 0.18456v23.603h10.828q0.14355-1.9687 0.24608-2.3993 0.06152-0.3076 0.3076-0.49216 0.26659-0.20507 0.57419-0.20507h2.0712v6.5417h-18.067z" stroke-width=".00015412"/>
 </g>
 <g transform="translate(-48.506,-92.68)" fill="none" stroke="#000" stroke-linejoin="round" stroke-width=".88143">
  <path d="m48.512 93.12h26.952"/>
  <path d="m75.03 92.686v33.854"/>
  <path d="m75.464 126.11h-26.952"/>
  <path d="m48.947 126.54v-33.854"/>
 </g>
 <g class="TextShape" stroke-width=".012414" aria-label="1">
  <path d="m6.9561 3.419 0.93295-0.80456h0.31669v2.8481q0.54779 0.040656 0.56063 0.042796 0.059914 0.012839 0.059914 0.079172v0.17546h-1.6819v-0.17546q0-0.066334 0.062054-0.079172l0.61198-0.042796v-2.1398q0-0.13053 0.00428-0.19686l-0.56063 0.47717q-0.042796 0.036376-0.079172 0.036376-0.074893 0-0.10485-0.049215z" fill="#fff" stroke-width=".00015412"/>
 </g>
</svg>
