<?xml version="1.0" encoding="UTF-8"?>
<svg width="33.873mm" height="33.867mm" version="1.1" viewBox="0 0 33.873 33.867" xmlns="http://www.w3.org/2000/svg" xmlns:cc="http://creativecommons.org/ns#" xmlns:dc="http://purl.org/dc/elements/1.1/" xmlns:rdf="http://www.w3.org/1999/02/22-rdf-syntax-ns#">
 <title>Letter O Initial</title>
 <metadata>
  <rdf:RDF>
   <cc:Work rdf:about="">
    <dc:format>image/svg+xml</dc:format>
    <dc:type rdf:resource="http://purl.org/dc/dcmitype/StillImage"/>
    <dc:title>Letter O Initial</dc:title>
    <dc:date>2021-10-16</dc:date>
    <dc:creator>
     <cc:Agent>
      <dc:title>Indrele the Lesser</dc:title>
     </cc:Agent>
    </dc:creator>
    <cc:license rdf:resource="http://artlibre.org/licence/lal"/>
   </cc:Work>
   <cc:License rdf:about="http://artlibre.org/licence/lal">
    <cc:permits rdf:resource="http://creativecommons.org/ns#Reproduction"/>
    <cc:permits rdf:resource="http://creativecommons.org/ns#Distribution"/>
    <cc:permits rdf:resource="http://creativecommons.org/ns#DerivativeWorks"/>
    <cc:requires rdf:resource="http://creativecommons.org/ns#ShareAlike"/>
    <cc:requires rdf:resource="http://creativecommons.org/ns#Notice"/>
    <cc:requires rdf:resource="http://creativecommons.org/ns#Attribution"/>
   </cc:License>
  </rdf:RDF>
 </metadata>
 <g class="TextShape" transform="matrix(1.258 0 0 1.2757 -60.518 -133.5)" stroke-width=".014759" aria-label="o">
  <path d="m61.922 113.8q0.73228 0 1.0984 0.57973 0.39665 0.54921 0.39665 1.373 0 1.0374-0.54921 1.8917t-1.312 0.85433q-0.64075 0-1.0069-0.54921-0.36614-0.54921-0.36614-1.251 0-1.0374 0.5187-1.9528 0.5187-0.94587 1.2205-0.94587zm6.4685-7.6279q1.2205 0 1.2205 0.51869 0 0.2441-0.48819 0.48819-0.45768 0.21358-0.76279 0.2441-0.91535 0.0915-0.91535 0.82381 0 0.12205 0.39665 1.251 0.39665 1.0984 0.76279 2.5935 0.39665 1.4951 0.39665 2.5325 0 4.0886-1.5866 7.9025-1.5561 3.814-3.6309 6.5295-0.45768 0.54921-0.97638 0.54921-0.15256 0-0.30512-0.15255-0.12205-0.12205-0.12205-0.27461 0-0.2746 0.36614-0.73228 3.814-5.2785 3.814-10.771 0-0.97637-0.18307-2.1968-0.18307-1.251-0.64075-2.685t-1.1289-2.5935q-0.67126-1.19-1.7697-1.9833-1.0679-0.7933-2.3799-0.7933h-0.97638q-0.48819 0-0.42716 0.24409 0 0.12205 0.15256 0.15256 0.67126 0.12204 1.0374 0.36614 0.39665 0.24409 0.39665 0.45767 0 0.12205-0.15256 0.2441-0.15256 0.12204-0.39665 0.30512-0.24409 0.15255-0.36614 0.2746-1.8002 1.8002-2.4104 3.7834-0.61023 1.9833-0.61023 4.9734 0 2.4409 0.85433 4.2106 0.88484 1.7392 2.8681 4.0886 0.24409 0.30512 0.24409 0.42717 0 0.2746-0.48819 0.2746-0.54921 0-0.82382-0.2746-2.8986-2.7156-4.2106-5.6142-1.2815-2.8986-1.2815-6.7736 0-1.7087 0.36614-2.8681t1.4646-3.0817q0.21358-0.33563 0.21358-0.67126 0-0.51869-1.0984-0.51869-1.0679 0-1.0679-0.67126 0-0.57972 1.4951-0.57972z" fill="#f00" stroke-width=".00018876"/>
 </g>
 <g class="TextShape" transform="translate(-44.674,-100.24)" stroke-width=".01279" aria-label="O">
  <path d="m48.195 123.23q-1.0614-2.7838-1.0614-6.0683t1.0614-6.0683q1.0414-2.7638 2.964-4.7665t4.5863-3.1042q2.7237-1.1215 5.9081-1.1215 3.1843 0 5.9081 1.1215 2.7437 1.1215 4.5863 3.0642 1.9226 2.0027 2.964 4.7665 1.0214 2.6837 1.0214 6.0683l-0.04005 0.0801q0 3.3446-1.0214 6.0282-1.0414 2.7638-2.964 4.7665-1.8826 1.9627-4.5462 3.0642-2.7838 1.1416-5.9081 1.1416t-5.9081-1.1416q-2.7437-1.1215-4.5863-3.0642-1.9226-2.0027-2.964-4.7665zm2.964-6.0282q0 2.7037 0.74101 4.8466 0.72098 2.0828 2.1229 3.6049 1.3819 1.502 3.2845 2.2831 2.0027 0.82112 4.3059 0.82112 2.3031 0 4.3059-0.82112 1.9026-0.78107 3.2845-2.2831 1.3418-1.462 2.0828-3.6049 0.74101-2.1429 0.74101-4.8466h-0.04005q0-2.7437-0.74101-4.8867-0.80109-2.2831-2.0428-3.645-1.3619-1.482-3.2845-2.2631-1.9026-0.78106-4.3459-0.78106-2.3632 0-4.2658 0.78106-1.9226 0.78107-3.2845 2.2631-1.3819 1.502-2.1229 3.645-0.74101 2.1429-0.74101 4.8867z" stroke-width=".00016357"/>
 </g>
 <g transform="translate(-44.674,-100.24)" fill="none" stroke="#000" stroke-linejoin="round" stroke-width=".90806">
  <path d="m44.68 100.69h33.867"/>
  <path d="m78.086 100.25v33.854"/>
  <path d="m78.547 133.65h-33.867"/>
  <path d="m45.128 134.1v-33.854"/>
 </g>
 <g class="TextShape" transform="translate(-44.674,-100.24)" stroke-width=".01279" aria-label="1">
  <path d="m48.245 116.26 0.96114-0.82887h0.32626v2.9341q0.56434 0.0419 0.57756 0.0441 0.06173 0.0132 0.06173 0.0816v0.18076h-1.7327v-0.18077q0-0.0683 0.06393-0.0816l0.63047-0.0441v-2.2044q0-0.13447 0.0044-0.20281l-0.57756 0.49159q-0.04409 0.0375-0.08156 0.0375-0.07716 0-0.10802-0.0507z" fill="#fff" stroke-width=".00016357"/>
 </g>
</svg>
