<?xml version="1.0" encoding="UTF-8"?>
<svg width="121.56" height="128" version="1.1" viewBox="0 0 32.162 33.867" xmlns="http://www.w3.org/2000/svg" xmlns:cc="http://creativecommons.org/ns#" xmlns:dc="http://purl.org/dc/elements/1.1/" xmlns:rdf="http://www.w3.org/1999/02/22-rdf-syntax-ns#">
 <title>Letter Y Initial</title>
 <defs>
  <clipPath id="clip_path_1">
   <path d="m0 0h15875v23495h-15875z"/>
  </clipPath>
 </defs>
 <metadata>
  <rdf:RDF>
   <cc:Work rdf:about="">
    <dc:format>image/svg+xml</dc:format>
    <dc:type rdf:resource="http://purl.org/dc/dcmitype/StillImage"/>
    <dc:title>Letter Y Initial</dc:title>
    <dc:date>2021-10-16</dc:date>
    <dc:creator>
     <cc:Agent>
      <dc:title>Indrele the Lesser</dc:title>
     </cc:Agent>
    </dc:creator>
    <cc:license rdf:resource="http://artlibre.org/licence/lal"/>
   </cc:Work>
   <cc:License rdf:about="http://artlibre.org/licence/lal">
    <cc:permits rdf:resource="http://creativecommons.org/ns#Reproduction"/>
    <cc:permits rdf:resource="http://creativecommons.org/ns#Distribution"/>
    <cc:permits rdf:resource="http://creativecommons.org/ns#DerivativeWorks"/>
    <cc:requires rdf:resource="http://creativecommons.org/ns#ShareAlike"/>
    <cc:requires rdf:resource="http://creativecommons.org/ns#Notice"/>
    <cc:requires rdf:resource="http://creativecommons.org/ns#Attribution"/>
   </cc:License>
  </rdf:RDF>
 </metadata>
 <g transform="matrix(.01298 0 0 .012962 -16.511 -75.717)" clip-path="url(#clip_path_1)">
  <g class="TextShape" aria-label="Y">
   <path d="m1873.4 6041.6q0-52.289 97.758-52.289 15.914 0 93.211 22.734 79.57 20.461 129.59 20.461h220.52q27.281 0 43.195 13.641 18.188 13.641 18.188 34.102v4.5469l-40.922 170.51q-9.0938 27.281-9.0938 36.375 0 29.555 11.367 52.289t27.281 22.734q56.836 0 113.67-13.641 59.109-15.914 131.86-54.562 72.75-40.922 106.85-61.383 36.375-20.461 125.04-81.844 90.938-63.656 102.3-70.477 4.5469-2.2734 22.734-18.188t36.375-25.008q18.188-9.0938 36.375-9.0938 38.648 0 38.648 40.922 0 38.648-50.016 70.477-154.59 104.58-272.81 318.28-118.22 211.43-188.7 488.79t-109.12 575.18q-36.375 297.82-43.195 616.1 225.07 72.75 441.05 79.57 18.188 0 34.102 9.0938 15.914 11.367 15.914 29.555 0 40.922-84.117 40.922-1127.6 0-1127.6-404.67 0-200.06 250.08-466.05 36.375-36.375 61.383-36.375 18.188 0 22.734 9.0937 4.5469 6.8204 4.5469 29.555 0 11.367-47.742 113.67-45.469 100.03-45.469 156.87 0 215.98 309.19 370.57 0-15.914 20.461-215.98 20.461-197.79 20.461-318.28 0-172.78-4.5468-281.91-2.2735-111.4-15.914-261.45-11.367-150.05-40.922-254.62-27.281-106.85-75.023-222.8-45.469-115.95-120.49-209.16-75.023-95.484-175.05-172.78-84.117-68.203-84.117-95.484z" fill="#f00"/>
  </g>
 </g>
 <path transform="matrix(.26459 0 0 .26459 -.00053296 0)" d="m8.7676 7.2363v6.7891h-0.0019531c0 1.6975 0.74654 2.7011 2.2383 3.0098 1.1316 0.20576 3.756 0.82278 7.8711 1.8516l34.412 56.557v33.564l-8.7969 1.8516c-1.6975 0.36005-2.5449 1.3123-2.5449 2.8555v6.7891h38.115v-6.7891c0-1.5946-0.79601-2.5468-2.3906-2.8555-3.4464-0.56582-6.4572-1.1828-9.0293-1.8516v-33.564l34.645-56.557c1.0288-0.20576 2.1867-0.46285 3.4726-0.77148 1.3374-0.30863 2.3658-0.53903 3.0859-0.69336 0.72017-0.15433 1.261-0.28384 1.6211-0.38672 1.286-0.30863 1.9297-1.2609 1.9297-2.8555v-6.9434h-37.963v6.6348c0 1.6975 0.74654 2.7011 2.2383 3.0098 5.6583 1.1317 8.7187 1.6973 9.1816 1.6973l-21.219 36.033c-1.8518 3.2408-3.3696 6.6096-4.5527 10.107-0.77157-2.3148-2.3141-5.6322-4.6289-9.9531l-21.141-36.033c0.36006 0 3.3689-0.56561 9.0273-1.6973 1.5432-0.30863 2.3145-1.3123 2.3145-3.0098v-6.7891h-37.885zm19.5 2.6816h1.2461v11.199c1.436 0.10658 2.1695 0.16235 2.2031 0.16797 0.15708 0.033663 0.23633 0.13666 0.23633 0.31055v0.68945h-6.6133v-0.68945c0-0.17391 0.081471-0.27691 0.24414-0.31055l2.4062-0.16797v-8.4141c0-0.34217 0.004287-0.60148 0.015625-0.77539l-2.2031 1.877c-0.1122 0.095369-0.21716 0.14258-0.3125 0.14258-0.19633 0-0.33357-0.064328-0.41211-0.19336l-0.47852-0.67383 3.668-3.1621z" stroke-width=".048816"/>
 <g transform="translate(-51.955,-42.031)" fill="none" stroke="#000" stroke-linejoin="round" stroke-width=".91706">
  <path d="m51.961 42.489h32.149"/>
  <path d="m83.658 42.037v33.854"/>
  <path d="m84.11 75.439h-32.149"/>
  <path d="m52.413 75.891v-33.854"/>
 </g>
</svg>
