<?xml version="1.0" encoding="UTF-8"?>
<svg width="189.05" height="128" version="1.1" viewBox="0 0 50.02 33.867" xmlns="http://www.w3.org/2000/svg" xmlns:cc="http://creativecommons.org/ns#" xmlns:dc="http://purl.org/dc/elements/1.1/" xmlns:rdf="http://www.w3.org/1999/02/22-rdf-syntax-ns#">
 <title>Letter W Initial</title>
 <metadata>
  <rdf:RDF>
   <cc:Work rdf:about="">
    <dc:format>image/svg+xml</dc:format>
    <dc:type rdf:resource="http://purl.org/dc/dcmitype/StillImage"/>
    <dc:title>Letter W Initial</dc:title>
    <dc:date>2021-10-16</dc:date>
    <dc:creator>
     <cc:Agent>
      <dc:title>Indrele the Lesser</dc:title>
     </cc:Agent>
    </dc:creator>
    <cc:license rdf:resource="http://artlibre.org/licence/lal"/>
   </cc:Work>
   <cc:License rdf:about="http://artlibre.org/licence/lal">
    <cc:permits rdf:resource="http://creativecommons.org/ns#Reproduction"/>
    <cc:permits rdf:resource="http://creativecommons.org/ns#Distribution"/>
    <cc:permits rdf:resource="http://creativecommons.org/ns#DerivativeWorks"/>
    <cc:requires rdf:resource="http://creativecommons.org/ns#ShareAlike"/>
    <cc:requires rdf:resource="http://creativecommons.org/ns#Notice"/>
    <cc:requires rdf:resource="http://creativecommons.org/ns#Attribution"/>
   </cc:License>
  </rdf:RDF>
 </metadata>
 <g class="TextShape" transform="matrix(.014646 0 0 .014467 -21.635 -80.076)" aria-label="w">
  <path d="m3702.1 6566.7q0 218.28-181.07 570.51-178.59 349.75-349.75 575.47-27.285 34.726-81.855 34.726h-176.11q-79.375 0-79.375-34.726 0-29.766 119.06-49.609 81.855-12.402 200.92-178.59-220.76-153.79-391.91-377.03-171.15-225.72-171.15-396.88 0-17.363 62.012-131.46 66.973-111.62 121.54-260.45 57.051-151.31 57.051-253.01v-17.363q0-44.648-17.363-62.012-14.883-17.363-79.375-17.363-111.62 0-111.62-54.57 0-47.129 126.5-47.129h880.57q84.336 0 148.83-29.766 66.973-29.766 96.738-64.492 32.246-37.207 62.012-66.973t54.57-29.766q47.129 0 47.129 84.336 0 146.35-29.766 235.64-29.766 89.297-109.14 205.88-19.844 29.766-49.609 57.051-29.766 27.285-42.168 27.285-27.285 0-27.285-62.012 0-7.4414 17.363-66.973 19.844-62.012 19.844-101.7 0-52.09-17.363-69.453-14.883-17.363-84.336-17.363h-250.53q-47.129 0-47.129 59.531 0 94.258 71.934 230.68 71.934 133.95 148.83 220.76 14.883 14.883 29.766 32.246 14.883 14.883 19.844 19.844 4.9609 4.961 7.4414 14.883 4.9609 7.4414 4.9609 19.844zm-498.57 843.36q99.219-163.71 166.19-362.15 66.973-198.44 66.973-354.71 0-416.72-290.21-664.77-12.402-9.9219-32.246-7.4414-17.363 2.4805-27.285 14.883-124.02 168.67-186.04 319.98-62.012 148.83-62.012 364.63 0 203.4 109.14 389.43 109.14 186.04 255.49 300.14z" fill="#f00"/>
 </g>
 <path transform="scale(.26459)" d="m92.947 7.2773c-1.2377 0-2.3463 0.41119-3.3262 1.2363s-1.6242 1.676-1.9336 2.5527l-26.766 78.904c-0.82511 2.527-1.6249 5.8018-2.3984 9.8242-0.25784-1.8048-1.0045-5.0797-2.2422-9.8242l-20.887-71.012c0.15473 0 0.56788-0.077709 1.2383-0.23242 0.67043-0.15473 1.7279-0.3859 3.1719-0.69531 1.4955-0.30944 2.9908-0.62027 4.4863-0.92969 1.7018-0.36099 2.5527-1.3142 2.5527-2.8613v-6.8066h-38.68v6.8066c0 1.5471 0.85091 2.5003 2.5527 2.8613 1.083 0.36099 3.7133 0.98073 7.8906 1.8574l31.717 102.03h13.924l28.854-86.482c0.10316-0.25786 0.20742-0.72217 0.31055-1.3926 0.10316-0.67043 0.20546-1.1613 0.30859-1.4707 0.10316-0.30941 0.23201-0.77372 0.38672-1.3926 0.15473-0.67043 0.28359-1.1593 0.38672-1.4688 0.46412 2.3207 1.0061 4.2291 1.625 5.7246l28.621 86.482h13.924l31.717-101.88 7.8906-1.7012c1.7018-0.36099 2.5527-1.3673 2.5527-3.0176v-6.8066h-37.674v6.6523c0 1.6503 0.85091 2.6566 2.5527 3.0176 5.6728 1.1346 8.614 1.7012 8.8203 1.7012l-21.041 71.012c-0.15471 0.61875-0.46554 2.0895-0.92969 4.4102-0.10313 0.5157-0.2566 1.3666-0.46289 2.5527-0.15473 1.1346-0.28359 1.9589-0.38672 2.4746-0.46412-2.6817-1.2904-5.8276-2.4766-9.4375l-26.688-78.904c-0.92824-2.527-2.6547-3.7891-5.1816-3.7891h-4.4102zm-65.529 3.6895h1.1309v10.176c1.3047 0.096833 1.9714 0.14725 2.002 0.15234 0.1427 0.030576 0.21484 0.12521 0.21484 0.2832v0.62695h-6.0098v-0.62695c0-0.15799 0.074856-0.25263 0.22266-0.2832l2.1855-0.15234v-7.6445c0-0.31088 0.005421-0.54514 0.015626-0.70312l-2.002 1.7031c-0.10193 0.086641-0.19656 0.13086-0.2832 0.13086-0.17838 0-0.30365-0.058561-0.375-0.17578l-0.43555-0.61133 3.334-2.875z"/>
 <g transform="translate(-36.222,-108.55)" fill="none" stroke="#000" stroke-linejoin="round" stroke-width=".83317">
  <path d="m36.228 108.97h50.014"/>
  <path d="m85.819 108.56v33.855"/>
  <path d="m86.242 142h-50.014"/>
  <path d="m36.639 142.42v-33.855"/>
 </g>
</svg>
