<?xml version="1.0" encoding="UTF-8"?>
<svg width="101.91" height="128" version="1.1" viewBox="0 0 26.964 33.867" xmlns="http://www.w3.org/2000/svg" xmlns:cc="http://creativecommons.org/ns#" xmlns:dc="http://purl.org/dc/elements/1.1/" xmlns:rdf="http://www.w3.org/1999/02/22-rdf-syntax-ns#">
 <title>Letter L Initial</title>
 <metadata>
  <rdf:RDF>
   <cc:Work rdf:about="">
    <dc:format>image/svg+xml</dc:format>
    <dc:type rdf:resource="http://purl.org/dc/dcmitype/StillImage"/>
    <dc:title>Letter L Initial</dc:title>
    <cc:license rdf:resource="http://artlibre.org/licence/lal"/>
    <dc:date>2021-10-16</dc:date>
    <dc:creator>
     <cc:Agent>
      <dc:title>Indrele the Lesser</dc:title>
     </cc:Agent>
    </dc:creator>
   </cc:Work>
   <cc:License rdf:about="http://artlibre.org/licence/lal">
    <cc:permits rdf:resource="http://creativecommons.org/ns#Reproduction"/>
    <cc:permits rdf:resource="http://creativecommons.org/ns#Distribution"/>
    <cc:permits rdf:resource="http://creativecommons.org/ns#DerivativeWorks"/>
    <cc:requires rdf:resource="http://creativecommons.org/ns#ShareAlike"/>
    <cc:requires rdf:resource="http://creativecommons.org/ns#Notice"/>
    <cc:requires rdf:resource="http://creativecommons.org/ns#Attribution"/>
   </cc:License>
  </rdf:RDF>
 </metadata>
 <path transform="matrix(.26459 0 0 .26459 0 -2.8976e-5)" d="m86.896 7.5488c-0.97595 0-3.3069 0.39201-6.9941 1.1738-3.5789 0.68409-6.5614 1.0254-8.9473 1.0254h-51.73c-5.314 0-7.9707 0.92833-7.9707 2.7852-3e-6 0.3909 0.055612 0.7322 0.16406 1.0254s0.32504 0.58767 0.65039 0.88086c0.32536 0.19546 0.5956 0.34172 0.8125 0.43945 0.32533 0.09773 0.81414 0.3415 1.4648 0.73242 0.75913 0.2932 1.3553 0.53697 1.7891 0.73242 11.496 5.3752 19.901 13.683 25.215 24.922 5.314 11.141 7.9707 23.601 7.9707 37.381v37.234c0 3.3227 0.97565 4.9824 2.9277 4.9824h33.023c2.6028 0 3.9043-0.73133 3.9043-2.1973 0-1.5637-1.52-2.3457-4.5566-2.3457-9.2181 0-16.103-3.0795-20.658-9.2363-4.4463-6.1568-6.6699-14.414-6.6699-24.773v-17.738l-0.001954 0.001953c0-11.043-1.6254-20.182-4.8789-27.414-3.2535-7.3298-8.406-13.584-15.455-18.764-0.54225-0.3909-0.8125-0.78095-0.8125-1.1719-0.21685-0.97728 1.1383-1.4668 4.0664-1.4668h24.076c5.314 0 8.7834 1.1233 10.41 3.3711 1.7352 2.15 2.6035 5.8652 2.6035 11.143 0 2.0524-0.75906 4.2502-2.2773 6.5957-1.5184 2.2478-3.0364 4.2019-4.5547 5.8633-1.5183 1.6614-2.2773 2.6385-2.2773 2.9316 0 1.5637 0.92198 2.3457 2.7656 2.3457 1.5182 0 3.6325-0.83079 6.3438-2.4922 5.2056-3.3227 8.675-7.6211 10.41-12.898 1.8436-5.3749 2.7656-12.411 2.7656-21.109 0-2.6387-1.1923-3.959-3.5781-3.959zm-57.08 2.332h1.1973v10.766c1.3802 0.10244 2.0868 0.15476 2.1191 0.16016 0.15096 0.032349 0.22656 0.13364 0.22656 0.30078v0.66211h-6.3574v-0.66211c0-0.16714 0.07802-0.26843 0.23438-0.30078l2.3145-0.16016v-8.0879c0-0.32889 0.004841-0.57701 0.015625-0.74414l-2.1191 1.8027c-0.10783 0.091655-0.20717 0.13867-0.29883 0.13867-0.1887 0-0.321-0.061542-0.39648-0.18555l-0.46094-0.64844 3.5254-3.041z" fill="#f00"/>
 <path transform="matrix(.26459 0 0 .26459 0 -2.8976e-5)" d="m11.107 7.4473v6.666c0 0.72337 0.20579 1.3691 0.61914 1.9375 0.46503 0.56838 1.0334 0.92898 1.7051 1.084 0.93 0.20669 3.953 0.77502 9.0684 1.7051v90.604l-9.0684 1.7812c-0.67172 0.15501-1.2401 0.51755-1.7051 1.0859-0.41335 0.56836-0.61914 1.2141-0.61914 1.9375v6.8203h11.393 68.285v-24.725h-7.8281c-0.77505 0-1.4982 0.25868-2.1699 0.77539-0.62004 0.46503-1.0091 1.0863-1.1641 1.8613-0.25834 1.085-0.56799 4.1079-0.92969 9.0684h-40.924v-89.209c0.15521 0 1.524-0.23224 4.1074-0.69727 2.6351-0.5167 4.2628-0.8528 4.8828-1.0078 0.67172-0.15501 1.24-0.5156 1.7051-1.084 0.46503-0.56836 0.69726-1.2141 0.69726-1.9375v-6.666h-38.055zm18.709 2.4336h1.1973v10.766c1.3802 0.10244 2.0868 0.15476 2.1191 0.16016 0.15096 0.032349 0.22656 0.13364 0.22656 0.30078v0.66211h-6.3574v-0.66211c0-0.16714 0.07802-0.26843 0.23438-0.30078l2.3125-0.16016v-8.0879c0-0.32889 0.006794-0.57701 0.017578-0.74414l-2.1191 1.8027c-0.10783 0.091655-0.20717 0.13867-0.29883 0.13867-0.1887 0-0.321-0.063495-0.39648-0.1875l-0.46094-0.64648 3.5254-3.041z"/>
 <g transform="translate(-48.506,-92.68)" fill="none" stroke="#000" stroke-linejoin="round" stroke-width=".88143">
  <path d="m48.512 93.12h26.952"/>
  <path d="m75.03 92.686v33.854"/>
  <path d="m75.464 126.11h-26.952"/>
  <path d="m48.947 126.54v-33.854"/>
 </g>
</svg>
