<?xml version="1.0" encoding="UTF-8"?>
<svg width="650.38" height="1024" version="1.0" viewBox="0 0 487.79 768" xmlns="http://www.w3.org/2000/svg" xmlns:cc="http://creativecommons.org/ns#" xmlns:dc="http://purl.org/dc/elements/1.1/" xmlns:rdf="http://www.w3.org/1999/02/22-rdf-syntax-ns#">
 <title>Anticipation of Sotha Sil Fresco</title>
 <metadata>Created by potrace 1.12, written by Peter Selinger 2001-2015
  <rdf:RDF>
   <cc:Work rdf:about="">
    <dc:format>image/svg+xml</dc:format>
    <dc:type rdf:resource="http://purl.org/dc/dcmitype/StillImage"/>
    <dc:title>Anticipation of Sotha Sil Fresco</dc:title>
    <dc:date>2021-10-16</dc:date>
    <dc:creator>
     <cc:Agent>
      <dc:title>TheMyzel</dc:title>
     </cc:Agent>
    </dc:creator>
   </cc:Work>
  </rdf:RDF>
 </metadata>
 <g transform="matrix(.41084 0 0 .41084 0 -.0099865)">
  <g>
   <path d="m774 0.5798c-17.4 3.8-25.6 5.9-28.5 7.4-1.9 1-6.4 2.6-9.9 3.4-5.9 1.5-7.4 2.5-15.9 10.3-5.1 4.7-10.2 10.3-11.3 12.4-3.8 7.4-7.9 19.9-7.3 22.2 0.4 1.6-0.9 4.7-4.4 10.7-2.7 4.6-5.9 11.5-7 15.4-1.9 6.4-1.9 7.6-0.8 13.7l1.3 6.6-10.2 24.9c-5.7 13.6-10 25.1-9.6 25.4 0.5 0.6 17.1 5.9 18.4 5.9 0.2 0-0.4-2.4-1.5-5.3l-1.9-5.3 8.5-27.8c7.4-24 8.6-28.8 8.6-35v-7.3l9.3-10.9c5.2-6 11.2-14.1 13.5-17.9 6.4-10.9 12.6-16.9 19.3-18.9 3.1-0.9 6.2-2.3 6.9-3.1 0.7-0.9 2-1.3 2.9-1 0.9 0.2 5.9-1.5 11.1-4 8.4-4 10.3-4.5 16.5-4.5 4.8 0 8.4-0.7 11.4-2 2.4-1.1 4.9-2 5.7-2 3.9 0 25.3 6.6 28.1 8.6 2.1 1.6 5.6 2.7 10.4 3.4 6.3 0.9 19.6 5.7 18.6 6.7-0.2 0.2-3.4-0.8-7.1-2.2-4.2-1.6-8.7-2.5-12.2-2.5-3.1 0-6.9-0.7-8.6-1.6-6.2-3.2-12.6-4.6-22.8-5-21.9-0.9-29.2 0.1-34.4 4.7-2.3 2-4.4 2.9-6.7 2.9-5.1 0-13.5 2.5-16.5 4.9-1.5 1.2-3.5 2.1-4.5 2.1-2.8 0-7.8 4.9-12.5 12.2-2.4 3.8-4.4 7.2-4.4 7.7s2.8 1.2 6.3 1.6c3.4 0.4 8.9 1.6 12.2 2.6 8 2.5 9 2.4 11.7-1 1.3-1.6 6-5.1 10.5-7.9 6.8-4.3 9.6-5.4 17-6.7 6.5-1.2 9.9-2.4 13.2-4.7 3.9-2.8 5.6-3.2 17.5-4.5 18.4-2 25.8-1.4 33.1 2.6l5.9 3.1 3.5-3.3c2-1.8 4.9-3.9 6.5-4.6l2.9-1.2-2.4-2.5c-4.8-5.2-14.4-11.1-20.4-12.7-3.6-0.9-8.7-3.3-12.8-6.1-7.3-4.9-15.9-8-21.9-7.8-2.1 0.1-6.9-0.5-10.8-1.3-6.6-1.4-19.9-1.8-24.5-0.8z"/>
   <path d="m887 25.18c-17.2 10.1-45.1 28.1-68.1 43.9-19 12.9-23.8 15.8-26.6 15.8-1.9 0-6.2 0.3-9.6 0.6-6 0.7-6.1 0.7-11.4 7.3-2.9 3.6-11.8 16.5-19.7 28.6s-14.9 22.5-15.5 23.2c-0.8 0.8-3.9 0-12.6-3.3-8.9-3.5-12.8-5.6-17.3-9.6-3.2-2.7-6-4.9-6.2-4.7-0.2 0.3 2.6 4 6.1 8.4 5.2 6.3 8.9 9.5 18.2 15.7 9.8 6.6 12.5 8.9 18 16 10.2 13.3 8.8 12.3 19.3 13.7 5.2 0.7 10 1.6 10.6 2 0.8 0.4-1.9 3.8-8 9.7l-9.2 9.1-19.3 7.1c-13.8 5.2-21.1 7.4-26.1 7.8l-6.9 0.7-4.4-4.2c-4.5-4-4.5-4.2-5.2-12.3-0.4-4.6-1.3-9.3-2.1-10.5-2.3-3.4-1.9-4 3.8-5.3 2.8-0.7 5.8-1.6 6.5-1.9 1.2-0.7-14.3-13.1-18-14.4-1.1-0.4-1.8-1.9-2-4.3l-0.3-3.7-3.3 4.7c-3.7 5.1-3.4 6.8 1.4 10.3l2.6 1.9-2.1 3.5-2.1 3.6 3.8 1.1c2.8 0.9 4.4 2.2 6 5 2 3.6 2.1 5.2 1.9 17-0.2 12.5-0.1 13.1 2.2 15.6 2.3 2.4 2.8 2.6 9.5 2 11.2-1 21.7-3.9 35.4-10 7-3.1 15.6-6.7 19.2-7.9 9.5-3.3 15.3-7.3 20-13.8 4.6-6.4 19.4-32.6 18.8-33.2-0.2-0.2-4.6 4.5-9.7 10.5-5.1 6.1-9.5 11-9.8 11s-3.8-2.9-7.8-6.5c-5.8-5.2-7.7-7.6-9.4-12.2l-2.2-5.8 10.7-28.7 10.8-28.7 4.4-1.1c2.5-0.6 4.7-0.9 5-0.6 0.2 0.3-2.5 7.4-6 15.8-3.6 8.4-6.4 15.4-6.3 15.5 0.2 0.3 19.5-19.3 37.5-38 9.3-9.6 26.9-23.3 40-31.2 11.1-6.6 30.7-20.4 35.3-24.8 4.3-4 11.7-15.7 10-15.7-0.4 0-4.8 2.4-9.8 5.3z"/>
   <path d="m817.5 41.98c-18.1 2.4-31 7.1-44.3 16.3-9 6.2-9.5 7.3-2.9 7.5 1.3 0.1 5.4 0.8 9.1 1.6 5.5 1.3 7 2.1 7.9 4 2.7 5.9 12.4 2.1 37.2-14.5 10.2-6.7 18.9-12.6 19.3-13 0.8-0.7-9-4.2-11-3.9-0.4 0.1-7.3 1-15.3 2z"/>
   <path d="m1022.8 42.38c-9.7 4.2-19.5 18.6-24.9 36.5l-1.4 4.5 2.1-2.8c4.4-5.8 12.4-7.4 18.4-3.7 10.6 6.5 18.5 32.9 18.5 61.3 0 28.2-6.3 51.2-16.6 60.7-3.7 3.4-5 4-8.7 4-2.9 0-5.3-0.7-7-2-1.4-1.1-2.8-2-3.1-2-0.9 0 4.2 11 7.4 16.1 6.9 10.6 14.6 15.9 23.3 15.9 16.3 0 30.6-22.8 37.3-59.5 2.7-14.5 2.7-56.7 0-71-5.5-29.7-16.4-51.4-28.9-57.4-5-2.4-11.7-2.7-16.4-0.6z"/>
   <path d="m865.5 68.88-12.4 19-1.2-3c-2.6-6-4.8-2.9-6.3 8.5-0.7 5.5-1.7 8.4-4.7 13.2-3.9 6.2-6.4 7.9-6.4 4.5 0-1-0.6-2.6-1.3-3.7-1.6-2.1-2.6-1.1-4.2 4.5-0.8 2.6-1.7 3.6-3.6 3.8-2 0.2-2.7-0.3-3.7-3.2-2.3-6.3-6.1-5.1-8.3 2.5-1.4 4.5-2.3 5.1-9.6 6.9-5 1.1-5.3 1.4-5.9 4.8-0.3 2.1-0.8 4.5-1.1 5.5-0.4 1.6-0.1 1.8 1.9 1.1 1.2-0.4 4.4-1.3 6.9-1.9l4.7-1.3 0.5 17.7c0.5 18.1 2 26.8 5.1 29.9 2.4 2.5 4.8 0.5 7-5.9 1.5-4.4 2-9.3 2.4-25.7 0.2-11.1 0.7-20.2 1.1-20.2 0.3 0 0.7 7.3 0.8 16.3 0 8.9 0.6 18.8 1.2 22.1 1.9 10.1 4.6 10.8 6.7 1.8 0.8-3.2 1.2-3.9 1.3-2.1 0 1.4 1.8 4.5 3.8 6.8 3.3 3.9 3.5 4.5 2.3 6.5-0.7 1.1-1.8 2.8-2.3 3.7-0.8 1.2-0.3 2.5 1.7 5.2 2.7 3.6 2.7 3.6 2.7 19.8l-0.1 16.2 3.5 4.7c3.4 4.6 3.4 4.6 2.2 10.1-1.1 4.7-1 6.8 0.9 16.7 1.2 6.2 2.3 11.4 2.5 11.6 0.6 0.5 7.1 2.6 8 2.6 1.7 0 0.8-5.6-2.1-14-2.3-6.5-3-10.3-3-16.1 0-5.4-0.6-8.9-2-12.2-3.6-8-4.5-17.9-2.6-28.5 1.4-8.4 1.4-9.6 0-11.7s-1.4-2.6 0.1-5.5c1.6-3.2 1.6-3.3-1.4-7.5-2.8-3.9-3-4.8-2.5-9.2 0.4-2.6 1.5-6.2 2.4-7.8 2.9-4.7 4.1-17.3 3.9-40.1l-0.1-21.2 11-19.8c17.3-31.5 17.3-31.9 0.2-5.4zm-14.7 18.7c0.4 1.8-0.1 3.9-1.4 5.8-2.1 3.4-2.4 2.2-1.3-4.8 0.8-4.4 1.9-4.8 2.7-1zm1.9 39.7-0.7 8-2.7-6.7c-2.1-5.1-2.8-8.4-2.8-13.6 0-5.6 0.5-7.7 2.8-11.7l2.7-4.9 0.7 10.5c0.3 5.8 0.3 14.1 0 18.4zm-20.4-13.3c-1.8 1.1-2.1 0.4-1.3-2.8l0.7-2.8 0.9 2.4c0.7 1.7 0.6 2.7-0.3 3.2zm-11.7-0.3c1.1 2.9 0.5 3.7-3.3 4.6-3.3 0.8-3.7-0.8-1.3-5.5 1.7-3.3 3.1-3 4.6 0.9zm21.3 15.2c-1.5 2.2-3.2 3.9-3.8 3.7-1.4-0.5-2.1-9.7-0.7-9.7 0.5 0 2.2-2.3 3.8-5l2.8-5 0.3 5.9c0.2 5.1-0.1 6.6-2.4 10.1zm-7.4-0.9c0 2.4-0.4 3.8-1 3.4-1.4-0.9-1.2 1.9 0.2 3.3 0.9 0.9 1.2 4.8 1 13-0.2 13.1-1.9 23.5-3.3 21s-2.9-18.4-2.9-31.1c0-11.3 0.1-11.8 2.3-12.7 3.5-1.4 3.7-1.2 3.7 3.1zm-10.7 7.4c1.1 15.1-2.3 41.5-5.2 41.5-1.4 0-2.9-2.3-4-6.5-1.7-6.3-3.1-27.3-2.3-34.5l0.7-6.4 4.5-1.2c2.5-0.7 4.8-1.2 5.1-1.3s0.9 3.7 1.2 8.4z"/>
   <path d="m519.5 57.08c2.5 5.3 3 7.5 3 14 0 6.3-2.5 21.3-4.6 27.8-0.3 0.9-1.8-0.8-3.9-4.5-1.8-3.3-5.8-8.7-8.8-12-4.5-5-6.5-6.4-11.8-8.2-9.1-3-16.5-3.6-24.3-1.8-8.2 1.9-12.9 4.7-15.5 9-2.3 3.9-1.9 4.5 2.4 4.5 1.8 0 6 1.4 9.3 3.1 5 2.6 6.9 4.3 10.6 9.9 2.5 3.8 5.1 9.3 5.9 12.3 1.3 4.9 1.3 5.8 0 7.7-1.4 2-2.1 2.1-6.8 1.5-10.4-1.3-23.3 5.3-31.7 16.3-3.8 4.9-4.4 6.3-4.8 12.1-0.3 3.6 0 10.6 0.7 15.6 0.6 4.9 1.2 9.4 1.2 9.9 0.1 0.6 1.4-1 3-3.5 4.3-6.7 9-10.6 15.2-12.8 5.6-1.9 5.8-1.9 14 0 12.3 2.8 11.9 2.4 6.6 7.7-4.7 4.9-6.1 8.3-8.6 22.6-1.1 5.8-1 6.1 2.3 12 7.5 13.4 17.4 21.7 28.5 24.1 4 0.8 7.4 1.5 7.6 1.5 0.3 0-0.4-1.7-1.5-3.8s-3-8.2-4.2-13.4l-2.2-9.6 3.4-7.6c1.8-4.3 4.6-9.7 6.1-12.2 1.6-2.4 2.5-4.4 2.1-4.4-1.9 0-4.3 3.1-9.5 12.5l-5.6 10 0.8 10c0.5 5.5 0.7 10.2 0.5 10.4s-3.6-1.7-7.6-4.2c-7.2-4.5-7.4-4.6-11.1-13.4l-3.8-8.9 1.1-8.8c0.9-6.8 2-10.2 4.7-14.9 1.9-3.4 3.6-6.3 3.8-6.5s2.2 1 4.5 2.7c5.4 3.9 14 7.1 19.1 7.1 2.3 0 4.1 0.5 4.3 1.2s1 4 1.7 7.3c1.1 4.9 2.2 6.9 6.3 11.3 9.3 9.9 21.7 14.8 35.4 14 6-0.3 8.7-1 12.3-3.1 3.9-2.3 10.9-9.4 10.9-11.1 0-0.3-1.7-0.6-3.8-0.6-7.3 0-13.5-2.6-19.9-8.5-6.5-5.9-8.2-9-10.7-20.3l-1.4-6.3 2.1 0.8c6.5 2.2 20-1.9 27.6-8.2 3.3-2.8 5.6-5.9 7.7-10.5 2.8-6.4 2.9-6.8 2.8-23.1-0.1-10.2-0.5-17.3-1.2-18.5-0.7-1.1-1.2-1.4-1.2-0.5 0 0.7-1.7 5-3.8 9.5-4.2 8.8-9.1 13.9-16.6 17-3.7 1.5-11 1.3-12.1-0.3-0.2-0.4 1.3-3.6 3.4-7.2 5.4-9 6.1-17 2.5-27.2-4.4-12.3-7.7-17-16.8-24.1-5.2-4.1-10.9-7.5-15.1-9.1-3.7-1.4-6.9-2.5-7.1-2.5s1 2.8 2.6 6.2zm15.4 8.7c2.1 2 6.8 7 10.5 11.2l6.8 7.5 0.6 10.6 0.7 10.7-3.6 7.5-3.6 7.6-2.8-3.8c-1.5-2.1-4.5-5.2-6.6-6.8-4.4-3.4-13.2-7.4-16.3-7.4-1.1 0-2.3-0.5-2.6-1-0.3-0.6 0-1 0.7-1s2.9-3.8 4.7-8.5c3.3-8.2 3.4-8.9 3.2-20.1l-0.3-11.6 2.4 0.7c1.3 0.4 4 2.4 6.2 4.4zm-31.5 22.8 12 12.8-6.8 1.1c-8.6 1.5-14.8 4.2-19.8 8.8l-4 3.6-0.7-3.1c-0.3-1.7-0.6-5.5-0.6-8.3v-5.1l-10.4-8.4c-6.3-5.2-10.2-9-9.9-9.8 0.6-1.6 2.6-2.1 13.3-3.2 15.8-1.6 13.4-2.6 26.9 11.6zm22.3 20.3c25.5 9.6 26.7 43.3 1.9 54.9-8 3.7-20.2 3.7-28.1 0-7.7-3.6-12.4-8-15.7-14.6-7.4-15.3 0.4-33.8 17-40.2 7.1-2.7 17.9-2.8 24.9-0.1zm54.6 14.7c-1 4.9-2.2 10.2-2.5 12-0.6 3.7-1.3 4.3-10.5 10.2-4.2 2.6-9.4 4.9-13.8 6l-7.2 1.8 0.7-2.1c4-12.4 4.2-14.7 2-23-0.9-3.3-1.4-6.1-1.1-6.3 0.2-0.2 1.8 0.8 3.5 2.3 1.7 1.4 3.7 2.4 4.4 2.1 0.6-0.3 6.6-3.1 13.2-6.1 6.6-3.1 12.3-5.6 12.6-5.6 0.4 0-0.2 3.9-1.3 8.7zm-102.4 4c-2.8 9.4-1.5 18.2 4.2 27.1 3.7 5.7 3.3 5.8-3.3 0.4l-4.3-3.4-8.7 0.7c-7.3 0.6-9.8 1.3-15 4.2-4.6 2.5-6.4 3.1-6.7 2.1-0.2-0.7-0.9-4.1-1.6-7.6l-1.1-6.3 6.5-8.3 6.6-8.4 9.7-2.2c5.4-1.2 10.3-2.3 10.8-2.5 3.9-1.3 4.3-0.6 2.9 4.2zm64.4 35.9-2 6.5 2.8 3.2c8.4 9.4 12.5 13.2 18.2 16.9 3.4 2.2 6.2 4.4 6.2 4.8 0 0.8-13.3 6-15.4 6-1.6 0-17.6-6.5-23.8-9.6-4.4-2.3-5.2-3.2-8.8-11.1-2.2-4.7-4-8.7-4-8.8s2-0.5 4.4-0.7c6.2-0.7 14.5-4.8 19.1-9.6 2.2-2.2 4.3-4.1 4.6-4.1 0.4-0.1-0.2 2.9-1.3 6.5z"/>
   <path d="m867.1 88.58c-11.6 22.1-11.7 22.4-8.3 30.3l1.5 3.5 2.5-5.5c9.2-20.4 8.2-18.9 13.2-21 2.6-1.1 4.9-2 5.1-2s0.4 7.6 0.4 16.9v17l10.2 9.6-1.4 35.2 9.4 18.6-2.1 11.1c-3.8 21.3-4 19.1 2.2 30.7l5.5 10.4 0.8 22.7 0.7 22.7 4.5 1.6c2.5 0.8 4.8 1.2 5.1 0.9s0.9-11.4 1.2-24.7l0.5-24.2-8.2-12.3-8.1-12.2 3.8-12.8c2.1-7 3.9-13.4 3.9-14.3 0-1-2.4-5.7-5.4-10.5l-5.4-8.9 0.8-9c0.5-5 1.2-13.5 1.6-19l0.6-10-5.2-9-5.3-9 0.7-17.5 0.6-17.5-6.9-6.3c-3.8-3.4-7.1-6.2-7.3-6.2s-5.2 9.3-11.2 20.7z"/>
   <path d="m710 98.08c-2.7 1.5-6.5 5-6.5 5.9 0 0.5 1.5 0 3.3-1.1 5.7-3.4 14.9-4.1 24.9-1.9 4.8 1.1 11.3 3 14.4 4.4s6.8 2.5 8.2 2.5c1.9 0 0.7-0.9-4.7-3.5-12-5.7-34.2-9.3-39.6-6.3z"/>
   <path d="m700.1 110.68c-2.3 4.5-2.1 8.1 0.7 9.2 1.3 0.5 1.6 0.9 0.7 1-0.8 0 2.8 1.9 8 4.1 11 4.6 14.2 4.6 26.9 0.1 9.1-3.2 7.7-4.2-1.8-1.3-9.3 2.8-17.2 2.7-25.2-0.3l-6.4-2.4 9.5 0.5c7.8 0.5 10.2 0.3 12.8-1.1 1.8-0.9 3.2-2 3.2-2.5s-3.5-0.7-7.9-0.4c-4.3 0.3-9.9 0.3-12.5-0.1-4.4-0.7-4.7-0.9-4.4-3.4l0.3-2.7h16.2c15 0 18.7-0.5 17-2.2-0.4-0.3-8.5-0.8-18.1-1.1l-17.4-0.5z"/>
   <path d="m729.9 115.78c1.6 1.6 2.5 3.4 2.2 4-0.9 1.4 6.3 1.5 8.4 0.1 1.2-0.8 1-1-1.1-1-1.5 0-3.7-1.2-5.4-3-1.6-1.7-3.8-3-4.9-3-1.8 0-1.7 0.3 0.8 2.9z"/>
   <path d="m867.2 147.58c-1.3 1.2-0.7 11 0.8 15.4 0.9 2.4 3.4 6.2 5.6 8.5l3.9 4-1.5 4.5c-1.5 4.1-7.5 39.6-7.5 44.1 0 1.1 3 7 6.7 13.2 3.7 6.1 8.4 15.6 10.5 21.1 4.2 11.3 4.7 10.2 1.8-3.9-1.7-8.3-2.7-10.7-7.1-17.2l-5.1-7.6 0.4-12.7c0.3-7.9 1.6-18.2 3.4-27.5l2.8-14.9-9.4-8.2 3.8-12.4-2.2-1.8c-5.2-4.5-6.3-5.3-6.9-4.6z"/>
   <path d="m722.9 161.38c1 3.8 8.8 29 9.3 29.7 0.3 0.6 6.2-6.1 10.7-12.2 1-1.3 0.9-1.3-0.9-0.1-1.1 0.8-3.2 2.6-4.7 4-1.5 1.3-2.9 2.3-3.2 2-0.2-0.2-2.2-4.9-4.6-10.4-4.5-10.7-7.5-16.5-6.6-13z"/>
   <path d="m789.5 185.68c-4.1 6.9-7.6 13.2-7.8 13.9s0.8 5.9 2.2 11.6c1.3 5.6 3.4 14.3 4.6 19.4l2.1 9.2 15.6 12.8c15.4 12.8 15.5 12.8 24.1 14.9 4.8 1.2 8.9 2 9.1 1.8s-5.4-8.1-12.6-17.6c-7.1-9.5-13.2-17.8-13.6-18.4-1-1.7 1.8-12 6.8-24.9 4-10.5 4.4-12.2 3.4-14.7-0.6-1.5-1.6-2.8-2-2.8-0.5 0-3.7 1.4-7 3-3.3 1.7-6.4 2.8-6.9 2.5-0.4-0.3-1.9-3.6-3.2-7.3l-2.3-6.7-0.7 10.8c-0.3 6-0.8 11.1-1.1 11.3-0.2 0.3-0.7-4.9-1.2-11.3-0.4-6.5-1-13.7-1.3-16l-0.7-4.1zm6.7 25.2v5.5l-0.7-6.5c-0.4-3.6-0.8-8.8-0.7-11.5v-5l0.7 6c0.4 3.3 0.8 8.5 0.7 11.5zm-2.2 8.2c0.3 3.2 1.1 5.8 1.6 5.8s0.9-0.8 0.9-1.8c0.1-0.9 1.6 1.2 3.4 4.7l3.3 6.4 1.7-4.2c1.1-2.9 1.5-5.8 1.1-9.2-0.3-2.7-0.1-5.7 0.4-6.7 0.9-1.5 1-1.5 1.1-0.1 0 0.9 0.6 2.2 1.3 2.8 1.1 0.8 1.7 0.5 2.6-1.5 0.6-1.5 1.4-2.5 1.6-2.2 0.3 0.2-1.8 6.1-4.5 12.9l-5.1 12.5 11.3 11.2c6.2 6.2 10.3 10.9 9.1 10.5-2.2-0.8-25.4-19.6-28.8-23.3-0.9-1-2.6-5.4-3.6-9.7-2.3-9.9-2.2-12.4 0.2-5.3l2 5.5-0.6-5.5c-1.4-15.3-1.5-16.7-0.6-12.5 0.5 2.2 1.2 6.6 1.6 9.7z"/>
   <path d="m826.7 205.48-4.2 27.7 11.7 17.3c6.4 9.6 11.8 17.2 12 17.1 0.2-0.2-3.4-8.1-7.8-17.6l-8.1-17.3 0.7-27.4c0.4-15.1 0.6-27.4 0.4-27.4s-2.3 12.4-4.7 27.6z"/>
   <path d="m775.6 223.08c1 7.9 1.8 15.5 1.9 16.9 0 1.9-2.6 5.9-8.7 13.5-11.3 14.3-11.3 14.3-8.8 12.4 1.1-0.8 6.9-5.7 12.8-10.9 8.8-7.7 10.7-9.8 10.3-11.5-0.3-1.2-2.2-9.1-4.2-17.6s-4-15.8-4.3-16.3c-0.4-0.4 0.1 5.7 1 13.5z"/>
   <path d="m751.4 214.88c-0.9 1.9-4.2 9.6-7.4 17s-6.3 14-6.9 14.7c-0.6 0.6-12.6 5.6-26.6 11.1s-39.2 15.4-56 22c-16.8 6.5-32.1 12.5-34 13.2-2.8 1-5 3.5-11.4 12.7-4.3 6.3-7.6 11.6-7.4 11.9 0.3 0.2 4.2-0.1 8.8-0.7 6.6-0.8 8.6-0.7 9.5 0.3 0.7 0.7 9.9 12.1 20.5 25.3 10.7 13.2 22.1 27.4 25.4 31.5 6 7.4 5.6 7.6-2.3 1.2-2.3-1.9-4.1-3-4.1-2.6s0.7 4.5 1.6 9.2c0.8 4.6 1.3 8.6 1 8.9s-2.6-0.7-5.2-2.3c-2.5-1.6-6-3.7-7.8-4.7l-3.1-1.9 3.5 3.2c1.9 1.7 5.5 4.3 8 5.7s4.6 2.7 4.8 2.8c0.2 0.2-2.4 9-5.7 19.6-5.4 17.1-13.1 50.5-13.1 56.3 0 1.2 4.2 9 9.3 17.4l9.2 15.4 13.9 5 13.8 5 4.7-1.5c21.8-7.2 39-13.6 52-19.4l15.4-6.8 8.8-15.7 8.9-15.7 2.5-14.5c6-34.4 7.4-43 7.1-43.3-0.2-0.2-9.2 11.3-20.1 25.7l-19.8 26h-26.6l-0.6 3.7c-2.6 15.4-7 27.4-12.5 33.6-8.4 9.6-16.9 8.6-24.4-2.7-12.4-18.7-15.2-61.6-5.6-86.8l1.8-4.8-3.9-3.4-3.9-3.3-2.5-26.9c-1.4-14.8-2.5-28.1-2.5-29.6 0-2.5 0.6-2.9 7.8-5.2 8.6-2.7 21.5-5 25.1-4.4 2.3 0.3 2.2 0.5-2.1 5.8-2.4 3-5.7 7.2-7.2 9.2l-2.7 3.7 3.4 1.8 3.5 1.8-6.4 13.4c-3.5 7.4-6.3 13.5-6.1 13.7 0.1 0.1 8-5.6 17.4-12.7 9.5-7.1 17.6-12.9 18.1-12.9s10.5 4.5 22.3 10.1c11.7 5.5 21.8 10.1 22.3 10.2s1.9-4.5 3.2-10.2c4.1-19 4.5-16.5-3.6-20.6-3.8-1.9-7-4-7-4.5 0-1.5 0.7-1.3 7.3 2.2 8 4.3 17.2 12.9 20.3 19.1 1.4 2.6 2.8 7.1 3.1 9.9l0.6 5.1 1.4-2.8c2.1-3.9 2.8-12.6 1.3-17.1-3.2-10.3-13.7-20.5-27.7-27.1-3.9-1.8-7.4-3.3-7.7-3.3s-0.6 3.2-0.6 7c0 6.8-0.1 7-2 6-1.7-0.9-2-2.1-2-8v-6.8l-8.9-2.1c-10.7-2.5-11-2.5-12.8-0.4-1.1 1.3-1.6 1.5-2 0.5-0.2-0.7-1-1.8-1.7-2.5-1.8-1.9-0.5-21.2 1.6-23.4 1.6-1.5 1.8-1.5 3 1.3 0.6 1.6 1.2 6.8 1.2 11.6l0.1 8.7 9 2c5 1.2 9.3 2.1 9.6 2.1 0.4 0 1-3.6 1.3-8 0.4-4.4 1.1-8 1.6-8 0.8 0 1.7 5.7 2.3 14.3 0.2 3.7 0.5 4 5.7 6.1 22.5 9.2 36.1 27.2 32 42.6-1.3 5.1-10.6 21-14.8 25.5-5.1 5.4-15.6 11.7-24.9 14.9-2.1 0.7-3.9 2-4.1 3-0.3 1.5 0.2 1.4 4.7-0.4 22.2-8.7 37-23.3 42.2-41.5 1-3.3 1.8-5.2 1.8-4.3 0.2 3.3 6.3 8.8 13.8 12.4 6.7 3.3 11.4 3.9 9.8 1.4-0.3-0.5-0.1-1 0.5-1 0.7 0 0.9 0.8 0.5 1.9-0.5 1.5 0.3 2 5.2 3 9.3 1.9 24.1 2.5 33.7 1.2 11.2-1.5 24.6-5.7 24.6-7.6 0-2-0.9-1.9-6.1 0.4-8.8 3.9-20.1 5.4-35.8 4.8-8-0.3-15.9-1-17.6-1.6-2.9-1.1-2.8-1.1 1-0.6 28.4 3.8 59.5-1.4 58.3-9.8-0.9-6-14.9-10.3-37.1-11.2-6.8-0.3-11.9-1.1-13.7-2-4.1-2.1-5.5-1.9-9.2 1.4-1.8 1.5-5.6 3.6-8.4 4.5-7.1 2.3-9.2 4.7-7.6 8.9l1.2 3.2-3.5-3.7c-4.3-4.6-4.4-6.7-0.5-11.1 6.3-7.3 22.1-11.7 41.5-11.7 30.6 0 51.6 12 40.4 23.2-2 2-2.7 3.4-2 4.1 1.4 1.4 7.6-2.7 10-6.7 5.2-8.3 0.5-17.1-11.9-22.8-3.8-1.7-5.3-3.1-6.4-5.8-1.3-3.2-1.3-3.6 0.5-4.4 1.7-0.8 3.2 0.4 9.8 7.5l7.8 8.4 0.5-8c0.7-10 3.6-17.9 10-27.4 2.7-4 4.8-7.4 4.6-7.6-0.2-0.1-5.2-1.4-11.3-2.9-6-1.4-12.1-3.5-13.5-4.6s-3.6-2.6-5-3.3c-3.5-1.9-32.8-10.2-33.5-9.5-0.3 0.3-2.8 7.5-5.5 15.9-3.4 10.9-4.4 15.5-3.6 15.7 0.7 0.2 6.4-0.6 12.7-1.8l11.4-2.1 5.8 6c3.1 3.2 5.7 6.3 5.7 6.8 0 0.4-1.6 1.8-3.4 3-2.3 1.5-3.6 3.2-3.8 4.9l-0.3 2.7-19 0.2c-16.3 0.1-20.1 0.5-26.3 2.4-12.2 3.6-18.7 7.7-23.6 14.5-1.2 1.7-1.4 1.3-1.9-3.7-1.9-15.9-14.8-31.7-33.8-41.3-5.5-2.7-7-4-7.6-6.4-1-3.6-2.4-4.1-3.8-1.1-0.5 1.1-1.4 1.9-2 1.7-0.5-0.2-4.4-1.2-8.6-2.2-7.5-1.8-7.6-1.9-9-5.9-1.9-5.5-5.2-6-7-1.1-1.1 3-1.8 3.6-4.1 3.6-2.1 0-3.1-0.6-3.8-2.6-0.6-1.4-1-2.8-1-3.2 0.1-0.4 4.6-3.8 10.1-7.5l10-6.9 27.1 21.9c15 12 28 22.4 28.9 23.1 1.6 1.1 5.1-1.2 29.3-19 15.1-11.1 27.3-20.4 27.1-20.6s-12.8 4.4-28.1 10.3l-27.6 10.7-27.4-13.3c-15.1-7.3-27.4-13.5-27.4-13.8s3.9-3.3 8.7-6.6l8.8-6-0.4-12c-0.2-6.6-0.6-16.1-1-21l-0.7-9zm-53.3 78.5c0.4 0.8-0.3 3.4-1.4 5.6l-2.1 4.2 6.3-0.6c3.5-0.3 6.7-0.3 7.1 0.1s-4 1.1-9.6 1.7c-9.7 0.9-10.4 1.1-10.9 3.4-0.8 3.4-2.8 3.8-3.6 0.7-0.5-2.2-1-2.4-3.7-2-5.2 0.9-5.4 1.1-6.5 5.6-1 3.9-4.5 8.8-5.6 7.7-0.2-0.2-0.7-4.1-1.1-8.5l-0.7-8.1 3.3-1.2c3.4-1.2 4.8-0.4 4.9 2.8 0 0.9 0.7 1.1 2.3 0.7 1.2-0.3 3-0.6 4-0.6 1.3 0 1.7-0.9 1.7-3.9 0-3.8 0-3.8 6.8-6.4 8.1-3.1 8.1-3.1 8.8-1.2zm137.3 53.1c4.7 6 0.7 16.5-5.7 14.9-4-0.9-5.4-2.8-5.9-7.8-0.5-3.9-0.2-4.9 2-7.1 3.4-3.4 7-3.3 9.6 0zm36.7 7.8c6.1 1.9 8.1 3.8 6 5.5-2.8 2.3-12.1 4.1-24.6 4.7-23.6 1.2-45.3-4-35.5-8.4 3.5-1.6 4.5-1.5 4.5 0.3 0 2.9 4.7 6.5 8.4 6.5 4.1 0 8.6-4.6 8.6-8.7v-2.6l13.8 0.6c7.9 0.3 15.9 1.2 18.8 2.1zm-191.3 132.7c2.8 1.5 3.7 2.8 3.7 5.6 0 2.5-3.4 5.3-6.6 5.3-5.4 0-7.3-8.3-2.4-10.7 3.1-1.5 2.7-1.5 5.3-0.2z"/>
   <path d="m845.2 356.78c-4.5 1-5.4 1.8-3.8 3.4 1.5 1.5 26 2.3 31 1 4-1 5-2.7 2.4-3.8s-25.1-1.5-29.6-0.6zm27.1 2c0.8 0.5-1.8 1.1-6.6 1.5-9.2 0.7-23-0.3-21-1.5 1.7-1.1 25.9-1.1 27.6 0z"/>
   <path d="m81 295.08c-24.5 3.8-25.4 3.8-47.5 3.4-20.3-0.3-23-0.6-28-2.6l-5.5-2.2 2.5 2.7c4.2 4.5 12.2 10 18.2 12.4l5.6 2.3 28.9-1.4c33-1.5 67-1.5 85.7 0 12.4 1 13.1 1 15.8-1 2.5-1.7 3.8-1.9 9.6-1.4 12.1 1.2 12.8 1.6 24.9 10.6 6.5 4.9 11.9 8.5 12.1 8.1 0.1-0.4-0.1-2.5-0.6-4.7-0.8-3.5-0.5-4.4 3-9.6l3.8-5.7-8.5-4.6c-7.7-4.2-9.8-4.9-22.8-7-11.8-1.9-19.2-2.4-43.2-2.7l-29-0.4z"/>
   <path d="m251.6 294.68c-1.3 2.4-3.1 13.4-3.1 19.2 0 2.5-0.3 5.5-0.6 6.6l-0.6 2.2-5.1-1.9c-2.9-1.1-5.3-1.9-5.4-1.9-0.2 0-0.3 3.8-0.3 8.4 0 8-0.2 8.6-2.7 10.5-1.4 1.2-2.8 1.9-3.1 1.6-0.3-0.2-1.7-6.2-3.2-13.2l-2.6-12.7-4.7-1.5c-2.6-0.8-5-1.2-5.3-0.8-0.3 0.3 0.4 7.8 1.7 16.7l2.3 16.2 10.8 5.4c11.6 5.8 12.9 6.2 14.8 3.9 0.7-0.8 1.6-1.5 2-1.5s1 9.1 1.3 20.2c0.8 25.3 2.5 35.8 5.7 35.8 2.4 0 5-19.1 5-36 0-5.5 0.3-10 0.6-10s4.3 1.7 8.9 3.9l8.2 3.8 0.6 23.9c0.6 26.4 2.5 42.3 6 49.4 6.6 13.6 11.8-3.9 13.7-46 0.5-11.6 0.6-21.8 0.3-22.6s0-1.4 0.7-1.4c3.3 0 5 2.5 8.1 11.9l3.3 10 6.9 1.7c5.6 1.3 8.3 2.8 14.3 7.5 7.2 5.7 7.5 5.9 13.5 5.9 5.3 0 6-0.2 5.5-1.8-0.3-0.9-2.3-11.2-4.6-22.7-2.3-11.6-4.4-22-4.7-23.3-0.4-1.9-1.2-2.2-5-2.2-3.9 0-4.6-0.3-6.1-3.1-3.2-5.9-5.7-7.8-16.6-12.3-6-2.5-11.2-4.4-11.4-4.1-0.3 0.2 0.3 3.3 1.2 6.9 2.1 8.5 2.1 8.6-1.4 8.6s-3.5 0.1-1.4 4.2c1.5 2.9 1.5 3-0.1 2.4-0.9-0.3-1.9-0.6-2.1-0.6s-0.4-2.2-0.4-4.9c0-13.4-3.8-38.9-6.6-44.3-2.1-4-5.1-3.7-7 0.9-1.2 2.7-4.4 16.6-4.4 18.8 0 0.2-4.4-1.1-9.7-2.9l-9.8-3.3-1.1-11.4c-1.4-15.1-2.3-19.6-3.9-20.9-1-0.9-1.6-0.7-2.4 0.8zm3.8 12.2c1.4 10.4 1.4 18 0.2 18-0.5 0-2.2-0.5-3.6-1-2.6-1-2.6-1-2-9.3 0.9-11.5 2.5-19.5 3.6-17.6 0.4 0.9 1.3 5.3 1.8 9.9zm33.6 8.4c3.3 7.8 7.2 44.6 4.7 44.6s-4-3.4-5.1-12.2c-1.6-12.3-1.7-12.6-5.1-13.3-3.5-0.8-3.6-1.5-1.5-11.5 2.4-11.5 4.5-13.7 7-7.6zm-33.6 39.1c2.1 6 2.2 7.6 1.7 18.3-0.8 15.3-2.6 31.1-3.6 31.7-0.4 0.3-1.1-0.2-1.4-1.1-0.8-2.1-2.4-21.1-3.1-38.5-0.7-13.6-0.6-14.8 1.2-15.8 1-0.6 2-1.1 2.3-1.1s1.6 2.9 2.9 6.5zm35.8 15.1 4.3 1.7v9.6c-0.1 31.5-5 66.3-9.2 64.9-3.7-1.3-7.2-24.6-8.4-55.7-0.6-16.5-0.5-19.3 0.7-18.9 0.8 0.4 3.1 1.4 5.2 2.3l3.9 1.6-0.8-2.3c-0.4-1.3-0.9-2.9-1.1-3.6-0.7-1.6 0.3-1.5 5.4 0.4z"/>
   <path d="m911.8 298.08c-7 7.8-12.5 19.8-13.8 30.2-1.1 8.3 0 11.8 5.1 17.5l4.6 5.1-1.5 3.8c-1.4 3.5-1.3 3.9 1.1 7.7 6.2 9.8 19.7 20.7 34.9 28.4 7.7 3.9 24.6 10.1 27.5 10.1 0.9 0 2-2.4 3-6.8l1.6-6.7-3.1-9.6-3-9.6-6.3 0.5c-5.4 0.4-7.1 0.1-11.7-2.2-10.3-5-18.2-16.1-22.4-31.6-1.4-4.9-1.8-10.2-1.8-21.2v-14.7l-4.5-1.1c-2.5-0.6-5.2-1.3-6.1-1.6-0.8-0.2-2.5 0.6-3.6 1.8z"/>
   <path d="m927.9 301.08c-0.5 0.7-0.8 6.9-0.8 13.8 0 19.1 4.5 32.9 14.2 43.2 6.4 6.8 11.2 9.2 18.9 9.3 3.4 0 6.4-0.3 6.7-0.6s-0.3-3.3-1.5-6.6l-2-6-4.1 1.4c-3.7 1.3-4.4 1.2-8.3-0.7-7.5-3.6-12.5-13.3-14.6-28.1-0.8-5.8-0.8-10.7-0.2-15.7 0.8-6.1 0.7-7.4-0.6-8.6-2.4-2.2-6.7-3-7.7-1.4z"/>
   <path d="m576 315.88c-11.5 6.6-21.7 12.7-22.5 13.8-0.8 1-6.4 13.4-12.5 27.5l-11 25.7-7.5 2.8c-12.2 4.7-11.7 4.7-12.4 1.1-0.6-3-0.7-3.1-4.3-2.4-2.1 0.4-7.6 2-12.3 3.6-4.6 1.6-9 2.7-9.7 2.5-0.6-0.3-1.3-2-1.5-3.8-0.3-3.3-3.4-6.2-14-13.5-3.7-2.5-3.7-2.5-8.7-0.8-3.7 1.2-5.2 2.3-5.5 3.8-2.2 11.4-3.3 15.1-6.1 21.2-4 8.7-9.7 15.2-16.6 19-4.5 2.5-6.5 2.9-12.4 2.9-4.8 0-8.1-0.6-10.5-1.8-13.1-6.9-21.6-21.1-24-40-0.5-3.8-1.2-7.2-1.7-7.6-1.7-1.7-42.8-18.9-43.1-18.1-0.4 1 17.7 60.3 18.6 61.3 1.4 1.4 18.7 13.8 19.2 13.8 0.3 0 0.4-2 0.2-4.5l-0.4-4.5h3.6c2 0 3.9-0.1 4.3-0.3 0.3-0.1 1.3 1.7 2.2 4.1l1.5 4.2 40 13 2.5-2.4c2.1-2 3-2.3 4.6-1.4 1.7 1 3.8-0.8 19.2-16.8l17.2-17.9 0.1 3.6c0 3 1.2 5.1 6.1 11.2 5.7 7 6.3 7.5 8.8 6.7 1.4-0.5 12.5-3.9 24.6-7.5 12.1-3.7 22.3-7 22.6-7.3 0.4-0.4 1.2-2.5 1.9-4.7s1.9-5.4 2.6-7.1l1.3-3.2 6.6 3.5 6.5 3.4 43-12.2c42-12 43-12.2 45-10.4s2.9 0.8 0.9-1.2c-0.8-0.8-0.5-1.3 1.1-1.8 1.3-0.4 1.9-1.2 1.6-2.1-0.3-0.8-7.5-11.2-16.1-23.3l-15.5-21.8-4.6-0.7c-2.6-0.3-7.8-0.6-11.5-0.6-5.3 0-6.9-0.3-6.9-1.4 0-0.8 1.8-5.3 4-10.1s4-8.9 4-9.1c0-0.9-2.5 0.4-22.5 11.6zm32.7 39.5c6.4 2.3 6.8 3.3 1 2.4-7-1.2-22-1.1-28.7 0.2-9.1 1.7-13.4 3.7-14.2 6.7-0.8 3.3 2 5.6 9.6 7.9 6.8 2 31.4 2.4 37.5 0.5 3.5-1 3.8-1 2.5 0.3-4.9 4.9-25.8 8-38.1 5.5-13.6-2.6-21.8-9.3-19-15.4 1.4-3.1 8.1-7.1 15.2-9.1 7.4-2 27.5-1.5 34.2 1z"/>
   <path d="m557.8 310.18c-9.1 3.9-9.3 4.1-9.3 7.4 0 1.8 0.3 3.3 0.6 3.3 0.7 0 19.4-14.1 19.4-14.6 0-0.7-1.6-0.2-10.7 3.9z"/>
   <path d="m938.1 306.58c-1.2 1.2-0.6 20.5 0.9 27.1 1.9 8.4 6.6 16.7 10.8 19.2 3.7 2.3 8.5 2.6 11.1 0.7 1.7-1.2 1.5-2.1-2.8-14.7-4.1-11.9-5.5-14.4-12-23.2-4-5.3-7.6-9.5-8-9.1z"/>
   <path d="m115.1 310.88c0.5 0.5 4.5 2.8 8.9 5.1 9.2 4.9 16.3 10.6 23.2 18.6 4.6 5.5 4.7 5.8 4.5 11.5-0.5 10.2-4.3 16.7-17.2 29.3-14 13.8-18.3 21.1-17.8 30.8l0.3 6.2 3.3-5.7c2.7-4.7 5.6-7.5 16.7-15.9l13.5-10.3v-9.5l5.2-0.7c4.5-0.6 6-1.5 11.4-6.5 3.4-3.2 8.4-6.9 11.1-8.3 2.6-1.3 5.6-3.1 6.7-3.8 1.8-1.4 1.8-1.5-0.7-3.5-1.4-1.1-3.6-4-4.8-6.5l-2.1-4.5 3.3-5.1c3.3-5.1 3.5-5.2 8.3-5.2 3.1 0 4.6-0.4 4-0.9-0.5-0.5-6-3.7-12.2-7.1l-11.3-6.1-10.4 5.8-13.4-1.4c-8.8-0.9-16.5-2.4-22.4-4.3-4.9-1.6-8.6-2.5-8.1-2z"/>
   <path d="m84.5 315.48c0 0.3 2.8 3.9 6.2 8 6.4 7.8 21.9 20 31.3 24.6 4.2 2.1 5.7 2.3 9.1 1.6 5-1.1 5.4-1.9 5.4-14.1v-8.8l-3.2 3.8c-1.8 2.1-3.3 4-3.5 4.2-0.5 0.8-14.4-7.5-22.4-13.5l-8.6-6.4h-7.2c-3.9 0-7.1 0.3-7.1 0.6z"/>
   <path d="m531.5 326.38c-6.3 6.3-11.8 11.5-12.2 11.5s-1-1.6-1.4-3.5c-0.3-1.9-1.1-3.5-1.6-3.5-2.2 0-9.7 6.3-13.4 11.2-2.2 2.9-5.6 9-7.5 13.5l-3.4 8.2-6.8 1.7c-7.8 1.9-7.9 1.2 2.5 9.2l6.7 5.1 11.2-3.9c6.1-2.2 11.6-4 12.2-4s0.7 1.6 0.4 4c-0.3 2.2-0.2 4 0.1 3.9 0.4 0 6.3-9.5 13.1-21l12.4-21.1-1.7-2.8c-1.5-2.7-1.5-3.4-0.1-10.5 0.9-4.2 1.5-8.1 1.3-8.6s-5.5 4.3-11.8 10.6z"/>
   <path d="m190.3 330.68c-1.3 2.2-1.8 5.2-1.8 10.5v7.4l10-2-2.3-3c-1.2-1.8-2.6-5.9-3.2-9.5l-1-6.3z"/>
   <path d="m200.5 332.18c0 1.9 5.2 10.7 6.3 10.7 3.8-0.1 3.5-1.8-1.3-6.5-2.8-2.7-5-4.6-5-4.2z"/>
   <path d="m899.6 371.38-4.1 10.6 1.6 5.8 1.7 5.9 8.9-5.4c5-3 9.4-5.4 9.9-5.2 0.6 0.2-3.1 4-8.2 8.5l-9.1 8.2-0.2 17.3c-0.3 15-0.7 18.6-2.9 27.2-4 14.8-9.7 25.6-18.2 34.2-8.7 8.9-15.4 11.8-25.5 11.2-8.7-0.5-15-3.7-22.5-11.3-10.6-10.6-17.9-28.1-20.8-49.6l-1.4-9.7-7.5-10.3c-4.2-5.7-8.4-11.3-9.2-12.4-1.5-1.8-1.6 0.4-1 28.9l0.7 31 3.9 9.5c6.2 15.3 13.2 24.6 26.6 35.2 6.3 5 12.6 9.5 14.1 10 1.4 0.4 8.8 2 16.4 3.5l13.7 2.6 13.3-1.8 13.2-1.7 10.6-9.4c10.2-8.9 10.8-9.7 14.4-18.1 2.6-6.1 4.2-12.1 5.5-20.2l1.8-11.5-2.9-10.5c-1.6-5.8-3.8-13.7-4.8-17.5-1.1-3.9-2.7-11-3.6-16l-1.5-9 2.6-7.5c1.5-4.1 3.1-7.9 3.5-8.4 0.4-0.4 3.9 3.4 7.7 8.6 10.7 14.5 10.2 12.6 5.3 20.3l-4.2 6.7 2.4 8.4 2.4 8.3-2.9 18.3c-4.7 29.5-4.8 25.7 2.6 57.2 3.7 15.4 6.8 28.1 6.9 28.2 0.1 0.2 2-3.5 4-8.2l3.8-8.5-1.5-9.1c-3.1-17.7-1.3-50.6 2.9-54.7 1.5-1.5 1.7-1.4 3 0.3 2.4 3.1 3.6 11.5 4.2 27.8l0.6 15.7 7.4-16.1c4-8.9 7-16.4 6.6-16.8-1.9-1.6-11.8-9.4-12.1-9.6-0.1-0.1 2.7-13.3 6.3-29.4 3.5-16.2 6.3-29.5 6.1-29.8-0.3-0.2-5-1.9-10.6-3.8-21.2-7.1-41.1-19.9-50.1-32.2-2.4-3.3-4.7-6.1-5.1-6.1-0.3-0.1-2.5 4.6-4.7 10.4zm1.3 119.8c2.5 7-7.8 10.9-10.5 4-1.6-4.1 1.2-7.5 5.9-7.1 3 0.2 3.8 0.8 4.6 3.1z"/>
   <path d="m418.7 373.48c-3.8 2.6-5.6 7.3-5.6 14.9-0.1 14.6 9.4 21.6 16 11.8 4.5-6.7 3.7-20.2-1.6-25.5-3.2-3.2-5.6-3.5-8.8-1.2z"/>
   <path d="m399.7 383.08c1.1 18.7 9.5 31.8 20.3 31.8 10.1 0 18-10.7 20.6-27.9 1.2-8.6 0.7-10.7-2.4-9.5-1 0.3-1.8 2.3-2.2 5.2-2.6 19.4-7.3 29.2-14.1 29.2-4.1 0-7.4-4-10.2-12.5-1.6-4.8-4.2-18.6-4.2-22.5 0-0.8-5.3-3-7.3-3-0.6 0-0.8 3.5-0.5 9.2z"/>
   <path d="m863.2 377.38c-2.6 2.3-3.6 2.5-13.2 2.5-17.6 0-21.4 4-4.8 5l8.7 0.5-5.7 4.3c-3.1 2.4-6.1 5-6.8 5.8-1.1 1.3-0.9 1.4 1.2 1 1.3-0.3 4.4-0.8 6.9-1 2.5-0.3 8.6-1 13.5-1.6 5-0.6 12-1.3 15.7-1.7l6.7-0.6 2.2 3.7 2.1 3.6 4-2.2c4.2-2.4 4.1-1.8 1.7-10.9-0.8-3.3-1.4-3.8-5.7-4.9-2.6-0.7-7.6-2-11.2-3-11.4-3.2-12.2-3.2-15.3-0.5zm0.2 4.6c2.5 0.1 2.5 0.2-0.4 0.9-4 1-13.8 1.1-20.5 0.3l-5.5-0.8 4.5-0.6c2.5-0.4 7.8-0.5 11.9-0.3s8.6 0.5 10 0.5z"/>
   <path d="m679.7 398.58c-3.6 13.4-4.2 18.2-4.3 33.7 0 19.5 2.2 31.3 8.4 44.6 2.7 5.7 8.7 11.6 12.6 12.5 9.8 2.1 21.2-15.7 23.7-37.1 0.6-5 0.5-5.4-1.5-5.4-1.8 0-2.1 0.6-2.1 3.8 0 15.4-6.6 27.7-15 27.7-4.9 0-8-2.8-11.2-9.8-1.9-4.4-2.3-6.8-2.3-16.3 0-9.6 0.3-11.7 2.4-16.1 2.3-5 2.3-5.4 1.3-19-0.5-7.6-0.9-13.9-0.8-14.1 0.2-0.1 1.7 0.1 3.4 0.4 3.1 0.6 3.1 0.7 3.8 8.5s0.7 7.9 3.8 8.4c1.7 0.2 5.8 0.9 9 1.5 3.3 0.5 7.1 1 8.4 1 2.3 0 2.4-0.2 1.8-4.8-0.4-2.6-1.2-7.3-1.8-10.5l-1.1-5.7h-9.2c-13.1 0-18.5-0.9-18.5-3 0-1.4-6.9-8-8.3-8-0.2 0-1.4 3.5-2.5 7.7z"/>
   <path d="m738.5 399.58c-3 0.6-8.5 1.5-12.3 1.9-5.6 0.5-6.7 0.9-6.3 2.3 1 3.5 2.6 13.6 2.6 16.8 0 1.8 0.3 3.3 0.8 3.3 0.4 0 1.8 2 3.1 4.5s2.7 4.5 3 4.5 3.4-6.4 6.8-14.3l6.2-14.2-4.2-0.5-4.2-0.6 4-0.7c4.7-0.9 6.9-2.1 6.4-3.4-0.2-0.5-2.7-0.4-5.9 0.4z"/>
   <path d="m848.3 403.38c-4.7 0.7-9.1 1.4-9.6 1.6s-3.8 3.7-7.5 7.8l-6.6 7.3 5.4 8.1 5.5 8.1 9.7 2.8c5.4 1.5 10.1 2.8 10.5 2.8s-0.4-2.6-1.8-5.8c-1.4-3.1-2.7-6.2-2.8-6.9 0-0.6 3.3-4.6 7.4-9 4.1-4.3 9-9.5 10.9-11.5l3.3-3.6-3-1.6c-3.6-1.8-9.1-1.9-21.4-0.1z"/>
   <path d="m892.7 406.98-5.4 5 2.2 4.5c8.8 18.8 0.9 41-17.8 50.1-5 2.4-6.9 2.7-15.2 2.8-8.8 0-10.1-0.3-16.1-3.2-11.1-5.5-19.5-17-20.7-28.2-0.3-3.3-1.5-6.1-4.4-9.9-2.1-2.8-4-5.2-4.1-5.2-0.8 0 1.5 15.5 3.3 22.4 4.5 17.7 15.3 33.5 27.2 40.2 4.6 2.5 6.3 2.9 13.3 2.9 6.7 0 8.8-0.5 13-2.7 13.3-6.9 24.3-24.3 29-45.8 1.8-8.6 3.1-32.5 1.8-35.7-0.8-2-1.1-1.9-6.1 2.8z"/>
   <path d="m746.5 406.08c0 1.3-3.6 8.3-8.1 15.7-7.5 12.5-7.9 13.6-6.7 15.9 1.8 3.5 3 3.6 8.1 1 3.1-1.5 7.4-5.6 13.1-12.3l8.5-10-6.3-6.3c-6.9-6.7-8.6-7.5-8.6-4z"/>
   <path d="m881.5 417.18c-2.5 2.2-7.1 6.5-10.2 9.4l-5.8 5.4 2.6 5.2c1.5 2.9 4.4 7.3 6.6 9.9 2.2 2.7 3.7 4.8 3.4 4.8-0.4 0-12.2-2.3-26.4-5-25.1-4.9-25.8-5.1-28.4-8.2-3.2-3.7-3.4-3.1-1.2 4.2 4.9 16.4 20.5 27.2 37.2 25.7 12.3-1.2 23-8.6 28.8-19.9 3.9-7.5 4.6-20.7 1.4-29-1.2-3.2-2.4-6-2.8-6.2s-2.7 1.4-5.2 3.7z"/>
   <path d="m987.6 434.48c-1.6 3.3-5.7 11.1-9 17.4l-6 11.5 4.5 4 4.6 4-19.5 36.5c-10.8 20.1-19.7 37-19.9 37.6-0.3 1.2 7.4 23.4 8.2 23.4 0.3 0 1.9-2.4 3.5-5.2 1.7-2.8 5.7-8.1 9-11.6l6-6.5-0.3-5.6c-0.4-7.4 2.7-13.8 8.1-16.4 3.6-1.8 3.8-1.8 7.4 0 4.6 2.2 8.3 8.3 8.3 13.6 0 3.4 0.3 3.8 2.2 3.5 2-0.3 2.6-1.7 5-12.2l2.8-12-2.4-17.7-2.4-17.8-5-5.7c-4.1-4.5-5.3-6.7-5.8-10.3-0.3-2.5-1-6.3-1.4-8.4-0.7-3.1-0.1-6.3 2.5-15.5 1.9-6.4 3.2-11.8 3-12s-1.7 2.2-3.4 5.4z"/>
   <path d="m691.7 437.38c-3.6 8.1-3.4 23 0.3 30.9 7.6 16.1 21 8 22.3-13.5l0.4-7.6-6.8-0.6c-3.8-0.4-8.6-0.7-10.6-0.7h-3.7l-0.3-5.8c-0.3-5.6-0.3-5.7-1.6-2.7z"/>
   <path d="m777.8 471.58c-3.8 5.9-7.3 11.3-7.6 11.9-0.3 0.5 0.6 3.4 1.9 6.3 1.4 2.9 3.3 9.2 4.2 13.9 4.5 24.9-8.4 49.7-30.8 58.9l-5.5 2.3h45.5l0.1-8.3c0.1-8.1 1.4-22.9 1.7-19.5 0.2 1.6 1.7 1.8 17.2 1.8h16.9l0.5-3.8c0.8-5 3.4-18.2 4.1-20.7 0.5-1.8-0.5-2.6-6.6-5.5-5.8-2.8-8.8-5.2-15.5-12.4-4.6-5-8.4-9.3-8.4-9.7 0-0.3-2.4-6.3-5.3-13.3l-5.4-12.8z"/>
   <path d="m763.3 488.78-5.7 2.5 0.6 10.1c0.6 11.2-0.4 17.8-4.3 26.1-7.5 16.1-23 23-36.2 16.2l-4.9-2.6-0.7 5.2c-0.3 2.8-0.6 7.2-0.6 9.8v4.6l4.8 1.6c2.6 0.8 6.7 1.6 9.2 1.8l4.5 0.3-0.2-7c-0.2-4.9 0-6.3 0.6-4.5 0.5 1.4 0.9 4.6 1 7.1l0.1 4.6 5.3-0.9c12.1-2.1 25.8-12 32-23.2 8.2-14.8 9.1-35.2 2.1-50.2l-1.9-4.1z"/>
   <path d="m746.6 497.78c-0.9 0.6-1.1 1.8-0.6 3.9 0.3 1.7 0.3 5.2-0.1 7.7-0.5 3.8-0.9 4.5-2.3 3.9-3.7-1.7-8.6-1.5-11.8 0.5-6.4 4-7.8 11.6-3.3 17.4 1.2 1.4 1.6 2.8 1.1 3.1-1.1 0.7-0.3 7.6 0.9 9 0.5 0.4 2.8-1 5.2-3.1 2.3-2.2 5.8-4.5 7.6-5.3 6.6-2.6 9.1-9.8 5.8-16.2-1.1-2-1.2-4.3-0.6-9.2 0.9-7.8 0.1-12.9-1.9-11.7zm0 22c1.7 1.3 2.3 2.9 2.3 5.6 0 7.2-9 10.4-13.4 4.8-5.7-7.2 3.9-16.2 11.1-10.4z"/>
   <path d="m678 527.58c0.4 8.7 0.8 16 0.8 16.3s-0.3 5.2-0.7 11c-0.7 8.9-3.2 23-8.6 47.8-0.7 2.9-1 5.5-0.7 5.8 0.2 0.3 5 0.6 10.6 0.7l10.1 0.2 5.4-11.5c4.6-9.9 6-12 10.4-15.5 4.6-3.7 5.1-4.4 5.1-8.3 0.1-2.3-0.4-4.2-0.9-4.2-0.6 0-4.2 2.1-8 4.7-3.9 2.5-7.3 4.4-7.6 4.1s-1.1-8.2-1.8-17.4c-1.2-15.6-1.5-17.4-4.5-23.6-1.8-3.6-3.9-10.5-4.8-15.2-1.2-6.6-2.1-8.9-3.5-9.7-1.9-1-2-0.7-1.3 14.8z"/>
   <path d="m683.5 518.08c0 4.8 2.6 14 5.4 19.6 2.8 5.4 17.6 21.2 19.8 21.2 1.2 0 1.6-2.1 2.1-9.7l0.6-9.7-3.1-3.5c-3.7-4.2-7.6-12.2-8.4-17.4-0.7-4.1-1.1-4.3-5.8-2.3-1.8 0.7-3.9 1-4.7 0.6s-2.4-1.1-3.6-1.4c-2.1-0.7-2.3-0.4-2.3 2.6z"/>
   <path d="m705.5 515.78c0 1.7 4 13.6 5.4 16.1l1.4 2.5 1-2.6c0.9-2.1 0.5-3.7-1.9-8.4-1.6-3.2-2.9-6.4-2.9-7.1 0-0.8-0.7-1.4-1.5-1.4s-1.5 0.4-1.5 0.9z"/>
   <path d="m884.1 520.78-12.9 2.5-14-2.3c-7.6-1.2-14.1-2-14.4-1.8-0.2 0.3 0.1 2.5 0.8 4.8 1.8 6.1 1.8 37.5 0 45.4-0.7 3.3-2.2 7.8-3.2 9.9-1.1 2.2-1.9 4.1-1.9 4.3s2.7 0.3 5.9 0.3c4.3 0 6-0.4 6.5-1.5 0.3-0.8 1-1.5 1.5-1.5s5.5 3.7 11.2 8.3l10.3 8.3 2.2 13.5c1.1 7.4 1.9 13.7 1.7 14.1-0.2 0.5-2.6 0.8-5.2 0.8-5.8 0-11.1 1.7-11.1 3.5 0 1.6 4.6 3.1 11.9 3.9 2.9 0.3 5.6 0.8 5.9 1.1 0.5 0.5 4.2 22.8 4.2 25.7 0 1.4-0.9 1.8-3.7 1.9-4.7 0-10.5 2-11.1 3.6-0.5 1.8 3.3 3 10.4 3.5l5.9 0.4 2.1 12.5c1.7 9.8 11.3 45.1 12.6 46.4 0.2 0.2 2.9-1.5 6-3.8 8.5-6.2 8.5-7.2 0.5-35.4-5.7-19.8-11.7-48.3-11.7-55.1 0-1.5 0.6-2.2 1.9-2.2 1 0 2.4-0.7 3.1-1.5 1.1-1.3 0.7-1.8-2.8-3.2-4-1.5-4.1-1.7-4.8-7.2-1.2-9.2 0.4-46.5 3.1-74.8 1.5-14.6 2.5-26.6 2.3-26.7s-6.1 0.9-13.2 2.3zm-4 41.3c-2.2 10.4-4.4 18.8-4.8 18.8-2 0-14.8-8.7-14.3-9.7 0.5-1.5 22.7-28.4 23-28.1 0.2 0.2-1.6 8.7-3.9 19zm16 66.6c1.7 1 1.6 1.1-1.1 1.9-6.6 1.8-33.2 0.6-31.1-1.4 2.3-2.3 28.3-2.7 32.2-0.5zm-3.6 36.2c0.8 0.5 1.1 1.2 0.7 1.7-1.1 1.1-18.7 1-21.2-0.1l-2-0.8 2-0.8c2.8-1.2 18.7-1.2 20.5 0z"/>
   <path d="m829.8 523.58c-1.8 1.8-4.3 9.8-4.3 13.8 0 1.2 1.4 1.5 6 1.5 5.9 0 6-0.1 6-2.8 0-4-1.8-9.7-3.9-12.3l-1.8-2.2z"/>
   <path d="m922.6 552.08 0.2 29.6-7.4 9.6c-4.1 5.2-7.7 9.5-8.2 9.6-1.1 0 0.4-25.3 1.6-26.8 1.6-2.1 2.4-1.4 3.9 4l1.6 5.3 0.1-8.8 0.1-8.7-2.7 0.6c-1.6 0.4-4.2 1.2-5.9 1.9-3.1 1.3-3.1 1.3-3.8 10.6-0.4 5.2-1.2 13.4-1.7 18.2l-1.1 8.9 3.6 5.4c2 3 4 5.4 4.4 5.4 0.8 0 29.6-40.7 30-42.5 0.3-1.2-13.5-50.6-14.4-51.5-0.3-0.2-0.4 12.9-0.3 29.2z"/>
   <path d="m715.2 530.58c-1.9 3.3-1.5 6.1 1.1 8.5 3.5 3.3 6.5 4.8 9.6 4.8 2 0 2.6-0.5 2.6-2.3 0-4.7-1.2-6.6-4.4-7.3-1.7-0.3-4.3-1.5-5.8-2.5-1.5-1.1-2.9-1.6-3.1-1.2z"/>
   <path d="m825 540.78c-1.6 1.5-0.2 27.7 2 37.6l0.6 3-1.4-3.1c-2.4-5-3.8-13.2-4.4-25.7l-0.6-11.7h-34l0.6 10.2c0.4 5.7 0.9 15.4 1.3 21.5l0.7 11.3h44.5l1.1-2.8c2.2-5.4 3.2-13.9 3-27 0-7.2-0.4-13.4-0.8-13.6-0.4-0.3-1.2-0.1-1.9 0.3-0.9 0.5-0.9 1.6-0.1 4.2 2.2 7.4 0.5 35.9-2.1 35.9-0.5 0-1.4-2.4-2-5.3-1.3-5.5-1-29.9 0.4-32.8 0.6-1.3 0-1.7-2.9-2.1-1.9-0.2-3.8-0.2-4 0.1z"/>
   <path d="m591.4 551.78c-0.9 2.1-6.1 9.3-11.5 16l-9.9 12.3-12.5 6.3c-9.8 4.9-15.1 6.8-24.5 9-12.7 2.9-28.4 9.2-36 14.5-8.2 5.6-4.7 1.3 5.7-7 10.7-8.5 10.8-8.7 17.8-21.5 4.7-8.7 4.4-8.8-1.4-0.8-3.4 4.8-5.2 6-19.9 13.7-8.9 4.6-20 9.6-24.7 11.1-4.7 1.6-14.6 5.3-22 8.3-12 4.8-14.3 6.2-20.9 12.1-4.1 3.6-9.2 8.1-11.4 10l-3.9 3.5 1.7-3.5c1-1.9 4-7.3 6.6-12 2.7-4.8 4.9-9 4.9-9.4 0-0.3-3 2.1-6.7 5.5-3.8 3.3-14.5 10.8-23.9 16.6-9.5 5.8-18.1 11.5-19.2 12.7s-7 8.7-13.1 16.7c-10.8 14-11.1 14.6-11.1 19.4v5.1l3.3-4.6c1.7-2.5 7.5-10.9 12.7-18.6l9.5-14 15-8.6c15.3-8.9 16.4-9.2 16.5-4 0 2.2 1.5 3.2 2.2 1.5 0.2-0.5 3.7-2.4 7.8-4.2 5.7-2.6 9.4-5.3 15.5-11.2l8-7.7 18.9-6.6c16.9-5.8 24.2-7.5 25.8-6 0.3 0.3 0.2 2.5-0.2 5-0.7 4.5-0.3 5.4 1.5 3.6 1.7-1.7 27.4-11.7 42-16.4 7.7-2.5 18.4-6.3 23.8-8.5 5.3-2.3 9.7-3.7 9.7-3.1 0 3.2-3.7 7.2-10.9 11.6-7.6 4.6-8 5.1-10.5 11.2-1.4 3.6-2.4 6.6-2.2 6.8 0.2 0.3 3.5-1.1 7.2-3 3.8-1.9 9.3-3.7 12.3-4.1l5.3-0.7-4.8 5.6c-2.6 3.1-6.9 6.7-9.4 8-4.9 2.5-6.8 5.5-9 14.3-0.6 2.4-1.4 5-1.7 5.8-0.4 1 0.2 1.4 2.1 1.4 1.4 0 2.6 0.2 2.6 0.5 0 2.3-6.8 17.9-10.7 24.6-2.7 4.6-6.4 12-8.1 16.4-3 7.6-4.1 11.4-2.4 8.9 0.9-1.3 10.3-5.6 11-5 0.6 0.7-2.9 6.3-11.4 18.1-7.2 10.1-11.4 16.5-10.1 15.4 0.4-0.3 6.5-7.9 13.6-16.9 11.8-14.9 13.3-17.3 16.1-25.3 1.7-4.9 2.9-9.1 2.7-9.3s-2.7 3-5.6 7.1c-4.7 6.8-12.4 13.5-13.8 12.1-0.8-0.7 9.3-19.1 14.5-26.4 4.5-6.4 5.8-10 7.1-21 0.8-6.3 0.3-7.4-1.9-4.7-2.8 3.4-2.8 1.1-0.1-4.4 2.2-4.3 4.4-6.9 8.3-9.7 5.4-3.8 28.8-26.2 28.8-27.5 0-1.2-32.1 12-35.7 14.7-1.9 1.4-3.6 2.4-3.8 2.2-1.2-1.1 6.8-10.1 12.2-13.7 3.5-2.3 8.4-6.8 11.1-10.2 7.4-9.5 17.7-26.3 20.7-34 2.8-7.3 3.2-10.5 0.4-4z"/>
   <path d="m998.7 558.58c-0.7 4.9-2.9 20.4-5 34.5-3.4 22.6-3.7 26.1-2.5 28.9 0.7 1.7 1.3 3.4 1.3 3.8s-3.1 2.2-7 4.1c-6.8 3.3-7 3.3-9 1.5-1.1-1-2.2-1.6-2.5-1.3s-1.2 4.8-2 9.9c-1.4 9.2-1.3 9.8 1.6 26.4 4.5 25.2 4.7 25.8 4.8 13.5 0.1-8.7 0.7-12.5 3.5-22l3.3-11.5 4-0.9 4.1-0.8 0.6-5.9c0.7-5.7 0.8-5.8 5.9-8.8l5.2-3 0.7 4.7c1 6.4 2.4 45.1 2 53.4l-0.4 6.8h-3.9c-4.4 0-4.4 0.1-2.6-8.5 1-4.9 1-8.8-0.2-21.3-0.7-8.4-1.7-15-2.1-14.5-0.4 0.4-1.5 3.3-2.5 6.3-2.4 7.5-2.4 7.5-5.1 4.9-1.3-1.2-2.6-2.1-2.8-1.8-0.3 0.4-6.6 37.6-6.6 39.2 0 0.4 1.5 1.4 3.3 2.2l3.2 1.4-2.5 1.1c-2.2 0.9-2.1 1 1.5 0.6 3.8-0.5 9.8 1.5 7.9 2.6-0.5 0.3-3.3 1.1-6.1 1.8-2.9 0.6-5.1 1.6-4.8 2 0.3 0.5 2.9 0.2 5.8-0.6 6.6-1.8 7.7-1.7 7.7 0.1 0 1-2.1 2.1-6 3.2-3.3 0.9-6 2-6 2.5 0 1-0.5 1.1 6-0.7 5.3-1.4 8-0.9 6.6 1.3-0.4 0.6-3.1 1.8-6.1 2.7-3 0.8-5.5 2-5.5 2.5 0 1.4 1.6 1.2 7.3-0.5 4.7-1.4 4.8-1.4 4.5 0.7-0.2 1.6-1.5 2.5-5 3.5-2.7 0.7-4.8 1.8-4.8 2.3 0 1.2-0.5 1.3 5.4-0.5 2.7-0.8 5.1-1.3 5.4-1 1.3 1.3-1.2 3.4-4.7 4-2.7 0.4-4.1 1.2-4.1 2.2 0 1.5 1.4 1.4 7.3-0.3 1.2-0.4 1.7 0 1.7 1.5 0 1.3-0.9 2.1-3 2.6-1.6 0.4-3 1.1-3 1.7s0.6 0.8 1.3 0.5c4.7-1.7 5.7-1.8 5.7-0.3 0 0.9 0.1 1.6 0.3 1.6 0.1 0 3.7-0.7 8-1.5s11.4-1.5 15.8-1.5h7.9v-20.6c0-20.1 0-20.6-2.4-23.7-2.5-3.3-2.7-4.2-5.7-32.7-1.2-12.2-4.1-35.1-7-56.5-1.5-11.4-2.9-17.6-5.9-25.6-3.4-9.4-10.5-24.9-11.3-24.9-0.2 0-0.9 3.9-1.5 8.7z"/>
   <path d="m969.5 554.48c-7.4 6.3-11 30.1-7.5 49.8 0.7 4.3 1.5 7.9 1.7 8.1s0.3-6.9 0.3-15.8c0-15 0.2-16.6 2.5-22.1 1.4-3.3 3.3-6.4 4.3-7 7-4.4 13.5 18.4 10.9 38.3-0.7 4.9-1.5 9.8-1.8 10.8s0.1 0.6 1-0.8c5.1-8.8 6.1-37.8 1.6-50.9-4-11.7-7.8-14.8-13-10.4z"/>
   <path d="m711.5 563.48c0 1 1.1 1.4 3.7 1.4 4.2 0 4.1-0.3-0.4-1.8-2.7-0.9-3.3-0.8-3.3 0.4z"/>
   <path d="m711.9 568.28c-0.3 0.7-0.4 3-0.2 5.1l0.3 3.7 4.2-3.1 4.2-3 3.9 5.5c2.2 3.1 4.2 5.2 4.5 4.7s0.7-3.8 0.8-7.3l0.3-6.5-8.7-0.3c-6.9-0.2-8.9 0-9.3 1.2z"/>
   <path d="m731.1 571.48c-1.6 11.8-1.2 13 7.4 25.1l8.1 11.3h17.3c13.1 0 17.5 0.3 17.9 1.2 0.5 1.6 1.4-9.9 2.3-28.5l0.7-13.7h-53z"/>
   <path d="m969.9 577.08c-1.3 2.5-1.8 6.2-2 14.8-0.3 10.8-0.2 11.1 0.7 4.7 1-7.6 2.4-11 4.2-10.4 1.8 0.5 3.5 8.3 3.7 16.2 0.1 5.3 0.3 6.5 1 4.7 1.6-4 2.2-14.5 1.1-20.9-1.9-11.7-5.4-15.4-8.7-9.1z"/>
   <path d="m790.2 586.48c-0.3 0.4-0.3 5.7 0 11.9 0.6 10.5 0.5 11.3-1.3 11.8-1.6 0.4-1.6 0.5 0.4 0.6 1.3 0.1 2.2-0.5 2.2-1.4 0-1.3 2.7-1.5 17.9-1.5h17.9l10.1-10.9 10.2-11-28.4-0.1c-15.6 0-28.6 0.3-29 0.6z"/>
   <path d="m971.2 589.28c-1.1 2.7-1.7 17.2-0.9 20.6 0.5 2.1 1.5 3.6 2.5 3.8 1.4 0.3 1.7-0.6 1.8-6 0.2-7.7 0-12.3-0.7-16.6-0.5-3.3-1.8-4.2-2.7-1.8z"/>
   <path d="m924.6 613.18c-4.3 37.9-5 42.1-7.3 44-1.2 1-2.4 1.4-2.8 1s-2.4-5.5-4.4-11.2l-3.7-10.5 2-2 2.1-2 1 2.9c0.6 1.7 1.9 4.8 2.9 7l1.9 4-0.5-10.5c-0.3-5.8-0.6-11.1-0.9-11.8-0.2-0.8-2.7 0.6-6.9 3.9-3.6 2.8-6.7 5.4-7 5.9-0.4 0.6 11 33.5 12.1 34.9 0.1 0.1 4.2-3 9-7l8.6-7.3-0.7-11.1c-0.3-6-1-15.1-1.6-20-0.5-5-0.9-11.6-0.9-14.7 0-9.6-1.5-7.3-2.9 4.5z"/>
   <path d="m580.2 614.78c-2.3 0.8-21.6 17.2-22.5 19.1-0.1 0.3 1.1 2.6 2.7 5.1l2.8 4.6 23.4 0.6c12.9 0.4 53.6 0.8 90.4 0.8 36.9 0.1 76.1 0.5 87.2 0.8l20.2 0.6-63.9 80.3c-35.2 44.1-64 80.6-64 81s8.1 2.1 18 3.8l18.1 3.1 2.7-3.2c1.5-1.7 15.3-19.4 30.7-39.3l28-36.2 2.5 3c1.4 1.7 4 4.7 5.8 6.8 10.8 12.1 41.2 56.1 41.2 59.5 0 0.6-22.2 8-22.5 7.5 0-0.2-0.6-1.4-1.2-2.8l-1.1-2.5-1.2 3.3c-0.7 1.9-2 3.4-3.3 3.7-8.3 1.7-14.2 2.4-20.7 2.2-8.3-0.2-13.2 1.5-13.8 4.8-0.6 3.4-1.7 3.7-10.1 3-5.9-0.6-8.1-1.1-8.1-2.2 0-0.7-0.7-1.6-1.5-1.9-0.9-0.4-1.5-1.9-1.5-3.5v-2.9h-15v2.9c0 2.7-0.2 2.8-5.7 3.4-4.5 0.5-10.5-0.3-26.8-3.4-16.4-3.2-21.6-3.9-23.7-3.1s-4.4 0.5-10.8-1.5l-8-2.6-7.7 5.9-7.6 5.8 11.1 5.2c11.9 5.6 23.8 8.4 35.6 8.4 3.8 0 7.2 0.6 9.1 1.7 2.3 1.3 6.3 1.8 16.2 2.1l13.2 0.4 0.9-3.4c0.6-2.6 1.4-3.4 3.6-3.6 3.4-0.4 6.6 2.2 6.6 5.4 0 3 1.1 3.6 5.9 2.8 3.7-0.6 4.1-0.9 4.1-3.6 0-3.4 0.2-3.5 10.8-4.2 7.7-0.5 8.2-0.4 8.2 1.4 0 1.7 0.7 2 5.3 2 7.3 0 16.8-1.9 19.1-3.9 1-0.9 2.2-2.5 2.7-3.6 0.6-1.6 0.8-1.3 0.9 1.5 0.2 10.7 4.9 10.8 5 0.2 0-2.9 0.3-3.3 2.2-3 1.9 0.2 2.4 1.1 3 5.1 0.4 2.7 0.9 5.1 1.2 5.4 1.2 1.2 2.5-1.1 3.1-5.5l0.6-4.9 12.2-1.7c7.1-1.1 13.5-2.6 15.4-3.6l3.2-1.9 6.2 11.5c3.3 6.4 5.9 11.7 5.8 11.8-6.5 5.4-16.8 11.9-19.4 12.3-2.4 0.4-3.5 1.1-3.5 2.3 0 1.4-10.7 11-12.3 11-0.2 0-0.7-1.4-1-3-0.4-1.7-1.1-3-1.7-3-1.4 0-3 4.3-3 7.9 0 2.6-0.5 3-4.7 4-7.4 1.9-22.8 11.1-24.1 14.3-1.6 4.4-12.5 8.8-21.8 8.8h-7.4v3.5c0 3.5-0.1 3.5-12 9.5l-12.1 6.1 2.8 2.2c6.6 5.3 5.5 5.3 15 0.1 7.7-4.3 9.7-4.9 16.3-5.4l7.5-0.5 0.3-3.6c0.3-3.4 0.7-3.7 9.5-8.1 5.1-2.6 10.9-5.2 13-5.9 2-0.7 3.7-1.7 3.7-2.1s0.7-0.8 1.6-0.8c0.8 0 3.6-1.4 6-3.1 2.5-1.7 4.8-2.8 5.2-2.5 0.3 0.4 0.9 4.1 1.3 8.3 0.7 7 2 10.5 3.5 9.1 1.2-1.3 2.4-8.6 2.4-15.9v-7.6l7.1-4.7c3.9-2.6 7.4-4.6 7.9-4.4 3.8 1.5 16.9 10.6 17 11.9 0 1.7-11.6 13.2-22.2 21.9-3.7 3-6.5 6.1-6.3 6.7 0.3 0.7-0.1 1.3-0.8 1.3s-2.3 0.9-3.7 2c-2.2 1.7-2.3 1.9-0.7 2.5 2.9 1.2 1.9 2.7-1.2 2-2.5-0.5-4.4 0.5-14.3 7.8-6.2 4.6-11.9 9.6-12.5 11-0.7 1.4-3.5 4.1-6.3 6l-5 3.4 6.7 0.6 6.7 0.7 9.2-7.1c5.1-3.9 14.3-11.6 20.6-17.3 6.2-5.6 15.8-13.8 21.3-18.3 5.5-4.4 13.5-12 17.7-17l7.6-8.9-3.9-5c-2.1-2.7-3.9-5.3-3.9-5.7 0-0.5 1.4-0.7 3.2-0.5 3.1 0.3 3.4 0.8 7.5 10.8 2.3 5.8 4.2 11 4.3 11.7 0 0.6-2.7 3.3-5.9 6-5.6 4.5-6 5.1-6.1 9.3-0.1 4.3-0.6 5-10.5 15.4l-10.3 10.8-3.7-1.2c-2-0.7-3.8-1-3.9-0.8-0.2 0.1-5.8 7.7-12.6 16.8-17 22.8-49.7 59.7-67.3 76-8 7.4-14.6 13.8-14.6 14.2-0.1 0.4 1 1 2.4 1.4 3.1 0.8 3.1 0.8 0 7.8-1.7 3.8-3 5.6-4.3 5.6-3 0-5.6 2.6-5.7 5.6-0.1 2.1-0.8 3-2.6 3.4-1.6 0.4-5.8 5.4-13.6 16.4-6.2 8.6-11.3 16.1-11.3 16.5 0 0.7 7.1 4.4 7.5 3.9 0.1-0.2 2.5-3.7 5.2-7.8 8.1-12 20.1-25.9 23.9-27.5 2.7-1.1 3.4-2 3.4-4.1 0-3 1.4-4.8 24.2-30.6 8.2-9.2 14.8-17.2 14.8-17.8 0-0.5-0.9-1-2.1-1s-1.7-0.4-1.3-1.1c0.3-0.6 1.6-0.8 2.7-0.5 1.4 0.3 3.4-0.6 6.4-3 2.4-1.9 4.3-3.9 4.3-4.4s-1.2-1.1-2.7-1.3c-2.5-0.4-2.5-0.4 0.5-0.6 4.1-0.1 2.5 1.7 27-30.6 17.9-23.7 21.5-27.8 40-45.9 11.1-11 20.4-19.7 20.6-19.5 0.5 0.5 10.6 31.8 10.6 32.8 0 0.5-1.2 1.1-2.7 1.4-2 0.4-3.5 1.9-5.2 5-2.2 4-2.9 4.5-6.9 5.1-7.7 1-8.4 0.9-7.2-1.5 0.7-1.1 1-2.3 0.7-2.5-0.2-0.2-2.8 0.1-5.9 0.7-4.4 0.9-5.8 1.7-7.2 4-1.8 3-5.3 4.2-4.2 1.4 0.3-0.8 0.9-2.2 1.3-3.1 0.5-1.3 0.2-1.5-1.8-0.9-1.3 0.4-2.4 0.8-2.5 0.9-0.1 0-1.7 4.3-3.7 9.4-3 7.7-3.3 9.2-1.9 8.8 0.9-0.3 10.5-2.7 21.2-5.5 10.7-2.7 21.7-5.7 24.5-6.5 2.7-0.9 5.3-1.2 5.7-0.8 1.5 1.6 9.2 35.6 13.2 58.2 3.6 20.5 7.3 50.6 8.5 70.5 0.6 9.3 1.3 20.4 1.6 24.7l0.5 7.6-3.7 0.6c-2.1 0.3-10.1 0.8-17.8 1.1s-16.5 0.8-19.6 1.1l-5.7 0.6 1.7 4 1.6 4 16.5-0.6c9.1-0.4 18.9-0.9 21.9-1.3l5.4-0.6-0.6 27c-0.4 14.8-0.9 28.3-1.3 29.9-0.5 2.6-1.5 3.3-8.8 6.2-9.3 3.6-10.2 3.8-11 1.7-0.8-2.3-3.5-1.8-4.6 0.9-0.8 2.2-1.2 2.3-5.2 1.5-2.4-0.4-6-0.8-8.1-0.9-3.1 0-3.9 0.4-4.7 2.5-0.6 1.7-1.7 2.5-3.3 2.5-1.3 0-4.5 0.3-7.1 0.6-3.8 0.6-4.6 0.4-4.6-1 0-1.3-1.1-1.6-5.4-1.6-4.9 0-5.5 0.2-5.8 2.2s-1.1 2.4-6.3 3c-21 2.4-27.6 3.2-41 4.9-8.2 1-15.2 1.9-15.5 1.9-0.8 0 0.1 13.4 0.9 14.3 0.7 0.7 4 0.1 16.8-2.8 1.2-0.3 2.3-1.4 2.5-2.7 0.5-3.2 2.8-3.5 2.8-0.4 0 2.4 0.3 2.6 2.8 2 3.9-1 4.2-1.2 4.2-4 0-2 0.4-2.5 2.2-2.2 1.3 0.2 2.5 1.2 2.8 2.4 0.4 1.8 0.9 2 2.8 1.3 1.2-0.5 2.2-1.5 2.2-2.4 0-0.8 0.6-1.5 1.4-1.5s2.1-0.3 3-0.6c1.1-0.4 1.7 0.2 2.2 2.1 0.9 3.7 4.8 3.1 5.2-0.8 0.3-2.4 0.8-2.7 3.8-2.7 3.1 0 3.4 0.3 3.4 2.8v2.8l15.3-2.9c22.8-4.4 22.5-4.3 22.9-7.5 0.3-2.3 0.8-2.7 4.1-3l3.7-0.3v10.6c0 11.4 1.3 18.7 3.7 20.7 3.2 2.6 4.6-2.3 6.2-21l0.6-7.5 6.9-2.4c3.8-1.2 7.1-2.1 7.4-1.8 1.3 1.2-4.8 45.2-9.9 71.5-36.8 189.7-148.9 334-287.4 369.9-15.4 4.1-44.5 8.7-44.5 7.2 0-0.4 1.4-2 3-3.6 2-1.9 3.7-5.2 5-9.4 1-3.6 1.8-6.6 1.7-6.7-0.1-0.2-5.2 2.6-11.2 6.2-6.1 3.5-12.6 6.9-14.5 7.3-1.9 0.5-11.6 1.4-21.5 2-17.9 1-18.1 0.9-33.5-2-8.5-1.7-16.3-3.2-17.2-3.5-1.6-0.5-1.8 0.3-1.8 7.8v8.4l4.3 2.4c2.3 1.3 4.4 2.5 4.6 2.7 0.3 0.2-1 1.8-2.8 3.7-2.4 2.5-2.9 3.5-1.8 3.9 0.8 0.3 7.7 0.8 15.3 1.2s16.2 1.4 18.9 2.2c2.8 0.8 10.9 1.8 18 2.1 12.7 0.7 13.1 0.8 17 3.9l4 3.2 6.2-1.6c5.2-1.3 6.6-2.1 8.2-4.8 1.5-2.6 1.7-4.1 1-7.6-0.4-2.4-0.8-4.7-0.9-5.1 0-0.4 2.6-0.9 5.8-1.3 51.3-5.7 102.8-26.7 148-60.1 53.1-39.4 98.5-95.2 132.3-162.6 38.5-76.9 60.5-160.9 67-256.2 1.5-22.5 0.6-89.7-1.5-110.6-3.7-36.1-9.9-72.9-17.2-102.3-1.9-7.6-3.4-14.4-3.4-15.1 0-0.9 7.7-3.4 21.3-7 15-4 26.6-7.9 39.7-13.3 10.2-4.2 19-8 19.5-8.5 0.6-0.5 1.9-4.6 3.1-9.1l2.1-8.2-3-6.1-3-6.2-9.1 3.3c-5 1.8-21.9 8.5-37.5 14.9s-29 11.6-29.7 11.6c-4.4 0 0.5-2.9 43.1-25.3 12.9-6.8 24.2-13.5 29.2-17.4 4.6-3.6 8.5-6.8 8.8-7.3 0.3-0.4-0.2-4.3-1.1-8.6-1.4-6.7-2.3-8.6-6.5-13.6-2.7-3.2-5-5.9-5.3-6.1-0.2-0.1-5.3 3.9-11.2 9-22.6 19-71.9 58.2-72.5 57.5-0.4-0.4-2.3-5.4-4.4-11-3.6-10.3-3.7-10.4-1.7-12.5 1-1.2 10.8-12.3 21.6-24.7 21.2-24.2 32.6-35.2 32.6-31.5 0 0.7-17.5 26-34.7 50.1-7.9 11.1-14.3 20.3-14.3 20.6 0 0.2 16-15.7 35.6-35.3l35.6-35.7 7.6-1.1c4.2-0.6 7.6-1.2 7.7-1.4 0.5-0.7 3.9-25.6 3.9-27.7-0.1-1.4-0.7-4.4-1.3-6.7-1-3.8-1.7-4.4-7.7-7.2-3.7-1.7-7.2-3.1-7.9-3.1-1.6 0-18.7 18.1-41.2 43.7-13.4 15.3-19.8 21.6-31.6 31.3-8.2 6.7-15 12.1-15.1 11.9-1-1.2-3.6-7-3.6-8.1 0-0.7 8.8-10.5 19.6-21.8 17-17.8 37.7-40.2 66.6-72.1l7.7-8.5-3-11.5c-3-11.2-3.2-11.5-9.7-18.7l-6.7-7.3-8 7.4c-11.7 10.7-48 38.8-60.7 47-10.1 6.5-36.6 19.8-39.2 19.6-1.1 0-17.1-24.7-16.5-25.3 0.2-0.2 15.6-10.3 34.1-22.6 32.1-21.1 33.7-22.3 33.2-24.8-0.4-2.3 0.1-3.1 4-5.5 2.5-1.6 4.6-3.1 4.6-3.4 0-0.5-0.5-0.2-6.3 3.4l-3.7 2.3-1-2.5c-0.6-1.5-1-3.2-1-4 0-0.7 4.7-4.1 10.5-7.5s10.5-6.4 10.5-6.6c0-0.7-3.5 1-12.9 6-5.2 2.7-9.6 4.6-9.8 4-0.2-0.5-1.1-2.6-2.1-4.6l-1.7-3.7-15 8.8c-8.2 4.8-17.6 10.2-20.7 12l-5.8 3.2v-3.8c0-3.4 0.5-4 3.8-5.9 2-1.1 13.4-7.3 25.2-13.8s21.9-12.2 22.5-12.7c0.5-0.6-7.1 2.7-17 7.2-25.2 11.4-33.2 14.9-33.9 14.9-0.3 0-0.6-2.8-0.6-6.3v-6.2l12.5-6.5c6.8-3.5 12.3-6.6 12.1-6.7-0.1-0.2-5.6 1.5-12.1 3.7s-12 3.8-12.2 3.6-0.7-4.4-1-9.4l-0.6-9.1-21.4 29.7c-11.8 16.3-21.8 29.8-22.3 30-0.4 0.2-1.9-1.1-3.4-2.9l-2.7-3.1 2.8-3.7c1.5-2 20.9-26.9 43.1-55.5 22.2-28.5 40.1-52 39.9-52.2-0.9-1-264.3-1.4-267-0.5zm328.9 147.2c-2.4 4.2-17.7 19.3-57.3 56.7-9.4 8.9-17.5 16.2-18 16.2s-3.2-4.7-6.1-10.5c-3.2-6.5-4.7-10.5-3.9-10.5 0.7 0 2.1 1.4 3.1 3l1.8 3.1 3.6-2.3c14.7-8.8 50.6-37 63.9-50.1 8.3-8.2 14.3-12.5 15.1-10.7 0.1 0.4-0.9 2.6-2.2 5.1zm-192.6 58.4v5.5h-11v-11h11zm-42.7 0.4c13.5 2.6 17.6 4.7 8.7 4.5-6.2-0.1-16.2-2.3-15.5-3.5 0.7-1-0.6-1.2-9.2-1.3-6.4-0.1-8.8-1.1-6.3-2.6 1.6-1 1.6-1 22.3 2.9zm76.3 0.6c-2.2 1.7-3.6 1.9-3.6 0.7 0-1.4 1.2-2.2 3.4-2.2 2.1 0.1 2.1 0.1 0.2 1.5zm19.1 11.7c-0.2 1.8-0.4 0.6-0.4-2.7s0.2-4.8 0.4-3.3 0.2 4.2 0 6zm10.2-2c-0.1 4.1-0.1 4.2-1.1 1.5-0.5-1.5-0.7-3.4-0.4-4.2 1-2.7 1.6-1.6 1.5 2.7zm7.9 38.4c-0.6 3.2-2.5 2.6-2-0.6 0.3-2.1 0.8-2.8 1.4-2.2s0.8 1.8 0.6 2.8zm0.7 22.1c-0.8 9.8-1.6 12.3-2.6 7.8-1.1-5.2-1-14 0.3-15.3 2.5-2.5 3-1 2.3 7.5zm-46.5 13.8v6.5h-15v-5.8c0-3.2 0.3-6.2 0.7-6.5 0.3-0.4 3.7-0.7 7.5-0.7h6.8zm-5.8 118.7c-3.2 5-10.8 12.1-12.2 11.3-0.8-0.5 1.2-3.2 6.1-8.1 4-4 7.5-7.2 7.7-6.9 0.2 0.2-0.5 1.9-1.6 3.7zm-22.8 32.7c2.3 2.6 1.3 5.9-2.1 6.7-3.3 0.9-5.7-0.6-6.1-3.6-0.7-4.5 5.1-6.6 8.2-3.1zm153.6 132.7c0 0.8-0.7 1.4-1.5 1.4-1.7 0-1.8-0.2-0.9-2.4 0.7-1.8 2.4-1.2 2.4 1zm-39 7.9v4.5h-4c-4 0-4 0-4-3.8 0-4.7 0.4-5.2 4.7-5.2 3.3 0 3.3 0.1 3.3 4.5zm40.9 12.7c-0.1 8.8-1.7 17-3.4 16.9-1.5-0.2-2.4-4.5-3.1-14.1-0.7-8.3-0.6-8.6 1.7-9.7 4.6-2.2 4.9-1.8 4.8 6.9z"/>
   <path d="m9.5 615.48c0 0.4 79 95.6 211.8 255.1l24.3 29.3 3-2.3c4.5-3.2 20.1-21.6 19.7-23.1-0.2-0.8-10.1-13-22-27.2-11.9-14.3-52.1-62.4-89.4-106.9-37.2-44.6-70.7-84.6-74.4-89-3.8-4.4-6.7-8.1-6.5-8.3s67.3 0.2 149.1 0.8l148.7 1.1 4.1-3.9c2.3-2.2 12.2-8.6 22-14.3l17.9-10.4-13.9-0.6c-17.4-0.8-394.4-1.1-394.4-0.3z"/>
   <path d="m397.5 680.28c-5.4 1.2-20 7.4-20 8.5 0 0.3 2.7 3.3 6.1 6.7l6.1 6.1 7.6-2.5c5-1.6 10.9-2.7 16.8-3l9.1-0.4 0.6-6.7c0.8-9.4-0.1-10.1-11.7-10-5 0-11.6 0.6-14.6 1.3z"/>
   <path d="m424.9 687.88c-0.1 4.4-0.1 8 0.1 8 0.1 0 5.5 0.9 12 2 6.5 1.2 11.9 2 12 1.8 0.8-0.9 1.4-9.5 0.7-10.4-1.6-2.3-8.2-5.4-15.9-7.3-4.5-1.2-8.3-2.1-8.5-2.1-0.1 0-0.4 3.6-0.4 8z"/>
   <path d="m451.1 693.58c-1.1 6.8-0.9 7.1 4.4 8.7 2.7 0.8 7 2.9 9.5 4.6s4.5 2.7 4.5 2.2c0-2.7-14.9-19.2-17.3-19.2-0.3 0-0.7 1.7-1.1 3.7z"/>
   <path d="m361.8 698.68c-11.8 8.3-16.9 13.2-14.3 14 1.6 0.6 9.8 8.1 8.8 8.2-0.3 0-2.5-1.6-4.8-3.5s-4.7-3.5-5.3-3.5c-1.4 0-6.3 13.5-7.2 20l-0.7 4.5 3.1-3.7c7-8.3 37.4-29.8 44.2-31.3 1.6-0.4 2.9-1 2.9-1.4 0-1.5-11.9-11.1-13.7-11.1-1 0-6.8 3.5-13 7.8z"/>
   <path d="m414 703.88c-5.5 0.4-11.3 1.2-13 1.9l-3 1.3 5.2 2.6c5.1 2.5 5.2 2.6 7.2 10.2 1.2 4.2 2.1 8.2 2.1 8.8 0 0.8 2.7 1.2 9 1.2h8.9l-0.4-4.8c-0.3-2.6-0.6-7.2-0.9-10.3-0.4-5.5-2.9-12.1-4.4-11.7-0.4 0.1-5.2 0.4-10.7 0.8z"/>
   <path d="m429.3 706.58c1.9 2.7 2.2 4.4 2.2 13.1v10l8.3 1.2c4.5 0.6 10.7 1.8 13.7 2.6 3 0.7 5.5 1.2 5.6 1.1 0.9-1.1 7.4-17.8 7.6-19.6 0.3-1.9-0.6-2.8-5.2-5.1-3-1.6-7-3.1-8.8-3.4-2.9-0.5-3.1-0.4-2.3 1.2 0.6 1.2 0.5 5.6-0.4 12.8l-1.4 10.9 0.6-11.6c0.6-12.8-0.2-14.9-5.5-14.9-1.5 0-5.8-0.3-9.6-0.7l-7-0.6z"/>
   <path d="m388.5 710.28c-11.7 5-16.6 7.4-17.9 9-1.2 1.5-0.4 1.6 8.6 1.6h9.9l5.3 5.5c4.7 4.8 5.5 5.3 7.7 4.5 1.4-0.6 4.1-1 6-1s3.4-0.3 3.4-0.6c0-0.4-0.9-3.7-2-7.4-1.9-6.3-2.4-7-7.5-10.4-3-2-6-3.6-6.7-3.6s-3.8 1.1-6.8 2.4z"/>
   <path d="m468.5 716.18c0 0.9-1.8 5.3-4 9.7-4.3 8.6-4.7 10-2.7 10 0.7 0 2.1 1.6 3 3.5l1.7 3.5 3.5-1.5c2-0.8 5.9-1.7 8.6-2.1 3-0.4 5.3-1.3 5.6-2.1 0.6-1.5-6.3-12.3-12.1-18.8-2.6-2.9-3.5-3.5-3.6-2.2z"/>
   <path d="m359.5 727.38c-7 5.2-11.1 9.5-9.2 9.5 0.5 0 3.1-0.7 5.8-1.5 8.9-2.7 18.2-1.6 21.1 2.5 1.3 1.8 1.5 1.8 7.7-0.9 3.4-1.6 7.7-3.2 9.4-3.6 1.8-0.3 3.2-1 3.2-1.4s-2.2-2.8-4.8-5.4l-4.8-4.7h-21z"/>
   <path d="m540 726.48c-14 4.9-26 8-40.5 10.4-6.9 1.2-14.1 2.9-16 3.7s-10.7 3.9-19.4 6.9c-15.8 5.3-24.3 9.8-32.5 16.9-1.9 1.7-3.6 2.5-3.8 1.9-1-3-3.1-4.3-7.3-4.6l-4.5-0.3-0.7 5.5c-0.3 3-0.6 7.3-0.7 9.6l-0.1 4 5.8 1.8c3.1 1 6.3 2.3 7 2.9 1 0.8 1.9 0.4 3.6-1.8 1.3-1.7 2.8-2.5 3.4-2.1 2.6 1.6 5-0.4 5.6-4.7 0.4-2.3 1-4.7 1.4-5.2 1.9-2.8 14.5-11.6 19.7-14 10.2-4.5 33.6-10.5 50.8-13 3.1-0.5 6.3-1.9 9.3-4.2 2.5-1.9 9.8-6.1 16.2-9.3 18.1-9.1 18.6-9.9 2.7-4.4z"/>
   <path d="m540.5 744.98c-20.9 19-25.1 23.3-22.5 22.6 14.4-4 12.3-2.3 25.8-19.5 11.9-15.2 14.2-18.2 13.5-18.2-0.2 0-7.7 6.8-16.8 15.1z"/>
   <path d="m1013 737.48c-12.2 2.4-12.5 2.5-12.5 4.6 0 1.5-0.4 1.8-1.7 1.3-5.3-2.1-5.9-1.9-2.9 1.4 2.9 3.1 3 3.2 1.7 8.2-0.7 2.7-1.1 5.2-0.9 5.4s3.3 0 6.8-0.6c3.6-0.5 11.3-0.9 17.1-0.9h10.6l0.6-9.2c0.3-5 0.4-9.5 0.1-10-0.5-0.8-15-0.9-18.9-0.2z"/>
   <path d="m332.5 742.38c-1.9 2-6.8 5.5-10.9 7.7l-7.3 4.1 0.6 6.6c0.3 3.6 0.9 10.5 1.2 15.3 0.4 4.9 1 8.8 1.3 8.8s2.6-5.1 5.1-11.3l4.5-11.2 6 0.3c5.9 0.4 6 0.4 12.1 6.8 3.4 3.5 6.8 6.4 7.6 6.4 1.7 0 17.2 1.8 21.4 2.5l3.1 0.5 0.6 11.5c0.3 7.4 0.1 12.8-0.6 15.2-2.1 6.9-14.6 18.8-29.4 28.2l-13.3 8.3-5.4-2.2c-3.9-1.5-5.7-2.9-6.5-4.8-0.5-1.5-1.5-10.7-2.2-20.5-0.7-9.7-1.6-17.4-2-17-0.3 0.5-3.9 9.3-7.9 19.6-4 10.4-9.3 22.5-11.8 27l-4.5 8 1.3 11.1c0.7 6.1 1.6 11.8 2 12.6 0.5 0.8 4.7 4.1 9.4 7.4l8.5 5.9 10.3-6.6c9.5-6 10.9-6.6 17.3-7.1 14.3-1.3 13.1-0.5 14.5-9.8 0.6-4.5 1.9-9.6 2.7-11.2l1.6-3 2.7 6.9c1.5 3.9 3.2 7 3.8 7s3.7-3.4 7-7.6c3.3-4.1 9.9-10.7 14.8-14.6 12.6-10.1 13.1-10.7 11.5-14.6-2.8-6.7-3.5-10.6-2.6-13.1 0.6-1.4 5.2-7.1 10.3-12.6 5.2-5.5 8.9-10 8.3-10s-5.4 1.2-10.7 2.6-9.9 2.2-10.2 1.9c-0.4-0.3-1.3-6.1-2.2-12.8-1.5-11.9-1.5-12.1-4.7-14-2.5-1.4-6.4-2-17.6-2.6-7.9-0.4-14.8-1.1-15.4-1.4-0.6-0.4-3.2-4.3-5.9-8.8-2.6-4.4-5.2-8.2-5.8-8.4-6.4-1.5-7-2.1-8.1-6.3l-1-4.3z"/>
   <path d="m356.4 739.78c-3.8 0.9-10.1 6.5-9.4 8.3 0.6 1.6 4.6 2.8 9.1 2.8 1.5 0 3.7 1.7 6.6 5 2.4 2.7 4.6 5 4.9 5 1 0 4.9-14.2 4.9-17.6 0-2.4-0.5-3.3-2.2-3.8-2.8-0.7-10.4-0.6-13.9 0.3z"/>
   <path d="m575.5 755.28c-17.6 12.2-20.8 14.9-22.8 18.7-2.6 5.1-1.8 5.8 4.1 3.5 3-1.2 9.6-6.8 22.2-19.1 9.9-9.6 17.8-17.4 17.5-17.4s-9.7 6.4-21 14.3z"/>
   <path d="m549 757.88c-13.4 9.9-57.3 48.2-57.4 50.3-0.1 0.5 1.4 0 3.2-1.1 1.7-1.1 8.6-4.9 15.2-8.5 10.1-5.5 13.3-7.9 19.5-14.4 4.1-4.3 12.8-13.4 19.5-20.3 12.1-12.6 16.2-17 15.4-17-0.2 0.1-7.1 5-15.4 11z"/>
   <path d="m494.7 758.68c-13.2 7-18.4 10.3-18.8 11.8-0.4 1.6-3 3.1-9.9 5.9-7.2 2.9-10.9 5.2-15.8 9.6l-6.4 5.8-2.3-2.4c-3.3-3.5-7.6-3.3-12.9 0.7l-4.2 3.3 2.8 0.9c1.5 0.4 4.8 2.5 7.3 4.6l4.6 3.8 9.8-8.7 9.7-8.6 12-3.5c11.1-3.2 11.9-3.6 11.9-6 0-1.4 0.4-3 0.8-3.5 0.4-0.6 7.5-6 15.7-11.9 17.5-12.7 16.1-11.6 14.9-11.6-0.5 0-9.1 4.4-19.2 9.8z"/>
   <path d="m1009.3 763.18c-4 1.1-4.6 2.4-2.7 5.9 1 1.9 0.9 2-2.5 1.6-3-0.3-4.1 0.1-6.6 2.7l-3 3.1 20.6 19.2 11.6-14.2c6.4-7.7 11.5-14.2 11.4-14.3-0.3-0.3-24-5.3-24.6-5.2-0.3 0.1-2.2 0.6-4.2 1.2z"/>
   <path d="m596.2 768.28c-6.5 4.5-8.7 5.4-13.7 5.9-5.8 0.6-6.7 1.2-26.1 15.3-11.1 8-20.3 14.3-20.5 14.1-0.4-0.4 5.4-5.4 16.5-14.4 0.9-0.7-6.3-7.3-7.5-6.9-0.6 0.2-12.4 8.8-26.2 19-22.4 16.5-25.6 18.6-30 19.2l-4.8 0.6-3.6-9.2 2.6-3.1c1.4-1.7 7.9-8.7 14.4-15.5 6.4-6.9 11.8-12.8 12-13.3 0.3-0.9-9.2-5.1-11.5-5.1-1.4 0-30.8 16.4-33.1 18.5-0.7 0.6-4.8 10.3-9.2 21.6l-8 20.4 4.1 8.2c4.2 8.4 4.7 9 6.5 7.4 2.7-2.7 13.7-5.1 23.1-5.1 12.5 0 21.5 2.6 27.8 8.2 7.6 6.7 8.1 13.5 1.3 20.5-1.7 1.8-3 3.4-2.7 3.7 0.2 0.2 8.9 4 19.2 8.5l18.9 8.1 17.5-15.7c9.7-8.7 19.5-17.5 21.7-19.5l4.1-3.7-3.1-0.1c-1.7 0-3.8-0.8-4.7-1.8-1.6-1.7-1.5-2.1 1.3-6.6 1.7-2.5 3-4.9 3-5.1 0-0.3-1.2-0.5-2.6-0.5-1.7 0-6.2 2.8-13 8-5.8 4.4-10.7 8-10.9 8-2.1 0 3.5-4.9 31.4-27.6 17.6-14.2 32-26.4 32-27 0.1-0.5-1.3-2-2.9-3.3l-3.1-2.2-24.8 17.5c-13.7 9.7-25.7 17.9-26.8 18.3-1.9 0.7 5.8-8.6 12.1-14.6 2-1.9 3.6-3.8 3.6-4.1 0-0.4-1.6-1.4-3.5-2.3l-3.5-1.7-20.5 14.5c-11.3 8-20.9 14.5-21.3 14.5s-2-2.4-3.4-5.4l-2.7-5.4 39-32.2c34-28.2 41.1-34.2 39.7-33.9-0.2 0-3.8 2.4-8.1 5.3z"/>
   <path d="m578.1 795.98c-43.4 33.5-44 34-17.7 16l15.4-10.5 8.8 3.2 18.4-15c10.2-8.2 18.5-15.4 18.5-15.9 0-0.7-7.3-5-8.2-4.8-0.2 0-16 12.1-35.2 27z"/>
   <path d="m1021.3 795.58-17.7 22.6 3.2 3c2.9 2.8 4 3.1 11.4 3.5 10.2 0.6 21.3-0.5 21.3-2.1 0-0.7-3.8-3.5-8.4-6.2-4.6-2.8-8.2-5.2-8-5.5 0.3-0.2 2.6-0.7 5.2-1 4.6-0.5 4.7-0.6 8.4-7.5 3.2-6.1 3.7-7.9 3.7-13.5-0.1-3.6-0.4-8.6-0.7-11.3l-0.7-4.7z"/>
   <path d="m335.6 778.38c-1.1 1.4-2.2 3.9-2.6 5.4-0.5 2.5-1.2 3-5.3 3.6-8.2 1.1-9.2 1.6-9.2 3.9 0 1.6 1.3 2.7 5.3 4.6l5.2 2.5 0.5 6.8c0.3 3.7 0.9 6.8 1.4 6.8s2.1-2.4 3.5-5.5l2.6-5.5 8.4 5.5c5.4 3.6 8.7 5.2 9.3 4.6 0.7-0.7 0.4-3.1-0.6-6.9-2.7-9.4-3.7-11.3-6.8-12.9l-3-1.6 2.8-2.9c2.4-2.5 2.6-3.2 1.6-5.4-1.1-2.5-6.4-5.5-9.6-5.5-0.8 0-2.4 1.1-3.5 2.5zm8.5 4c0.4 0.9-0.8 3-2.8 5.3-1.8 2-4.4 5.4-5.6 7.4-1.3 2.1-2.6 3.8-2.9 3.8-0.9 0 0.9-8.5 2.9-13.3 1.8-4.1 2.4-4.7 5-4.7 1.6 0 3.1 0.6 3.4 1.5z"/>
   <path d="m997.5 785.88c0 1.4 0.5 8.9 1.2 16.7 0.8 10.2 1.5 14 2.3 13.3 0.6-0.5 3.2-4.1 5.9-8l4.8-7-4-5.3c-2.3-2.8-5.5-6.8-7.1-8.7-3-3.4-3-3.5-3.1-1z"/>
   <path d="m442.1 807.48c-2.1 0.7-7.6 4.8-12.1 8.9l-8.3 7.5-2.5 10.8-2.5 10.7 11.6 25.6 11.7 25.7 10.6 4.1c5.8 2.2 11 4.1 11.5 4.1s5.2-2.8 10.4-6.2l9.5-6.1-12.5-3.2-12.4-3.1-10.8-21-10.7-21 5.9-18.2c3.3-9.9 6-18.6 6-19.2 0-1.3-0.6-1.2-5.4 0.6z"/>
   <path d="m1035.5 827.08c-2.5 0.5-9.6 0.7-15.8 0.5l-11.3-0.3 0.5 2.5c0.3 1.4 0.8 6.9 1.2 12.1 1 14.1 1 14.1 7.3 7.6 2.8-3.1 5.5-5.6 5.8-5.6s3.1 2.8 6.2 6.1l5.5 6.2 1.3-3c0.8-2.1 2.1-3.2 4.1-3.6 3.3-0.7 4.2-3.2 4.2-11.8 0-4.4-2.6-12.1-3.9-11.8-0.3 0.1-2.6 0.5-5.1 1.1z"/>
   <path d="m397.5 844.48-8.5 6.6-0.6 12.1c-0.4 6.7-0.6 12.3-0.5 12.4s4.3-3.2 9.4-7.5l9.2-7.7v-11.2c0-6.2-0.1-11.3-0.2-11.3-0.2 0-4.1 3-8.8 6.6z"/>
   <path d="m616.4 859.18c-8.6 10.5-24 29.5-34.3 42.1-16.3 20-18.5 23.1-17.3 24.5 0.8 0.9 5.3 6.7 10.1 12.9l8.8 11.2 23.8-28.7c13.1-15.9 32.2-38.9 42.4-51.2 10.2-12.4 18.4-22.6 18.3-22.8-0.2-0.2-36.2-7.4-36.2-7.3 0 0-7 8.7-15.6 19.3z"/>
   <path d="m474.5 847.58c-4.5 0.5-15.8 4.2-16.5 5.3-0.3 0.5 1.1 3.6 3.2 7 2.7 4.2 4.2 5.8 5.3 5.4 0.8-0.3 7.1-0.8 14-1.1 11.2-0.5 24.3 0.5 30.8 2.3 4.8 1.3 1.7-7.6-4.1-12-6.6-5.1-21.8-8.3-32.7-6.9z"/>
   <path d="m1021 852.88c-2.3 4.5-1.9 5 3.5 5 2.8 0 5-0.3 5-0.8-0.1-0.8-5.7-7.2-6.5-7.2-0.2 0-1.1 1.3-2 3z"/>
   <path d="m289.2 861.18c-1.5 2.9-3.8 7.2-5.2 9.7l-2.5 4.5 6.5 0.9c3.6 0.5 6.8 0.6 7 0.4 0.6-0.5-2-19.6-2.7-20.3-0.2-0.2-1.6 1.9-3.1 4.8z"/>
   <path d="m1006.1 862.68c-0.2 0.4-2.9 7.3-5.9 15.2-3 8-9.4 22.5-14.1 32.3-4.7 9.9-8.9 18.9-9.2 20.2s-0.1 5.7 0.6 9.9c1.1 7.2 1 7.8-1.9 16.3-3.4 10.2-6.1 20.3-5.4 20.3 0.3 0 2.2-1.4 4.3-3 3.2-2.5 4.6-4.9 8-13.8 2.3-5.9 5.1-15.2 6.2-20.7 1.4-6.9 2.8-10.9 4.4-12.8l2.3-2.7 1.9 4.4c1.1 2.4 3.7 6.2 5.7 8.5 2.3 2.5 3.2 4.1 2.3 4.1-1 0-2.7 4.7-5.8 16.2-2.4 9-6.6 21.7-9.3 28.3-4.4 10.6-15.5 31.7-22.4 42.8-1.4 2.2-2.3 4-2.1 4.2s3.4-2.2 7.1-5.3c7.1-6.1 29.6-35.4 37.6-49.1 2.3-3.9 4.4-7.1 4.6-7.1 0.7 0-9.7 26.7-14.4 37.1-1.2 2.8-4.3 6.5-8 9.7-7.5 6.5-16.1 18.5-16.1 22.4 0 1.5 0.2 2.8 0.5 2.8s5.1-3.4 10.7-7.5c15.1-11.1 26-25.9 34.3-46.5 3.6-8.8 6.5-14.3 5.2-9.5-0.4 1.1-1.4 5.4-2.3 9.5-4.3 19.7-5.2 21.8-15.5 37.3-5.5 8.2-9.9 15.2-9.9 15.5 0 0.4 5.4-4.7 12-11.3l12-12 5.1-13c2.8-7.1 6.1-17.8 7.5-23.7 1.3-5.9 3.6-14.5 5-19 2.6-8.3 2.7-8.3 1.5-24.3-2.5-36.9-2.6-34.2 0.7-46.1 2.4-8.8 2.8-11.9 2.3-16.1-0.8-5.8-1.4-6.8-3.4-6-0.9 0.3-1.8 3.7-2.6 9.5-1 7.1-1.6 9-2.7 8.5-1.7-0.6-1.7-1.3 0.5-14.3 1-5.8 1.7-10.7 1.5-10.8-0.1-0.2-4.2 0.7-8.9 2.1l-8.7 2.5-7-2.9c-8-3.3-7.5-3.2-8.2-2.1zm31.2 30.4c0.2 1.5-2 7.7-5.3 14.9l-5.6 12.4 0.6-11c0.9-15.9 1-16.2 4.5-15.7 2.6 0.4 3 0.1 3-1.8 0-3 2.4-2 2.8 1.2zm-10.8 4c-0.1 10.8-2 27.9-3.4 30.5s-1.5 1.5-1.6-16v-18.7h2.5c2.3 0 2.5 0.4 2.5 4.2zm-6.2 18.4c-0.5 17.1-0.5 17.1-3.4 20.8-5.1 6.4-5.4 5.5-5.4-15.2v-18.8l6-5.8 0.2 11 0.2 10.9 0.3-10.5c0.2-5.8 0.6-11.2 1-12 1.2-3 1.6 2.4 1.1 19.6zm-11 3.6-0.1 14.3-1-12.7c-0.9-11.6-0.7-15.8 0.8-15.8 0.3 0 0.4 6.4 0.3 14.2zm-2.8 4-0.1 13.3-2.9-3.4c-1.6-1.9-3.6-5.3-4.3-7.6-1.4-4.1-1.4-4.3 2-9.8 1.9-3.2 3.9-5.7 4.4-5.7s0.9 5.8 0.9 13.2z"/>
   <path d="m469.3 866.58c-3.2 0.5-3.4 1.1-1.4 3.9 1.3 1.7 2.7 1.9 17.8 1.9 15.9-0.1 28-1.7 26.1-3.6-2.3-2.3-31.9-3.8-42.5-2.2z"/>
   <path d="m399.3 880.58c-6.4 6.5-13.2 13.6-15.1 15.8-1.8 2.2-7.8 13.4-13.2 25-5.4 11.5-10.2 21.4-10.6 21.8-1 1.3-7.4-9.9-9.5-16.6-1-3.1-2-5.7-2.3-5.7s-3.4 4.9-6.9 10.7c-6.3 10.6-6.3 10.8-5.3 15 0.6 2.4 5.1 10.4 9.9 17.8l8.7 13.5h7.5c6.1 0 26.8-2.9 39.2-5.6 2.3-0.4 3.1-1.7 5.7-8.6 1.7-4.4 3.1-8.2 3.1-8.4s-6-0.4-13.4-0.4-13.7-0.3-13.9-0.8c-0.3-0.4 1.7-6.2 4.3-13l4.8-12.2h-2.4c-1.3 0-2.4-0.2-2.4-0.3 0-0.2 0.9-3 2-6.1 1.9-5.7 3.7-7.9 23.7-30 3.5-3.8 6.3-7.4 6.3-8 0-1.8-6.8-15.6-7.7-15.6-0.5 0-6.1 5.3-12.5 11.7z"/>
   <path d="m173.5 871.08c0 0.4 1.1 3.6 2.4 7 1.8 5 2.6 9.9 3.5 23.4 0.6 9.3 0.9 19.5 0.7 22.5-0.3 2.9-0.8 8.7-1.1 12.6l-0.5 7.3h3.8c5.6 0 10.5 4.1 13.3 11 1.2 3 3 6.4 3.9 7.5 1 1.1 2.1 3.3 2.6 5 0.7 2.3 1 0.4 1.2-7.7 0.2-9.8 0-11.5-3.4-22.5-4.3-13.9-3.6-11.2-7.4-29.1-2.4-11.4-3.9-15.7-7.1-21.5-3.7-6.6-11.8-17.2-11.9-15.5z"/>
   <path d="m506 873.08c-1.6 0.5-10.3 0.9-19.2 1-9 0-16.3 0.3-16.3 0.7 0 0.3 1 1.8 2.3 3.4l2.2 2.7 13.9-2.4c7.6-1.4 14.3-2.3 15-2 1.2 0.4 6.4-3.2 5.6-3.9-0.3-0.2-1.8 0-3.5 0.5z"/>
   <path d="m366.9 882.08c-4.3 4.6-6.5 7.8-7.8 11.9l-1.9 5.6 2.8 7.9c1.6 4.3 3.1 8.3 3.5 8.7 0.4 0.5 1.7-1.8 3-5s4.1-9.1 6.3-13.1l3.9-7.4-1.2-7.4c-0.7-4.1-1.6-7.4-2-7.4s-3.4 2.8-6.6 6.2z"/>
   <path d="m273 886.58c-5.9 8.9-6.5 10.3-6.7 15.3l-0.1 5.5-0.6-4.8-0.6-4.9-8.9 9.1c-6.3 6.5-11 10.3-16.5 13.3-4.2 2.3-7.9 4.6-8.3 5.2-0.5 0.8-0.8 0.8-0.8 0 0-0.6-2.2-0.9-6.1-0.6-5.7 0.4-6.2 0.3-9.3-2.7-3.6-3.4-7.3-12.8-6.3-15.5 0.4-1 1.8-1.6 3.5-1.6 4.1 0 11.3 7.7 10.5 11.2-0.5 2.3-0.5 2.3 1 0.3 2.2-2.7 2.1-10.5 0-15-3-6.4-13.8-11.6-19-9.2-3.2 1.4-6.7 8.5-8.2 16.4-1 5.1-0.9 7.2 0.3 11.8 1.5 5.9 4 10.5 5.6 10.5 0.6 0 1 0.6 1 1.4s2.4 2.9 5.3 4.7c4.8 3 5.8 3.3 13.7 3.2 4.7 0 9.9-0.1 11.5-0.2 4.4-0.3 19.7-6.8 22.8-9.7 1.4-1.3 2.9-2.4 3.3-2.4 0.6 0 9.5-6.1 11.8-8.1 0.5-0.4-0.6-3.1-2.3-5.9-1.8-2.9-3-5.4-2.8-5.7 0.3-0.2 1.9 2.1 3.6 5.1l3.1 5.5 19.5-13.7c10.7-7.5 19.4-14 19.5-14.4 0-0.3-3.9-3.1-8.7-6.2-7-4.4-9.8-5.6-14.2-6.1-3.1-0.3-6.6-0.8-7.8-1.1-1.9-0.4-3.3 1.1-8.8 9.3z"/>
   <path d="m527.5 895.58c0 0.5 1.6 2.5 3.6 4.4 2 1.8 6.3 7.2 9.7 11.9l6.2 8.5 0.7-8c0.3-4.4 0.3-8.3 0-8.7-0.4-0.4-4.5-2.3-9.2-4.3s-9.1-3.9-9.7-4.2c-0.7-0.3-1.3-0.1-1.3 0.4z"/>
   <path d="m417.5 905.58-6.3 5.9 10.7 4.2c5.9 2.3 11.3 3.9 11.9 3.5 1.2-0.7 12.9-9.2 13.5-9.8 0.3-0.2-9.2-4.1-22.4-9.2-0.6-0.2-3.9 2.2-7.4 5.4z"/>
   <path d="m483.1 903.28-3.9 3.3 16.1 20c12.9 15.9 16 20.3 15.5 22.1-0.3 1.2-0.8 2.2-1.2 2.2s-2.7-2-5.1-4.5l-4.3-4.4-4.9 2.7c-2.6 1.5-4.8 3.1-4.8 3.5 0 0.5 2.4 3.7 5.3 7 3 3.4 11.1 13.8 18.2 23 11.9 15.8 12.9 16.8 15.4 16.2 1.4-0.4 3.1-0.8 3.7-0.9 0.7 0 4.9 4.6 9.5 10.3l8.2 10.5 2.9-3.5c1.6-1.9 3.7-4.6 4.6-6.2 0.9-1.5 1.9-2.7 2.3-2.7s1.3 4.7 2 10.4l1.3 10.4 10.7 0.4c5.9 0.1 11.1 0.7 11.5 1.1 1.7 1.7-2.5 2.7-11.8 2.7h-9.8v5.1c0 4.9 0.3 5.4 8.8 15.8 6.8 8 17.6 22.3 19.7 25.9 0.1 0.1 1.8-0.4 3.7-1l3.6-1.3-6.4-14.4c-3.5-7.9-6.3-14.6-6.1-14.8 0.2-0.1 5.4 5.8 11.7 13.2 9.1 11 11.6 13.4 13.4 13 12.3-2.7 18.7-3.5 22.4-3 4.8 0.7 4.9 0.6 2.8-7.2-0.8-3.2-4.5-10.1-9.1-17.1-5.9-9.3-8.5-12.3-11.3-13.6-7.7-3.7-14.2-10.9-14.2-15.8 0-0.5 2.3-3.4 5.2-6.4l5.1-5.5-9.3-8.7c-14.9-13.9-13.2-13.1-19.3-8.8l-5.2 3.6-4.8-5-4.8-4.9 2.6-5.1c2.7-5.4 2.7-5.5-1.8-11.3l-3-3.8 3.2-4.4c1.7-2.4 3.1-4.6 3.1-5 0-1.3-14.2-16.5-15.3-16.5-0.6 0-2.5 1.3-4.2 3l-3.1 3-14.8-16c-8.2-8.8-15.6-16-16.5-16s-2.6 0.3-3.8 0.6c-2.2 0.6-2.1 0.8 2.2 9.5l4.5 8.9-3 1.5c-3.4 1.8-3.6 2.5-1.4 6.6 1.2 2.4 1.3 3.4 0.3 4.5-0.6 0.8-1.5 1.4-1.9 1.4-2.2 0-7.6-6.3-17.9-20.9-6.2-8.9-11.6-16.1-11.9-16.1-0.4 0.1-2.5 1.6-4.6 3.4zm82.7 36c3.1 3.6 5.7 6.8 5.7 7.2s-1.1 2.2-2.5 4-2.5 3.7-2.5 4.1c0 0.5-1.4 2.2-3 3.8l-3.1 2.9-7.1-7.1-7.1-7.2 2.8-3.6c2.9-3.8 9.6-10.4 10.6-10.5 0.3 0 3.1 2.9 6.2 6.4zm-32.7 20c5.4 6 8 8.3 8.2 7.2 0.3-1.2 1.3-0.5 3.7 2.6 2.7 3.3 3.2 4.6 2.4 6-0.6 1.1-1.3 3.8-1.7 6l-0.7 4.2-12-13.7c-6.6-7.6-12.1-14.1-12.3-14.6-0.1-0.5 0.9-0.6 2.3-0.4 2.7 0.6 3-0.2 1.5-4.2s-0.1-2.8 8.6 6.9z"/>
   <path d="m458 915.58c-6.5 4.7-12.2 9.7-14.2 12.6l-3.5 4.7 3.7 1.6c2 0.8 3.9 2.3 4.2 3.3 0.6 2.3 6.3 3.1 23.1 3.1h12.2v-2.5c0-3.3-3.2-4.9-10.1-5-6.1-0.2-12.4-3-12.4-5.6 0-1.1 1.9-1.5 8.8-1.7l8.7-0.3v-2.8c0-3.5-2.7-6-7.4-6.8-2.7-0.4-3.6-1-3.1-2 1-2.8 1.7-6.3 1.2-6.3-0.3 0-5.3 3.5-11.2 7.7z"/>
   <path d="m676 912.08c-0.3 1.3-0.6 5.6-0.7 9.7l-0.3 7.5-13.4 7.8c-10.8 6.4-13.9 7.8-16.1 7.3-2.7-0.6-10.3 2.2-9.8 3.6 0.2 0.3 2.5 3 5.1 5.9l4.8 5.3 5.2-3.5c2.9-2 9.6-5.9 15-8.8 9.4-5 9.7-5.1 9.7-2.8 0 1.2 0.5 3 1 3.8 0.9 1.3 1.1 1.3 2 0 0.5-0.8 1-3 1-4.8 0-2.8 0.6-3.5 5-6 2.7-1.5 5.2-3.5 5.6-4.5 0.4-1.2 1.6-1.7 4.2-1.7 3.4 0 14.2-4.7 14.2-6.2 0-0.3-1.9-2-4.2-3.8-5.2-3.8-6.6-3.6-16.4 1.8l-7.2 3.9-0.6-3.6c-0.3-2-0.6-5-0.6-6.8 0-5.8-2.4-8.7-3.5-4.1zm1.6 16.1c-0.8 0.8-1.1-0.9-1.1-5.4 0-8.5 1.4-9.9 1.8-1.8 0.2 3.4-0.2 6.7-0.7 7.2z"/>
   <path d="m285.7 920.58c-11 8.6-12.1 9.8-11 11.4 6.9 9.8 35.5 45.6 36 45.1 0.4-0.4 4.1-7.9 8.2-16.6l7.5-15.9-11.1-13.1c-6.1-7.2-12.5-14.8-14.2-16.8l-3.2-3.7z"/>
   <path d="m401.3 930.88c-2.1 3.8-3.8 7.9-3.8 9 0 3 5.5 5 13.3 5h6.5l5.2-7.1c2.8-4 5.4-7.7 5.6-8.4 0.4-0.9-1.3-1.5-5.3-1.9-3.2-0.4-7.4-1.1-9.3-1.6-9.1-2.1-8.2-2.5-12.2 5z"/>
   <path d="m933.6 938.88c-8.4 2.6-15.7 5.3-16.1 6.1-1.2 2.1-10.1 35.1-9.6 35.6 0.2 0.2 2.2-2.5 4.4-6 2.3-3.6 6.1-8.1 8.6-10.2 4.3-3.5 4.8-3.7 9.6-3 4.7 0.6 5 0.9 6 4.3 0.6 2.1 1 16.3 1 33.2v29.5l-12.8 0.2c-12.8 0.1-21.2 1.5-21.2 3.4 0 2 6 3.1 19.8 3.7 12.6 0.4 14.2 0.7 14.2 2.2 0 1.7-2.6 2.9-6.5 3-1.1 0-2.7 0.5-3.5 1-1.3 0.9-1.2 1.2 0.4 2.5 1.1 0.8 3 1.5 4.3 1.5 2.7 0 2.8 0.2 0.8 3.9-1.3 2.7-1.9 2.9-10.2 3.6-4.8 0.4-9.2 0.9-9.7 1.2-1.7 1.1 2 2.3 6.9 2.3 8.1 0 9.7 0.8 9 4-0.3 1.6-1.4 7.5-2.4 13.2l-1.8 10.3-6.9 0.8c-8.2 1-11.3 3-7 4.7 1.5 0.5 5 1 7.7 1s4.9 0.3 4.9 0.7c0 0.5-0.9 5.5-1.9 11.3-5.9 32.3-6.2 34-5.1 35.9 0.9 1.7 0.4 2-3.9 3.1-2.7 0.6-5.8 1.8-6.8 2.5-1.6 1.3-1.7 1.5-0.2 3 0.8 0.8 5.1 2.3 9.5 3.2 4.3 0.8 8.2 2.1 8.6 2.7s0.8 7.8 0.8 16.1c0.1 16.6 0.4 16.6 4.6 0.1 4.4-17.7 3.7-16.6 10.1-16.6h5.5l-0.4 3.2c-0.3 1.8-1.5 9.4-2.8 16.9l-2.4 13.7 5.1 12.8c4.6 11.7 5.2 14.1 6.2 25.4 0.6 6.9 1.4 14.8 1.7 17.6l0.6 5.1-6.2 0.6c-3.4 0.3-6.4 0.8-6.7 1-1.3 1.4 1.2 2.6 6.3 3.3l5.6 0.7-0.6 3.6c-1.7 9.5-1.2 8.9-7.7 9.6-3.2 0.4-6.1 1.1-6.4 1.5-0.9 1.4 3.1 3 7.3 3h4l-0.5 3.8c-0.4 3.2 1.9 18 4.2 27.5 0.6 2.2 0.3 2.5-3.4 3.1-7.7 1.2-6 4.9 2.9 6.1 4.7 0.6 4.8 0.8 6.8 6 1.2 3 9.5 17.3 18.6 31.9l16.6 26.6-1 9.2c-2.3 22.3-0.4 62.7 3.4 69.6 1.1 2 1.7 8 2.3 22.1l0.8 19.5 6.9-17.5c3.8-9.5 7.2-18 7.6-18.8 1.1-2.1 16 45.2 16 50.8 0 0.5-3.7 1.2-8.1 1.6-9.3 0.8-10.9 1.2-10.9 3 0 1.6 4.6 2.5 13.5 2.5h7.2l1.2 5.6c0.7 3 1 5.8 0.7 6.1s-3.3 0.9-6.6 1.2-6.1 1-6 1.6c0 0.5 2.9 1.2 6.4 1.5s6.8 0.9 7.3 1.3c0.4 0.5 1.5 4.2 2.4 8.2l1.6 7.4-16.6 0.6 13.6 19c7.5 10.4 15.1 22.3 17 26.3 1.8 4 3.3 7.5 3.3 7.8 0 0.2-1.1 0.4-2.5 0.4h-2.6l0.3 12.8 0.3 12.7 17 0.6 59.5 118.4c32.7 65.1 59.6 118.2 59.8 118.1 0.1-0.2-7.6-19.4-17.2-42.7-9.5-23.3-25.3-61.8-35-85.4-17.1-41.7-18.2-44-35.6-75.3-9.9-17.7-18-32.7-18-33.2 0-0.6 0.6-0.9 1.3-0.8 0.9 0.2 1.3-2.9 1.5-12.4l0.3-12.7-6.8-0.3-6.7-0.3-5.2-19c-3-10.5-6.9-25.3-8.9-33s-3.8-14.7-4.1-15.6c-0.4-1.4 1.6-1.7 15.8-2.3 15.1-0.6 20.5-1.6 16.6-3.1-0.9-0.4-9-1-17.9-1.3l-16.3-0.7-7.2-29.2c-3.9-16-7.5-29.7-8-30.5-0.4-0.7-7.2-10.2-15-21l-14.2-19.7-1.2-27.7-1.2-27.8-7.3-9.1c-4.1-4.9-9.6-11.7-12.3-15-4.9-5.9-5-6.1-7.2-19-1.2-7.2-2.4-13.9-2.6-15.1-0.5-2-0.1-2 16.8-2.2 25.5-0.2 39.8-2.1 39.8-5.3 0-2.8-17.9-4.9-42.7-4.9-9 0-16.3-0.3-16.3-0.8 0-0.4-0.7-4.5-1.5-9.2-2-11.2-0.4-39.5 2.3-41.8 1.3-1 1.4-1.5 0.5-1.8-0.9-0.4-1.3-2.9-1.3-7.4 0-6.7-0.2-7.1-7-18.6l-7-11.6-1-21.7c-0.5-11.9-1-25-1-29.2v-7.6l16.8-0.6c26-1.1 36.4-4 30.8-8.7-2.3-1.9-17.2-4-33.3-4.8l-14.8-0.7-0.6-44c-0.4-35.2-1.1-50.3-3.2-75.5-1.4-17.3-2.9-33.3-3.1-35.5-0.5-3.7-0.2-4.2 2.3-5.3 3.1-1.3 5.1-4.9 5.1-8.8 0-2.8-4.9-8.4-7.4-8.4-1.3 0-1.5-0.9-1.1-5.3 1.7-16 2.1-20.8 1.6-21.1-0.3-0.2-7.5 1.8-16 4.4zm18.3 25.2c4.1 3.8 3.6 10.4-1 12.8-2.2 1.2-2.9 1.2-5.2-0.1-5.3-2.9-5.4-11-0.2-13.6 3.3-1.7 3.5-1.7 6.4 0.9zm-4.3 67.5c1.6 1.6-7.7 2.8-21.6 2.8-11.8 0-20.5-1.1-20.5-2.5s6.2-1.8 24.2-1.6c11 0.1 17.1 0.5 17.9 1.3zm-2.7 11.2c0.9 1.3-2 2.1-7.9 2.1-2.9 0-6-0.3-6.9-0.6-3.4-1.3-0.2-2.4 6.9-2.4 4.1 0 7.6 0.4 7.9 0.9zm0.6 12.5c1.4 0.2-4.5 0.3-13 0.3-10.9-0.1-13.3-0.2-8-0.6 7-0.6 15.3-0.4 21 0.3zm-13 32.3 2.5 0.6-2.5 0.7c-1.4 0.5-5.9 0.8-10 0.8s-8.6-0.3-10-0.8l-2.5-0.7 2.5-0.6c5.5-1.4 14-1.4 20 0zm8.5 14c-0.6 13.6-0.5 14 2.8 25.3l3.4 11.5-8.6 0.6c-4.7 0.4-9 0.3-9.5-0.2-0.8-0.7 11.3-50.9 12.2-50.9 0.2 0 0.1 6.2-0.3 13.7zm5.4 43.5c-0.4 2.4-0.8 4.6-0.9 5 0 0.5-2.4 0.8-5.2 0.8-5.2-0.1-5.3-0.2-7.5-4.5-1.2-2.4-1.9-4.6-1.6-4.9 0.4-0.3 4.1-0.6 8.3-0.6h7.7zm38.9-3.2c10.4 1.1 18.2 2.8 18.2 4 0 2.2-14.8 4.4-36.2 5.4l-10.8 0.5v-10.9h9.8c5.3 0 13.9 0.5 19 1zm-65.3 4.1c0.9 1.7 1.5 3.3 1.2 3.5-0.5 0.5-9.5-1.2-12.7-2.4l-2.5-1 2.5-1c1.4-0.5 3.2-1.2 4-1.5 3.7-1.4 6-0.7 7.5 2.4zm50.5 103.8c1.8 0.6 0.5 1-5.2 1.5-8.7 0.9-25.9-0.3-21.8-1.5 3.3-0.9 23.8-0.9 27 0zm-11.1 18.1c2 0 2.3 0.2 1.1 1-1.8 1.1-17 1.3-19.7 0.2-2.5-1 5.7-2.1 11.6-1.6 2.4 0.2 5.6 0.4 7 0.4zm39.5 102.7c4.2 13.4 4.3 66 0.2 79.5l-1.3 4.3-1.1-2.7c-2.1-5.3-3.3-20.4-3.3-41.8 0.1-11.8 0.3-23 0.6-25 2.5-15.8 3.5-18.7 4.9-14.3zm39.4 144.2c1.9 1.2-3.4 2.1-12.3 2.1-4 0-8.7-0.3-10.5-0.6-5.9-1.2-0.9-2.4 10.5-2.4 6.1 0 11.6 0.4 12.3 0.9zm37.2 17.3c3 0 0.1 0.5-6.5 0.9s-19 0.5-27.5 0.1l-15.5-0.7 9.5-0.6c5.2-0.4 15.1-0.5 22-0.3s15 0.5 18 0.6zm7 85.8v11h-30v-22h30z"/>
   <path d="m237.5 941.58c-9.9 1-11.4 1.9-21.8 13.9-8.6 9.9-10.2 12.3-12 18.2-3.9 12.8-5.2 21.7-4.5 31.5l0.6 9.2-2.1-1.8c-1.5-1.4-2.2-3.6-2.7-9.8-0.4-4.3-1.1-8.2-1.6-8.4-0.5-0.3-3.9 2.5-7.6 6.2-9.7 9.8-12 11.4-14.9 10.3-1.3-0.5-2.4-0.7-2.4-0.5 0 0.3 2.3 4.5 5.1 9.5 3.9 6.8 6.5 10.1 11.2 14 6.9 5.5 9.7 6.1 19.6 3.8l5.1-1.1 5.6-10.6c6.8-12.6 8.3-18.4 8.4-31.3 0-10 2.2-20.5 5.9-28.9 2.7-5.9 7.7-10.8 13.9-13.6 4.6-2 6.4-2.3 10.9-1.7 6.9 0.8 6.5-0.9-1.5-5.2-6.2-3.4-9.8-4.3-15.2-3.7z"/>
   <path d="m434.3 946.28c-4 3.6-12.7 21.8-20.3 42.8l-6.7 18.7-4.9 1.7c-2.7 1-4.9 2-4.9 2.3 0 0.4 1.2 1.7 2.6 3 5.1 4.9 9.6 16.8 10.9 28.6 0.6 6 0.7 6 5.8 9l5.2 3-5.2 0.3c-4.5 0.3-5.3 0.6-5.7 2.5-2.2 11.3-3.2 14.9-5.3 19.5-4.9 10.4-12.4 15.6-19.8 13.8-7.2-1.8-14.4-13.4-17.2-27.4l-1.6-8.2h-3.8c-4.3 0-3.8-1.2-6 14.3-2.6 18.7-8.2 36.1-13.3 41.2-10.1 10.1-20-9.9-25.1-50.8-0.8-6.7-1.5-12.3-1.5-12.4 0-0.2-0.7-0.3-1.5-0.3-1.8 0-1.9 6.7-0.5 29.5 1.2 19.5 8.1 51.4 14.9 68.5 2.9 7.4 3 7.5 7.8 8.7 5.9 1.5 9.1 1.6 13 0.3l2.9-1.1 1.9-19.7c1-10.8 2.1-20.3 2.4-20.9 0.4-0.7 2.1 6 3.9 14.9s3.5 16.4 3.7 16.7c0.3 0.2 2.8-0.6 5.5-1.9 5-2.4 16.9-13.7 27.1-26 9.1-11 17.7-26.1 21.8-38.2 4.8-14.4 5.5-15.6 8.8-16 3.7-0.4 5.9-4.5 10-18.7 3.3-11.3 7.3-34.5 7.3-42.7v-4.1l-7.6-0.5c-12.8-0.8-12.7-4.1 0.3-5.3l7.2-0.7 0.3-8.7c0.4-12.3-2.6-28.3-6.4-33.9-1.6-2.3-3-4.2-3.1-4.2s-1.4 1.1-2.9 2.4z"/>
   <path d="m161.8 953.48-2.2 6.6 2.1-0.6c1.2-0.3 5.4 0.2 9.4 1.1 6.7 1.5 7.5 1.9 12.1 7.2 2.7 3.1 6.7 8.4 8.8 11.9 3.7 6 6 8.8 5 6-0.2-0.7-1.8-6.8-3.4-13.6-2.4-9.9-3.8-13.6-7.1-18.8l-4.2-6.4h-18.4z"/>
   <path d="m616 948.28c-6.4 2-11.7 5.1-15.4 9l-3.4 3.5 3.9 4.8c6.8 8.3 15.5 16.3 20.6 18.9l4.9 2.5 3.5-2.7c2-1.5 5.5-5 7.9-7.7 3.3-3.8 4.2-5.4 3.5-6.6-0.6-0.9-5.6-6.4-11.2-12.3l-10.3-10.7z"/>
   <path d="m624.7 947.78c0.8 2.2 18.1 20.1 18.9 19.5 0.5-0.3 0.9-1.7 0.9-3.2 0-4-13.4-17.2-17.4-17.2-1.5 0-2.6 0.4-2.4 0.9z"/>
   <path d="m809.3 949.08c-0.8 0.7-2.7 3.5-4.3 6.3-1.5 2.7-3.7 6.5-4.8 8.3l-1.9 3.3 3.8-0.7c2.2-0.3 4.3-1 4.7-1.4 0.6-0.5 6.7-15.7 6.7-16.8 0-0.7-2.8 0-4.2 1z"/>
   <path d="m463.8 950.58c-2.1 0.8-1.5 5 3.2 22.3 2.5 9.1 5.4 22.8 6.5 30.5 4.9 34.6 0.5 84.9-10.4 119.3-2.5 7.9-4.6 14.9-4.6 15.7 0 0.7 1.5 1.6 3.3 1.9 2.8 0.5 4.7-0.1 11.4-3.9 4.3-2.5 8.9-5.8 10-7.3 1.2-1.6 3.8-8.4 5.9-15.1 4.3-14 4.3-14.1-4.3-14.1-5.2 0-7.7-1.5-5.2-3.1 0.8-0.5 4.4-0.9 8.1-0.9s6.9-0.3 7.1-0.8c0.3-0.4 0.8-3.3 1.1-6.5 0.6-4.4 0.4-5.7-0.6-5.7-3.9 0-8.8-2.2-8.8-3.9 0-2 4.4-4.1 8.5-4.1 3.1 0 3.5-1.6 3.5-13v-9.9l-5-0.7c-2.8-0.4-5.3-1.1-5.6-1.5-0.7-1.2 3.9-2.9 7.7-2.9h2.9v-17.9l-4.2-0.8c-5.7-1.1-5.9-2.9-0.3-3.7 3.7-0.6 4.5-1.1 4.1-2.4-0.3-0.9-1.2-5.8-2.1-10.7-2.6-14.5-8.1-29.8-15.6-43.5-9.3-16.9-11.7-19.3-16.6-17.3z"/>
   <path d="m732.8 960.68c-7.2 5.4-17.6 12.2-23.2 15.2-7.7 4.2-10.3 6.2-11 8.3-0.9 2.5-0.8 2.7 1.2 2.2 1.2-0.3 6.7-1.4 12.2-2.6 7.4-1.6 10.8-2.8 13-4.8 1.7-1.4 10.4-8 19.5-14.6 15.7-11.5 16.3-12 13.5-12.6-1.7-0.4-5-0.7-7.5-0.7-4.2-0.1-5.5 0.6-17.7 9.6z"/>
   <path d="m586.5 956.58c-1.4 0.2-4 0.6-5.9 0.9l-3.3 0.5 4.4 4.8 4.9-2.7c2.7-1.5 4.9-3 4.9-3.5 0-0.7-0.6-0.7-5 0z"/>
   <path d="m329.2 959.08c-0.8 1.3-2.6 4.2-4 6.4l-2.6 4.2 3.7 11.1c2.9 8.8 3.4 11.6 2.7 13.7-0.6 1.5-1.4 2.9-2 3.1-0.5 0.1-2.7-2.4-4.9-5.7-2.1-3.3-4.1-6-4.5-6-0.3 0-2.8 7.2-5.5 16l-4.9 16 2.1 2.3c1.9 2 2.2 3.5 2.2 11v8.7h3.4c1.9 0 4.1 0.3 4.9 0.6 1 0.4 2.4-1 4.3-4.5 2.7-5 2.8-5.1 7.5-5.1s4.9-0.2 9.3-5.9c10.1-13.1 24.8-21.7 44.3-26.1 5.4-1.2 10.2-2.6 10.6-3 0.9-0.8 4.8-15.2 4.3-15.7-0.2-0.2-9.1 1.5-19.9 3.7-21.9 4.5-28.6 4.9-30.9 2.2-0.9-0.9-5-7.7-9.3-15-4.2-7.2-8.1-13.4-8.6-13.7-0.4-0.3-1.5 0.5-2.2 1.7z"/>
   <path d="m766.5 958.58c-6.5 1.3-8.6 2.3-17.5 8.5-5.5 3.9-10.2 7.3-10.4 7.5-1.3 1 1.6 0.9 13.1-0.6 14-1.8 13.6-1.6 22-11.4 5.7-6.6 5.7-6.6-7.2-4z"/>
   <path d="m449.5 965.18c0 4.9 1 7.6 3.1 8.2 2.1 0.7 2.7 5.9 0.9 7-0.5 0.3-1 2.2-1 4.1 0 3.8 1.3 4.2 6.9 2.3 2.2-0.8 3-1.6 2.7-2.8-0.3-0.9-1.5-5.8-2.6-10.9-2-8.4-2.4-9.3-4.8-9.8-1.5-0.3-3.3-0.7-3.9-1-0.9-0.2-1.3 0.8-1.3 2.9z"/>
   <path d="m591.8 964.58-3.2 2.5 2.7 3.6c4.2 5.5 25.3 24.2 27.3 24.2 1 0 2.7-1.3 3.8-2.9l2.1-2.9-6.5-4.2c-4.2-2.7-9.5-7.7-14.6-13.6-4.4-5.2-8.1-9.4-8.2-9.4-0.1 0.1-1.6 1.2-3.4 2.7z"/>
   <path d="m151.4 964.98c-2.6 2.6-2.6 8.5 0 9.9 1.1 0.5 3.6 1 5.6 1 6.5 0 15.6 6.2 22.7 15.6 2.2 3 4.3 5.3 4.5 5 1-0.9-2.9-13.6-5.7-18.8-4.7-8.7-10.7-12.7-21.3-14.2-2.9-0.4-4.3 0-5.8 1.5z"/>
   <path d="m707 964.98c-5 1.1-17.6 1.2-41.2 0.3l-18.3-0.7v2.4c0 1.3-0.7 3.3-1.5 4.3-2.5 3.3-1.8 3.9 4.2 3.3 3.9-0.4 8.3 0 14 1.4 10 2.3 26.7 2.6 31.6 0.5 2.6-1.1 18.2-10.7 19.6-12.2 0.7-0.6-4-0.3-8.4 0.7z"/>
   <path d="m143.1 983.08-2.8 2.3 2.2 2.7c1.2 1.6 3.9 3.2 6.3 3.9 8.3 2.2 14.6 5.9 19.4 11.5 4 4.6 4.9 5.2 5.5 3.7 4.2-10.7-7.2-24.1-21.9-25.8-5.4-0.6-6.3-0.4-8.7 1.7z"/>
   <path d="m682.6 986.98c-0.6 1.8-1.1 4.2-1.1 5.4 0 2.6-6.3 8.2-13.2 11.7-2.3 1.3-4.7 3.3-5.3 4.6-0.5 1.2-1.3 2.2-1.7 2.2-1.6 0-0.7 2.7 1.6 4.9 3.2 3.1 8.5 2 13.4-2.6 3.2-3.1 3.7-3.2 4.3-1.6 0.4 1 0.8 3.2 0.8 4.9 0.1 3.8 2 9.4 3.2 9.4 1.8 0 3.2-4.7 3.7-12.6l0.5-8.4 4.6-2.7c6.9-4 27.2-17.5 26.9-17.8-0.2-0.1-4.3 0.5-9.3 1.5-17.5 3.4-16.3 3.4-15.7 0.3l0.5-2.7-4 3.1-3.9 3.2-1.1-3c-1.4-3.8-2.8-3.7-4.2 0.2zm2.8 4.5c-2.5 3-3.1 0.8-1.2-4.6 0.4-1.1 0.7-0.9 1.4 0.9 0.6 1.6 0.5 2.8-0.2 3.7zm-11.6 16.5c1.6 2.5 0 6.8-2.7 7.5-5.1 1.2-8.8-3.5-5.9-7.6 1.8-2.5 7-2.4 8.6 0.1zm13.3 5c-1.3 13-3.2 14.1-4.3 2.6-0.5-5.9-0.4-6.5 1.8-8.1 1.3-0.9 2.5-1.6 2.8-1.6 0.2 0 0 3.2-0.3 7.1z"/>
   <path d="m509.1 997.48c3.5 9 5.4 16.1 5.4 20 0 6.1 0.5 6.4 9.1 6.4h7.9v-5c0-2.8-0.7-6.4-1.4-7.9-1.2-2.2-9.9-9.8-22.4-19.4-0.6-0.5 0 2.1 1.4 5.9z"/>
   <path d="m451.5 1006.7v6l5 1.3c2.8 0.7 5.7 2.1 6.6 3 1.4 1.5 1.3 1.9-1.2 3.8l-2.7 2.1h9.9l-1.2-7.3c-0.7-3.9-1.3-8.4-1.4-9.9 0-3.4-0.1-3.4-8.2-4.3l-6.8-0.7z"/>
   <path d="m384.4 1016c-5.8 2.2-7.9 3.6-8.9 5.7-3.2 7-5.2 14.4-5.7 22.1l-0.6 8.4 4.8-0.6c2.6-0.4 5.6-0.7 6.6-0.7 1.1 0 1.9-0.6 1.9-1.3 0-2.3 4-5.7 6.6-5.7 1.7 0 3 0.9 4.2 3 1.8 3.2 2.6 3.4 11 2.4 5-0.7 5.2-0.8 5.2-3.8 0-5.1-2.8-16.5-5.1-21.4-3-6.2-7.6-11.2-10.3-11.2-1.1 0.1-5.5 1.4-9.7 3.1z"/>
   <path d="m654.3 1017c0.9 2.4 3 5 5 6.4l3.5 2.4 2-2.5c1-1.4 1.8-2.6 1.6-2.8-0.2-0.1-1.7-1-3.4-2.1-1.6-1-3.6-2.7-4.3-3.7s-2.4-1.8-3.7-1.8c-2.3 0-2.3 0-0.7 4.1z"/>
   <path d="m647.8 1016.7c-1.8 1.5-4 4.4-4.8 6.6-1.6 3.8-1.6 3.9 1.1 6.7 1.5 1.6 3.3 2.9 3.8 2.9 1.4 0 13.5-5.4 13.6-6 0-0.3-1.6-1.6-3.5-2.9-2-1.3-4.3-4.1-5.3-6.2l-1.7-3.8z"/>
   <path d="m367.8 1023.4-6.1 3.5-0.6 7.8c-0.4 4.2-0.9 10.1-1.1 13.1l-0.5 5.4 3.1-0.7c1.7-0.3 3.5-0.6 4-0.6s0.9-1.7 0.9-3.8c0-6.4 2-16.2 4.5-22.3 1.3-3.3 2.3-5.9 2.2-5.9s-3 1.6-6.4 3.5z"/>
   <path d="m539.5 1033.2-6.5 11.2-0.3-7.8-0.3-7.7h-16.2l0.7 6.1c0.3 3.4 0.6 7.5 0.6 9 0 2.5 0.4 2.9 2.9 2.9 3.8 0 8.4 1.7 7.7 2.9-0.3 0.5-3 1.2-5.9 1.5l-5.4 0.7-0.6 8.7c-0.4 7.2-4.1 26.4-6.3 33.4-0.5 1.6 0.2 1.8 4.6 1.8 5.9 0 10.1 1.7 7.9 3.1-0.8 0.5-3.6 0.9-6.4 0.9-8.5 0-8.6 0.2-13.4 11.5-2.4 5.8-6.3 13.2-8.7 16.5s-4.4 6.4-4.4 7c0 1.4 2.9 1.3 13.5-0.6l9.1-1.7 9.7-25.1c10.8-27.9 13.7-37.1 19.7-62.6 2.3-9.6 4.5-18.7 5-20.3 1.7-5.3-0.6-2.5-7 8.6z"/>
   <path d="m220.7 1029.1c-0.6 2.9-2.5 11.9-4.2 20l-3.1 14.7 5.6 11c3 6.1 5.7 11.1 5.9 11.1s1.4-2.8 2.6-6.3c1.3-3.4 2.7-6.6 3.2-7.1 0.4-0.6 0.8 5.6 0.8 13.7v14.7l10 17.8 13 0.3c8.3 0.3 13.3 0.8 14.1 1.6 2 2-3.3 3.3-14.2 3.4-5.4 0.1-9.9 0.3-9.9 0.5 0 0.1 1.8 4.4 3.9 9.4 2.2 5 4.7 12.8 5.7 17.3 2.2 10.8 2.5 11.6 8.4 19.5 4.2 5.5 6 7.1 10.5 8.8 4.5 1.9 6.1 2 10 1.2 2.6-0.5 4.9-1.6 5.2-2.4s1.8-1.4 3.3-1.4c2.6 0 2.9-0.4 3.6-4.5 0.3-2.5 0.1-12.1-0.6-21.3-1-13.2-1.9-18.6-4.1-25.8-1.6-5.1-3.6-9.8-4.5-10.5-1.3-1.1-1.5-2.5-1-7.1l0.6-5.8h-9.3c-6.5 0-9.9-0.4-11.3-1.4-2.3-1.8-1.7-2.1 7.4-3.3l6.4-0.8-6.4-4.7c-5.5-4-6.5-4.5-7.9-3.2-0.8 0.7-2.6 1.5-3.9 1.6-3.8 0.5-5.5-4-5.5-14.8v-9l-12.5-16.8c-6.9-9.3-13.8-18.7-15.5-20.9-1.6-2.2-3.5-4.2-4.1-4.4s-1.6 2-2.2 4.9zm61.8 138.8c0 6.7-0.4 11-1 11-1.1 0-1.4-20.2-0.3-21.3 1.2-1.3 1.3-0.7 1.3 10.3z"/>
   <path d="m561.5 1024.9c-1.6 0.5 1.3 0.8 8 0.8s9.8-0.3 8.5-0.8c-2.5-1.1-13.2-1.1-16.5 0z"/>
   <path d="m450.7 1031.6c0.3 6.1 0.5 6.8 2.4 7.1 4.5 0.6 5.7 3.5 5.5 12.6-0.2 8.4-0.2 8.4 2.1 7.9 1.3-0.3 3.3-1.5 4.6-2.6 2-1.9 2.2-2.9 2.2-13.1-0.1-7.8-0.5-11.6-1.4-12.9-1.2-1.5-12-5.7-14.9-5.7-0.4 0-0.7 3-0.5 6.7z"/>
   <path d="m502 1025.9c-4.8 0.4-1 0.7 11.9 0.8 10.4 0.1 18.7 0 18.5-0.2-0.8-0.7-23.7-1.2-30.4-0.6z"/>
   <path d="m356 1029.8c-4.2 2.6-15.8 14.8-18.8 19.7-1.4 2.3-2.8 5.9-3.2 8-1.5 9.2-1.5 9.3-3.5 4.9-1-2.2-1.9-6.1-1.9-8.6-0.1-4.5-0.2-4.7-3.6-5.3-5.1-1-5.7-0.2-5 6.2 2.7 23.3 6.8 41.2 11.7 50.5 6.1 11.4 12.8 8.1 18.2-9.3 2.7-8.3 6-24.7 7.1-34.8l0.7-6.2-7.9-0.1-7.8-0.2 16-2.2 0.8-9.5c0.4-5.2 0.6-10.7 0.5-12.3l-0.3-2.7z"/>
   <path d="m634.1 1031.8c-2.9 3-3 5.4-0.7 9 0.8 1.3 1.5 1.2 4.6-0.5 5.7-3 6-3.8 3-7.9-1.5-1.9-3-3.5-3.4-3.5s-2 1.3-3.5 2.9z"/>
   <path d="m202.8 1044.6c-2.9 0.2-5.3 0.6-5.3 0.9s0.6 1.5 1.4 2.7 2.6 4.2 4.1 6.6l2.8 4.5 1.3-2.6c0.7-1.4 2.2-4.8 3.3-7.7l2.1-5.1-2.3 0.2c-1.2 0.1-4.6 0.3-7.4 0.5z"/>
   <path d="m386.2 1046.7c-2.9 3.1-2.1 4.5 1.9 3.9 4.7-0.8 5.1-1.3 2.9-3.7-2.2-2.5-2.8-2.5-4.8-0.2z"/>
   <path d="m498.5 1048.9c-3.9 0.5-1.1 0.7 9.9 0.8 8.5 0.1 15.2 0 15-0.2-0.9-0.8-19.7-1.3-24.9-0.6z"/>
   <path d="m443.6 1059.9c-1.1 6-2.1 12.5-2.1 14.4 0 3.5 0.1 3.5 6.8 5.5 13.1 3.9 12.7 4 15.1-1.5 2.4-5.4 3-4.5-6.6-10l-6.3-3.6v-6.2c0-4.8-0.4-6.7-1.8-7.9-1-1-2.1-1.7-2.4-1.7s-1.5 4.9-2.7 11z"/>
   <path d="m388 1051.9c-12 1-18.2 1.8-14.4 1.9 3.6 0 14.8 0.4 24.7 0.8 11.6 0.4 18.2 0.3 18.2-0.4 0-0.8-6.6-4.6-7.3-4.2-0.1 0.1-9.6 1-21.2 1.9z"/>
   <path d="m369.9 1060.8c1.4 10.5 7.3 23.8 11.6 26.1 1.9 1 1.9 0.9 0.2-2.7-1.2-2.9-1.6-6.8-1.7-16v-12.3h-10.8z"/>
   <path d="m382 1057.1c-2 6.7-0.7 22.6 2.5 28.8 2.5 5 5.5 5.1 8.2 0.4 2.5-4.2 4.3-17.5 3.4-24.7l-0.7-5.7h-6.5c-4.3 0-6.6 0.4-6.9 1.2z"/>
   <path d="m397.7 1066.6c0 8.3-0.4 12.2-1.9 16.5-1.1 3.2-1.7 5.8-1.3 5.8 1.6 0 8.1-8 10-12.3 1.9-4.2 4.9-16.2 5-19.5 0-0.8-1.8-1.2-5.9-1.2h-5.9z"/>
   <path d="m635 1074.4c-0.5 0.3-9.1 2.2-18.9 4.3l-17.9 3.9-4.8 6.9c-6.9 9.9-7.2 13.1-2 22.6 2.4 4.4 4.1 8.8 4.1 10.7v3.2l4.3-0.6c24.1-3.6 34.2 49 13 68.6l-4.4 4 2 7.2c1 4 2.4 11.5 3 16.7 2.1 17.8 4.1 33.4 4.4 33.6 0.7 0.6 10.3 2.2 10.7 1.7 0.3-0.2 0.7-12.6 0.8-27.5 0.2-14.8 0.5-26.8 0.7-26.6s1.8 12.3 3.6 26.9l3.2 26.6 4.6 2.8c2.5 1.5 7.5 5.8 11 9.4l6.3 6.6-0.6-8.5c-0.3-4.7-0.6-10.4-0.6-12.6v-4.1l-5-0.7c-7-0.9-6.2-3.6 1.1-3.6 2.7 0 2.9-0.2 2.9-4.1 0-2.3-0.5-11.7-1.1-21.1-1-15.7-1.3-17.4-4-22.5-2.5-4.7-2.9-6.6-2.9-13.4v-7.9h-5.2c-5.6 0-9.5-1.4-6.8-2.4 0.8-0.3 4-0.7 7-0.8l5.5-0.3 0.3-5.8 0.3-5.7h-5.8c-5.8 0-9.5-1.2-7.5-2.4 0.6-0.3 3.8-0.9 7.1-1.2l6.1-0.7v-24.7l-11.7-0.1c-13.2-0.1-16.6-0.7-17.1-3.1-0.5-2.3 4.8-3.3 18-3.3h10.7l-0.6-8.5c-0.6-7.4-1.1-9.2-4.1-13.9-2.7-4.2-3.1-5.2-1.6-4.6 4.7 1.9 5.6 1.9 5.1-0.1-0.3-1-1.1-4.7-1.7-8-0.6-3.4-1.9-8.6-2.9-11.5-1.6-4.8-2.1-5.4-4.7-5.6-1.6-0.1-3.3 0-3.9 0.2zm-9.5 15c0 7.3-0.1 7.5-2.5 7.5-2.1 0-2.5-0.5-2.5-3 0-3.5 0.2-3.5-7.5-1.1-5.5 1.7-6 2.1-6.3 5-0.3 2.5-0.8 3.1-2.8 3.1-2.3 0-2.4-0.3-2.4-6.5 0-6.3 0.1-6.5 2.5-6.5 1.6 0 2.5 0.6 2.5 1.6 0 1.2 0.7 1.4 3.2 0.9 7.8-1.8 10.3-3.1 10.6-5.8 0.3-2.1 0.9-2.7 2.8-2.7 2.3 0 2.4 0.2 2.4 7.5z"/>
   <path d="m302.6 1089.7c-5.1 11.4-6.9 14.4-8.7 14.8-1.3 0.4-2.4 0.9-2.4 1.1 0 1.2 4.2 7.3 5 7.3 0.5 0 3.6-3.6 7-8l6.1-8-0.6-21.4z"/>
   <path d="m493.8 1076.8c-8.7 1.5-6.9 3.5 3.5 3.9 8.3 0.4 15.5-1.3 11.7-2.8-3.4-1.3-10.8-1.8-15.2-1.1z"/>
   <path d="m422.5 1090.1-2.2 5.2 2.7 2.2c2 1.6 4.7 2.3 10.3 2.8 4.2 0.3 11.4 1.8 16.1 3.4 6.3 2 8.5 2.4 8.9 1.4 0.5-1.6 2.8-3.9 4.3-4.4 0.8-0.3 0.7-1.3-0.5-3.6-1.5-2.9-2.1-3.2-6.4-3.2-5.7 0-22.5-4.4-26.8-7.1-1.7-1-3.4-1.9-3.6-1.9-0.3 0-1.6 2.3-2.8 5.2z"/>
   <path d="m531 1098.4c-2.6 6.3-4.5 12.2-4.1 13 0.4 1.2 1.8 1.5 5.8 1.3l5.1-0.3 3.4-10c1.8-5.4 3.3-10.4 3.3-11 0-1.1-6.1-4.5-7.9-4.5-0.4 0-3 5.2-5.6 11.5z"/>
   <path d="m552.2 1097.1c-1.9 4.2-5.7 14.1-5.7 15 0 1.1 5.4 1 8.5-0.2 4.8-1.8 6.4-11.3 2.5-15.5-3-3.2-3.5-3.2-5.3 0.7z"/>
   <path d="m488.5 1097.9c-2.1 0.4 3.1 0.7 12.5 0.8 9.3 0 14.7-0.4 13-0.8-3.8-1-20.9-1-25.5 0z"/>
   <path d="m667.1 1099.8c-1.5 1.7-1.6 2.4-0.5 5.9 0.6 2.3 2.8 5.7 4.8 7.6l3.7 3.6 2.7-5.4 2.6-5.5-5.1-4c-2.8-2.3-5.4-4.1-5.8-4.1s-1.5 0.9-2.4 1.9z"/>
   <path d="m268.5 1099.9c3.1 1 13.5 1 17.5 0 1.9-0.5-1.2-0.8-8.5-0.8-7.1 0-10.6 0.3-9 0.8z"/>
   <path d="m566.1 1105.1c-0.3 0.7-0.9 2.8-1.5 4.5l-1 3.3h19.2l-2.5-3.2c-1.8-2.3-3.9-3.6-7.4-4.5-6.1-1.6-6.4-1.6-6.8-0.1z"/>
   <path d="m655.8 1104.6c-0.9 0.3-0.7 1.5 0.7 4.3 1.6 3.2 2 5.9 2 14.1v10.2l4.5-3.9c4.4-3.9 4.4-3.9 3.9-9.4-0.3-3-1.2-7.9-2-10.8-1.4-4.9-1.6-5.2-4.7-5.1-1.8 0-3.8 0.3-4.4 0.6z"/>
   <path d="m411.5 1109-2.1 4.1 2.1 2.2c1.6 1.8 4.1 2.6 10.8 3.6 14.9 2.2 16.5 3.6 13.2 12.2-3 7.9-2.9 8.1 3.3 7.3 3.3-0.4 5.8-1.4 6.9-2.6 1.6-1.9 5.1-10.2 6.3-15.2 1-3.9-4.9-7-21-11.2-7.7-2-14.8-3.8-15.7-4.1-1.2-0.4-2.3 0.7-3.8 3.7z"/>
   <path d="m306 1113.9c-2.5 5.2-3.2 6-5.7 6-3.3 0-3.3 0-0.9 4.2 1.7 2.9 2.1 6.3 2.8 26.3l0.8 23 4.9-11.8c2.7-6.5 5.9-16.4 7.1-22l2.2-10.2-3.6-10.8c-1.9-5.9-3.8-10.7-4.1-10.7-0.4 0-1.9 2.7-3.5 6z"/>
   <path d="m683.5 1112.3c0 0.8-1.8 3.7-4 6.5s-4 5.3-4 5.6 3.9 0.5 8.8 0.5c16.3 0 39.5 2.2 42.2 4.1 1.5 1 6.6 2.1 12.5 2.9 5.5 0.6 12.5 1.6 15.5 2.1s8 1 11 1.1c5.5 0.2 32.6-2.8 36.7-4l2.1-0.7-2.2-5.5c-1.6-3.9-2.8-5.5-4-5.4-0.9 0.1-8.2 0.5-16.1 0.9l-14.3 0.7-0.4-2.3c-0.3-2.2-1.1-2.5-8.3-3.6-4.4-0.6-12.4-1.2-17.7-1.2l-9.7-0.1-1.7 3.1-1.6 3.2-9.1-0.7c-4.9-0.3-11.6-0.6-14.9-0.6h-5.8v-3.4c0-3.3-0.1-3.3-5.2-4-7.9-0.9-9.8-0.8-9.8 0.8zm72 5.9 3.5 1.7-3.2-0.3c-2.2-0.2-3.3 0.1-3.3 1s-1.4 1.3-4.4 1.3c-3.7 0-4.5-0.4-5-2.3l-0.7-2.2-1.1 2.2c-0.9 1.8-1.4 2-3.9 1.1-1.6-0.5-2.9-1.6-2.9-2.3 0-2.8 15.2-2.9 21-0.2z"/>
   <path d="m830.8 1117.6c-3.2 0.4-3.3 0.5-3.3 5.5v5l4.8-0.7c2.6-0.4 4.8-0.8 4.9-0.9 0.2-0.2 0.6-2.4 0.9-4.9 0.7-5.2 1.1-5-7.3-4z"/>
   <path d="m810.8 1118.6c-3.3 0.4-3.3 0.5-3.3 5.9 0 5.5 0 5.6 2.8 5 1.5-0.2 5.3-0.8 8.5-1.1l5.7-0.6v-9.9l-5.2 0.2c-2.9 0-6.8 0.3-8.5 0.5z"/>
   <path d="m238 1120.8-3 0.7 2.5 0.7c3.3 0.9 25 0.8 27.5-0.2 4.4-1.8-19.7-2.8-27-1.2z"/>
   <path d="m401.9 1129.6c-2 3.1-3.2 5.9-2.7 6.3 0.4 0.3 5.2 1.9 10.6 3.5l9.8 2.8 4.4-4.3c6.2-6.1 5.1-7.5-8.4-11.1l-10.2-2.7z"/>
   <path d="m597.8 1127.6c-0.9 0.3-1.3 2.6-1.3 6.4v5.9h3.1c1.8 0 4.7 0.9 6.5 2.1 3.3 2 3.4 2.3 3.4 8.2 0 5.5-0.5 7-4.4 13.4l-4.3 7.3 3.5 12.5c3.5 12.1 3.6 12.4 5.6 11.1 3.7-2.3 8.2-9.1 10.2-15.2 2.2-7 2.7-26.4 0.7-32.9-1.9-6.2-7.4-14.7-11.2-17.2-3.2-2.2-8.7-2.9-11.8-1.6z"/>
   <path d="m624.3 1128.6c-7 1.8 8.5 4 21.4 3 8.8-0.7 11.7-1.7 7.8-2.8-2.8-0.8-26.5-0.9-29.2-0.2z"/>
   <path d="m497 1146.6c-2.2 0.8-11.6 4.1-21 7.3l-17 5.8-4.3 5.4c-8.9 11.2-14.1 24.4-16.2 40.9-2.4 19 2.9 40.3 14 56.4 4.7 6.9 14.5 15.2 22.3 18.9 14.1 6.8 28.1 6.8 42.5 0 7.4-3.6 20.2-14.3 20.2-17 0-1.5-1.9-1.7-16.5-1.9-7.3 0-9.8-0.5-13.3-2.3-12.9-6.8-22.5-25.6-24.8-48-0.8-8.2 0.3-7.5-13.9-9.2-16.8-2.1-17.1-2.8-1.4-2.9l14.7-0.1 0.7-6.8c1.9-17.3 8.2-32.8 17.1-41.7 3-3 5.4-5.7 5.4-6 0-1-4.5-0.4-8.5 1.2z"/>
   <path d="m500.2 1153.8c-2.8 3-6.4 8.4-8.3 12.7-3.8 8.1-7.3 22.3-7.4 29.1v4.3h11.8c10.3 0 12.1-0.3 13.5-1.8 1.9-2.1 2.1-8 1.1-28-0.7-11.5-0.8-12.1-3-12.6-1.8-0.5-2.3-1.4-2.6-4.7l-0.3-4.2z"/>
   <path d="m385 1156.8c-22.1 7.1-28.2 9.4-36.5 13.6-4.1 2-7.6 3.9-7.8 4s0.2 3.2 0.8 6.8l1.2 6.5 5.7 0.7 5.8 0.7 1.2 13.1c0.7 7.3 1.5 14.7 1.8 16.5 0.5 3 0.2 3.4-2.5 4.4-3.4 1.3-3.7 2.1-4.7 16.3-1.4 17.6-4.9 32.2-8.1 33.2-1.1 0.4-3.5-1.9-7.1-6.5-1.9-2.4-1.9-2.4-5.7-0.5l-3.8 1.8 1.4 41 7 7.1 7 7.2 1.9 10.3c1 5.7 2.1 11.3 2.3 12.4 0.3 1.1 2.3 3.1 4.5 4.4 3.8 2.4 4.2 3.2 10.7 21s7 18.8 12.1 23.9c3 3 5.6 5.2 5.8 5 0.1-0.1-0.5-4.4-1.5-9.3-2.2-11.5-4.2-41.6-3.4-52 0.5-7.8 4.1-25.5 5.1-25.5 0.3 0 0.2 4.2-0.1 9.2-0.9 11 0.8 32.4 2.9 37.3 2.9 7.1 5.9 3.3 7.7-9.8 1.3-10.3 0.5-38.6-1.4-44.7-1.8-5.7-4.3-6.4-6.3-1.8-1.8 4.1-1.8 4.4 0-13.7s1.9-24.5 0.4-24.5c-3.4 0-12.5-3.6-15.1-5.9-5.3-4.7-1.8-9 9.7-12.1 5.5-1.6 6-1.9 6.3-4.7l0.3-3-7-0.7c-11.7-1.2-11.6-4.6 0.2-6 5.3-0.7 5.7-0.9 5.8-3.4l0.1-2.7 0.9 2.6c0.9 2.5 1.5 2.7 9.4 3.4 4.6 0.4 9.1 1.2 10.1 2 1.6 1.2 1.6 1.3-0.5 2.4-1.2 0.7-5.3 1.5-9.2 1.8-6.9 0.6-7.7 1.1-6.3 4.6 0.4 1.1 2.3 1.3 9.7 0.9 16.1-0.8 34.7 2.9 39.2 7.8 1.2 1.3 1.5 2.7 1.1 4.4-1.3 5.1-13 8.8-31.8 10.1l-9.7 0.7 2.1 4.3c2 4 2.7 4.6 9 6.6 11.6 3.8 9.9-1.4 21.9 67.9 3.6 20.7 3.8 19.7 3.3-14-0.6-29.1-0.4-32.9 1.1-36.7l1.7-4.2 6.6 3.4c5 2.5 9.4 6.1 17.2 13.9 5.7 5.8 10.8 10.6 11.2 10.6 0.7 0 17.1-27 18.3-30.1 0.5-1.3-0.2-1.8-2.9-2.3-7.5-1.4-17.9-7.7-25.6-15.5-8.7-8.9-13.1-15.9-17.1-27.3-3.9-11.6-5.3-21.3-4.5-33.8 1-17.3 6.5-32.7 16.3-45.4l4.6-5.8-5.9 0.4c-3.4 0.3-10-0.3-15.4-1.3-17.2-3.2-33.2-5.9-34.9-5.9-0.9 0.1-8.3 2.3-16.6 4.9zm17.9 18.6c1.9 1.3 3.8 1.4 11.7 0.5 21.2-2.2 21.3-0.4 0.1 2.6-8.5 1.3-15.4 1.8-16.3 1.3-1-0.5-6.6 0.3-14.4 2.1-7.1 1.7-13 3-13.2 3-0.1 0-0.4 4.4-0.5 9.7l-0.3 9.8-2.8-10.8c-1.6-6-2.7-10.9-2.5-11.1 0.3-0.2 33.5-8.3 35.1-8.5 0.4-0.1 1.8 0.6 3.1 1.4z"/>
   <path d="m643 1159.9c-2.7 0.5-0.5 0.7 7 0.7 8.5 0 10-0.1 6.5-0.8-5.3-0.9-8-0.9-13.5 0.1z"/>
   <path d="m644.3 1175.6c1.8 0.2 4.5 0.2 6 0s0-0.4-3.3-0.4-4.5 0.2-2.7 0.4z"/>
   <path d="m743.5 1205c-1.9 0.5-12.9 1.8-24.5 2.9-30.6 2.9-42.4 4.8-45.9 7.3-1.6 1.1-5.1 2.2-7.7 2.5-4.3 0.4-4.7 0.7-5.1 3.4-0.3 1.6-0.2 3 0.1 3.2s4.1 0.1 8.5-0.3c6.5-0.6 8.2-0.4 10 1 2 1.6 3.4 1.6 23.1-0.2 11.6-1.1 21.9-2.4 23-2.9s4.4-1 7.3-1.2c4.3-0.2 5.3 0 5.8 1.4 0.6 2 1.9 2.1 8.9 0.4l5-1.2-0.2-4.4c-0.7-13.4-1-13.8-8.3-11.9zm-29.5 7.8c-2.3 2-8.5 3.1-17.6 3.1-5.9 0-9.9-0.4-9.9-1s2.6-1 5.8-1.1c3.1-0.1 8.4-0.5 11.7-0.9 8.9-1.1 11-1.1 10-0.1z"/>
   <path d="m484.5 1209.2c0 7.2 3.6 22 7.2 29.8 1.9 4.1 5.4 9.6 7.8 12.2 4.6 5.2 12.3 9.7 16.6 9.7 2.4 0 2.5-0.2 2-3.8-0.3-2-1.5-11.6-2.6-21.2-1.9-16.2-2.5-18.3-5.4-19.3-0.5-0.1-1.1-2.1-1.5-4.2l-0.6-4-7.5-1.1c-4.1-0.6-9.4-1.4-11.7-1.7l-4.3-0.5z"/>
   <path d="m517.9 1211.6c0.3 1.5 1.5 10.1 2.8 19l2.2 16.3h10.7l-0.6-5.3c-0.6-4.3-0.3-5.9 1.4-8.8 1.7-2.8 2-4.5 1.5-8.1-0.5-3.8-1.1-4.8-3.7-6-2.2-1-3.4-2.5-4.2-5.4-1-3.8-1.2-3.9-5.9-4.2-4.8-0.3-4.8-0.3-4.2 2.5z"/>
   <path d="m538.3 1211.6c-2.4 0.6-2.3 1.2 0.9 4.5 1.7 1.7 2.9 4.4 3.3 7.4 0.6 4.1 0.4 5.4-2 9.3-1.4 2.6-2.5 5.3-2.3 6.1 0.3 0.8 0.6 2 0.8 2.7 0.3 0.8 1.5 0.8 5.1-0.1l4.8-1.2 1.3-5.9c0.8-3.4 1.1-7.9 0.8-10.5-1.4-10.7-1.4-10.7-5.5-11.9-3.9-1.1-4.3-1.2-7.2-0.4z"/>
   <path d="m553 1226.1v12.4l3.8-0.7c2.1-0.3 3.9-0.8 4.1-1 1.8-2.1 3.9-8.3 4.3-12.8 0.6-6.8-1-8.8-7.8-9.7l-4.4-0.6z"/>
   <path d="m572 1219.8c-2.8 0.6-3 1-3.6 6.1-0.5 4.7-0.3 5.8 1.5 7.7l2.1 2.1 16.4-1.6c17.9-1.9 17.9-1.8 18-8.6 0.1-2.8 0.1-2.8-4.6-2.1-2.7 0.3-5.8 0.9-6.9 1.1-1.5 0.4-3.3-0.4-5.7-2.5-3-2.7-4.2-3.1-8.8-3-3 0.1-6.7 0.4-8.4 0.8z"/>
   <path d="m372 1234.8-3 0.7 2.5 0.7c4.7 1.3 11 0.8 11-0.8s-4.7-1.9-10.5-0.6z"/>
   <path d="m384.5 1235.4c0 1.2 1.3 1.5 6.3 1.4 3.4 0 7.1-0.4 8.2-0.8 1.6-0.7 1.4-0.9-1.4-1.4-6.3-1.3-13.1-0.8-13.1 0.8z"/>
   <path d="m387.6 1247.5c0 1.1 1.3 5.3 2.8 9.4l2.8 7.5 10.9-0.1c16.3-0.2 29.5-4.2 30.2-9.1 0.2-1.6-0.6-2.6-3-3.9-6.4-3.3-13.4-4.6-28.5-5.1-14.5-0.5-15.3-0.5-15.2 1.3z"/>
   <path d="m376.1 1248.4c-6 1.7-10.1 4.5-10.1 7.1 0 2.2 7.2 6.1 12.9 7.1l3.6 0.6v-8.2c0-4.4-0.3-8.1-0.7-8-0.5 0-3 0.7-5.7 1.4z"/>
   <path d="m653.5 1247.9c1.4 0.4 4.8 0.8 7.5 0.8 2.8 0 6.1-0.4 7.5-0.8 1.6-0.5-1.1-0.8-7.5-0.8s-9.1 0.3-7.5 0.8z"/>
   <path d="m619.7 1265.7-11.2 0.3-5.8 7.4c-5.2 6.8-6.1 7.4-10.8 8.5-8 1.7-9 3.5-9.8 16.5-0.4 6-0.9 14.3-1.3 18.2l-0.6 7.2 7-0.2 2.2-9.8c2.3-10.3 5.1-15.1 5.1-8.7 0 7.2-3 26.3-4.4 27.6-1.2 1.2-1.9 1.1-4.9-1.2l-3.4-2.6-0.7 6.1c-1 10.4-1 10.5 3.9 13.9 2.5 1.7 6.1 3.4 7.9 3.7 2.9 0.4 4 0 7.6-3.3l4.3-3.9-0.8 3.4c-0.5 2.4-0.3 3.6 0.6 4.2 2.6 1.6 4.9 0.9 8.9-2.7 4.1-3.7 4.8-3.8 3-0.4-1.4 2.6 1.2 5 5.5 5 2.3 0 4.3-0.9 6.4-2.9 2.6-2.4 3.1-2.6 3.1-1.1 0 3.6 1.2 5 4.1 5 2.8 0 3.3-0.7 9.4-13.3 8-16.4 11.8-31.6 11.9-47.2 0.1-9.9 0.1-10-2.4-10.3-1.4-0.2-5.2-2.9-8.5-6-3.3-3.2-8-7.5-10.5-9.7l-4.5-4zm32.2 21.3c2.2 0.8 4.1 1.9 4.3 2.6 0.7 2.1-4.1 4.2-12.2 5.4-4.4 0.6-8.1 1.2-8.3 1.4-0.2 0.1-1.9 6.7-3.8 14.6-5.2 21.7-5.3 21.9-7.1 21.9-1.6 0-1.6-1.5 0.3-10.8l0.7-3.2h-16l-1.2 6c-1.3 6.3-3.7 9.8-2.7 3.8 0.3-1.8 1.3-9.4 2.2-16.8s1.9-13.8 2.3-14.2c0.3-0.4 0.4 3.1 0.2 7.7l-0.3 8.5h3c2.7 0 3.2-0.5 4.6-4.3l1.6-4.2-1.2 8.6 8.6-0.6 2.2-8.5 2.1-8.5-10.6-0.7c-12.5-0.9-20-2.5-20.8-4.5-1.7-4.4 8.3-6.3 30.7-5.9 11.5 0.2 18.8 0.8 21.4 1.7z"/>
   <path d="m616 1287c-9.6 0.8-15.4 2.4-13.9 3.9 2.7 2.6 30.8 4.2 33.2 1.8 0.9-0.9 1.2-0.9 1.2 0.1 0 1.6 10.7 0.6 15.5-1.4l3-1.3-3-1.2c-2.7-1-6.8-1.5-22-2.3-2.7-0.2-9 0-14 0.4z"/>
   <path d="m529.2 1275.4c-8.8 7.6-22 12.5-33.8 12.5h-6.6l-3.6 12.7c-3.2 11.1-3.6 13.9-3.3 21.3 0.2 6.9 0.9 9.7 3.3 15l3.1 6.5 1.2-3c0.6-1.7 1.6-5 2.2-7.5s1.7-6.5 2.3-9c1.3-4.5 1.3-4.4 1.4 4.9 0.1 9.9 2.2 19.8 5.1 24.1 3.8 5.7 21.6 41.3 25.6 51l4.2 10.5 6.9 0.3 6.8 0.3 1.7-7.3c1.8-7.8 1.7-8-3.2-10.8-1.3-0.7-1.2-1.5 0.8-5.4 2.9-6.1 2.8-6.6-1-6.6-5-0.1-16.2-4.4-20.8-8-7.8-6.2-10.4-15.8-6.3-23.6 2.5-4.9 9.9-10.6 16.9-13l5.4-1.8v-10.6h8v-20h-9.8l-0.7-10.8c-0.4-5.9-1-13.9-1.4-17.8l-0.6-7.2zm14.3 42.5v8h-22v-16h22z"/>
   <path d="m886.5 1316.6c0 0.4-2.9 17.7-6.5 38.5l-6.6 37.8 2.4 4.3c1.4 2.3 4.4 7.8 6.7 12.2 2.4 4.4 8.1 14.9 12.7 23.4 4.5 8.5 8.3 15.7 8.3 16.1s-3 1-6.7 1.3c-3.8 0.4-8.6 1.6-11.2 2.9-3.9 2-4.6 2.7-4.6 5.3s0.7 3.3 5 5.5c4.4 2.2 6.3 2.5 16.2 2.5h11.1l5.6 10.3c3.1 5.7 5.6 10.7 5.6 11.1s-2.4 0.5-5.2 0c-12.3-1.7-16-1.9-15.1-0.6 0.5 0.7 4.7 5.9 9.3 11.7s8.7 11 9.2 11.6c0.4 0.6 1.2 19.9 1.8 42.9 0.5 23 1.1 41.9 1.3 42.2 0.8 0.7 12.8 2.5 13.3 2 0.3-0.3 1.1-28.4 1.7-62.4l1-61.9-4.1-6.1c-2.3-3.4-4.2-6.6-4.2-7.2 0-0.5-0.6-1.4-1.3-1.8-1.3-0.8-28.5-39.7-29.4-42.1-0.4-0.9 1.1-1.2 5.3-1.2 6 0 9.5-1.2 8-2.7-0.4-0.4-4.5-1-9.1-1.1l-8.3-0.4-6.3-9-6.2-9.1 0.7-38.3c0.3-21.1 0.4-38.4 0.1-38.4s-0.5 0.3-0.5 0.7zm25.5 96.3c0.4 0.6-3.7 1-11.5 1s-11.9-0.4-11.5-1 5.3-1 11.5-1 11.1 0.4 11.5 1zm14.5 45.3c3 0.7 5.5 1.6 5.5 2.2 0 2.9-23.3 4.6-34.5 2.5-6-1.1-6.8-1.6-5.4-3 2.8-2.8 24.2-3.8 34.4-1.7z"/>
   <path d="m529.9 1342.8c-9.4 4.3-16.1 13.2-15.1 20.3 1.3 9.7 15.4 19.8 27.7 19.8h3.3l-0.7-7.6c-0.6-6.3-1.1-7.9-3.2-9.7-2.1-1.9-2.5-3.3-3-11.2-0.9-15-1.1-15.2-9-11.6z"/>
   <path d="m420 1345.6c-1.6 4.4-2.6 33.7-1.6 49.8 0.9 15.1 1.9 20 3.7 18.3 0.3-0.3 1-3.9 1.6-8 1.1-7.8 0.5-55.7-0.7-59.6-0.9-2.6-2-2.8-3-0.5zm2.8 32.2c0 25.8-1.1 37.8-2.4 25.1-1.6-16.1-0.6-55 1.4-51.5 0.5 1 1 12.5 1 26.4z"/>
   <path d="m332.1 1347.6c0.3 1.6 1.5 10.7 2.7 20.4l2.2 17.7-3.2 1.8c-1.8 0.9-3.3 2-3.3 2.4 0 0.3 1.9 3.1 4.3 6.2 3.7 4.8 4.8 7.5 9.2 23.3l4.9 17.8-8.4 7.8c-4.7 4.3-8.2 7.8-7.7 7.9 0.4 0 3.4-1.1 6.7-2.4 3.3-1.4 6.1-2.1 6.4-1.8 0.2 0.4 1.5 4.3 2.9 8.7 2.3 6.9 4.5 14.7 12.3 42.2l1.5 5.3h9.7c9.4 0 20.8 1.8 26.5 4.1 1.5 0.7 3 0.9 3.3 0.7 0.4-0.4-2.7-9.1-7.1-20.1-0.6-1.3-0.2-1.7 1.9-1.7h2.6v-23h-7.3c-10.5 0-11.2-0.9-19-24.6l-6.3-18.9-5.1-2.5-5-2.4-0.7-8.1c-0.3-4.4-0.6-10.5-0.6-13.5-0.1-6.5-7.2-32.9-9.2-34.1-5.6-3.2-9.9-7.4-11.7-11.4-2.2-5.1-3.3-5.8-2.5-1.8zm65.4 128.8v9.5h-17v-19h17z"/>
   <path d="m493.5 1398.1c-2.8 4.6-5.8 15.8-4.3 15.8 0.6 0 1.5-2.4 2.2-5.3 1.3-6.2 4.5-11.7 6.6-11.7s4.2 3.6 5.9 10.4c0.9 3.2 1.8 6.1 2.1 6.4 2.8 2.8-1.7-13.3-4.6-16.4-3.1-3.3-5.5-3-7.9 0.8z"/>
   <path d="m379.9 1409.9c0.3 1.4 1.4 7.6 2.5 13.9 2 10.8 2.4 11.9 8.3 21 3.4 5.3 8.2 12.2 10.6 15.4 3.7 4.9 4.8 7.4 6.6 15.5 1.7 7.1 3.3 11.4 6.3 16.2 2.9 4.5 5.9 11.9 9.8 24.3 5.9 18.2 5.9 18.5 4 28.7l-0.7 3.5 3-3.4 2.9-3.4 1.2 3.4c0.6 1.9 1.7 8.8 2.5 15.4 1.3 11.2 10.7 55.3 12.4 58.3 2.2 4 32.1 12.1 37.5 10.2 1.6-0.5 7.2-1 12.3-1 6.1 0 11-0.6 14.1-1.7 2.7-0.9 7.3-1.5 10.4-1.4 5.6 0.1 5.6 0.1 6.3-3 0.3-1.7 0.6-5.8 0.6-9 0-5.6 0.1-5.9 2.4-5.9 2 0 2.8 1.1 5.1 6.5 1.6 3.6 3 6.5 3.2 6.5 1.6 0 6.2-3.7 8.5-6.9 2.4-3.4 2.7-4.6 3.3-18.1 0.7-13.7 0.5-15.9-3.1-39.5-3.8-24.3-3.9-25.6-3.5-47.6 0.3-23.4 0.3-23.9-5.5-53.2-0.3-1.6-0.9-2.6-1.2-2.2-1 0.9-9.1 20.5-8.5 20.5 0.3 0 1.8-0.9 3.3-2l2.8-2 1.6 5.2c1.4 4.8 1.3 5.9-0.5 15.2-2.1 10.4-6.9 43.8-6.4 44.4 0.2 0.2 2.2 0.6 4.4 0.9 2.3 0.3 4.1 0.9 4.1 1.2 0 0.4-2 1.7-4.4 2.8l-4.3 2.1-0.8 11.4c-0.4 6.2-1.2 11.9-1.7 12.5-0.8 1-6.5 1.3-22.3 1.3h-21.3l-0.7-3.3c-0.4-1.7-2.2-9.9-4.1-18-1.9-8.2-3.4-15.2-3.4-15.6s6.6-1.1 14.8-1.5c15.3-0.7 21.6-1.6 23.6-3.6 1.8-1.9-1.9-3.8-9-4.5-3.5-0.4-6.4-0.9-6.4-1.2 0-0.2 0.9-1.6 2-3.1 1-1.5 2.8-5.9 3.8-9.7 2.1-7.8 4.8-28.2 3.9-29.1-1.6-1.7-3.7 0.8-3.7 4.3 0 4.8-2.5 18.8-4 22.8-2.5 6.6-6.7 8.4-9.5 4.1-2.3-3.5-3.5-7.8-5.6-20.6l-1.8-11.5 0.5 9c0.6 11.3 2.6 21.1 5.8 28.1l2.5 5.4h-19.6l-2.1-9.8c-1.2-5.3-2.2-10-2.2-10.5 0-0.4 2.1-0.7 4.8-0.8 5.9-0.1 10.4-1.3 8.2-2.2-0.8-0.4-4.4-1-8-1.4l-6.4-0.8-5.2-22.5-5.1-22.5 13.1-0.7c7.2-0.3 13.3-0.5 13.5-0.3s0 2.5-0.3 5l-0.7 4.5h-5.8c-5.6 0-5.8 0.1-7.5 3.6l-1.7 3.6 2.3-0.5c1.3-0.3 4.7-0.9 7.6-1.3l5.2-0.7v4.7c0 2.5 0.5 4.6 1 4.6 0.6 0 1-2.2 1-4.9v-4.9l9.8-1.5c5.3-0.8 10-1.3 10.5-1 0.4 0.2 0.7 3.1 0.7 6.4 0 4.6 0.3 5.9 1.5 5.9s1.5-1.4 1.5-6.8v-6.9l9.8-1.6 9.7-1.6-19.2 0.8-0.7-7.7c-0.4-4.2-0.9-11.4-1.3-16l-0.6-8.2h-8.6l2 4.5c2.3 5.1 4.9 17.8 4.9 23.4v3.8l-5.2 0.7c-2.9 0.3-7.4 0.6-10 0.6-4.7 0-4.8 0-4.8-3.3 0-4.6 0.9-5.4 6.3-6.2 7.6-1.2 7.4-2.6-0.7-4l-3.9-0.6 0.7-4.7c0.3-2.6 1.7-6.8 3-9.5l2.3-4.7h-6.5l-0.8 9.1c-0.4 5.1-1.2 9.2-1.8 9.5-0.6 0.2-7.2 0-14.6-0.4l-13.5-0.7-1.1-5c-2.2-9.9-2.8-8.8-0.9 1.6l0.7 3.6-19.9 0.7c-20.9 0.7-27.4 1.5-27.3 3.1 0 1.8 5.7 2.5 27.2 3.3l21.2 0.7 3.3 19.5c1.7 10.7 3.5 20.9 3.8 22.6l0.6 3.2-6.1 0.7c-3.3 0.4-6 1-6 1.5 0 1.1 3.8 2 8.6 2h4.1l1.6 10c1 5.4 1.7 10.3 1.7 10.8s-3.4 1.2-7.5 1.5c-7.6 0.7-11.5 1.9-11.5 3.7s3.9 3 11.4 3.6c4.1 0.4 7.9 1 8.5 1.3 0.8 0.5 7.1 34 7.1 37.9 0 0.5-3 1.2-6.7 1.5-6.5 0.6-9.4 1.9-7.9 3.4 0.4 0.4 4.2 1.2 8.4 1.8l7.6 1.1 3.3 19.4c1.8 10.7 3.2 20 3.3 20.7 0 0.6-2.6 1.7-5.7 2.3-3.2 0.6-6.8 1.3-7.9 1.5-1.6 0.4-3.1-0.8-6.6-5.3-4-5.1-4.6-6.6-5.7-14.2-0.7-4.9-3.6-15.1-6.8-24.2l-5.5-15.8 1.9-11 2-10.9-10-8.7c-11.6-10.2-13.5-13.4-11.7-20.1 1.1-3.6 1-4.6-0.4-6.8-1.5-2.3-1.5-2.7 0.4-6.6 2.5-4.7 2.9-3.8-7.1-14.4-4.6-4.9-6.3-7.6-9-15-2.7-7.3-4.5-10.3-9.5-16-4.6-5.3-8.3-11.2-14.8-24-4.8-9.4-8.5-15.9-8.2-14.5zm76.4 33.7c0.4 1.5-24.2 1.8-36.3 0.5l-7-0.7 5.5-0.6c10.3-1.1 37.3-0.5 37.8 0.8zm27.7-0.7c1.9 0.7 1.9 0.8-0.5 1.4-4.4 1.2-25.3 0.2-25.8-1.2-0.3-0.9 2.5-1.2 12-1.1 6.8 0 13.2 0.4 14.3 0.9zm-14.7 80.4 0.4 2.9-4.9-0.7c-2.6-0.4-6.7-0.9-9.1-1.3-5.8-0.8-4.1-2.2 3.9-3.2 8.7-1.2 9.3-1 9.7 2.3zm41.5-1.8c1.5 0.4 2.7 1 2.7 1.4 0 1.4-5.3 2-21.2 2.7-9.1 0.3-15.8 0.2-15.8-0.3s-0.3-2-0.7-3.3l-0.6-2.4 16.4 0.6c9 0.4 17.6 1 19.2 1.3zm8.1 46c7.4 0.7 7.6 0.8 5.9 2.6-1.5 1.7-3.1 1.8-19.7 1.6-16.1-0.3-18.1-0.5-18.4-2-0.3-1.4 0.6-1.8 5-2.1 10.1-0.7 19.5-0.7 27.2-0.1zm-41.6 2.1c0.3 0.9-1.2 1.3-5.2 1.3-6.3 0-8.5-1.7-2.9-2.3s7.6-0.3 8.1 1zm41.5 7.5c-1.7 1.8-6 9.4-9.6 16.8-4.6 9.8-7.3 14.1-9.6 15.8s-3.2 1.9-3.6 1c-0.2-0.7-2-8.5-4-17.3s-3.9-16.8-4.1-17.8c-0.5-1.6 0.8-1.7 16.7-1.7h17.3z"/>
   <path d="m494.5 1409.9c-3.2 3.2-2.4 4 3.6 4 5.8 0 6-0.3 2.6-4.3-2-2.2-3.7-2.2-6.2 0.3z"/>
   <path d="m455.5 1416.9c-6.5 0.4-8 0.8-6.5 1.5 2.9 1.4 99.4 1.3 101.8-0.1 1.5-0.8-0.8-1.2-10.4-1.7-14.2-0.8-72.4-0.6-84.9 0.3z"/>
   <path d="m534 1423.1c0.4 1.3 1.7 6.2 2.9 11s2.4 9 2.8 9.3c0.3 0.3 1.1-3.6 1.7-8.7 0.7-5.1 1.5-10.3 1.8-11.6 0.5-2.1 0.2-2.2-4.7-2.2-5 0-5.2 0.1-4.5 2.2z"/>
   <path d="m820.1 1483.1c-0.4 11.2-1.1 28.6-1.6 38.8-0.6 10.2-1 22.5-1 27.3v8.9l-11 25.8c-6 14.2-11 26.4-11 27.2 0 0.7 6.4 16.5 14.2 35.2l14.2 33.8-3.4 2.9c-2.8 2.2-4.5 2.9-8.2 2.9-2.7 0-4.8 0.4-4.8 1 0 0.5 1.8 1 4 1s4 0.3 4 0.7c-0.1 2.3-2.3 3.4-8.3 4-9.1 0.8-8.7 3.3 0.5 3.3 3.2 0 3.9 0.3 3.6 1.7-0.3 1.5-1.7 1.8-9.1 2.1-11 0.4-10.7 2.2 0.4 2.2 6.1 0 7.9 0.3 7.9 1.4 0 0.9-1.8 1.6-5.5 2.1-6.5 0.8-6.4 2.5 0.1 2.5 3.7 0 4.4 0.3 4.4 1.9 0 1.4-0.8 2.1-2.7 2.4l-2.8 0.4 2.8 0.2c1.7 0 2.7 0.7 2.7 1.6 0 0.8 0 1.8 0.1 2.2 0 0.5-1 1.1-2.3 1.5-2.2 0.6-2.2 0.6 0.3 0.7 4.3 0.2 5.7 6.1 1.5 6.1-1.3 0-3.1 0.3-4 0.6-2.7 1.1-0.7 2.4 3.7 2.4 3.9 0 4.4 0.3 6.4 4 2.1 3.9 2.1 4.2 0.6 14.4l-1.5 10.3 2.6 4.2 2.7 4.2-18.7 26.6-18.6 26.6 2.3 1.8c1.3 1 12.6 8.7 25.1 17.1s22.8 15.6 22.8 15.9c0 0.4-2.5 2.6-5.5 5s-5.4 4.7-5.5 5.1c0 0.4 4.7-1.4 10.5-3.9s10.5-4.9 10.5-5.2-11-8.9-24.5-19-24.5-18.7-24.5-19.1 9-12.1 20-26 20-25.5 20-25.9-1.8-3.3-4-6.5c-3.9-5.5-4.7-8.6-3.4-13.3 0.5-1.8 1.1-2.1 3.7-1.7 5 0.8 11.6-3.1 15.7-9.4 3.3-5.1 3.5-5.2 8.1-5.2 4.9 0 7.2-1.3 4.3-2.4-0.9-0.3-3.1-0.6-4.9-0.6-3.1 0-3.3-0.2-2.6-2.7 0.5-2 1.6-3 3.7-3.4l2.9-0.7-2.7-0.1c-2.3-0.1-2.8-0.6-2.8-2.5s0.6-2.6 2.8-2.9l2.7-0.4-2.7-0.2c-2.1-0.1-2.8-0.6-2.8-2.1 0-1.7 0.7-2 4.4-2 6.2 0 6.6-1.7 0.7-2.5-2.8-0.4-5.2-1.3-5.5-2.1-0.4-1.1 1-1.4 7.9-1.4 5 0 8.5-0.4 8.5-1s-3.5-1-8.4-1c-8.1 0-9.6-0.6-9.6-3.6 0-0.2 3.3-0.4 7.3-0.4 14.9 0 15.4-2.5 0.7-3.6-8.4-0.5-10.2-1-11.1-2.5-0.9-1.8-0.5-1.9 7.6-1.9 5 0 8.5-0.4 8.5-1s-3.7-1-9.1-1c-8.7 0-9.3-0.1-12.5-3-1.8-1.6-5.1-3.2-7.1-3.5-2.1-0.4-4.2-0.8-4.8-1-0.5-0.1-6.3-14.3-12.9-31.5-9.8-25.9-11.7-31.6-10.8-33.5 1-2.2 1-2.2 20.8-1.7 16.6 0.4 19.6 0.3 19.2-0.9-0.4-0.8-4.7-11.2-9.8-23.3-5.9-14-9-22.7-8.7-24.2 0.5-2.9-4.8-99.2-5.5-99.9-0.3-0.3-0.8 8.6-1.2 19.7zm12.8 106.4c4.2 9.5 7.6 17.6 7.6 18.1 0 0.8-8.7 0.8-23.7-0.3-4.6-0.3-8.3-0.9-8.3-1.3s3-7.7 6.6-16.1c3.6-8.5 7-16.6 7.6-18 1.2-3.1 0.5-4.2 10.2 17.6zm2.9 94.1 3.2 1.8-4.2 0.3c-2.4 0.2-6.2 0.2-8.5 0l-4.3-0.4 3.5-1.6c4.5-2.2 6.4-2.2 10.3-0.1zm6.5 5.5c0.7 0.7 1.2 1.6 1.2 2s-5.9 0.8-13 0.8c-12.8 0-13 0-11.8-2 1.2-1.8 2.4-2 11.8-2 6.9 0 11 0.4 11.8 1.2zm4 9c0.3 1.7-1 1.8-15.7 1.8-8.9 0-16.1-0.2-16.1-0.4s0.3-1.2 0.6-2c0.6-1.4 2.6-1.6 15.8-1.4 13.4 0.3 15.1 0.5 15.4 2zm1.6 5.3c0.5 1.3-1.8 1.5-16.9 1.5-14.9 0-17.5-0.2-17.5-1.5s2.5-1.5 16.9-1.5c14.1 0 17 0.2 17.5 1.5zm0.6 6.5c0 1.9-0.7 2-17.5 2s-17.5-0.1-17.5-2 0.7-2 17.5-2 17.5 0.1 17.5 2zm-0.2 5.2c0.3 1.7-1 1.8-17.2 1.8-17 0-17.6-0.1-17.6-2 0-2 0.5-2 17.2-1.8 15.5 0.3 17.3 0.5 17.6 2zm-1.2 6.4c-0.3 0.9-0.6 2-0.6 2.5 0 0.6-6.3 0.8-15.7 0.7-15.5-0.3-15.8-0.3-16.1-2.6l-0.3-2.2h16.6c14.8 0 16.6 0.2 16.1 1.6zm-2.6 7.4c0 0.6-2 3.1-4.5 5.5-3.9 3.9-5 4.5-8.7 4.5-2.4 0-5.5-0.8-7-1.8-3-2-6.8-6.5-6.8-8.1 0-0.7 4.4-1.1 13.5-1.1 8.6 0 13.5 0.4 13.5 1z"/>
   <path d="m475.7 1472.8c-1.9 1.2 7.1 2.1 20.9 2.1 14.3 0 25.1-1 22.4-2.1-2.7-1-41.7-1.1-43.3 0z"/>
   <path d="m363.5 1507.6c0 0.5 1.2 4.9 2.6 9.8 1.5 5 4.1 16.3 5.9 25.3 1.8 8.9 3.4 16.4 3.6 16.6 0.5 0.4 14-1.2 14.5-1.7 0.2-0.2-0.3-5.2-1.1-11.3-2.3-17.6-3.1-15.8 8.6-19.5 9.8-3.1 10-3.3 9.4-5.8-2.4-9.6-10.2-13.1-30.7-13.9-7.4-0.2-12.8-0.1-12.8 0.5z"/>
   <path d="m380.2 1560.6c-4.2 0.4-4.7 0.6-4.2 2.6 0.2 1.2 1.4 7.1 2.5 13.2 3.9 20.5 3.8 20.2 8.1 22.7 3.7 2 3.9 2.4 5.1 9.6 0.7 4.1 1.7 7.6 2.3 7.8 1.7 0.6 35.9 6.4 37.8 6.4 3.2 0 1.9-7.6-5.2-32.5l-6.9-24-4.9-0.3c-4.8-0.2-4.8-0.2-8.1 4.8-3.2 5-3.2 5-8.6 5h-5.4l-0.7-5.8c-0.3-3.1-0.9-6.7-1.2-8-0.5-2.3-0.2-2.3-10.6-1.5z"/>
   <path d="m931.1 1615.9c5.2 9.9 9.4 18.2 9.4 18.4s-2 0.7-4.5 1c-7.8 1.2-4.5 4.6 4.5 4.6 2.6 0 3.4 1 8.3 10.4l5.5 10.4 1.1 15.7c0.6 8.7 1.1 18.7 1.1 22.2v6.3h-4.5c-6 0-5.8 1.8 0.3 2.2 4.7 0.3 4.7 0.3 5 4.1l0.3 3.7 5.4-3.9c8.2-5.8 9.6-5.1 15.1 6.7 2.4 5.2 4.4 9.8 4.4 10.3 0 0.4-2.4 1.1-5.3 1.4-11 1.4-10.1 4.5 1.5 5.3l7.4 0.4 11.7 25.7 11.8 25.6 18.4 10 17 33.7c9.4 18.6 17.3 33.8 17.7 33.8s0.5-0.6 0.3-1.3c-0.3-0.6-2.9-14.5-5.9-30.8l-5.4-29.6-24.1-39.7c-13.3-21.9-24.1-40.2-24.1-40.7s3.6-0.9 7.9-0.9c4.4 0 8.6-0.3 9.5-0.6 2.7-1.1 0.7-2.4-3.7-2.4-2.3 0-7.2-0.3-10.8-0.6-6.5-0.6-6.6-0.7-9.2-5.1-1.5-2.4-2.7-4.6-2.7-4.8 0-0.3 2.9-0.5 6.5-0.5 3.7 0 6.5-0.4 6.5-1s-3.1-1-7.4-1h-7.4l-5.6-9.3-5.6-9.2 9.2-0.3c16.5-0.4 14.9-2.9-2-3.1l-9.2-0.1-2.8-4.7c-1.5-2.5-7.5-11.9-13.4-20.7l-10.7-16.1 9.5-0.6c12.6-0.9 18.4-1.8 18.4-3 0-1.9-5.4-2.9-19.3-3.5l-14.2-0.7-12-17.8c-6.6-9.8-12.3-17.8-12.6-17.9-0.4 0 3.6 8.1 8.7 18zm44.9 20.9 3 0.7-3.7 0.7c-2 0.4-10.7 0.8-19.3 0.8s-17.3-0.4-19.3-0.8l-3.7-0.7 3-0.7c1.7-0.4 10.7-0.7 20-0.7 9.4 0 18.4 0.3 20 0.7zm33.8 82.8c-2.9 0.2-7.8 0.2-11 0s-0.8-0.3 5.2-0.3c6.1 0 8.7 0.1 5.8 0.3zm-13.9 12.2c0.8 1.3-10.8 2.3-18 1.5-3.5-0.3-6.1-1-5.8-1.5 0.7-1.2 23.1-1.2 23.8 0z"/>
   <path d="m693.2 1624-7.7 20.1 9 12.6-3.5 24.5c-1.9 13.5-3.5 25.1-3.6 25.9 0 0.7-0.7-0.2-1.5-2.1-0.8-1.8-1.7-3.2-1.8-3-0.7 0.7-14.6 33.3-14.3 33.5 0.1 0.1 3.3-1.1 7-2.7 3.8-1.7 7.1-2.9 7.3-2.6 0.4 0.3-8.4 29.6-9.1 30.5-0.2 0.2-1.9-0.1-3.9-0.6-5.1-1.5-10 0.2-13.3 4.3-2.2 2.7-3.6 3.5-6.3 3.7l-3.5 0.1 3.3 0.4c2.5 0.3 3.2 0.8 2.8 2-0.3 0.8-0.6 2.4-0.6 3.4 0 1.3-1 2.4-3 3-3.1 1.1-3.2 2.9-0.2 2.9 1.2 0 2.3 1.9 3.8 6.7l2.1 6.7-7.7 12.6-7.7 12.5 6.8 9c3.8 5 6.9 9.3 6.9 9.7 0 0.5-3.9 7.8-8.6 16.4s-8.4 15.7-8.2 15.9c0.3 0.3 17.5-19.8 24.6-28.6l2.3-2.9-4-9.1c-2.3-5-4.1-9.7-4.1-10.3s2-5.2 4.4-10.2c4.3-8.9 4.5-9.1 8.4-9.7 3-0.5 4.9-1.7 7.8-4.9 2.1-2.4 4.9-4.5 6.3-4.8 3.4-0.7 4-3 0.7-3-2.1 0-2.6-0.5-2.6-2.5 0-1.6 0.7-2.8 1.8-3.1 4.5-1.5 4.7-1.7 1.5-2.7-2.5-0.7-3.3-1.6-3.3-3.3 0-1.2-0.3-2.9-0.6-3.8-0.4-1.2 0-1.6 1.7-1.7s1.9-0.3 0.7-0.6c-1-0.2-1.8-0.6-1.8-0.9 0-0.2 3.2-7 7-15 3.9-8.1 7-15.1 7-15.6 0-0.6-1.8-6.7-4-13.7l-4.1-12.6 6-24c8.5-34.2 8.2-30.4 2.4-37.2l-5-5.8 5.3-19c3-10.5 5.3-19.4 5.1-19.8-0.1-0.5-3.7 8.3-8 19.4zm-19.1 140.6 2.9 2.8-8.9 0.3c-4.9 0.2-9.1 0-9.5-0.3-0.3-0.4 0.8-1.8 2.4-3.1 4.2-3.4 9.3-3.2 13.1 0.3zm4.5 6.9c2.1 5.2 1.8 5.3-11.1 5.3-12.8 0-13-0.1-11.1-5.1 0.8-2.2 1.3-2.3 11.2-2.2 9.2 0 10.3 0.2 11 2zm0.9 11.3c0 1.5-1.1 1.9-7.1 2.5-3.9 0.3-7.6 0.9-8.1 1.2-1.9 1.2 1.7 2.4 7 2.4 6 0 6.7 1.3 2.6 5.1-3.2 3-9.3 3.2-12.4 0.4-2.7-2.5-6-8.7-6-11.5 0-1.9 0.6-2 12-2 11 0 12 0.2 12 1.9z"/>
   <path d="m401.9 1633.3c3 5.1 3.1 5.6 1.2 5.6-1.4 0-2.6 2.9-2.6 6.6 0 1.4 1.2 2.6 3.8 3.8l3.7 1.8-6.3 2.5-6.3 2.6 0.3 5 0.3 5.1 4.5 1.3c3.4 1.1 8.8 1.2 22.8 0.7 10-0.4 18.2-1 18.2-1.4s-0.8-3.1-1.8-6.1c-1.1-3-2.9-9.5-4.2-14.4-1.2-5-2.4-9.1-2.4-9.2-0.4-0.4-31.1-8.3-32.4-8.3-1 0-0.6 1.3 1.2 4.4z"/>
   <path d="m459.5 1673.2c0 2.3 1.1 4.8 3.4 7.8 2.2 2.9 3.6 6 4.1 9.2 0.5 3.9 1 4.7 2.3 4.3 8.7-2.6 10.9-2.6 27.4-0.7 14.8 1.8 18.2 1.9 31.2 0.8l14.6-1.1v-7.9c0-4.3-0.3-7.7-0.7-7.5-0.5 0.2-2.5 1.2-4.7 2.3l-3.8 2-8.7-4.6-8.6-4.6-8.6 0.9c-8.1 0.9-9 0.8-14.8-1.6-5.5-2.4-7.3-2.6-19.6-2.6h-13.5z"/>
   <path d="m411.3 1678.4c1.6 4.4 2.2 5 8.2 7.7 5.7 2.6 7.9 3 19.8 3.5l13.4 0.6-2.4-3.9c-1.4-2.1-5.1-5.7-8.2-7.9l-5.8-4-13.4-0.3-13.4-0.4z"/>
   <path d="m443.5 1699.7c0 2.6 0.6 3 6.6 4.9 7 2.3 7.9 2 7.2-2.8-0.2-2-1.3-2.5-6.3-3.6-3.3-0.7-6.3-1.2-6.7-1.3-0.5 0-0.8 1.3-0.8 2.8z"/>
   <path d="m491.3 1701.6c-2.4 0.6-2.3 1.2 0.9 4.5 2.6 2.7 3 2.8 13.4 2.8 10.6 0 10.7 0 14.7-3.3 2.3-1.7 4.1-3.5 4.1-4 0.1-0.7-30.1-0.8-33.1 0z"/>
   <path d="m532.7 1723.6-4.2 1.5 4.6 5.3 4.6 5.4-7.2 4.7c-11.7 7.5-25.9 13.1-38 14.9-2.5 0.4-5.4 0.9-6.4 1.2-1.8 0.5-1.9 0-1.4-11.1 0.3-6.4 0.3-11.5 0.1-11.2-0.3 0.3-1.7 5.3-3.2 11.3l-2.7 10.8-5.5 0.3c-10 0.6-27.8-3.1-39.6-8.3-6-2.7-6-1.8-0.4-13.4 1.7-3.6 2.9-6.7 2.6-6.9-0.2-0.2-2.1 0.6-4.3 1.8-3.2 1.8-4.3 3.2-5.8 7.6-1.1 3.4-2.3 5.3-3 5-3.3-1.3-9.9-6.1-15.7-11.6-6.1-5.6-8.7-7.2-8.7-5.1 0 1.4 13 13 18.8 16.8 2.8 1.8 5.2 3.8 5.2 4.2 0 0.5-2.7 8.9-6.1 18.6-3.3 9.7-5.9 17.9-5.7 18.1s3.9-7.5 8.3-17.1c4.3-9.6 8-17.5 8.3-17.5 0.2 0 4.3 1.5 9.1 3.4 10 4 20.3 6.3 32.6 7.2l8.7 0.7-0.6 2.9c-2 9.6-2 9.1 0 8.4 3.2-1 27.8-6.5 28-6.3 0.1 0.1-3.6 8-8.2 17.6s-8.3 17.6-8.1 17.7c0.2 0.2 6.3-9.1 13.6-20.7 7.3-11.5 13.2-21.2 13-21.3-0.2-0.2-6 0.7-12.9 2s-13.7 2.6-15.2 2.8c-2.4 0.5-2.8 0.2-2.8-1.8 0-2.1 0.6-2.4 5.8-3 13.5-1.6 30.9-8.3 43.2-16.6l6.3-4.3 5.1 5.4c14.3 15.2 17.8 18.9 18.1 18.9 0.2 0-3.3-6.2-7.7-13.8-4.4-7.5-8.3-14.3-8.5-14.9-0.3-0.7 0.9-3 2.6-5.2 3.5-4.4 3.7-5.1 1.7-5.1-0.8 0-2.4 1.3-3.6 3-1.2 1.6-2.5 3-2.9 3s-1.6-1.6-2.7-3.5c-2-3.9-2.9-4-9.2-1.8z"/>
  </g>
 </g>
</svg>
