<?xml version="1.0" encoding="UTF-8"?>
<svg width="660.75" height="1024" version="1.0" viewBox="0 0 495.57 768.01" xmlns="http://www.w3.org/2000/svg" xmlns:cc="http://creativecommons.org/ns#" xmlns:dc="http://purl.org/dc/elements/1.1/" xmlns:rdf="http://www.w3.org/1999/02/22-rdf-syntax-ns#">
 <title>Anticipation of Almalexia Fresco</title>
 <metadata>Created by potrace 1.12, written by Peter Selinger 2001-2015
  <rdf:RDF>
   <cc:Work rdf:about="">
    <dc:format>image/svg+xml</dc:format>
    <dc:type rdf:resource="http://purl.org/dc/dcmitype/StillImage"/>
    <dc:title>Anticipation of Almalexia Fresco</dc:title>
    <dc:date>2021-10-16</dc:date>
    <dc:creator>
     <cc:Agent>
      <dc:title>TheMyzel</dc:title>
     </cc:Agent>
    </dc:creator>
   </cc:Work>
  </rdf:RDF>
 </metadata>
 <g transform="matrix(.045565 0 0 -.045565 -23.419 853.67)">
  <path d="m4824 18702c-22-21-65-73-96-117-52-76-56-86-76-196-13-67-22-158-22-212 0-96-21-219-47-269-18-37-33-78-29-78 3 0 31 51 65 113l60 113-11 76c-14 111 21 355 59 405 14 18 28 32 30 29 2-2-1-25-8-51-11-42-10-51 12-96 13-28 28-48 35-45 13 5 24-56 25-148 0-52 7-74 43-146 44-85 44-85 57-57 7 15 15 27 18 27 20 0 52-134 74-300 19-149 22-212 18-325-6-131-5-141 15-165 12-14 23-32 26-40 3-10 13-1 33 28 15 23 30 40 32 38 3-3 6-58 7-124l2-119 67-121c78-139 124-271 133-385 7-82 7-82 55-63 14 6 17-7 22-91 13-186 4-269-49-468-13-50 17 17 51 115 36 104 36 107 33 238-2 72-1 132 2 132 11 0 100-97 148-163 267-360 306-860 101-1268-128-256-322-436-588-546-96-40-96-40-106 49-4 32-10 60-14 63-4 2-16-49-26-115l-18-118 71-80c47-51 72-87 72-103 0-51 7-52 148-27 72 12 129 24 127 27-3 2-43 10-90 17-88 13-105 23-222 128-18 17-28 86-13 86 21 0 180 71 247 110 285 165 485 450 563 805 25 115 31 343 11 456-29 173-103 359-199 503-25 39-88 114-139 167s-93 103-93 112c0 21-21 67-30 67-4 0-11-15-14-33-3-19-13-42-22-53-14-18-15-14-11 41 9 119-58 339-144 478-30 49-33 60-39 172-7 128-10 139-48 198-29 44-35 43-22-1 6-23 4-47-7-84-14-50-16-51-30-33-12 16-14 43-10 135 3 88-2 170-24 348-31 254-43 306-86 379l-28 48-5-62c-9-114-25-85-59 107-26 146-28 215-7 264 22 53 21 55-19 16-20-19-35-44-35-57s-4-23-10-23c-28 0 5 171 51 262 17 33 29 61 27 63s-21-13-44-33z"/>
  <path d="m4458 17817c-6-142-22-191-139-415-44-85-69-144-69-165 0-27 11-11 61 88 33 66 87 171 120 232 55 105 59 118 59 179 0 74 8 76 46 6l25-47-7 50c-6 49-41 129-74 172-17 22-18 19-22-100z"/>
  <path d="m7655 17410-160-89-48-117c-26-64-46-118-45-120 2-1 29 46 61 105l57 108 152 69 153 69 185-2 185-1-156 27c-85 16-171 31-190 34-30 5-55-5-194-83z"/>
  <path d="m8216 17409c11-13 61-69 110-124l91-100 117-270c96-221 133-294 205-405 48-74 122-190 164-256l77-122 126-41c70-23 127-41 128-39s24 29 50 61c27 31 46 57 44 57-3 0-25-16-49-35-38-30-51-35-99-35-54 0-57 1-165 88-133 107-173 163-275 382-57 123-86 204-141 395-38 132-69 241-69 242 0 2-75 53-167 114-93 62-159 101-147 88z"/>
  <path d="m4167 17163c-9-165-31-242-104-355-89-138-120-197-132-256-18-87-12-91 20-13 16 41 64 124 105 185 91 133 144 265 144 361l1 60 34-40c19-22 35-38 35-35 0 29-35 117-62 159l-35 51z"/>
  <path d="m7321 16994c-12-15-21-29-21-33 1-3 53-39 116-79 126-79 169-90 185-45 7 19-2 31-69 86-46 38-97 71-126 80-63 22-61 22-85-9z"/>
  <path d="m6896 16944c-80-13-101-21-224-91-114-64-154-93-242-177-58-56-139-146-179-201-70-94-77-108-132-274-33-97-59-181-59-189s8-12 21-10c16 2 41 47 119 216l99 213 103 110c98 106 108 113 220 170l117 59 125-29c68-16 129-32 135-35 6-4 47-59 91-123l80-117v-329l-71-84c-39-46-69-86-67-89 3-2 46 10 97 27 76 26 107 43 185 104 108 84 116 89 254 140 57 21 106 44 109 51 3 8-4 68-15 135-20 118-23 123-88 227-64 103-70 110-172 181l-105 74-135 28c-151 32-143 32-266 13z"/>
  <path d="m7803 16921c-61-14-114-28-117-31-2-3 53-4 123-2l127 4 89-42c78-36 99-52 153-114 50-56 74-95 114-186 40-93 71-143 159-260s122-154 175-190c36-25 129-94 205-154l140-108 130 11 130 12 107 68 107 67 51 99 52 99-45 89c-24 49-42 95-39 102 2 7 25 29 49 49l46 37 84-16 84-17 72-92 71-91v-131l-70-52c-47-35-72-48-75-40-3 7-23 67-46 133-38 112-39 120-23 132 10 7 20 13 23 13s30-34 60-75 56-73 59-71c6 6-109 198-116 194-80-40-82-42-81-72 0-17 10-92 22-166l22-135 118-78 82 89c46 49 81 91 79 93s-43-28-91-66-93-73-100-76c-19-12-50 52-68 141-9 46-15 85-13 87 2 3 19-40 37-95 17-55 37-102 43-106 5-4 42 26 82 65l72 72 26 200-78 82c-43 45-85 90-94 100-16 17-21 17-106 1-49-9-119-25-156-36-83-24-83-27-32-175l36-103-19-87-18-86-129-54c-126-52-131-53-227-53h-99l-156 87-155 87-153 206c-218 293-278 384-322 482l-38 86-97 51c-56 30-109 51-126 50-15-1-78-13-140-28z"/>
  <path d="m6640 16690c-88-50-123-78-217-172l-112-113-95-203c-53-111-96-204-96-207s6-5 13-5 50 75 95 168l82 167 125 78c69 42 133 77 143 76 9 0 80-21 157-47l140-47 59-105 58-105-7-110c-4-68-3-106 3-100 5 6 41 46 79 90l70 80 6 157 7 158-80 117-81 118-107 32c-59 18-114 32-122 32s-62-27-120-59z"/>
  <path d="m4595 16592c-59-54-155-170-155-187 0-8-6-15-14-15-24 0-67-42-98-96-19-34-48-67-77-86-79-55-91-73-91-137 1-124 46-239 94-240 34-1 140 66 216 136 77 72 142 162 200 281 19 39 37 72 40 72 9 0 85-120 119-188 37-74 256-302 290-302 43 0 80 109 81 237 0 71-1 73-36 105-20 18-42 36-49 41-8 4-23 32-34 62-26 68-49 105-67 105-7 0-21 12-31 26-43 62-164 204-182 214-11 5-53 10-93 10-70-1-75-2-113-38zm205-174c0-5 9-6 20-3 12 4 20 2 20-5s8-9 20-5 20 2 20-5 8-9 20-5c11 4 20 2 20-4s-4-11-10-11-9-21-8-47l1-48 4 42c3 30 10 46 24 54 22 11 42 3 22-9-12-8-22-102-11-102 4 0 8 21 10 48 2 33 7 46 16 44 8-1 11 2 7 8-3 5 1 10 9 10s17-9 21-20c3-11 9-19 13-17 10 3 11-15 1-41-12-30-11-42 1-42 6 0 10 15 10 33 1 30 1 31 15 13 12-16 22-76 13-76-2 0-25 7-52 15-26 8-52 12-56 10-5-3-12 0-15 6-4 5-13 8-21 5-19-7-47 50-40 79 3 13 2 27-4 30-14 8-13-51 1-77 12-23 4-37-12-21-6 6-17 9-24 7-17-7-29 14-17 29 13 17 23 77 12 77-5 0-10-17-12-37-2-25-8-37-16-35-8 1-11-2-8-7 4-5 2-12-3-15-14-9-24 13-13 27 14 18 23 77 12 77-6 0-10-16-10-35 0-24-6-37-20-45-19-10-20-9-15 14 3 15 8 38 11 54 4 18 2 24-5 17-5-5-11-26-13-45-2-27-7-34-21-32-10 2-25-2-32-8-8-7-19-9-24-6-5 4-13 2-16-4-4-6-16-8-27-4-13 4-18 2-14-4 8-13-11-19-51-16-18 1-30-2-27-7 7-11-17-11-34 0-8 5-18 24-22 42l-8 34-1-32c-1-17 4-35 9-38 17-10 11-28-7-21-9 4-20 2-23-5-4-6-7 8-7 30s-6 48-13 56c-10 12-10 19-2 27s12 8 12 2 6-11 14-11 12 6 9 14c-3 7 2 13 12 13s14-5 10-12 1-4 10 7c13 16 19 18 35 7 16-10 18-9 14 3-8 20 20 20 36 0 7-8 12-33 12-56-1-23 2-38 6-34 8 7 10 94 2 92-3-1-6 3-8 8-1 6 14 10 33 11 19 0 37 3 40 5 8 9 145 5 145-3zm-396-74c11-4 16-19 16-44 0-50-15-60-18-12-2 20-7 39-12 40-6 2-10 8-10 13 0 11 3 11 24 3zm-14-59c0-34-13-47-23-22-3 6-6 3-6-7-1-14-4-17-11-10s-5 21 6 42c20 42 34 41 34-3z"/>
  <path d="m4660 16370c0-22 3-40 8-40 4 0 6 18 4 40s-6 40-8 40-4-18-4-40z"/>
  <path d="m4703 16375c0-22 2-30 4-17 2 12 2 30 0 40-3 9-5-1-4-23z"/>
  <path d="m4620 16362c0-23 4-42 9-42 6 0 7 17 4 38-8 51-13 53-13 4z"/>
  <path d="m4500 16335c0-19 5-35 10-35 6 0 10 16 10 35s-4 35-10 35c-5 0-10-16-10-35z"/>
  <path d="m4541 16336c-1-26 2-37 9-30 6 6 6 21 1 39-9 30-9 30-10-9z"/>
  <path d="m4977 16313c-2-21 0-42 4-47 5-6 9 10 9 37 0 57-6 61-13 10z"/>
  <path d="m9332 16587c-33-33-44-54-52-96-10-52-9-57 25-116 33-59 34-66 28-129-3-36-3-66 0-66s16 31 28 69l22 69-25 43c-14 24-29 69-33 99-6 52-5 57 27 93 31 35 38 38 126 51 51 7 96 16 99 20 4 3-41 6-98 6h-105z"/>
  <path d="m9665 16580c68-32 96-54 188-147l107-108-10-75c-16-125-9-141 16-37l24 99-46 86c-46 85-53 93-161 172-28 20-139 50-183 49-8 0 21-18 65-39z"/>
  <path d="m3793 16575c3-11 18-58 32-104l25-85-30-35c-288-343-379-768-255-1196 90-310 330-595 621-739 49-24 106-49 127-56 50-16 48-34-13-125-27-41-50-77-50-80 0-4 28 16 63 43 70 55 107 77 107 63 0-5-16-46-35-92-20-45-34-83-33-85 2-1 35 39 74 90l71 92-10 100c-12 102-23 98-26-8-1-48-1-48-36-48s-35 0-36 48c0 54-31 237-41 248-4 3-4-42-1-101l6-108-29 7c-48 12-202 93-272 143-37 25-103 83-147 127-230 232-347 520-347 851 0 208 43 383 138 563 42 81 134 215 141 208 2-2-1-41-7-87-19-155-14-234 21-322 17-43 33-76 35-74s-7 61-19 133l-24 129 23 105c13 58 23 133 24 168 0 61 0 62 25 56 14-3 25-3 25 0 0 5-131 171-148 186-3 3-2-4 1-15z"/>
  <path d="m6444 16380-120-70-77-161c-98-206-93-223 32-115 57 49 92 71 148 91l73 26 221-97c174-76 223-93 230-83 5 8 9 55 9 106v91l-60 104-59 104-120 37c-66 20-128 37-138 37s-72-31-139-70z"/>
  <path d="m7624 16197c-156-65-250-110-315-153-88-57-102-63-209-84-90-18-123-29-151-52l-35-28 35-73c31-61 37-85 41-162l5-90 106 194 106 195 274 113c259 107 283 115 432 143 88 17 162 30 166 30 9 0-11-85-22-96-4-4-10 7-13 25-10 50-37 37-48-24-9-49-11-52-103-119-88-64-95-67-112-52-15 14-20 14-30 3-6-8-14-27-17-43s-16-37-29-46c-22-17-24-16-78 22-43 31-65 40-97 40-37 0-48-6-101-57-45-43-59-63-59-85v-28l-39 19-39 20-18-20c-18-20-18-22-2-33 16-12 14-16-16-45-32-31-35-32-44-14-9 14-15 16-29 7-13-8-19-26-21-62-3-44-8-56-35-79-33-28-33-28-27-103l5-75 62 120 61 120 69 34c37 19 82 50 100 68l32 33-6-37c-11-74-59-130-119-139-46-7-52-12-33-31 23-23-1-71-53-110-28-20-47-38-42-40 5-1 50 8 99 21 88 22 90 24 88 51-3 37 13 65 37 65 16 0 20-7 20-32 0-18 3-42 6-54 5-18-10-25-177-77-101-31-185-55-187-52-3 2-17 46-32 97-16 51-30 86-33 78-11-31-40-291-33-297 4-4 101 24 215 62l209 69 89-37c49-20 93-37 98-37s-19 20-53 45-62 47-62 49c0 3 22 12 48 20l48 16 169-70c92-38 170-68 172-66 2 1-51 36-118 77-67 40-123 78-126 85-2 6-21 14-42 18l-39 6 14 37c7 21 13 49 13 63-1 14-6 3-13-25-7-33-17-51-28-53-27-5-42 68-42 208 0 130 14 210 38 210 14 0 36-49 36-80 0-16 4-16 64 0l63 18 7-71c16-177 73-153 83 35l6 99 79 72c43 40 83 74 89 75 5 2 9-28 9-70 0-155 51-204 60-58 1 22 7 1 15-53 13-89 24-115 44-103 24 15 35 96 35 262 1 136 4 175 16 189 14 17 14 17-7 7-17-9-22-9-27 4-11 29-6 32 89 49 53 10 95 19 93 20s-106 5-233 8l-230 5zm477-30c-8-8-11-5-11 9 0 27 14 41 18 19 2-9-1-22-7-28zm-71-31c0-14-4-28-10-31-6-4-10 7-10 24s5 31 10 31c6 0 10-11 10-24zm96-43c8-64-2-262-15-308l-8-30-11 40c-16 55-16 327 0 343 21 21 26 13 34-45zm-91-192c-4-35-11-59-15-55-5 5-12 51-16 102-6 82-5 94 12 113 19 21 19 21 22-37 2-33 0-88-3-123zm-265 25c-14-14-22-2-14 18 5 14 9 15 15 4 4-7 4-17-1-22zm-250-75c0-11-7-27-16-36s-29-41-45-72c-29-56-35-55-23 6 4 18 13 31 21 31 12 0 13 3 5 13-8 9-4 21 14 45 29 36 44 41 44 13zm267-83c-2-51-8-101-12-112-7-16-9-17-17-2-5 9-12 48-15 86-5 64-4 73 17 95 13 14 26 25 28 25 3 0 2-42-1-92zm-310-75c-3-10-5-2-5 17s2 27 5 18c2-10 2-26 0-35zm33-165c5-24 12-51 15-60 6-15 2-18-20-18-23 0-26 3-21 23 3 12 6 42 6 66 0 53 9 48 20-11zm-34-35c-6-46-20-73-31-61-3 3-8 28-12 57-6 51-6 51 22 51 27 0 28-1 21-47z"/>
  <path d="m4665 16188c-67-157-180-280-332-362-51-28-52-29-36-52 11-17 14-38 11-69-6-48 0-52 47-39 16 4 21 14 21 43 1 21 9 49 18 63 9 13 13 28 9 32s1 4 11 0c14-5 17-4 12 4-12 20 29 14 57-9 32-25 50-84 38-125-8-29-6-31 36-52 37-18 44-19 39-6-3 9-9 33-12 55-4 21-12 39-18 39s-5 4 3 9c9 6 14 42 16 137 3 141 15 187 62 237 52 53 131 31 171-49 20-39 33-118 27-161-8-58-25-54-25 5 0 103-46 192-100 192-57 0-93-78-89-195 2-63-1-86-14-105-20-29-24-139-5-173 6-12 31-42 54-67l43-45 43 42c24 23 71 55 105 71 47 22 59 32 52 43-25 40 7 111 56 123 15 4 37 0 53-8 26-14 28-13 44 13 15 28 15 28-34 70-27 24-87 86-135 139-69 77-95 117-131 195-25 53-48 97-51 97s-24-42-46-92zm94-179c35-38 44-173 16-244-14-35-14-38 0-21 13 17 15 17 15 3 0-18-30-37-75-47-23-4-31-13-36-35-5-25-7-21-8 19-1 42 1 47 17 41 36-15 47-17 29-5-58 37-74 201-26 279 22 36 41 39 68 10zm87-225c7-48 0-161-10-172-4-3-12 0-19 7-13 13-17 163-5 194 13 30 27 18 34-29zm-489-91c-3-10-5-2-5 17s2 27 5 18c2-10 2-26 0-35z"/>
  <path d="m4694 15965c-29-70-8-244 28-233 7 2 21 20 31 39 33 62 9 229-34 229-5 0-17-16-25-35z"/>
  <path d="m5230 16120c-1-95-26-246-48-287-7-12-12-24-12-27s29-6 65-6h65v78c0 87-20 201-49 282l-20 55zm20-70-8-35-1 45c-1 27 3 40 8 35 6-6 6-25 1-45zm37-187c-3-10-5-2-5 17s2 27 5 18c2-10 2-26 0-35z"/>
  <path d="m4093 16029c-18-64-33-139-33-167v-52h75c41 0 75 3 75 6s-13 24-29 47c-28 41-45 119-54 247-2 27-9 10-34-81zm23-36c-11-11-17 4-9 23 7 18 8 18 11 1 2-10 1-21-2-24z"/>
  <path d="m6423 16090c-33-12-86-46-139-90-48-39-92-69-98-67-35 13-129 38-132 34-2-2 9-21 25-43l28-39-87-233-88-234 71 4 72 3 3-63c2-35-2-69-7-76-9-10 21-17 142-30 83-9 166-19 182-22 21-3 26-2 15 5-20 12-234 91-249 91-6 0-23-7-36-16-14-9-25-13-25-9s20 43 44 86c25 43 42 80 38 83-4 2-31 11-59 20-29 10-53 23-53 29 0 7 17 90 37 186 35 162 39 175 68 196 30 22 299 125 326 125 8 0 88-24 179-53 148-47 230-61 230-39 0 10-395 172-417 171-10 0-42-9-70-19z"/>
  <path d="m6322 15905c-73-24-136-46-140-50s3-4 16-1c12 4 22 3 22-2 0-19 59-34 150-39l96-6 27 36c33 43 29 83-10 98-13 5-25 9-26 8-1 0-62-20-135-44zm178-10c21-25-48-45-161-45-55 0-99 4-99 8 0 8 177 49 221 51 15 0 32-6 39-14z"/>
  <path d="m6735 15822c-111-37-163-61-253-117-61-38-110-74-109-80 2-5 60-45 130-90 69-44 126-85 127-90 0-6-23-64-50-129-28-66-49-120-47-122 4-5 167 280 167 292 0 5-55 40-121 78-66 37-117 71-112 75 4 4 38 33 74 64 57 49 83 63 204 107 130 48 162 61 139 59-5 0-72-22-149-47z"/>
  <path d="m7546 15855c-3-9-6-30-6-46 0-23 4-29 21-29 19 0 21 4 16 37-7 43-22 61-31 38z"/>
  <path d="m8601 15739c-71-77-73-79-119-79-26 0-90-3-142-6l-95-7-59-78c-32-44-61-79-63-79-10 0 60 119 87 148 22 25 37 32 64 32 46 0 47 16 1 23-27 5-53-3-119-34l-83-39-73-201c-70-195-82-218-366-737-162-295-294-538-294-541s72 66 159 153c156 156 160 160 166 210 5 37 20 72 55 126 37 56 70 132 129 295 63 176 97 254 171 388 51 92 94 166 97 164 7-8-50-130-120-257-51-92-88-180-143-337-41-117-74-215-74-218 0-4-20-34-44-69-30-41-48-78-53-109-7-43-22-62-163-214-85-91-155-171-155-177 0-32 46-3 189 121l160 138 157 253c124 200 177 297 254 465l96 212 186 119c161 104 194 121 256 134 58 13 84 25 133 63l61 48 99-10c67-7 112-17 139-31l40-22-52 60c-108 125-74 110-384 168-22 4-36-6-98-75zm89-59c-5-16-11-33-14-38-9-15-215-137-316-187-82-41-103-58-156-119-56-66-67-88-159-316-88-219-105-254-163-330-101-132-102-127-4 42 28 48 78 162 112 255 44 121 94 229 177 383 63 118 120 218 126 222 7 4 64 8 127 8h116l74 55c41 30 78 54 82 55 4 0 3-13-2-30zm-1061-1138c-43-93-56-113-81-121-16-6-28-7-26-3 7 19 153 241 156 238 1-2-21-53-49-114z"/>
  <path d="m5545 15774c-30-40-274-296-287-302-5-2-9 9-9 25-1 15-9-18-18-74-10-56-19-104-22-106-2-2-21-16-43-30l-39-26 34-3c34-3 34-4 43-66 8-55 5-79-24-198-17-74-29-138-26-141 6-7 6-7 41 97 23 67 34 84 105 155 66 67 84 92 110 155 29 74 29 74 5 45-14-16-25-33-25-36 0-9-129-93-134-88-2 2 0 31 5 64 4 33 6 70 3 82-5 17 22 60 116 187 67 91 129 171 138 178 14 12 14 8 8-32-4-25-25-98-46-162-62-180-52-202 19-41 27 62 47 129 61 208 26 145 24 161-15 109z"/>
  <path d="m4055 15790c-12-19 6-30 49-30 39 0 66 13 66 32 0 12-108 10-115-2z"/>
  <path d="m4185 15776c-26-26-32-64-15-97 8-15 22-19 61-19 44 0 51 3 60 27 11 30 4 77-14 91-7 5-24 12-40 16-21 5-33 1-52-18z"/>
  <path d="m4426 15784c-36-36-24-114 18-122 43-9 65 88 28 121-23 21-27 21-46 1z"/>
  <path d="m5082 15787c-17-21-23-55-16-92 6-34 7-35 54-35 53 0 60 8 60 65 0 47-8 64-30 58-10-3-27 0-38 6-15 8-22 7-30-2z"/>
  <path d="m5192 15763c2-14 15-19 56-21 47-3 52-1 52 17 0 19-6 21-56 21-47 0-55-3-52-17z"/>
  <path d="m7660 15765c-34-11-46-11-52-2-4 7-7-35-6-93 1-95 2-99 7-38 6 65 7 67 54 103 39 30 57 48 45 44-2 0-23-7-48-14z"/>
  <path d="m4931 15734c-23-30-26-46-11-75 19-35 39-23 33 20-5 33-2 41 16 50 36 20 79-17 65-54-4-8-1-15 5-15s11 14 11 30c0 65-79 94-119 44z"/>
  <path d="m3780 15743c0-7 12-44 26-83 22-58 29-68 40-59 12 10 37-10 132-101 64-63 120-116 124-120 4-3 11-41 16-85 6-59 5-94-5-136l-15-56 68-149c64-141 74-157 188-293 95-114 142-160 219-218 87-65 103-73 142-73 41 0 51 6 152 94 130 112 125 106 198 231 32 55 65 110 73 123 37 57-4 11-94-107l-99-130-105-58c-57-32-110-59-116-61-7-2-65 24-131 57-110 55-126 67-231 173l-112 113-51 145c-38 111-49 153-44 178 5 26 10 33 23 29 9-3 39-11 66-18 39-11 61-27 112-82 42-46 68-66 76-61 28 16 188 136 188 140 0 2-37-16-83-41s-89-45-96-45-40 21-73 46c-56 44-78 52-169 68-33 6-35 9-31 36 4 30 10 33 70 45 40 8 34 17-21 30l-42 10-37 110c-29 85-37 102-37 75-1-35-1-34-161 125-88 88-160 154-160 148z"/>
  <path d="m4052 15708c3-32 5-33 52-36s48-2 42 20c-3 13-6 29-6 36 0 8-16 12-46 12-45 0-45 0-42-32z"/>
  <path d="m7550 15727c-30-15-42-67-15-67 33 0 55 20 55 50 0 33-4 35-40 17z"/>
  <path d="m5200 15710c0-5 23-10 50-10 28 0 50 5 50 10 0 6-22 10-50 10-27 0-50-4-50-10z"/>
  <path d="m5186 15674c-10-26-7-31 23-44 20-8 34-25 47-58l18-47 11 75c6 41 10 78 8 83-3 4-26 7-53 7-34 0-50-4-54-16z"/>
  <path d="m4065 15593c4-38 9-70 11-72s12 16 23 41c10 25 31 54 45 65 32 26 25 33-36 33h-50z"/>
  <path d="m7888 15611c-1-5-40-52-85-105-46-53-83-98-83-100s15-9 33-17c17-7 56-28 85-47s55-32 58-29c4 4 35 71 70 149 61 139 62 143 41 150-34 10-115 9-119-1z"/>
  <path d="m8788 15565c-39-28-62-37-125-47-76-11-78-12-246-132l-169-121-119-240c-76-155-168-320-259-467l-141-226-159-143-159-142 31-44c24-36 29-52 26-89-2-24-1-44 2-44s19 20 35 44c17 24 156 178 310 342 175 187 332 365 417 474 94 120 189 228 305 343l169 168 130 4 129 5-79-20c-44-11-81-22-84-24-6-6 200-680 212-693 6-6 103-59 215-117 113-58 207-109 210-112s-34-2-83 2l-89 7-242 128-241 128-12 108c-6 60-19 180-28 268s-19 167-22 175c-6 16-30-326-31-456l-1-80 532-374 217 20c119 11 306 22 416 25 110 4 210 8 222 11 18 3 28-5 49-36 15-22 24-43 21-46s-108-32-234-65l-228-59h-417l-309 180c-170 99-312 180-316 180-3 0 26-25 66-57 39-31 71-59 71-62s-34-21-75-40l-75-33-84 57c-81 55-85 60-115 131l-31 73 26 138c26 137 27 139 131 341 58 112 103 205 101 207-6 6-250-302-265-334-7-14-12-46-13-71-1-85-6-91-64-88-48 3-51 5-57 33-4 17-7-47-8-141l-1-171 59-125 60-125 425-317 425-316 820-306 138 13c76 6 231 21 346 31l207 20 44 38c24 22 45 42 45 45 1 7-270 132-275 127-1-2 10-25 27-51l29-47-22-9c-13-5-40-16-60-24l-37-16-35 42c-36 44-38 57-5 57 10 0 19 3 19 8 0 4-32 34-70 67-59 50-110 115-110 140 0 3 26 5 58 4h57l59-70c59-69 63-71 160-95l30-7-21 34c-113 190-124 215-178 427-79 301-73 286-174 420-50 67-100 145-112 174-44 111-42 102-16 81 13-10 109-95 213-190l189-172 75-257 75-258 167-213 167-214-5-62c-6-76-31-482-40-632l-6-110 86-225c47-124 86-234 86-245s-14-69-31-130c-27-99-46-137-181-374l-151-264-124-602-134-367-134-366-130-154c-263-309-581-606-982-917-130-101-180-146-85-79 26 19 239 170 473 336l426 302 128 217c70 120 138 232 151 250 14 18 118 216 234 440l209 408 51 185c48 171 201 593 207 573 2-5 9-87 17-182l13-173-503-1207-503-1206-168-165c-92-91-283-278-423-415l-255-250-490-349c-269-192-492-350-494-352-4-4-301-1047-301-1059 0-5 98 206 218 470l217 480 958 720 156 186c86 102 281 335 434 517 152 183 277 337 277 342 0 6 169 390 376 853 206 463 415 930 462 1037 69 153 88 188 90 165 1-17-6-131-17-255l-19-225-261-810c-144-445-273-844-286-884-14-41-21-71-17-65 5 5 169 394 365 865l356 855-50 299-50 300 26 60 25 61-65 214c-36 118-65 222-65 230s47 133 104 278l103 263-109 242-110 242 7 420 6 420-87 120c-47 66-98 133-112 150-23 28-24 34-20 126l5 96-304 448-238 155-239 155-86 222-244 211c-231 200-255 218-482 357l-239 147-110 5-110 4zm212-39c52-11 111-40 294-144l229-131 222-211 221-211 47-111c26-61 46-112 45-113-2-2-48 49-103 111-55 63-207 213-337 334l-237 220-416 112-170-32c-93-18-177-36-187-41-9-5-67-64-130-132-76-83-200-244-381-493-270-372-282-387-411-478l-41-28 30 27c17 16 49 44 72 65 33 29 93 129 296 495l255 460 158 112 159 111 100 8c96 7 102 9 150 45 57 44 49 43 135 25zm169-301c115-15 128-18 173-51 26-20 48-39 48-44 0-4-37-22-82-40-130-52-132-53-69-61 47-6 60-13 108-61 30-29 77-83 105-120 27-38 54-68 59-68 4 0 33 9 64 21s58 19 60 17c1-1 10-26 18-54 14-47 14-150 1-192-2-8-42 17-109 68-58 45-105 79-105 76 0-12 206-299 215-298 5 0 26 47 47 104 35 95 38 110 36 191-2 48-1 87 2 87s46-50 95-110c80-98 204-295 205-326 0-7-50-30-110-53-96-35-121-41-188-40-72 0-93 6-312 88l-235 87-163 340c-91 186-166 348-169 360-4 17 8 25 84 56 48 20 90 37 93 37 3 1 61-6 129-14zm345-187c55-42 146-130 146-141 0-20-103 5-163 39-63 35-134 90-126 98s74 34 88 35c7 1 32-13 55-31zm-1146-415c-3-26-6-28-53-28s-50 2-53 28c-3 27-3 27 53 27s56 0 53-27zm-8-73c0-29-2-30-45-30s-45 1-45 30 2 30 45 30 45-1 45-30zm-32-46c16-5 22-14 22-34 0-22-6-30-31-39-47-16-49-15-49 34 0 48 7 52 58 39zm43-114c15-41 14-44-21-51-27-6-33-3-46 23-19 37-9 49 49 57 4 0 13-12 18-29zm44-91c4-11 21-29 38-39l31-19-28-10c-70-27-73-26-100 27-27 54-25 60 26 61 19 1 29-5 33-20zm438-73 39-32-72-70c-39-38-75-70-80-72s-27 6-49 17c-55 28-58 26-16-10 28-25 33-34 24-45-6-8-16-14-21-14-14 0-158 100-158 109 0 5 23 23 52 39l52 30 59-29c72-37 85-32 22 7-25 16-45 32-45 36 0 10 119 66 140 67 8 0 32-15 53-33zm-298-13c19-9 35-20 35-24s-22-21-49-37l-48-30-96 62 49 23c60 27 65 27 109 6zm406-152c-21-25-50-56-63-69l-24-22-118 64 78 72 78 73 44-36 44-35zm97 0 33-28-37-62c-20-34-41-64-46-67-7-4-85 34-107 52-4 4 112 133 119 133 3 0 20-12 38-28zm95-79c17-19 18-26 6-75-18-83-19-84-78-52-28 16-51 32-51 36s17 35 37 67c40 64 48 66 86 24zm-395-6c21-42 8-44-47-7-12 8-13 12-1 26 17 21 32 15 48-19zm503-66c17 0 19-9 19-80 0-44-2-80-5-80-9 0-115 62-115 67 0 3 8 33 17 68l17 63 24-19c14-10 33-19 43-19zm150-26c4-2 9-26 13-54s9-57 12-65c5-12-6-15-60-15h-66v152l48-7c26-4 50-9 53-11zm911-86c21-50 38-95 38-100s-23-8-52-6l-52 3-38 89c-21 50-38 93-38 97 0 7 90 17 99 11 3-1 22-43 43-94zm-761 61c16-8 42-106 30-113-3-2-34-1-68 2-68 5-62-3-79 95l-6 38 53-7c30-4 61-10 70-15zm630-74c38-90 38-90 16-97-12-3-36-6-53-7-29-1-32 2-67 91-41 103-39 110 27 106l40-3zm-134-8c20-48 34-90 32-92s-29-5-59-6l-55-3-32 79c-18 44-32 85-33 92 0 12 44 21 89 19 20-1 28-14 58-89zm-372 67c44-7 48-10 66-51 10-25 19-47 19-49s-31-4-70-4h-69l-11 43c-6 23-13 48-15 55-5 14 11 15 80 6zm231-89c17-49 36-101 42-115 5-14 8-26 7-28-2-2-29 0-60 3-64 8-65 10-115 144-33 90-32 91 44 88l50-2zm-678-51c32-14 52-29 52-39 0-14-13-10-67 20-113 61-105 72 15 19zm225-126c3-10 2-18-1-18-21 1-148 79-150 94-5 24 145-51 151-76zm654 47c9-19 15-37 12-39-6-5-122 15-130 23-4 3-10 16-14 29-6 21-4 22 54 22 60 0 62-1 78-35zm147-15c9-22 16-43 16-46 0-4-42 0-97 12-17 3-43 46-43 70 0 2 24 4 54 4 54 0 54 0 70-40zm-687-78c45-23 87-51 93-62s7-20 3-20c-5 0-49 21-98 48-56 29-91 54-93 66-2 10 0 17 5 15 4-2 45-23 90-47zm161-81c20-10 68-22 105-26 50-6 70-12 77-26 6-10 10-19 10-22 0-8-137 14-176 28-25 10-45 25-52 40-14 30-12 30 36 6zm312-51c23 0 58-35 47-46-9-9-131 16-139 28-15 25-8 31 30 24 20-3 48-6 62-6zm364-39c42-42 40-65-2-57-15 3-45 8-68 11-30 5-45 13-57 35-22 37-22 38 11 43 67 10 78 7 116-32zm-204 19c19 0 33-8 45-26l17-27-63 7c-41 5-69 13-76 23-21 27-15 36 18 29 17-3 44-6 59-6z"/>
  <path d="m4980 15571c0-12 5-21 10-21 6 0 10 6 10 14s-4 18-10 21c-5 3-10-3-10-14z"/>
  <path d="m5175 15567c-4-10-5-21-1-24 10-10 18 4 13 24-4 17-4 17-12 0z"/>
  <path d="m3850 15553c0-5 20-90 45-188 34-139 50-186 73-214 15-20 50-64 77-98s51-60 52-59c2 2-8 27-21 57-23 47-24 55-10 62 13 8 8 18-34 61-44 45-56 69-112 216-64 167-70 181-70 163z"/>
  <path d="m4180 15530c0-11 5-20 10-20 6 0 10 9 10 20s-4 20-10 20c-5 0-10-9-10-20z"/>
  <path d="m4246 15535c-3-9 0-15 9-15 16 0 20 16 6 24-5 3-11-1-15-9z"/>
  <path d="m4919 15543c-1-4-3-18-4-31-1-12-10-31-20-42s-14-20-9-20c5-1-5-9-22-18-30-16-84-72-84-87 0-4 15 5 32 21 57 47 111 64 203 64 91 0 131 12 138 41 7 24-17 25-40 2-25-25-207-27-197-3 17 41 22 70 13 75-5 4-10 3-10-2z"/>
  <path d="m5085 15539c-4-6-5-13-2-16 7-7 27 6 27 18s-17 12-25-2z"/>
  <path d="m4980 15525c0-8 5-15 10-15 6 0 10 7 10 15s-4 15-10 15c-5 0-10-7-10-15z"/>
  <path d="m5156 15514c-4-10-1-14 6-12 15 5 23 28 10 28-5 0-13-7-16-16z"/>
  <path d="m4340 15505c0-8 7-15 15-15 9 0 12 6 9 15-4 8-10 15-15 15s-9-7-9-15z"/>
  <path d="m4250 15504c0-22 24-44 48-44 25 1 26 1 7 12-11 6-24 17-28 25-8 13-27 18-27 7z"/>
  <path d="m5050 15495c-7-9-10-19-6-22 8-9 38 9 44 25 5 17-23 15-38-3z"/>
  <path d="m4195 15470c10-19 20-27 30-24 20 8 19 12-7 35-33 27-41 23-23-11z"/>
  <path d="m4956 15485c-3-9 0-15 8-15s16 7 20 15c3 9 0 15-8 15s-16-7-20-15z"/>
  <path d="m4352 15468c3-7 15-15 28-16 21-3 22-2 11 12-16 19-44 21-39 4z"/>
  <path d="m4260 15431-25-7 24-6c13-4 45-4 72-1 84 10 193-20 268-74 24-17 24-17 12 5-18 34-82 69-146 81-65 12-166 13-205 2z"/>
  <path d="m4320 15349c-19-4-51-6-70-4l-35 5 33-15c26-12 45-13 95-6 101 16 175 2 233-44l49-39-45 47c-42 43-50 47-115 57-81 11-97 11-145-1z"/>
  <path d="m4898 15352c-29-7-123-81-114-89 3-3 26 12 52 33l47 39h138c76 0 143 5 148 10 11 12-228 17-271 7z"/>
  <path d="m4362 15290c-100-11-84-20 36-20 61 0 123-5 139-11 30-11 73-47 73-61 0-4-47-8-105-8-63 0-105-4-105-10 0-11 158-14 208-4l31 6-27 40c-45 69-102 85-250 68z"/>
  <path d="m4850 15284c-21-9-44-30-57-53l-22-38 25-12c36-16 207-15 201 2-3 9-29 11-99 9-53-2-98 0-101 6-9 14 44 58 87 72 27 9 68 10 135 6 79-6 94-5 83 6-19 20-207 21-252 2z"/>
  <path d="m7075 15194c-170-57-322-104-337-104s-99 16-187 36l-161 36-58-46-59-46-51 11c-80 17-96 11-102-36-5-37-10-42-70-77-36-21-65-42-65-46s29-57 64-119l64-111 81 38c45 21 193 90 329 154s250 116 253 116c4 0 50-32 104-71 80-58 104-81 127-125 25-46 42-62 130-119 56-36 106-65 111-65s16 19 26 42l16 42-79 81c-79 79-80 81-106 175-15 52-31 99-36 104-4 5-18 2-32-7-25-16-25-16-11-83 8-37 13-69 11-71s-57 22-121 53c-65 30-116 57-114 58 1 2 131 63 288 136 242 113 323 153 300 149-3 0-144-47-315-105z"/>
  <path d="m4340 15241c0-18-4-22-20-18-10 3-26 0-35-7-13-9-8-12 25-12 23-1 47-7 53-13 13-13 27-15 27-3 0 4-11 23-25 42-23 31-25 32-25 11z"/>
  <path d="m5031 15229c-25-34-21-50 9-31 11 7 34 12 50 12 18 0 29 4 25 10-3 6-18 10-32 10-18 0-24 4-19 15 9 26-9 17-33-16z"/>
  <path d="m6215 15200c-60-4-119-8-130-9-19-1-19-1 1-21 15-16 39-22 100-26 77-6 81-6 149 29l70 36-40-1c-22-1-89-5-150-8z"/>
  <path d="m5037 15098-79-52-93 47c-51 25-96 43-99 39-4-3-4-75 0-159l7-153-54-1c-61 0-44-12 32-22l46-6-4 122c-2 67-5 137-6 155-2 17 1 32 6 32 4 0 35-18 67-40s69-40 82-40c60 0 87-63 62-146-12-40-9-94 6-94 4 0 13 7 21 16 10 12 10 17 0 23s-10 17-2 47c18 65 14 132-9 146-19 12-19 13 7 40 20 21 30 25 44 17 15-8 19-22 19-67 1-58 19-100 39-87 8 4 6 11-4 21s-15 35-15 71c0 39-5 62-17 75-15 17-15 20 7 43 13 14 22 25 19 25-2 0-39-23-82-52z"/>
  <path d="m4640 15000c0-80 4-130 10-130s10 50 10 130-4 130-10 130-10-50-10-130z"/>
  <path d="m4924 14968c12-29 11-43-5-108-30-119-35-183-15-199 13-11 19-12 29-2 9 10 8 14-5 22-23 13-23 27 7 154l25 106-20 30c-28 38-32 37-16-3z"/>
  <path d="m5189 14837-33-66 21-98c20-92 20-99 4-115-15-16-18-17-39-2-13 9-22 26-22 42l-1 27-15-29c-16-28-15-29 24-68l39-40 27 35 27 36-16 108c-15 105-15 110 5 167 11 33 18 61 16 64-3 2-20-25-37-61z"/>
  <path d="m4104 14842-20-47 25-62c14-35 29-63 32-63 11 0 21 53 11 59-24 16-34 55-27 107 3 30 5 54 3 54s-12-22-24-48z"/>
  <path d="m6825 14849-27-41 32-33 31-32-130-114 6-107c3-59 7-109 9-111s25 16 51 40c27 25 76 64 109 87 56 37 64 47 82 100l20 59-31 70c-24 56-38 75-72 96-23 15-44 27-47 27s-18-19-33-41z"/>
  <path d="m4191 14749c0-31-4-77-7-103-8-57-30-61-69-13-15 17-24 24-21 14 3-11 9-30 12-43 6-24 49-54 78-54 20 0 31 109 18 191l-9 64z"/>
  <path d="m6493 14651-232-96-130-140c-71-76-129-141-127-142 1-2 84 42 183 97 100 55 224 119 277 142l97 42 69-69c80-79 77-83 56 73l-12 93 58 36c32 20 58 39 58 43 0 8-37 20-55 19-5-1-114-45-242-98z"/>
  <path d="m4625 14680c-57-26-59-28-35-37 14-6 49-16 78-24 48-12 58-11 124 10l72 24-58 29c-53 27-60 28-75 14-14-13-19-13-32-2-12 12-23 9-74-14z"/>
  <path d="m5224 14685c3-11 8-50 12-87 5-55 10-69 26-74 14-4 27 1 41 15 21 20 21 22 4 38-14 14-18 14-15 4 2-8-4-16-13-18-12-3-19 10-28 54-7 32-17 65-23 73-7 12-8 11-4-5z"/>
  <path d="m7308 14633c-36-50-39-52-74-46l-37 6 7-44c3-24 9-59 13-78l6-33-27 17c-15 10-29 16-32 13-2-3 8-33 23-67l28-62 46 34c25 20 82 48 127 64 70 25 85 34 112 72 17 23 29 45 27 47-3 3-43-13-90-35l-86-39-6 202z"/>
  <path d="m7069 14615c-52-73-51-72-34-105 15-29 14-31-84-227l-100-198-175-149-175-150-215-87-214-87-199 62-198 62-67 99c-49 74-77 130-108 215-39 112-41 118-34 200 6 72 10 89 32 113 14 15 36 27 49 27h24l-22 29c-12 17-35 32-53 35-26 6-35 2-58-24-28-30-28-31-28-183 0-150 0-153 37-257 25-71 59-139 104-209l67-104 166-69 167-69 274 40 156 83c219 116 419 272 518 402 74 97 94 136 168 324 41 105 44 118 41 195l-3 81z"/>
  <path d="m5061 14598-12-53 33-27c46-38 59-35 21 5-29 29-31 36-26 80 7 62-1 60-16-5z"/>
  <path d="m6930 14439c-41-33-106-80-145-106-38-25-101-68-140-96-67-49-87-56-430-164-197-62-361-111-363-109-1 2-6 65-11 140-4 75-11 140-17 145-26 24-219 101-254 101-37 0-38-1-50-50-21-86-6-165 56-296 30-64 74-141 98-173l45-58 332-112 212 81 211 82 165 141c144 122 170 150 209 215 102 174 164 290 160 303-2 11-25-2-78-44z"/>
  <path d="m8150 14414c0-5 11-60 24-121 13-62 22-113 20-113-3 0-40 18-84 40s-84 40-89 40c-13 0-370-334-469-438-41-42-107-113-148-158l-74-81 10-151 10-152 87-147c47-82 91-154 98-161 7-8 70-22 146-33l134-19 224 82 232 260c224 251 270 312 412 544 4 7-19 34-55 65l-61 53-176-182-176-181-164-86c-90-47-165-84-167-82-2 1 47 54 109 117 61 63 157 162 213 220l101 105-8 124c-8 122-10 127-75 290-66 165-74 183-74 165zm-167-1343c33-13 35-36 5-52-33-18-187-24-247-9-52 12-73 32-54 51 27 27 232 34 296 10z"/>
  <path d="m7742 13061c-48-12-49-18-5-30 49-14 167-14 217 0 35 10 38 12 21 21-24 14-190 20-233 9z"/>
  <path d="m7047 14262c-30-102-46-143-72-177-14-19-11-26 40-103 31-45 58-82 60-82 3 0 10 11 15 25 8 20 2 38-30 98-50 92-40 110 12 22 22-36 41-65 43-65s10 20 18 44c15 44 15 46-12 88-45 71-45 75-2 31 23-24 43-43 45-43s7 8 10 17c6 15-82 243-94 243-3 0-18-44-33-98z"/>
  <path d="m4215 14303c-88-45-199-57-256-28-18 10-63 20-99 23-54 3-74 0-123-22-32-14-66-35-75-46-11-13-35-22-67-26-57-7-105-44-105-80 0-18-7-24-37-29-45-7-65-21-83-55-7-13-24-33-38-44-13-11-40-44-59-74l-35-54 16-79c9-44 16-96 16-115 0-43 43-118 128-223 76-92 271-238 353-264 72-22 78-22 113 6l29 23-57 23c-31 13-94 52-141 87-67 51-97 82-144 152-41 61-74 99-110 123-28 18-51 42-51 51 0 17 18 111 25 136 3 9 27-2 72-33l68-45-4-69c-3-68-2-69 50-148 51-77 55-80 185-156 122-71 137-78 180-75l46 3-53 39c-81 60-239 257-295 368-25 51-71 128-101 170-32 47-51 83-47 90s23 32 42 56l34 43-28 31-29 30 45-22c25-12 46-23 47-24s-13-26-33-55l-35-52 58-63c44-46 68-84 93-143 30-74 43-91 144-192 111-110 112-111 216-151 57-22 105-39 106-37 1 1-27 26-62 55-88 72-154 165-199 281-21 53-64 150-96 216-66 138-78 169-58 163 8-2 41-58 74-124 43-87 93-164 177-276l118-154 70-23c38-12 70-24 70-27s-12-27-26-55-24-53-22-55 71 33 152 78c82 44 151 76 155 71 21-32 214-273 216-271s-10 68-26 148l-28 145-143 137c-79 75-144 135-146 134-1-2-9-68-18-147-8-79-16-145-18-147-2-1-22 18-45 44l-41 47v-59l-1-59-40 44c-50 56-207 361-260 505-22 60-38 111-35 113 2 2 17-12 33-31 15-20 31-36 35-36 5 0 52 20 105 45 92 43 101 50 143 110 41 59 50 89 32 107-4 3-38-10-77-29z"/>
  <path d="m4815 14235 7-100 46-45c26-25 32-29 15-10-27 31-33 48-48 140-9 57-19 107-22 110s-2-40 2-95z"/>
  <path d="m6423 14216c-45-6-88-17-95-23-6-7-21-13-32-12-21 0-21 0-1 10 16 7 12 8-14 4-18-3-48-6-65-7-25-1-23-2 14-8 29-4-4-7-90-7-117 1-124 2-55 7 44 3 67 7 50 8-16 1-61 4-100 7-48 4-64 2-50-4 12-6 15-10 6-10-8-1-22 5-30 13-9 8-31 17-50 21l-34 7 5-96c3-53 8-99 11-102 5-5 619 181 647 197 20 11-10 10-117-5z"/>
  <path d="m7177 14013c-32-70-57-132-57-136 0-9 178-221 189-225 6-2 131 260 131 276 0 4-47 54-103 110l-104 104zm113-25c42-70 45-187 6-226-12-13-20-13-40-4-80 36-89 262-11 262 18 0 31-10 45-32z"/>
  <path d="m7221 13969c-15-44-14-77 5-132 19-56 48-78 64-48 27 51-6 211-44 211-8 0-19-14-25-31z"/>
  <path d="m4295 14046c18-24 80-65 198-130 94-53 176-96 183-96 17 0 563 239 547 240-7 0-125-31-262-70-138-38-257-70-265-70-9 0-106 36-216 80s-203 80-206 80 7-16 21-34z"/>
  <path d="m5235 13986c-65-21-80-31-221-162-84-76-150-140-149-142 3-3 427 299 450 319 13 13 1 10-80-15z"/>
  <path d="m6845 13914-48-56 37-247 38-246 80-105c127-165 143-180 199-180 32 0 54-6 70-20l24-20-22-19-22-18 50-49c30-29 49-42 49-33s-16 93-35 188-43 249-54 342c-14 126-24 175-38 193-38 51-268 325-274 325-3 1-27-24-54-55z"/>
  <path d="m6634 13740-101-69-7-143-7-144 96-234c53-129 100-238 103-242 4-3 60 45 125 107l117 114-69 78c-38 43-72 89-74 103-3 14-20 132-38 263-17 130-35 237-38 236-3 0-52-31-107-69z"/>
  <path d="m4940 13241c-300-301-575-573-612-605l-68-58-97 52c-53 29-311 148-571 266-431 194-480 214-529 214-47 0-54-2-49-17 3-10 8-39 12-66 8-61 18-66 33-17 11 36 14 40 39 35 15-4 295-141 623-306 328-164 601-299 607-299 18 0 1172 1312 1172 1332 0 10-3 18-7 17-5 0-253-247-553-548z"/>
  <path d="m4940 12976c-554-651-617-723-635-713-11 5-292 157-625 337-540 293-611 329-664 335l-59 7 6-70c4-39 10-77 13-86 4-11 1-16-10-16-10 0-23-15-32-35-20-48-18-50 17-21 17 14 40 26 51 26s144-102 304-232c157-128 299-243 317-255 29-20 746-277 753-271 1 2-144 71-324 153l-327 150-340 249c-267 196-346 249-367 248-31-3-32-1-15 46l12 32 35-23c19-13 284-169 588-346 504-293 651-371 702-371 12 0 219 258 608 758 541 695 637 823 615 822-5-1-285-326-623-724z"/>
  <path d="m4998 13517c-131-78-238-145-238-148s16-27 36-53l36-47 106 100c168 155 307 290 302 290-3 0-112-64-242-142z"/>
  <path d="m5011 12829c-326-424-591-772-589-774s95 67 208 153l206 156 367 585c202 322 377 601 388 619 12 17 19 32 16 32-2 0-271-347-596-771z"/>
  <path d="m6338 13575c-96-34-159-90-208-187l-40-78 16-137 16-138 104-201 104-202 221-178c216-176 224-181 442-295 221-116 223-116 396-158 96-23 175-40 177-39 1 2-45 36-104 76-102 69-110 72-163 72-85 0-207 49-412 165-166 94-188 110-356 260l-178 160-92 195c-87 183-93 200-108 306l-17 112 50 83c50 84 50 84 121 111 90 35 128 30 137-15 8-39 12-34 29 40 14 60 13 62-7 67-34 9-57 6-128-19z"/>
  <path d="m5290 12983c-190-327-353-606-363-619-28-37-534-474-549-474-7 0-176 59-375 132l-363 132-332 253c-271 206-339 253-364 253-24 0-33-5-38-22-9-36-8-37 32-44 28-5 121-71 370-261l333-253 307-155c169-84 305-154 302-154-4-1-133 44-287 98l-282 100-347 232-347 233-55-12c-64-13-77-24-85-69-7-38-8-38 29-18 16 8 52 15 79 15 49-1 56-4 440-277 299-212 402-280 440-290 99-26 387-93 403-93 10 0 151 57 316 128l299 127 392 438 257 576c142 316 255 578 250 583-4 4-142-263-307-593l-300-600-270-212c-148-116-290-227-315-246-95-74 5 19 249 234l249 220 295 600c163 330 297 606 299 614 15 65-64-61-362-576z"/>
  <path d="m5569 12960-234-570-168-226c-93-124-167-227-165-229 2-1 84 88 183 199l180 202 244 584c230 550 243 584 226 597-11 7-22 13-25 13-4 0-112-256-241-570z"/>
  <path d="m6026 13509c-43-5-84-10-89-12-6-2-42-88-82-191l-71-188 104-257c57-141 107-259 111-263s29 7 56 25c38 25 51 41 60 72l11 40 12-59c7-33 12-88 12-124 0-56-4-69-30-102-16-21-30-42-30-47 0-13 126-322 186-457 53-119 82-150 68-75-14 84-22 76 141 150 83 37 155 68 160 68 9 1 65-88 65-102 0-3-83-45-184-95l-184-90 9-43c6-24 11-45 13-46 1-2 43 34 92 80 61 57 105 88 139 101 28 10 67 32 88 48 21 17 40 28 41 27 2-2 24-40 49-84 26-44 47-76 47-71s-34 113-76 240l-76 231-98 70c-69 48-130 104-201 183-90 99-113 132-180 260-71 135-79 158-107 287-50 235-51 206 11 299 29 44 62 93 71 109l18 27-38-1c-22-1-75-5-118-10zm340-1111c24-17 44-35 44-40 0-4-15-8-33-8-30 0-36 4-50 40-8 22-13 40-10 40 2 0 25-14 49-32zm140-59c32-6 65-15 72-21 35-30-6-52-120-67-60-8-61-9-18-10l45-2-39-15c-43-15-56-12-56 17 0 14-7 19-25 19-37 0-75 21-75 41 0 18 36 33 100 43 46 6 56 6 116-5zm100-165 25-42-98-42c-54-24-124-54-155-66l-58-23-6 27c-3 15-10 41-14 59-9 35-13 32 70 53 25 7 48 16 51 21 8 14 121 58 142 56 11-1 30-21 43-43z"/>
  <path d="m3285 13478c-12-32-86-330-83-332 72-57 418-248 418-230 0 3-47 55-104 116-88 93-103 114-96 132 6 18 3 23-24 32-36 13-42 38-8 40 18 1 19 1 2-3-30-7-24-20 11-28 23-5 34-3 44 12 12 16 11 19-8 25-19 5-17 6 8 7 18 1 35 9 42 21 21 32-17 50-104 50-42 0-73 4-73 10s25 10 55 10h55l-61 75c-34 41-64 75-66 75s-6-6-8-12z"/>
  <path d="m8810 13369c-80-49-149-88-153-86-5 1-25 34-45 72-21 38-41 70-47 71-9 2-462-471-507-529-16-21-16-37 3-307 11-157 18-294 17-305-2-11-40 96-85 239-45 142-84 260-86 262-6 6-302 71-306 67-3-2 72-213 165-469l169-466 83 7 82 6v-200c0-110 4-202 9-205 14-9 21 62 21 237v167h34c18 0 48 3 65 6l31 7v-656l-40 46c-62 70-125 82-192 35l-28-19v145c0 79-3 151-6 160-16 43-24-11-24-167 0-154-2-177-22-224-12-29-24-53-27-53s-6 137-7 304c-1 289-5 348-22 332-4-4-9-147-12-317l-5-310-41 35-40 34-1 121c-1 66-4 125-8 131-17 27-25-11-25-111v-109l-26 16c-25 17-25 17-19-7 8-35 55-252 55-255 0-1 28-18 63-37l62-35 12-77c14-84 58-188 96-224 36-33 92-50 135-40 90 20 172 173 172 321 0 55 2 58 37 83 63 42 63 42 63-128 0-138 2-156 19-171 19-17 19-15 26 91 4 59 10 141 14 182l6 73 73 40 72 40v-105c0-104 0-106 28-125 57-40 54-46 50 107-1 77 0 141 4 141 3 0 20-12 37-26l31-26 110 59 110 58 41 78c39 74 43 79 111 113 38 19 100 44 136 56l66 20 56-27c41-19 63-38 83-70 49-77 51-76 76 43 28 129 99 354 147 457 18 42 34 78 34 81s-15 2-34-1l-34-7 5 109c5 102 8 111 38 153 45 64 51 75 34 65-8-5-26-16-40-26l-26-18-7 61c-3 33-6 96-6 139s-4 80-9 83c-8 5-21-141-21-250 0-60 0-61-44-92-25-18-61-34-87-37-24-4-54-8-66-11-23-4-23-4-23 130 0 74 4 137 9 140 11 7 21-52 21-126 0-56 12-83 24-52 3 9 6 67 6 130 0 114 0 115 40 194 22 44 40 84 40 90 0 22-222 315-404 533-104 125-192 227-195 226-3 0-71-41-151-90zm121-320c4-13 10-35 13-50 5-24 10-26 101-35 154-17 157-50 6-67l-91-11v-183l198-7c233-7 303-19 275-47-18-18-132-29-305-29h-167l-6-57c-9-92-24-166-36-178-31-30-62 103-36 158 33 72 33 75-20 82-85 11-103 16-103 30 0 17 23 25 97 32l63 6v61c0 34-5 77-10 97l-10 35-91 11c-140 16-148 46-18 65 74 11 89 19 89 50 0 30 20 70 32 66 6-2 15-15 19-29zm449-738c0-132 1-131-77-131h-33v190l48 30c26 16 50 30 55 30 4 0 7-53 7-119zm-150-55c0-92-3-96-72-96h-28v160h28c15 0 34 5 42 10 27 18 30 11 30-74zm-140-20v-84l-81-11-80-12-62 38c-60 38-62 40-65 85l-3 46 63 6c58 6 109 9 196 14l32 2zm-320 28c0-19-4-33-8-30-12 7-326-504-316-513 5-4 33-27 62-51 60-48 59-40 8-155l-36-80v53c0 29-5 63-12 75-11 21-11 21-19 2-4-11-8-80-8-153l-1-133-42-18c-24-11-53-22-64-25l-22-7 2 365 1 365 82 70 7-37c3-20 6-61 6-89 0-29 4-53 9-53 11 0 21 75 21 154v62l141 117c157 130 189 144 189 81zm872-175c3-77 2-82-20-90-13-5-25-9-28-9-2 0-4 36-4 80 0 65 3 81 18 89 9 6 20 11 24 11 3 0 8-37 10-81zm-102-42c0-70-1-73-27-84-16-6-43-21-60-33l-33-22v158l53 26c28 15 55 27 60 27 4 1 7-32 7-72zm-160-89v-83l-50-32c-27-18-52-33-55-33s-5 40-5 90v90l48 24c26 14 50 25 55 26 4 0 7-37 7-82zm-150-85v-98l-85-62-85-63v235l83 42c45 23 83 42 85 43 1 0 2-44 2-97zm-219-121 2-143-80-63c-129-102-140-104-128-17 5 40 11 50 39 65 19 10 57 42 86 71l53 54-16 42c-16 40-16 47 0 102 13 48 18 56 29 45 9-9 13-55 15-156zm-241-255v-52l-145-73-145-72v60c0 50 3 60 18 60 9 0 71 29 137 65 66 35 123 64 128 64 4 1 7-23 7-52zm-657-197c47-56 62-121 62-275 0-111-4-151-19-193-21-61-69-122-96-122-29 0-33 17-5 24 38 10 58 59 63 159 3 67 0 98-13 133-51 135-140 61-140-118 0-120-17-54-23 87-5 128 12 231 43 261 8 9 15 20 15 26 0 22 33 48 61 48 18 0 36-10 52-30z"/>
  <path d="m8778 12943c-21-2-38-8-38-13 0-14 146-23 263-17 105 6 127 10 114 23-7 8-288 14-339 7z"/>
  <path d="m8945 12669c-66-4-122-7-125-9-32-17 411-26 515-11l50 7-45 7c-69 10-262 13-395 6z"/>
  <path d="m9286 13378c4-7 57-87 117-178 76-114 149-208 237-305l128-140 123-49c68-27 125-50 127-51 2-2-44-148-102-325-98-300-108-324-141-354-33-29-41-47-114-291-73-242-79-270-91-408-7-81-11-150-8-152 2-2 35 82 73 188 49 135 84 213 116 263 26 39 49 80 51 90 3 13 9 4 17-26 31-110 102-205 180-244s118-41 219-11c19 6 22 4 22-18 0-30 9-57 20-57 4 0 10 26 14 58 5 47 13 64 36 87l30 29v-113c0-95-3-118-21-154-12-23-132-195-266-383-232-326-248-346-359-445-64-57-145-136-180-175-59-66-72-75-178-122l-114-50-214 45c-117 25-215 47-217 49-8 7 32 144 43 144 6 0 29 5 50 11l40 11-50 25c-28 14-75 27-110 30l-62 6-165-144c-91-79-166-147-166-151-1-4 15-19 34-33l34-27 33 38c18 20 78 89 133 153 76 87 108 117 133 123 19 5 38 8 43 6 6-2-22-46-61-97-38-52-70-98-70-101 0-4 57-44 126-89l126-81 520 34 793 797 122 227c67 125 146 278 175 341 29 62 54 109 55 104 2-5-41-218-96-473-55-256-98-466-96-468 1-2 17 41 35 95 17 54 134 410 261 792l229 693v137c0 124-20 429-36 541-3 24-14 56-24 70-35 51-60 111-80 194-10 46-27 101-37 121l-18 37-54-6c-30-4-57-8-59-11-2-2 25-84 61-182 103-282 99-264 92-410-9-175-122-761-163-843l-27-55-3 75c-2 41 2 84 7 95 14 26 132 468 127 473-2 2-12-10-22-27s-21-31-24-31-6 84-7 186c-1 132 1 184 9 176 6-6 10-58 10-127 0-64 2-114 5-111 2 2 13 37 24 78 16 61 18 93 13 193-6 108-9 125-36 173-16 29-49 110-73 178-23 69-46 128-49 132-4 3-120-5-259-17l-252-23-368 136c-203 75-371 136-374 136-2 0-1-6 3-12zm1158-656c10-17-7-52-25-52-14 0-19 7-19 30s5 30 19 30c11 0 22-4 25-8zm56-43c0-36-2-40-15-29-8 7-15 25-15 41 0 19 5 29 15 29 11 0 15-11 15-41zm27-36c-2-16-4-3-4 27s2 43 4 28c2-16 2-40 0-55zm52 46c22-18 23-23 15-69-8-42-11-47-25-37-16 12-36 127-22 127 5-1 19-10 32-21zm38-116c-3-10-5-2-5 17s2 27 5 18c2-10 2-26 0-35zm-279 11c22-6 22-8 22-195 0-111-4-189-9-189s-37 12-71 27c-62 26-63 26-169 14-58-7-118-14-133-17-23-5-28-1-38 30-10 32-7 41 54 165 50 99 71 132 88 136 13 3 50 11 83 19 65 15 137 19 173 10zm51-96c0-46-4-105-9-133-6-39-8-21-9 83 0 82 3 132 9 132s10-34 9-82zm51-122c0-199 0-204-20-199-19 5-20 14-20 204 0 192 1 199 20 199s20-7 20-204zm64 163c3-17 6-46 6-65 0-36 14-53 24-28 3 9 6 38 6 65 0 45 2 49 25 49h24l3-170c3-161 2-173-19-207-24-41-30-35-35 32-4 57-21 50-32-13-5-29-13-51-18-50-5 2-9 7-9 11 1 4 1 97 1 207 0 185 8 245 24 169zm23-21c-2-13-4-5-4 17-1 22 1 32 4 23 2-10 2-28 0-40zm90-195c-1-43-3-8-3 77s2 120 3 78c2-43 2-113 0-155zm-90-170c-3-10-5-2-5 17s2 27 5 18c2-10 2-26 0-35zm-328-87c23-13 23-13-17-19-28-5-48-16-66-38-33-39-33-49 3-49 58 0 108-88 81-141-21-41-42-58-76-65-32-6-33-7-18-29 16-25 53-43 99-47l30-3-32-18c-77-41-169-6-215 82-64 122-17 293 92 334 28 10 95 6 119-7zm188-176c14-70 15-95 5-163-6-44-14-82-17-85-12-12-17 11-15 75 5 158 5 190-3 233-15 83 13 28 30-60zm-513 3c-7-56 10-161 36-219 24-57 87-123 135-145 51-24 99-23 153 1l42 19v-53c0-53 0-54-40-70-124-49-249 13-320 159-50 103-63 272-24 333 21 33 25 27 18-25zm596-58c8-14 20-23 27-21 10 4 13-17 13-100 0-96-2-109-30-164-17-33-31-60-33-60-1 0-2 83-2 185s2 185 6 185c3 0 12-11 19-25zm69-97c1-37-3-70-9-73-6-4-10 27-9 87 1 107 17 95 18-14zm-112-220c-1-40-3-10-3 67s1 110 3 73 2-100 0-140zm-114-1-28-40-7 49c-6 43-4 53 23 93 16 24 30 49 31 55s3-18 5-53c4-56 1-68-24-104zm79-143-21-39-1 107c0 65 5 118 13 135 11 25 13 20 21-68 7-87 6-99-12-135zm-135 104c-2-13-4-5-4 17-1 22 1 32 4 23 2-10 2-28 0-40z"/>
  <path d="m4501 13322c-6-11-11-32-11-46 0-31 4-30-85-11-243 51-485-39-564-210-12-27-39-67-58-87-20-20-33-43-30-50 5-14 82-55 180-97l49-21-8 33c-11 41-8 91 5 114 8 14 10 8 11-32 0-95 63-154 173-162 157-13 266 111 194 218-27 40-84 74-138 83-25 4-39 12-39 21 0 11 12 15 49 15 98 0 184-48 221-125 12-25 23-45 25-45 1 0 44 45 95 100 105 114 104 108 14 171-38 26-42 33-46 79-6 61-21 82-37 52zm28-83c1-50-10-100-20-93-11 6-12 158-2 168s21-28 22-75zm-368-31c12-47 7-176-9-204-18-32-36 24-37 111 0 129 23 176 46 93zm-141-178c0-52-5-102-10-110-7-10-10 26-10 110s3 120 10 110c5-8 10-58 10-110zm80 27c0-12-12-21-62-45-5-2-8 1-8 6 0 8 56 51 68 52 1 0 2-6 2-13zm210-137c22-22 26-70 10-101-13-24-57-25-82-2-37 33-10 123 37 123 8 0 24-9 35-20z"/>
  <path d="m6222 13290c4-14 672-879 676-876 6 7-44 109-100 201-48 80-68 104-98 118-95 44-270 354-270 476 0 49 21 69 55 53 28-13 30-10 15 19-10 17-22 19-146 19-85 0-134-4-132-10z"/>
  <path d="m6463 13185c6-60 71-207 132-299 39-59 114-141 121-133 6 5-101 275-146 370-31 63-78 117-102 117-7 0-9-19-5-55z"/>
  <path d="m3728 13057c-54-133-55-138-8-74 34 46 46 56 62 51s19-2 15 13c-3 10-11 37-17 61-6 23-12 42-13 42s-19-42-39-93z"/>
  <path d="m7155 13040c17-18 47-20 65-3 9 8-25 23-54 23s-29 0-11-20z"/>
  <path d="m5721 12957c-25-58-25-55-6-73 8-9 15-25 14-37-1-21-1-20-8 2-11 40-31 38-31-4 0-29 3-36 15-31 8 3 15 1 15-4 0-20-31-9-39 13-9 22-9 22-16-5-4-15-13-29-20-32-8-3-17-22-21-43-15-84-94-253-188-399l-95-149 40-17 40-18 88 36c93 37 85 30 230 196 27 31 38 58 58 145 22 95 24 121 18 217-5 95-11 119-39 180l-33 71zm-57-204c15-37 18-170 6-227-17-84-34-58-38 60-6 140 11 223 32 167z"/>
  <path d="m7400 12830c0-8 31-127 70-264 104-376 110-409 110-662v-213l-90-283c-49-155-88-283-86-285 1-1 56 130 121 293l118 296-6 66-7 67 53 21 52 22 5-128c5-123 11-152 28-136 4 4 8 70 10 146 3 133 4 138 27 148l23 11-105 258c-57 142-124 308-149 368-30 75-65 139-109 199-36 49-65 83-65 76z"/>
  <path d="m7267 12810c-3-14-10-77-16-140s-18-189-27-280l-16-164 38-33c22-18 42-33 47-33 4 0 7 17 7 38 0 20 5 118 10 217 10 172 10 185-13 300-17 83-26 112-30 95z"/>
  <path d="m2878 12234c-51-26-51-26-42-61 8-29 18-29 60 3 18 14 39 24 46 21s182-137 388-297c206-161 384-296 395-300s153-13 315-20l295-12 202 108c111 60 200 110 199 112-2 1-111-40-243-91l-239-94-225 39-224 40-435 289c-239 159-437 289-440 289-3-1-26-12-52-26z"/>
  <path d="m6730 12238c1-48 14-60 144-125 72-36 167-78 211-93s79-32 79-36c-1-5-34-112-74-239-40-126-73-236-73-242 0-8-15-13-39-13s-37-4-33-10c3-5-3-10-14-10-14 0-23-9-27-25-8-31 10-55 42-55 28 0 52 36 35 53-19 19-12 27 22 27 28 0 36-7 67-55 19-30 37-55 40-55s39 136 80 303l75 302 120-4-70 13c-107 21-262 88-424 183-80 47-149 88-153 90-5 2-8-2-8-9z"/>
  <path d="m5463 12143-81-36-34 27-35 26-54-62c-30-34-85-94-124-132-71-71-57-68 45 9 119 89 113 87 155 69 36-15 41-14 88 5 28 12 51 20 53 18 1-1-19-51-46-111l-48-109 34-101c19-55 55-166 80-246 50-157 64-186 58-118-19 202-21 361-9 468 15 124 20 330 8 330-5-1-45-17-90-37z"/>
  <path d="m2912 12047-42-42 7-67 6-66-56-88c-31-49-55-89-53-91 1-2 31 8 66 22 51 20 67 23 76 13 69-74 190-220 202-245 9-18 19-33 22-33 4 0 24 32 45 72l38 72-57 53c-42 39-57 59-54 76 3 20 8 22 55 19 50-2 52-2 58 28 7 33 16 37 35 15 18-22 30-18 30 9 0 18-37 55-159 160-88 75-163 136-168 136s-28-19-51-43z"/>
  <path d="m6678 11900c-14-10-45-22-69-26-39-6-54-18-124-92-44-46-82-88-83-93-2-5 18-63 44-128 40-103 54-127 99-171l52-52 7 36c6 33 10 36 40 36h33l7-62c4-39 2-64-4-66-5-2-20-12-32-22-19-15-21-22-12-37 6-10 23-19 37-21 20-3 29-12 41-49 19-57 42-83 71-83 16 0 26-9 35-30 13-31 82-100 100-100 6 0 3-12-6-26l-17-25 75-77c45-46 120-143 187-242 118-176 135-200 143-200 3 0 13 30 23 68 21 78 54 162 65 162 4 0 7-17 6-37-1-37 1-39 74-80 41-24 85-54 99-67l24-25-24-5c-81-16-84-16-112 19-24 30-25 35-10 43 14 8 10 14-26 37-24 15-47 23-51 18-4-4-17-46-28-92l-21-85 58-82c31-46 86-108 121-140 36-32 73-71 83-86 14-24 23-28 45-24 15 3 70 10 122 16 81 10 112 19 213 67 131 61 115 62 197-12 104-94 216-169 324-218 61-28 120-50 130-49 47 3 30 23-80 96-95 63-156 117-329 287-116 115-215 209-220 209-4 0-5-7-1-15 3-8 2-15-3-15-10 0-36 29-30 34 2 1 47 13 99 25 54 13 112 34 134 49 35 24 106 101 106 115 0 4-25-3-56-14-53-20-64-21-214-11l-157 11-88 50c-49 28-116 60-151 71-57 19-65 20-91 7-15-8-41-29-56-46-25-28-32-31-65-25-25 4-52 20-82 50-44 43-44 44-18 44 16 0 42-12 61-30 41-35 47-36 79-11 13 11 44 24 68 31 43 12 44 12 23 28-134 107-243 230-284 320l-29 63-35-7-35-6v39c0 77-42 156-104 194-38 23-106 25-146 4l-30-16-1 63c-1 35-1 66 0 71 0 4-5 7-11 7-10 0-12-21-10-81 3-62 0-85-12-98-27-30-46-89-46-145 0-62-12-76-41-50-18 16-45 93-48 139-1 11-4 55-7 97l-6 77 29 4c15 2-20 5-79 6-147 2-143 21 5 23 61 0 97 3 79 5-33 4-34 5-28 41 14 77 36 139 57 158s21 19 44-9c25-28 45-84 45-124 0-21-5-23-50-23-27 0-50-4-50-10 0-14 82-12 102 3 13 10 15 23 11 55-4 33-3 41 8 38 37-12 79-15 79-6 0 6-40 69-90 140-49 71-102 147-117 169-16 22-31 40-34 41-4 0-18-9-31-20zm18-386c-3-9-6-27-6-40 0-21-4-24-40-24-33 0-40 3-40 20 0 12 13 27 38 39 46 25 56 26 48 5zm390-279c33-21 57-83 57-145 0-93-46-155-114-155-127 0-156 258-34 311 32 14 56 11 91-11zm268-364c9-15-21-21-102-21-89 0-131 8-110 21 18 12 205 11 212 0zm-122-61c22-20 28-30 17-30-8 0-28 14-44 30-37 39-15 39 27 0zm240-56c22-14-57-23-197-22-174 1-239 17-125 32 55 7 307-1 322-10zm-112-131c49-6 52-8 25-14-42-9-146-10-186-1-36 7-38 7 91 20 8 1 40-1 70-5zm325-224c5-5-5-9-28-9-26 0-39 6-47 19-9 18-8 19 28 9 20-5 41-14 47-19zm-245-4c23-24 23-26 5-39s-17-15 22-25c30-8 55-27 93-67 28-31 49-58 47-60-6-6-112 22-150 40-75 37-107 104-71 154 19 28 25 28 54-3zm295 5c3-5-3-10-14-10-12 0-21 5-21 10 0 6 6 10 14 10s18-4 21-10zm212-47c36-40 34-57-13-88-26-17-27-17-63 20-20 21-31 39-26 41 6 3 17 9 25 14 20 13 1 26-51 34-21 3-41 11-44 16-4 7 19 8 67 4 68-5 75-8 105-41zm-98-74c18-22 31-43 27-46-10-11-33 5-65 46-29 36-30 41-14 41 11 0 34-18 52-41zm-137-16c26-26 48-51 48-55s-26-8-58-8c-61 0-66 3-136 88l-19 22h59c56 0 60-2 106-47zm93 7c33-34 37-42 25-50-29-18-37-13-104 68-19 22-19 22 10 22 22 0 41-11 69-40z"/>
  <path d="m7018 11045c-17-39 3-75 42-75s59 36 42 75c-9 19-19 25-42 25s-33-6-42-25z"/>
  <path d="m5095 11810c-10-22-19-40-20-40-2 0-18 6-36 14-33 14-33 14-76-34l-44-49-37 16c-20 8-39 19-42 24-3 4-101-46-218-111l-212-120h-400l-28-40c-31-46-42-50-42-16 0 72-25 6-103-272-48-169-96-337-106-374l-19-66 131-88c97-65 144-90 180-96 27-5 53-8 59-6s-50 54-125 116-139 117-142 122 18 41 47 79l52 71 36-68c49-93 163-206 260-256 41-21 76-40 77-40 5-4-26-95-41-125-9-17-26-33-39-36-95-21-241-34-407-36l-194-2-20 26c-16 22-17 29-6 42 27 33 2 23-32-13l-37-37 22-45 22-44 60 2c33 1 150 7 260 13l200 11 194 59c106 32 196 61 200 64 3 4-5 4-19 1-14-4-62-13-108-20-94-14-88-21-57 64 9 25 18 50 20 57 3 8 22 6 67-9 81-26 263-35 349-19 33 7 62 11 64 9s-91-48-208-102l-211-98-355-59c-195-33-357-61-359-64-2-2 18-7 45-12 86-15 215-6 388 25 94 16 230 40 304 53l134 23 371 236c432 275 396 252 396 246 0-2-95-93-211-202l-210-198-504-248-302-58-302-57-126 20c-125 20-125 20-118 45l6 25-32-19c-35-21-37-30-17-78 13-32 15-33 120-51l107-18 764 154 254 127 253 127 320 355c353 393 428 494 411 553-5 18-17 33-27 35-15 3-17-1-11-27 6-27-1-40-56-112-50-64-99-109-238-218-97-76-181-141-188-145-7-3 3 16 22 44 58 86 95 214 95 329 0 30 6 48 18 57 16 12 15 13-5 14-17 0-25 10-37 55-9 30-19 61-22 70-4 10 0 15 10 15 26 0 91 72 104 116 6 23 12 58 12 77 0 20 9 59 20 87l20 50-48-24c-27-14-86-34-132-45-94-24-100-27-71-36 12-3 56 7 107 25 48 17 89 29 91 26 3-2 0-21-6-43-6-21-11-54-11-74 0-40-27-84-37-60-14 35-52 61-90 61-21 0-45-5-53-10-11-7-20-2-36 18l-22 27 39 76 38 77-39 27c-35 24-38 30-33 61 7 45 0 43-22-6zm63-101c2-10-16-31-48-54l-51-37-39 26c-22 14-40 30-40 35s12 19 27 31c22 17 38 20 87 18 47-2 62-7 64-19zm-305-38 28-11-42-60h-233l69 45c74 47 111 53 178 26zm124-67c37-28 38-37 12-100-10-25-10-43 1-93 12-57 18-66 83-127 38-36 82-70 97-76 52-18 46-35-52-136-89-91-81-90 31 6l51 44v-39c0-53-50-189-90-249-168-244-492-311-732-150-60 40-64 45-88 116-27 81-52 122-110 185-23 24-40 53-42 73-3 17-2 32 0 32 5 0 223-124 260-148 12-8 22-12 22-9s-49 42-110 86c-60 45-110 83-110 86 0 2 18 14 39 25 28 14 61 49 110 116 76 105 73 93 56 204-3 22 6 30 62 65l66 39 79-83c65-70 78-89 78-117 0-30-3-34-27-34-16 0-41-9-58-21l-30-20 56 6c33 4 59 3 63-3 3-5 3-39-1-76l-6-66h-53c-53 0-78-13-48-24 9-3 36-6 60-6h44v-55c0-53-1-55-27-55-31 0-60-15-47-23 5-2 24-8 42-12 32-7 33-9 30-48-2-32-7-41-19-39-9 1-22-5-29-13-11-13-8-15 19-15 30 0 31-1 33-47l1-48 6 50c5 46 9 50 36 56l30 7-27 1c-26 1-28 4-28 45v43l76 5c127 8 120 35-11 40l-60 3-3 53-3 52 75 2c42 0 82 1 89 2 16 1 22-111 8-161-13-48-6-55 12-12 61 148-13 352-136 375-44 7-50 17-39 58 8 30 199 256 216 256 5 0 25-12 43-26zm-177-42c0-46-139-58-168-14l-14 22h91c50 0 91-4 91-8zm-57-59c-18-2-48-2-65 0-18 2-4 4 32 4s50-2 33-4zm384-69c31-56 77-183 70-191-3-3-133 155-150 183-8 14 23 75 37 71 5-2 24-30 43-63zm111 54c21-21 14-66-13-84-23-15-27-15-50 0-26 17-32 45-15 77 12 22 59 26 78 7zm-905-35 36-38-144-260-47-3c-45-3-48-1-48 21 0 13 5 49 11 80 12 56 12 57 46 57 25 0 43 8 64 29 37 37 38 79 4 111-29 27-24 40 14 40 18 0 39-12 64-37zm387 12c-10-12-16-13-26-4-20 16-18 19 12 19 22 0 25-2 14-15zm-482-37c21-21 14-66-13-84-23-15-27-15-50 0-26 17-32 45-15 77 12 22 59 26 78 7zm548-160c16-13 37-32 47-43 18-20 51-86 45-89-2-1-40 0-85 2l-83 4v74c0 71 1 74 24 74 13 0 36-10 52-22zm-8-145c-26-2-71-2-100 0s-8 3 47 3 79-1 53-3zm42-143c-14-4-47-8-75-8-27 0-61 4-75 8-16 5 11 8 75 8s91-3 75-8zm-623-39c26-33 68-114 77-151 7-24 6-24-18 5-24 28-96 155-96 169 0 13 16 3 37-23z"/>
  <path d="m3345 11768c-3-7-14-43-24-80l-19-67 163-178c161-173 166-178 242-209 57-24 80-29 85-21 8 16 77 251 74 254-1 2-43 13-92 26l-89 22-162 133c-88 72-164 132-167 132-4 0-9-6-11-12z"/>
  <path d="m2825 11658c-53-17-67-28-116-86-31-37-98-130-149-207s-166-232-255-345c-88-113-165-211-170-219-7-12 1-13 42-7 48 6 52 5 117-45 37-28 70-49 72-46 3 2-5 41-16 86-26 99-18 142 11 64 26-67 77-113 125-113 50 0 73 15 95 63 22 50 23 97 4 152-8 21-12 41-10 44 9 8 53-40 69-74 15-31 15-36-5-82-24-57-25-58 111 102 56 66 106 130 110 142 5 11 12 60 16 108 7 87 7 87 42 103 34 17 34 17 58-13 13-16 25-27 27-25 2 3 30 40 61 82l58 77-68 87c-38 48-91 106-119 129l-50 42zm34-206c20-23 23-33 18-82-3-31-13-72-22-91-24-46-82-116-108-130-15-8-10 1 16 32 89 103 77 239-21 239-41 0-111-38-142-77l-22-28 17 30c38 65 107 121 169 135 42 10 67 3 95-28zm-372-394c56-62 76-186 40-242-55-84-156 35-145 170 7 86 59 122 105 72z"/>
  <path d="m3226 11512-55-111 46-98c27-57 83-148 134-218 70-95 104-131 163-174 88-64 155-96 161-78 26 71 34 100 30 107-3 4-24 11-48 14-65 10-166 117-248 261-34 61-68 121-77 135l-14 25 23-26c13-14 76-92 139-172 122-154 126-157 214-157h42l22 67c12 37 20 67 19 68s-36 16-78 34c-68 29-89 45-181 139-57 59-133 149-170 201l-67 93z"/>
  <path d="m9687 11325-77-143 36-149c20-81 40-152 45-157 6-7 459 347 459 360 0 5-53-19-259-115-96-44-176-81-177-81-2 0-15 38-30 84l-27 84 56 127c32 71 56 129 54 131-1 2-37-62-80-141z"/>
  <path d="m9296 11418c-16-26-32-77-21-66 16 15 43-13 54-56 15-63 15-159-1-154-7 3-15 17-18 33-7 40-29 43-43 6-8-22-18-31-33-31-21 0-22 3-17 53 6 63-17 155-46 181-11 10-31 16-47 14-45-5-68-56-74-163l-5-90-87-5c-84-5-109-12-94-27 4-5 51-10 104-12 76-2 102-7 121-22 29-23 64-25 81-4 7 8 29 15 50 15 33 0 38-3 46-32 13-46 31-46 44 1 15 57 34 54 26-5-8-61-28-99-49-98-20 2-16-23 9-63 35-55 69-6 87 122l11 83 68 4c109 8 109 28 0 37l-67 6-6 90c-12 170-51 248-93 183zm-236-298c0-5-16-10-35-10s-35 5-35 10c0 6 16 10 35 10s35-4 35-10zm200 0c0-5-13-10-30-10-16 0-30 5-30 10 0 6 14 10 30 10 17 0 30-4 30-10z"/>
  <path d="m6760 11361c-25-47 36-83 64-38 8 12 8 22 0 35-16 25-51 27-64 3z"/>
  <path d="m5573 11355c4-8-6-44-21-81-20-49-53-96-127-183-133-155-137-161-85-121 176 135 180 139 217 218 67 148 68 151 47 167-25 19-38 19-31 0z"/>
  <path d="m5763 11087c5-12-31-78-114-210-67-106-125-196-131-202-10-11 14 55 56 149 14 33 25 61 22 63-2 2-80-88-174-200-171-203-172-204-387-373l-216-169-271-112c-271-112-272-113-502-160-127-26-274-49-326-52l-95-6 45-24 45-23 500 44 225 80c306 109 364 129 357 122-3-3-115-60-249-126l-243-120-265-39c-238-35-277-38-387-32-113 5-122 8-133 29-14 26-40 21-40-7 0-11 9-37 19-58l20-38 103-7c315-20 254-26 534 52 243 68 258 74 521 199l272 128 362 306 161 215c153 204 166 224 240 387 72 158 77 172 62 187-15 14-16 13-11-3z"/>
  <path d="m9495 10959c-46-93-55-104-120-153-38-29-77-55-85-58-25-10-210-178-210-191 0-7 9-23 20-37s19-40 19-60c-1-61-25-195-35-194-5 1-51 5-102 8l-94 7 29-36c26-33 31-35 88-35 93 0 101 5 147 84 23 39 47 80 54 91 11 18 10 28-12 74-13 30-22 56-19 59 2 3 33 8 67 11l63 6 63-50c56-45 64-57 84-117 18-57 20-75 11-122-5-31-7-56-4-56 4 0 24 23 46 51s68 73 103 100c34 27 62 57 62 67 0 9-11 57-25 105-20 75-32 97-76 148-28 32-61 61-73 64-11 2-48 8-81 12l-60 9 54 12c49 11 61 10 118-9 59-19 68-27 116-90 28-37 52-67 54-65 1 1-26 74-61 162-49 120-66 178-71 232-4 40-11 72-14 72-4 0-29-45-56-101z"/>
  <path d="m6718 10899c-36-68-170-326-298-573l-234-449-165-195-166-195-3 64c-3 65-11 79-49 79-35 0-77-44-112-118-31-68-77-248-83-325l-3-38 200-4 5 36c8 44-8 23 270 358l235 282 287 532c158 293 288 537 287 542 0 6-24 37-53 69l-53 59z"/>
  <path d="m5770 10960c0-11-48-125-106-254l-105-234-168-225-167-226-199-163c-417-341-347-296-751-482l-360-166h-75c-45 0-117 10-186 26-106 25-113 28-113 52 0 21-2 22-15 12-8-7-15-25-15-40 0-26 6-30 105-64 96-33 114-36 216-36h112l339 151c235 106 362 168 415 205 62 43 85 54 118 54 30 0 65 14 142 58 82 45 143 93 303 235 110 97 200 175 200 172 0-4-77-95-171-203-140-162-190-212-282-283-105-80-114-85-147-78s-57-6-400-209c-201-118-383-226-406-239-24-14-86-31-152-43-101-18-119-19-194-7-80 13-129 34-155 67-10 13-12 13-18-2-21-54 51-102 185-124 82-13 105-13 209 1 64 9 127 20 140 26 14 6 175 107 359 226 303 196 338 216 387 222 52 6 61 12 251 169 107 90 197 162 200 160 2-2-25-44-60-93-77-108-203-219-304-268-59-29-108-69-282-233-288-271-289-271-675-324-78-11-101-11-169 4-44 9-81 15-83 13s24-16 57-31l61-28 384 14 204 59c112 32 206 57 208 56 2-2-71-43-161-90l-164-87-204-40-205-41-134 47c-74 25-139 52-145 60-12 16-24 8-24-15 0-11 41-35 123-74 115-54 126-57 197-57 50 0 132 13 245 39 160 36 183 44 394 142l223 104 572 514 82 131c52 83 106 188 148 287 36 86 65 157 63 159-1 2-53-79-115-179-90-146-130-201-205-278-80-83-548-487-632-546-29-20-131-50-141-41-2 3 171 162 385 354l388 349 184 288c138 217 190 306 209 365 15 42 63 166 108 274 45 109 79 204 76 213-6 14-64 52-64 41 0-3 5-16 11-29 10-21 2-49-55-198-37-95-82-200-101-233-108-191-364-436-619-593-78-47-145-88-151-91-20-10 18 24 267 242l253 221 112 165c71 105 119 187 132 225 86 259 139 438 135 450-9 22-24 18-24-5z"/>
  <path d="m8898 10730c-25-45-28-60-28-148v-98l75-74c41-41 78-70 82-66s18 42 30 84l22 77-31 32c-18 18-30 34-27 36 2 2 48 34 102 72 53 37 96 70 94 71-2 2-286 65-291 64-1 0-13-23-28-50z"/>
  <path d="m2055 10674c-27-43-44-79-39-84s37-28 71-52c35-24 91-79 129-126 37-45 68-81 70-79 2 1-6 38-17 80-17 68-18 80-5 98 13 20 15 19 47-25 18-25 33-46 35-46 1 0 18 27 38 60l36 61-98 94-97 94-61 1h-62z"/>
  <path d="m3665 10643c-9-32-20-71-25-86-6-19-6-34 3-48 10-17 23-19 107-18 52 1 126 4 164 8l69 6-146 98c-81 53-149 97-152 97-2 0-12-26-20-57z"/>
  <path d="m8369 10533-95-34-34-61c-21-39-28-59-18-56 40 16 181 58 184 56 1-2-40-30-91-61-52-32-97-63-101-68-3-6 86 36 197 92 202 101 204 101 262 96 48-4 66-12 103-42 25-21 43-39 41-42-3-2-45 3-93 11-49 9-99 16-111 16-21 0-348-228-340-236 2-2 81 38 176 89l172 93 122-13c67-7 139-20 160-28 53-21 55-19 18 19-18 19-45 36-59 40-19 4-40 25-71 71-24 36-51 69-60 74s-72 11-141 13c-123 6-126 5-221-29z"/>
  <path d="m1940 10529c-76-34-446-146-608-184-84-19-179-35-210-35-89 0-90-11-7-53 68-34 83-37 158-37 45 0 135 8 199 17 65 9 121 14 125 10s-33-47-81-96c-65-65-93-87-107-84-15 4-78-53-270-246-138-138-247-251-242-251 4 0 36 9 70 19 48 15 113 55 297 185 206 145 243 168 301 182 66 17 68 16 140-6 57-18 87-22 134-17l61 5v-34c0-19 3-34 6-34 31 0 287 259 305 308 4 10 10 44 14 77 8 65 9 65-53 11-20-18-24-18-32-6-15 23-12 29 15 42 64 29 3 161-101 217-32 17-60 31-63 31s-26-10-51-21zm184-271c8-31-17-48-73-48-41 0-44 2-30 15 14 15 76 51 90 54 4 0 9-9 13-21zm-414-24c0-3-34-44-76-90-50-55-84-84-98-84-16 0-1 20 69 90 82 82 105 101 105 84zm220-3c0-17-76-86-120-109-43-23-42-21 30 47 73 69 90 80 90 62zm54-5c-3-8-16-16-29-18-21-4-23-3-14 13 11 22 51 26 43 5zm-312-87c-51-50-96-88-100-85-9 9 160 176 178 176 8 0-27-41-78-91zm162 60c-72-76-144-130-181-136l-37-6 89 86c77 74 95 86 124 87h35z"/>
  <path d="m5846 10494c6-31-24-122-210-643-31-85-54-156-52-158s12 20 24 49c11 29 81 202 155 385l135 332-29 33-28 33z"/>
  <path d="m9250 10276-63-115-56-15-56-14 80 1 80 2 43 124c23 68 40 126 38 128s-32-48-66-111z"/>
  <path d="m5881 10309c-4-50-119-439-164-553l-52-134-260-292-32-117c-17-64-34-134-37-156l-7-39 32 26c42 35 92 61 161 81 63 18 57 7 79 145 15 102 62 245 98 302 39 62 71 82 120 75l38-5 6 152c3 83 11 226 17 317 7 92 10 177 7 190-2 13-5 17-6 8z"/>
  <path d="m9421 9704c-331-310-605-564-608-564s1 10 10 23c264 400 290 442 260 412-26-26-797-947-809-966-6-11-2-10 16 2 14 9 127 82 251 162l225 146 620 657c564 598 654 695 643 693-2 0-276-254-608-565z"/>
  <path d="m6805 9863c-183-341-246-447-518-868-370-573-383-593-369-580 6 6 175 233 376 505l365 495 181 414c99 228 178 416 176 418s-97-171-211-384z"/>
  <path d="m7975 10043c-83-42-99-47-214-59-69-8-127-16-130-19s24-36 60-73c35-37 105-110 154-162 59-62 107-102 139-117 60-29 185-67 193-60 3 3-54 79-128 169-164 202-152 185-141 192 5 3 78-80 163-185 86-106 163-192 174-194s42-7 69-10l49-7-30 39c-16 21-88 112-160 203-142 181-148 190-135 190 6 0 243-295 328-409 10-12 16-11 50 9 21 13 40 24 42 26 2 1-56 95-129 208-102 159-145 218-189 256-32 28-62 50-66 49-5 0-49-21-99-46z"/>
  <path d="m7197 9773-178-245-71-301c-81-344-83-354-75-347 3 3 41 104 85 226 65 179 112 284 252 563 94 189 170 344 168 346-2 1-83-108-181-242z"/>
  <path d="m11160 10013c0-5 18-115 39-247l39-239-270-641c-149-352-308-732-355-842l-85-202-476-218-477-219-421-567-420-566-298-542c-164-298-296-543-294-545 2-1 160 210 353 469 192 259 531 714 752 1012l402 541 343 210c189 116 344 210 345 209 2-2-55-124-126-272-128-269-129-269-237-398-76-90-199-212-406-403l-297-274-587-722c-323-397-596-731-606-743-18-20-43-161-132-729-8-49-53-333-101-630s-97-610-111-695c-13-85-27-157-32-161-13-12-682-126-682-116 0 6 101 253 224 551l225 541 15 225c9 124 18 272 22 330l6 105 278 760c154 418 326 888 384 1045 58 156 104 285 103 287-2 1-230-517-507-1153l-503-1155 18-207 17-207-267-585c-147-322-276-606-287-632-17-40-25-48-47-48-14-1-134-7-266-14-132-8-242-12-244-10-8 8 20 159 34 179 7 11 144 166 304 344 265 295 291 326 291 359 0 32 22 280 69 797l19 200 130 289c72 159 125 283 117 275s-78-106-156-219l-142-205-27-140c-15-77-37-192-48-255-12-63-42-224-67-357l-45-242-280-400-281-400-25-103c-14-56-26-104-28-105-1-1-119 49-261 112-143 63-263 115-268 115s-76-32-159-70c-83-39-153-70-157-70-3 0 116 122 264 271l270 270 285 144c157 79 310 157 340 173l54 30 33 204c18 111 49 299 68 417s34 216 32 217c-2 2-45-139-96-314-51-174-96-323-100-330-8-14-393-233-400-227-3 4 75 310 161 630 29 110 89 274 224 609 101 253 183 461 181 462-1 2-191-388-422-866l-420-868-353-364-352-363-98-186-97-187-524-152-268 55c-147 31-269 58-272 61-3 2 5 36 18 74l22 69 558 536 397 185 398 185 448 630c555 780 530 745 524 745-4 0-1030-1198-1047-1222-3-5-221-107-485-228l-479-219-285-291c-255-260-288-291-316-290-37 0-465 46-574 60-41 6-198 15-348 20-151 4-276 11-279 14s22 36 56 75c33 38 61 71 61 74s-84-33-187-80c-104-47-197-87-209-90-15-3-40 14-95 64-41 38-100 84-131 102-32 18-60 36-62 40-3 4 113 114 257 245l263 238 350 213 350 212 470 368c258 203 521 410 584 460s228 180 365 287c138 108 385 302 550 432l300 235 227 343c125 189 433 655 685 1037l458 694 374 312 177 400c97 220 298 664 445 987 148 322 269 591 269 596 0 16-121 115-129 106-5-5-176-380-380-834l-372-825-211-340c-266-428-201-335-703-1014l-430-582-27 31c-35 38-36 79-3 118 20 24 52 122 39 122-6 0-214-244-214-251 0-4 27-24 60-44s60-40 60-45-45-50-100-101c-109-101-103-89-83-176 3-13 0-23-6-23s-13 12-17 28c-3 15-8 33-10 40-2 9-25-5-63-40l-59-53-7-100c-4-56-12-103-19-107-6-4-58-8-115-8h-103l7-97c4-54 8-102 8-107 2-9-442-376-454-376-6 0-3 58 5 118 3 19-6 28-45 48-42 21-49 29-49 54 0 45 19 77 62 105 22 15 38 28 36 29-1 2-72 1-156-2l-154-5-69-60c-38-33-69-64-69-70s27-57 61-114c33-58 58-107 55-110-15-15-110 23-167 67-35 27-64 48-65 47s4-78 11-172c7-93 15-214 17-267l3-97-1900-1540-392-208c-216-114-392-210-393-214 0-3 33-15 73-28 160-49 572-184 576-187 3-2-3-10-13-17-14-10 45-22 351-70l368-57 405 30c223 16 409 30 415 30 5 0-26-36-70-80-54-54-74-81-64-84 8-3 220-50 473-106l459-100 226 106c124 59 239 113 254 121 28 14 29 14 22-8-6-18-4-21 9-16 9 4 169 72 355 152 187 80 352 145 368 145 15 0 96-9 178-20 83-11 196-25 252-32 56-6 107-14 113-18 8-5 6-26-6-74-9-37-14-69-11-72 5-5 633 137 673 153 13 5 15 2 9-18-4-13-16-41-27-62-11-22-18-41-16-43s235 82 518 186 516 187 518 185c3-2-3-49-12-103s-16-101-16-106c0-4 114 51 254 123s257 131 260 131c4 0 0-13-9-30-9-16-12-30-8-30 5 0 130 53 278 119l270 118 120 7c194 11 709 47 711 49 1 1 306 438 679 971l677 970-61 262c-34 144-61 270-61 280s20 43 44 73c42 55 46 66 209 641l166 585-94 375c-51 206-96 395-99 420-5 39 17 118 168 600l174 555-99 163c-54 89-99 169-99 176 0 8 54 127 120 264 66 136 120 253 120 259 0 21-218 583-226 583-2 0-4-3-4-7zm-26-1322c14-146 13-154-6-209-11-31-89-262-173-512l-153-455-339-702-338-703-413-501c-228-275-412-502-410-504 2-1 214 192 471 429l469 432 370 733c257 508 373 729 379 719 5-8 16-167 25-354l16-339-97-380c-53-209-121-473-150-586l-52-206-1022-1362-146-287c-80-158-143-289-141-291s114 149 249 335c161 221 387 512 652 838 223 274 409 500 413 502 7 2-4-385-14-475-5-50-33-92-615-915-336-475-617-869-624-877-13-13-1065-245-1073-236-2 2 64 147 148 322l151 318 575 635 574 635 205 408c113 224 203 407 201 407s-135-191-295-424l-292-425-563-591-563-590-179-428-179-427-153-8c-84-5-155-7-156-5-2 1 25 165 59 363 35 198 95 542 133 765 39 223 94 543 124 711l53 307 710 913 710 914 270 243c148 134 273 248 276 255 4 7 37 136 74 287l68 275 120 75 121 75 177 370c284 589 331 686 336 682 2-2 10-72 17-156zm-6826-3842c18-16 32-34 30-38-2-5-64-58-139-119-108-87-139-108-152-100-9 5-17 14-17 20 0 12 228 268 238 268 4 0 22-14 40-31zm4147-2100c-75-23-78-23-65 1 9 17 20 20 68 19l57-1z"/>
  <path d="m9938 6318c-214-284-338-437-640-783l-375-431-17-194c-9-107-23-274-32-370-8-96-16-190-19-208-2-18 0-32 4-30 11 4 740 812 736 816-2 2-121-85-265-192-144-108-267-196-274-196s-33 7-58 15l-45 16 72 188c39 104 80 199 91 213 10 13 192 219 404 457l385 433 153 305c84 168 151 307 149 309-2 3-124-154-269-348z"/>
  <path d="m8591 4647c-24-100-81-341-127-536s-84-358-84-362c0-9 401 280 430 309 19 18 23 21-138-73-74-42-135-75-137-73-3 3 2 49 69 612 20 165 35 301 33 302-2 2-23-78-46-179z"/>
  <path d="m1560 9915c-8-2-31-6-50-9-31-5-56-29-180-167-116-129-156-180-198-260l-54-99 34 1c18 1 43 4 54 7 12 4 108 100 214 214s197 205 202 202c6-4-8-25-29-48-163-171-334-359-331-362 11-10 174 27 189 43 9 10 79 88 154 173s141 157 146 158c25 9-3-26-135-173-79-88-141-161-137-163 4-1 33 7 65 18 74 25 124 70 253 229l102 125-17 29c-25 42-33 46-122 68-75 17-122 22-160 14z"/>
  <path d="m8987 9770c-97-83-177-153-177-156 0-14 290 195 307 221 11 16 28 42 37 58 10 15 16 27 14 27-3 0-84-68-181-150z"/>
  <path d="m4565 9729c-298-135-317-142-508-190-193-48-201-49-349-49-142 0-153 1-175 22s-23 21-43 3c-16-14-20-29-18-59l3-41 210-34 275 45c151 25 277 47 280 48 18 9 627 381 635 388 5 4 7 8 5 8-3 0-144-64-315-141z"/>
  <path d="m7785 9215-178-264-68-288c-37-158-147-623-243-1033-97-409-176-749-176-755 1-10 39 79 176 411 78 190 86 221 350 1329 71 297 81 326 203 594 66 146 119 266 118 268-2 1-84-116-182-262z"/>
  <path d="m8208 9152c-164-274-166-278-187-377-11-55-52-248-90-430-38-181-108-535-156-785-47-250-135-711-194-1025-60-313-108-571-106-573s42 73 90 165 227 416 396 718l309 550 765 574c421 316 768 578 771 583 7 11 37 30-846-534l-755-483-233-460c-128-253-231-449-228-435 86 446 203 1073 311 1675l87 480 118 314c66 173 118 316 117 317-2 2-77-122-169-274z"/>
  <path d="m5317 9282c-22-23-27-37-27-80 0-35-5-54-14-58-13-5-11-54 3-54 9 0 74 197 69 211-2 5-16-3-31-19z"/>
  <path d="m9960 9015-285-286-683-420c-376-232-685-419-687-417-3 2 23 118 55 258 33 140 59 258 57 263-1 5-15-20-29-55-15-34-66-153-113-263-133-306-216-507-213-517 2-4 127 71 278 168 668 430 1407 908 1424 923 10 9 120 149 244 311s229 301 235 308c29 37-25-14-283-273z"/>
  <path d="m5245 9210c-3-5-1-18 4-27 9-16 10-14 11 10 0 28-5 34-15 17z"/>
  <path d="m5216 9158c-12-45-7-68 14-68 14 0 20 7 20 23 0 31-11 67-20 67-4 0-10-10-14-22z"/>
  <path d="m5188 9147c-12-29-10-73 3-60 6 6 9 26 7 44-2 26-5 30-10 16z"/>
  <path d="m5597 9063c-9-88-9-220-1-316l7-77h67c78 0 80 2 80 103v58l-54-30c-65-37-68-38-61-6 3 14 7 35 10 48 2 13 32 45 68 74l63 50 11 74c5 41 8 77 6 82-2 4-46 7-97 7h-93z"/>
  <path d="m5495 9101c-59-21-122-59-149-90-12-13-25-51-32-94-14-84-4-118 50-164 43-36 145-83 181-83h30v225c0 253 6 237-80 206z"/>
  <path d="m5175 9016c-4-24-5-52-2-62 3-14 5-11 6 8 0 15 6 30 11 33 13 8 13 52 1 60-6 3-13-14-16-39z"/>
  <path d="m5210 9044c0-3 5-15 12-27 11-21 11-21 18-2 4 11 6 23 3 28-5 8-33 10-33 1z"/>
  <path d="m5260 9026c0-8-6-21-13-28-13-14-11-118 3-118 4 0 11 36 16 80 6 44 6 80 2 80s-8-6-8-14z"/>
  <path d="m6497 8771c-59-142-107-265-107-272 0-8-27-139-59-292-43-201-64-284-78-300-528-590-587-659-487-566 27 25 180 164 339 309 160 145 293 270 297 279s19 133 34 276c25 255 27 265 101 538 41 154 73 280 71 282s-52-112-111-254z"/>
  <path d="m5196 8975c-3-9-6-35-6-57 0-32 3-39 18-36 14 3 16 12 14 48-3 49-16 71-26 45z"/>
  <path d="m5157 8831c-4-18-6-54-6-80l1-46 9 60c11 70 8 119-4 66z"/>
  <path d="m5226 8829c-20-39-21-73-2-88 11-9 15 0 20 50 4 34 5 63 3 66-3 2-12-10-21-28z"/>
  <path d="m5178 8780c-2-28 0-40 9-40 8 0 13 13 13 34 0 49-17 54-22 6z"/>
  <path d="m5282 8733c-5-38-8-69-7-71 1-1 49-1 106 0l104 3-50 24c-27 14-69 44-93 68-23 24-44 43-46 43s-8-30-14-67z"/>
  <path d="m4446 8684c-160-89-223-118-423-190l-234-85-72 18c-79 20-87 25-87 66 0 40-15 26-30-28-13-45-12-47 17-78 27-28 29-36 21-60-6-16-7-31-4-35 4-3 50 5 104 18 68 16 168 55 332 129 212 97 251 118 405 225 194 136 181 126 169 125-5 0-94-48-198-105z"/>
  <path d="m8866 8733c-9-26-54-142-100-258-46-115-82-211-81-213 4-4 388 308 420 341 20 20 20 20-15-1-19-11-91-54-159-96-69-42-128-76-132-76-3 0 16 77 43 171s47 173 45 176c-3 2-12-17-21-44z"/>
  <path d="m5177 8713c-13-12-7-33 8-33 8 0 15 9 15 20 0 20-11 26-23 13z"/>
  <path d="m5140 8651c0-27-3-56-6-65-4-11-1-16 10-16 13 0 16 12 16 59 0 33-4 63-10 66-6 4-10-13-10-44z"/>
  <path d="m5170 8620c0-38 4-50 15-50s15 12 15 44c0 30-5 46-15 50-12 4-15-4-15-44z"/>
  <path d="m5578 8608c-3-8-54-13-159-17-136-6-147-7-94-14 118-17 207-75 247-162 15-33 50-30 58 5 5 21 7 23 16 8 5-9 20-18 34-20 27-3 25-9 44 140l7 52h-56c-30 0-55 5-55 10 0 14-37 13-42-2zm41-29c20-58 7-179-20-179-10 0-29 66-29 105s19 105 29 105c5 0 14-14 20-31z"/>
  <path d="m4626 8585c-26-8-60-25-75-39-21-20-37-26-74-26-55 0-104-18-131-49-42-47 15-102 119-117l50-7-25 28-25 27 27 23c35 30 103 41 167 25 30-7 68-9 93-5 129 22 265-14 221-59-4-4-8-17-8-29 0-28-27-35-140-36-72-1-86-4-70-13 29-17 208-23 271-9 65 15 86 41 52 65-12 9-28 16-35 16-19 0-16 9 10 30 28 24 15 50-34 67-46 16-185 15-232-2-59-20-127 5-127 47 0 28 61 49 160 56 63 4 77 8 55 13-51 11-197 8-249-6z"/>
  <path d="m10107 8198-508-390-487-591c-268-325-493-600-501-611-14-22 167 155 849 829 597 591 1164 1149 1169 1152 2 2 0 3-5 2-5 0-238-176-517-391z"/>
  <path d="m5130 8537c0-7-7-81-15-166s-12-157-10-160c16-15 27 29 35 130 5 63 12 132 16 155 4 32 2 42-10 47-9 4-16 1-16-6z"/>
  <path d="m5174 8518c3-13 6-26 6-30 0-5 5-8 10-8 6 0 10 14 10 30 0 21-5 30-16 30-12 0-15-6-10-22z"/>
  <path d="m5260 8536c0-2 17-15 39-29 21-14 48-42 61-61 21-35 24-36 81-36h59l-16 26c-28 41-95 81-159 93-67 12-65 12-65 7z"/>
  <path d="m5240 8465v-45h45c25 0 45 2 45 5 0 9-72 85-81 85-5 0-9-20-9-45z"/>
  <path d="m4240 8450c-12-8-12-11 3-28 17-19 24-87 9-95-4-3-3-40 1-84 4-43 11-182 15-310 4-127 10-235 15-239 9-9 9 238 0 539-6 229-8 239-43 217z"/>
  <path d="m5158 8437c-15-37-9-113 11-131 18-16 19-15 25 25 5 31 3 44-8 53-8 6-16 25-18 41-2 24-4 26-10 12z"/>
  <path d="m4196 8414c-18-17-21-51-6-74 7-12 10-12 10-1 0 9 8 11 25 7 22-6 25-3 25 23 0 24-21 61-35 61-2 0-11-7-19-16z"/>
  <path d="m4005 8356c-66-30-147-59-180-66s-63-16-66-19c-6-6 26-189 34-197 2-3 80 36 173 85l169 89 3 81c2 45-1 81-5 80-4 0-62-24-128-53z"/>
  <path d="m5216 8279c-3-52-7-239-9-416l-4-323h83c46 0 86-4 89-10 4-6-25-10-79-10-51 0-86-4-86-10s38-10 93-10c87 0 95-2 117-25 30-31 23-34-105-38l-100-3 108-2c87-2 107-5 107-17s-19-15-102-17l-103-2 97-3c94-4 97-4 85-23-10-18-23-20-110-20h-98l3-26c3-24 8-27 53-31 54-4 72-13 123-61 31-29 32-33 33-114 0-50 3-75 8-63 20 52 84 402 78 426-4 15-24 50-46 79-34 45-38 57-34 93 6 59 32 127 48 127 23 0 55-51 72-113 10-35 19-53 24-45 4 7 17 59 30 116 19 88 21 109 11 152-10 45-9 54 18 120 16 39 37 111 46 160 15 85 15 92-2 134l-18 43-141 7c-77 3-172 9-211 12l-72 7zm271-259c117-53 63-158-85-166-62-3-64-3-23 6 147 32 141 149-9 171-45 6-45 6 15 7 40 1 74-5 102-18z"/>
  <path d="m4196 8295c-8-21-8-118 0-139 11-30 46 57 42 106-3 45-29 65-42 33z"/>
  <path d="m5145 8258c-9-24 1-48 20-48s19 20 1 46c-14 18-15 18-21 2z"/>
  <path d="m3968 8127c-150-78-158-83-158-112 0-41 10-53 45-57 27-3 30-7 33-40 2-20-6-68-17-106-12-38-21-73-21-78 0-4 23 14 51 41 56 55 104 140 119 212 10 45 15 50 68 79l57 31 3 56c2 42 0 57-10 57-7 0-84-38-170-83z"/>
  <path d="m4225 8160c-3-11-4-29 0-39 3-11 1-22-5-26-11-7-13-51-4-118l7-46 18 37c14 26 19 57 19 112-1 70-2 74-16 55-15-19-16-18-9 13 7 35 0 44-10 12z"/>
  <path d="m5096 8127c-3-28-6-70-6-92l1-40 14 34c16 36 20 137 6 145-4 3-11-18-15-47z"/>
  <path d="m5136 8154c-12-30 17-144 36-144 5 0 8 36 8 80 0 72-2 80-19 80-10 0-22-7-25-16z"/>
  <path d="m4192 8090c0-19 2-27 5-17 2 9 2 25 0 35-3 9-5 1-5-18z"/>
  <path d="m4639 8085c-28-15-78-88-99-145-7-19-18-39-24-45-6-5-12-21-12-35-1-14-11-72-22-130-37-184-46-289-45-525 0-202 5-278 29-437 5-34 4-37-23-41s-27-4 5-6c24-1 32-5 32-20 0-12-8-21-22-24-21-4-21-4 3-6 23-1 27-7 38-58 20-91 70-201 111-244 29-31 44-39 73-39 66 0 128 81 172 225 21 69 22 70 61 76l39 6-37 2c-35 1-49 13-30 25 14 8 82-6 76-15-3-5-1-9 5-9 5 0 12 4 16 9 5 10-6 15-64 26-31 7-33 9-27 38 58 288 53 774-10 1042-23 99-26 95 74 97l87 2-95 5c-52 3-95 11-96 16 0 6-6 23-12 38-7 16-12 32-12 36 0 18-70 114-96 132-34 22-59 23-95 4zm98-117c11-13 26-33 32-45 11-22 10-23-41-25l-53-1 54-6c53-6 54-7 72-52 25-65 47-177 65-337 19-160 14-601-8-737l-13-80-54-10c-30-6-56-15-58-21-4-13 28-24 70-24 27 0 28-2 22-32-14-65-47-154-71-190-65-100-136-33-189 177-16 64-20 94-13 103 8 9 6 17-5 30-26 28-41 199-41 457 0 247 10 365 46 540 28 140 23 135 121 137l82 2-85 6c-79 5-90 13-30 23 24 4 24 4-2 6-32 1-35 16-12 51 37 55 77 65 111 28zm103-1313c0-16-53-21-87-8-15 6-13 9 12 14 53 12 75 10 75-6z"/>
  <path d="m4111 8012c-30-15-38-27-56-87-31-100-70-172-124-230l-47-50 5-120 6-119 35 42c32 38 41 42 115 57 44 8 90 18 101 20 30 7 39 92 12 106-14 8-18 23-18 68 0 51 2 59 18 55 16-5 16 4 8 135-5 78-12 141-15 141s-21-8-40-18z"/>
  <path d="m5104 7951-6-68-107 2c-63 1-73 1-23-2 45-2 82-8 82-13 0-6 13-10 29-10 20 0 31-6 34-17 3-10 5-5 6 12s8 43 16 58c10 21 12 34 5 47-6 10-10 28-10 39 0 12-4 21-9 21-6 0-13-31-17-69z"/>
  <path d="m5141 8010c0-8 4-24 9-35 5-13 9-14 9-5 0 8-4 24-9 35-5 13-9 14-9 5z"/>
  <path d="m4201 7820c1-123 2-132 14-105 19 40 19 164 0 206-13 32-14 26-14-101z"/>
  <path d="m5147 7913c-4-6-9-40-12-75l-5-63 15 34c16 33 17 128 2 104z"/>
  <path d="m4247 7903c-11-10-8-143 3-143 6 0 10 32 10 75 0 75-1 81-13 68z"/>
  <path d="m4450 7870c0-5 12-10 26-10s23 4 19 10c-3 6-15 10-26 10-10 0-19-4-19-10z"/>
  <path d="m5082 7683c1-128 2-137 7-67 4 45 13 89 20 98 11 13 11 25 1 66-7 27-16 50-21 50s-8-66-7-147z"/>
  <path d="m5159 7798c-7-13-16-26-22-29-6-4-7-29-3-63 8-57 21-80 32-52 5 14 12 166 7 166-1 0-8-10-14-22z"/>
  <path d="m4240 7726c0-14 5-28 10-31 12-8 13-35 1-35-5 0-12 10-17 23-6 16-9 3-11-48-3-43 0-71 6-73s11-24 11-48c0-49 16-59 27-16 10 33 8 163-2 215-8 41-25 50-25 13z"/>
  <path d="m5101 7458c-1-115 3-189 9-193 12-8 13 281 1 340-6 27-9-20-10-147z"/>
  <path d="m5130 7614c0-21 3-25 9-15 5 7 14 10 20 7 6-4 11 0 11 10s-3 14-7 11c-3-4-12-2-20 4-10 9-13 6-13-17z"/>
  <path d="m5147 7577c-10-26-9-179 2-195 18-29 28 113 12 183-5 25-8 27-14 12z"/>
  <path d="m4282 7523c-7-34-18-63-25-66-9-3-9-9 1-27 10-16 11-25 3-33-19-19-13-54 11-60 12-4 24-5 25-3 2 2 2 59 1 127l-3 124z"/>
  <path d="m5074 7370c0-85 2-120 3-77 2 42 2 112 0 155-1 42-3 7-3-78z"/>
  <path d="m4214 7425c0-49 1-71 3-48s2 64 0 90-3 8-3-42z"/>
  <path d="m6825 7148c-145-194-409-544-585-778-294-389-343-460-574-830-267-427-275-441-259-425 6 6 159 188 340 407l329 396 207 162 207 161 416 114c229 62 418 116 420 118 5 5 184 713 183 724 0 5-33-86-73-202-79-226-125-341-150-380-12-18-42-32-118-56-677-207-710-219-777-267-95-69-99-71-80-41 9 13 183 289 388 612 204 324 379 600 388 613 8 13 13 24 9 24-3 0-125-159-271-352z"/>
  <path d="m3975 7405c-11-81 7-186 56-348 23-75 44-136 45-134 2 2-3 55-12 118l-15 114 60 108c33 59 56 107 51 107s-30-9-56-20-51-19-56-18c-5 2-22 32-38 68l-28 64z"/>
  <path d="m5525 7374c-14-84-79-384-85-395-5-8-29-9-78-4-72 7-94 20-136 79-11 17-14 5-20-95-3-63-9-156-12-206l-6-93h433l-6 73c-25 290-70 665-80 675-2 2-7-13-10-34z"/>
  <path d="m3894 7333c-4-20-81-112-247-296l-242-266-370-298c-204-164-515-414-691-557l-322-258-428-240c-236-131-576-320-756-421-180-100-326-183-324-184 1-2 279 126 617 284l614 287 295 206c162 113 515 356 784 540l488 335 276 283c156 161 278 278 281 271 2-7 21-40 42-73 38-60 38-61 16-68-12-3-34-6-49-7-16-1-28-7-28-14 0-8-9-94-20-193l-20-179 22-52c21-52 22-53 63-53 38 0 45-4 71-41 15-23 29-37 30-33 1 5 5 83 7 172l5 164-59-7c-38-5-59-3-59 3s26 14 58 18c31 3 91 12 132 19l75 13-50 2c-51 2-49 4 18 15 33 5 37 9 37 34 0 26-4 29-46 35-26 3-63 7-83 7-37 1-31 3 107 25 30 5 33 8 30 37l-3 31-63 1h-62l-39 115c-21 63-51 171-66 240s-29 127-31 129-7-9-10-26z"/>
  <path d="m5136 7215c4-71 8-256 8-410 1-355 11-254 20 195l7 346h-22c-21 0-21-1-13-131z"/>
  <path d="m4250 7315c0-8 6-15 14-15 22 0 28 17 10 24-22 9-24 8-24-9z"/>
  <path d="m4273 7287c-25-11-31-42-10-51 10-5 10-7 0-12-17-8-17-70 0-77 24-9 40-90 33-169-3-40-8-110-10-155-2-52-9-91-19-106-13-21-14-66-8-378 4-195 6-360 3-367-2-7-12-12-21-10-14 3-16 20-13 138 1 74-2 151-7 170-6 23-9-88-10-332l-1-368h50v158c0 86 4 163 9 170 15 24 21-26 21-180v-148h65v164c0 90 3 168 8 172 17 18 22-18 22-172l-1-164h23c22 0 23 4 23 78 0 85 11 115 32 94 9-9 13-41 13-93 0-64 2-79 15-79s15 29 15 218c1 119 5 224 10 232 18 29 25-44 24-245l-1-200h67l2 125c2 68 5 131 9 140 13 32 23-27 23-147l1-123h50v154c0 163 7 227 21 204 5-7 9-91 9-185v-173h90v149c0 83 4 152 9 155 13 9 21-58 21-186v-118h70v123c0 110 9 161 25 146 3-3 6-65 7-137l2-132h56v183c0 187 6 240 21 215 5-7 9-100 9-206v-193l53 3 52 3 3 77c3 70 1 78-23 102-18 18-25 36-25 65 0 51 15 91 35 91 8 0 15 5 15 12 0 6-3 8-7 5-11-12-33 15-33 40 0 35-18 63-40 63-11 0-20 5-20 10 0 6 11 10 25 10 21 0 25 5 25 30 0 22-4 28-15 24-12-5-15 4-15 45 0 48 12 67 23 39 3-7 6 5 6 26 1 25-5 43-16 51-24 18-30 121-10 166 14 32 30 117 28 149 0 8-6 47-12 85-13 77-5 177 15 198 7 7 15 25 18 40 4 21 1 27-12 27-21 0-30 37-30 118 0 30-2 53-4 51s-12-236-21-519-18-520-20-527c-3-8-56-12-184-13l-181-1v50c0 27-3 56-6 65-12 31-24 4-24-55v-59h-190v219l68 4 67 3-67 2c-52 2-68 5-68 17 0 11 21 15 103 18l102 3-204 4-4 58-3 57-2-62c-2-49-5-63-17-63-10 0-15 12-17 38l-1 37-4-34c-3-19-12-40-21-47-16-12-16-13 1-19 15-6 17-21 17-113 0-58 2-103 4-101 3 3 6 55 7 117 1 84 5 112 14 112 10 0 13-30 14-123l2-123-50-2-49-2-6 78c-3 42-8 275-12 517s-9 490-13 551c-6 111-6 111-28 101zm374-1224c-2-16-4-3-4 27s2 43 4 28c2-16 2-40 0-55z"/>
  <path d="m5103 7150c0-47 2-66 4-42 2 23 2 61 0 85-2 23-4 4-4-43z"/>
  <path d="m4213 7150c0-36 2-50 4-32 2 17 2 47 0 65-2 17-4 3-4-33z"/>
  <path d="m4245 7110c-9-40 4-160 20-183 12-17 13-16 19 5 15 57 0 188-24 203-4 3-11-8-15-25z"/>
  <path d="m5082 7065c0-33 3-73 7-90 5-25 8-27 14-12 4 11 5 23 1 28-3 5-9 37-13 72l-8 62z"/>
  <path d="m4223 6975c0-27 2-38 4-22 2 15 2 37 0 50-2 12-4 0-4-28z"/>
  <path d="m4250 6903c0-13 5-23 10-23 13 0 13 11 0 30-8 12-10 11-10-7z"/>
  <path d="m4258 6864c-5-4-8-39-8-78 1-53 3-67 11-54 11 20 8 144-3 132z"/>
  <path d="m4223 6820c0-25 2-35 4-22 2 12 2 32 0 45-2 12-4 2-4-23z"/>
  <path d="m5097 6837c-4-10-7-60-7-110 0-109 15-147 25-66 8 64-6 204-18 176z"/>
  <path d="m4212 6635c0-94 3-119 9-90 10 50 10 162-1 195-5 15-8-26-8-105z"/>
  <path d="m4374 6709c-10-16 11-31 37-26 22 4 22 4-3 6-31 1-38 17-10 24 15 4 15 5 0 6-9 0-20-4-24-10z"/>
  <path d="m5186 6528c-9-98-13-748-5-748 3 0 28 26 56 58l50 57 6 115c8 142 34 247 88 350 47 91 122 167 193 196 90 37 63 44-168 44h-214z"/>
  <path d="m5561 6527c-94-48-182-180-220-329-23-90-38-258-23-258 17 0 102 101 95 114-4 6-20 31-35 55-15 25-28 50-28 57 0 6 59 84 130 173 88 109 130 170 130 186 0 14-1 25-2 25-2 0-23-10-47-23z"/>
  <path d="m4227 6503c-4-21-7-69-7-108 1-64 2-68 15-51 10 14 15 44 15 95 0 87-14 124-23 64z"/>
  <path d="m5100 6500c0-20 5-30 15-30s15 10 15 30-5 30-15 30-15-10-15-30z"/>
  <path d="m4405 6477c-4-13-5-39-2-58 3-31 4-29 6 11 3 38 4 41 11 20 8-24 8-24 9 7 1 39-16 53-24 20z"/>
  <path d="m4087 6483c-4-3-7-23-7-44 0-34-3-38-27-41-28-3-28-4-31-80-3-75-4-78-27-78-13 0-35 4-49 10-23 8-26 15-26 60v50h-44c-27 0-51 6-60 16-15 14-16 13-16-14 0-17-2-37-5-45-4-10 8-19 40-31 36-14 45-22 45-41 0-14 9-29 20-35 16-8 20-21 20-60 0-56-16-66-44-27-16 21-17 19-11-43 3-35 10-69 15-74 20-20 10-36-21-36h-31l5-122c4-114 8-131 45-226 30-75 56-122 97-172 31-39 58-70 60-70 3 0 2 55 0 123-3 67-7 184-10 259l-5 137 140 14v137c0 75 3 205 7 288l6 152h-40c-22 0-43-3-46-7z"/>
  <path d="m5096 6442c4-9 9-32 12-49 6-43 19-42 28 1 7 40 2 52-27 59-16 4-19 2-13-11z"/>
  <path d="m5070 6352c0-40 4-72 9-72 8 0 3 130-5 139-2 2-4-28-4-67z"/>
  <path d="m5118 6324c-5-4-8-21-7-38 0-30 0-30 10-7 11 27 8 57-3 45z"/>
  <path d="m4813 6300c190-11 161-23-98-40l-140-9 155 5c165 6 221 13 221 29 0 15-65 24-166 23l-90-1z"/>
  <path d="m6945 6207-120-62-392-525c-216-289-410-548-432-576-35-47-57-61-222-146l-184-94-482-589-481-588-551-221c-303-121-549-221-548-223 2-1 263 77 582 175l578 177 693 700 692 700 501 664c276 365 501 665 501 667 0 9-22 0-135-59z"/>
  <path d="m7305 6258c-3-7-16-44-29-83-252-732-244-712-436-1106-100-206-185-378-188-384-9-15 55 42 248 219 137 127 302 267 459 392 2 2-1 45-6 96l-10 93 145 250c79 138 154 265 165 284 50 83-16 1-228-284-126-168-229-304-231-302-1 1 24 175 56 387 31 212 59 400 62 418 5 32 1 42-7 20z"/>
  <path d="m5117 6246c-15-12-17-27-15-102 3-75 6-89 21-92s17 7 17 102c0 58-1 106-2 106-2 0-11-7-21-14z"/>
  <path d="m4243 6170c0-41 2-58 4-37 2 20 2 54 0 75-2 20-4 3-4-38z"/>
  <path d="m3378 5918-307-283-588-381c-323-210-610-396-638-412-34-21-92-41-180-61-71-17-233-56-360-86-305-74-286-70-280-53 4 11-46 30-227 85-128 40-234 71-235 69-1-1 79-40 179-86l180-84-31-28-32-28 146-188 130-45c72-25 195-69 275-97s138-44 130-37c-8 8-132 85-275 172s-266 163-273 170c-11 9-10 17 5 43 10 18 25 32 34 32 31 0 724 80 738 85 8 3 289 182 625 397l611 391 225 231c123 127 278 286 344 354 66 67 118 122 115 122s-143-127-311-282z"/>
  <path d="m5110 5996c0-19 5-38 10-41 6-3 10 5 10 19 0 13 3 31 6 40 4 11 1 16-10 16-12 0-16-9-16-34z"/>
  <path d="m4230 6001c0-26 16-35 24-15 10 25 7 34-9 34-8 0-15-9-15-19z"/>
  <path d="m4518 5885c-2-42 0-119 3-173 5-83 6-72 7 76 2 176-4 232-10 97z"/>
  <path d="m5109 5863c-12-32-1-94 19-101 9-3 12 14 12 62 0 70-13 86-31 39z"/>
  <path d="m4112 5870c-18-4-36-11-39-14-4-3-1-115 5-248l12-242-26-40-27-40-74 80-74 79 7-55c4-30 15-94 25-143l18-88 78-83c43-46 80-82 82-80 1 1-16 38-40 82l-43 80 67 89 67 90 131 7c166 9 193 21 238 113 17 35 31 65 31 68 0 2-84 6-187 7l-188 3-8 165c-5 91-12 168-15 171-4 3-22 3-40-1z"/>
  <path d="m5014 5770c0-52 1-74 3-47 2 26 2 68 0 95-2 26-3 4-3-48z"/>
  <path d="m4360 5730c0-68 2-121 6-118 7 7 6 229-1 236-3 3-5-50-5-118z"/>
  <path d="m4704 5705c0-71 1-99 3-62s2 96 0 130-3 4-3-68z"/>
  <path d="m4624 5685c0-66 1-92 3-57 2 34 2 88 0 120-2 31-3 3-3-63z"/>
  <path d="m4273 5720c0-41 2-58 4-37 2 20 2 54 0 75-2 20-4 3-4-38z"/>
  <path d="m4924 5685c0-60 1-84 3-52s2 81 0 110-3 3-3-58z"/>
  <path d="m4824 5670c0-52 1-74 3-47 2 26 2 68 0 95-2 26-3 4-3-48z"/>
  <path d="m4448 5724c-11-10-10-132 1-138 5-3 11 11 14 32 6 43-4 117-15 106z"/>
  <path d="m3468 5315-213-226-685-491c-377-270-699-502-715-514l-31-23-118 75c-65 41-120 74-121 72-7-7 151-257 160-255 6 1 321 213 700 471l690 469 210 244c116 135 241 280 278 324 38 43 66 79 63 79-2 0-101-101-218-225z"/>
  <path d="m5010 4764c-465-347-867-644-873-644-7 0-1409-979-1422-993-12-12-78-50 805 457l725 416 489 448c548 501 603 551 596 551-3 0-147-106-320-235z"/>
  <path d="m3463 4605c-61-46-325-216-586-378l-474-294-209 33c-115 18-217 35-227 38-9 2-15 1-12-3 2-4 98-42 213-85l209-77 249 152c203 124 315 203 602 421 299 229 367 283 350 277-2 0-53-38-115-84z"/>
  <path d="m3156 3985-210-144-133-3-134-3 90-48c58-31 95-45 104-40 29 17 497 374 497 378 0 8 5 11-214-140z"/>
 </g>
</svg>
