<?xml version="1.0" encoding="UTF-8"?>
<svg width="508.25" height="768" version="1.0" viewBox="0 0 508.25 768" xmlns="http://www.w3.org/2000/svg" xmlns:cc="http://creativecommons.org/ns#" xmlns:dc="http://purl.org/dc/elements/1.1/" xmlns:rdf="http://www.w3.org/1999/02/22-rdf-syntax-ns#">
 <title>Anu &amp; Padomay</title>
 <metadata>
  <rdf:RDF>
   <cc:Work rdf:about="">
    <dc:format>image/svg+xml</dc:format>
    <dc:type rdf:resource="http://purl.org/dc/dcmitype/StillImage"/>
    <dc:title>Anu &amp; Padomay</dc:title>
    <dc:date>2021-10-16</dc:date>
    <dc:creator>
     <cc:Agent>
      <dc:title>Indrele the Lesser</dc:title>
     </cc:Agent>
    </dc:creator>
    <cc:license rdf:resource="http://artlibre.org/licence/lal"/>
   </cc:Work>
   <cc:License rdf:about="http://artlibre.org/licence/lal">
    <cc:permits rdf:resource="http://creativecommons.org/ns#Reproduction"/>
    <cc:permits rdf:resource="http://creativecommons.org/ns#Distribution"/>
    <cc:permits rdf:resource="http://creativecommons.org/ns#DerivativeWorks"/>
    <cc:requires rdf:resource="http://creativecommons.org/ns#ShareAlike"/>
    <cc:requires rdf:resource="http://creativecommons.org/ns#Notice"/>
    <cc:requires rdf:resource="http://creativecommons.org/ns#Attribution"/>
   </cc:License>
  </rdf:RDF>
 </metadata>
 <g transform="matrix(2.9091 0 0 2.9091 -3.1939 -5.8182)">
  <path d="m80.8 264.9-1.8-1v-82.7l4-1v42.9c0 23.6-0.1 42.9-0.2 42.9-0.2 0-1.1-0.5-2-1.1z"/>
  <path d="m60.6 261.5-2.9-2.6 0.8-4.7c0.3-2.6 0.8-12.2 1.1-21.3l0.4-16.7-4.5-8c-5.7-10.4-6.2-12.3-3.5-14 1.1-0.7 2.6-0.9 3.3-0.5s2 0.6 3 0.5c2.1-0.4 6.4 3.8 7.9 7.7 0.5 1.4 1.1 14.1 1.4 28.1 0.2 14 0.5 27.3 0.6 29.5l0.3 4-2.6 0.3c-1.6 0.2-3.5-0.6-5.3-2.3z"/>
  <path d="m18.5 258.4-1.7-3.6 2.7-2.8c2.3-2.4 3-2.7 4.6-1.7 1.1 0.7 2.2 2.6 2.5 4.3 1.4 7.4-5 10.3-8.1 3.8z"/>
  <path d="m157.9 255-1.6-0.9 0.4-19.3 0.5-19.3-4.2-7.5c-3-5.4-3.9-7.9-3.2-9 1.4-2.2 7.6-1.6 10.3 1.1l2.2 2.2 0.3 9.6c0.2 5.3 0.5 17.4 0.7 26.9l0.4 17.2h-2.1c-1.2 0-2.8-0.5-3.7-1z"/>
  <path d="m121.5 253.3c-2-1.9-1.9-2.5 0.5-5.1 2.5-2.6 2.7-2.6 4.6-0.7s0.8 6.1-1.7 6.8c-1.1 0.3-2.6-0.1-3.4-1z"/>
  <path d="m22.5 236.8c-1.1-0.6-2.3-1.6-2.7-2.2s-0.8-9.4-0.8-19.6c-0.1-14.7-0.4-18.9-1.5-20.4-3.5-4.6-0.1-9.1 6.1-8.1 4.3 0.7 8.5 2.5 9.6 4s1 6.3-0.2 7c-0.5 0.3-1 2-1 3.6 0 1.7-1.1 6.3-2.4 10.2-1.3 4-2.7 11.1-3.1 15.8-0.8 10-1.2 11.2-4 9.7z"/>
  <path d="m122.8 232-1.6-1 0.4-16.1 0.5-16.1-1.7-2c-2.5-2.7-0.7-5.2 3.9-5.6 6-0.5 12.3 4.1 8.7 6.3-0.5 0.3-1 1.9-1 3.5 0 1.5-0.9 5.6-1.9 9.1-1.1 3.5-2.2 9.5-2.6 13.3-1 9.9-1.3 10.5-4.7 8.6z"/>
  <path d="m107.4 191.5c-1.2-3.3-1.5-6.1-1.1-10.3 2.9-27.9 3.7-37 3.7-45.3 0-5.3 0.3-11.1 0.6-12.8 0.7-3.5 7.8-12.1 10-12.1s1.7 1.4-1.7 4.6c-5 4.7-6.9 7.8-6.2 10.3 0.4 1.7 0.8 1.9 1.4 0.9 0.5-0.7 0.6-2 0.3-2.9-0.5-1.8 3.8-5.9 6.1-5.9 1.9 0 3.8 2.7 2.5 3.5-0.8 0.5-0.8 1.1 0 2 0.7 0.8 0.9 1.9 0.5 2.5s-0.1 1.7 0.5 2.5c1 1.2 1 1.8 0 3-0.9 1-0.9 1.5-0.1 1.5 1.7 0 1.3 3.6-0.9 7.2-1.1 1.8-2 4-2 4.8 0.1 0.8 0.7 0.1 1.4-1.5 1.6-3.7 7.7-9.2 12.2-11.1 5.5-2.3 10-1.7 15.9 2 5.8 3.8 7.8 6.4 6.5 8.6-0.6 1-1.8 0.7-5.6-1.8-3.4-2.3-5.4-3-7.3-2.6-3.1 0.8-11.1 4.1-11.1 4.7 0 0.2 2.5 0.5 5.5 0.5 6.2 0 7.5 0.6 7.5 3.2 0 1.2-1.3 2.5-3.5 3.6-4.4 2.1-4.9 2.8-2.9 4.8 2.4 2.4 4 1.9 6.4-1.9 4-6.5 7.6-3.5 4.1 3.4-1.2 2.2-2.1 5.5-2.1 7.4 0 4.1-1.7 9.6-3.8 12-1.7 1.9-6.2 2.3-6.2 0.6 0-0.7-0.7-1.7-1.6-2.4l-1.6-1.1 1.6-6.1 1.5-6.2-2.7-2.8c-1.5-1.6-4-3.4-5.5-4.1l-2.9-1.2 0.3 9.2c0.2 5.7-0.1 9.3-0.7 9.5-1.5 0.5-3.4-6.4-3.5-12.3 0-2.7-0.5-5.8-1-6.9-0.6-1.3-0.8 2.2-0.4 10.3 0.4 9.6 0.2 12.3-0.8 12-2.6-0.9-4-8.3-4.3-23.6-0.3-15.1-0.9-21.2-2.2-21.2-0.4 0-0.8 6.6-0.9 14.8-0.2 8.6-1.2 20.5-2.4 28.6-1.5 10.1-1.8 14.5-1.1 16 2.1 4.2 2.4 6.6 0.9 6.6-0.9 0-2.3-2-3.3-4.5z"/>
  <path d="m3.5 190c-2.9-5.8-3.1-9.7-1-25.4 1.9-14.9 3.5-35.3 3.5-45.2 0-4.5 0.3-9.6 0.7-11.4 0.7-3.7 9-13 11.5-13 1.9 0 3.1 3.9 1.8 5.5-0.7 0.8-0.5 2.2 0.5 4.2 0.8 1.6 1.6 5.2 1.9 8 0.2 2.8 0.6 5.5 0.8 5.9 0.3 0.5 0.6 2.9 0.7 5.4s0.6 5.9 1.1 7.5c1.1 3.8 1.8 35.5 0.8 35.5-1.6 0-0.7 2.7 1.5 4.9 1.5 1.3 4.6 2.5 8.4 3.1 5 0.8 6.8 0.7 11.6-1 3.1-1.1 6.6-2 7.7-2 1.2 0 2-0.7 2-1.7s1.8-4.7 4-8.3 4.3-8 4.6-9.7l0.6-3.3h2.9c3.1 0 3.4 0.8 3 6.5-0.3 3.3-1.7 6.3-6.9 14.8-2.9 4.8-4.5 6.2-9.6 8.7-8.4 4-16.9 5.5-22.6 4-5.5-1.5-11-6.8-11-10.5 0-2.3-0.2-2.5-1.5-1.5-1.2 1-1.8 0.6-3.3-2-3.1-5-4.4-14.3-4.4-30.5-0.1-8.2-0.4-15.9-0.9-17-0.7-1.9-1 2.9-1.4 24-0.1 4.4-1.2 14.4-2.5 22.3l-2.4 14.3 1.4 5.2c0.7 2.9 1.5 5.8 1.7 6.5 0.3 0.6-0.2 1.2-1.1 1.2s-2.7-2.1-4.1-5zm19.1-22.7c0.7-1 0.9-2.2 0.4-2.8-1.1-1.5-3-10.9-3.1-16.3-0.1-2.8-0.4-3.7-0.6-2.2-0.6 3 0.7 23 1.4 23 0.3 0 1.2-0.8 1.9-1.7z"/>
  <path d="m157.7 190.3c-1.5-1.4-0.6-5.3 1.5-6.7 3.2-2.3 5.3-2 6.6 0.9l1.2 2.5-3.3 2c-3.4 2.1-4.9 2.4-6 1.3z"/>
  <path d="m130.4 184.6c-3.7-1.7-6.4-5.2-6.4-8.3s0.6-2.9 4.4 1.2l3.3 3.5h5.2c7.6 0 18.1-2.8 18.1-4.9 0-0.9 1.4-3.6 3-6.1 1.7-2.5 3.5-6.2 4.1-8.2 0.7-2.8 1.5-3.8 2.9-3.8 4.2 0 1.2 9.7-5.7 18.9-5 6.6-21.7 11-28.9 7.7z"/>
  <path d="m75.1 172.8-1.3-4.2 2.2-1.8c1.2-1 2.8-1.8 3.5-1.8s2-0.2 2.7-0.5c1.7-0.7 3.8 3.4 3.8 7.1 0 1.9-0.8 2.8-3.5 4-5.2 2.1-6.1 1.8-7.4-2.8z"/>
  <path d="m42.6 170.8c-0.7-3-2.7-7.9-7.4-18.8-2.7-6.3-5.6-13.1-6.4-15l-1.5-3.5 2.4-6.2c1.5-3.9 4.3-8.2 7.3-11.4l4.8-5.1 3.3 1.7c8.1 4.2 15.9 10 15.9 11.9 0 1.1 0.8 2.8 1.7 3.8l1.7 1.9-1.7 3.2c-0.9 1.8-2.3 5.7-3.2 8.7s-2.1 6.3-2.6 7.3-0.7 2.2-0.4 2.7 0.1 1.1-0.5 1.5c-0.5 0.3-1.4 2.5-2.1 4.8-0.6 2.3-1.7 4.9-2.6 5.8-0.8 0.9-1.8 3-2.2 4.5-0.5 2.2-1.4 3-3.4 3.2-1.6 0.2-2.8-0.2-3.1-1zm9.3-24.8c1-0.6 6.1-12.4 6.1-14.1 0-0.7-0.7-2.1-1.6-3.1l-1.7-1.8-9.1 0.7c-5 0.3-9.7 1-10.3 1.6-2.1 1.6-1.5 4.7 2.9 15.6 5.3 12.9 7.1 14.1 10.6 6.7 1.3-2.8 2.7-5.3 3.1-5.6z"/>
  <path d="m79 98v-62h3v124h-3z"/>
  <path d="m166.5 141.8c-0.2-0.7-0.9-4-1.5-7.3-0.5-3.3-1.6-6.5-2.3-7.2s-3.5-1.4-6.2-1.5c-6.4-0.2-11.6-2.5-18.3-7.7-5.9-4.7-8.2-8.5-6.4-10.3 0.8-0.8 1.6-0.8 2.8 0.3 0.9 0.8 2.4 1.3 3.3 1.1 2.7-0.4 9.7 2.4 15.5 6.3 2.9 1.9 5.5 3.5 5.8 3.5s0.3-1.1 0-2.5c-0.3-1.8 0-2.5 1.1-2.5 0.9 0 1.9 0.5 2.3 1.2 0.5 0.7 1 0.3 1.6-1.2l0.9-2.4 1.4 1.5c0.9 0.8 2.1 6.1 3 13.3l1.6 11.9-1.6 2.3c-1.7 2.7-2.4 2.9-3 1.2z"/>
  <path d="m71.1 132.2c-0.6-1.1-1.5-4.7-2-8.2-0.6-3.5-1.6-7-2.4-7.7-0.7-0.7-4.2-1.5-7.9-1.7-4.7-0.3-8-1.1-11.6-3.1-6.9-3.7-14.6-10.7-16.7-15.1-2-4.3-0.9-6.2 2.5-4.4 1.2 0.6 4.2 1.4 6.8 1.6 5.3 0.5 15.8 5.2 18.6 8.3 2.5 2.8 3.6 2.7 3.6-0.3s1.6-4.2 3.4-2.7c1 0.9 1.5 0.8 2-0.4 1-2.7 3.3-1.6 4.9 2.3 2.3 5.7 4.3 27.5 2.9 30.7-1.4 3-2.8 3.2-4.1 0.7z"/>
  <path d="m150 110.8c-0.7-1.8-0.4-2.7 1.4-4.3 1.3-1.1 5-5 8.3-8.6 6.7-7.6 8-11.3 8.9-26.3 0.3-5 0.6-10.7 0.8-12.6 0.5-8.6 4-3.3 5.7 8.6 1.5 10.4 0.6 19.5-2.5 25.9-4.6 9.3-15.4 19.5-20.6 19.5-0.6 0-1.5-1-2-2.2z"/>
  <path d="m121.3 107c-6.6-4.9-13.8-15.9-13.1-20.2 0.2-1.6 1.4-0.3 5 5.3 2.6 4.1 6.7 9.1 9.2 11.2s4.6 4.5 4.6 5.2c0 2.2-1.1 1.9-5.7-1.5z"/>
  <path d="m137 96.8c0-0.6-2.7-6.7-6-13.6l-6.1-12.5 1.6-4.7c0.9-2.7 3.2-6.2 5.5-8.5l3.9-3.8 3.2 0.7c1.8 0.3 4.6 1.7 6.3 3s4.1 2.6 5.4 3c1.6 0.5 2.1 1.3 1.7 2.3-0.3 0.9 0.2 2.4 1 3.3l1.6 1.8-1.9 3.9c-1.1 2.1-2.7 6.3-3.7 9.3s-3.1 8.1-4.7 11.3c-2.3 4.6-3.3 5.7-5.3 5.7-1.4 0-2.5-0.5-2.5-1.2zm5.5-13.8c1-2.2 2.1-4 2.5-4s1.8-2.5 3-5.6l2.3-5.5-1.4-1.5c-1.1-1.1-3.3-1.2-9.7-0.7-6.9 0.5-8.3 0.9-8.8 2.5-0.7 2.5 7 18.8 8.9 18.8 0.8 0 2.2-1.8 3.2-4z"/>
  <path d="m20.9 94c-1.3-1-2-1.9-1.5-2 0.5 0 0.2-0.7-0.5-1.6l-1.4-1.7 3.5 0.8c4.1 0.8 4.5 1.2 5.5 4.3 0.5 1.7 0.2 2.2-1.3 2.2-1.1 0-3-0.9-4.3-2z"/>
  <path d="m35.9 88.5c-5.4-1.7-11-7-14-13.3-2.8-6-2.3-16.5 1-23 3-5.9 9.6-12.9 14.6-15.5 5.7-3.1 18.2-3 24.3 0.1 11.4 6 15.3 22.4 7.8 32.7-1.2 1.7-3 4.7-4.1 6.8-5.8 11.3-17.2 16-29.6 12.2zm10-13.6-2.1-2.1 0.6-5.3 0.6-5.2-2.3-2.1c-6.9-6.7-8-7.4-8.8-6-1.9 3-2.1 9.9-0.5 14.2 2.4 6.3 5.1 8.4 11.4 8.5l3.2 0.1zm14.9-8.9c1.2-1.8 2.2-4.5 2.2-5.9 0-5.3-7.9-13.5-13.5-14.1-4.6-0.5-8.1 0.1-10.3 1.8l-2.4 1.8h7.3c6.1-0.1 7.4 0.2 7.7 1.6 0.2 1-0.8 2.1-2.5 3-3.1 1.5-3.7 4.1-1.1 4.6 0.9 0.2 2.4-0.8 3.4-2.2 2.8-4.4 5.8-3 3.3 1.5-0.5 1.1-1.5 4.8-2 8.2-0.6 3.4-1.8 7.1-2.7 8.1-0.9 1.1 0.6 0.4 3.3-1.5 2.8-1.9 6-5 7.3-6.9z"/>
  <path d="m105 75.3c-1.9-10.5-1.6-16.9 1.5-24.8 1.5-4.1 2.8-9.7 3-13.4 0.3-3.5 0.9-8.7 1.5-11.5 1.2-5.8 10-20.9 12.4-21.4s2 1.2-2.3 9.1c-7.1 13-9 24.1-5.1 30.5 2.6 4.3 4 4.1 4-0.7 0-2.2 0.3-4.6 0.6-5.5 1.1-2.9 2.4-0.5 2.4 4.5 0 3.8 0.4 4.9 1.6 4.9 0.9 0 1.4 0.7 1.2 1.8-0.3 1.4-1.4 1.7-5.8 1.7h-5.5l-1.7 3c-1.1 2-1.8 6.7-2.3 14-0.7 12.6-1.1 14.5-3 14.5-0.8 0-1.7-2.4-2.5-6.7z"/>
  <path d="m155.6 50.2c-0.3-0.5 0.1-2.6 0.8-4.8 0.8-2.1 1.7-5.7 2-7.9l0.7-4-2.6 3.8c-2.7 3.9-2.9 4-5.9 2.8l-2-0.8 4.1-4.4c7.9-8.7 10.2-18.2 6.4-25.6-1.1-2.3-2.5-4.4-3.1-4.8-1.4-0.9-1.3-2.5 0.3-2.5 1.2 0 5.7 6.2 5.7 8 0 0.5 0.5 1 1 1 1.7 0 1.1 8.6-0.9 13.8l-1.9 4.8 1.8 3.9c1.3 2.7 1.7 5.2 1.3 7.7-0.4 3-0.2 3.9 1.6 5 1.1 0.7 2.1 2.1 2.1 3 0 1.5-0.9 1.8-5.4 1.8-3 0-5.7-0.4-6-0.8z"/>
  <path d="m129.7 37.5c-0.5-8.7-0.2-13.9 0.8-18.9 2.7-13 3.9-10.4 4.5 10.2l0.5 16.7h2.5c3.6 0 5-3.8 5.6-15.2 0.5-9.1-0.5-17.7-3.1-24.8-0.5-1.6-0.3-1.5 1.4 0.5 4.1 5 5.6 11.6 5.6 25.5 0 7.2-0.3 14.2-0.8 15.7l-0.7 2.7-7.9-0.2-7.8-0.2z"/>
  <path d="m74.6 27c-4.2-5.1-4.6-12-1-20.6 1.7-4.1 3-4.1 1.4 0-1.4 3.8-1.2 9.1 0.4 13.1 2 4.8 4.9 4.7 7.5-0.2l2-3.8 0.1 5.7c0 3.9-0.5 6.2-1.6 7.2-2.4 2.5-5.9 1.9-8.8-1.4z"/>
 </g>
</svg>
