<?xml version="1.0" encoding="UTF-8"?>
<svg width="579.23" height="768.02" version="1.1" viewBox="0 0 434.42 576.01" xmlns="http://www.w3.org/2000/svg" xmlns:cc="http://creativecommons.org/ns#" xmlns:dc="http://purl.org/dc/elements/1.1/" xmlns:rdf="http://www.w3.org/1999/02/22-rdf-syntax-ns#">
 <title>Large ASV Trigon (Outline)</title>
 <metadata>
  <rdf:RDF>
   <cc:Work rdf:about="">
    <dc:format>image/svg+xml</dc:format>
    <dc:type rdf:resource="http://purl.org/dc/dcmitype/StillImage"/>
    <dc:title>Large ASV Trigon (Outline)</dc:title>
    <dc:date>2021-05-23</dc:date>
    <dc:creator>
     <cc:Agent>
      <dc:title>Indrele the Lesser</dc:title>
     </cc:Agent>
    </dc:creator>
    <cc:license rdf:resource="http://creativecommons.org/licenses/by-nc-sa/4.0/"/>
   </cc:Work>
   <cc:License rdf:about="http://creativecommons.org/licenses/by-nc-sa/4.0/">
    <cc:permits rdf:resource="http://creativecommons.org/ns#Reproduction"/>
    <cc:permits rdf:resource="http://creativecommons.org/ns#Distribution"/>
    <cc:requires rdf:resource="http://creativecommons.org/ns#Notice"/>
    <cc:requires rdf:resource="http://creativecommons.org/ns#Attribution"/>
    <cc:prohibits rdf:resource="http://creativecommons.org/ns#CommercialUse"/>
    <cc:permits rdf:resource="http://creativecommons.org/ns#DerivativeWorks"/>
    <cc:requires rdf:resource="http://creativecommons.org/ns#ShareAlike"/>
   </cc:License>
  </rdf:RDF>
 </metadata>
 <path d="m0 0.00747 0.53614 1.0019c1.7718 3.7482 3.0772 7.7512 4.5454 11.626 68.181 180.02 136.42 360.07 204.64 540.08 2.7812 7.7858 6.1335 15.388 8.5545 23.294h0.30469c11.167-30.395 22.497-60.205 33.868-90.653 21.628-57.692 43.136-115.41 64.821-173.09 18.304-49.165 36.761-98.258 55.185-147.38 17.908-48.346 36.205-96.547 54.205-144.86 2.4847-6.6988 4.751-13.546 7.7655-20.018l-434.42-0.004425zm10.921 7.374 412.7 0.00442c-2.8634 6.1493-5.0164 12.652-7.3769 19.016-17.1 45.893-34.483 91.688-51.495 137.62-17.503 46.665-35.038 93.3-52.426 140.01-20.601 54.796-41.034 109.63-61.58 164.44-10.804 28.922-21.566 57.242-32.174 86.115h-0.28857c-2.3001-7.5105-5.4863-14.733-8.1285-22.129-64.809-171.01-129.64-342.06-194.41-513.07-1.3948-3.6812-2.6351-7.4841-4.3184-11.045l-0.50977-0.9507z" stroke-width=".99998"/>
 <g fill="#f00" stroke-width="1.725">
  <path d="m199.8 346.47h37.967c3.5863 2e-5 5.3796 0.75866 5.3796 2.276 0 0.68967-0.31033 1.3449-0.93115 1.9656-0.62066 0.55175-1.2415 0.89659-1.8621 1.0345-1.1725 0.138-2.2415 0.48278-3.2071 1.0345-0.96547 0.48279-1.4483 1.069-1.4483 1.7586 0 0.138 0.138 0.4828 0.41383 1.0345 4.8968 7.7244 8.4142 14.656 10.552 20.793 2.207 6.0692 3.3104 13.276 3.3104 21.621 0 5.1726-0.34482 9.8625-1.0345 14.069-0.62083 4.1381-1.414 7.621-2.3795 10.449-0.89666 2.8276-2.276 5.6899-4.1381 8.5865s-3.5518 5.1726-5.0691 6.8279c-1.4485 1.7242-3.5174 4.0001-6.2072 6.8279-1.7243 1.7242-3.2071 2.5863-4.4484 2.5863-0.48283 0-0.89666-0.24138-1.2415-0.72415-0.34483-0.41383-0.51733-0.86211-0.51733-1.3449 0-1.0345 0.51733-2.069 1.5518-3.1036 5.3796-5.2416 9.1729-10.311 11.38-15.208 2.276-4.9658 3.414-11.897 3.414-20.793 0-4.8968-0.58615-10.138-1.7586-15.725-1.1035-5.6554-3.2071-11.794-6.3106-18.414-3.1036-6.6899-6.9657-12.207-11.587-16.552-1.2413-1.1035-2.4483-1.6552-3.6208-1.6552-1.5173 0-2.5518 0.58622-3.1036 1.7586-0.75866 1.5863-2.207 4.4139-4.3449 8.483-2.069 4.0001-3.483 6.8279-4.2416 8.483-0.68966 1.5863-1.6206 3.9656-2.7931 7.1382-1.1725 3.1036-1.9656 6.0692-2.3795 8.8969-0.41383 2.7588-0.62065 5.7934-0.62065 9.1039 0 19.311 5.5864 35.623 16.759 48.933 0.75866 0.89659 1.138 1.5518 1.138 1.9656 0 0.75865-0.82766 1.138-2.4828 1.138-1.4483 0-2.5518-0.37933-3.3104-1.138-8.759-8.2072-14.932-15.966-18.518-23.277-3.5174-7.3796-5.2761-16.656-5.2761-27.829 0-5.0348 1.3103-11.552 3.9313-19.553 2.6898-8.0692 5.6899-14.966 9.0004-20.69 0.62066-1.3794 0.93098-2.276 0.93098-2.6898 0-1.4483-1.6551-2.3105-4.9658-2.5863-3.1726-0.20689-4.7588-1.1725-4.7588-2.8966 0-1.7242 2.276-2.5863 6.8279-2.5863z"/>
  <path d="m126.6 31.746c2.138 0 3.2073 0.89659 3.2073 2.6898 0 2.0001-1.9658 3.7243-5.8971 5.1726-4.6209 1.7242-8.2072 4.4484-10.759 8.1727-2.5518 3.6553-3.8278 8.0349-3.8278 13.138 0 0.75866 0.1035 2.2415 0.31038 4.4484 0.20692 2.207 0.31035 3.6898 0.31035 4.4484 0 1.3794-0.20688 2.069-0.62073 2.069-2.069 0-4.2416-1.7242-6.5176-5.1726s-3.4139-6.8624-3.4139-10.242c0-2.345 0.55176-4.7243 1.6552-7.1382 1.1725-2.4828 2.3105-4.4829 3.4139-6.0002 1.1035-1.5863 1.6552-2.5173 1.6552-2.7933 0-1.2414-1.1035-1.8621-3.3104-1.8621h-9.7245c-2.9656 0-5.4486 2.7588-7.4486 8.2762-1.9311 5.4486-2.8966 13.38-2.8966 23.795 0 15.035 2.9656 29.622 8.8969 43.76 0.41383 0.96556 1.2069 2.276 2.3795 3.9313 1.2414 1.7242 2.276 2.5863 3.1036 2.5863 0.34483 0 0.8621-0.51727 1.5518-1.5518 0.75866-1.0345 1.7931-2.5518 3.1036-4.5519 1.3104-2.069 2.414-3.7243 3.3104-4.9658 1.8621-2.9656 3.2414-4.6554 4.1381-5.0691 0.27588-0.069 0.51726-0.1035 0.72418-0.1035 0.41381 0 0.8276 0.31038 1.2414 0.93109 0.48277 0.6207 0.72415 1.1725 0.72415 1.6552 0 0.20689-0.0343 0.34484-0.1035 0.41381-1.7931 3.4484-3.5863 7.8624-5.3796 13.242s-2.9311 9.828-3.414 13.345c-0.069 0.68971-0.34487 1.207-0.82761 1.5518-0.4828 0.34482-0.96555 0.51726-1.4483 0.51726s-1.9656-1.4483-4.4484-4.3449c-2.414-2.8966-4.1381-5.2071-5.1726-6.9314-0.96555-1.5173-3.2071-4.8622-6.7244-10.035-3.4484-5.2416-6.1727-9.5177-8.1727-12.828-2-3.3104-3.9658-7.552-5.8967-12.725-1.8621-5.1726-2.7931-9.9315-2.7931-14.276 0-1.5173 0.1035-3.0346 0.31036-4.5519 0.2069-1.5173 0.37933-2.8276 0.51726-3.9313 0.2069-1.1035 0.62071-2.4485 1.2414-4.0346 0.62074-1.6552 1.069-2.8621 1.3449-3.6208s0.8621-2.0346 1.7586-3.8278c0.96555-1.8621 1.5863-3.0346 1.8621-3.5174 0.34484-0.55176 1.138-1.8966 2.3795-4.0346 1.2414-2.207 2.0001-3.5518 2.276-4.0346 0.34485-0.55176 0.51726-1.0345 0.51726-1.4483 0-1.8621-3.5863-3.0691-10.759-3.6208-3.1036-0.27588-4.6554-1.2759-4.6554-3.0001s2.207-2.5863 6.6209-2.5863h30.726c0.62073 0 2.5863 0.138 5.8967 0.41381 3.3794 0.2069 5.4484 0.31034 6.2072 0.31034 0.27586 0 2.414-0.34483 6.4141-1.0345 4.0001-0.68969 6.1382-1.0345 6.4141-1.0345z"/>
  <path d="m325.34 31.115c1.2413 0 4.1036 0.34484 8.5865 1.0345 4.5519 0.62072 7.9659 0.93109 10.242 0.93109h16.863c3.7933 0 6.1037 0.6207 6.9314 1.8621 1.8621 2.345 3.3794 5.0348 4.5519 8.0692 1.2413 3.0346 1.8621 5.8277 1.8621 8.3797 0 2.9656-0.44833 4.4484-1.345 4.4484-1.6551 0-2.6553-0.68969-3.0001-2.069-0.55165-3.3104-3.345-6.6554-8.3797-10.035-4.9658-3.4484-10.104-5.1726-15.414-5.1726-0.68966 0-1.138 0.2414-1.3448 0.72417-0.20699 0.48278-0.0345 0.89659 0.51715 1.2414 3.7933 2.138 7.483 6.9657 11.069 14.483 3.5863 7.4486 5.3796 14.001 5.3796 19.656v1.8621c0 2.345-0.44815 3.5174-1.3448 3.5174-0.82765 0-1.5863-0.8621-2.276-2.5863-1.1035-2.4828-3.5518-4.9313-7.345-7.345-3.7933-2.4828-7.414-4.2071-10.862-5.1726-0.138 0-0.27583 0.1035-0.41383 0.31036-0.138 0.20691-0.20682 0.41381-0.20682 0.62072 0 0.2069 0.069 0.37931 0.20682 0.51726 6.3451 6.3451 10.966 12.621 13.863 18.828 2.9656 6.2071 4.4484 13.759 4.4484 22.656 0 5.2416-1.8276 10.345-5.4829 15.311-3.5863 5.0346-7.483 8.9314-11.69 11.69-1.5863 0.96556-2.8966 1.4483-3.9313 1.4483-0.55165 0-0.99998-0.24139-1.3448-0.72417-0.34483-0.41381-0.48283-0.93107-0.41383-1.5518 0.069-1.1724 0.79316-2.138 2.1725-2.8966 3.4484-2.0001 6.4486-4.9658 9.0004-8.8968 2.6208-3.8623 3.9313-7.9314 3.9313-12.207 0-7.4485-1.4483-14.345-4.3449-20.69-2.8966-6.3442-6.7589-11.828-11.587-16.449-4.7587-4.6899-10.724-9.2762-17.897-13.759-0.138-0.069-0.51731-0.27588-1.138-0.62072-0.62064-0.41381-1.0345-0.72416-1.2415-0.93107-0.20683-0.2069-0.44816-0.48278-0.72416-0.82762-0.27582-0.41381-0.41382-0.8621-0.41382-1.3449 0-1.4483 0.55182-2.1725 1.6553-2.1725 5.1726 0 9.7935 0.34484 13.863 1.0345 4.0691 0.62072 7.1037 1.2759 9.1038 1.9656 2.0001 0.68972 4.9313 1.8276 8.7935 3.4139 0.62065 0.27588 1.0345 0.17233 1.2415-0.31036 0.20683-0.48278 0.138-1.069-0.207-1.7586-3.2414-6.5519-10.587-13.138-22.035-19.76-0.68966-0.41381-1.3103-1.0001-1.8621-1.7586-0.48283-0.82762-0.72415-1.5173-0.72415-2.069 0-1.9311 0.89665-2.8966 2.6898-2.8966z"/>
 </g>
</svg>
