<?xml version="1.0" encoding="UTF-8"?>
<svg width="579.23" height="768.02" version="1.1" viewBox="0 0 434.42 576.01" xmlns="http://www.w3.org/2000/svg" xmlns:cc="http://creativecommons.org/ns#" xmlns:dc="http://purl.org/dc/elements/1.1/" xmlns:rdf="http://www.w3.org/1999/02/22-rdf-syntax-ns#">
 <title>The Ghartok Trigon (Outline)</title>
 <metadata>
  <rdf:RDF>
   <cc:Work rdf:about="">
    <dc:format>image/svg+xml</dc:format>
    <dc:type rdf:resource="http://purl.org/dc/dcmitype/StillImage"/>
    <dc:title>The Ghartok Trigon (Outline)</dc:title>
    <dc:date>2021-05-23</dc:date>
    <dc:creator>
     <cc:Agent>
      <dc:title>Indrele the Lesser</dc:title>
     </cc:Agent>
    </dc:creator>
    <cc:license rdf:resource="http://creativecommons.org/licenses/by-nc-sa/4.0/"/>
   </cc:Work>
   <cc:License rdf:about="http://creativecommons.org/licenses/by-nc-sa/4.0/">
    <cc:permits rdf:resource="http://creativecommons.org/ns#Reproduction"/>
    <cc:permits rdf:resource="http://creativecommons.org/ns#Distribution"/>
    <cc:requires rdf:resource="http://creativecommons.org/ns#Notice"/>
    <cc:requires rdf:resource="http://creativecommons.org/ns#Attribution"/>
    <cc:prohibits rdf:resource="http://creativecommons.org/ns#CommercialUse"/>
    <cc:permits rdf:resource="http://creativecommons.org/ns#DerivativeWorks"/>
    <cc:requires rdf:resource="http://creativecommons.org/ns#ShareAlike"/>
   </cc:License>
  </rdf:RDF>
 </metadata>
 <path d="m0 0.00747 0.53614 1.0019c1.7718 3.7482 3.0772 7.7512 4.5454 11.626 68.181 180.02 136.42 360.07 204.64 540.08 2.7812 7.7858 6.1335 15.388 8.5545 23.294h0.30469c11.167-30.395 22.497-60.205 33.868-90.653 21.628-57.692 43.136-115.41 64.821-173.09 18.304-49.165 36.761-98.258 55.185-147.38 17.908-48.346 36.205-96.547 54.205-144.86 2.4847-6.6988 4.751-13.546 7.7655-20.018l-434.42-0.004425zm10.921 7.374 412.7 0.00442c-2.8634 6.1493-5.0164 12.652-7.3769 19.016-17.1 45.893-34.483 91.688-51.495 137.62-17.503 46.665-35.038 93.3-52.426 140.01-20.601 54.796-41.034 109.63-61.58 164.44-10.804 28.922-21.566 57.242-32.174 86.115h-0.28857c-2.3001-7.5105-5.4863-14.733-8.1285-22.129-64.809-171.01-129.64-342.06-194.41-513.07-1.3948-3.6812-2.6351-7.4841-4.3184-11.045l-0.50977-0.9507z" stroke-width=".99998"/>
 <path d="m206.55 452.28h22.01c2.079 1e-5 3.1186 0.4398 3.1186 1.3194 0 0.39981-0.1799 0.77964-0.5398 1.1395-0.3598 0.31985-0.7197 0.51976-1.0795 0.59972-0.6797 0.08-1.2994 0.27987-1.8592 0.59972-0.5597 0.27988-0.8396 0.61972-0.8396 1.0195 0 0.08 0.08 0.27988 0.2399 0.59973 2.8387 4.4779 4.8778 8.4961 6.1172 12.054 1.2794 3.5184 1.9191 7.6965 1.9191 12.534 0 2.9986-0.1999 5.7174-0.5997 8.1562-0.3599 2.3989-0.8197 4.418-1.3794 6.0572-0.5198 1.6392-1.3194 3.2985-2.3989 4.9777s-2.059 2.9986-2.9386 3.9582c-0.8397 0.99955-2.0391 2.3189-3.5984 3.9582-0.9996 0.99954-1.8592 1.4993-2.5788 1.4993-0.2799 0-0.5198-0.13993-0.7197-0.4198-0.1999-0.2399-0.2999-0.49977-0.2999-0.77965 0-0.59972 0.2999-1.1994 0.8996-1.7992 3.1186-3.0386 5.3176-5.9772 6.597-8.816 1.3194-2.8787 1.9791-6.8968 1.9791-12.054 0-2.8387-0.3398-5.8773-1.0195-9.1158-0.6397-3.2785-1.8592-6.8369-3.6583-10.675-1.7992-3.8782-4.0381-7.0767-6.7169-9.5956-0.7196-0.6397-1.4193-0.95955-2.099-0.95955-0.8796 0-1.4793 0.33984-1.7992 1.0195-0.4398 0.91958-1.2794 2.5588-2.5188 4.9177-1.1994 2.3189-2.0191 3.9582-2.4589 4.9177-0.3998 0.91957-0.9395 2.2989-1.6192 4.1381-0.6797 1.7992-1.1395 3.5184-1.3794 5.1576-0.2399 1.5993-0.3598 3.3585-0.3598 5.2776 0 11.195 3.2385 20.651 9.7155 28.367 0.4398 0.51976 0.6597 0.89958 0.6597 1.1395 0 0.4398-0.4798 0.6597-1.4393 0.6597-0.8396 0-1.4793-0.2199-1.9191-0.6597-5.0777-4.7578-8.656-9.2557-10.735-13.494-2.0391-4.278-3.0586-9.6556-3.0586-16.133 0-2.9187 0.7596-6.6969 2.279-11.335 1.5593-4.6778 3.2985-8.676 5.2176-11.994 0.3598-0.79963 0.5397-1.3194 0.5397-1.5593 0-0.83961-0.9595-1.3394-2.8787-1.4993-1.8392-0.11994-2.7587-0.67969-2.7587-1.6792 0-0.99955 1.3194-1.4993 3.9582-1.4993z"/>
 <path d="m146.86 254.99 59.788 21.205-4.804 8.3103 6.8865 56.574-57.796-31.958z"/>
 <path d="m143.31 207.65 83.923 30.07-16.603 30.283-64.552-23.259z"/>
 <path d="m288.78 108.37 13.786 2.4909-8.4489 168.88-68.796 60.063-4.1143-47.926 38.249-44.03z"/>
 <path d="m197.09 27.839 15.278 4.1071-27.452 115.77 7.3384 1.9057 27.698-115.71 14.803 4.1371-26.631 116.11 7.0261 1.9315 27.379-115.99 16.583 4.6313c-8.6682 39.6-25.165 116.56-25.165 116.56l6.7169 1.7971 25.379-116.09 14.583 3.9628-16.516 119.34-30.914 56.732-88.172-28.935z"/>
 <path d="m73.47 11.527c1.2394 0 1.8593 0.51976 1.8593 1.5593 0 1.1595-1.1396 2.159-3.4186 2.9986-2.6788 0.99954-4.7578 2.5788-6.2371 4.7378-1.4793 2.119-2.219 4.6579-2.219 7.6165 0 0.4398 0.06 1.2994 0.17993 2.5788 0.11995 1.2794 0.17991 2.139 0.17991 2.5788 0 0.79963-0.11993 1.1994-0.35984 1.1994-1.1994 0-2.4589-0.99954-3.7783-2.9986-1.3194-1.9991-1.9791-3.9782-1.9791-5.9373 0-1.3594 0.31986-2.7387 0.95956-4.1381 0.67969-1.4393 1.3394-2.5988 1.9791-3.4784 0.63971-0.91958 0.95956-1.4593 0.95956-1.6193 0-0.71967-0.63971-1.0795-1.9191-1.0795h-5.6374c-1.7192 0-3.1586 1.5993-4.318 4.7978-1.1195 3.1586-1.6792 7.7564-1.6792 13.794 0 8.716 1.7192 17.172 5.1576 25.368 0.2399 0.55974 0.69968 1.3194 1.3794 2.279 0.71966 0.99954 1.3194 1.4993 1.7992 1.4993 0.1999 0 0.49977-0.29987 0.89959-0.89959 0.4398-0.59972 1.0395-1.4793 1.7992-2.6388 0.75965-1.1994 1.3994-2.159 1.9191-2.8787 1.0795-1.7192 1.8791-2.6988 2.3989-2.9386 0.15993-0.04 0.29986-0.06 0.41981-0.06 0.23989 0 0.47977 0.17993 0.71967 0.53976 0.27987 0.35983 0.4198 0.67969 0.4198 0.95956 0 0.11994-0.0199 0.19991-0.06 0.23989-1.0395 1.9991-2.079 4.5579-3.1186 7.6765s-1.6992 5.6974-1.9791 7.7364c-0.04 0.39983-0.19993 0.69968-0.47978 0.89959-0.27988 0.1999-0.55974 0.29986-0.83961 0.29986s-1.1395-0.83961-2.5788-2.5188c-1.3994-1.6792-2.3989-3.0186-2.9986-4.0182-0.55974-0.87959-1.8592-2.8187-3.8982-5.8173-1.9991-3.0386-3.5784-5.5175-4.7378-7.4366s-2.299-4.378-3.4184-7.3766c-1.0795-2.9986-1.6192-5.7574-1.6192-8.2762 0-0.8796 0.06-1.7592 0.17992-2.6388 0.11994-0.8796 0.2199-1.6392 0.29986-2.279 0.11994-0.63971 0.35983-1.4194 0.71966-2.3389 0.35985-0.95956 0.61972-1.6592 0.77965-2.099s0.49977-1.1795 1.0195-2.219c0.55974-1.0795 0.91957-1.7592 1.0795-2.0391 0.19991-0.31986 0.6597-1.0995 1.3794-2.3389 0.71967-1.2794 1.1595-2.059 1.3194-2.3389 0.19991-0.31986 0.29986-0.59973 0.29986-0.83962 0-1.0795-2.079-1.7792-6.2371-2.099-1.7992-0.15993-2.6988-0.73966-2.6988-1.7392s1.2794-1.4993 3.8382-1.4993h17.812c0.35984 0 1.4993 0.08 3.4184 0.23989 1.9591 0.11994 3.1585 0.17991 3.5984 0.17991 0.15992 0 1.3994-0.1999 3.7183-0.59972s3.5584-0.59972 3.7183-0.59972z"/>
 <path d="m367.71 11.499c0.7196 0 2.3789 0.19991 4.9777 0.59972 2.6388 0.35984 4.6179 0.53976 5.9373 0.53976h9.7755c2.199 0 3.5384 0.35983 4.0182 1.0795 1.0795 1.3594 1.9591 2.9187 2.6388 4.6778 0.7196 1.7592 1.0795 3.3784 1.0795 4.8578 0 1.7192-0.2599 2.5788-0.7797 2.5788-0.9595 0-1.5393-0.39982-1.7392-1.1994-0.3198-1.9191-1.9391-3.8582-4.8578-5.8173-2.8787-1.9991-5.8573-2.9986-8.9359-2.9986-0.3998 0-0.6597 0.13994-0.7796 0.41981-0.12 0.27987-0.02 0.51976 0.2998 0.71967 2.199 1.2394 4.338 4.0381 6.417 8.3961 2.079 4.318 3.1186 8.1163 3.1186 11.395v1.0795c0 1.3594-0.2598 2.0391-0.7796 2.0391-0.4798 0-0.9196-0.49977-1.3194-1.4993-0.6397-1.4393-2.059-2.8587-4.258-4.258-2.199-1.4393-4.298-2.4389-6.2971-2.9986-0.08 0-0.1599 0.06-0.2399 0.17992-0.08 0.11995-0.1199 0.23989-0.1199 0.35984 0 0.11994 0.04 0.21989 0.1199 0.29986 3.6783 3.6783 6.3571 7.3166 8.0363 10.915 1.7192 3.5983 2.5788 7.9763 2.5788 13.134 0 3.0386-1.0595 5.9972-3.1785 8.8759-2.079 2.9186-4.338 5.1776-6.7769 6.7769-0.9196 0.55975-1.6792 0.83962-2.279 0.83962-0.3198 0-0.5797-0.13994-0.7796-0.41981-0.1999-0.23989-0.2799-0.53975-0.2399-0.89959 0.04-0.67968 0.4598-1.2394 1.2594-1.6792 1.9991-1.1595 3.7383-2.8787 5.2176-5.1576 1.5193-2.239 2.279-4.5979 2.279-7.0768 0-4.318-0.8396-8.3162-2.5188-11.994s-3.9182-6.8568-6.7169-9.5356c-2.7587-2.7188-6.2171-5.3775-10.375-7.9763-0.08-0.04-0.2999-0.15993-0.6597-0.35984-0.3598-0.23989-0.5997-0.4198-0.7197-0.53975-0.1199-0.11994-0.2598-0.27987-0.4198-0.47978-0.1599-0.23989-0.2399-0.49977-0.2399-0.77964 0-0.83961 0.3199-1.2594 0.9596-1.2594 2.9986 0 5.6774 0.19991 8.0363 0.59972 2.3589 0.35984 4.1181 0.73966 5.2776 1.1395s2.8587 1.0595 5.0977 1.9791c0.3598 0.15993 0.5997 0.0999 0.7197-0.17992 0.1199-0.27987 0.08-0.61971-0.12-1.0195-1.8791-3.7982-6.1372-7.6165-12.774-11.455-0.3998-0.23989-0.7596-0.57974-1.0795-1.0195-0.2799-0.47978-0.4198-0.8796-0.4198-1.1994 0-1.1195 0.5198-1.6792 1.5593-1.6792z"/>
 <text x="-431.11649" y="-62.535465" fill="#ffffff" font-family="sans-serif" font-size="11px" stroke-width=".75" word-spacing="0px" style="line-height:1.25" xml:space="preserve"><tspan x="-431.11649" y="-62.535465" fill="#ffffff" stroke-width=".75"/></text>
 <text x="-471.13608" y="0.48049268" fill="#ffffff" font-family="Daedric" font-size="110px" stroke-width=".75" word-spacing="0px" style="line-height:1.25" xml:space="preserve"><tspan x="-471.13608" y="0.48049268" fill="#ffffff" stroke-width=".75"/></text>
</svg>
