<?xml version="1.0" encoding="UTF-8"?>
<svg width="1024" height="981.95" version="1.1" viewBox="0 0 270.93 259.81" xmlns="http://www.w3.org/2000/svg" xmlns:cc="http://creativecommons.org/ns#" xmlns:dc="http://purl.org/dc/elements/1.1/" xmlns:rdf="http://www.w3.org/1999/02/22-rdf-syntax-ns#">
 <title>Scarab</title>
 <metadata>
  <rdf:RDF>
   <cc:Work rdf:about="">
    <dc:format>image/svg+xml</dc:format>
    <dc:type rdf:resource="http://purl.org/dc/dcmitype/StillImage"/>
    <dc:title>Scarab</dc:title>
    <cc:license rdf:resource="http://artlibre.org/licence/lal"/>
    <dc:creator>
     <cc:Agent>
      <dc:title>Indrele the Lesser</dc:title>
     </cc:Agent>
    </dc:creator>
    <dc:date>2021-10-13</dc:date>
   </cc:Work>
   <cc:License rdf:about="http://artlibre.org/licence/lal">
    <cc:permits rdf:resource="http://creativecommons.org/ns#Reproduction"/>
    <cc:permits rdf:resource="http://creativecommons.org/ns#Distribution"/>
    <cc:permits rdf:resource="http://creativecommons.org/ns#DerivativeWorks"/>
    <cc:requires rdf:resource="http://creativecommons.org/ns#ShareAlike"/>
    <cc:requires rdf:resource="http://creativecommons.org/ns#Notice"/>
    <cc:requires rdf:resource="http://creativecommons.org/ns#Attribution"/>
   </cc:License>
  </rdf:RDF>
 </metadata>
 <g transform="translate(358.47 162.41)">
  <path d="m-322.08-160.63c-0.2384 1.1913 0 4.2885 0.2384 7.3858s-0.953 7.1475-2.3825 9.0535c-2.3825 2.6208-2.1443 3.3355 0.71473 3.3355 2.1443 0 4.2885 0.953 5.0032 2.1443 0.7148 0.953-1.1913 1.4295-4.2885 0.953-6.671-1.4295-8.8152 1.1913-6.9092 8.3388 0.953 4.2885 3.0973 5.2415 10.721 5.2415 8.577 0 9.0535-0.47654 6.671-4.765-1.4295-2.6208-1.6678-6.1945-0.71479-7.8623 0.95299-1.4295 1.906-5.4798 1.906-8.8153 0-5.4798 0.95306-5.9563 13.104-7.1475l13.104-1.1913-8.8153-4.2885c-8.577-4.0503-27.875-5.718-28.352-2.3825z" stroke-width=".23825"/>
  <path d="m-152.68-158.25-8.3388 4.2885 12.627 0.71476c12.866 0.71475 18.345 5.0033 12.866 10.483-1.906 1.906-1.6678 3.3355 1.1913 5.4798 3.0973 2.1443 3.0973 3.812 0.953 7.8623-2.6208 5.0033-2.3825 5.2415 6.4328 5.2415 7.624 0 9.7683-0.95301 10.721-5.2415 1.906-7.1475-0.2384-9.7683-6.9093-8.3388-3.0973 0.47653-5.0032 0-4.2885-0.953 0.7148-1.1913 2.8591-2.1443 5.0033-2.1443 2.859 0 3.0972-0.71476 0.71473-3.3355-1.4295-1.906-2.3825-6.671-1.906-10.245 0.71473-6.4328 0.23841-6.671-10.007-7.3858-6.4328-0.23827-14.057 1.1912-19.06 3.5738z" stroke-width=".23825"/>
  <path d="m-242.65-159.81c-1.0105-0.0628-2.8022 0.57539-5.0954 2.0347-2.1443 1.4295-2.6222 4.2888-1.4309 9.7685 1.4295 6.671 1.1927 7.6233-2.1429 6.4321-2.8591-1.1912-7.3867 1.4302-14.058 7.863-8.1006 7.8623-11.195 9.2932-17.628 8.5784-7.3858-0.71475-7.863-0.23897-7.863 6.4321 0 3.6251-0.14309 5.4863-0.14309 5.4863s0.14309 9.2501 0.14309 9.7616c0 1.1913-3.0992 4.5268-6.6729 7.1475-6.4328 4.765-6.6715 5.7171-5.242 18.106 1.1913 11.198 2.8622 14.774 11.678 24.304 11.436 12.389 16.913 23.585 16.913 34.544 0 17.392 8.5789 24.665 35.263 28 0 0 9.1239 1.3002 11.074-0.5556 1.2917-1.2293 1.5534-5.0495 1.5534-5.0495 0.23841-3.812 0.23841-7.6219 0-8.5749 0-0.71475-2.2352-14.718-2.6564-32.514-1.906-24.54-2.5865-32.529-5.9221-36.103-4.0502-4.5268-4.0482-5.0033 2.1464-14.295 7.624-11.674 11.912-11.675 18.822 0.23732 4.765 8.1005 4.7648 8.8155 0.95277 16.916-2.3825 5.2415-4.0484 14.534-4.0484 23.826 0 8.1005-0.95509 21.442-2.1464 29.543-1.1913 7.8623-1.4861 17.754-0.77124 21.327 1.4295 6.671 1.2496 6.3093 14.591 4.6416 24.778-3.0973 33.591-10.72 33.591-28.827 0-10.721 4.5267-19.3 17.869-34.31 9.7683-11.198 10.721-13.101 10.721-24.776 0-10.96-0.71243-13.343-5.954-16.679-5.0033-3.3355-5.9574-5.7192-5.9574-16.679 0 0 1.4794-11.678 0-12.627-1.0435-0.66895-8.5784 0.71545-8.5784 0.71545-7.3858 0.47653-10.006-0.95348-18.106-8.8158-5.2415-5.0033-10.483-8.816-11.674-7.863-4.2885 2.3825-6.911-1.4297-4.0519-6.1948 2.1443-3.3355 2.1454-5.2413-0.23731-8.1003-4.2885-5.2415-7.1462-4.7653-5.7166 0.95277 1.4295 5.4798-1.9055 6.1957-12.627 2.3837-5.4798-1.906-9.5328-1.668-17.157 0.95277-10.483 3.812-15.009 1.668-10.006-4.5265 1.6678-1.906 1.8462-3.098 0.95278-3.3958-0.11168-0.0372-0.23955-0.0608-0.3839-0.0698zm0.52699 21.261c1.2129 0.0937 1.5238 0.78664 0.0942 2.2162-1.4295 1.1913-5.0021 2.859-8.3376 3.5738-5.718 1.6678-5.7159 1.43-1.4274-1.9056 2.5017-2.0251 5.8944-3.396 8.1876-3.7832 0.5733-0.0968 1.079-0.13243 1.4833-0.10121zm38.453 0.0733c2.6208 0 6.9105 1.6678 9.5312 3.5738 4.2885 3.3355 4.05 3.5724-2.621 2.1429-8.8153-1.906-13.581-5.7166-6.9102-5.7166zm-19.624 14.414c1.9358 0.0595 3.9016 1.3099 4.8546 3.6924 1.6678 4.5268-0.23816 8.1003-4.5265 8.1003-4.2885 0-6.6724-4.0491-5.0047-8.3376 0.83387-2.3825 2.7408-3.5147 4.6766-3.4551zm-58.374 2.2929c1.5838-0.0827 2.7117 1.6089 2.7117 4.7359 0 2.6208-1.6678 4.7639-3.5738 4.7639-3.5738 0-5.0029-5.004-1.9056-7.863 0.71475-0.77431 1.4149-1.2632 2.0626-1.4902 0.2429-0.0852 0.47871-0.13477 0.70498-0.14658zm116.66 0.0628c0.15761 3e-3 0.31482 0.0223 0.47117 0.0558 1.2508 0.26803 2.4432 1.5202 3.2771 3.6645 1.906 5.2415 1.9064 5.7166-1.9056 5.7166-4.2885 0-6.9107-3.812-5.0047-7.1475 0.93812-1.5635 2.0586-2.3078 3.1619-2.2894zm-128.01 30.88c3.0972 0 5.2415 2.8602 7.1475 9.5312 2.3825 7.3858 2.1453 10.246-0.23732 13.105-5.9562 7.1475-9.7692 3.0954-10.484-10.247-0.71473-10.721-0.23842-12.39 3.5738-12.39zm140.09 0c3.812 0 4.2885 1.6682 3.5738 12.39-0.71481 13.342-4.5277 17.394-10.484 10.247-4.5267-5.2415 0.7157-22.636 6.9102-22.636zm-33.35 9.6673c0.38334 0.03199 0.78245 0.13332 1.1971 0.30363 1.1056 0.45417 2.3125 1.4076 3.5633 2.8967 3.5737 4.2885 0.71593 10.959-4.7638 10.959-3.0973 0-4.5265-1.6673-4.5265-5.4793 0-5.785 1.8466-8.9035 4.53-8.6796zm-74.187 0.40135c0.50167-0.05445 1.0119-6.98e-4 1.5182 0.17799 1.4295 0.47653 2.6175 3.3339 2.6175 6.6694 0 6.671-6.9079 9.0554-9.2904 3.0991-1.4593-3.9609 1.643-9.5654 5.1547-9.9465zm-19.75 14.431c0.24988-0.01144 0.52677 0.05473 0.80968 0.18846 0.56595 0.26805 1.1603 0.80688 1.6368 1.5216 0.71473 1.4295 9.2925 6.4309 18.584 11.196 9.5301 4.765 15.722 9.0538 14.054 9.7685-4.0502 1.1913-27.159-10.006-32.639-16.201-2.3825-2.6208-3.8139-5.48-3.0991-6.1948 0.17897-0.1787 0.40275-0.26765 0.65263-0.2792zm114.49 0c0.25019 0.01144 0.47396 0.10051 0.65265 0.2792 0.71478 0.71475-0.71662 3.574-3.0991 6.1948-5.4798 6.1945-28.588 17.392-32.639 16.201-1.6678-0.71475 4.5242-5.0035 14.054-9.7685 9.2918-4.765 17.87-9.7664 18.584-11.196 0.47651-0.71476 1.071-1.2536 1.6368-1.5216 0.28292-0.13402 0.55951-0.19998 0.80967-0.18846zm-71.538 49.359c5.7182 0 5.9554 0.71359 5.4793 11.911-0.23841 6.671-1.6662 11.915-3.0956 11.915-5.0033 0-8.3376-5.7197-8.3376-14.773 0-8.1005 0.71244-9.0531 5.954-9.0531zm28.59 0c5.2415 0 5.954 0.95254 5.954 9.0531 0 9.0535-3.3343 14.773-8.3376 14.773-1.4295 0-2.8574-5.2439-3.0956-11.915-0.47613-11.198-0.23888-11.911 5.4793-11.911z" stroke-width=".23825"/>
  <g stroke-width=".23825">
   <path d="m-129.57-120.13c-0.953 0.95301-6.1945 2.1443-11.913 2.859-8.8152 1.1913-10.006 2.1443-10.721 8.3388-0.953 7.8623 2.3825 10.96 12.866 10.96 8.8153 0 15.248-6.1945 15.963-15.486 0.47613-6.4328-2.8591-10.007-6.1946-6.671z"/>
   <path d="m-329.22-83.197c-19.537 13.104-19.775 16.916-0.953 19.06 7.8623 0.953 16.439 1.906 19.06 2.3825 4.2885 0.71475 4.765-0.47653 4.5268-12.151-0.71473-20.013-4.2885-21.681-22.634-9.2918z"/>
   <path d="m-138.38-83.435c-3.812 14.057-2.3825 22.634 3.5737 21.681 2.6208-0.47653 11.198-1.4295 19.06-2.3825 10.483-1.1913 14.295-2.6208 14.295-5.2415 0-3.0973-28.114-23.825-32.64-23.825-0.95306 0-2.8591 4.2885-4.2885 9.7683z"/>
   <path d="m-229.4-84.627c-2.3825 5.0033-2.1443 6.4328 0.71479 8.3388 4.765 3.0973 8.3388 2.6208 11.674-1.4295 2.3825-3.0973 2.3825-4.5268-1.1913-8.3388-5.718-6.1945-7.8623-5.9563-11.198 1.4295z"/>
   <path d="m-357.1-60.802c-1.1913 2.1443-1.6677 6.1945-1.1913 9.2918 0.95307 4.2885 3.0973 5.718 12.151 6.9093 5.9563 0.71475 11.198 1.1913 11.674 0.71475 0.23841-0.47646 1.4295-4.2885 2.1443-8.3388 1.4295-6.671 0.953-7.624-3.3355-7.624-2.859 0-5.718-1.1913-6.4328-2.3825-2.3825-3.812-12.627-2.859-15.01 1.4295z"/>
   <path d="m-103.84-62.231c-0.71473 1.1913-3.5737 2.3825-6.4328 2.3825-4.2885 0-4.765 0.953-3.3355 7.624 0.7148 4.0503 1.6678 7.8623 2.1443 8.1005 0.23841 0.23827 5.4798 0 11.674-0.71476 9.0535-0.953 11.198-2.1443 11.912-6.671 0.7148-3.0973 0.2384-7.1475-0.953-9.2918-2.3825-4.2885-12.627-5.2415-15.01-1.4295z"/>
   <path d="m-330.65-43.647c-0.953 4.0503-2.6208 4.5268-10.245 3.5738-11.913-1.6678-13.58 2.1443-3.3355 7.624 5.9563 3.0973 8.1006 5.9563 8.1006 10.245 0 8.8153 6.4328 12.151 22.634 12.151 13.819 0 14.057 0 8.1005-3.3355-3.5738-1.906-6.9092-5.0033-7.8623-7.1475-0.71473-1.906-4.0503-4.765-7.624-5.9563-5.4798-2.1443-6.1946-3.3355-5.0033-10.721 1.4295-8.8153-2.6207-14.295-4.765-6.4328z"/>
   <path d="m-120.04-46.506c-0.71474 0.71475-0.71474 5.0033 0 9.53 1.1913 6.9093 0.4768 8.3388-5.0033 10.483-3.5738 1.1913-6.9092 4.0503-7.624 5.9563-0.95299 2.1443-4.2885 5.2415-7.8622 7.1475-5.9563 3.3355-5.718 3.3355 6.9092 3.5738 15.248 0 23.825-4.5268 23.825-12.866 0-3.812 2.6207-6.9093 8.1005-9.7683 10.245-5.718 8.577-9.2918-3.5737-7.624-6.9093 0.953-9.2918 0.23827-9.2918-1.906 0-3.812-3.3355-6.4328-5.4798-4.5268z"/>
   <path d="m-289.44-10.769c-2.3825 6.1945-1.6677 8.1005 4.2885 10.721 9.0536 4.2885 13.819 18.822 5.9563 18.822-1.4295 0-1.9061-2.1443-0.953-4.765 1.1912-3.5738-0.4768-5.718-6.4328-9.53-10.721-6.9093-18.822-4.765-31.926 8.3388-8.8152 8.577-10.483 11.436-8.3388 14.057 2.1443 2.6208 4.2885 2.6208 11.436 0.23827 5.718-1.906 10.96-2.3825 14.295-0.953 5.2415 1.906 12.627-2.3825 12.627-7.624 0-1.1913 0.95299-2.1443 2.1443-2.1443 0.95299 0 1.4295 2.6208 0.95299 5.718-1.4295 7.624 11.436 24.302 20.49 26.446 12.627 2.859 30.02 13.342 34.07 20.251 2.1443 4.0503 5.718 7.1475 7.8622 7.1475s5.718-3.0973 7.8623-7.1475c4.0503-6.9093 21.443-17.392 34.07-20.251 9.0536-2.1443 21.919-18.822 20.49-26.446-0.47613-3.0973 0-5.718 0.95299-5.718 1.1913 0 2.1443 1.4295 2.1443 3.3355 0 5.718 5.9563 8.8153 12.389 6.4328 3.812-1.4295 8.577-1.1913 14.533 0.953 7.1476 2.3825 9.2918 2.3825 11.436-0.47653 2.3825-2.6208 0.47613-5.2415-8.8153-14.057-6.4328-5.718-14.057-11.198-16.916-11.913-7.624-2.1443-20.966 6.4328-20.728 12.866 0.23841 5.4798-2.3825 6.9093-5.0033 3.0973-1.906-3.3355 3.812-14.295 8.577-15.725 4.765-1.6678 7.3858-6.9093 5.4798-11.913-2.859-7.3858-13.819-0.71475-15.486 9.53-1.4295 6.9093-19.775 15.486-33.355 15.486-7.624 0-11.674 1.1913-12.627 3.5738-0.7148 1.906-2.8591 3.5738-5.0033 3.5738s-4.2885-1.6678-5.0032-3.5738c-0.95299-2.3825-5.0032-3.5738-12.627-3.5738-13.58 0-31.926-8.577-33.355-15.486-1.6678-10.483-12.627-16.916-15.486-9.2918zm10.007 5.4798c0.71473 1.906-0.2384 2.859-2.1443 2.1443-1.6678-0.47653-3.5738-2.3825-4.0502-4.0503-0.7148-1.906 0.2384-2.859 2.1443-2.1443 1.6677 0.47646 3.5737 2.3825 4.0502 4.0503zm119.6-2.3825c0 2.859-4.765 5.9563-6.4328 4.2885-1.6677-1.6678 1.4295-6.4328 4.2885-6.4328 1.1913 0 2.1443 0.953 2.1443 2.1443zm-89.344 25.493c14.295 3.3355 14.295 3.3355 2.6207 2.1443-6.4328-0.71476-13.58-1.1913-15.963-1.1913-2.6207 0-4.5268-1.1913-4.5268-2.3825 0-2.859 0.2384-2.859 17.869 1.4295zm70.284-1.4295c0 1.1913-1.906 2.3825-4.5268 2.3825-2.3825 0-9.53 0.47646-15.963 1.1913l-11.674 1.1912 13.104-3.3355c17.154-4.0503 19.06-4.2885 19.06-1.4295zm-90.535 9.7683c3.5737 6.4328 1.4295 8.3388-5.9563 5.0033-3.812-1.6678-5.4798-4.0503-4.5268-6.4328 2.1443-5.0033 7.3858-4.5268 10.483 1.4295zm102.45-1.4295c2.3825 2.859 1.6678 4.0503-3.3355 6.1945-7.624 3.5738-9.7683 1.906-6.1945-4.765 3.0973-5.9563 5.4798-6.1945 9.53-1.4295zm-69.093 16.439c0 4.2885-4.0503 6.9093-7.1476 5.0033-1.906-1.1913-1.6677-2.6208 0.2384-5.0033 3.5738-4.2885 6.9093-4.2885 6.9093 0zm32.879 2.3825c0.71473 2.859-0.23841 4.0503-2.3825 3.3355-1.6677-0.71476-3.5738-3.0973-3.812-5.2415-0.7148-2.859 0.2384-4.0503 2.3825-3.3355 1.6678 0.71475 3.5738 3.0973 3.8121 5.2415z"/>
   <path d="m-334.46 29.972c-3.3355 3.0973-1.4295 9.2918 5.2415 16.916 6.1946 7.1475 7.1476 7.3858 14.057 5.0033 8.3388-2.859 9.7683-5.718 3.8121-7.8623-2.1443-0.71475-3.3355-3.5738-2.8591-6.671 0.4768-4.2885-0.47613-5.4798-4.5267-5.4798-2.6208 0-5.9563-0.71476-6.9093-1.906-2.1443-2.1443-6.671-2.1443-8.8153 0z"/>
   <path d="m-120.28 29.972c-0.953 0.953-4.2885 1.906-6.9093 1.906-4.0503 0-5.0033 1.1912-4.765 5.4798 0.47613 3.0973-0.95306 5.9563-2.8591 6.671-5.718 2.1443-4.2885 5.0033 4.0503 7.8623 6.9093 2.3825 7.8623 2.1443 14.295-5.0033 3.5738-4.2885 6.4328-10.007 5.9563-12.627-0.4768-5.0033-6.4328-7.3858-9.7683-4.2885z"/>
   <path d="m-306.35 52.129c-4.2885 4.765-4.0502 4.765 1.906 4.765 3.5738 0 6.4328 0.95301 6.4328 2.3825 0 4.2885 13.58 2.6208 19.298-2.3825l5.718-5.0033-7.1475 1.4295c-4.2885 0.71475-10.007-0.23827-14.057-2.3825-8.3388-4.2885-6.9093-4.5268-12.151 1.1913z"/>
   <path d="m-152.68 51.176c-3.3355 1.906-8.8153 2.859-12.389 2.3825-8.3388-1.6678-8.577 1.6678-0.71473 5.2415 7.624 3.5738 17.869 3.812 17.869 0.47646 0-1.4295 2.8591-2.3825 6.4328-2.3825 5.9563 0 6.1946 0 1.9061-4.765-5.0033-5.4798-5.0033-5.4798-13.104-0.953z"/>
   <path d="m-271.57 56.656c-2.8591 2.859-5.0033 7.1475-5.0033 9.53 0 2.6208-1.6677 6.4328-3.812 8.577-4.5268 4.5268-2.6208 11.913 2.859 9.7683 2.1443-0.71475 6.4328-1.4295 9.53-1.4295 6.1946 0 7.8623-6.4328 3.0973-11.198-1.6677-1.6678-0.953-2.859 3.0973-3.812 5.0032-1.4295 12.866-10.483 10.721-12.627-0.4768-0.47653-4.0503-1.6678-8.1006-2.3825-5.718-1.1913-8.577-0.23827-12.389 3.5738z"/>
   <path d="m-191.28 53.797c-2.3825 0.47653-4.2885 1.906-4.2885 2.859 0 3.3355 9.7683 12.151 13.58 12.151 3.0972 0 3.3355 0.71476 1.1913 2.859-5.718 5.718-3.3355 10.96 6.1945 12.151 10.96 1.4295 14.533-1.4295 9.2918-7.3858-2.1443-2.3825-4.0503-6.671-4.0503-9.53 0-10.245-10.006-16.201-21.919-13.104z"/>
   <path d="m-236.54 85.961c-4.5268 4.5268-17.392 5.9563-19.775 1.906-1.906-2.859-17.869-3.0973-17.869-0.23827 0 1.1913 2.6208 3.812 5.9563 5.9563 10.96 7.1475 39.311 3.0973 39.311-5.718 0-6.4328-2.859-7.1475-7.624-1.906z"/>
   <path d="m-215.34 82.387c-0.953 0.71475-1.6677 3.3355-1.6677 5.718 0 5.0033 11.198 9.2918 24.302 9.2918 9.0536 0 20.966-5.4798 20.966-9.7683 0-2.859-15.963-2.6208-17.869 0.23827-2.6207 4.2885-17.392 2.6208-20.966-2.3825-1.906-2.6208-4.0502-4.0503-4.765-3.0973z"/>
   <path d="m-316-120.5c0.95299 0.953 6.1945 2.1442 11.913 2.859 8.8152 1.1912 10.006 2.1443 10.721 8.3388 0.953 7.8623-2.3825 10.96-12.866 10.96-8.8153 0-15.248-6.1945-15.963-15.486-0.47613-6.4328 2.859-10.007 6.1946-6.671z"/>
  </g>
 </g>
</svg>
