<?xml version="1.0" encoding="UTF-8"?>
<svg width="768" height="944.26" fill-rule="evenodd" version="1.1" viewBox="0 0 576 708.19" xmlns="http://www.w3.org/2000/svg" xmlns:cc="http://creativecommons.org/ns#" xmlns:dc="http://purl.org/dc/elements/1.1/" xmlns:rdf="http://www.w3.org/1999/02/22-rdf-syntax-ns#">
 <metadata>
  <rdf:RDF>
   <cc:Work rdf:about="">
    <dc:format>image/svg+xml</dc:format>
    <dc:type rdf:resource="http://purl.org/dc/dcmitype/StillImage"/>
    <dc:title/>
   </cc:Work>
  </rdf:RDF>
 </metadata>
 <g transform="matrix(1.7748 0 0 1.7748 5.6346e-6 0)">
  <g transform="translate(-139.42 -141.08)">
   <g stroke="#2c2c2b" stroke-width=".216">
    <path d="m150.41 444.38c2.952 0 5.4 2.16 5.832 5.832 0.432 3.6-2.808 7.56-6.192 7.704-3.312 0.216-6.192-2.736-6.192-6.696s3.528-6.84 6.552-6.84z"/>
    <path d="m165.96 474.4c3.312 0.216 5.688 3.312 5.76 6.696 0.072 3.312-2.592 6.48-5.976 6.912-3.456 0.36-6.408-3.096-6.408-6.984s3.384-6.768 6.624-6.624z"/>
    <path d="m191.59 499.31c3.024 0.072 5.4 2.52 5.4 5.616s-2.952 5.76-6.048 5.76c-3.168 0-5.616-3.024-5.4-6.192 0.144-3.24 3.024-5.256 6.048-5.184z"/>
    <path d="m221.9 512.85c3.528 0 6.336 2.592 6.336 6.12s-2.88 6.408-6.336 6.408c-3.528 0-6.264-2.88-6.264-6.408s2.808-6.12 6.264-6.12z"/>
    <path d="m254.52 522.28c3.312-0.216 5.76 2.088 6.048 6.048s-2.664 6.984-6.48 6.84-5.544-3.096-5.4-6.696c0.072-3.6 2.448-5.976 5.832-6.192z"/>
    <path d="m285.7 525.88c3.168 0.144 5.184 2.52 5.256 5.976 0 3.456-2.304 6.624-6.048 6.264-3.672-0.36-5.76-3.312-5.472-6.696 0.216-3.384 3.096-5.688 6.264-5.544z"/>
    <path d="m323.28 526.03c3.816 0 6.336 3.6 6.264 7.2-0.144 3.672-2.808 6.768-6.408 6.768s-6.696-3.312-6.84-6.984c-0.216-3.672 3.168-6.912 6.984-6.984z"/>
    <path d="m357.19 522.64c3.96-0.216 7.992 3.744 7.776 7.272-0.144 3.528-2.376 5.832-5.904 5.544-3.456-0.36-7.416-3.384-7.704-6.408-0.216-2.952 1.872-6.264 5.832-6.408z"/>
    <path d="m389.02 512.42c3.816-0.36 6.696 2.448 6.984 5.832 0.216 3.312-1.224 6.84-5.616 7.056-4.32 0.288-7.56-3.528-7.632-6.696-0.072-3.096 2.448-5.904 6.264-6.192z"/>
    <path d="m417.1 496.51c3.24 0 6.264 2.952 6.336 6.048 0.072 3.168-2.232 5.832-5.544 5.76-3.312 0-5.904-3.6-5.904-6.696s1.944-5.112 5.112-5.112z"/>
    <path d="m439.85 470.59c3.6 0 6.264 2.52 6.264 5.976s-2.376 6.696-6.048 6.696c-3.6 0-6.696-3.312-6.696-6.768s2.808-5.904 6.48-5.904z"/>
    <path d="m454.18 441.21c3.672-0.36 6.696 1.944 6.48 5.616-0.144 3.744-2.52 6.768-6.336 6.912-3.888 0.072-6.84-3.096-6.552-6.624 0.288-3.456 2.808-5.544 6.408-5.904z"/>
    <path d="m459 408.38c3.24 0.216 5.112 2.88 4.824 5.832s-3.24 6.624-6.552 6.624-5.832-3.384-5.544-6.624 3.96-5.976 7.272-5.832z"/>
    <path d="m455.47 373.39c4.392-0.288 7.344 2.448 7.2 6.624-0.216 4.176-3.24 7.776-7.416 7.776-4.248 0-7.056-3.096-7.056-7.056 0-3.888 2.88-7.056 7.272-7.344z"/>
    <path d="m453.6 339.69c-3.456 0-8.352 3.168-8.352 6.624s4.032 5.904 7.56 5.904 6.408-3.384 6.408-6.912c0-3.456-2.088-5.616-5.616-5.616z"/>
    <path d="m449.28 305.85c-4.608-0.288-7.704 2.376-7.344 6.408 0.432 3.96 3.024 6.84 6.696 6.84s6.84-3.384 7.056-7.272c0.144-3.888-1.8-5.76-6.408-5.976z"/>
    <path d="m444.24 273.52c4.176 0.072 7.92 2.592 8.496 6.48 0.648 3.96-3.384 8.208-7.632 7.992s-7.272-3.168-7.848-6.984c-0.648-3.888 2.88-7.56 6.984-7.488z"/>
    <path d="m437.76 241.7c3.672 0 6.624 2.16 6.624 5.832s-2.736 7.56-6.48 7.56c-3.672 0-6.912-3.384-6.912-6.984 0-3.672 3.096-6.408 6.768-6.408z"/>
    <path d="m428.04 209.3c3.816 0 6.84 2.808 6.84 6.912s-3.528 7.272-7.344 7.272c-3.888 0-6.624-3.312-6.624-7.416s3.24-6.768 7.128-6.768z"/>
    <path d="m410.4 178.41c4.104 0 6.912 3.24 7.056 7.344s-3.024 7.56-7.272 7.416c-4.32-0.072-7.632-3.744-7.632-7.776 0-3.96 3.744-6.984 7.848-6.984z"/>
    <path d="m383.62 156.31c3.528 0 6.768 2.952 6.984 7.344 0.216 4.464-3.384 6.912-7.2 6.12-3.744-0.792-5.976-3.24-6.12-6.984-0.072-3.744 2.88-6.48 6.336-6.48z"/>
    <path d="m349.99 147.38c3.96 0 6.984 2.952 6.984 6.84 0 3.816-2.808 7.416-6.768 7.416s-7.416-3.24-7.416-7.056c0-3.888 3.24-7.2 7.2-7.2z"/>
    <path d="m316.73 142.7c3.816 0 7.344 2.808 7.344 6.552 0.072 3.744-3.24 7.056-7.128 6.912s-6.84-3.312-6.84-6.912c0-3.672 2.736-6.552 6.624-6.552z"/>
    <path d="m145.94 410.68c3.312 0.36 6.84 2.664 6.84 6.048s-3.456 6.552-6.696 6.336c-3.168-0.288-6.336-3.24-6.552-6.768-0.144-3.456 3.096-5.976 6.408-5.616z"/>
    <path d="m149.62 376.05c3.528-0.072 6.264 2.664 6.264 6.192 0.072 3.528-2.952 6.552-6.264 6.552s-6.552-3.024-6.552-6.48c0-3.528 3.024-6.192 6.552-6.264z"/>
    <path d="m152.14 341.56c3.672-0.144 6.264 2.376 6.264 6.12s-3.096 7.128-6.84 7.128c-3.816 0-6.48-3.024-6.48-6.552 0-3.6 3.384-6.552 7.056-6.696z"/>
    <path d="m153.29 306.86c3.528 0.144 6.048 3.024 6.192 6.768 0.072 3.744-3.024 6.624-6.768 6.84s-6.624-3.096-6.48-7.2c0.072-4.176 3.528-6.552 7.056-6.408z"/>
    <path d="m156.17 273.16c3.312 0 6.192 2.952 6.192 6.696s-2.448 6.912-5.616 6.768c-3.24-0.144-6.696-3.312-6.84-6.912s3.024-6.552 6.264-6.552z"/>
    <path d="m161.06 237.95c3.672 0 6.624 2.808 6.624 6.408 0 3.672-3.168 6.984-6.84 6.984-3.744 0-6.912-2.88-6.912-6.552 0-3.6 3.456-6.84 7.128-6.84z"/>
    <path d="m168.98 204.33c3.744 0 6.408 3.312 6.408 6.912 0 3.672-2.88 6.48-6.552 6.48-3.744 0-6.84-3.528-6.84-7.128 0-3.672 3.24-6.264 6.984-6.264z"/>
    <path d="m185.98 176.61c3.96 0 7.128 3.168 6.984 7.056s-4.104 6.696-7.848 6.696c-3.672 0-6.264-3.168-6.408-7.056-0.144-3.816 3.312-6.768 7.272-6.696z"/>
    <path d="m214.99 156.59c4.104 0 6.984 3.24 6.984 7.128s-2.664 6.408-6.768 6.408c-4.032 0-7.272-3.096-7.272-6.984s2.952-6.552 7.056-6.552z"/>
    <path d="m248.04 146.95c3.888 0 6.48 3.456 6.48 7.488 0 3.96-3.168 6.984-7.056 6.984-3.816 0-7.056-3.168-7.056-7.128s3.816-7.344 7.632-7.344z"/>
    <path d="m282.02 141.19c4.392 0 7.488 3.888 7.488 7.92 0 4.104-3.024 6.768-7.128 6.768-4.032 0-8.064-3.384-8.208-7.488-0.216-4.032 3.528-7.128 7.848-7.2z"/>
   </g>
   <path transform="scale(.75)" d="m417.99 693.91c-28.196-0.61289-68.087-4.6733-91.374-9.3006-11.682-2.3214-18.886-4.6084-32.55-10.334-36.937-15.477-57.185-31.828-70.036-56.552-7.343-14.128-9.6415-25.181-11.169-53.709-0.82779-15.464-0.44758-23.222 1.9284-39.349 1.8807-12.765 3.5579-36.789 4.3807-62.746 1.2649-39.905 2.3656-63.576 3.5743-76.864 2.0164-22.169 10.7-70.414 16.864-93.695 2.2684-8.5673 3.1678-10.646 7.2959-16.863 5.848-8.807 17.999-20.997 27.956-28.045 14.142-10.011 33.087-18.633 50.187-22.841 26.5-6.5208 38.363-8.2311 61.57-8.8766 23.565-0.65545 45.84 0.92246 69.413 4.9171 9.4377 1.5993 32.307 7.3928 40.006 10.135 14.044 5.0018 29.724 15.348 37.641 24.838 11.378 13.638 28.847 55.985 35.686 86.508 5.4665 24.398 11.619 68.579 14.909 107.06 2.4616 28.794 4.6402 50.016 6.8038 66.276 1.3361 10.041 1.6714 16.625 1.6779 32.942 0.0125 31.329-2.1846 44.166-10.281 60.067-11.066 21.734-29.337 44.27-45.657 56.312-11.773 8.6867-32.032 17.586-52.822 23.203-19.47 5.2602-40.559 7.4705-66.004 6.9174zm34.51-10.455c23.925-2.0478 57.896-14.158 77.49-27.624 17.428-11.978 34.232-30.527 42.087-46.458 6.5186-13.221 8.9019-21.311 9.283-31.51 0.3636-9.7297-0.43407-13.346-4.8137-21.825-6.4051-12.399-36.273-35.836-43.977-34.508-1.3314 0.22953-8.4209 0.74596-15.754 1.1476-20.028 1.097-27.208 3.7502-28.204 10.422-1.1006 7.3756-2.3797 11.369-6.3122 19.706-5.663 12.006-6.2743 14.108-5.1724 17.786 1.0704 3.5726 4.672 6.814 8.1423 7.3278 1.3893 0.20572 4.9288 0.72761 7.8657 1.1598 11.225 1.6518 17.014 7.0079 17.013 15.741-7.6e-4 5.3702-3.1889 12.507-7.3607 16.477-2.5154 2.3937-3.4149 2.7403-7.7426 2.9838-5.6836 0.31976-8.9795-1.2442-11.568-5.4889-2.4438-4.0081-1.9214-5.1708 1.0355-2.3048 6.5753 6.373 15.253 3.8429 17.758-5.1778 1.7596-6.3357 0.55367-10.355-3.7145-12.38-2.3736-1.1264-4.5194-1.2318-15.774-0.77481-17.54 0.71213-20.693 0.60883-24.888-0.81529l-3.5874-1.218-4.0407 2.8354c-2.6602 1.8667-7.41 3.8993-13.903 5.9496-10.827 3.419-14.527 5.4472-21.36 11.709-5.7947 5.3106-7.8994 9.2668-7.9382 14.921-0.0561 8.1675 3.4617 11.56 14.745 14.22 7.6201 1.7963 13.799 5.2169 17.293 9.5726 1.9491 2.4303 2.4173 3.7464 2.4173 6.7953 0 10.574-14.285 18.17-27.949 14.863l-4.2088-1.019 5.5044-0.93648c10.559-1.7964 17.633-7.0154 17.633-13.008 0-6.2726-7.6378-10.582-20.594-11.619-9.6604-0.77322-14.229-2.7386-20.79-8.943-7.801-7.3778-9.9657-13.225-7.6372-20.627 2.6166-8.3188 6e-3 -14.378-6.2147-14.428-1.7582-0.014-5.1379-0.73671-7.5105-1.6058-7.2015-2.638-7.0681-2.6262-8.3871-0.74304-1.5643 2.2334-5.6323 3.9431-9.3818 3.9431h-2.9171l2.1076-2.1998c1.3332-1.3916 2.1076-3.0673 2.1076-4.5607 0-1.9603-0.49906-2.5947-2.9412-3.7387-1.6177-0.75779-5.3456-2.8182-8.2843-4.5786-6.5683-3.9348-14.583-5.9992-25.638-6.6039-7.7688-0.42494-8.391-0.3446-10.981 1.4179-3.6107 2.4574-5.6576 7.9975-5.1516 13.943 0.46684 5.4853 2.3485 8.0262 6.7937 9.1738l3.456 0.89223-2.9412 1.2752c-2.6026 1.1284-3.2513 1.1456-5.6344 0.14992-6.3265-2.6434-9.5913-13.689-6.0804-20.571 2.409-4.7221 6.1496-7.9319 13.277-11.393 8.4196-4.0886 9.9103-5.9382 9.3807-11.639-0.22045-2.3726-1.5042-7.0469-2.8528-10.387-1.7044-4.2218-2.6011-8.0075-2.9411-12.417-0.56216-7.2898-2.213-10.499-6.5371-12.709-2.4008-1.2268-4.6687-1.3685-18.829-1.1765l-16.1 0.21833-5.0772 2.5361c-5.7831 2.8886-20.84 13.519-31.672 22.361-10.358 8.4551-11.445 10.788-11.445 24.567 0 26.882 8.6462 47.134 27.907 65.366 15.779 14.936 46.228 30.472 74.041 37.776 11.644 3.0579 48.504 7.4192 67.859 8.0291 18.833 0.59348 51.197 0.44324 59.609-0.27672zm-23.922-98.642c15.963-5.2705 35.004-21.52 41.988-35.833 6.5389-13.4 7.6969-35.421 2.7633-52.55-3.0346-10.536-8.7182-22.617-13.789-29.31-13.116-17.312-36.275-27.766-61.552-27.786-21.89-0.0169-37.069 5.9734-51.348 20.264-17.629 17.643-19.798 32.028-8.983 59.578 8.4806 21.603 18.281 31.526 37.702 38.175 7.1807 2.4582 7.6208 2.5099 21.06 2.4732 21.798-0.0597 29.462-2.372 38.814-11.711 6.8958-6.8862 10.5-14.103 11.4-22.825 1.19-11.534-0.88045-26.436-4.7144-33.932-3.5968-7.0323-13.272-15.135-21.866-18.311-3.7708-1.3938-6.2559-1.6388-16.967-1.673-12.381-0.0396-12.633-6e-3 -18.824 2.5025-9.166 3.7142-13.553 7.3126-16.799 13.779-2.1672 4.3171-2.7488 6.5032-3.0322 11.399-0.4528 7.8219 0.88237 14.074 4.0029 18.743 4.6453 6.9507 17.388 11.727 29.426 11.03 7.796-0.4513 12.599-2.9567 15.182-7.919 2.3897-4.592 2.5012-13.888 0.21333-17.782-2.2527-3.8345-6.0899-5.8677-10.942-5.7975-7.2997 0.10551-12.521 4.4937-13.421 11.28-0.2827 2.131-0.97742 4.2592-1.5438 4.7293-1.6825 1.3964-5.1658 0.50731-6.8405-1.7459-4.4357-5.9682 1.0365-16.711 10.763-21.129 6.1197-2.7796 17.806-1.5023 24.043 2.6278 3.282 2.1734 6.6654 8.6782 7.8398 15.073 1.4652 7.9772-1.3914 17.697-7.1177 24.219-6.6096 7.5279-26.306 9.6429-40.48 4.3468-8.9984-3.3623-18.342-15.583-20.738-27.125-0.51311-2.4716-0.77398-7.2393-0.57973-10.595 0.49189-8.497 4.915-17.466 12.264-24.869 8.3587-8.42 16.988-11.688 32.716-12.39 23.768-1.0612 41.447 8.3404 51.301 27.281 4.7207 9.0738 5.7124 13.957 5.8032 28.576 0.0834 13.435-0.69943 17.573-5.277 27.891-2.1168 4.7716-8.8536 11.695-14.706 15.114-18.347 10.718-54.975 11.085-75.868 0.76153-12.336-6.0952-24.603-22.051-31.537-41.022-1.304-3.5675-2.6462-5.9823-3.4104-6.1361-1.5291-0.30773-1.5776 0.99785-0.42169 11.364 1.0819 9.7024 3.9081 19.36 7.9842 27.283 4.6207 8.9817 13.597 17.871 22.158 21.944 19.373 9.2159 33.457 12.272 54.903 11.913 11.123-0.18611 14.179-0.50216 18.432-1.9064zm153.26-45.329c0.80342-2.0937-1.0149-7.2154-3.6117-10.173-2.9329-3.3404-8.1393-6.0914-13.802-7.2929-4.4546-0.94516-10.354-1.1814-10.354-0.41471 0 1.3267 3.8621 5.5411 8.5454 9.3251 10.456 8.4478 17.978 11.796 19.222 8.5555zm-346.06-4.7224c5.8771-2.1129 17.404-7.5398 19.225-9.0508 0.56004-0.4648 1.0182-1.373 1.0182-2.0183 0-0.99694-1.5024-1.1246-10-0.84982-8.7244 0.28212-10.568 0.58535-14.454 2.3768-7.6542 3.5287-9.6042 11.458-2.8477 11.579 0.7292 0.0131 3.9057-0.90368 7.059-2.0373zm67.695-24.756c5.2729-2.8463 7.1082-6.1333 8.175-14.641 0.97954-7.812 4.038-15.684 9.8192-25.274 2.3976-3.977 4.3494-7.9721 4.3374-8.8779-0.0245-1.8447-3.5007-6.7704-6.347-8.9932-6.199-4.8413-14.874-7.3376-25.35-7.2944-21.275 0.0878-35.173 9.0253-36.364 23.384-0.6918 8.3422 2.5206 11.698 10.579 11.051 4.3104-0.346 4.869-0.24424 4.0534 0.73841-2.6417 3.1831-7.7974 4.2093-11.491 2.2873-5.2218-2.7169-8.0004-8.1336-8.0004-15.596 0-7.9255 1.7698-11.878 8.1681-18.242 13.303-13.231 33.636-17.721 53.402-11.792 8.8873 2.6658 19.742 7.0474 22.518 9.0894 3.0841 2.2688 4.6308 1.954 8.108-1.6504 6.1176-6.3411 16.476-12.281 26.382-15.127 5.1764-1.4874 9.034-4.4374 10.551-8.0685 1.3998-3.35 1.3638-10.208-0.0749-14.286-2.7051-7.6671-11.585-17.309-21.464-23.307-12.404-7.5305-23.827-17.977-30.292-27.701-4.7345-7.1217-5.9768-10.271-6.8308-17.319-1.0055-8.2978-2.6268-12.671-6.2038-16.735-4.4026-5.0016-9.9323-7.5793-16.259-7.5793-8.2195 0-11.987 2.5639-13.156 8.9536-0.51619 2.8216-0.64834 2.9528-1.6267 1.6148-2.4175-3.3062-0.63488-9.0218 3.8902-12.473 6.3475-4.8414 15.35-5.7097 23.868-2.302 5.0359 2.0147 5.2332 2.0329 7.6906 0.7095 1.654-0.89075 3.2926-2.8847 4.7606-5.7933 4.9737-9.854 20.5-22.883 33.083-27.76 3.3202-1.2871 6.2961-2.742 6.613-3.2333 1.1125-1.7242 0.57499-9.5008-0.87485-12.658-2.6922-5.8628-6.5726-7.8954-12.604-6.6019-6.6587 1.428-9.7198 5.9489-6.5098 9.6144 1.3115 1.4976 1.3086 1.544-0.0642 1.0422-0.79019-0.28884-1.7356-0.52516-2.1009-0.52516-1.4676 0-3.1292-2.6051-3.1292-4.9062 0-1.893 0.8556-3.2658 3.8101-6.1136 4.4231-4.2634 9.6237-5.967 15.517-5.0833 4.4389 0.66566 9.5879 5.108 11.599 10.008 3.8976 9.4934 7.7137 14.102 12.755 15.405 1.6424 0.42431 7.9275 1.1845 13.967 1.6893 6.0393 0.50481 12.549 1.1012 14.465 1.3253 4.8316 0.56499 11.103-1.0017 14.837-3.7064 8.5439-6.1892 10.649-20.703 3.9717-27.381-6.2572-6.2572-18.091-4.32-16.94 2.7731 0.44989 2.7724-0.0722 3.3099-1.6664 1.7157-1.3519-1.3519-1.1591-5.1146 0.39692-7.7488 4.1452-7.0173 17.832-5.6438 23.639 2.3721 8.3491 11.526 2.5074 31.815-11.05 38.378-3.4257 1.6584-4.6707 1.7515-25.822 1.9325l-22.223 0.19016-8.2355 2.579c-10.452 3.273-14.794 5.6297-20.952 11.371-18.369 17.126-14.37 43.768 8.558 57.024 19.89 11.499 45.36 33.848 56.175 49.29 4.5902 6.5542 5.6877 9.6786 6.3486 18.073l0.46047 5.8493 9.0198 3.3548c11.313 4.2076 13.017 4.2665 15.981 0.55228 2.4863-3.1161 6.2268-5.0171 9.8718-5.0171h2.373l-2.74 3.5896c-5.4102 7.0877-2.9045 13.523 7.2031 18.499 4.3487 2.1409 6.014 2.5391 10.364 2.4787 6.1264-0.0851 10.536-1.6269 22.984-8.0355 9.8815-5.0873 17.088-6.8387 25.136-6.1089 9.2908 0.84246 17.848 7.3446 17.848 13.561 0 2.902-1.7046 5.0365-4.0221 5.0365-1.4524 0-1.475-0.11718-0.33614-1.7432 3.9104-5.5828-2.4982-10.504-14.741-11.32-12.875-0.85791-24.663 3.4559-32.586 11.925-5.2495 5.6117-7.1396 10.089-7.1396 16.913 0 8.9988 1.9749 10.793 9.3521 8.4971 5.6316-1.7527 9.181-1.9119 13.536-0.60704 3.4207 1.0249 7.7006 5.3445 7.7006 7.7721 0 1.4545-0.23076 1.3984-2.9412-0.71467-5.4694-4.264-10.777-5.0917-15.898-2.4792-5.3705 2.7398-7.4763 10.252-4.1375 14.76 4.7518 6.4159 18.982 10.595 36.31 10.663 11.579 0.0455 13.86-0.73532 22.912-7.8445 8.4089-6.6044 24.401-22.989 27.196-27.863 2.2525-3.9282 2.4281-4.7804 2.435-11.818 0.02-20.61-2.5775-43.775-9.4835-84.574-5.095-30.1-7.2642-40.916-11.012-54.903-11.159-41.651-29.753-67.922-57.419-81.125-12.728-6.0742-35.421-12.487-54.444-15.385-13.941-2.1239-42.974-2.9035-59.432-1.5957-23.507 1.8678-52.085 6.7819-70.952 12.201-22.712 6.5232-45.046 21.379-55.452 36.885-9.6254 14.343-13.12 26.38-19.078 65.719-1.7126 11.307-3.9663 25.852-5.0083 32.322-4.0416 25.099-6.3423 56.694-5.7666 79.192 0.56585 22.115 0.92426 22.798 21.702 41.363 13.073 11.68 18.183 15.348 23.431 16.818 5.4584 1.5283 27.191 1.0585 30.368-0.65643zm260.56-0.31552c5.8236-0.73293 11.762-3.2837 13.576-5.8315 3.6824-5.1715 2.1846-14.973-2.3686-15.499-3.701-0.42796-21.961 17.029-21.961 20.995 0 1.8238-0.86014 1.797 10.754 0.33535zm-309.86-0.72147c0.25041-0.65257 0.0456-1.6802-0.45523-2.2836-2.028-2.4436-23.039-16.991-24.213-16.764-2.8358 0.54612-2.5524 9.0655 0.43459 13.066 3.6684 4.9135 9.049 7.085 17.676 7.1337 4.7468 0.0267 6.2044-0.22925 6.5585-1.152z" stroke-width=".78433"/>
   <path transform="scale(.75)" d="m287.78 414.35c-13.745-2.1062-24.926-14.94-24.926-28.613 0-8.2654 4.2116-17.121 10.358-21.78 10.727-8.1304 25.526-7.0955 35.897 2.5104 6.3369 5.8695 9.4545 13.764 8.5169 21.567-1.6934 14.094-12.564 25.562-25.075 26.452-1.4575 0.10365-3.6046 0.0422-4.7713-0.1366zm7.3286-4.0272c2.7883-0.59089 7.8914-3.0604 7.8367-3.7923-0.0488-0.65314-6.8652-9.9142-8.7549-11.895-3.1962-3.3499-4.8284-3.3211-8.9102 0.15744-2.0146 1.7169-8.7618 9.1269-8.9101 9.7854-0.12209 0.54233 3.7167 3.1368 6.3452 4.2885 2.3444 1.0272 6.161 1.9049 8.4234 1.9371 0.87504 0.0125 2.6615-0.20418 3.9699-0.48146zm12.576-7.7999c2.1879-2.3877 4.1608-5.769 5.1528-8.831 1.1939-3.6853 1.4705-10.076 0.43621-10.076-0.94203 0-11.849 3.2767-13.278 3.9891-0.86494 0.43114-1.872 1.1969-2.238 1.7016-0.89539 1.2349-0.45272 2.8395 1.8026 6.5341 0.94048 1.5407 2.5606 4.1933 3.6003 5.8948s2.0074 3.0936 2.1506 3.0936c0.14318 0 1.2112-1.0377 2.3733-2.3059zm-29.979-4.3954c4.8618-8.4932 5.2604-9.6797 3.8531-11.469-1.1005-1.3991-2.9642-2.2098-9.0772-3.9484-4.2642-1.2128-5.5898-1.4694-5.8272-1.1278-0.16903 0.24318-0.2375 2.1127-0.15216 4.1545 0.18197 4.3534 1.2576 8.0285 3.4227 11.695 1.2129 2.0539 4.5456 6.1811 4.7709 5.9084 0.0464-0.0562 1.4008-2.4018 3.0098-5.2126zm28.292-16.456c7.6938-0.92508 7.1622-0.75188 6.8949-2.2465-0.12685-0.70909-0.94887-2.7781-1.8267-4.5978-3.2545-6.7462-9.3211-11.216-17.059-12.57l-1.1972-0.20945 0.23486 1.6802c0.12916 0.92409 0.70229 5.0823 1.2736 9.2405 1.0782 7.8473 1.3503 8.6747 2.9558 8.9888 1.6212 0.31713 4.4945 0.22312 8.7241-0.28543zm-19.285-0.6821c1.0236-0.42768 1.2914-0.79344 1.7473-2.3865 0.42387-1.481 1.9676-14.105 1.9703-16.112 2e-3 -1.2769-6.5161 0.0677-10.959 2.2607-4.4869 2.215-8.7146 6.3395-10.748 10.486-0.74428 1.5174-1.2711 2.8411-1.1707 2.9415s2.2265 0.6562 4.7246 1.2351c9.1453 2.1192 12.307 2.4642 14.436 1.5749z" stroke-width=".35355"/>
   <path transform="scale(.75)" d="m403.17 362.17c-7.4455-1.1359-13.846-3.9905-18.923-8.4397-7.1987-6.3084-11.014-16.119-9.968-25.635 0.76246-6.94 3.4437-12.533 8.3723-17.464 4.3933-4.3953 9.5573-7.1448 15.767-8.3952 2.4019-0.48359 7.6211-0.66129 10.345-0.35222 13.48 1.5294 23.252 9.7578 26.299 22.146 0.76445 3.1074 0.95652 4.7655 0.95804 8.2704 2e-3 5.4207-1.1389 9.8626-3.7001 14.401-4.3492 7.7068-11.603 13.192-20.031 15.147-1.7403 0.40376-7.2959 0.59939-9.1198 0.32114zm8.7119-4.388c4.6173-0.99565 8.3018-2.9128 11.575-6.0228 2.1286-2.0223 3.6354-4.0798 4.9939-6.8191 1.2278-2.4757 1.8834-4.4983 2.3199-7.1574 0.40611-2.4739 0.2373-7.1941-0.35096-9.8132-1.2988-5.7826-3.9248-10.604-7.9212-14.542-3.607-3.5549-8.0246-5.9316-13.053-7.0228-2.029-0.44031-6.782-0.5498-8.7744-0.20214-10.011 1.7469-18.207 9.9028-20.421 20.32-0.54687 2.5741-0.54645 6.6425 1e-3 9.5792 1.9154 10.275 8.2041 17.805 17.404 20.84 1.2454 0.41078 4.1761 1.0373 5.7796 1.2356 1.5882 0.19635 6.8455-0.0491 8.4467-0.39439z" stroke-width=".17678"/>
   <path transform="scale(.75)" d="m404.49 345.28c-3.1516-0.21244-5.8889-1.1998-7.9215-2.8574-0.59792-0.48761-1.4423-1.3968-1.9366-2.0854-2.0287-2.8258-2.9278-7.5144-2.1304-11.11 0.85709-3.8645 3.4444-6.7571 7.3515-8.219 3.9535-1.4793 9.0572-1.0547 12.635 1.0512 3.0819 1.8138 4.935 4.7245 5.353 8.4083 0.10493 0.92462 0.0418 2.9483-0.12183 3.9085-0.75788 4.446-3.1994 7.9132-6.8437 9.7186-2.0362 1.0087-3.8926 1.3533-6.3858 1.1852zm2.7843-3.5281c2.7608-0.61271 4.7615-2.4156 5.7124-5.1475 0.40952-1.1765 0.5065-1.8445 0.50494-3.4782-1e-3 -1.2617-0.0189-1.5178-0.14437-2.0938-0.42977-1.9722-1.2242-3.4689-2.5391-4.7839-1.261-1.261-2.6875-2.0141-4.3702-2.307-0.73182-0.12737-2.119-0.12615-2.7974 2e-3 -2.6684 0.50587-4.9724 2.3011-6.267 4.8832-0.73308 1.4621-1.0368 2.7752-1.0368 4.4828 0 1.774 0.4176 3.2108 1.3327 4.5854 1.3938 2.0936 3.6348 3.4801 6.3316 3.9174 0.73888 0.1198 2.6165 0.0849 3.2733-0.0609z" stroke-width=".0625"/>
   <path transform="scale(.75)" d="m504.07 412.95c-12.676-1.562-22.498-10.743-24.448-22.852-0.84722-5.2616-0.11775-11.75 1.8938-16.846 3.8774-9.8217 11.634-16.009 20.882-16.656 8.979-0.62874 18.335 3.7522 23.96 11.219 6.7295 8.9335 7.7915 20.145 2.8425 30.008-1.4166 2.8232-3.1473 5.2736-5.2463 7.4278-3.8101 3.9106-8.3471 6.4776-13.197 7.4666-1.4426 0.29421-5.1426 0.42282-6.6875 0.23246zm3.8347-4.2514c8.6809-1.1846 16.65-8.5078 19.103-17.554 2.1902-8.079-0.28086-17.159-6.3109-23.189-4.111-4.111-9.3289-6.4333-15.064-6.7044-6.5517-0.30977-13.098 2.6284-17.545 7.8742-2.3959 2.8266-4.0784 6.2546-4.9176 10.019-0.2438 1.0937-0.2792 1.6172-0.28317 4.1875-5e-3 3.1459 0.13364 4.2363 0.8744 6.8838 2.3663 8.4573 8.1212 15.002 15.427 17.545 1.1822 0.4115 3.0761 0.86124 4.1314 0.98106 0.95292 0.1082 3.6605 0.0824 4.5847-0.0437z" stroke-width=".125"/>
   <path transform="scale(.75)" d="m506.52 395.54c-1.8351-0.23427-3.9349-1.01-5.4375-2.0087-3.2757-2.1774-5.0718-5.5376-4.8397-9.0548 0.19584-2.9677 1.7864-5.6323 4.3458-7.2806 0.86463-0.55681 2.2006-1.079 3.427-1.3397 1.0247-0.21776 2.95-0.27534 4.0544-0.12125 4.6364 0.64689 7.7827 3.7564 8.291 8.194 0.22311 1.9476-0.22056 4.3042-1.1935 6.3394-0.63722 1.333-1.2736 2.2293-2.2183 3.1243-1.1846 1.1223-2.5826 1.8352-4.1093 2.0954-0.50517 0.0861-1.8215 0.11557-2.3199 0.0519zm1.0312-4.091c1.2698-0.18133 2.6179-0.83783 3.5925-1.7495 2.0854-1.9508 2.4459-4.9792 0.87385-7.3419-2.315-3.4793-7.4702-3.9734-10.442-1.001-1.1601 1.1602-1.7724 2.5985-1.7724 4.1636 0 1.54 0.55983 2.8818 1.6763 4.018 1.5572 1.5846 3.6797 2.2525 6.0721 1.9109z" stroke-width=".0625"/>
  </g>
 </g>
</svg>
