<?xml version="1.0" encoding="UTF-8"?>
<svg width="768" height="414.65" version="1.0" viewBox="0 0 768 414.65" xmlns="http://www.w3.org/2000/svg" xmlns:cc="http://creativecommons.org/ns#" xmlns:dc="http://purl.org/dc/elements/1.1/" xmlns:rdf="http://www.w3.org/1999/02/22-rdf-syntax-ns#">
 <title>The House</title>
 <metadata>
  <rdf:RDF>
   <cc:Work rdf:about="">
    <dc:format>image/svg+xml</dc:format>
    <dc:type rdf:resource="http://purl.org/dc/dcmitype/StillImage"/>
    <dc:title>The House</dc:title>
    <dc:date>2021-10-16</dc:date>
   </cc:Work>
  </rdf:RDF>
 </metadata>
 <g transform="matrix(3.3862 0 0 3.3862 -24.889 -10.159)">
  <path d="m7.65 124.15-0.3-1.3 0.9-2.5 2.1-0.7 2.05-0.7 0.6-3.6 0.65-3.55-0.5-12.3 2-1.15 1.95-1.1 1.4-2.7v-3.7l-0.8-0.95-0.85-0.9 0.95-0.3c0.55-0.15 1.95-0.7 3.2-1.25 1.25-0.5 2.6-1 3-1.05l0.75-0.15-0.2 2.8-0.15 2.85 0.65 0.35 0.6 0.4 74.35-0.1 1.5-0.8 1.55-0.8 0.9-1.5 0.95-1.5 0.3-2 0.3-1.95h2l-0.1 10.4-0.15 10.35-1.35 0.15-1.4 0.15v19.45h-48.55l0.1-10.6 0.05-10.65-0.65-2-0.7-2h-3.95l-1.2 4.1-0.35 8.95c-0.2 4.9-0.45 9.5-0.5 10.2-0.1 0.7-0.2 1.5-0.2 1.8l-0.05 0.5-12.85 0.15c-7.1 0.1-16.2 0.2-20.3 0.3l-7.35 0.15zm35.1-21.25v-5.8l-0.35-0.4c-0.7-0.7-0.85 0.05-1.2 5.65l-0.35 5.5 0.35 1.45 0.4 1.45 0.55-1 0.6-1zm-23.05 5.5c0.2-0.65 0.45-3.4 0.65-6.15l0.25-5-0.6 0.6-0.6 0.55-0.45 2.2c-0.2 1.2-0.4 3.65-0.45 5.55v3.35h0.9zm12.85-3 0.35-3.15-0.35-3.25-0.4-3.25-0.8 1.75-0.8 1.8-0.3 3-0.35 2.95 0.6 2.2 0.55 2.2 1.15-1.15zm47.65 3c0.15-0.65 0.3-3.55 0.3-6.5v-5.4h-1l-0.4 1.15-0.4 1.1 0.2 5.4 0.2 5.35h0.4c0.2 0 0.5-0.5 0.7-1.1zm16.75-4.85-0.05-4.3-0.4-1.25-0.35-1.25-0.6 1.4-0.55 1.4v9.3l0.7 0.7 0.65-0.85 0.65-0.9zm-26.45 4.05c0-0.8 0.15-3.5 0.35-6.05l0.3-4.6-0.8 0.35-0.85 0.3-0.5 1.8-0.5 1.85v5.75l0.6 1c0.35 0.55 0.8 1 1 1h0.4zm18.75-5.15v-5.2h-1.5l-0.15 4.7c-0.05 2.6 0 5.05 0.15 5.45l0.25 0.7 0.65-0.25 0.6-0.2z"/>
  <path d="m225.25 125.2c-0.3-0.1-7.6-0.2-16.25-0.3l-15.75-0.2-0.3-1.45c-0.2-0.85-0.35-3.5-0.4-6-0.05-2.45-0.3-7.15-0.55-10.35l-0.45-5.85-0.55-1-0.55-1.05h-3.5l-0.85 1.9-0.8 1.85-0.05 10.9v10.9l-23.7-0.05h-23.75l-0.25-0.3c-0.15-0.15-0.3-1.7-0.3-3.35 0-1.7-0.05-5.95-0.15-9.45l-0.1-6.4h-2.35l-0.35-2.6c-0.15-1.45-0.3-6.2-0.3-10.55v-7.9l1.1 0.15 1.15 0.15 0.35 2.1c0.45 2.75 1.05 3.85 2.85 5.1l1.45 1.05 74.85 0.2 0.7-0.4 0.65-0.45-0.6-5.3 0.4-0.2 0.35-0.25 2.75 1.1c1.5 0.65 3.15 1.3 3.7 1.5l0.95 0.3-1.9 2.1 0.05 1.85 0.05 1.9 0.9 1.3 0.85 1.3 1.8 0.9 1.85 0.85v8.55l0.05 8.5 0.7 1.45 0.75 1.45 3.5 1.2 0.9 2.5-0.35 1.3-0.3 1.3-3.9-0.05c-2.1-0.05-4.1-0.15-4.35-0.2zm-24.85-21.55c-0.15-3.4-0.4-6.3-0.55-6.45l-0.3-0.3-0.5 0.35-0.55 0.3v9.2l0.55 1.9 0.5 1.9 1.1-0.7zm-53.9 0.35c0-2.7-0.15-5.25-0.3-5.7l-0.3-0.8h-1.4v10.05l0.55 1 0.5 1 0.5-0.3 0.45-0.3zm16.15-0.05 0.35-5.55-0.55-0.95c-0.25-0.5-0.7-0.95-0.95-0.95h-0.5v5.4c0 5.35 0.3 7.6 1 7.6h0.35zm48.7-0.95-0.2-3.25-1.8-4-0.9 6 0.3 3 0.3 2.95 0.55 1.05 0.55 1 0.75-1.75 0.7-1.75zm11.5 1.45-0.3-4.4-1.3-2.3-0.15 3.85-0.15 3.9 0.55 2 0.55 2.05 1.1-0.7zm-49.95 0.15 0.2-3.35-0.7-1.95-0.65-1.95-1.4-0.5 0.3 5.25c0.2 2.9 0.5 5.65 0.65 6.1l0.35 0.85 1.05-1.05zm-18.9-2.4v-4.65l-1.1-0.7-0.9 1.4v4c0 2.2 0.15 4.55 0.35 5.2l0.3 1.2 0.7-0.9 0.65-0.95z"/>
  <path d="m112.25 105.35c-0.1-0.3-0.4-18.8-0.7-41.1l-0.5-40.5 1-4.4 1.05-1.5 1.05-1.45 4.1-1.9h4.4l1.95 0.6 1.95 0.55 1.5 1.9 1.45 1.85 0.45 2.45 0.45 2.4-0.45 30.25c-0.25 16.65-0.5 35-0.6 40.75l-0.1 10.5-8.4 0.1-8.4 0.15zm14.55-79.85-0.3-5-0.6-1c-0.35-0.5-1.15-1.15-1.75-1.45l-1.2-0.55h-4.5l-2.9 1.5-0.5 1.9-0.55 1.85v7.75h12.65z"/>
  <path d="m29.35 91.15c-0.2-0.15-0.35-0.65-0.35-1.1s-0.35-1.45-0.75-2.25c-0.4-0.75-0.75-1.6-0.75-1.85 0-0.2 1.1-1 2.45-1.7l2.45-1.35 1.15-1.55 1.2-1.6-0.05-3.6-0.05-3.65h0.9c0.5 0 1.7-0.45 2.7-1l1.75-1 0.05 0.65c0 0.3 0.1 1.9 0.15 3.45l0.1 2.9 0.4 0.35 0.35 0.4 3.85 0.35c2.1 0.15 5.75 0.35 8.1 0.35l4.25 0.05 2.5-1.3 1.05-1.95 1-2h2.95v8l-0.05 8-0.35 0.9-0.3 0.85h-34.4z"/>
  <path d="m72.85 91.15-0.35-0.3v-2.7c0-1.5-0.25-4.3-0.6-6.25l-0.55-3.5 0.55-0.95c0.35-0.5 0.6-1.4 0.6-1.95v-1h3.45l0.8 1.7 0.85 1.75 2.55 0.5c1.45 0.25 5.2 0.6 8.35 0.75l5.8 0.25 3.15-0.45 3.1-0.45 3.3-2.5 0.65-1.5 0.6-1.5 0.9-0.3 0.85-0.25 0.9 0.3 0.9 0.35-0.35 3.75-0.3 3.75-0.55 0.65-0.55 0.7h-2.7l-1.2 1.2v4.35l-1 1.95-1 2h-27.85z"/>
  <path d="m139.5 89.55-1-2v-4.35l-1.2-1.2h-2.7l-1.1-1.3-0.25-3.5-0.3-3.45 0.45-0.7 0.5-0.7 1.15 0.3 1.2 0.3 0.95 1.8 1 1.8 1.4 1 1.4 1.05 3.05 0.4 3.1 0.45 7.4-0.4 7.45-0.45 1.25-0.8 1.3-0.85 0.45-1.25 0.5-1.2h3.5v2.3l1.05 1.05-0.5 4.2c-0.3 2.3-0.6 5.35-0.65 6.7l-0.15 2.5-14.1 0.15-14.1 0.1z"/>
  <path d="m177.25 91.05c-0.15-0.3-0.4-4.25-0.6-8.75l-0.3-8.25 0.8-0.35 0.85-0.3 2.5 0.6v1.75l0.9 1.05c0.45 0.6 1.35 1.35 1.95 1.65l1.1 0.55h4.4c2.4-0.05 6.05-0.25 8.1-0.45l3.7-0.45 0.45-0.65 0.45-0.7-0.4-4.7 0.35-0.55 0.35-0.6 1.55 0.8c0.85 0.45 2 0.8 2.55 0.8h1.05l-0.3 2.9-0.35 2.95 0.9 1.85 0.9 1.9 1.8 1.1c1 0.65 2.45 1.55 3.2 2l1.4 0.85-0.65 0.8c-0.35 0.45-0.9 1.6-1.15 2.6l-0.55 1.8-17.3 0.15-17.35 0.1z"/>
  <path d="m86.8 77.05-0.3-0.4 0.2-5.8 0.2-5.75 0.55-1c0.3-0.55 0.55-1.6 0.55-2.3v-1.3l1.15-0.25c1.35-0.3 2.4-0.4 3.25-0.3l0.6 0.05v1.6l2.9 2.9h4.7l1.3-1.45c0.75-0.8 1.7-1.9 2.1-2.5l0.75-1.05 1.25-0.1 1.25-0.15-0.15 5.45-0.15 5.5-0.55 0.65-0.5 0.65h-2.35l-0.9 1.3c-0.5 0.7-1.55 2.05-2.35 3l-1.4 1.7h-11.85z"/>
  <path d="m141.2 75.8c-0.8-0.95-1.85-2.3-2.35-3l-0.9-1.3h-2.9l-0.25-0.85c-0.1-0.5-0.35-3.2-0.55-5.95l-0.3-5.1 0.8-0.5 1.35 0.25 1.3 0.25 0.65 1.45 0.6 1.5 1.25 0.95 1.25 1h4.45l2.9-2.9v-1.6h4.5l0.3 1.4c0.15 0.75 0.5 1.9 0.75 2.65l0.5 1.25 0.05 6 0.1 5.95-6.05 0.15-6 0.15z"/>
  <path d="m45.45 76.9c0-0.1-0.1-0.95-0.15-1.9s-0.3-2.75-0.5-4l-0.35-2.25 2.1-1 2.15-1 0.95-1.9 1-1.9-3.3-3.4 0.7-0.25c0.4-0.15 2.15-0.75 3.9-1.3l3.2-1.05 0.4 0.65 0.45 0.65v4.3l0.5 1 0.55 0.95h13.2l3.3-2 1.7-3h3.75v4.05l0.75 1.5 0.8 1.45-0.15 4.65-0.15 4.6-1.7-3.1-2.05-0.35-2-0.3-0.8-2-0.8-1.95-1.55-0.5-1.6-0.5-1.9 0.4-1.9 0.45-0.95 0.85-0.9 0.8-0.3 1.25-0.3 1.2h-3.55l-0.95 0.5-0.9 0.5-0.7 4h-5.95c-3.25 0-5.95-0.05-6-0.1z"/>
  <path d="m184.15 76.7-0.65-0.3v-3.35l-0.6-0.4c-0.35-0.2-1.65-0.5-2.9-0.65l-2.25-0.25-0.15-1.05-0.15-1.1-0.95-0.85-0.95-0.9-1.9-0.3-1.9-0.35-3.1 0.8-0.55 1.25c-0.35 0.7-0.6 1.6-0.6 2v0.7l-2.15 0.3-2.15 0.35-0.95 1.55-1 1.6-0.15-4.7-0.15-4.65 0.8-1.2 0.75-1.15v-4.55h3.1l2.15 2.4 2.15 2.35 6.95 0.15 7 0.15 0.85-0.8 0.8-0.8v-5.4l1-0.6 2.6 0.85c1.45 0.45 3.2 1.05 3.85 1.3l1.2 0.45-3.3 3.4 1 1.9 0.95 1.9 2.1 1 2.05 1 0.3 0.7 0.25 0.7-0.45 0.55-0.5 0.6-0.15 2.75-0.2 2.7-5.7 0.1c-3.15 0.05-6.05-0.05-6.35-0.15z"/>
  <path d="m60 62-0.4-0.75 1.3-6.3 0.6-0.7 0.6-0.75h1.75l1.7-1.9 0.25-1.7 0.3-1.7-1.25-0.85-1.25-0.8 0.5-2 2.65-0.8 2.65-0.85 1.3 0.4-0.15 3.1-0.1 3.05 1.7 0.3 1.7 0.35 7.05-0.2 7.1-0.15 1.05-1.05 1.05-1.1 0.35-1.65 0.35-1.7 1.45 0.1c0.75 0.05 1.6 0.3 1.8 0.5l0.4 0.4 0.1 2c0.05 1.1 0.15 2.4 0.3 2.9l0.2 0.85h1.45v10.5h-1.05l-1.7-3h-4.65l-0.3-0.8c-0.15-0.45-0.3-1.2-0.3-1.7v-0.95l-1.1-0.6-1.15-0.65-1.7 0.15-1.7 0.1-1.4 0.7c-0.75 0.4-1.7 1.2-2.05 1.7l-0.7 1-2.5 0.15-2.45 0.15-1 2.1-0.95 2.15-1.55 0.25c-0.8 0.1-3.4 0.3-5.65 0.35l-4.2 0.15z"/>
  <path d="m174.8 62.55-4.95-0.3-0.2-0.5c-0.1-0.3-0.6-1.3-1.05-2.25l-0.85-1.75-4.3-0.3-2.25-1.75-2.3-1.7h-4.35l-0.7 0.75-0.75 0.75-0.7 3h-4.8l-0.7 1.5-0.65 1.5h-1.5v-9.4l0.9-1 0.85-0.95v-3.95l0.65-0.85 0.6-0.9 1.45-0.1 1.5-0.1 0.35 1.7 0.35 1.65 1.05 1.1 1.1 1.05 16 0.3 0.8-0.6 0.75-0.65-0.3-2.65-0.3-2.7 1.4-0.5 5.5 1.6 0.3 0.7 0.25 0.75-0.5 1.4-1.05 0.25-1.05 0.3 0.3 1.85 0.3 1.8 1.6 1.8 1.35 0.25 1.4 0.3 0.65 3.75 0.7 3.75-0.3 0.8-0.3 0.75-0.65-0.1c-0.35-0.05-2.9-0.2-5.6-0.35z"/>
  <path d="m102 54.75v-3.7l2-1.9 1.3-4.4 0.7-0.1c0.4-0.1 1 0 1.25 0.25l0.5 0.35-0.15 6.15-0.2 6.1h-3.85l-0.3 0.5c-0.15 0.3-0.5 0.5-0.8 0.5h-0.45z"/>
  <path d="m138.25 58.05-0.5-0.5-3.5-0.3-0.35-5.95-0.4-6 0.65-0.4c0.3-0.2 0.95-0.4 1.45-0.4h0.8l0.35 2.1 0.35 2.05 2.4 2.4v7.45h-0.4c-0.2 0-0.6-0.2-0.85-0.45z"/>
  <path d="m78.15 47.65-1.65-0.2v-2.9l-2-1.1v-1.15l2.15-1.9c1.15-1.05 2.4-2.15 2.75-2.45l0.6-0.5v-3.45l-2.5-1v-1.9l1.5-0.6 1.45-0.6 0.3-0.85 0.25-0.85 11.4-0.65c6.25-0.4 12.15-0.7 13.1-0.75l1.75-0.05 0.8 8-0.25 3.2-0.3 3.25-0.35 0.3-0.4 0.35-1.8-0.2-1.85-0.25-1.1-2.4-1.35-0.55-1.35-0.5-4.2 1.6-0.55 1.5-0.5 1.45h-4.45l-0.3 0.8c-0.15 0.45-0.3 1.4-0.3 2.15v1.35l-1.2 1.2-4-0.1c-2.25 0-4.8-0.15-5.65-0.25z"/>
  <path d="m153.15 47.65-0.65-0.25v-1.65c0-0.9-0.15-2-0.3-2.45l-0.3-0.8h-4.45l-0.3-0.85c-0.15-0.5-0.65-1.3-1.05-1.8l-0.75-0.85-1.95-0.5-1.9-0.55-1 0.55-1.05 0.55-0.45 1.15-0.45 1.2-2.05 0.2-2.1 0.2-0.5-1.3-0.5-1.25 0.3-6 0.35-6 0.7-0.6 9.25 0.65c5.1 0.35 10.85 0.65 12.8 0.65l3.6 0.05 0.6 1.5 1.75 1.05 1.8 1.05-0.2 0.6c-0.1 0.3-0.8 0.85-1.5 1.2l-1.35 0.65v3.9l1.1 0.6c1.5 0.8 4.4 3.7 4.4 4.35v0.55l-2 1.1v2.8l-1.85 0.35c-2.2 0.35-9.1 0.35-10-0.05z"/>
  <path d="m80.8 25.65-0.3-0.75-6 0.4 1.15-1.2c0.6-0.7 2-1.9 3.05-2.65l1.95-1.45h1.6c0.85 0 2.8-0.35 4.3-0.8l2.7-0.8 4.75-2.7c4.05-2.3 7.3-3.8 14.45-6.75 1.5-0.6 1.15-0.95-1.15-1.15l-1.8-0.1-1.15-1.15 0.3-0.7 0.25-0.7 1.2-0.3c0.65-0.1 2.95-0.6 5.15-1.05l4-0.8h11l4 0.8c2.2 0.45 4.5 0.95 5.15 1.05l1.2 0.3 0.25 0.75 0.3 0.75-1.9 1.4-2-0.5-0.75 0.45-0.7 0.45 1.25 0.5c6.6 2.75 10.4 4.5 14.2 6.65 2.45 1.4 5.7 2.95 7.2 3.45l2.7 0.95h3.7l1.95 1.45c1.05 0.75 2.5 2 3.1 2.7l1.2 1.25-3.05-0.25-3.05-0.3-0.3 0.8-0.3 0.75-1.55-0.2c-0.9-0.15-6.75-0.4-13.1-0.6l-11.5-0.35-0.6-5.5-1.6-3.1-4-3.6-2.85-0.85-2.9-0.8-6 0.6-2.1 1c-2.45 1.2-4.45 3.05-5.6 5.25l-0.8 1.5-0.3 2.75-0.25 2.75-11.75 0.35c-6.45 0.2-12.35 0.45-13.1 0.6l-1.3 0.25z"/>
 </g>
</svg>
