<?xml version="1.0" encoding="UTF-8"?>
<svg width="3948px" height="348px" version="1.0" viewBox="0 0 3948 348" xmlns="http://www.w3.org/2000/svg" xmlns:cc="http://creativecommons.org/ns#" xmlns:dc="http://purl.org/dc/elements/1.1/" xmlns:rdf="http://www.w3.org/1999/02/22-rdf-syntax-ns#">
 <title>Velothi Pattern</title>
 <metadata>
  <rdf:RDF>
   <cc:Work rdf:about="">
    <dc:format>image/svg+xml</dc:format>
    <dc:type rdf:resource="http://purl.org/dc/dcmitype/StillImage"/>
    <cc:license rdf:resource=""/>
    <dc:title>Velothi Pattern</dc:title>
    <dc:creator>
     <cc:Agent>
      <dc:title>Lukkar</dc:title>
     </cc:Agent>
    </dc:creator>
    <dc:date>2015-06-10</dc:date>
   </cc:Work>
  </rdf:RDF>
 </metadata>
 <g>
  <path d="m0 335.5v-12.5h1974 1974v12.5 12.5h-1974-1974v-12.5z"/>
  <path d="m524.7 301.3c-0.4-0.3-0.7-2.1-0.7-3.8 0-2.3 0.6-3.5 2.3-4.2 3.7-1.8 12.9-10.2 18-16.6 8.6-10.7 13.9-23.5 13.6-33-0.2-4.7 0.2-6.2 1.8-7.9 2.7-2.7 4.5-1.7 15 8.4 10.6 10 19.2 15.6 37.6 24.3 16.8 7.9 16.8 8.2 1.2 9.2-9.7 0.6-22.9-1.5-35.1-5.7-3.1-1.1-6.3-2-7-2s-2.8 2.8-4.6 6.3c-4.8 9.2-16.7 20.8-24.1 23.5-5.5 2.1-16.5 3-18 1.5z"/>
  <path d="m1182.7 301.3c-0.4-0.3-0.7-2.1-0.7-3.8 0-2.3 0.6-3.5 2.3-4.2 3.7-1.8 12.9-10.2 18-16.6 8.6-10.7 13.9-23.5 13.6-33-0.2-4.7 0.2-6.2 1.8-7.9 2.7-2.7 4.5-1.7 15 8.4 10.6 10 19.2 15.6 37.6 24.3 16.8 7.9 16.8 8.2 1.2 9.2-9.7 0.6-22.9-1.5-35.1-5.7-3.1-1.1-6.3-2-7-2s-2.8 2.8-4.6 6.3c-4.8 9.2-16.7 20.8-24.1 23.5-5.5 2.1-16.5 3-18 1.5z"/>
  <path d="m1840.7 301.3c-0.4-0.3-0.7-2.1-0.7-3.8 0-2.3 0.6-3.5 2.3-4.2 3.7-1.8 12.9-10.2 18-16.6 8.6-10.7 13.9-23.5 13.6-33-0.2-4.7 0.2-6.2 1.8-7.9 2.7-2.7 4.5-1.7 15 8.4 10.6 10 19.2 15.6 37.6 24.3 16.8 7.9 16.8 8.2 1.2 9.2-9.7 0.6-22.9-1.5-35.1-5.7-3.1-1.1-6.3-2-7-2s-2.8 2.8-4.6 6.3c-4.8 9.2-16.7 20.8-24.1 23.5-5.5 2.1-16.5 3-18 1.5z"/>
  <path d="m2498.7 301.3c-0.4-0.3-0.7-2.1-0.7-3.8 0-2.3 0.6-3.5 2.3-4.2 3.7-1.8 12.9-10.2 18-16.6 8.6-10.7 13.9-23.5 13.6-33-0.2-4.7 0.2-6.2 1.8-7.9 2.7-2.7 4.5-1.7 15 8.4 10.6 10 19.2 15.6 37.6 24.3 16.8 7.9 16.8 8.2 1.2 9.2-9.7 0.6-22.9-1.5-35.1-5.7-3.1-1.1-6.3-2-7-2s-2.8 2.8-4.6 6.3c-4.8 9.2-16.7 20.8-24.1 23.5-5.5 2.1-16.5 3-18 1.5z"/>
  <path d="m3156.7 301.3c-0.4-0.3-0.7-2.1-0.7-3.8 0-2.3 0.6-3.5 2.3-4.2 3.7-1.8 12.9-10.2 18-16.6 8.6-10.7 13.9-23.5 13.6-33-0.2-4.7 0.2-6.2 1.8-7.9 2.7-2.7 4.5-1.7 15 8.4 10.6 10 19.2 15.6 37.6 24.3 16.8 7.9 16.8 8.2 1.2 9.2-9.7 0.6-22.9-1.5-35.1-5.7-3.1-1.1-6.3-2-7-2s-2.8 2.8-4.6 6.3c-4.8 9.2-16.7 20.8-24.1 23.5-5.5 2.1-16.5 3-18 1.5z"/>
  <path d="m3814.7 301.3c-0.4-0.3-0.7-2.1-0.7-3.8 0-2.3 0.6-3.5 2.3-4.2 3.7-1.8 12.9-10.2 18-16.6 8.6-10.7 13.9-23.5 13.6-33-0.2-4.7 0.2-6.2 1.8-7.9 2.7-2.7 4.5-1.7 15 8.4 10.6 10 19.2 15.6 37.6 24.3 16.8 7.9 16.8 8.2 1.2 9.2-9.7 0.6-22.9-1.5-35.1-5.7-3.1-1.1-6.3-2-7-2s-2.8 2.8-4.6 6.3c-4.8 9.2-16.7 20.8-24.1 23.5-5.5 2.1-16.5 3-18 1.5z"/>
  <path d="m300.5 299.9c-19.5-1.9-31-5.1-55-15.4-9.3-4-19.3-8-22.1-8.8-8-2.4-14.6-6.1-24.1-13.8-4.8-3.9-12.8-9.9-17.8-13.2-4.9-3.3-11.5-8.7-14.5-12s-8.1-8.7-11.4-12.1c-4.4-4.5-7.2-8.9-11.2-17.1-6.8-14.1-10.1-25.8-11.5-40.6-1-9.9-0.9-13.3 0.5-21.3 4.2-25.4 24.4-58.7 44.9-74.2 7-5.3 19.7-11.5 27.2-13.4 8.1-1.9 22.2-2.9 28.1-2 7.2 1.2 17.4 6.3 23.5 11.8 5.4 4.8 5.9 6.7 2.9 10-2.5 2.6-1.6 2.5-8.7 0.7-11.8-3.1-18-3.7-22-2-7.2 3-21 13.1-29.4 21.5-7.5 7.5-9.3 10-13.7 19.1-5.7 11.8-7.7 18.9-9.3 33.9-4 36.7 6.6 69.7 27.9 86.5 11.4 9.1 40.9 28.2 52.2 33.7 13.1 6.4 27.8 11.7 39.5 14.3 4.4 1 8.8 2.2 9.7 2.7 3.7 1.8 18 2.5 23.1 1 3.6-1 5.2-1.1 6-0.3 0.6 0.6 1.8 1.1 2.7 1.1 2.2 0 4.2 4 3.8 7.6l-0.3 2.9-16 0.1c-8.8 0.1-20-0.2-25-0.7z"/>
  <path d="m958.5 299.9c-19.5-1.9-31-5.1-55-15.4-9.3-4-19.3-8-22.1-8.8-8-2.4-14.6-6.1-24.1-13.8-4.8-3.9-12.8-9.9-17.8-13.2-4.9-3.3-11.5-8.7-14.5-12s-8.1-8.7-11.4-12.1c-4.4-4.5-7.2-8.9-11.2-17.1-6.8-14.1-10.1-25.8-11.5-40.6-1-9.9-0.9-13.3 0.5-21.3 4.2-25.4 24.4-58.7 44.9-74.2 7-5.3 19.7-11.5 27.2-13.4 8.1-1.9 22.2-2.9 28.1-2 7.2 1.2 17.4 6.3 23.5 11.8 5.4 4.8 5.9 6.7 2.9 10-2.5 2.6-1.6 2.5-8.7 0.7-11.8-3.1-18-3.7-22-2-7.2 3-21 13.1-29.4 21.5-7.5 7.5-9.3 10-13.7 19.1-5.7 11.8-7.7 18.9-9.3 33.9-4 36.7 6.6 69.7 27.9 86.5 11.4 9.1 40.9 28.2 52.2 33.7 13.1 6.4 27.8 11.7 39.5 14.3 4.4 1 8.8 2.2 9.7 2.7 3.7 1.8 18 2.5 23.1 1 3.6-1 5.2-1.1 6-0.3 0.6 0.6 1.8 1.1 2.7 1.1 2.2 0 4.2 4 3.8 7.6l-0.3 2.9-16 0.1c-8.8 0.1-20-0.2-25-0.7z"/>
  <path d="m1616.5 299.9c-19.5-1.9-31-5.1-55-15.4-9.3-4-19.3-8-22.1-8.8-8-2.4-14.6-6.1-24.1-13.8-4.8-3.9-12.8-9.9-17.8-13.2-4.9-3.3-11.5-8.7-14.5-12s-8.1-8.7-11.4-12.1c-4.4-4.5-7.2-8.9-11.2-17.1-6.8-14.1-10.1-25.8-11.5-40.6-1-9.9-0.9-13.3 0.5-21.3 4.2-25.4 24.4-58.7 44.9-74.2 7-5.3 19.7-11.5 27.2-13.4 8.1-1.9 22.2-2.9 28.1-2 7.2 1.2 17.4 6.3 23.5 11.8 5.4 4.8 5.9 6.7 2.9 10-2.5 2.6-1.6 2.5-8.7 0.7-11.8-3.1-18-3.7-22-2-7.2 3-21 13.1-29.4 21.5-7.5 7.5-9.3 10-13.7 19.1-5.7 11.8-7.7 18.9-9.3 33.9-4 36.7 6.6 69.7 27.9 86.5 11.4 9.1 40.9 28.2 52.2 33.7 13.1 6.4 27.8 11.7 39.5 14.3 4.4 1 8.8 2.2 9.7 2.7 3.7 1.8 18 2.5 23.1 1 3.6-1 5.2-1.1 6-0.3 0.6 0.6 1.8 1.1 2.7 1.1 2.2 0 4.2 4 3.8 7.6l-0.3 2.9-16 0.1c-8.8 0.1-20-0.2-25-0.7z"/>
  <path d="m2274.5 299.9c-19.5-1.9-31-5.1-55-15.4-9.3-4-19.3-8-22.1-8.8-8-2.4-14.6-6.1-24.1-13.8-4.8-3.9-12.8-9.9-17.8-13.2-4.9-3.3-11.5-8.7-14.5-12s-8.1-8.7-11.4-12.1c-4.4-4.5-7.2-8.9-11.2-17.1-6.8-14.1-10.1-25.8-11.5-40.6-1-9.9-0.9-13.3 0.5-21.3 4.2-25.4 24.4-58.7 44.9-74.2 7-5.3 19.7-11.5 27.2-13.4 8.1-1.9 22.2-2.9 28.1-2 7.2 1.2 17.4 6.3 23.5 11.8 5.4 4.8 5.9 6.7 2.9 10-2.5 2.6-1.6 2.5-8.7 0.7-11.8-3.1-18-3.7-22-2-7.2 3-21 13.1-29.4 21.5-7.5 7.5-9.3 10-13.7 19.1-5.7 11.8-7.7 18.9-9.3 33.9-4 36.7 6.6 69.7 27.9 86.5 11.4 9.1 40.9 28.2 52.2 33.7 13.1 6.4 27.8 11.7 39.5 14.3 4.4 1 8.8 2.2 9.7 2.7 3.7 1.8 18 2.5 23.1 1 3.6-1 5.2-1.1 6-0.3 0.6 0.6 1.8 1.1 2.7 1.1 2.2 0 4.2 4 3.8 7.6l-0.3 2.9-16 0.1c-8.8 0.1-20-0.2-25-0.7z"/>
  <path d="m2932.5 299.9c-19.5-1.9-31-5.1-55-15.4-9.3-4-19.3-8-22.1-8.8-8-2.4-14.6-6.1-24.1-13.8-4.8-3.9-12.8-9.9-17.8-13.2-4.9-3.3-11.5-8.7-14.5-12s-8.1-8.7-11.4-12.1c-4.4-4.5-7.2-8.9-11.2-17.1-6.8-14.1-10.1-25.8-11.5-40.6-1-9.9-0.9-13.3 0.5-21.3 4.2-25.4 24.4-58.7 44.9-74.2 7-5.3 19.7-11.5 27.2-13.4 8.1-1.9 22.2-2.9 28.1-2 7.2 1.2 17.4 6.3 23.5 11.8 5.4 4.8 5.9 6.7 2.9 10-2.5 2.6-1.6 2.5-8.7 0.7-11.8-3.1-18-3.7-22-2-7.2 3-21 13.1-29.4 21.5-7.5 7.5-9.3 10-13.7 19.1-5.7 11.8-7.7 18.9-9.3 33.9-4 36.7 6.6 69.7 27.9 86.5 11.4 9.1 40.9 28.2 52.2 33.7 13.1 6.4 27.8 11.7 39.5 14.3 4.4 1 8.8 2.2 9.7 2.7 3.7 1.8 18 2.5 23.1 1 3.6-1 5.2-1.1 6-0.3 0.6 0.6 1.8 1.1 2.7 1.1 2.2 0 4.2 4 3.8 7.6l-0.3 2.9-16 0.1c-8.8 0.1-20-0.2-25-0.7z"/>
  <path d="m3590.5 299.9c-19.5-1.9-31-5.1-55-15.4-9.3-4-19.3-8-22.1-8.8-8-2.4-14.6-6.1-24.1-13.8-4.8-3.9-12.8-9.9-17.8-13.2-4.9-3.3-11.5-8.7-14.5-12s-8.1-8.7-11.4-12.1c-4.4-4.5-7.2-8.9-11.2-17.1-6.8-14.1-10.1-25.8-11.5-40.6-1-9.9-0.9-13.3 0.5-21.3 4.2-25.4 24.4-58.7 44.9-74.2 7-5.3 19.7-11.5 27.2-13.4 8.1-1.9 22.2-2.9 28.1-2 7.2 1.2 17.4 6.3 23.5 11.8 5.4 4.8 5.9 6.7 2.9 10-2.5 2.6-1.6 2.5-8.7 0.7-11.8-3.1-18-3.7-22-2-7.2 3-21 13.1-29.4 21.5-7.5 7.5-9.3 10-13.7 19.1-5.7 11.8-7.7 18.9-9.3 33.9-4 36.7 6.6 69.7 27.9 86.5 11.4 9.1 40.9 28.2 52.2 33.7 13.1 6.4 27.8 11.7 39.5 14.3 4.4 1 8.8 2.2 9.7 2.7 3.7 1.8 18 2.5 23.1 1 3.6-1 5.2-1.1 6-0.3 0.6 0.6 1.8 1.1 2.7 1.1 2.2 0 4.2 4 3.8 7.6l-0.3 2.9-16 0.1c-8.8 0.1-20-0.2-25-0.7z"/>
  <path d="m431 298.3c-17.3-1.8-24.3-4.4-31.6-12-4.9-5-5.3-6.9-2.4-10.6l2-2.5 8.2 3.5c9.9 4.2 14.8 4 24.3-0.9 24.4-12.6 38.3-30.3 46.5-59.3 2.8-10.2 3-11.8 3-28.8 0-17.8 0-18-3.4-28.2-7.3-21.6-14.4-32.4-30.5-45.7-21.1-17.4-47.3-32.1-70.7-39.6-34-10.9-32-10.4-43.7-9.1l-10.6 1.2-3.6-2.7c-3.1-2.4-3.6-3.3-3.3-6.4l0.3-3.7 17.7-0.3c17.1-0.2 18.3-0.1 34.4 3.3 25.7 5.6 39.5 9.9 52.9 16.5 6.6 3.3 14 6.6 16.4 7.5 5.5 1.9 12.4 6.1 22.1 13.5 4.1 3.1 10.9 7.9 15.1 10.8 4.7 3.1 12.3 10 19.8 17.9 11.3 11.8 12.7 13.7 17.6 23.8 8.9 18.5 12.5 31.9 12.5 46.4 0 29.3-14.1 62.2-34.9 81.4-7.8 7.1-15.3 12.3-25.6 17.5-13.2 6.6-19.5 7.9-32.5 6.5z"/>
  <path d="m1089 298.3c-17.3-1.8-24.3-4.4-31.6-12-4.9-5-5.3-6.9-2.4-10.6l2-2.5 8.2 3.5c9.9 4.2 14.8 4 24.3-0.9 24.4-12.6 38.3-30.3 46.5-59.3 2.8-10.2 3-11.8 3-28.8 0-17.8 0-18-3.4-28.2-7.3-21.6-14.4-32.4-30.5-45.7-21.1-17.4-47.3-32.1-70.7-39.6-34-10.9-32-10.4-43.7-9.1l-10.6 1.2-3.6-2.7c-3.1-2.4-3.6-3.3-3.3-6.4l0.3-3.7 17.7-0.3c17.1-0.2 18.3-0.1 34.4 3.3 25.7 5.6 39.5 9.9 52.9 16.5 6.6 3.3 14 6.6 16.4 7.5 5.5 1.9 12.4 6.1 22.1 13.5 4.1 3.1 10.9 7.9 15.1 10.8 4.7 3.1 12.3 10 19.8 17.9 11.3 11.8 12.7 13.7 17.6 23.8 8.9 18.5 12.5 31.9 12.5 46.4 0 29.3-14.1 62.2-34.9 81.4-7.8 7.1-15.3 12.3-25.6 17.5-13.2 6.6-19.5 7.9-32.5 6.5z"/>
  <path d="m1747 298.3c-17.3-1.8-24.3-4.4-31.6-12-4.9-5-5.3-6.9-2.4-10.6l2-2.5 8.2 3.5c9.9 4.2 14.8 4 24.3-0.9 24.4-12.6 38.3-30.3 46.5-59.3 2.8-10.2 3-11.8 3-28.8 0-17.8 0-18-3.4-28.2-7.3-21.6-14.4-32.4-30.5-45.7-21.1-17.4-47.3-32.1-70.7-39.6-34-10.9-32-10.4-43.7-9.1l-10.6 1.2-3.6-2.7c-3.1-2.4-3.6-3.3-3.3-6.4l0.3-3.7 17.7-0.3c17.1-0.2 18.3-0.1 34.4 3.3 25.7 5.6 39.5 9.9 52.9 16.5 6.6 3.3 14 6.6 16.4 7.5 5.5 1.9 12.4 6.1 22.1 13.5 4.1 3.1 10.9 7.9 15.1 10.8 4.7 3.1 12.3 10 19.8 17.9 11.3 11.8 12.7 13.7 17.6 23.8 8.9 18.5 12.5 31.9 12.5 46.4 0 29.3-14.1 62.2-34.9 81.4-7.8 7.1-15.3 12.3-25.6 17.5-13.2 6.6-19.5 7.9-32.5 6.5z"/>
  <path d="m2405 298.3c-17.3-1.8-24.3-4.4-31.6-12-4.9-5-5.3-6.9-2.4-10.6l2-2.5 8.2 3.5c9.9 4.2 14.8 4 24.3-0.9 24.4-12.6 38.3-30.3 46.5-59.3 2.8-10.2 3-11.8 3-28.8 0-17.8 0-18-3.4-28.2-7.3-21.6-14.4-32.4-30.5-45.7-21.1-17.4-47.3-32.1-70.7-39.6-34-10.9-32-10.4-43.7-9.1l-10.6 1.2-3.6-2.7c-3.1-2.4-3.6-3.3-3.3-6.4l0.3-3.7 17.7-0.3c17.1-0.2 18.3-0.1 34.4 3.3 25.7 5.6 39.5 9.9 52.9 16.5 6.6 3.3 14 6.6 16.4 7.5 5.5 1.9 12.4 6.1 22.1 13.5 4.1 3.1 10.9 7.9 15.1 10.8 4.7 3.1 12.3 10 19.8 17.9 11.3 11.8 12.7 13.7 17.6 23.8 8.9 18.5 12.5 31.9 12.5 46.4 0 29.3-14.1 62.2-34.9 81.4-7.8 7.1-15.3 12.3-25.6 17.5-13.2 6.6-19.5 7.9-32.5 6.5z"/>
  <path d="m3063 298.3c-17.3-1.8-24.3-4.4-31.6-12-4.9-5-5.3-6.9-2.4-10.6l2-2.5 8.2 3.5c9.9 4.2 14.8 4 24.3-0.9 24.4-12.6 38.3-30.3 46.5-59.3 2.8-10.2 3-11.8 3-28.8 0-17.8 0-18-3.4-28.2-7.3-21.6-14.4-32.4-30.5-45.7-21.1-17.4-47.3-32.1-70.7-39.6-34-10.9-32-10.4-43.7-9.1l-10.6 1.2-3.6-2.7c-3.1-2.4-3.6-3.3-3.3-6.4l0.3-3.7 17.7-0.3c17.1-0.2 18.3-0.1 34.4 3.3 25.7 5.6 39.5 9.9 52.9 16.5 6.6 3.3 14 6.6 16.4 7.5 5.5 1.9 12.4 6.1 22.1 13.5 4.1 3.1 10.9 7.9 15.1 10.8 4.7 3.1 12.3 10 19.8 17.9 11.3 11.8 12.7 13.7 17.6 23.8 8.9 18.5 12.5 31.9 12.5 46.4 0 29.3-14.1 62.2-34.9 81.4-7.8 7.1-15.3 12.3-25.6 17.5-13.2 6.6-19.5 7.9-32.5 6.5z"/>
  <path d="m3721 298.3c-17.3-1.8-24.3-4.4-31.6-12-4.9-5-5.3-6.9-2.4-10.6l2-2.5 8.2 3.5c9.9 4.2 14.8 4 24.3-0.9 24.4-12.6 38.3-30.3 46.5-59.3 2.8-10.2 3-11.8 3-28.8 0-17.8 0-18-3.4-28.2-7.3-21.6-14.4-32.4-30.5-45.7-21.1-17.4-47.3-32.1-70.7-39.6-34-10.9-32-10.4-43.7-9.1l-10.6 1.2-3.6-2.7c-3.1-2.4-3.6-3.3-3.3-6.4l0.3-3.7 17.7-0.3c17.1-0.2 18.3-0.1 34.4 3.3 25.7 5.6 39.5 9.9 52.9 16.5 6.6 3.3 14 6.6 16.4 7.5 5.5 1.9 12.4 6.1 22.1 13.5 4.1 3.1 10.9 7.9 15.1 10.8 4.7 3.1 12.3 10 19.8 17.9 11.3 11.8 12.7 13.7 17.6 23.8 8.9 18.5 12.5 31.9 12.5 46.4 0 29.3-14.1 62.2-34.9 81.4-7.8 7.1-15.3 12.3-25.6 17.5-13.2 6.6-19.5 7.9-32.5 6.5z"/>
  <path d="m147 284.2c-30.4-10.2-35.8-12.7-57-26.7-26.5-17.4-34-25.1-34-34.8 0-2.8 1.3-9.2 3.1-14.6 4.3-13.6 5.1-28 2-37.4-1.3-3.7-4.2-9.3-6.6-12.6-4.8-6.6-17.9-17.8-27.2-23.4-10.2-6.2-14-15.5-8-20l2.7-2.1 6.9 2.2c9.2 3 17 7.2 25.9 13.9 13.9 10.6 29.2 29.5 34.1 42.2 2.3 5.9 2.5 8.1 2.5 19.6 0 7.2-0.5 14.8-1.2 17-2.6 9.1 4.1 27 13.7 36.5 11.5 11.4 35.1 24.9 63.1 36 8.5 3.4 16.1 6.9 16.8 7.8 1.8 2.4-0.6 4.3-5.9 4.8-3.5 0.4-9.6-1.3-30.9-8.4z"/>
  <path d="m805 284.2c-30.4-10.2-35.8-12.7-57-26.7-26.5-17.4-34-25.1-34-34.8 0-2.8 1.3-9.2 3.1-14.6 4.3-13.6 5.1-28 2-37.4-1.3-3.7-4.2-9.3-6.6-12.6-4.8-6.6-17.9-17.8-27.2-23.4-10.2-6.2-14-15.5-8-20l2.7-2.1 6.9 2.2c9.2 3 17 7.2 25.9 13.9 13.9 10.6 29.2 29.5 34.1 42.2 2.3 5.9 2.5 8.1 2.5 19.6 0 7.2-0.5 14.8-1.2 17-2.6 9.1 4.1 27 13.7 36.5 11.5 11.4 35.1 24.9 63.1 36 8.5 3.4 16.1 6.9 16.8 7.8 1.8 2.4-0.6 4.3-5.9 4.8-3.5 0.4-9.6-1.3-30.9-8.4z"/>
  <path d="m1463 284.2c-30.4-10.2-35.8-12.7-57-26.7-26.5-17.4-34-25.1-34-34.8 0-2.8 1.3-9.2 3.1-14.6 4.3-13.6 5.1-28 2-37.4-1.3-3.7-4.2-9.3-6.6-12.6-4.8-6.6-17.9-17.8-27.2-23.4-10.2-6.2-14-15.5-8-20l2.7-2.1 6.9 2.2c9.2 3 17 7.2 25.9 13.9 13.9 10.6 29.2 29.5 34.1 42.2 2.3 5.9 2.5 8.1 2.5 19.6 0 7.2-0.5 14.8-1.2 17-2.6 9.1 4.1 27 13.7 36.5 11.5 11.4 35.1 24.9 63.1 36 8.5 3.4 16.1 6.9 16.8 7.8 1.8 2.4-0.6 4.3-5.9 4.8-3.5 0.4-9.6-1.3-30.9-8.4z"/>
  <path d="m2121 284.2c-30.4-10.2-35.8-12.7-57-26.7-26.5-17.4-34-25.1-34-34.8 0-2.8 1.3-9.2 3.1-14.6 4.3-13.6 5.1-28 2-37.4-1.3-3.7-4.2-9.3-6.6-12.6-4.8-6.6-17.9-17.8-27.2-23.4-10.2-6.2-14-15.5-8-20l2.7-2.1 6.9 2.2c9.2 3 17 7.2 25.9 13.9 13.9 10.6 29.2 29.5 34.1 42.2 2.3 5.9 2.5 8.1 2.5 19.6 0 7.2-0.5 14.8-1.2 17-2.6 9.1 4.1 27 13.7 36.5 11.5 11.4 35.1 24.9 63.1 36 8.5 3.4 16.1 6.9 16.8 7.8 1.8 2.4-0.6 4.3-5.9 4.8-3.5 0.4-9.6-1.3-30.9-8.4z"/>
  <path d="m2779 284.2c-30.4-10.2-35.8-12.7-57-26.7-26.5-17.4-34-25.1-34-34.8 0-2.8 1.3-9.2 3.1-14.6 4.3-13.6 5.1-28 2-37.4-1.3-3.7-4.2-9.3-6.6-12.6-4.8-6.6-17.9-17.8-27.2-23.4-10.2-6.2-14-15.5-8-20l2.7-2.1 6.9 2.2c9.2 3 17 7.2 25.9 13.9 13.9 10.6 29.2 29.5 34.1 42.2 2.3 5.9 2.5 8.1 2.5 19.6 0 7.2-0.5 14.8-1.2 17-2.6 9.1 4.1 27 13.7 36.5 11.5 11.4 35.1 24.9 63.1 36 8.5 3.4 16.1 6.9 16.8 7.8 1.8 2.4-0.6 4.3-5.9 4.8-3.5 0.4-9.6-1.3-30.9-8.4z"/>
  <path d="m3437 284.2c-30.4-10.2-35.8-12.7-57-26.7-26.5-17.4-34-25.1-34-34.8 0-2.8 1.3-9.2 3.1-14.6 4.3-13.6 5.1-28 2-37.4-1.3-3.7-4.2-9.3-6.6-12.6-4.8-6.6-17.9-17.8-27.2-23.4-10.2-6.2-14-15.5-8-20l2.7-2.1 6.9 2.2c9.2 3 17 7.2 25.9 13.9 13.9 10.6 29.2 29.5 34.1 42.2 2.3 5.9 2.5 8.1 2.5 19.6 0 7.2-0.5 14.8-1.2 17-2.6 9.1 4.1 27 13.7 36.5 11.5 11.4 35.1 24.9 63.1 36 8.5 3.4 16.1 6.9 16.8 7.8 1.8 2.4-0.6 4.3-5.9 4.8-3.5 0.4-9.6-1.3-30.9-8.4z"/>
  <path d="m35.2 265.7c-4.8-1.5-11.9-8.2-14.8-13.9-3.2-6.3-6.4-18.7-6.4-24.8 0-2.6 0.7-6.7 1.5-9 1.9-5.3 1.9-10.8 0-18.8-1.7-7.2-4.4-12.9-7.4-15.6-1.4-1.3-2.1-3.1-2.1-5.6 0-3.2 0.4-3.7 3.3-4.8 6.3-2.3 8.2-1.6 13.7 4.6 7.8 8.7 10.3 14.6 10.2 24 0 5.6-0.7 9.7-2.6 15.1-3.3 9.5-3.6 20.3-0.6 26 2.4 4.7 8.3 9.9 17.3 15.3 6.9 4.2 8.1 6 4.8 7.8-2.5 1.3-12.5 1.1-16.9-0.3z"/>
  <path d="m693.2 265.7c-4.8-1.5-11.9-8.2-14.8-13.9-3.2-6.3-6.4-18.7-6.4-24.8 0-2.6 0.7-6.7 1.5-9 1.9-5.3 1.9-10.8 0-18.8-1.7-7.2-4.4-12.9-7.4-15.6-1.4-1.3-2.1-3.1-2.1-5.6 0-3.2 0.4-3.7 3.3-4.8 6.3-2.3 8.2-1.6 13.7 4.6 7.8 8.7 10.3 14.6 10.2 24 0 5.6-0.7 9.7-2.6 15.1-3.3 9.5-3.6 20.3-0.6 26 2.4 4.7 8.3 9.9 17.3 15.3 6.9 4.2 8.1 6 4.8 7.8-2.5 1.3-12.5 1.1-16.9-0.3z"/>
  <path d="m1351.2 265.7c-4.8-1.5-11.9-8.2-14.8-13.9-3.2-6.3-6.4-18.7-6.4-24.8 0-2.6 0.7-6.7 1.5-9 1.9-5.3 1.9-10.8 0-18.8-1.7-7.2-4.4-12.9-7.4-15.6-1.4-1.3-2.1-3.1-2.1-5.6 0-3.2 0.4-3.7 3.3-4.8 6.3-2.3 8.2-1.6 13.7 4.6 7.8 8.7 10.3 14.6 10.2 24 0 5.6-0.7 9.7-2.6 15.1-3.3 9.5-3.6 20.3-0.6 26 2.4 4.7 8.3 9.9 17.3 15.3 6.9 4.2 8.1 6 4.8 7.8-2.5 1.3-12.5 1.1-16.9-0.3z"/>
  <path d="m2009.2 265.7c-4.8-1.5-11.9-8.2-14.8-13.9-3.2-6.3-6.4-18.7-6.4-24.8 0-2.6 0.7-6.7 1.5-9 1.9-5.3 1.9-10.8 0-18.8-1.7-7.2-4.4-12.9-7.4-15.6-1.4-1.3-2.1-3.1-2.1-5.6 0-3.2 0.4-3.7 3.3-4.8 6.3-2.3 8.2-1.6 13.7 4.6 7.8 8.7 10.3 14.6 10.2 24 0 5.6-0.7 9.7-2.6 15.1-3.3 9.5-3.6 20.3-0.6 26 2.4 4.7 8.3 9.9 17.3 15.3 6.9 4.2 8.1 6 4.8 7.8-2.5 1.3-12.5 1.1-16.9-0.3z"/>
  <path d="m2667.2 265.7c-4.8-1.5-11.9-8.2-14.8-13.9-3.2-6.3-6.4-18.7-6.4-24.8 0-2.6 0.7-6.7 1.5-9 1.9-5.3 1.9-10.8 0-18.8-1.7-7.2-4.4-12.9-7.4-15.6-1.4-1.3-2.1-3.1-2.1-5.6 0-3.2 0.4-3.7 3.3-4.8 6.3-2.3 8.2-1.6 13.7 4.6 7.8 8.7 10.3 14.6 10.2 24 0 5.6-0.7 9.7-2.6 15.1-3.3 9.5-3.6 20.3-0.6 26 2.4 4.7 8.3 9.9 17.3 15.3 6.9 4.2 8.1 6 4.8 7.8-2.5 1.3-12.5 1.1-16.9-0.3z"/>
  <path d="m3325.2 265.7c-4.8-1.5-11.9-8.2-14.8-13.9-3.2-6.3-6.4-18.7-6.4-24.8 0-2.6 0.7-6.7 1.5-9 1.9-5.3 1.9-10.8 0-18.8-1.7-7.2-4.4-12.9-7.4-15.6-1.4-1.3-2.1-3.1-2.1-5.6 0-3.2 0.4-3.7 3.3-4.8 6.3-2.3 8.2-1.6 13.7 4.6 7.8 8.7 10.3 14.6 10.2 24 0 5.6-0.7 9.7-2.6 15.1-3.3 9.5-3.6 20.3-0.6 26 2.4 4.7 8.3 9.9 17.3 15.3 6.9 4.2 8.1 6 4.8 7.8-2.5 1.3-12.5 1.1-16.9-0.3z"/>
  <path d="m627.5 239.6c-13.8-4.5-23.9-11-36.5-23.5-13.1-13.1-20.5-25-24.1-38.9-2.4-9.3-2.5-21.5-0.3-29.4 1.5-5.1 1.5-6.7 0.4-11.6-3-13.9-11-24.8-26.8-36.5-13.8-10.2-18-12.5-43-22.6-13-5.3-23.7-10.1-23.9-10.6-0.2-0.6 0.3-1.9 1.1-3 1.3-1.8 1.9-1.8 9.2-0.7 9.4 1.5 37.2 10.4 50.1 16 23.4 10.4 53.4 30.1 61.6 40.6 6.5 8.3 6.9 13 2.3 28.4-1.5 4.9-2.7 12.1-3.1 18.4-0.6 8.9-0.4 11.1 1.4 16.2 4.3 12.1 12.7 21.6 30.9 34.6 10.5 7.5 14.2 12.4 14.2 18.7 0 3.2-0.5 4.5-1.9 5.3-2.7 1.4-3.5 1.3-11.6-1.4z"/>
  <path d="m1285.5 239.6c-13.8-4.5-23.9-11-36.5-23.5-13.1-13.1-20.5-25-24.1-38.9-2.4-9.3-2.5-21.5-0.3-29.4 1.5-5.1 1.5-6.7 0.4-11.6-3-13.9-11-24.8-26.8-36.5-13.8-10.2-18-12.5-43-22.6-13-5.3-23.7-10.1-23.9-10.6-0.2-0.6 0.3-1.9 1.1-3 1.3-1.8 1.9-1.8 9.2-0.7 9.4 1.5 37.2 10.4 50.1 16 23.4 10.4 53.4 30.1 61.6 40.6 6.5 8.3 6.9 13 2.3 28.4-1.5 4.9-2.7 12.1-3.1 18.4-0.6 8.9-0.4 11.1 1.4 16.2 4.3 12.1 12.7 21.6 30.9 34.6 10.5 7.5 14.2 12.4 14.2 18.7 0 3.2-0.5 4.5-1.9 5.3-2.7 1.4-3.5 1.3-11.6-1.4z"/>
  <path d="m1943.5 239.6c-13.8-4.5-23.9-11-36.5-23.5-13.1-13.1-20.5-25-24.1-38.9-2.4-9.3-2.5-21.5-0.3-29.4 1.5-5.1 1.5-6.7 0.4-11.6-3-13.9-11-24.8-26.8-36.5-13.8-10.2-18-12.5-43-22.6-13-5.3-23.7-10.1-23.9-10.6-0.2-0.6 0.3-1.9 1.1-3 1.3-1.8 1.9-1.8 9.2-0.7 9.4 1.5 37.2 10.4 50.1 16 23.4 10.4 53.4 30.1 61.6 40.6 6.5 8.3 6.9 13 2.3 28.4-1.5 4.9-2.7 12.1-3.1 18.4-0.6 8.9-0.4 11.1 1.4 16.2 4.3 12.1 12.7 21.6 30.9 34.6 10.5 7.5 14.2 12.4 14.2 18.7 0 3.2-0.5 4.5-1.9 5.3-2.7 1.4-3.5 1.3-11.6-1.4z"/>
  <path d="m2601.5 239.6c-13.8-4.5-23.9-11-36.5-23.5-13.1-13.1-20.5-25-24.1-38.9-2.4-9.3-2.5-21.5-0.3-29.4 1.5-5.1 1.5-6.7 0.4-11.6-3-13.9-11-24.8-26.8-36.5-13.8-10.2-18-12.5-43-22.6-13-5.3-23.7-10.1-23.9-10.6-0.2-0.6 0.3-1.9 1.1-3 1.3-1.8 1.9-1.8 9.2-0.7 9.4 1.5 37.2 10.4 50.1 16 23.4 10.4 53.4 30.1 61.6 40.6 6.5 8.3 6.9 13 2.3 28.4-1.5 4.9-2.7 12.1-3.1 18.4-0.6 8.9-0.4 11.1 1.4 16.2 4.3 12.1 12.7 21.6 30.9 34.6 10.5 7.5 14.2 12.4 14.2 18.7 0 3.2-0.5 4.5-1.9 5.3-2.7 1.4-3.5 1.3-11.6-1.4z"/>
  <path d="m3259.5 239.6c-13.8-4.5-23.9-11-36.5-23.5-13.1-13.1-20.5-25-24.1-38.9-2.4-9.3-2.5-21.5-0.3-29.4 1.5-5.1 1.5-6.7 0.4-11.6-3-13.9-11-24.8-26.8-36.5-13.8-10.2-18-12.5-43-22.6-13-5.3-23.7-10.1-23.9-10.6-0.2-0.6 0.3-1.9 1.1-3 1.3-1.8 1.9-1.8 9.2-0.7 9.4 1.5 37.2 10.4 50.1 16 23.4 10.4 53.4 30.1 61.6 40.6 6.5 8.3 6.9 13 2.3 28.4-1.5 4.9-2.7 12.1-3.1 18.4-0.6 8.9-0.4 11.1 1.4 16.2 4.3 12.1 12.7 21.6 30.9 34.6 10.5 7.5 14.2 12.4 14.2 18.7 0 3.2-0.5 4.5-1.9 5.3-2.7 1.4-3.5 1.3-11.6-1.4z"/>
  <path d="m3917.5 239.6c-13.8-4.5-23.9-11-36.5-23.5-13.1-13.1-20.5-25-24.1-38.9-2.4-9.3-2.5-21.5-0.3-29.4 1.5-5.1 1.5-6.7 0.4-11.6-3-13.9-11-24.8-26.8-36.5-13.8-10.2-18-12.5-43-22.6-13-5.3-23.7-10.1-23.9-10.6-0.2-0.6 0.3-1.9 1.1-3 1.3-1.8 1.9-1.8 9.2-0.7 9.4 1.5 37.2 10.4 50.1 16 23.4 10.4 53.4 30.1 61.6 40.6 6.5 8.3 6.9 13 2.3 28.4-1.5 4.9-2.7 12.1-3.1 18.4-0.6 8.9-0.4 11.1 1.4 16.2 4.3 12.1 12.7 21.6 30.9 34.6 10.5 7.5 14.2 12.4 14.2 18.7 0 3.2-0.5 4.5-1.9 5.3-2.7 1.4-3.5 1.3-11.6-1.4z"/>
  <path d="m290 199.6c-4.3-1.3-10-6.9-12.8-12.7-1.6-3.3-2.2-6.3-2.1-11 0.1-12.7 3-16.2 15.3-18.4 7.5-1.3 8-1.2 13 1 4.8 2.1 5.5 2.8 8.4 9.2 5.6 12.2 4 20.7-5.9 30-2.8 2.6-4.1 3.1-7.9 3-2.5 0-6.1-0.5-8-1.1z"/>
  <path d="m948 199.6c-4.3-1.3-10-6.9-12.8-12.7-1.6-3.3-2.2-6.3-2.1-11 0.1-12.7 3-16.2 15.3-18.4 7.5-1.3 8-1.2 13 1 4.8 2.1 5.5 2.8 8.4 9.2 5.6 12.2 4 20.7-5.9 30-2.8 2.6-4.1 3.1-7.9 3-2.5 0-6.1-0.5-8-1.1z"/>
  <path d="m1606 199.6c-4.3-1.3-10-6.9-12.8-12.7-1.6-3.3-2.2-6.3-2.1-11 0.1-12.7 3-16.2 15.3-18.4 7.5-1.3 8-1.2 13 1 4.8 2.1 5.5 2.8 8.4 9.2 5.6 12.2 4 20.7-5.9 30-2.8 2.6-4.1 3.1-7.9 3-2.5 0-6.1-0.5-8-1.1z"/>
  <path d="m2264 199.6c-4.3-1.3-10-6.9-12.8-12.7-1.6-3.3-2.2-6.3-2.1-11 0.1-12.7 3-16.2 15.3-18.4 7.5-1.3 8-1.2 13 1 4.8 2.1 5.5 2.8 8.4 9.2 5.6 12.2 4 20.7-5.9 30-2.8 2.6-4.1 3.1-7.9 3-2.5 0-6.1-0.5-8-1.1z"/>
  <path d="m2922 199.6c-4.3-1.3-10-6.9-12.8-12.7-1.6-3.3-2.2-6.3-2.1-11 0.1-12.7 3-16.2 15.3-18.4 7.5-1.3 8-1.2 13 1 4.8 2.1 5.5 2.8 8.4 9.2 5.6 12.2 4 20.7-5.9 30-2.8 2.6-4.1 3.1-7.9 3-2.5 0-6.1-0.5-8-1.1z"/>
  <path d="m3580 199.6c-4.3-1.3-10-6.9-12.8-12.7-1.6-3.3-2.2-6.3-2.1-11 0.1-12.7 3-16.2 15.3-18.4 7.5-1.3 8-1.2 13 1 4.8 2.1 5.5 2.8 8.4 9.2 5.6 12.2 4 20.7-5.9 30-2.8 2.6-4.1 3.1-7.9 3-2.5 0-6.1-0.5-8-1.1z"/>
  <path d="m353.3 196.1c-4.8-2.3-6.7-4.8-8.3-11.1-2.8-10.8-2.2-15.7 2.7-23.3 4.2-6.6 14.1-9.5 21.6-6.3 4.3 1.7 9 7.3 11.2 13 2.3 6 1.7 14.4-1.7 21.7-2.8 6.2-3.2 6.4-15 7.4-4.9 0.4-7.2 0.1-10.5-1.4z"/>
  <path d="m1011.3 196.1c-4.8-2.3-6.7-4.8-8.3-11.1-2.8-10.8-2.2-15.7 2.7-23.3 4.2-6.6 14.1-9.5 21.6-6.3 4.3 1.7 9 7.3 11.2 13 2.3 6 1.7 14.4-1.7 21.7-2.8 6.2-3.2 6.4-15 7.4-4.9 0.4-7.2 0.1-10.5-1.4z"/>
  <path d="m1669.3 196.1c-4.8-2.3-6.7-4.8-8.3-11.1-2.8-10.8-2.2-15.7 2.7-23.3 4.2-6.6 14.1-9.5 21.6-6.3 4.3 1.7 9 7.3 11.2 13 2.3 6 1.7 14.4-1.7 21.7-2.8 6.2-3.2 6.4-15 7.4-4.9 0.4-7.2 0.1-10.5-1.4z"/>
  <path d="m2327.3 196.1c-4.8-2.3-6.7-4.8-8.3-11.1-2.8-10.8-2.2-15.7 2.7-23.3 4.2-6.6 14.1-9.5 21.6-6.3 4.3 1.7 9 7.3 11.2 13 2.3 6 1.7 14.4-1.7 21.7-2.8 6.2-3.2 6.4-15 7.4-4.9 0.4-7.2 0.1-10.5-1.4z"/>
  <path d="m2985.3 196.1c-4.8-2.3-6.7-4.8-8.3-11.1-2.8-10.8-2.2-15.7 2.7-23.3 4.2-6.6 14.1-9.5 21.6-6.3 4.3 1.7 9 7.3 11.2 13 2.3 6 1.7 14.4-1.7 21.7-2.8 6.2-3.2 6.4-15 7.4-4.9 0.4-7.2 0.1-10.5-1.4z"/>
  <path d="m3643.3 196.1c-4.8-2.3-6.7-4.8-8.3-11.1-2.8-10.8-2.2-15.7 2.7-23.3 4.2-6.6 14.1-9.5 21.6-6.3 4.3 1.7 9 7.3 11.2 13 2.3 6 1.7 14.4-1.7 21.7-2.8 6.2-3.2 6.4-15 7.4-4.9 0.4-7.2 0.1-10.5-1.4z"/>
  <path d="m636.2 179.8c-4.3-3-10.9-12-12.2-16.6-1.9-6.9-1.2-14.5 2.5-26.2 4-12.9 4.6-21.8 1.7-26.2-2.3-3.5-7.9-7.9-17.4-13.5-7.7-4.6-9.1-6.6-6.6-9.1 1.7-1.7 9.6-1.5 15.2 0.4 7.1 2.5 15 10.2 19.7 19.5 3.6 7.2 3.9 8.5 3.9 16.1 0 4.5-0.7 10.8-1.6 14-1.4 5-1.5 7.1-0.5 14.9 1.3 10.3 2.8 13.9 7.1 17.1 2.3 1.7 3 3 3 5.6 0 2.1-0.7 4-1.7 4.8-2.8 2.1-9.4 1.7-13.1-0.8z"/>
  <path d="m1294.2 179.8c-4.3-3-10.9-12-12.2-16.6-1.9-6.9-1.2-14.5 2.5-26.2 4-12.9 4.6-21.8 1.7-26.2-2.3-3.5-7.9-7.9-17.4-13.5-7.7-4.6-9.1-6.6-6.6-9.1 1.7-1.7 9.6-1.5 15.2 0.4 7.1 2.5 15 10.2 19.7 19.5 3.6 7.2 3.9 8.5 3.9 16.1 0 4.5-0.7 10.8-1.6 14-1.4 5-1.5 7.1-0.5 14.9 1.3 10.3 2.8 13.9 7.1 17.1 2.3 1.7 3 3 3 5.6 0 2.1-0.7 4-1.7 4.8-2.8 2.1-9.4 1.7-13.1-0.8z"/>
  <path d="m1952.2 179.8c-4.3-3-10.9-12-12.2-16.6-1.9-6.9-1.2-14.5 2.5-26.2 4-12.9 4.6-21.8 1.7-26.2-2.3-3.5-7.9-7.9-17.4-13.5-7.7-4.6-9.1-6.6-6.6-9.1 1.7-1.7 9.6-1.5 15.2 0.4 7.1 2.5 15 10.2 19.7 19.5 3.6 7.2 3.9 8.5 3.9 16.1 0 4.5-0.7 10.8-1.6 14-1.4 5-1.5 7.1-0.5 14.9 1.3 10.3 2.8 13.9 7.1 17.1 2.3 1.7 3 3 3 5.6 0 2.1-0.7 4-1.7 4.8-2.8 2.1-9.4 1.7-13.1-0.8z"/>
  <path d="m2610.2 179.8c-4.3-3-10.9-12-12.2-16.6-1.9-6.9-1.2-14.5 2.5-26.2 4-12.9 4.6-21.8 1.7-26.2-2.3-3.5-7.9-7.9-17.4-13.5-7.7-4.6-9.1-6.6-6.6-9.1 1.7-1.7 9.6-1.5 15.2 0.4 7.1 2.5 15 10.2 19.7 19.5 3.6 7.2 3.9 8.5 3.9 16.1 0 4.5-0.7 10.8-1.6 14-1.4 5-1.5 7.1-0.5 14.9 1.3 10.3 2.8 13.9 7.1 17.1 2.3 1.7 3 3 3 5.6 0 2.1-0.7 4-1.7 4.8-2.8 2.1-9.4 1.7-13.1-0.8z"/>
  <path d="m3268.2 179.8c-4.3-3-10.9-12-12.2-16.6-1.9-6.9-1.2-14.5 2.5-26.2 4-12.9 4.6-21.8 1.7-26.2-2.3-3.5-7.9-7.9-17.4-13.5-7.7-4.6-9.1-6.6-6.6-9.1 1.7-1.7 9.6-1.5 15.2 0.4 7.1 2.5 15 10.2 19.7 19.5 3.6 7.2 3.9 8.5 3.9 16.1 0 4.5-0.7 10.8-1.6 14-1.4 5-1.5 7.1-0.5 14.9 1.3 10.3 2.8 13.9 7.1 17.1 2.3 1.7 3 3 3 5.6 0 2.1-0.7 4-1.7 4.8-2.8 2.1-9.4 1.7-13.1-0.8z"/>
  <path d="m3926.2 179.8c-4.3-3-10.9-12-12.2-16.6-1.9-6.9-1.2-14.5 2.5-26.2 4-12.9 4.6-21.8 1.7-26.2-2.3-3.5-7.9-7.9-17.4-13.5-7.7-4.6-9.1-6.6-6.6-9.1 1.7-1.7 9.6-1.5 15.2 0.4 7.1 2.5 15 10.2 19.7 19.5 3.6 7.2 3.9 8.5 3.9 16.1 0 4.5-0.7 10.8-1.6 14-1.4 5-1.5 7.1-0.5 14.9 1.3 10.3 2.8 13.9 7.1 17.1 2.3 1.7 3 3 3 5.6 0 2.1-0.7 4-1.7 4.8-2.8 2.1-9.4 1.7-13.1-0.8z"/>
  <path d="m90.4 117.1c-2.1-1.6-5.2-4.3-6.9-6.1-8.4-9-21-17.1-39.7-25.5-16.7-7.5-17.5-8.1-11.2-8.5 15.2-1.1 24.7-0.3 37.9 3.5 7.2 2 13.6 3.8 14.4 3.8 0.9 0.1 3.2-3 5.6-7.3 8.6-15.5 17.7-22.1 33-24 7.1-0.9 8.1-0.8 9.3 0.7 2.5 3.5 1.5 5.9-4.5 9.6-7.9 4.8-18.4 15.9-22.1 23.4-3.8 7.4-7.2 19.2-7.2 24.8 0 3.8-2.2 8.5-3.9 8.5-0.4 0-2.6-1.3-4.7-2.9z"/>
  <path d="m748.4 117.1c-2.1-1.6-5.2-4.3-6.9-6.1-8.4-9-21-17.1-39.7-25.5-16.7-7.5-17.5-8.1-11.2-8.5 15.2-1.1 24.7-0.3 37.9 3.5 7.2 2 13.6 3.8 14.4 3.8 0.9 0.1 3.2-3 5.6-7.3 8.6-15.5 17.7-22.1 33-24 7.1-0.9 8.1-0.8 9.3 0.7 2.5 3.5 1.5 5.9-4.5 9.6-7.9 4.8-18.4 15.9-22.1 23.4-3.8 7.4-7.2 19.2-7.2 24.8 0 3.8-2.2 8.5-3.9 8.5-0.4 0-2.6-1.3-4.7-2.9z"/>
  <path d="m1406.4 117.1c-2.1-1.6-5.2-4.3-6.9-6.1-8.4-9-21-17.1-39.7-25.5-16.7-7.5-17.5-8.1-11.2-8.5 15.2-1.1 24.7-0.3 37.9 3.5 7.2 2 13.6 3.8 14.4 3.8 0.9 0.1 3.2-3 5.6-7.3 8.6-15.5 17.7-22.1 33-24 7.1-0.9 8.1-0.8 9.3 0.7 2.5 3.5 1.5 5.9-4.5 9.6-7.9 4.8-18.4 15.9-22.1 23.4-3.8 7.4-7.2 19.2-7.2 24.8 0 3.8-2.2 8.5-3.9 8.5-0.4 0-2.6-1.3-4.7-2.9z"/>
  <path d="m2064.4 117.1c-2.1-1.6-5.2-4.3-6.9-6.1-8.4-9-21-17.1-39.7-25.5-16.7-7.5-17.5-8.1-11.2-8.5 15.2-1.1 24.7-0.3 37.9 3.5 7.2 2 13.6 3.8 14.4 3.8 0.9 0.1 3.2-3 5.6-7.3 8.6-15.5 17.7-22.1 33-24 7.1-0.9 8.1-0.8 9.3 0.7 2.5 3.5 1.5 5.9-4.5 9.6-7.9 4.8-18.4 15.9-22.1 23.4-3.8 7.4-7.2 19.2-7.2 24.8 0 3.8-2.2 8.5-3.9 8.5-0.4 0-2.6-1.3-4.7-2.9z"/>
  <path d="m2722.4 117.1c-2.1-1.6-5.2-4.3-6.9-6.1-8.4-9-21-17.1-39.7-25.5-16.7-7.5-17.5-8.1-11.2-8.5 15.2-1.1 24.7-0.3 37.9 3.5 7.2 2 13.6 3.8 14.4 3.8 0.9 0.1 3.2-3 5.6-7.3 8.6-15.5 17.7-22.1 33-24 7.1-0.9 8.1-0.8 9.3 0.7 2.5 3.5 1.5 5.9-4.5 9.6-7.9 4.8-18.4 15.9-22.1 23.4-3.8 7.4-7.2 19.2-7.2 24.8 0 3.8-2.2 8.5-3.9 8.5-0.4 0-2.6-1.3-4.7-2.9z"/>
  <path d="m3380.4 117.1c-2.1-1.6-5.2-4.3-6.9-6.1-8.4-9-21-17.1-39.7-25.5-16.7-7.5-17.5-8.1-11.2-8.5 15.2-1.1 24.7-0.3 37.9 3.5 7.2 2 13.6 3.8 14.4 3.8 0.9 0.1 3.2-3 5.6-7.3 8.6-15.5 17.7-22.1 33-24 7.1-0.9 8.1-0.8 9.3 0.7 2.5 3.5 1.5 5.9-4.5 9.6-7.9 4.8-18.4 15.9-22.1 23.4-3.8 7.4-7.2 19.2-7.2 24.8 0 3.8-2.2 8.5-3.9 8.5-0.4 0-2.6-1.3-4.7-2.9z"/>
  <path d="m0 13v-12h1974 1974v12 12h-1974-1974v-12z"/>
 </g>
</svg>
